%TF.GenerationSoftware,KiCad,Pcbnew,(6.0.9-0)*%
%TF.CreationDate,2022-12-14T23:49:12+00:00*%
%TF.ProjectId,MSX_DE1_Hat,4d53585f-4445-4315-9f48-61742e6b6963,1.1*%
%TF.SameCoordinates,Original*%
%TF.FileFunction,Legend,Top*%
%TF.FilePolarity,Positive*%
%FSLAX46Y46*%
G04 Gerber Fmt 4.6, Leading zero omitted, Abs format (unit mm)*
G04 Created by KiCad (PCBNEW (6.0.9-0)) date 2022-12-14 23:49:12*
%MOMM*%
%LPD*%
G01*
G04 APERTURE LIST*
%ADD10C,0.150000*%
%ADD11C,0.110000*%
%ADD12C,0.075000*%
%ADD13C,0.200000*%
%ADD14C,0.125000*%
%ADD15C,0.120000*%
G04 APERTURE END LIST*
D10*
X75406285Y-21391619D02*
X75453904Y-21344000D01*
X75549142Y-21296380D01*
X75787238Y-21296380D01*
X75882476Y-21344000D01*
X75930095Y-21391619D01*
X75977714Y-21486857D01*
X75977714Y-21582095D01*
X75930095Y-21724952D01*
X75358666Y-22296380D01*
X75977714Y-22296380D01*
D11*
X120572265Y-27580196D02*
X120057979Y-28351624D01*
X121115122Y-28151624D02*
X121086551Y-28180196D01*
X121000836Y-28208767D01*
X120943693Y-28208767D01*
X120857979Y-28180196D01*
X120800836Y-28123053D01*
X120772265Y-28065910D01*
X120743693Y-27951624D01*
X120743693Y-27865910D01*
X120772265Y-27751624D01*
X120800836Y-27694481D01*
X120857979Y-27637339D01*
X120943693Y-27608767D01*
X121000836Y-27608767D01*
X121086551Y-27637339D01*
X121115122Y-27665910D01*
X121343693Y-28180196D02*
X121429408Y-28208767D01*
X121572265Y-28208767D01*
X121629408Y-28180196D01*
X121657979Y-28151624D01*
X121686551Y-28094481D01*
X121686551Y-28037339D01*
X121657979Y-27980196D01*
X121629408Y-27951624D01*
X121572265Y-27923053D01*
X121457979Y-27894481D01*
X121400836Y-27865910D01*
X121372265Y-27837339D01*
X121343693Y-27780196D01*
X121343693Y-27723053D01*
X121372265Y-27665910D01*
X121400836Y-27637339D01*
X121457979Y-27608767D01*
X121600836Y-27608767D01*
X121686551Y-27637339D01*
X121915122Y-27665910D02*
X121943693Y-27637339D01*
X122000836Y-27608767D01*
X122143693Y-27608767D01*
X122200836Y-27637339D01*
X122229408Y-27665910D01*
X122257979Y-27723053D01*
X122257979Y-27780196D01*
X122229408Y-27865910D01*
X121886551Y-28208767D01*
X122257979Y-28208767D01*
D12*
X52777459Y-25037021D02*
X52777459Y-24727497D01*
X52967935Y-24894164D01*
X52967935Y-24822735D01*
X52991745Y-24775116D01*
X53015554Y-24751306D01*
X53063173Y-24727497D01*
X53182221Y-24727497D01*
X53229840Y-24751306D01*
X53253649Y-24775116D01*
X53277459Y-24822735D01*
X53277459Y-24965592D01*
X53253649Y-25013211D01*
X53229840Y-25037021D01*
X53229840Y-24513211D02*
X53253649Y-24489402D01*
X53277459Y-24513211D01*
X53253649Y-24537021D01*
X53229840Y-24513211D01*
X53277459Y-24513211D01*
X52777459Y-24322735D02*
X52777459Y-24013211D01*
X52967935Y-24179878D01*
X52967935Y-24108449D01*
X52991745Y-24060830D01*
X53015554Y-24037021D01*
X53063173Y-24013211D01*
X53182221Y-24013211D01*
X53229840Y-24037021D01*
X53253649Y-24060830D01*
X53277459Y-24108449D01*
X53277459Y-24251306D01*
X53253649Y-24298925D01*
X53229840Y-24322735D01*
X52944126Y-23846545D02*
X53277459Y-23727497D01*
X52944126Y-23608449D01*
X52753649Y-23060830D02*
X53396507Y-23489402D01*
X53277459Y-22894164D02*
X52777459Y-22894164D01*
X52777459Y-22775116D01*
X52801269Y-22703687D01*
X52848888Y-22656068D01*
X52896507Y-22632259D01*
X52991745Y-22608449D01*
X53063173Y-22608449D01*
X53158411Y-22632259D01*
X53206030Y-22656068D01*
X53253649Y-22703687D01*
X53277459Y-22775116D01*
X53277459Y-22894164D01*
X53015554Y-22394164D02*
X53015554Y-22227497D01*
X53277459Y-22156068D02*
X53277459Y-22394164D01*
X52777459Y-22394164D01*
X52777459Y-22156068D01*
X53277459Y-21679878D02*
X53277459Y-21965592D01*
X53277459Y-21822735D02*
X52777459Y-21822735D01*
X52848888Y-21870354D01*
X52896507Y-21917973D01*
X52920316Y-21965592D01*
D11*
X82361142Y-28211428D02*
X82361142Y-27611428D01*
X82504000Y-27611428D01*
X82589714Y-27640000D01*
X82646857Y-27697142D01*
X82675428Y-27754285D01*
X82704000Y-27868571D01*
X82704000Y-27954285D01*
X82675428Y-28068571D01*
X82646857Y-28125714D01*
X82589714Y-28182857D01*
X82504000Y-28211428D01*
X82361142Y-28211428D01*
X83246857Y-27611428D02*
X82961142Y-27611428D01*
X82932571Y-27897142D01*
X82961142Y-27868571D01*
X83018285Y-27840000D01*
X83161142Y-27840000D01*
X83218285Y-27868571D01*
X83246857Y-27897142D01*
X83275428Y-27954285D01*
X83275428Y-28097142D01*
X83246857Y-28154285D01*
X83218285Y-28182857D01*
X83161142Y-28211428D01*
X83018285Y-28211428D01*
X82961142Y-28182857D01*
X82932571Y-28154285D01*
X104949714Y-27024000D02*
X105235428Y-27024000D01*
X104892571Y-27195428D02*
X105092571Y-26595428D01*
X105292571Y-27195428D01*
X105806857Y-27195428D02*
X105464000Y-27195428D01*
X105635428Y-27195428D02*
X105635428Y-26595428D01*
X105578285Y-26681142D01*
X105521142Y-26738285D01*
X105464000Y-26766857D01*
X106378285Y-27195428D02*
X106035428Y-27195428D01*
X106206857Y-27195428D02*
X106206857Y-26595428D01*
X106149714Y-26681142D01*
X106092571Y-26738285D01*
X106035428Y-26766857D01*
X89966857Y-26624000D02*
X89909714Y-26595428D01*
X89824000Y-26595428D01*
X89738285Y-26624000D01*
X89681142Y-26681142D01*
X89652571Y-26738285D01*
X89624000Y-26852571D01*
X89624000Y-26938285D01*
X89652571Y-27052571D01*
X89681142Y-27109714D01*
X89738285Y-27166857D01*
X89824000Y-27195428D01*
X89881142Y-27195428D01*
X89966857Y-27166857D01*
X89995428Y-27138285D01*
X89995428Y-26938285D01*
X89881142Y-26938285D01*
X90252571Y-27195428D02*
X90252571Y-26595428D01*
X90595428Y-27195428D01*
X90595428Y-26595428D01*
X90881142Y-27195428D02*
X90881142Y-26595428D01*
X91024000Y-26595428D01*
X91109714Y-26624000D01*
X91166857Y-26681142D01*
X91195428Y-26738285D01*
X91224000Y-26852571D01*
X91224000Y-26938285D01*
X91195428Y-27052571D01*
X91166857Y-27109714D01*
X91109714Y-27166857D01*
X91024000Y-27195428D01*
X90881142Y-27195428D01*
X102695428Y-28040000D02*
X102981142Y-28040000D01*
X102638285Y-28211428D02*
X102838285Y-27611428D01*
X103038285Y-28211428D01*
X103181142Y-27611428D02*
X103581142Y-27611428D01*
X103324000Y-28211428D01*
D10*
X127206476Y-24344380D02*
X127825523Y-24344380D01*
X127492190Y-24725333D01*
X127635047Y-24725333D01*
X127730285Y-24772952D01*
X127777904Y-24820571D01*
X127825523Y-24915809D01*
X127825523Y-25153904D01*
X127777904Y-25249142D01*
X127730285Y-25296761D01*
X127635047Y-25344380D01*
X127349333Y-25344380D01*
X127254095Y-25296761D01*
X127206476Y-25249142D01*
X128301714Y-25344380D02*
X128492190Y-25344380D01*
X128587428Y-25296761D01*
X128635047Y-25249142D01*
X128730285Y-25106285D01*
X128777904Y-24915809D01*
X128777904Y-24534857D01*
X128730285Y-24439619D01*
X128682666Y-24392000D01*
X128587428Y-24344380D01*
X128396952Y-24344380D01*
X128301714Y-24392000D01*
X128254095Y-24439619D01*
X128206476Y-24534857D01*
X128206476Y-24772952D01*
X128254095Y-24868190D01*
X128301714Y-24915809D01*
X128396952Y-24963428D01*
X128587428Y-24963428D01*
X128682666Y-24915809D01*
X128730285Y-24868190D01*
X128777904Y-24772952D01*
D11*
X92013142Y-28211428D02*
X92013142Y-27611428D01*
X92156000Y-27611428D01*
X92241714Y-27640000D01*
X92298857Y-27697142D01*
X92327428Y-27754285D01*
X92356000Y-27868571D01*
X92356000Y-27954285D01*
X92327428Y-28068571D01*
X92298857Y-28125714D01*
X92241714Y-28182857D01*
X92156000Y-28211428D01*
X92013142Y-28211428D01*
X92584571Y-27668571D02*
X92613142Y-27640000D01*
X92670285Y-27611428D01*
X92813142Y-27611428D01*
X92870285Y-27640000D01*
X92898857Y-27668571D01*
X92927428Y-27725714D01*
X92927428Y-27782857D01*
X92898857Y-27868571D01*
X92556000Y-28211428D01*
X92927428Y-28211428D01*
X114313113Y-26542108D02*
X113798827Y-27313536D01*
X114513113Y-27170679D02*
X114513113Y-26570679D01*
X114913113Y-26570679D02*
X115027399Y-26570679D01*
X115084541Y-26599251D01*
X115141684Y-26656393D01*
X115170256Y-26770679D01*
X115170256Y-26970679D01*
X115141684Y-27084965D01*
X115084541Y-27142108D01*
X115027399Y-27170679D01*
X114913113Y-27170679D01*
X114855970Y-27142108D01*
X114798827Y-27084965D01*
X114770256Y-26970679D01*
X114770256Y-26770679D01*
X114798827Y-26656393D01*
X114855970Y-26599251D01*
X114913113Y-26570679D01*
X115770256Y-27170679D02*
X115570256Y-26884965D01*
X115427399Y-27170679D02*
X115427399Y-26570679D01*
X115655970Y-26570679D01*
X115713113Y-26599251D01*
X115741684Y-26627822D01*
X115770256Y-26684965D01*
X115770256Y-26770679D01*
X115741684Y-26827822D01*
X115713113Y-26856393D01*
X115655970Y-26884965D01*
X115427399Y-26884965D01*
X116427399Y-27227822D02*
X116370256Y-27199251D01*
X116313113Y-27142108D01*
X116227399Y-27056393D01*
X116170256Y-27027822D01*
X116113113Y-27027822D01*
X116141684Y-27170679D02*
X116084541Y-27142108D01*
X116027399Y-27084965D01*
X115998827Y-26970679D01*
X115998827Y-26770679D01*
X116027399Y-26656393D01*
X116084541Y-26599251D01*
X116141684Y-26570679D01*
X116255970Y-26570679D01*
X116313113Y-26599251D01*
X116370256Y-26656393D01*
X116398827Y-26770679D01*
X116398827Y-26970679D01*
X116370256Y-27084965D01*
X116313113Y-27142108D01*
X116255970Y-27170679D01*
X116141684Y-27170679D01*
X92027428Y-27024000D02*
X92313142Y-27024000D01*
X91970285Y-27195428D02*
X92170285Y-26595428D01*
X92370285Y-27195428D01*
X92684571Y-26595428D02*
X92741714Y-26595428D01*
X92798857Y-26624000D01*
X92827428Y-26652571D01*
X92856000Y-26709714D01*
X92884571Y-26824000D01*
X92884571Y-26966857D01*
X92856000Y-27081142D01*
X92827428Y-27138285D01*
X92798857Y-27166857D01*
X92741714Y-27195428D01*
X92684571Y-27195428D01*
X92627428Y-27166857D01*
X92598857Y-27138285D01*
X92570285Y-27081142D01*
X92541714Y-26966857D01*
X92541714Y-26824000D01*
X92570285Y-26709714D01*
X92598857Y-26652571D01*
X92627428Y-26624000D01*
X92684571Y-26595428D01*
D10*
X58047619Y-21296380D02*
X58047619Y-22010666D01*
X58000000Y-22153523D01*
X57904761Y-22248761D01*
X57761904Y-22296380D01*
X57666666Y-22296380D01*
X58952380Y-21629714D02*
X58952380Y-22296380D01*
X58523809Y-21629714D02*
X58523809Y-22153523D01*
X58571428Y-22248761D01*
X58666666Y-22296380D01*
X58809523Y-22296380D01*
X58904761Y-22248761D01*
X58952380Y-22201142D01*
X59428571Y-22296380D02*
X59428571Y-21629714D01*
X59428571Y-21724952D02*
X59476190Y-21677333D01*
X59571428Y-21629714D01*
X59714285Y-21629714D01*
X59809523Y-21677333D01*
X59857142Y-21772571D01*
X59857142Y-22296380D01*
X59857142Y-21772571D02*
X59904761Y-21677333D01*
X60000000Y-21629714D01*
X60142857Y-21629714D01*
X60238095Y-21677333D01*
X60285714Y-21772571D01*
X60285714Y-22296380D01*
X60761904Y-21629714D02*
X60761904Y-22629714D01*
X60761904Y-21677333D02*
X60857142Y-21629714D01*
X61047619Y-21629714D01*
X61142857Y-21677333D01*
X61190476Y-21724952D01*
X61238095Y-21820190D01*
X61238095Y-22105904D01*
X61190476Y-22201142D01*
X61142857Y-22248761D01*
X61047619Y-22296380D01*
X60857142Y-22296380D01*
X60761904Y-22248761D01*
X62047619Y-22248761D02*
X61952380Y-22296380D01*
X61761904Y-22296380D01*
X61666666Y-22248761D01*
X61619047Y-22153523D01*
X61619047Y-21772571D01*
X61666666Y-21677333D01*
X61761904Y-21629714D01*
X61952380Y-21629714D01*
X62047619Y-21677333D01*
X62095238Y-21772571D01*
X62095238Y-21867809D01*
X61619047Y-21963047D01*
X62523809Y-22296380D02*
X62523809Y-21629714D01*
X62523809Y-21820190D02*
X62571428Y-21724952D01*
X62619047Y-21677333D01*
X62714285Y-21629714D01*
X62809523Y-21629714D01*
X63904761Y-22296380D02*
X63904761Y-21296380D01*
X64380952Y-21629714D02*
X64380952Y-22296380D01*
X64380952Y-21724952D02*
X64428571Y-21677333D01*
X64523809Y-21629714D01*
X64666666Y-21629714D01*
X64761904Y-21677333D01*
X64809523Y-21772571D01*
X64809523Y-22296380D01*
X65238095Y-22248761D02*
X65333333Y-22296380D01*
X65523809Y-22296380D01*
X65619047Y-22248761D01*
X65666666Y-22153523D01*
X65666666Y-22105904D01*
X65619047Y-22010666D01*
X65523809Y-21963047D01*
X65380952Y-21963047D01*
X65285714Y-21915428D01*
X65238095Y-21820190D01*
X65238095Y-21772571D01*
X65285714Y-21677333D01*
X65380952Y-21629714D01*
X65523809Y-21629714D01*
X65619047Y-21677333D01*
X65952380Y-21629714D02*
X66333333Y-21629714D01*
X66095238Y-21296380D02*
X66095238Y-22153523D01*
X66142857Y-22248761D01*
X66238095Y-22296380D01*
X66333333Y-22296380D01*
X66666666Y-22296380D02*
X66666666Y-21629714D01*
X66666666Y-21820190D02*
X66714285Y-21724952D01*
X66761904Y-21677333D01*
X66857142Y-21629714D01*
X66952380Y-21629714D01*
X67714285Y-21629714D02*
X67714285Y-22296380D01*
X67285714Y-21629714D02*
X67285714Y-22153523D01*
X67333333Y-22248761D01*
X67428571Y-22296380D01*
X67571428Y-22296380D01*
X67666666Y-22248761D01*
X67714285Y-22201142D01*
X68619047Y-22248761D02*
X68523809Y-22296380D01*
X68333333Y-22296380D01*
X68238095Y-22248761D01*
X68190476Y-22201142D01*
X68142857Y-22105904D01*
X68142857Y-21820190D01*
X68190476Y-21724952D01*
X68238095Y-21677333D01*
X68333333Y-21629714D01*
X68523809Y-21629714D01*
X68619047Y-21677333D01*
X68904761Y-21629714D02*
X69285714Y-21629714D01*
X69047619Y-21296380D02*
X69047619Y-22153523D01*
X69095238Y-22248761D01*
X69190476Y-22296380D01*
X69285714Y-22296380D01*
X69619047Y-22296380D02*
X69619047Y-21629714D01*
X69619047Y-21296380D02*
X69571428Y-21344000D01*
X69619047Y-21391619D01*
X69666666Y-21344000D01*
X69619047Y-21296380D01*
X69619047Y-21391619D01*
X70238095Y-22296380D02*
X70142857Y-22248761D01*
X70095238Y-22201142D01*
X70047619Y-22105904D01*
X70047619Y-21820190D01*
X70095238Y-21724952D01*
X70142857Y-21677333D01*
X70238095Y-21629714D01*
X70380952Y-21629714D01*
X70476190Y-21677333D01*
X70523809Y-21724952D01*
X70571428Y-21820190D01*
X70571428Y-22105904D01*
X70523809Y-22201142D01*
X70476190Y-22248761D01*
X70380952Y-22296380D01*
X70238095Y-22296380D01*
X71000000Y-21629714D02*
X71000000Y-22296380D01*
X71000000Y-21724952D02*
X71047619Y-21677333D01*
X71142857Y-21629714D01*
X71285714Y-21629714D01*
X71380952Y-21677333D01*
X71428571Y-21772571D01*
X71428571Y-22296380D01*
X71857142Y-22248761D02*
X71952380Y-22296380D01*
X72142857Y-22296380D01*
X72238095Y-22248761D01*
X72285714Y-22153523D01*
X72285714Y-22105904D01*
X72238095Y-22010666D01*
X72142857Y-21963047D01*
X72000000Y-21963047D01*
X71904761Y-21915428D01*
X71857142Y-21820190D01*
X71857142Y-21772571D01*
X71904761Y-21677333D01*
X72000000Y-21629714D01*
X72142857Y-21629714D01*
X72238095Y-21677333D01*
D11*
X117235498Y-27528924D02*
X116721212Y-28300352D01*
X117406927Y-28128924D02*
X117492641Y-28157495D01*
X117635498Y-28157495D01*
X117692641Y-28128924D01*
X117721212Y-28100352D01*
X117749784Y-28043209D01*
X117749784Y-27986067D01*
X117721212Y-27928924D01*
X117692641Y-27900352D01*
X117635498Y-27871781D01*
X117521212Y-27843209D01*
X117464070Y-27814638D01*
X117435498Y-27786067D01*
X117406927Y-27728924D01*
X117406927Y-27671781D01*
X117435498Y-27614638D01*
X117464070Y-27586067D01*
X117521212Y-27557495D01*
X117664070Y-27557495D01*
X117749784Y-27586067D01*
X118292641Y-28157495D02*
X118006927Y-28157495D01*
X118006927Y-27557495D01*
X118406927Y-27557495D02*
X118749784Y-27557495D01*
X118578355Y-28157495D02*
X118578355Y-27557495D01*
X118921212Y-28128924D02*
X119006927Y-28157495D01*
X119149784Y-28157495D01*
X119206927Y-28128924D01*
X119235498Y-28100352D01*
X119264070Y-28043209D01*
X119264070Y-27986067D01*
X119235498Y-27928924D01*
X119206927Y-27900352D01*
X119149784Y-27871781D01*
X119035498Y-27843209D01*
X118978355Y-27814638D01*
X118949784Y-27786067D01*
X118921212Y-27728924D01*
X118921212Y-27671781D01*
X118949784Y-27614638D01*
X118978355Y-27586067D01*
X119035498Y-27557495D01*
X119178355Y-27557495D01*
X119264070Y-27586067D01*
X119806927Y-28157495D02*
X119521212Y-28157495D01*
X119521212Y-27557495D01*
X82375428Y-27024000D02*
X82661142Y-27024000D01*
X82318285Y-27195428D02*
X82518285Y-26595428D01*
X82718285Y-27195428D01*
X82861142Y-26595428D02*
X83232571Y-26595428D01*
X83032571Y-26824000D01*
X83118285Y-26824000D01*
X83175428Y-26852571D01*
X83204000Y-26881142D01*
X83232571Y-26938285D01*
X83232571Y-27081142D01*
X83204000Y-27138285D01*
X83175428Y-27166857D01*
X83118285Y-27195428D01*
X82946857Y-27195428D01*
X82889714Y-27166857D01*
X82861142Y-27138285D01*
X117701055Y-26554764D02*
X117186769Y-27326192D01*
X118243912Y-27126192D02*
X118215341Y-27154764D01*
X118129626Y-27183335D01*
X118072483Y-27183335D01*
X117986769Y-27154764D01*
X117929626Y-27097621D01*
X117901055Y-27040478D01*
X117872483Y-26926192D01*
X117872483Y-26840478D01*
X117901055Y-26726192D01*
X117929626Y-26669049D01*
X117986769Y-26611907D01*
X118072483Y-26583335D01*
X118129626Y-26583335D01*
X118215341Y-26611907D01*
X118243912Y-26640478D01*
X118472483Y-27154764D02*
X118558198Y-27183335D01*
X118701055Y-27183335D01*
X118758198Y-27154764D01*
X118786769Y-27126192D01*
X118815341Y-27069049D01*
X118815341Y-27011907D01*
X118786769Y-26954764D01*
X118758198Y-26926192D01*
X118701055Y-26897621D01*
X118586769Y-26869049D01*
X118529626Y-26840478D01*
X118501055Y-26811907D01*
X118472483Y-26754764D01*
X118472483Y-26697621D01*
X118501055Y-26640478D01*
X118529626Y-26611907D01*
X118586769Y-26583335D01*
X118729626Y-26583335D01*
X118815341Y-26611907D01*
X119386769Y-27183335D02*
X119043912Y-27183335D01*
X119215341Y-27183335D02*
X119215341Y-26583335D01*
X119158198Y-26669049D01*
X119101055Y-26726192D01*
X119043912Y-26754764D01*
X90309714Y-27611428D02*
X90024000Y-27611428D01*
X89995428Y-27897142D01*
X90024000Y-27868571D01*
X90081142Y-27840000D01*
X90224000Y-27840000D01*
X90281142Y-27868571D01*
X90309714Y-27897142D01*
X90338285Y-27954285D01*
X90338285Y-28097142D01*
X90309714Y-28154285D01*
X90281142Y-28182857D01*
X90224000Y-28211428D01*
X90081142Y-28211428D01*
X90024000Y-28182857D01*
X89995428Y-28154285D01*
X90509714Y-27611428D02*
X90709714Y-28211428D01*
X90909714Y-27611428D01*
X87441142Y-28211428D02*
X87441142Y-27611428D01*
X87584000Y-27611428D01*
X87669714Y-27640000D01*
X87726857Y-27697142D01*
X87755428Y-27754285D01*
X87784000Y-27868571D01*
X87784000Y-27954285D01*
X87755428Y-28068571D01*
X87726857Y-28125714D01*
X87669714Y-28182857D01*
X87584000Y-28211428D01*
X87441142Y-28211428D01*
X87984000Y-27611428D02*
X88355428Y-27611428D01*
X88155428Y-27840000D01*
X88241142Y-27840000D01*
X88298285Y-27868571D01*
X88326857Y-27897142D01*
X88355428Y-27954285D01*
X88355428Y-28097142D01*
X88326857Y-28154285D01*
X88298285Y-28182857D01*
X88241142Y-28211428D01*
X88069714Y-28211428D01*
X88012571Y-28182857D01*
X87984000Y-28154285D01*
X99361714Y-28040000D02*
X99647428Y-28040000D01*
X99304571Y-28211428D02*
X99504571Y-27611428D01*
X99704571Y-28211428D01*
X100218857Y-28211428D02*
X99876000Y-28211428D01*
X100047428Y-28211428D02*
X100047428Y-27611428D01*
X99990285Y-27697142D01*
X99933142Y-27754285D01*
X99876000Y-27782857D01*
X100447428Y-27668571D02*
X100476000Y-27640000D01*
X100533142Y-27611428D01*
X100676000Y-27611428D01*
X100733142Y-27640000D01*
X100761714Y-27668571D01*
X100790285Y-27725714D01*
X100790285Y-27782857D01*
X100761714Y-27868571D01*
X100418857Y-28211428D01*
X100790285Y-28211428D01*
D13*
X87301663Y-35492194D02*
X87301663Y-34492194D01*
X87730235Y-35492194D02*
X87730235Y-34968385D01*
X87682616Y-34873147D01*
X87587377Y-34825528D01*
X87444520Y-34825528D01*
X87349282Y-34873147D01*
X87301663Y-34920766D01*
X88063568Y-34825528D02*
X88444520Y-34825528D01*
X88206425Y-34492194D02*
X88206425Y-35349337D01*
X88254044Y-35444575D01*
X88349282Y-35492194D01*
X88444520Y-35492194D01*
X88634996Y-34825528D02*
X89015949Y-34825528D01*
X88777854Y-34492194D02*
X88777854Y-35349337D01*
X88825473Y-35444575D01*
X88920711Y-35492194D01*
X89015949Y-35492194D01*
X89349282Y-34825528D02*
X89349282Y-35825528D01*
X89349282Y-34873147D02*
X89444520Y-34825528D01*
X89634996Y-34825528D01*
X89730235Y-34873147D01*
X89777854Y-34920766D01*
X89825473Y-35016004D01*
X89825473Y-35301718D01*
X89777854Y-35396956D01*
X89730235Y-35444575D01*
X89634996Y-35492194D01*
X89444520Y-35492194D01*
X89349282Y-35444575D01*
X90206425Y-35444575D02*
X90301663Y-35492194D01*
X90492139Y-35492194D01*
X90587377Y-35444575D01*
X90634996Y-35349337D01*
X90634996Y-35301718D01*
X90587377Y-35206480D01*
X90492139Y-35158861D01*
X90349282Y-35158861D01*
X90254044Y-35111242D01*
X90206425Y-35016004D01*
X90206425Y-34968385D01*
X90254044Y-34873147D01*
X90349282Y-34825528D01*
X90492139Y-34825528D01*
X90587377Y-34873147D01*
X91063568Y-35396956D02*
X91111187Y-35444575D01*
X91063568Y-35492194D01*
X91015949Y-35444575D01*
X91063568Y-35396956D01*
X91063568Y-35492194D01*
X91063568Y-34873147D02*
X91111187Y-34920766D01*
X91063568Y-34968385D01*
X91015949Y-34920766D01*
X91063568Y-34873147D01*
X91063568Y-34968385D01*
X92254044Y-34444575D02*
X91396901Y-35730290D01*
X93301663Y-34444575D02*
X92444520Y-35730290D01*
X94063568Y-34825528D02*
X94063568Y-35635052D01*
X94015949Y-35730290D01*
X93968330Y-35777909D01*
X93873092Y-35825528D01*
X93730235Y-35825528D01*
X93634996Y-35777909D01*
X94063568Y-35444575D02*
X93968330Y-35492194D01*
X93777854Y-35492194D01*
X93682616Y-35444575D01*
X93634996Y-35396956D01*
X93587377Y-35301718D01*
X93587377Y-35016004D01*
X93634996Y-34920766D01*
X93682616Y-34873147D01*
X93777854Y-34825528D01*
X93968330Y-34825528D01*
X94063568Y-34873147D01*
X94539758Y-35492194D02*
X94539758Y-34825528D01*
X94539758Y-34492194D02*
X94492139Y-34539814D01*
X94539758Y-34587433D01*
X94587377Y-34539814D01*
X94539758Y-34492194D01*
X94539758Y-34587433D01*
X94873092Y-34825528D02*
X95254044Y-34825528D01*
X95015949Y-34492194D02*
X95015949Y-35349337D01*
X95063568Y-35444575D01*
X95158806Y-35492194D01*
X95254044Y-35492194D01*
X95587377Y-35492194D02*
X95587377Y-34492194D01*
X96015949Y-35492194D02*
X96015949Y-34968385D01*
X95968330Y-34873147D01*
X95873092Y-34825528D01*
X95730235Y-34825528D01*
X95634996Y-34873147D01*
X95587377Y-34920766D01*
X96920711Y-34825528D02*
X96920711Y-35492194D01*
X96492139Y-34825528D02*
X96492139Y-35349337D01*
X96539758Y-35444575D01*
X96634996Y-35492194D01*
X96777854Y-35492194D01*
X96873092Y-35444575D01*
X96920711Y-35396956D01*
X97396901Y-35492194D02*
X97396901Y-34492194D01*
X97396901Y-34873147D02*
X97492139Y-34825528D01*
X97682616Y-34825528D01*
X97777854Y-34873147D01*
X97825473Y-34920766D01*
X97873092Y-35016004D01*
X97873092Y-35301718D01*
X97825473Y-35396956D01*
X97777854Y-35444575D01*
X97682616Y-35492194D01*
X97492139Y-35492194D01*
X97396901Y-35444575D01*
X98301663Y-35396956D02*
X98349282Y-35444575D01*
X98301663Y-35492194D01*
X98254044Y-35444575D01*
X98301663Y-35396956D01*
X98301663Y-35492194D01*
X99206425Y-35444575D02*
X99111187Y-35492194D01*
X98920711Y-35492194D01*
X98825473Y-35444575D01*
X98777854Y-35396956D01*
X98730235Y-35301718D01*
X98730235Y-35016004D01*
X98777854Y-34920766D01*
X98825473Y-34873147D01*
X98920711Y-34825528D01*
X99111187Y-34825528D01*
X99206425Y-34873147D01*
X99777854Y-35492194D02*
X99682616Y-35444575D01*
X99634996Y-35396956D01*
X99587377Y-35301718D01*
X99587377Y-35016004D01*
X99634996Y-34920766D01*
X99682616Y-34873147D01*
X99777854Y-34825528D01*
X99920711Y-34825528D01*
X100015949Y-34873147D01*
X100063568Y-34920766D01*
X100111187Y-35016004D01*
X100111187Y-35301718D01*
X100063568Y-35396956D01*
X100015949Y-35444575D01*
X99920711Y-35492194D01*
X99777854Y-35492194D01*
X100539758Y-35492194D02*
X100539758Y-34825528D01*
X100539758Y-34920766D02*
X100587377Y-34873147D01*
X100682616Y-34825528D01*
X100825473Y-34825528D01*
X100920711Y-34873147D01*
X100968330Y-34968385D01*
X100968330Y-35492194D01*
X100968330Y-34968385D02*
X101015949Y-34873147D01*
X101111187Y-34825528D01*
X101254044Y-34825528D01*
X101349282Y-34873147D01*
X101396901Y-34968385D01*
X101396901Y-35492194D01*
X102587377Y-34444575D02*
X101730235Y-35730290D01*
X103349282Y-35444575D02*
X103254044Y-35492194D01*
X103063568Y-35492194D01*
X102968330Y-35444575D01*
X102920711Y-35396956D01*
X102873092Y-35301718D01*
X102873092Y-35016004D01*
X102920711Y-34920766D01*
X102968330Y-34873147D01*
X103063568Y-34825528D01*
X103254044Y-34825528D01*
X103349282Y-34873147D01*
X103920711Y-35492194D02*
X103825473Y-35444575D01*
X103777854Y-35396956D01*
X103730235Y-35301718D01*
X103730235Y-35016004D01*
X103777854Y-34920766D01*
X103825473Y-34873147D01*
X103920711Y-34825528D01*
X104063568Y-34825528D01*
X104158806Y-34873147D01*
X104206425Y-34920766D01*
X104254044Y-35016004D01*
X104254044Y-35301718D01*
X104206425Y-35396956D01*
X104158806Y-35444575D01*
X104063568Y-35492194D01*
X103920711Y-35492194D01*
X104634996Y-35444575D02*
X104730235Y-35492194D01*
X104920711Y-35492194D01*
X105015949Y-35444575D01*
X105063568Y-35349337D01*
X105063568Y-35301718D01*
X105015949Y-35206480D01*
X104920711Y-35158861D01*
X104777854Y-35158861D01*
X104682616Y-35111242D01*
X104634996Y-35016004D01*
X104634996Y-34968385D01*
X104682616Y-34873147D01*
X104777854Y-34825528D01*
X104920711Y-34825528D01*
X105015949Y-34873147D01*
X105349282Y-34825528D02*
X105730235Y-34825528D01*
X105492139Y-34492194D02*
X105492139Y-35349337D01*
X105539758Y-35444575D01*
X105634996Y-35492194D01*
X105730235Y-35492194D01*
X106492139Y-35492194D02*
X106492139Y-34968385D01*
X106444520Y-34873147D01*
X106349282Y-34825528D01*
X106158806Y-34825528D01*
X106063568Y-34873147D01*
X106492139Y-35444575D02*
X106396901Y-35492194D01*
X106158806Y-35492194D01*
X106063568Y-35444575D01*
X106015949Y-35349337D01*
X106015949Y-35254099D01*
X106063568Y-35158861D01*
X106158806Y-35111242D01*
X106396901Y-35111242D01*
X106492139Y-35063623D01*
X106968330Y-35492194D02*
X106968330Y-34825528D01*
X106968330Y-35016004D02*
X107015949Y-34920766D01*
X107063568Y-34873147D01*
X107158806Y-34825528D01*
X107254044Y-34825528D01*
X108015949Y-35444575D02*
X107920711Y-35492194D01*
X107730235Y-35492194D01*
X107634996Y-35444575D01*
X107587377Y-35396956D01*
X107539758Y-35301718D01*
X107539758Y-35016004D01*
X107587377Y-34920766D01*
X107634996Y-34873147D01*
X107730235Y-34825528D01*
X107920711Y-34825528D01*
X108015949Y-34873147D01*
X109158806Y-34444575D02*
X108301663Y-35730290D01*
X109492139Y-35492194D02*
X109492139Y-34492194D01*
X109825473Y-35206480D01*
X110158806Y-34492194D01*
X110158806Y-35492194D01*
X110587377Y-35444575D02*
X110730235Y-35492194D01*
X110968330Y-35492194D01*
X111063568Y-35444575D01*
X111111187Y-35396956D01*
X111158806Y-35301718D01*
X111158806Y-35206480D01*
X111111187Y-35111242D01*
X111063568Y-35063623D01*
X110968330Y-35016004D01*
X110777854Y-34968385D01*
X110682616Y-34920766D01*
X110634996Y-34873147D01*
X110587377Y-34777909D01*
X110587377Y-34682671D01*
X110634996Y-34587433D01*
X110682616Y-34539814D01*
X110777854Y-34492194D01*
X111015949Y-34492194D01*
X111158806Y-34539814D01*
X111492139Y-34492194D02*
X112158806Y-35492194D01*
X112158806Y-34492194D02*
X111492139Y-35492194D01*
X112301663Y-35587433D02*
X113063568Y-35587433D01*
X113301663Y-35492194D02*
X113301663Y-34492194D01*
X113539758Y-34492194D01*
X113682616Y-34539814D01*
X113777854Y-34635052D01*
X113825473Y-34730290D01*
X113873092Y-34920766D01*
X113873092Y-35063623D01*
X113825473Y-35254099D01*
X113777854Y-35349337D01*
X113682616Y-35444575D01*
X113539758Y-35492194D01*
X113301663Y-35492194D01*
X114301663Y-34968385D02*
X114634996Y-34968385D01*
X114777854Y-35492194D02*
X114301663Y-35492194D01*
X114301663Y-34492194D01*
X114777854Y-34492194D01*
X115730235Y-35492194D02*
X115158806Y-35492194D01*
X115444520Y-35492194D02*
X115444520Y-34492194D01*
X115349282Y-34635052D01*
X115254044Y-34730290D01*
X115158806Y-34777909D01*
X115920711Y-35587433D02*
X116682616Y-35587433D01*
X116920711Y-35492194D02*
X116920711Y-34492194D01*
X116920711Y-34968385D02*
X117492139Y-34968385D01*
X117492139Y-35492194D02*
X117492139Y-34492194D01*
X118396901Y-35492194D02*
X118396901Y-34968385D01*
X118349282Y-34873147D01*
X118254044Y-34825528D01*
X118063568Y-34825528D01*
X117968330Y-34873147D01*
X118396901Y-35444575D02*
X118301663Y-35492194D01*
X118063568Y-35492194D01*
X117968330Y-35444575D01*
X117920711Y-35349337D01*
X117920711Y-35254099D01*
X117968330Y-35158861D01*
X118063568Y-35111242D01*
X118301663Y-35111242D01*
X118396901Y-35063623D01*
X118730235Y-34825528D02*
X119111187Y-34825528D01*
X118873092Y-34492194D02*
X118873092Y-35349337D01*
X118920711Y-35444575D01*
X119015949Y-35492194D01*
X119111187Y-35492194D01*
D11*
X126007840Y-28202896D02*
X125979268Y-28231468D01*
X125893554Y-28260039D01*
X125836411Y-28260039D01*
X125750697Y-28231468D01*
X125693554Y-28174325D01*
X125664983Y-28117182D01*
X125636411Y-28002896D01*
X125636411Y-27917182D01*
X125664983Y-27802896D01*
X125693554Y-27745753D01*
X125750697Y-27688611D01*
X125836411Y-27660039D01*
X125893554Y-27660039D01*
X125979268Y-27688611D01*
X126007840Y-27717182D01*
X126550697Y-28260039D02*
X126264983Y-28260039D01*
X126264983Y-27660039D01*
X126750697Y-28260039D02*
X126750697Y-27660039D01*
X127093554Y-28260039D02*
X126836411Y-27917182D01*
X127093554Y-27660039D02*
X126750697Y-28002896D01*
X96821714Y-27024000D02*
X97107428Y-27024000D01*
X96764571Y-27195428D02*
X96964571Y-26595428D01*
X97164571Y-27195428D01*
X97678857Y-27195428D02*
X97336000Y-27195428D01*
X97507428Y-27195428D02*
X97507428Y-26595428D01*
X97450285Y-26681142D01*
X97393142Y-26738285D01*
X97336000Y-26766857D01*
X97878857Y-26595428D02*
X98250285Y-26595428D01*
X98050285Y-26824000D01*
X98136000Y-26824000D01*
X98193142Y-26852571D01*
X98221714Y-26881142D01*
X98250285Y-26938285D01*
X98250285Y-27081142D01*
X98221714Y-27138285D01*
X98193142Y-27166857D01*
X98136000Y-27195428D01*
X97964571Y-27195428D01*
X97907428Y-27166857D01*
X97878857Y-27138285D01*
X84915428Y-27024000D02*
X85201142Y-27024000D01*
X84858285Y-27195428D02*
X85058285Y-26595428D01*
X85258285Y-27195428D01*
X85429714Y-26652571D02*
X85458285Y-26624000D01*
X85515428Y-26595428D01*
X85658285Y-26595428D01*
X85715428Y-26624000D01*
X85744000Y-26652571D01*
X85772571Y-26709714D01*
X85772571Y-26766857D01*
X85744000Y-26852571D01*
X85401142Y-27195428D01*
X85772571Y-27195428D01*
X107382454Y-28037057D02*
X107668168Y-28037057D01*
X107325311Y-28208485D02*
X107525311Y-27608485D01*
X107725311Y-28208485D01*
X108239597Y-28208485D02*
X107896740Y-28208485D01*
X108068168Y-28208485D02*
X108068168Y-27608485D01*
X108011025Y-27694199D01*
X107953882Y-27751342D01*
X107896740Y-27779914D01*
X108782454Y-27608485D02*
X108496740Y-27608485D01*
X108468168Y-27894199D01*
X108496740Y-27865628D01*
X108553882Y-27837057D01*
X108696740Y-27837057D01*
X108753882Y-27865628D01*
X108782454Y-27894199D01*
X108811025Y-27951342D01*
X108811025Y-28094199D01*
X108782454Y-28151342D01*
X108753882Y-28179914D01*
X108696740Y-28208485D01*
X108553882Y-28208485D01*
X108496740Y-28179914D01*
X108468168Y-28151342D01*
D14*
X57895535Y-23391424D02*
X57895535Y-23891424D01*
X57866964Y-23991424D01*
X57809821Y-24058091D01*
X57724107Y-24091424D01*
X57666964Y-24091424D01*
X58152678Y-23458091D02*
X58181250Y-23424758D01*
X58238392Y-23391424D01*
X58381250Y-23391424D01*
X58438392Y-23424758D01*
X58466964Y-23458091D01*
X58495535Y-23524758D01*
X58495535Y-23591424D01*
X58466964Y-23691424D01*
X58124107Y-24091424D01*
X58495535Y-24091424D01*
X58752678Y-24024758D02*
X58781250Y-24058091D01*
X58752678Y-24091424D01*
X58724107Y-24058091D01*
X58752678Y-24024758D01*
X58752678Y-24091424D01*
X58752678Y-23658091D02*
X58781250Y-23691424D01*
X58752678Y-23724758D01*
X58724107Y-23691424D01*
X58752678Y-23658091D01*
X58752678Y-23724758D01*
X59495535Y-23391424D02*
X59495535Y-23958091D01*
X59524107Y-24024758D01*
X59552678Y-24058091D01*
X59609821Y-24091424D01*
X59724107Y-24091424D01*
X59781250Y-24058091D01*
X59809821Y-24024758D01*
X59838392Y-23958091D01*
X59838392Y-23391424D01*
X60438392Y-24091424D02*
X60095535Y-24091424D01*
X60266964Y-24091424D02*
X60266964Y-23391424D01*
X60209821Y-23491424D01*
X60152678Y-23558091D01*
X60095535Y-23591424D01*
X61152678Y-24091424D02*
X61152678Y-23391424D01*
X61295535Y-23391424D01*
X61381250Y-23424758D01*
X61438392Y-23491424D01*
X61466964Y-23558091D01*
X61495535Y-23691424D01*
X61495535Y-23791424D01*
X61466964Y-23924758D01*
X61438392Y-23991424D01*
X61381250Y-24058091D01*
X61295535Y-24091424D01*
X61152678Y-24091424D01*
X61752678Y-24091424D02*
X61752678Y-23391424D01*
X62381250Y-24091424D02*
X62181250Y-23758091D01*
X62038392Y-24091424D02*
X62038392Y-23391424D01*
X62266964Y-23391424D01*
X62324107Y-23424758D01*
X62352678Y-23458091D01*
X62381250Y-23524758D01*
X62381250Y-23624758D01*
X62352678Y-23691424D01*
X62324107Y-23724758D01*
X62266964Y-23758091D01*
X62038392Y-23758091D01*
X63066964Y-24058091D02*
X63124107Y-24091424D01*
X63238392Y-24091424D01*
X63295535Y-24058091D01*
X63324107Y-23991424D01*
X63324107Y-23958091D01*
X63295535Y-23891424D01*
X63238392Y-23858091D01*
X63152678Y-23858091D01*
X63095535Y-23824758D01*
X63066964Y-23758091D01*
X63066964Y-23724758D01*
X63095535Y-23658091D01*
X63152678Y-23624758D01*
X63238392Y-23624758D01*
X63295535Y-23658091D01*
X63581250Y-24091424D02*
X63581250Y-23624758D01*
X63581250Y-23391424D02*
X63552678Y-23424758D01*
X63581250Y-23458091D01*
X63609821Y-23424758D01*
X63581250Y-23391424D01*
X63581250Y-23458091D01*
X64124107Y-23624758D02*
X64124107Y-24191424D01*
X64095535Y-24258091D01*
X64066964Y-24291424D01*
X64009821Y-24324758D01*
X63924107Y-24324758D01*
X63866964Y-24291424D01*
X64124107Y-24058091D02*
X64066964Y-24091424D01*
X63952678Y-24091424D01*
X63895535Y-24058091D01*
X63866964Y-24024758D01*
X63838392Y-23958091D01*
X63838392Y-23758091D01*
X63866964Y-23691424D01*
X63895535Y-23658091D01*
X63952678Y-23624758D01*
X64066964Y-23624758D01*
X64124107Y-23658091D01*
X64409821Y-23624758D02*
X64409821Y-24091424D01*
X64409821Y-23691424D02*
X64438392Y-23658091D01*
X64495535Y-23624758D01*
X64581250Y-23624758D01*
X64638392Y-23658091D01*
X64666964Y-23724758D01*
X64666964Y-24091424D01*
X65209821Y-24091424D02*
X65209821Y-23724758D01*
X65181250Y-23658091D01*
X65124107Y-23624758D01*
X65009821Y-23624758D01*
X64952678Y-23658091D01*
X65209821Y-24058091D02*
X65152678Y-24091424D01*
X65009821Y-24091424D01*
X64952678Y-24058091D01*
X64924107Y-23991424D01*
X64924107Y-23924758D01*
X64952678Y-23858091D01*
X65009821Y-23824758D01*
X65152678Y-23824758D01*
X65209821Y-23791424D01*
X65581250Y-24091424D02*
X65524107Y-24058091D01*
X65495535Y-23991424D01*
X65495535Y-23391424D01*
X58066964Y-25151758D02*
X58038392Y-25185091D01*
X57952678Y-25218424D01*
X57895535Y-25218424D01*
X57809821Y-25185091D01*
X57752678Y-25118424D01*
X57724107Y-25051758D01*
X57695535Y-24918424D01*
X57695535Y-24818424D01*
X57724107Y-24685091D01*
X57752678Y-24618424D01*
X57809821Y-24551758D01*
X57895535Y-24518424D01*
X57952678Y-24518424D01*
X58038392Y-24551758D01*
X58066964Y-24585091D01*
X58409821Y-25218424D02*
X58352678Y-25185091D01*
X58324107Y-25118424D01*
X58324107Y-24518424D01*
X58724107Y-25218424D02*
X58666964Y-25185091D01*
X58638392Y-25151758D01*
X58609821Y-25085091D01*
X58609821Y-24885091D01*
X58638392Y-24818424D01*
X58666964Y-24785091D01*
X58724107Y-24751758D01*
X58809821Y-24751758D01*
X58866964Y-24785091D01*
X58895535Y-24818424D01*
X58924107Y-24885091D01*
X58924107Y-25085091D01*
X58895535Y-25151758D01*
X58866964Y-25185091D01*
X58809821Y-25218424D01*
X58724107Y-25218424D01*
X59152678Y-25185091D02*
X59209821Y-25218424D01*
X59324107Y-25218424D01*
X59381250Y-25185091D01*
X59409821Y-25118424D01*
X59409821Y-25085091D01*
X59381250Y-25018424D01*
X59324107Y-24985091D01*
X59238392Y-24985091D01*
X59181250Y-24951758D01*
X59152678Y-24885091D01*
X59152678Y-24851758D01*
X59181250Y-24785091D01*
X59238392Y-24751758D01*
X59324107Y-24751758D01*
X59381250Y-24785091D01*
X59895535Y-25185091D02*
X59838392Y-25218424D01*
X59724107Y-25218424D01*
X59666964Y-25185091D01*
X59638392Y-25118424D01*
X59638392Y-24851758D01*
X59666964Y-24785091D01*
X59724107Y-24751758D01*
X59838392Y-24751758D01*
X59895535Y-24785091D01*
X59924107Y-24851758D01*
X59924107Y-24918424D01*
X59638392Y-24985091D01*
X60438392Y-25218424D02*
X60438392Y-24518424D01*
X60438392Y-25185091D02*
X60381250Y-25218424D01*
X60266964Y-25218424D01*
X60209821Y-25185091D01*
X60181250Y-25151758D01*
X60152678Y-25085091D01*
X60152678Y-24885091D01*
X60181250Y-24818424D01*
X60209821Y-24785091D01*
X60266964Y-24751758D01*
X60381250Y-24751758D01*
X60438392Y-24785091D01*
X61495535Y-25218424D02*
X61152678Y-25218424D01*
X61324107Y-25218424D02*
X61324107Y-24518424D01*
X61266964Y-24618424D01*
X61209821Y-24685091D01*
X61152678Y-24718424D01*
X61752678Y-24951758D02*
X62209821Y-24951758D01*
X62466964Y-24585091D02*
X62495535Y-24551758D01*
X62552678Y-24518424D01*
X62695535Y-24518424D01*
X62752678Y-24551758D01*
X62781250Y-24585091D01*
X62809821Y-24651758D01*
X62809821Y-24718424D01*
X62781250Y-24818424D01*
X62438392Y-25218424D01*
X62809821Y-25218424D01*
X63066964Y-25151758D02*
X63095535Y-25185091D01*
X63066964Y-25218424D01*
X63038392Y-25185091D01*
X63066964Y-25151758D01*
X63066964Y-25218424D01*
X63066964Y-24785091D02*
X63095535Y-24818424D01*
X63066964Y-24851758D01*
X63038392Y-24818424D01*
X63066964Y-24785091D01*
X63066964Y-24851758D01*
X63809821Y-25218424D02*
X63809821Y-24518424D01*
X63952678Y-24518424D01*
X64038392Y-24551758D01*
X64095535Y-24618424D01*
X64124107Y-24685091D01*
X64152678Y-24818424D01*
X64152678Y-24918424D01*
X64124107Y-25051758D01*
X64095535Y-25118424D01*
X64038392Y-25185091D01*
X63952678Y-25218424D01*
X63809821Y-25218424D01*
X64409821Y-25218424D02*
X64409821Y-24751758D01*
X64409821Y-24518424D02*
X64381250Y-24551758D01*
X64409821Y-24585091D01*
X64438392Y-24551758D01*
X64409821Y-24518424D01*
X64409821Y-24585091D01*
X64695535Y-25218424D02*
X64695535Y-24751758D01*
X64695535Y-24885091D02*
X64724107Y-24818424D01*
X64752678Y-24785091D01*
X64809821Y-24751758D01*
X64866964Y-24751758D01*
X65295535Y-25185091D02*
X65238392Y-25218424D01*
X65124107Y-25218424D01*
X65066964Y-25185091D01*
X65038392Y-25118424D01*
X65038392Y-24851758D01*
X65066964Y-24785091D01*
X65124107Y-24751758D01*
X65238392Y-24751758D01*
X65295535Y-24785091D01*
X65324107Y-24851758D01*
X65324107Y-24918424D01*
X65038392Y-24985091D01*
X65838392Y-25185091D02*
X65781250Y-25218424D01*
X65666964Y-25218424D01*
X65609821Y-25185091D01*
X65581250Y-25151758D01*
X65552678Y-25085091D01*
X65552678Y-24885091D01*
X65581250Y-24818424D01*
X65609821Y-24785091D01*
X65666964Y-24751758D01*
X65781250Y-24751758D01*
X65838392Y-24785091D01*
X66009821Y-24751758D02*
X66238392Y-24751758D01*
X66095535Y-24518424D02*
X66095535Y-25118424D01*
X66124107Y-25185091D01*
X66181250Y-25218424D01*
X66238392Y-25218424D01*
X66438392Y-25218424D02*
X66438392Y-24751758D01*
X66438392Y-24518424D02*
X66409821Y-24551758D01*
X66438392Y-24585091D01*
X66466964Y-24551758D01*
X66438392Y-24518424D01*
X66438392Y-24585091D01*
X66809821Y-25218424D02*
X66752678Y-25185091D01*
X66724107Y-25151758D01*
X66695535Y-25085091D01*
X66695535Y-24885091D01*
X66724107Y-24818424D01*
X66752678Y-24785091D01*
X66809821Y-24751758D01*
X66895535Y-24751758D01*
X66952678Y-24785091D01*
X66981250Y-24818424D01*
X67009821Y-24885091D01*
X67009821Y-25085091D01*
X66981250Y-25151758D01*
X66952678Y-25185091D01*
X66895535Y-25218424D01*
X66809821Y-25218424D01*
X67266964Y-24751758D02*
X67266964Y-25218424D01*
X67266964Y-24818424D02*
X67295535Y-24785091D01*
X67352678Y-24751758D01*
X67438392Y-24751758D01*
X67495535Y-24785091D01*
X67524107Y-24851758D01*
X67524107Y-25218424D01*
X68181250Y-24751758D02*
X68409821Y-24751758D01*
X68266964Y-25218424D02*
X68266964Y-24618424D01*
X68295535Y-24551758D01*
X68352678Y-24518424D01*
X68409821Y-24518424D01*
X68609821Y-25218424D02*
X68609821Y-24751758D01*
X68609821Y-24885091D02*
X68638392Y-24818424D01*
X68666964Y-24785091D01*
X68724107Y-24751758D01*
X68781250Y-24751758D01*
X69066964Y-25218424D02*
X69009821Y-25185091D01*
X68981250Y-25151758D01*
X68952678Y-25085091D01*
X68952678Y-24885091D01*
X68981250Y-24818424D01*
X69009821Y-24785091D01*
X69066964Y-24751758D01*
X69152678Y-24751758D01*
X69209821Y-24785091D01*
X69238392Y-24818424D01*
X69266964Y-24885091D01*
X69266964Y-25085091D01*
X69238392Y-25151758D01*
X69209821Y-25185091D01*
X69152678Y-25218424D01*
X69066964Y-25218424D01*
X69524107Y-25218424D02*
X69524107Y-24751758D01*
X69524107Y-24818424D02*
X69552678Y-24785091D01*
X69609821Y-24751758D01*
X69695535Y-24751758D01*
X69752678Y-24785091D01*
X69781250Y-24851758D01*
X69781250Y-25218424D01*
X69781250Y-24851758D02*
X69809821Y-24785091D01*
X69866964Y-24751758D01*
X69952678Y-24751758D01*
X70009821Y-24785091D01*
X70038392Y-24851758D01*
X70038392Y-25218424D01*
X70781250Y-25218424D02*
X70781250Y-24518424D01*
X70981250Y-25018424D01*
X71181250Y-24518424D01*
X71181250Y-25218424D01*
X71438392Y-25185091D02*
X71524107Y-25218424D01*
X71666964Y-25218424D01*
X71724107Y-25185091D01*
X71752678Y-25151758D01*
X71781250Y-25085091D01*
X71781250Y-25018424D01*
X71752678Y-24951758D01*
X71724107Y-24918424D01*
X71666964Y-24885091D01*
X71552678Y-24851758D01*
X71495535Y-24818424D01*
X71466964Y-24785091D01*
X71438392Y-24718424D01*
X71438392Y-24651758D01*
X71466964Y-24585091D01*
X71495535Y-24551758D01*
X71552678Y-24518424D01*
X71695535Y-24518424D01*
X71781250Y-24551758D01*
X71981250Y-24518424D02*
X72381250Y-25218424D01*
X72381250Y-24518424D02*
X71981250Y-25218424D01*
X73495535Y-24485091D02*
X72981250Y-25385091D01*
X74038392Y-25218424D02*
X73838392Y-24885091D01*
X73695535Y-25218424D02*
X73695535Y-24518424D01*
X73924107Y-24518424D01*
X73981250Y-24551758D01*
X74009821Y-24585091D01*
X74038392Y-24651758D01*
X74038392Y-24751758D01*
X74009821Y-24818424D01*
X73981250Y-24851758D01*
X73924107Y-24885091D01*
X73695535Y-24885091D01*
X74295535Y-25218424D02*
X74295535Y-24518424D01*
X74438392Y-24518424D01*
X74524107Y-24551758D01*
X74581250Y-24618424D01*
X74609821Y-24685091D01*
X74638392Y-24818424D01*
X74638392Y-24918424D01*
X74609821Y-25051758D01*
X74581250Y-25118424D01*
X74524107Y-25185091D01*
X74438392Y-25218424D01*
X74295535Y-25218424D01*
X58066964Y-26278758D02*
X58038392Y-26312091D01*
X57952678Y-26345424D01*
X57895535Y-26345424D01*
X57809821Y-26312091D01*
X57752678Y-26245424D01*
X57724107Y-26178758D01*
X57695535Y-26045424D01*
X57695535Y-25945424D01*
X57724107Y-25812091D01*
X57752678Y-25745424D01*
X57809821Y-25678758D01*
X57895535Y-25645424D01*
X57952678Y-25645424D01*
X58038392Y-25678758D01*
X58066964Y-25712091D01*
X58409821Y-26345424D02*
X58352678Y-26312091D01*
X58324107Y-26245424D01*
X58324107Y-25645424D01*
X58724107Y-26345424D02*
X58666964Y-26312091D01*
X58638392Y-26278758D01*
X58609821Y-26212091D01*
X58609821Y-26012091D01*
X58638392Y-25945424D01*
X58666964Y-25912091D01*
X58724107Y-25878758D01*
X58809821Y-25878758D01*
X58866964Y-25912091D01*
X58895535Y-25945424D01*
X58924107Y-26012091D01*
X58924107Y-26212091D01*
X58895535Y-26278758D01*
X58866964Y-26312091D01*
X58809821Y-26345424D01*
X58724107Y-26345424D01*
X59152678Y-26312091D02*
X59209821Y-26345424D01*
X59324107Y-26345424D01*
X59381250Y-26312091D01*
X59409821Y-26245424D01*
X59409821Y-26212091D01*
X59381250Y-26145424D01*
X59324107Y-26112091D01*
X59238392Y-26112091D01*
X59181250Y-26078758D01*
X59152678Y-26012091D01*
X59152678Y-25978758D01*
X59181250Y-25912091D01*
X59238392Y-25878758D01*
X59324107Y-25878758D01*
X59381250Y-25912091D01*
X59895535Y-26312091D02*
X59838392Y-26345424D01*
X59724107Y-26345424D01*
X59666964Y-26312091D01*
X59638392Y-26245424D01*
X59638392Y-25978758D01*
X59666964Y-25912091D01*
X59724107Y-25878758D01*
X59838392Y-25878758D01*
X59895535Y-25912091D01*
X59924107Y-25978758D01*
X59924107Y-26045424D01*
X59638392Y-26112091D01*
X60438392Y-26345424D02*
X60438392Y-25645424D01*
X60438392Y-26312091D02*
X60381250Y-26345424D01*
X60266964Y-26345424D01*
X60209821Y-26312091D01*
X60181250Y-26278758D01*
X60152678Y-26212091D01*
X60152678Y-26012091D01*
X60181250Y-25945424D01*
X60209821Y-25912091D01*
X60266964Y-25878758D01*
X60381250Y-25878758D01*
X60438392Y-25912091D01*
X61152678Y-25712091D02*
X61181250Y-25678758D01*
X61238392Y-25645424D01*
X61381250Y-25645424D01*
X61438392Y-25678758D01*
X61466964Y-25712091D01*
X61495535Y-25778758D01*
X61495535Y-25845424D01*
X61466964Y-25945424D01*
X61124107Y-26345424D01*
X61495535Y-26345424D01*
X61752678Y-26078758D02*
X62209821Y-26078758D01*
X62438392Y-25645424D02*
X62809821Y-25645424D01*
X62609821Y-25912091D01*
X62695535Y-25912091D01*
X62752678Y-25945424D01*
X62781250Y-25978758D01*
X62809821Y-26045424D01*
X62809821Y-26212091D01*
X62781250Y-26278758D01*
X62752678Y-26312091D01*
X62695535Y-26345424D01*
X62524107Y-26345424D01*
X62466964Y-26312091D01*
X62438392Y-26278758D01*
X63066964Y-26278758D02*
X63095535Y-26312091D01*
X63066964Y-26345424D01*
X63038392Y-26312091D01*
X63066964Y-26278758D01*
X63066964Y-26345424D01*
X63066964Y-25912091D02*
X63095535Y-25945424D01*
X63066964Y-25978758D01*
X63038392Y-25945424D01*
X63066964Y-25912091D01*
X63066964Y-25978758D01*
X63924107Y-25645424D02*
X64038392Y-25645424D01*
X64095535Y-25678758D01*
X64152678Y-25745424D01*
X64181250Y-25878758D01*
X64181250Y-26112091D01*
X64152678Y-26245424D01*
X64095535Y-26312091D01*
X64038392Y-26345424D01*
X63924107Y-26345424D01*
X63866964Y-26312091D01*
X63809821Y-26245424D01*
X63781250Y-26112091D01*
X63781250Y-25878758D01*
X63809821Y-25745424D01*
X63866964Y-25678758D01*
X63924107Y-25645424D01*
X64438392Y-25878758D02*
X64438392Y-26578758D01*
X64438392Y-25912091D02*
X64495535Y-25878758D01*
X64609821Y-25878758D01*
X64666964Y-25912091D01*
X64695535Y-25945424D01*
X64724107Y-26012091D01*
X64724107Y-26212091D01*
X64695535Y-26278758D01*
X64666964Y-26312091D01*
X64609821Y-26345424D01*
X64495535Y-26345424D01*
X64438392Y-26312091D01*
X65209821Y-26312091D02*
X65152678Y-26345424D01*
X65038392Y-26345424D01*
X64981250Y-26312091D01*
X64952678Y-26245424D01*
X64952678Y-25978758D01*
X64981250Y-25912091D01*
X65038392Y-25878758D01*
X65152678Y-25878758D01*
X65209821Y-25912091D01*
X65238392Y-25978758D01*
X65238392Y-26045424D01*
X64952678Y-26112091D01*
X65495535Y-25878758D02*
X65495535Y-26345424D01*
X65495535Y-25945424D02*
X65524107Y-25912091D01*
X65581250Y-25878758D01*
X65666964Y-25878758D01*
X65724107Y-25912091D01*
X65752678Y-25978758D01*
X65752678Y-26345424D01*
X66409821Y-25878758D02*
X66638392Y-25878758D01*
X66495535Y-26345424D02*
X66495535Y-25745424D01*
X66524107Y-25678758D01*
X66581250Y-25645424D01*
X66638392Y-25645424D01*
X66924107Y-26345424D02*
X66866964Y-26312091D01*
X66838392Y-26278758D01*
X66809821Y-26212091D01*
X66809821Y-26012091D01*
X66838392Y-25945424D01*
X66866964Y-25912091D01*
X66924107Y-25878758D01*
X67009821Y-25878758D01*
X67066964Y-25912091D01*
X67095535Y-25945424D01*
X67124107Y-26012091D01*
X67124107Y-26212091D01*
X67095535Y-26278758D01*
X67066964Y-26312091D01*
X67009821Y-26345424D01*
X66924107Y-26345424D01*
X67381250Y-26345424D02*
X67381250Y-25878758D01*
X67381250Y-26012091D02*
X67409821Y-25945424D01*
X67438392Y-25912091D01*
X67495535Y-25878758D01*
X67552678Y-25878758D01*
X68438392Y-26312091D02*
X68381250Y-26345424D01*
X68266964Y-26345424D01*
X68209821Y-26312091D01*
X68181250Y-26245424D01*
X68181250Y-25978758D01*
X68209821Y-25912091D01*
X68266964Y-25878758D01*
X68381250Y-25878758D01*
X68438392Y-25912091D01*
X68466964Y-25978758D01*
X68466964Y-26045424D01*
X68181250Y-26112091D01*
X68666964Y-26345424D02*
X68981250Y-25878758D01*
X68666964Y-25878758D02*
X68981250Y-26345424D01*
X69209821Y-25878758D02*
X69209821Y-26578758D01*
X69209821Y-25912091D02*
X69266964Y-25878758D01*
X69381250Y-25878758D01*
X69438392Y-25912091D01*
X69466964Y-25945424D01*
X69495535Y-26012091D01*
X69495535Y-26212091D01*
X69466964Y-26278758D01*
X69438392Y-26312091D01*
X69381250Y-26345424D01*
X69266964Y-26345424D01*
X69209821Y-26312091D01*
X69981250Y-26312091D02*
X69924107Y-26345424D01*
X69809821Y-26345424D01*
X69752678Y-26312091D01*
X69724107Y-26245424D01*
X69724107Y-25978758D01*
X69752678Y-25912091D01*
X69809821Y-25878758D01*
X69924107Y-25878758D01*
X69981250Y-25912091D01*
X70009821Y-25978758D01*
X70009821Y-26045424D01*
X69724107Y-26112091D01*
X70266964Y-26345424D02*
X70266964Y-25878758D01*
X70266964Y-26012091D02*
X70295535Y-25945424D01*
X70324107Y-25912091D01*
X70381250Y-25878758D01*
X70438392Y-25878758D01*
X70638392Y-26345424D02*
X70638392Y-25878758D01*
X70638392Y-25645424D02*
X70609821Y-25678758D01*
X70638392Y-25712091D01*
X70666964Y-25678758D01*
X70638392Y-25645424D01*
X70638392Y-25712091D01*
X70924107Y-26345424D02*
X70924107Y-25878758D01*
X70924107Y-25945424D02*
X70952678Y-25912091D01*
X71009821Y-25878758D01*
X71095535Y-25878758D01*
X71152678Y-25912091D01*
X71181250Y-25978758D01*
X71181250Y-26345424D01*
X71181250Y-25978758D02*
X71209821Y-25912091D01*
X71266964Y-25878758D01*
X71352678Y-25878758D01*
X71409821Y-25912091D01*
X71438392Y-25978758D01*
X71438392Y-26345424D01*
X71952678Y-26312091D02*
X71895535Y-26345424D01*
X71781250Y-26345424D01*
X71724107Y-26312091D01*
X71695535Y-26245424D01*
X71695535Y-25978758D01*
X71724107Y-25912091D01*
X71781250Y-25878758D01*
X71895535Y-25878758D01*
X71952678Y-25912091D01*
X71981250Y-25978758D01*
X71981250Y-26045424D01*
X71695535Y-26112091D01*
X72238392Y-25878758D02*
X72238392Y-26345424D01*
X72238392Y-25945424D02*
X72266964Y-25912091D01*
X72324107Y-25878758D01*
X72409821Y-25878758D01*
X72466964Y-25912091D01*
X72495535Y-25978758D01*
X72495535Y-26345424D01*
X72695535Y-25878758D02*
X72924107Y-25878758D01*
X72781250Y-25645424D02*
X72781250Y-26245424D01*
X72809821Y-26312091D01*
X72866964Y-26345424D01*
X72924107Y-26345424D01*
X73381250Y-26345424D02*
X73381250Y-25978758D01*
X73352678Y-25912091D01*
X73295535Y-25878758D01*
X73181250Y-25878758D01*
X73124107Y-25912091D01*
X73381250Y-26312091D02*
X73324107Y-26345424D01*
X73181250Y-26345424D01*
X73124107Y-26312091D01*
X73095535Y-26245424D01*
X73095535Y-26178758D01*
X73124107Y-26112091D01*
X73181250Y-26078758D01*
X73324107Y-26078758D01*
X73381250Y-26045424D01*
X73581250Y-25878758D02*
X73809821Y-25878758D01*
X73666964Y-25645424D02*
X73666964Y-26245424D01*
X73695535Y-26312091D01*
X73752678Y-26345424D01*
X73809821Y-26345424D01*
X74009821Y-26345424D02*
X74009821Y-25878758D01*
X74009821Y-25645424D02*
X73981250Y-25678758D01*
X74009821Y-25712091D01*
X74038392Y-25678758D01*
X74009821Y-25645424D01*
X74009821Y-25712091D01*
X74381250Y-26345424D02*
X74324107Y-26312091D01*
X74295535Y-26278758D01*
X74266964Y-26212091D01*
X74266964Y-26012091D01*
X74295535Y-25945424D01*
X74324107Y-25912091D01*
X74381250Y-25878758D01*
X74466964Y-25878758D01*
X74524107Y-25912091D01*
X74552678Y-25945424D01*
X74581250Y-26012091D01*
X74581250Y-26212091D01*
X74552678Y-26278758D01*
X74524107Y-26312091D01*
X74466964Y-26345424D01*
X74381250Y-26345424D01*
X74838392Y-25878758D02*
X74838392Y-26345424D01*
X74838392Y-25945424D02*
X74866964Y-25912091D01*
X74924107Y-25878758D01*
X75009821Y-25878758D01*
X75066964Y-25912091D01*
X75095535Y-25978758D01*
X75095535Y-26345424D01*
D11*
X120375201Y-26477856D02*
X119860916Y-27249284D01*
X120775201Y-26792141D02*
X120860916Y-26820713D01*
X120889487Y-26849284D01*
X120918058Y-26906427D01*
X120918058Y-26992141D01*
X120889487Y-27049284D01*
X120860916Y-27077856D01*
X120803773Y-27106427D01*
X120575201Y-27106427D01*
X120575201Y-26506427D01*
X120775201Y-26506427D01*
X120832344Y-26534999D01*
X120860916Y-26563570D01*
X120889487Y-26620713D01*
X120889487Y-26677856D01*
X120860916Y-26734999D01*
X120832344Y-26763570D01*
X120775201Y-26792141D01*
X120575201Y-26792141D01*
X121175201Y-27106427D02*
X121175201Y-26506427D01*
X121318058Y-26506427D01*
X121403773Y-26534999D01*
X121460916Y-26592141D01*
X121489487Y-26649284D01*
X121518058Y-26763570D01*
X121518058Y-26849284D01*
X121489487Y-26963570D01*
X121460916Y-27020713D01*
X121403773Y-27077856D01*
X121318058Y-27106427D01*
X121175201Y-27106427D01*
X121775201Y-27106427D02*
X121775201Y-26506427D01*
X122403773Y-27106427D02*
X122203773Y-26820713D01*
X122060916Y-27106427D02*
X122060916Y-26506427D01*
X122289487Y-26506427D01*
X122346630Y-26534999D01*
X122375201Y-26563570D01*
X122403773Y-26620713D01*
X122403773Y-26706427D01*
X122375201Y-26763570D01*
X122346630Y-26792141D01*
X122289487Y-26820713D01*
X122060916Y-26820713D01*
X94553142Y-28211428D02*
X94553142Y-27611428D01*
X94696000Y-27611428D01*
X94781714Y-27640000D01*
X94838857Y-27697142D01*
X94867428Y-27754285D01*
X94896000Y-27868571D01*
X94896000Y-27954285D01*
X94867428Y-28068571D01*
X94838857Y-28125714D01*
X94781714Y-28182857D01*
X94696000Y-28211428D01*
X94553142Y-28211428D01*
X95467428Y-28211428D02*
X95124571Y-28211428D01*
X95296000Y-28211428D02*
X95296000Y-27611428D01*
X95238857Y-27697142D01*
X95181714Y-27754285D01*
X95124571Y-27782857D01*
D10*
X75977714Y-25344380D02*
X75406285Y-25344380D01*
X75692000Y-25344380D02*
X75692000Y-24344380D01*
X75596761Y-24487238D01*
X75501523Y-24582476D01*
X75406285Y-24630095D01*
D12*
X52848004Y-29838513D02*
X52848004Y-30076608D01*
X53086099Y-30100417D01*
X53062290Y-30076608D01*
X53038480Y-30028989D01*
X53038480Y-29909941D01*
X53062290Y-29862322D01*
X53086099Y-29838513D01*
X53133718Y-29814703D01*
X53252766Y-29814703D01*
X53300385Y-29838513D01*
X53324194Y-29862322D01*
X53348004Y-29909941D01*
X53348004Y-30028989D01*
X53324194Y-30076608D01*
X53300385Y-30100417D01*
X53014671Y-29648036D02*
X53348004Y-29528989D01*
X53014671Y-29409941D01*
X52824194Y-28862322D02*
X53467052Y-29290894D01*
X53348004Y-28695655D02*
X52848004Y-28695655D01*
X53205147Y-28528989D01*
X52848004Y-28362322D01*
X53348004Y-28362322D01*
X53324194Y-28148036D02*
X53348004Y-28076608D01*
X53348004Y-27957560D01*
X53324194Y-27909941D01*
X53300385Y-27886132D01*
X53252766Y-27862322D01*
X53205147Y-27862322D01*
X53157528Y-27886132D01*
X53133718Y-27909941D01*
X53109909Y-27957560D01*
X53086099Y-28052798D01*
X53062290Y-28100417D01*
X53038480Y-28124227D01*
X52990861Y-28148036D01*
X52943242Y-28148036D01*
X52895623Y-28124227D01*
X52871814Y-28100417D01*
X52848004Y-28052798D01*
X52848004Y-27933751D01*
X52871814Y-27862322D01*
X52848004Y-27695655D02*
X53348004Y-27362322D01*
X52848004Y-27362322D02*
X53348004Y-27695655D01*
D10*
X127730285Y-22137714D02*
X127730285Y-22804380D01*
X127492190Y-21756761D02*
X127254095Y-22471047D01*
X127873142Y-22471047D01*
X128444571Y-21804380D02*
X128539809Y-21804380D01*
X128635047Y-21852000D01*
X128682666Y-21899619D01*
X128730285Y-21994857D01*
X128777904Y-22185333D01*
X128777904Y-22423428D01*
X128730285Y-22613904D01*
X128682666Y-22709142D01*
X128635047Y-22756761D01*
X128539809Y-22804380D01*
X128444571Y-22804380D01*
X128349333Y-22756761D01*
X128301714Y-22709142D01*
X128254095Y-22613904D01*
X128206476Y-22423428D01*
X128206476Y-22185333D01*
X128254095Y-21994857D01*
X128301714Y-21899619D01*
X128349333Y-21852000D01*
X128444571Y-21804380D01*
D11*
X107394720Y-27097078D02*
X107680434Y-27097078D01*
X107337577Y-27268506D02*
X107537577Y-26668506D01*
X107737577Y-27268506D01*
X107966149Y-27268506D02*
X108080434Y-27268506D01*
X108137577Y-27239935D01*
X108166149Y-27211363D01*
X108223292Y-27125649D01*
X108251863Y-27011363D01*
X108251863Y-26782792D01*
X108223292Y-26725649D01*
X108194720Y-26697078D01*
X108137577Y-26668506D01*
X108023292Y-26668506D01*
X107966149Y-26697078D01*
X107937577Y-26725649D01*
X107909006Y-26782792D01*
X107909006Y-26925649D01*
X107937577Y-26982792D01*
X107966149Y-27011363D01*
X108023292Y-27039935D01*
X108137577Y-27039935D01*
X108194720Y-27011363D01*
X108223292Y-26982792D01*
X108251863Y-26925649D01*
X84901142Y-28211428D02*
X84901142Y-27611428D01*
X85044000Y-27611428D01*
X85129714Y-27640000D01*
X85186857Y-27697142D01*
X85215428Y-27754285D01*
X85244000Y-27868571D01*
X85244000Y-27954285D01*
X85215428Y-28068571D01*
X85186857Y-28125714D01*
X85129714Y-28182857D01*
X85044000Y-28211428D01*
X84901142Y-28211428D01*
X85758285Y-27811428D02*
X85758285Y-28211428D01*
X85615428Y-27582857D02*
X85472571Y-28011428D01*
X85844000Y-28011428D01*
X102695428Y-27024000D02*
X102981142Y-27024000D01*
X102638285Y-27195428D02*
X102838285Y-26595428D01*
X103038285Y-27195428D01*
X103495428Y-26595428D02*
X103381142Y-26595428D01*
X103324000Y-26624000D01*
X103295428Y-26652571D01*
X103238285Y-26738285D01*
X103209714Y-26852571D01*
X103209714Y-27081142D01*
X103238285Y-27138285D01*
X103266857Y-27166857D01*
X103324000Y-27195428D01*
X103438285Y-27195428D01*
X103495428Y-27166857D01*
X103524000Y-27138285D01*
X103552571Y-27081142D01*
X103552571Y-26938285D01*
X103524000Y-26881142D01*
X103495428Y-26852571D01*
X103438285Y-26824000D01*
X103324000Y-26824000D01*
X103266857Y-26852571D01*
X103238285Y-26881142D01*
X103209714Y-26938285D01*
X87455428Y-27024000D02*
X87741142Y-27024000D01*
X87398285Y-27195428D02*
X87598285Y-26595428D01*
X87798285Y-27195428D01*
X88312571Y-27195428D02*
X87969714Y-27195428D01*
X88141142Y-27195428D02*
X88141142Y-26595428D01*
X88084000Y-26681142D01*
X88026857Y-26738285D01*
X87969714Y-26766857D01*
X99647428Y-27024000D02*
X99933142Y-27024000D01*
X99590285Y-27195428D02*
X99790285Y-26595428D01*
X99990285Y-27195428D01*
X100276000Y-26852571D02*
X100218857Y-26824000D01*
X100190285Y-26795428D01*
X100161714Y-26738285D01*
X100161714Y-26709714D01*
X100190285Y-26652571D01*
X100218857Y-26624000D01*
X100276000Y-26595428D01*
X100390285Y-26595428D01*
X100447428Y-26624000D01*
X100476000Y-26652571D01*
X100504571Y-26709714D01*
X100504571Y-26738285D01*
X100476000Y-26795428D01*
X100447428Y-26824000D01*
X100390285Y-26852571D01*
X100276000Y-26852571D01*
X100218857Y-26881142D01*
X100190285Y-26909714D01*
X100161714Y-26966857D01*
X100161714Y-27081142D01*
X100190285Y-27138285D01*
X100218857Y-27166857D01*
X100276000Y-27195428D01*
X100390285Y-27195428D01*
X100447428Y-27166857D01*
X100476000Y-27138285D01*
X100504571Y-27081142D01*
X100504571Y-26966857D01*
X100476000Y-26909714D01*
X100447428Y-26881142D01*
X100390285Y-26852571D01*
X112192686Y-26714450D02*
X112135543Y-26685878D01*
X112049829Y-26685878D01*
X111964114Y-26714450D01*
X111906971Y-26771592D01*
X111878400Y-26828735D01*
X111849829Y-26943021D01*
X111849829Y-27028735D01*
X111878400Y-27143021D01*
X111906971Y-27200164D01*
X111964114Y-27257307D01*
X112049829Y-27285878D01*
X112106971Y-27285878D01*
X112192686Y-27257307D01*
X112221257Y-27228735D01*
X112221257Y-27028735D01*
X112106971Y-27028735D01*
X112478400Y-27285878D02*
X112478400Y-26685878D01*
X112821257Y-27285878D01*
X112821257Y-26685878D01*
X113106971Y-27285878D02*
X113106971Y-26685878D01*
X113249829Y-26685878D01*
X113335543Y-26714450D01*
X113392686Y-26771592D01*
X113421257Y-26828735D01*
X113449829Y-26943021D01*
X113449829Y-27028735D01*
X113421257Y-27143021D01*
X113392686Y-27200164D01*
X113335543Y-27257307D01*
X113249829Y-27285878D01*
X113106971Y-27285878D01*
X114011258Y-27477653D02*
X113496972Y-28249081D01*
X114211258Y-28106224D02*
X114211258Y-27506224D01*
X114411258Y-27934796D01*
X114611258Y-27506224D01*
X114611258Y-28106224D01*
X115239829Y-28106224D02*
X115039829Y-27820510D01*
X114896972Y-28106224D02*
X114896972Y-27506224D01*
X115125544Y-27506224D01*
X115182687Y-27534796D01*
X115211258Y-27563367D01*
X115239829Y-27620510D01*
X115239829Y-27706224D01*
X115211258Y-27763367D01*
X115182687Y-27791938D01*
X115125544Y-27820510D01*
X114896972Y-27820510D01*
X115496972Y-27791938D02*
X115696972Y-27791938D01*
X115782687Y-28106224D02*
X115496972Y-28106224D01*
X115496972Y-27506224D01*
X115782687Y-27506224D01*
X116439829Y-28163367D02*
X116382687Y-28134796D01*
X116325544Y-28077653D01*
X116239829Y-27991938D01*
X116182687Y-27963367D01*
X116125544Y-27963367D01*
X116154115Y-28106224D02*
X116096972Y-28077653D01*
X116039829Y-28020510D01*
X116011258Y-27906224D01*
X116011258Y-27706224D01*
X116039829Y-27591938D01*
X116096972Y-27534796D01*
X116154115Y-27506224D01*
X116268401Y-27506224D01*
X116325544Y-27534796D01*
X116382687Y-27591938D01*
X116411258Y-27706224D01*
X116411258Y-27906224D01*
X116382687Y-28020510D01*
X116325544Y-28077653D01*
X116268401Y-28106224D01*
X116154115Y-28106224D01*
X97093142Y-28211428D02*
X97093142Y-27611428D01*
X97236000Y-27611428D01*
X97321714Y-27640000D01*
X97378857Y-27697142D01*
X97407428Y-27754285D01*
X97436000Y-27868571D01*
X97436000Y-27954285D01*
X97407428Y-28068571D01*
X97378857Y-28125714D01*
X97321714Y-28182857D01*
X97236000Y-28211428D01*
X97093142Y-28211428D01*
X97807428Y-27611428D02*
X97864571Y-27611428D01*
X97921714Y-27640000D01*
X97950285Y-27668571D01*
X97978857Y-27725714D01*
X98007428Y-27840000D01*
X98007428Y-27982857D01*
X97978857Y-28097142D01*
X97950285Y-28154285D01*
X97921714Y-28182857D01*
X97864571Y-28211428D01*
X97807428Y-28211428D01*
X97750285Y-28182857D01*
X97721714Y-28154285D01*
X97693142Y-28097142D01*
X97664571Y-27982857D01*
X97664571Y-27840000D01*
X97693142Y-27725714D01*
X97721714Y-27668571D01*
X97750285Y-27640000D01*
X97807428Y-27611428D01*
X109890199Y-27579914D02*
X109375914Y-28351342D01*
X110433057Y-28208485D02*
X110233057Y-27922771D01*
X110090199Y-28208485D02*
X110090199Y-27608485D01*
X110318771Y-27608485D01*
X110375914Y-27637057D01*
X110404485Y-27665628D01*
X110433057Y-27722771D01*
X110433057Y-27808485D01*
X110404485Y-27865628D01*
X110375914Y-27894199D01*
X110318771Y-27922771D01*
X110090199Y-27922771D01*
X110690199Y-28208485D02*
X110690199Y-27608485D01*
X110833057Y-27608485D01*
X110918771Y-27637057D01*
X110975914Y-27694199D01*
X111004485Y-27751342D01*
X111033057Y-27865628D01*
X111033057Y-27951342D01*
X111004485Y-28065628D01*
X110975914Y-28122771D01*
X110918771Y-28179914D01*
X110833057Y-28208485D01*
X110690199Y-28208485D01*
X104949714Y-28040000D02*
X105235428Y-28040000D01*
X104892571Y-28211428D02*
X105092571Y-27611428D01*
X105292571Y-28211428D01*
X105806857Y-28211428D02*
X105464000Y-28211428D01*
X105635428Y-28211428D02*
X105635428Y-27611428D01*
X105578285Y-27697142D01*
X105521142Y-27754285D01*
X105464000Y-27782857D01*
X106178285Y-27611428D02*
X106235428Y-27611428D01*
X106292571Y-27640000D01*
X106321142Y-27668571D01*
X106349714Y-27725714D01*
X106378285Y-27840000D01*
X106378285Y-27982857D01*
X106349714Y-28097142D01*
X106321142Y-28154285D01*
X106292571Y-28182857D01*
X106235428Y-28211428D01*
X106178285Y-28211428D01*
X106121142Y-28182857D01*
X106092571Y-28154285D01*
X106064000Y-28097142D01*
X106035428Y-27982857D01*
X106035428Y-27840000D01*
X106064000Y-27725714D01*
X106092571Y-27668571D01*
X106121142Y-27640000D01*
X106178285Y-27611428D01*
X77073142Y-73839428D02*
X76787428Y-73839428D01*
X76758857Y-74125142D01*
X76787428Y-74096571D01*
X76844571Y-74068000D01*
X76987428Y-74068000D01*
X77044571Y-74096571D01*
X77073142Y-74125142D01*
X77101714Y-74182285D01*
X77101714Y-74325142D01*
X77073142Y-74382285D01*
X77044571Y-74410857D01*
X76987428Y-74439428D01*
X76844571Y-74439428D01*
X76787428Y-74410857D01*
X76758857Y-74382285D01*
X77473142Y-73839428D02*
X77530285Y-73839428D01*
X77587428Y-73868000D01*
X77616000Y-73896571D01*
X77644571Y-73953714D01*
X77673142Y-74068000D01*
X77673142Y-74210857D01*
X77644571Y-74325142D01*
X77616000Y-74382285D01*
X77587428Y-74410857D01*
X77530285Y-74439428D01*
X77473142Y-74439428D01*
X77416000Y-74410857D01*
X77387428Y-74382285D01*
X77358857Y-74325142D01*
X77330285Y-74210857D01*
X77330285Y-74068000D01*
X77358857Y-73953714D01*
X77387428Y-73896571D01*
X77416000Y-73868000D01*
X77473142Y-73839428D01*
D14*
X57895535Y-27445666D02*
X57895535Y-27945666D01*
X57866964Y-28045666D01*
X57809821Y-28112333D01*
X57724107Y-28145666D01*
X57666964Y-28145666D01*
X58124107Y-27445666D02*
X58495535Y-27445666D01*
X58295535Y-27712333D01*
X58381250Y-27712333D01*
X58438392Y-27745666D01*
X58466964Y-27779000D01*
X58495535Y-27845666D01*
X58495535Y-28012333D01*
X58466964Y-28079000D01*
X58438392Y-28112333D01*
X58381250Y-28145666D01*
X58209821Y-28145666D01*
X58152678Y-28112333D01*
X58124107Y-28079000D01*
X59209821Y-27879000D02*
X59666964Y-27879000D01*
X60581250Y-27445666D02*
X60581250Y-27945666D01*
X60552678Y-28045666D01*
X60495535Y-28112333D01*
X60409821Y-28145666D01*
X60352678Y-28145666D01*
X60809821Y-27445666D02*
X61209821Y-27445666D01*
X60952678Y-28145666D01*
X61438392Y-28079000D02*
X61466964Y-28112333D01*
X61438392Y-28145666D01*
X61409821Y-28112333D01*
X61438392Y-28079000D01*
X61438392Y-28145666D01*
X61438392Y-27712333D02*
X61466964Y-27745666D01*
X61438392Y-27779000D01*
X61409821Y-27745666D01*
X61438392Y-27712333D01*
X61438392Y-27779000D01*
X62181250Y-27445666D02*
X62181250Y-28012333D01*
X62209821Y-28079000D01*
X62238392Y-28112333D01*
X62295535Y-28145666D01*
X62409821Y-28145666D01*
X62466964Y-28112333D01*
X62495535Y-28079000D01*
X62524107Y-28012333D01*
X62524107Y-27445666D01*
X63124107Y-28145666D02*
X62781250Y-28145666D01*
X62952678Y-28145666D02*
X62952678Y-27445666D01*
X62895535Y-27545666D01*
X62838392Y-27612333D01*
X62781250Y-27645666D01*
X63809821Y-27412333D02*
X63295535Y-28312333D01*
X64009821Y-27445666D02*
X64009821Y-28012333D01*
X64038392Y-28079000D01*
X64066964Y-28112333D01*
X64124107Y-28145666D01*
X64238392Y-28145666D01*
X64295535Y-28112333D01*
X64324107Y-28079000D01*
X64352678Y-28012333D01*
X64352678Y-27445666D01*
X64609821Y-27512333D02*
X64638392Y-27479000D01*
X64695535Y-27445666D01*
X64838392Y-27445666D01*
X64895535Y-27479000D01*
X64924107Y-27512333D01*
X64952678Y-27579000D01*
X64952678Y-27645666D01*
X64924107Y-27745666D01*
X64581250Y-28145666D01*
X64952678Y-28145666D01*
X65638392Y-27412333D02*
X65124107Y-28312333D01*
X65838392Y-27445666D02*
X65838392Y-28012333D01*
X65866964Y-28079000D01*
X65895535Y-28112333D01*
X65952678Y-28145666D01*
X66066964Y-28145666D01*
X66124107Y-28112333D01*
X66152678Y-28079000D01*
X66181250Y-28012333D01*
X66181250Y-27445666D01*
X66409821Y-27445666D02*
X66781250Y-27445666D01*
X66581250Y-27712333D01*
X66666964Y-27712333D01*
X66724107Y-27745666D01*
X66752678Y-27779000D01*
X66781250Y-27845666D01*
X66781250Y-28012333D01*
X66752678Y-28079000D01*
X66724107Y-28112333D01*
X66666964Y-28145666D01*
X66495535Y-28145666D01*
X66438392Y-28112333D01*
X66409821Y-28079000D01*
X67466964Y-27412333D02*
X66952678Y-28312333D01*
X67666964Y-27445666D02*
X67666964Y-28012333D01*
X67695535Y-28079000D01*
X67724107Y-28112333D01*
X67781250Y-28145666D01*
X67895535Y-28145666D01*
X67952678Y-28112333D01*
X67981250Y-28079000D01*
X68009821Y-28012333D01*
X68009821Y-27445666D01*
X68552678Y-27679000D02*
X68552678Y-28145666D01*
X68409821Y-27412333D02*
X68266964Y-27912333D01*
X68638392Y-27912333D01*
X69295535Y-27412333D02*
X68781250Y-28312333D01*
X69495535Y-27445666D02*
X69495535Y-28012333D01*
X69524107Y-28079000D01*
X69552678Y-28112333D01*
X69609821Y-28145666D01*
X69724107Y-28145666D01*
X69781250Y-28112333D01*
X69809821Y-28079000D01*
X69838392Y-28012333D01*
X69838392Y-27445666D01*
X70409821Y-27445666D02*
X70124107Y-27445666D01*
X70095535Y-27779000D01*
X70124107Y-27745666D01*
X70181250Y-27712333D01*
X70324107Y-27712333D01*
X70381250Y-27745666D01*
X70409821Y-27779000D01*
X70438392Y-27845666D01*
X70438392Y-28012333D01*
X70409821Y-28079000D01*
X70381250Y-28112333D01*
X70324107Y-28145666D01*
X70181250Y-28145666D01*
X70124107Y-28112333D01*
X70095535Y-28079000D01*
X71581250Y-27412333D02*
X71066964Y-28312333D01*
X71895535Y-27445666D02*
X72009821Y-27445666D01*
X72066964Y-27479000D01*
X72124107Y-27545666D01*
X72152678Y-27679000D01*
X72152678Y-27912333D01*
X72124107Y-28045666D01*
X72066964Y-28112333D01*
X72009821Y-28145666D01*
X71895535Y-28145666D01*
X71838392Y-28112333D01*
X71781250Y-28045666D01*
X71752678Y-27912333D01*
X71752678Y-27679000D01*
X71781250Y-27545666D01*
X71838392Y-27479000D01*
X71895535Y-27445666D01*
X72409821Y-27779000D02*
X72609821Y-27779000D01*
X72695535Y-28145666D02*
X72409821Y-28145666D01*
X72409821Y-27445666D01*
X72695535Y-27445666D01*
X73381250Y-28112333D02*
X73438392Y-28145666D01*
X73552678Y-28145666D01*
X73609821Y-28112333D01*
X73638392Y-28045666D01*
X73638392Y-28012333D01*
X73609821Y-27945666D01*
X73552678Y-27912333D01*
X73466964Y-27912333D01*
X73409821Y-27879000D01*
X73381250Y-27812333D01*
X73381250Y-27779000D01*
X73409821Y-27712333D01*
X73466964Y-27679000D01*
X73552678Y-27679000D01*
X73609821Y-27712333D01*
X73895535Y-28145666D02*
X73895535Y-27679000D01*
X73895535Y-27445666D02*
X73866964Y-27479000D01*
X73895535Y-27512333D01*
X73924107Y-27479000D01*
X73895535Y-27445666D01*
X73895535Y-27512333D01*
X74438392Y-27679000D02*
X74438392Y-28245666D01*
X74409821Y-28312333D01*
X74381250Y-28345666D01*
X74324107Y-28379000D01*
X74238392Y-28379000D01*
X74181250Y-28345666D01*
X74438392Y-28112333D02*
X74381250Y-28145666D01*
X74266964Y-28145666D01*
X74209821Y-28112333D01*
X74181250Y-28079000D01*
X74152678Y-28012333D01*
X74152678Y-27812333D01*
X74181250Y-27745666D01*
X74209821Y-27712333D01*
X74266964Y-27679000D01*
X74381250Y-27679000D01*
X74438392Y-27712333D01*
X74724107Y-27679000D02*
X74724107Y-28145666D01*
X74724107Y-27745666D02*
X74752678Y-27712333D01*
X74809821Y-27679000D01*
X74895535Y-27679000D01*
X74952678Y-27712333D01*
X74981250Y-27779000D01*
X74981250Y-28145666D01*
X75524107Y-28145666D02*
X75524107Y-27779000D01*
X75495535Y-27712333D01*
X75438392Y-27679000D01*
X75324107Y-27679000D01*
X75266964Y-27712333D01*
X75524107Y-28112333D02*
X75466964Y-28145666D01*
X75324107Y-28145666D01*
X75266964Y-28112333D01*
X75238392Y-28045666D01*
X75238392Y-27979000D01*
X75266964Y-27912333D01*
X75324107Y-27879000D01*
X75466964Y-27879000D01*
X75524107Y-27845666D01*
X75895535Y-28145666D02*
X75838392Y-28112333D01*
X75809821Y-28045666D01*
X75809821Y-27445666D01*
X58066964Y-29206000D02*
X58038392Y-29239333D01*
X57952678Y-29272666D01*
X57895535Y-29272666D01*
X57809821Y-29239333D01*
X57752678Y-29172666D01*
X57724107Y-29106000D01*
X57695535Y-28972666D01*
X57695535Y-28872666D01*
X57724107Y-28739333D01*
X57752678Y-28672666D01*
X57809821Y-28606000D01*
X57895535Y-28572666D01*
X57952678Y-28572666D01*
X58038392Y-28606000D01*
X58066964Y-28639333D01*
X58409821Y-29272666D02*
X58352678Y-29239333D01*
X58324107Y-29172666D01*
X58324107Y-28572666D01*
X58724107Y-29272666D02*
X58666964Y-29239333D01*
X58638392Y-29206000D01*
X58609821Y-29139333D01*
X58609821Y-28939333D01*
X58638392Y-28872666D01*
X58666964Y-28839333D01*
X58724107Y-28806000D01*
X58809821Y-28806000D01*
X58866964Y-28839333D01*
X58895535Y-28872666D01*
X58924107Y-28939333D01*
X58924107Y-29139333D01*
X58895535Y-29206000D01*
X58866964Y-29239333D01*
X58809821Y-29272666D01*
X58724107Y-29272666D01*
X59152678Y-29239333D02*
X59209821Y-29272666D01*
X59324107Y-29272666D01*
X59381250Y-29239333D01*
X59409821Y-29172666D01*
X59409821Y-29139333D01*
X59381250Y-29072666D01*
X59324107Y-29039333D01*
X59238392Y-29039333D01*
X59181250Y-29006000D01*
X59152678Y-28939333D01*
X59152678Y-28906000D01*
X59181250Y-28839333D01*
X59238392Y-28806000D01*
X59324107Y-28806000D01*
X59381250Y-28839333D01*
X59895535Y-29239333D02*
X59838392Y-29272666D01*
X59724107Y-29272666D01*
X59666964Y-29239333D01*
X59638392Y-29172666D01*
X59638392Y-28906000D01*
X59666964Y-28839333D01*
X59724107Y-28806000D01*
X59838392Y-28806000D01*
X59895535Y-28839333D01*
X59924107Y-28906000D01*
X59924107Y-28972666D01*
X59638392Y-29039333D01*
X60438392Y-29272666D02*
X60438392Y-28572666D01*
X60438392Y-29239333D02*
X60381250Y-29272666D01*
X60266964Y-29272666D01*
X60209821Y-29239333D01*
X60181250Y-29206000D01*
X60152678Y-29139333D01*
X60152678Y-28939333D01*
X60181250Y-28872666D01*
X60209821Y-28839333D01*
X60266964Y-28806000D01*
X60381250Y-28806000D01*
X60438392Y-28839333D01*
X61495535Y-29272666D02*
X61152678Y-29272666D01*
X61324107Y-29272666D02*
X61324107Y-28572666D01*
X61266964Y-28672666D01*
X61209821Y-28739333D01*
X61152678Y-28772666D01*
X61752678Y-29006000D02*
X62209821Y-29006000D01*
X62466964Y-28639333D02*
X62495535Y-28606000D01*
X62552678Y-28572666D01*
X62695535Y-28572666D01*
X62752678Y-28606000D01*
X62781250Y-28639333D01*
X62809821Y-28706000D01*
X62809821Y-28772666D01*
X62781250Y-28872666D01*
X62438392Y-29272666D01*
X62809821Y-29272666D01*
X63066964Y-29206000D02*
X63095535Y-29239333D01*
X63066964Y-29272666D01*
X63038392Y-29239333D01*
X63066964Y-29206000D01*
X63066964Y-29272666D01*
X63066964Y-28839333D02*
X63095535Y-28872666D01*
X63066964Y-28906000D01*
X63038392Y-28872666D01*
X63066964Y-28839333D01*
X63066964Y-28906000D01*
X64238392Y-28539333D02*
X63724107Y-29439333D01*
X64552678Y-28572666D02*
X64666964Y-28572666D01*
X64724107Y-28606000D01*
X64781250Y-28672666D01*
X64809821Y-28806000D01*
X64809821Y-29039333D01*
X64781250Y-29172666D01*
X64724107Y-29239333D01*
X64666964Y-29272666D01*
X64552678Y-29272666D01*
X64495535Y-29239333D01*
X64438392Y-29172666D01*
X64409821Y-29039333D01*
X64409821Y-28806000D01*
X64438392Y-28672666D01*
X64495535Y-28606000D01*
X64552678Y-28572666D01*
X65066964Y-28906000D02*
X65266964Y-28906000D01*
X65352678Y-29272666D02*
X65066964Y-29272666D01*
X65066964Y-28572666D01*
X65352678Y-28572666D01*
X65981250Y-28806000D02*
X66209821Y-28806000D01*
X66066964Y-29272666D02*
X66066964Y-28672666D01*
X66095535Y-28606000D01*
X66152678Y-28572666D01*
X66209821Y-28572666D01*
X66409821Y-29272666D02*
X66409821Y-28806000D01*
X66409821Y-28939333D02*
X66438392Y-28872666D01*
X66466964Y-28839333D01*
X66524107Y-28806000D01*
X66581250Y-28806000D01*
X66866964Y-29272666D02*
X66809821Y-29239333D01*
X66781250Y-29206000D01*
X66752678Y-29139333D01*
X66752678Y-28939333D01*
X66781250Y-28872666D01*
X66809821Y-28839333D01*
X66866964Y-28806000D01*
X66952678Y-28806000D01*
X67009821Y-28839333D01*
X67038392Y-28872666D01*
X67066964Y-28939333D01*
X67066964Y-29139333D01*
X67038392Y-29206000D01*
X67009821Y-29239333D01*
X66952678Y-29272666D01*
X66866964Y-29272666D01*
X67324107Y-29272666D02*
X67324107Y-28806000D01*
X67324107Y-28872666D02*
X67352678Y-28839333D01*
X67409821Y-28806000D01*
X67495535Y-28806000D01*
X67552678Y-28839333D01*
X67581250Y-28906000D01*
X67581250Y-29272666D01*
X67581250Y-28906000D02*
X67609821Y-28839333D01*
X67666964Y-28806000D01*
X67752678Y-28806000D01*
X67809821Y-28839333D01*
X67838392Y-28906000D01*
X67838392Y-29272666D01*
X68581250Y-29272666D02*
X68581250Y-28572666D01*
X68781250Y-29072666D01*
X68981250Y-28572666D01*
X68981250Y-29272666D01*
X69238392Y-29239333D02*
X69324107Y-29272666D01*
X69466964Y-29272666D01*
X69524107Y-29239333D01*
X69552678Y-29206000D01*
X69581250Y-29139333D01*
X69581250Y-29072666D01*
X69552678Y-29006000D01*
X69524107Y-28972666D01*
X69466964Y-28939333D01*
X69352678Y-28906000D01*
X69295535Y-28872666D01*
X69266964Y-28839333D01*
X69238392Y-28772666D01*
X69238392Y-28706000D01*
X69266964Y-28639333D01*
X69295535Y-28606000D01*
X69352678Y-28572666D01*
X69495535Y-28572666D01*
X69581250Y-28606000D01*
X69781250Y-28572666D02*
X70181250Y-29272666D01*
X70181250Y-28572666D02*
X69781250Y-29272666D01*
X71038392Y-29539333D02*
X71009821Y-29506000D01*
X70952678Y-29406000D01*
X70924107Y-29339333D01*
X70895535Y-29239333D01*
X70866964Y-29072666D01*
X70866964Y-28939333D01*
X70895535Y-28772666D01*
X70924107Y-28672666D01*
X70952678Y-28606000D01*
X71009821Y-28506000D01*
X71038392Y-28472666D01*
X71695535Y-28539333D02*
X71181250Y-29439333D01*
X71838392Y-28572666D02*
X71981250Y-29272666D01*
X72095535Y-28772666D01*
X72209821Y-29272666D01*
X72352678Y-28572666D01*
X72924107Y-29272666D02*
X72724107Y-28939333D01*
X72581250Y-29272666D02*
X72581250Y-28572666D01*
X72809821Y-28572666D01*
X72866964Y-28606000D01*
X72895535Y-28639333D01*
X72924107Y-28706000D01*
X72924107Y-28806000D01*
X72895535Y-28872666D01*
X72866964Y-28906000D01*
X72809821Y-28939333D01*
X72581250Y-28939333D01*
X73581250Y-28572666D02*
X73981250Y-29272666D01*
X73981250Y-28572666D02*
X73581250Y-29272666D01*
X74209821Y-29272666D02*
X74209821Y-28572666D01*
X74552678Y-29272666D01*
X74552678Y-28572666D01*
X74952678Y-28572666D02*
X75066964Y-28572666D01*
X75124107Y-28606000D01*
X75181250Y-28672666D01*
X75209821Y-28806000D01*
X75209821Y-29039333D01*
X75181250Y-29172666D01*
X75124107Y-29239333D01*
X75066964Y-29272666D01*
X74952678Y-29272666D01*
X74895535Y-29239333D01*
X74838392Y-29172666D01*
X74809821Y-29039333D01*
X74809821Y-28806000D01*
X74838392Y-28672666D01*
X74895535Y-28606000D01*
X74952678Y-28572666D01*
X75809821Y-29272666D02*
X75609821Y-28939333D01*
X75466964Y-29272666D02*
X75466964Y-28572666D01*
X75695535Y-28572666D01*
X75752678Y-28606000D01*
X75781250Y-28639333D01*
X75809821Y-28706000D01*
X75809821Y-28806000D01*
X75781250Y-28872666D01*
X75752678Y-28906000D01*
X75695535Y-28939333D01*
X75466964Y-28939333D01*
X76952678Y-28539333D02*
X76438392Y-29439333D01*
X77495535Y-29272666D02*
X77295535Y-28939333D01*
X77152678Y-29272666D02*
X77152678Y-28572666D01*
X77381250Y-28572666D01*
X77438392Y-28606000D01*
X77466964Y-28639333D01*
X77495535Y-28706000D01*
X77495535Y-28806000D01*
X77466964Y-28872666D01*
X77438392Y-28906000D01*
X77381250Y-28939333D01*
X77152678Y-28939333D01*
X77752678Y-29272666D02*
X77752678Y-28572666D01*
X77895535Y-28572666D01*
X77981250Y-28606000D01*
X78038392Y-28672666D01*
X78066964Y-28739333D01*
X78095535Y-28872666D01*
X78095535Y-28972666D01*
X78066964Y-29106000D01*
X78038392Y-29172666D01*
X77981250Y-29239333D01*
X77895535Y-29272666D01*
X77752678Y-29272666D01*
X78295535Y-29539333D02*
X78324107Y-29506000D01*
X78381250Y-29406000D01*
X78409821Y-29339333D01*
X78438392Y-29239333D01*
X78466964Y-29072666D01*
X78466964Y-28939333D01*
X78438392Y-28772666D01*
X78409821Y-28672666D01*
X78381250Y-28606000D01*
X78324107Y-28506000D01*
X78295535Y-28472666D01*
X58066964Y-30333000D02*
X58038392Y-30366333D01*
X57952678Y-30399666D01*
X57895535Y-30399666D01*
X57809821Y-30366333D01*
X57752678Y-30299666D01*
X57724107Y-30233000D01*
X57695535Y-30099666D01*
X57695535Y-29999666D01*
X57724107Y-29866333D01*
X57752678Y-29799666D01*
X57809821Y-29733000D01*
X57895535Y-29699666D01*
X57952678Y-29699666D01*
X58038392Y-29733000D01*
X58066964Y-29766333D01*
X58409821Y-30399666D02*
X58352678Y-30366333D01*
X58324107Y-30299666D01*
X58324107Y-29699666D01*
X58724107Y-30399666D02*
X58666964Y-30366333D01*
X58638392Y-30333000D01*
X58609821Y-30266333D01*
X58609821Y-30066333D01*
X58638392Y-29999666D01*
X58666964Y-29966333D01*
X58724107Y-29933000D01*
X58809821Y-29933000D01*
X58866964Y-29966333D01*
X58895535Y-29999666D01*
X58924107Y-30066333D01*
X58924107Y-30266333D01*
X58895535Y-30333000D01*
X58866964Y-30366333D01*
X58809821Y-30399666D01*
X58724107Y-30399666D01*
X59152678Y-30366333D02*
X59209821Y-30399666D01*
X59324107Y-30399666D01*
X59381250Y-30366333D01*
X59409821Y-30299666D01*
X59409821Y-30266333D01*
X59381250Y-30199666D01*
X59324107Y-30166333D01*
X59238392Y-30166333D01*
X59181250Y-30133000D01*
X59152678Y-30066333D01*
X59152678Y-30033000D01*
X59181250Y-29966333D01*
X59238392Y-29933000D01*
X59324107Y-29933000D01*
X59381250Y-29966333D01*
X59895535Y-30366333D02*
X59838392Y-30399666D01*
X59724107Y-30399666D01*
X59666964Y-30366333D01*
X59638392Y-30299666D01*
X59638392Y-30033000D01*
X59666964Y-29966333D01*
X59724107Y-29933000D01*
X59838392Y-29933000D01*
X59895535Y-29966333D01*
X59924107Y-30033000D01*
X59924107Y-30099666D01*
X59638392Y-30166333D01*
X60438392Y-30399666D02*
X60438392Y-29699666D01*
X60438392Y-30366333D02*
X60381250Y-30399666D01*
X60266964Y-30399666D01*
X60209821Y-30366333D01*
X60181250Y-30333000D01*
X60152678Y-30266333D01*
X60152678Y-30066333D01*
X60181250Y-29999666D01*
X60209821Y-29966333D01*
X60266964Y-29933000D01*
X60381250Y-29933000D01*
X60438392Y-29966333D01*
X61152678Y-29766333D02*
X61181250Y-29733000D01*
X61238392Y-29699666D01*
X61381250Y-29699666D01*
X61438392Y-29733000D01*
X61466964Y-29766333D01*
X61495535Y-29833000D01*
X61495535Y-29899666D01*
X61466964Y-29999666D01*
X61124107Y-30399666D01*
X61495535Y-30399666D01*
X61752678Y-30133000D02*
X62209821Y-30133000D01*
X62438392Y-29699666D02*
X62809821Y-29699666D01*
X62609821Y-29966333D01*
X62695535Y-29966333D01*
X62752678Y-29999666D01*
X62781250Y-30033000D01*
X62809821Y-30099666D01*
X62809821Y-30266333D01*
X62781250Y-30333000D01*
X62752678Y-30366333D01*
X62695535Y-30399666D01*
X62524107Y-30399666D01*
X62466964Y-30366333D01*
X62438392Y-30333000D01*
X63066964Y-30333000D02*
X63095535Y-30366333D01*
X63066964Y-30399666D01*
X63038392Y-30366333D01*
X63066964Y-30333000D01*
X63066964Y-30399666D01*
X63066964Y-29966333D02*
X63095535Y-29999666D01*
X63066964Y-30033000D01*
X63038392Y-29999666D01*
X63066964Y-29966333D01*
X63066964Y-30033000D01*
X64238392Y-29666333D02*
X63724107Y-30566333D01*
X64552678Y-29699666D02*
X64666964Y-29699666D01*
X64724107Y-29733000D01*
X64781250Y-29799666D01*
X64809821Y-29933000D01*
X64809821Y-30166333D01*
X64781250Y-30299666D01*
X64724107Y-30366333D01*
X64666964Y-30399666D01*
X64552678Y-30399666D01*
X64495535Y-30366333D01*
X64438392Y-30299666D01*
X64409821Y-30166333D01*
X64409821Y-29933000D01*
X64438392Y-29799666D01*
X64495535Y-29733000D01*
X64552678Y-29699666D01*
X65066964Y-30033000D02*
X65266964Y-30033000D01*
X65352678Y-30399666D02*
X65066964Y-30399666D01*
X65066964Y-29699666D01*
X65352678Y-29699666D01*
X66381250Y-29733000D02*
X66324107Y-29699666D01*
X66238392Y-29699666D01*
X66152678Y-29733000D01*
X66095535Y-29799666D01*
X66066964Y-29866333D01*
X66038392Y-29999666D01*
X66038392Y-30099666D01*
X66066964Y-30233000D01*
X66095535Y-30299666D01*
X66152678Y-30366333D01*
X66238392Y-30399666D01*
X66295535Y-30399666D01*
X66381250Y-30366333D01*
X66409821Y-30333000D01*
X66409821Y-30099666D01*
X66295535Y-30099666D01*
X66666964Y-30399666D02*
X66666964Y-29933000D01*
X66666964Y-30066333D02*
X66695535Y-29999666D01*
X66724107Y-29966333D01*
X66781250Y-29933000D01*
X66838392Y-29933000D01*
X67124107Y-30399666D02*
X67066964Y-30366333D01*
X67038392Y-30333000D01*
X67009821Y-30266333D01*
X67009821Y-30066333D01*
X67038392Y-29999666D01*
X67066964Y-29966333D01*
X67124107Y-29933000D01*
X67209821Y-29933000D01*
X67266964Y-29966333D01*
X67295535Y-29999666D01*
X67324107Y-30066333D01*
X67324107Y-30266333D01*
X67295535Y-30333000D01*
X67266964Y-30366333D01*
X67209821Y-30399666D01*
X67124107Y-30399666D01*
X67838392Y-29933000D02*
X67838392Y-30399666D01*
X67581250Y-29933000D02*
X67581250Y-30299666D01*
X67609821Y-30366333D01*
X67666964Y-30399666D01*
X67752678Y-30399666D01*
X67809821Y-30366333D01*
X67838392Y-30333000D01*
X68124107Y-29933000D02*
X68124107Y-30399666D01*
X68124107Y-29999666D02*
X68152678Y-29966333D01*
X68209821Y-29933000D01*
X68295535Y-29933000D01*
X68352678Y-29966333D01*
X68381250Y-30033000D01*
X68381250Y-30399666D01*
X68924107Y-30399666D02*
X68924107Y-29699666D01*
X68924107Y-30366333D02*
X68866964Y-30399666D01*
X68752678Y-30399666D01*
X68695535Y-30366333D01*
X68666964Y-30333000D01*
X68638392Y-30266333D01*
X68638392Y-30066333D01*
X68666964Y-29999666D01*
X68695535Y-29966333D01*
X68752678Y-29933000D01*
X68866964Y-29933000D01*
X68924107Y-29966333D01*
X69438392Y-30366333D02*
X69381250Y-30399666D01*
X69266964Y-30399666D01*
X69209821Y-30366333D01*
X69181250Y-30299666D01*
X69181250Y-30033000D01*
X69209821Y-29966333D01*
X69266964Y-29933000D01*
X69381250Y-29933000D01*
X69438392Y-29966333D01*
X69466964Y-30033000D01*
X69466964Y-30099666D01*
X69181250Y-30166333D01*
X69981250Y-30399666D02*
X69981250Y-29699666D01*
X69981250Y-30366333D02*
X69924107Y-30399666D01*
X69809821Y-30399666D01*
X69752678Y-30366333D01*
X69724107Y-30333000D01*
X69695535Y-30266333D01*
X69695535Y-30066333D01*
X69724107Y-29999666D01*
X69752678Y-29966333D01*
X69809821Y-29933000D01*
X69924107Y-29933000D01*
X69981250Y-29966333D01*
X70638392Y-29933000D02*
X70866964Y-29933000D01*
X70724107Y-29699666D02*
X70724107Y-30299666D01*
X70752678Y-30366333D01*
X70809821Y-30399666D01*
X70866964Y-30399666D01*
X71152678Y-30399666D02*
X71095535Y-30366333D01*
X71066964Y-30333000D01*
X71038392Y-30266333D01*
X71038392Y-30066333D01*
X71066964Y-29999666D01*
X71095535Y-29966333D01*
X71152678Y-29933000D01*
X71238392Y-29933000D01*
X71295535Y-29966333D01*
X71324107Y-29999666D01*
X71352678Y-30066333D01*
X71352678Y-30266333D01*
X71324107Y-30333000D01*
X71295535Y-30366333D01*
X71238392Y-30399666D01*
X71152678Y-30399666D01*
X72381250Y-29733000D02*
X72324107Y-29699666D01*
X72238392Y-29699666D01*
X72152678Y-29733000D01*
X72095535Y-29799666D01*
X72066964Y-29866333D01*
X72038392Y-29999666D01*
X72038392Y-30099666D01*
X72066964Y-30233000D01*
X72095535Y-30299666D01*
X72152678Y-30366333D01*
X72238392Y-30399666D01*
X72295535Y-30399666D01*
X72381250Y-30366333D01*
X72409821Y-30333000D01*
X72409821Y-30099666D01*
X72295535Y-30099666D01*
X72666964Y-30399666D02*
X72666964Y-29699666D01*
X73009821Y-30399666D01*
X73009821Y-29699666D01*
X73295535Y-30399666D02*
X73295535Y-29699666D01*
X73438392Y-29699666D01*
X73524107Y-29733000D01*
X73581250Y-29799666D01*
X73609821Y-29866333D01*
X73638392Y-29999666D01*
X73638392Y-30099666D01*
X73609821Y-30233000D01*
X73581250Y-30299666D01*
X73524107Y-30366333D01*
X73438392Y-30399666D01*
X73295535Y-30399666D01*
X74524107Y-30666333D02*
X74495535Y-30633000D01*
X74438392Y-30533000D01*
X74409821Y-30466333D01*
X74381250Y-30366333D01*
X74352678Y-30199666D01*
X74352678Y-30066333D01*
X74381250Y-29899666D01*
X74409821Y-29799666D01*
X74438392Y-29733000D01*
X74495535Y-29633000D01*
X74524107Y-29599666D01*
X75181250Y-29666333D02*
X74666964Y-30566333D01*
X75495535Y-29699666D02*
X75609821Y-29699666D01*
X75666964Y-29733000D01*
X75724107Y-29799666D01*
X75752678Y-29933000D01*
X75752678Y-30166333D01*
X75724107Y-30299666D01*
X75666964Y-30366333D01*
X75609821Y-30399666D01*
X75495535Y-30399666D01*
X75438392Y-30366333D01*
X75381250Y-30299666D01*
X75352678Y-30166333D01*
X75352678Y-29933000D01*
X75381250Y-29799666D01*
X75438392Y-29733000D01*
X75495535Y-29699666D01*
X76009821Y-30033000D02*
X76209821Y-30033000D01*
X76295535Y-30399666D02*
X76009821Y-30399666D01*
X76009821Y-29699666D01*
X76295535Y-29699666D01*
X77009821Y-30399666D02*
X77009821Y-29699666D01*
X77238392Y-29699666D01*
X77295535Y-29733000D01*
X77324107Y-29766333D01*
X77352678Y-29833000D01*
X77352678Y-29933000D01*
X77324107Y-29999666D01*
X77295535Y-30033000D01*
X77238392Y-30066333D01*
X77009821Y-30066333D01*
X77838392Y-30366333D02*
X77781250Y-30399666D01*
X77666964Y-30399666D01*
X77609821Y-30366333D01*
X77581250Y-30299666D01*
X77581250Y-30033000D01*
X77609821Y-29966333D01*
X77666964Y-29933000D01*
X77781250Y-29933000D01*
X77838392Y-29966333D01*
X77866964Y-30033000D01*
X77866964Y-30099666D01*
X77581250Y-30166333D01*
X78124107Y-30399666D02*
X78124107Y-29933000D01*
X78124107Y-30066333D02*
X78152678Y-29999666D01*
X78181250Y-29966333D01*
X78238392Y-29933000D01*
X78295535Y-29933000D01*
X78495535Y-30399666D02*
X78495535Y-29933000D01*
X78495535Y-29999666D02*
X78524107Y-29966333D01*
X78581250Y-29933000D01*
X78666964Y-29933000D01*
X78724107Y-29966333D01*
X78752678Y-30033000D01*
X78752678Y-30399666D01*
X78752678Y-30033000D02*
X78781250Y-29966333D01*
X78838392Y-29933000D01*
X78924107Y-29933000D01*
X78981250Y-29966333D01*
X79009821Y-30033000D01*
X79009821Y-30399666D01*
X79552678Y-30399666D02*
X79552678Y-30033000D01*
X79524107Y-29966333D01*
X79466964Y-29933000D01*
X79352678Y-29933000D01*
X79295535Y-29966333D01*
X79552678Y-30366333D02*
X79495535Y-30399666D01*
X79352678Y-30399666D01*
X79295535Y-30366333D01*
X79266964Y-30299666D01*
X79266964Y-30233000D01*
X79295535Y-30166333D01*
X79352678Y-30133000D01*
X79495535Y-30133000D01*
X79552678Y-30099666D01*
X79838392Y-29933000D02*
X79838392Y-30399666D01*
X79838392Y-29999666D02*
X79866964Y-29966333D01*
X79924107Y-29933000D01*
X80009821Y-29933000D01*
X80066964Y-29966333D01*
X80095535Y-30033000D01*
X80095535Y-30399666D01*
X80609821Y-30366333D02*
X80552678Y-30399666D01*
X80438392Y-30399666D01*
X80381250Y-30366333D01*
X80352678Y-30299666D01*
X80352678Y-30033000D01*
X80381250Y-29966333D01*
X80438392Y-29933000D01*
X80552678Y-29933000D01*
X80609821Y-29966333D01*
X80638392Y-30033000D01*
X80638392Y-30099666D01*
X80352678Y-30166333D01*
X80895535Y-29933000D02*
X80895535Y-30399666D01*
X80895535Y-29999666D02*
X80924107Y-29966333D01*
X80981250Y-29933000D01*
X81066964Y-29933000D01*
X81124107Y-29966333D01*
X81152678Y-30033000D01*
X81152678Y-30399666D01*
X81352678Y-29933000D02*
X81581250Y-29933000D01*
X81438392Y-29699666D02*
X81438392Y-30299666D01*
X81466964Y-30366333D01*
X81524107Y-30399666D01*
X81581250Y-30399666D01*
X81866964Y-30399666D02*
X81809821Y-30366333D01*
X81781250Y-30299666D01*
X81781250Y-29699666D01*
X82038392Y-29933000D02*
X82181250Y-30399666D01*
X82324107Y-29933000D02*
X82181250Y-30399666D01*
X82124107Y-30566333D01*
X82095535Y-30599666D01*
X82038392Y-30633000D01*
X83238392Y-30366333D02*
X83181250Y-30399666D01*
X83066964Y-30399666D01*
X83009821Y-30366333D01*
X82981250Y-30299666D01*
X82981250Y-30033000D01*
X83009821Y-29966333D01*
X83066964Y-29933000D01*
X83181250Y-29933000D01*
X83238392Y-29966333D01*
X83266964Y-30033000D01*
X83266964Y-30099666D01*
X82981250Y-30166333D01*
X83524107Y-29933000D02*
X83524107Y-30399666D01*
X83524107Y-29999666D02*
X83552678Y-29966333D01*
X83609821Y-29933000D01*
X83695535Y-29933000D01*
X83752678Y-29966333D01*
X83781250Y-30033000D01*
X83781250Y-30399666D01*
X84324107Y-30399666D02*
X84324107Y-30033000D01*
X84295535Y-29966333D01*
X84238392Y-29933000D01*
X84124107Y-29933000D01*
X84066964Y-29966333D01*
X84324107Y-30366333D02*
X84266964Y-30399666D01*
X84124107Y-30399666D01*
X84066964Y-30366333D01*
X84038392Y-30299666D01*
X84038392Y-30233000D01*
X84066964Y-30166333D01*
X84124107Y-30133000D01*
X84266964Y-30133000D01*
X84324107Y-30099666D01*
X84609821Y-30399666D02*
X84609821Y-29699666D01*
X84609821Y-29966333D02*
X84666964Y-29933000D01*
X84781250Y-29933000D01*
X84838392Y-29966333D01*
X84866964Y-29999666D01*
X84895535Y-30066333D01*
X84895535Y-30266333D01*
X84866964Y-30333000D01*
X84838392Y-30366333D01*
X84781250Y-30399666D01*
X84666964Y-30399666D01*
X84609821Y-30366333D01*
X85238392Y-30399666D02*
X85181250Y-30366333D01*
X85152678Y-30299666D01*
X85152678Y-29699666D01*
X85695535Y-30366333D02*
X85638392Y-30399666D01*
X85524107Y-30399666D01*
X85466964Y-30366333D01*
X85438392Y-30299666D01*
X85438392Y-30033000D01*
X85466964Y-29966333D01*
X85524107Y-29933000D01*
X85638392Y-29933000D01*
X85695535Y-29966333D01*
X85724107Y-30033000D01*
X85724107Y-30099666D01*
X85438392Y-30166333D01*
X86238392Y-30399666D02*
X86238392Y-29699666D01*
X86238392Y-30366333D02*
X86181249Y-30399666D01*
X86066964Y-30399666D01*
X86009821Y-30366333D01*
X85981249Y-30333000D01*
X85952678Y-30266333D01*
X85952678Y-30066333D01*
X85981249Y-29999666D01*
X86009821Y-29966333D01*
X86066964Y-29933000D01*
X86181249Y-29933000D01*
X86238392Y-29966333D01*
X86466964Y-30666333D02*
X86495535Y-30633000D01*
X86552678Y-30533000D01*
X86581249Y-30466333D01*
X86609821Y-30366333D01*
X86638392Y-30199666D01*
X86638392Y-30066333D01*
X86609821Y-29899666D01*
X86581249Y-29799666D01*
X86552678Y-29733000D01*
X86495535Y-29633000D01*
X86466964Y-29599666D01*
D11*
X94281714Y-27024000D02*
X94567428Y-27024000D01*
X94224571Y-27195428D02*
X94424571Y-26595428D01*
X94624571Y-27195428D01*
X95138857Y-27195428D02*
X94796000Y-27195428D01*
X94967428Y-27195428D02*
X94967428Y-26595428D01*
X94910285Y-26681142D01*
X94853142Y-26738285D01*
X94796000Y-26766857D01*
X95653142Y-26795428D02*
X95653142Y-27195428D01*
X95510285Y-26566857D02*
X95367428Y-26995428D01*
X95738857Y-26995428D01*
X79835428Y-27024000D02*
X80121142Y-27024000D01*
X79778285Y-27195428D02*
X79978285Y-26595428D01*
X80178285Y-27195428D01*
X80635428Y-26795428D02*
X80635428Y-27195428D01*
X80492571Y-26566857D02*
X80349714Y-26995428D01*
X80721142Y-26995428D01*
D10*
X143839031Y-73390832D02*
X143839031Y-72390832D01*
X144172364Y-73105118D01*
X144505697Y-72390832D01*
X144505697Y-73390832D01*
X144934269Y-73343213D02*
X145077126Y-73390832D01*
X145315221Y-73390832D01*
X145410459Y-73343213D01*
X145458078Y-73295594D01*
X145505697Y-73200356D01*
X145505697Y-73105118D01*
X145458078Y-73009880D01*
X145410459Y-72962261D01*
X145315221Y-72914642D01*
X145124745Y-72867023D01*
X145029507Y-72819404D01*
X144981888Y-72771785D01*
X144934269Y-72676547D01*
X144934269Y-72581309D01*
X144981888Y-72486071D01*
X145029507Y-72438452D01*
X145124745Y-72390832D01*
X145362840Y-72390832D01*
X145505697Y-72438452D01*
X145839031Y-72390832D02*
X146505697Y-73390832D01*
X146505697Y-72390832D02*
X145839031Y-73390832D01*
X147648555Y-73390832D02*
X147648555Y-72390832D01*
X147886650Y-72390832D01*
X148029507Y-72438452D01*
X148124745Y-72533690D01*
X148172364Y-72628928D01*
X148219983Y-72819404D01*
X148219983Y-72962261D01*
X148172364Y-73152737D01*
X148124745Y-73247975D01*
X148029507Y-73343213D01*
X147886650Y-73390832D01*
X147648555Y-73390832D01*
X148648555Y-72867023D02*
X148981888Y-72867023D01*
X149124745Y-73390832D02*
X148648555Y-73390832D01*
X148648555Y-72390832D01*
X149124745Y-72390832D01*
X150077126Y-73390832D02*
X149505697Y-73390832D01*
X149791412Y-73390832D02*
X149791412Y-72390832D01*
X149696174Y-72533690D01*
X149600936Y-72628928D01*
X149505697Y-72676547D01*
X151267602Y-73390832D02*
X151267602Y-72390832D01*
X151267602Y-72867023D02*
X151839031Y-72867023D01*
X151839031Y-73390832D02*
X151839031Y-72390832D01*
X152743793Y-73390832D02*
X152743793Y-72867023D01*
X152696174Y-72771785D01*
X152600936Y-72724166D01*
X152410459Y-72724166D01*
X152315221Y-72771785D01*
X152743793Y-73343213D02*
X152648555Y-73390832D01*
X152410459Y-73390832D01*
X152315221Y-73343213D01*
X152267602Y-73247975D01*
X152267602Y-73152737D01*
X152315221Y-73057499D01*
X152410459Y-73009880D01*
X152648555Y-73009880D01*
X152743793Y-72962261D01*
X153077126Y-72724166D02*
X153458078Y-72724166D01*
X153219983Y-72390832D02*
X153219983Y-73247975D01*
X153267602Y-73343213D01*
X153362840Y-73390832D01*
X153458078Y-73390832D01*
X150553317Y-74334166D02*
X150791412Y-75000832D01*
X151029507Y-74334166D01*
X151934269Y-75000832D02*
X151362840Y-75000832D01*
X151648555Y-75000832D02*
X151648555Y-74000832D01*
X151553317Y-74143690D01*
X151458078Y-74238928D01*
X151362840Y-74286547D01*
X152362840Y-74905594D02*
X152410459Y-74953213D01*
X152362840Y-75000832D01*
X152315221Y-74953213D01*
X152362840Y-74905594D01*
X152362840Y-75000832D01*
X153362840Y-75000832D02*
X152791412Y-75000832D01*
X153077126Y-75000832D02*
X153077126Y-74000832D01*
X152981888Y-74143690D01*
X152886650Y-74238928D01*
X152791412Y-74286547D01*
D11*
X138512571Y-73896571D02*
X138541142Y-73868000D01*
X138598285Y-73839428D01*
X138741142Y-73839428D01*
X138798285Y-73868000D01*
X138826857Y-73896571D01*
X138855428Y-73953714D01*
X138855428Y-74010857D01*
X138826857Y-74096571D01*
X138484000Y-74439428D01*
X138855428Y-74439428D01*
X109850285Y-26566857D02*
X109336000Y-27338285D01*
X109993142Y-26595428D02*
X110136000Y-27195428D01*
X110250285Y-26766857D01*
X110364571Y-27195428D01*
X110507428Y-26595428D01*
X111078857Y-27195428D02*
X110878857Y-26909714D01*
X110736000Y-27195428D02*
X110736000Y-26595428D01*
X110964571Y-26595428D01*
X111021714Y-26624000D01*
X111050285Y-26652571D01*
X111078857Y-26709714D01*
X111078857Y-26795428D01*
X111050285Y-26852571D01*
X111021714Y-26881142D01*
X110964571Y-26909714D01*
X110736000Y-26909714D01*
X123353067Y-27528924D02*
X122838781Y-28300352D01*
X123553067Y-28157495D02*
X123553067Y-27557495D01*
X123753067Y-27986067D01*
X123953067Y-27557495D01*
X123953067Y-28157495D01*
X124553067Y-28157495D02*
X124210210Y-28157495D01*
X124381638Y-28157495D02*
X124381638Y-27557495D01*
X124324496Y-27643209D01*
X124267353Y-27700352D01*
X124210210Y-27728924D01*
X79821142Y-28211428D02*
X79821142Y-27611428D01*
X79964000Y-27611428D01*
X80049714Y-27640000D01*
X80106857Y-27697142D01*
X80135428Y-27754285D01*
X80164000Y-27868571D01*
X80164000Y-27954285D01*
X80135428Y-28068571D01*
X80106857Y-28125714D01*
X80049714Y-28182857D01*
X79964000Y-28211428D01*
X79821142Y-28211428D01*
X80678285Y-27611428D02*
X80564000Y-27611428D01*
X80506857Y-27640000D01*
X80478285Y-27668571D01*
X80421142Y-27754285D01*
X80392571Y-27868571D01*
X80392571Y-28097142D01*
X80421142Y-28154285D01*
X80449714Y-28182857D01*
X80506857Y-28211428D01*
X80621142Y-28211428D01*
X80678285Y-28182857D01*
X80706857Y-28154285D01*
X80735428Y-28097142D01*
X80735428Y-27954285D01*
X80706857Y-27897142D01*
X80678285Y-27868571D01*
X80621142Y-27840000D01*
X80506857Y-27840000D01*
X80449714Y-27868571D01*
X80421142Y-27897142D01*
X80392571Y-27954285D01*
X125650697Y-26554764D02*
X125136411Y-27326192D01*
X125793554Y-26583335D02*
X125936411Y-27183335D01*
X126050697Y-26754764D01*
X126164983Y-27183335D01*
X126307840Y-26583335D01*
X126507840Y-27011907D02*
X126793554Y-27011907D01*
X126450697Y-27183335D02*
X126650697Y-26583335D01*
X126850697Y-27183335D01*
X127050697Y-27183335D02*
X127050697Y-26583335D01*
X127250697Y-26583335D02*
X127593554Y-26583335D01*
X127422125Y-27183335D02*
X127422125Y-26583335D01*
X112038871Y-27608767D02*
X112410299Y-27608767D01*
X112210299Y-27837339D01*
X112296014Y-27837339D01*
X112353156Y-27865910D01*
X112381728Y-27894481D01*
X112410299Y-27951624D01*
X112410299Y-28094481D01*
X112381728Y-28151624D01*
X112353156Y-28180196D01*
X112296014Y-28208767D01*
X112124585Y-28208767D01*
X112067442Y-28180196D01*
X112038871Y-28151624D01*
X112581728Y-27608767D02*
X112781728Y-28208767D01*
X112981728Y-27608767D01*
X123347195Y-26477856D02*
X122832909Y-27249284D01*
X123547195Y-27106427D02*
X123547195Y-26506427D01*
X123832909Y-27106427D02*
X123832909Y-26506427D01*
X124175767Y-27106427D01*
X124175767Y-26506427D01*
X124375767Y-26506427D02*
X124718624Y-26506427D01*
X124547195Y-27106427D02*
X124547195Y-26506427D01*
D10*
X65088000Y-73604380D02*
X64754666Y-73128190D01*
X64516571Y-73604380D02*
X64516571Y-72604380D01*
X64897523Y-72604380D01*
X64992761Y-72652000D01*
X65040380Y-72699619D01*
X65088000Y-72794857D01*
X65088000Y-72937714D01*
X65040380Y-73032952D01*
X64992761Y-73080571D01*
X64897523Y-73128190D01*
X64516571Y-73128190D01*
X66088000Y-73509142D02*
X66040380Y-73556761D01*
X65897523Y-73604380D01*
X65802285Y-73604380D01*
X65659428Y-73556761D01*
X65564190Y-73461523D01*
X65516571Y-73366285D01*
X65468952Y-73175809D01*
X65468952Y-73032952D01*
X65516571Y-72842476D01*
X65564190Y-72747238D01*
X65659428Y-72652000D01*
X65802285Y-72604380D01*
X65897523Y-72604380D01*
X66040380Y-72652000D01*
X66088000Y-72699619D01*
X67088000Y-73509142D02*
X67040380Y-73556761D01*
X66897523Y-73604380D01*
X66802285Y-73604380D01*
X66659428Y-73556761D01*
X66564190Y-73461523D01*
X66516571Y-73366285D01*
X66468952Y-73175809D01*
X66468952Y-73032952D01*
X66516571Y-72842476D01*
X66564190Y-72747238D01*
X66659428Y-72652000D01*
X66802285Y-72604380D01*
X66897523Y-72604380D01*
X67040380Y-72652000D01*
X67088000Y-72699619D01*
X68897523Y-73128190D02*
X68849904Y-73080571D01*
X68754666Y-73032952D01*
X68659428Y-73032952D01*
X68564190Y-73080571D01*
X68516571Y-73128190D01*
X68468952Y-73223428D01*
X68468952Y-73318666D01*
X68516571Y-73413904D01*
X68564190Y-73461523D01*
X68659428Y-73509142D01*
X68754666Y-73509142D01*
X68849904Y-73461523D01*
X68897523Y-73413904D01*
X68897523Y-73032952D02*
X68897523Y-73413904D01*
X68945142Y-73461523D01*
X68992761Y-73461523D01*
X69088000Y-73413904D01*
X69135619Y-73318666D01*
X69135619Y-73080571D01*
X69040380Y-72937714D01*
X68897523Y-72842476D01*
X68707047Y-72794857D01*
X68516571Y-72842476D01*
X68373714Y-72937714D01*
X68278476Y-73080571D01*
X68230857Y-73271047D01*
X68278476Y-73461523D01*
X68373714Y-73604380D01*
X68516571Y-73699619D01*
X68707047Y-73747238D01*
X68897523Y-73699619D01*
X69040380Y-73604380D01*
X70278476Y-72699619D02*
X70326095Y-72652000D01*
X70421333Y-72604380D01*
X70659428Y-72604380D01*
X70754666Y-72652000D01*
X70802285Y-72699619D01*
X70849904Y-72794857D01*
X70849904Y-72890095D01*
X70802285Y-73032952D01*
X70230857Y-73604380D01*
X70849904Y-73604380D01*
X71468952Y-72604380D02*
X71564190Y-72604380D01*
X71659428Y-72652000D01*
X71707047Y-72699619D01*
X71754666Y-72794857D01*
X71802285Y-72985333D01*
X71802285Y-73223428D01*
X71754666Y-73413904D01*
X71707047Y-73509142D01*
X71659428Y-73556761D01*
X71564190Y-73604380D01*
X71468952Y-73604380D01*
X71373714Y-73556761D01*
X71326095Y-73509142D01*
X71278476Y-73413904D01*
X71230857Y-73223428D01*
X71230857Y-72985333D01*
X71278476Y-72794857D01*
X71326095Y-72699619D01*
X71373714Y-72652000D01*
X71468952Y-72604380D01*
X72183238Y-72699619D02*
X72230857Y-72652000D01*
X72326095Y-72604380D01*
X72564190Y-72604380D01*
X72659428Y-72652000D01*
X72707047Y-72699619D01*
X72754666Y-72794857D01*
X72754666Y-72890095D01*
X72707047Y-73032952D01*
X72135619Y-73604380D01*
X72754666Y-73604380D01*
X73135619Y-72699619D02*
X73183238Y-72652000D01*
X73278476Y-72604380D01*
X73516571Y-72604380D01*
X73611809Y-72652000D01*
X73659428Y-72699619D01*
X73707047Y-72794857D01*
X73707047Y-72890095D01*
X73659428Y-73032952D01*
X73088000Y-73604380D01*
X73707047Y-73604380D01*
D11*
X76787428Y-27024000D02*
X77073142Y-27024000D01*
X76730285Y-27195428D02*
X76930285Y-26595428D01*
X77130285Y-27195428D01*
X77616000Y-26595428D02*
X77330285Y-26595428D01*
X77301714Y-26881142D01*
X77330285Y-26852571D01*
X77387428Y-26824000D01*
X77530285Y-26824000D01*
X77587428Y-26852571D01*
X77616000Y-26881142D01*
X77644571Y-26938285D01*
X77644571Y-27081142D01*
X77616000Y-27138285D01*
X77587428Y-27166857D01*
X77530285Y-27195428D01*
X77387428Y-27195428D01*
X77330285Y-27166857D01*
X77301714Y-27138285D01*
X76773142Y-28211428D02*
X76773142Y-27611428D01*
X76916000Y-27611428D01*
X77001714Y-27640000D01*
X77058857Y-27697142D01*
X77087428Y-27754285D01*
X77116000Y-27868571D01*
X77116000Y-27954285D01*
X77087428Y-28068571D01*
X77058857Y-28125714D01*
X77001714Y-28182857D01*
X76916000Y-28211428D01*
X76773142Y-28211428D01*
X77316000Y-27611428D02*
X77716000Y-27611428D01*
X77458857Y-28211428D01*
D10*
%TO.C,C1*%
X54846420Y-48300137D02*
X54941658Y-48300137D01*
X55036896Y-48347757D01*
X55084515Y-48395376D01*
X55132134Y-48490614D01*
X55179753Y-48681090D01*
X55179753Y-48919185D01*
X55132134Y-49109661D01*
X55084515Y-49204899D01*
X55036896Y-49252518D01*
X54941658Y-49300137D01*
X54846420Y-49300137D01*
X54751181Y-49252518D01*
X54703562Y-49204899D01*
X54655943Y-49109661D01*
X54608324Y-48919185D01*
X54608324Y-48681090D01*
X54655943Y-48490614D01*
X54703562Y-48395376D01*
X54751181Y-48347757D01*
X54846420Y-48300137D01*
X55608324Y-49204899D02*
X55655943Y-49252518D01*
X55608324Y-49300137D01*
X55560705Y-49252518D01*
X55608324Y-49204899D01*
X55608324Y-49300137D01*
X56608324Y-49300137D02*
X56036896Y-49300137D01*
X56322610Y-49300137D02*
X56322610Y-48300137D01*
X56227372Y-48442995D01*
X56132134Y-48538233D01*
X56036896Y-48585852D01*
X57465467Y-48633471D02*
X57465467Y-49300137D01*
X57036896Y-48633471D02*
X57036896Y-49157280D01*
X57084515Y-49252518D01*
X57179753Y-49300137D01*
X57322610Y-49300137D01*
X57417848Y-49252518D01*
X57465467Y-49204899D01*
X57798800Y-48633471D02*
X58179753Y-48633471D01*
X57941658Y-49300137D02*
X57941658Y-48442995D01*
X57989277Y-48347757D01*
X58084515Y-48300137D01*
X58179753Y-48300137D01*
%TO.C,C3*%
X82885345Y-49393873D02*
X82980583Y-49393873D01*
X83075821Y-49441493D01*
X83123440Y-49489112D01*
X83171059Y-49584350D01*
X83218678Y-49774826D01*
X83218678Y-50012921D01*
X83171059Y-50203397D01*
X83123440Y-50298635D01*
X83075821Y-50346254D01*
X82980583Y-50393873D01*
X82885345Y-50393873D01*
X82790106Y-50346254D01*
X82742487Y-50298635D01*
X82694868Y-50203397D01*
X82647249Y-50012921D01*
X82647249Y-49774826D01*
X82694868Y-49584350D01*
X82742487Y-49489112D01*
X82790106Y-49441493D01*
X82885345Y-49393873D01*
X83647249Y-50298635D02*
X83694868Y-50346254D01*
X83647249Y-50393873D01*
X83599630Y-50346254D01*
X83647249Y-50298635D01*
X83647249Y-50393873D01*
X84647249Y-50393873D02*
X84075821Y-50393873D01*
X84361535Y-50393873D02*
X84361535Y-49393873D01*
X84266297Y-49536731D01*
X84171059Y-49631969D01*
X84075821Y-49679588D01*
X85504392Y-49727207D02*
X85504392Y-50393873D01*
X85075821Y-49727207D02*
X85075821Y-50251016D01*
X85123440Y-50346254D01*
X85218678Y-50393873D01*
X85361535Y-50393873D01*
X85456773Y-50346254D01*
X85504392Y-50298635D01*
X85837725Y-49727207D02*
X86218678Y-49727207D01*
X85980583Y-50393873D02*
X85980583Y-49536731D01*
X86028202Y-49441493D01*
X86123440Y-49393873D01*
X86218678Y-49393873D01*
%TO.C,C2*%
X63265818Y-31563894D02*
X63361056Y-31563894D01*
X63456294Y-31611514D01*
X63503913Y-31659133D01*
X63551532Y-31754371D01*
X63599151Y-31944847D01*
X63599151Y-32182942D01*
X63551532Y-32373418D01*
X63503913Y-32468656D01*
X63456294Y-32516275D01*
X63361056Y-32563894D01*
X63265818Y-32563894D01*
X63170579Y-32516275D01*
X63122960Y-32468656D01*
X63075341Y-32373418D01*
X63027722Y-32182942D01*
X63027722Y-31944847D01*
X63075341Y-31754371D01*
X63122960Y-31659133D01*
X63170579Y-31611514D01*
X63265818Y-31563894D01*
X64027722Y-32468656D02*
X64075341Y-32516275D01*
X64027722Y-32563894D01*
X63980103Y-32516275D01*
X64027722Y-32468656D01*
X64027722Y-32563894D01*
X65027722Y-32563894D02*
X64456294Y-32563894D01*
X64742008Y-32563894D02*
X64742008Y-31563894D01*
X64646770Y-31706752D01*
X64551532Y-31801990D01*
X64456294Y-31849609D01*
X65884865Y-31897228D02*
X65884865Y-32563894D01*
X65456294Y-31897228D02*
X65456294Y-32421037D01*
X65503913Y-32516275D01*
X65599151Y-32563894D01*
X65742008Y-32563894D01*
X65837246Y-32516275D01*
X65884865Y-32468656D01*
X66218198Y-31897228D02*
X66599151Y-31897228D01*
X66361056Y-32563894D02*
X66361056Y-31706752D01*
X66408675Y-31611514D01*
X66503913Y-31563894D01*
X66599151Y-31563894D01*
%TO.C,J5*%
X86287741Y-54316380D02*
X86287741Y-55030666D01*
X86240122Y-55173523D01*
X86144884Y-55268761D01*
X86002027Y-55316380D01*
X85906789Y-55316380D01*
X87240122Y-54316380D02*
X86763932Y-54316380D01*
X86716313Y-54792571D01*
X86763932Y-54744952D01*
X86859170Y-54697333D01*
X87097265Y-54697333D01*
X87192503Y-54744952D01*
X87240122Y-54792571D01*
X87287741Y-54887809D01*
X87287741Y-55125904D01*
X87240122Y-55221142D01*
X87192503Y-55268761D01*
X87097265Y-55316380D01*
X86859170Y-55316380D01*
X86763932Y-55268761D01*
X86716313Y-55221142D01*
%TO.C,C5*%
X121079186Y-31357240D02*
X121174424Y-31357240D01*
X121269662Y-31404860D01*
X121317281Y-31452479D01*
X121364900Y-31547717D01*
X121412519Y-31738193D01*
X121412519Y-31976288D01*
X121364900Y-32166764D01*
X121317281Y-32262002D01*
X121269662Y-32309621D01*
X121174424Y-32357240D01*
X121079186Y-32357240D01*
X120983947Y-32309621D01*
X120936328Y-32262002D01*
X120888709Y-32166764D01*
X120841090Y-31976288D01*
X120841090Y-31738193D01*
X120888709Y-31547717D01*
X120936328Y-31452479D01*
X120983947Y-31404860D01*
X121079186Y-31357240D01*
X121841090Y-32262002D02*
X121888709Y-32309621D01*
X121841090Y-32357240D01*
X121793471Y-32309621D01*
X121841090Y-32262002D01*
X121841090Y-32357240D01*
X122841090Y-32357240D02*
X122269662Y-32357240D01*
X122555376Y-32357240D02*
X122555376Y-31357240D01*
X122460138Y-31500098D01*
X122364900Y-31595336D01*
X122269662Y-31642955D01*
X123698233Y-31690574D02*
X123698233Y-32357240D01*
X123269662Y-31690574D02*
X123269662Y-32214383D01*
X123317281Y-32309621D01*
X123412519Y-32357240D01*
X123555376Y-32357240D01*
X123650614Y-32309621D01*
X123698233Y-32262002D01*
X124031566Y-31690574D02*
X124412519Y-31690574D01*
X124174424Y-32357240D02*
X124174424Y-31500098D01*
X124222043Y-31404860D01*
X124317281Y-31357240D01*
X124412519Y-31357240D01*
%TO.C,U5*%
X130336855Y-31774209D02*
X130336855Y-32583733D01*
X130384474Y-32678971D01*
X130432093Y-32726590D01*
X130527331Y-32774209D01*
X130717807Y-32774209D01*
X130813045Y-32726590D01*
X130860664Y-32678971D01*
X130908283Y-32583733D01*
X130908283Y-31774209D01*
X131860664Y-31774209D02*
X131384474Y-31774209D01*
X131336855Y-32250400D01*
X131384474Y-32202781D01*
X131479712Y-32155162D01*
X131717807Y-32155162D01*
X131813045Y-32202781D01*
X131860664Y-32250400D01*
X131908283Y-32345638D01*
X131908283Y-32583733D01*
X131860664Y-32678971D01*
X131813045Y-32726590D01*
X131717807Y-32774209D01*
X131479712Y-32774209D01*
X131384474Y-32726590D01*
X131336855Y-32678971D01*
%TO.C,C6*%
X91436190Y-37838740D02*
X91531428Y-37838740D01*
X91626666Y-37886360D01*
X91674285Y-37933979D01*
X91721904Y-38029217D01*
X91769523Y-38219693D01*
X91769523Y-38457788D01*
X91721904Y-38648264D01*
X91674285Y-38743502D01*
X91626666Y-38791121D01*
X91531428Y-38838740D01*
X91436190Y-38838740D01*
X91340951Y-38791121D01*
X91293332Y-38743502D01*
X91245713Y-38648264D01*
X91198094Y-38457788D01*
X91198094Y-38219693D01*
X91245713Y-38029217D01*
X91293332Y-37933979D01*
X91340951Y-37886360D01*
X91436190Y-37838740D01*
X92198094Y-38743502D02*
X92245713Y-38791121D01*
X92198094Y-38838740D01*
X92150475Y-38791121D01*
X92198094Y-38743502D01*
X92198094Y-38838740D01*
X93198094Y-38838740D02*
X92626666Y-38838740D01*
X92912380Y-38838740D02*
X92912380Y-37838740D01*
X92817142Y-37981598D01*
X92721904Y-38076836D01*
X92626666Y-38124455D01*
X94055237Y-38172074D02*
X94055237Y-38838740D01*
X93626666Y-38172074D02*
X93626666Y-38695883D01*
X93674285Y-38791121D01*
X93769523Y-38838740D01*
X93912380Y-38838740D01*
X94007618Y-38791121D01*
X94055237Y-38743502D01*
X94388570Y-38172074D02*
X94769523Y-38172074D01*
X94531428Y-38838740D02*
X94531428Y-37981598D01*
X94579047Y-37886360D01*
X94674285Y-37838740D01*
X94769523Y-37838740D01*
%TO.C,R4*%
X97031800Y-63031787D02*
X96698467Y-62555597D01*
X96460371Y-63031787D02*
X96460371Y-62031787D01*
X96841324Y-62031787D01*
X96936562Y-62079407D01*
X96984181Y-62127026D01*
X97031800Y-62222264D01*
X97031800Y-62365121D01*
X96984181Y-62460359D01*
X96936562Y-62507978D01*
X96841324Y-62555597D01*
X96460371Y-62555597D01*
X97888943Y-62365121D02*
X97888943Y-63031787D01*
X97650847Y-61984168D02*
X97412752Y-62698454D01*
X98031800Y-62698454D01*
X96571785Y-65571425D02*
X96000357Y-65571425D01*
X96286071Y-65571425D02*
X96286071Y-64571425D01*
X96190833Y-64714283D01*
X96095595Y-64809521D01*
X96000357Y-64857140D01*
X97190833Y-64571425D02*
X97286071Y-64571425D01*
X97381309Y-64619045D01*
X97428928Y-64666664D01*
X97476547Y-64761902D01*
X97524166Y-64952378D01*
X97524166Y-65190473D01*
X97476547Y-65380949D01*
X97428928Y-65476187D01*
X97381309Y-65523806D01*
X97286071Y-65571425D01*
X97190833Y-65571425D01*
X97095595Y-65523806D01*
X97047976Y-65476187D01*
X97000357Y-65380949D01*
X96952738Y-65190473D01*
X96952738Y-64952378D01*
X97000357Y-64761902D01*
X97047976Y-64666664D01*
X97095595Y-64619045D01*
X97190833Y-64571425D01*
X97952738Y-65571425D02*
X97952738Y-64571425D01*
X98524166Y-65571425D02*
X98095595Y-64999997D01*
X98524166Y-64571425D02*
X97952738Y-65142854D01*
%TO.C,J2*%
X90527172Y-39286380D02*
X90527172Y-40000666D01*
X90479553Y-40143523D01*
X90384315Y-40238761D01*
X90241458Y-40286380D01*
X90146220Y-40286380D01*
X90955744Y-39381619D02*
X91003363Y-39334000D01*
X91098601Y-39286380D01*
X91336696Y-39286380D01*
X91431934Y-39334000D01*
X91479553Y-39381619D01*
X91527172Y-39476857D01*
X91527172Y-39572095D01*
X91479553Y-39714952D01*
X90908125Y-40286380D01*
X91527172Y-40286380D01*
%TO.C,U3*%
X115427753Y-49631036D02*
X115427753Y-50440560D01*
X115475372Y-50535798D01*
X115522991Y-50583417D01*
X115618229Y-50631036D01*
X115808705Y-50631036D01*
X115903943Y-50583417D01*
X115951562Y-50535798D01*
X115999181Y-50440560D01*
X115999181Y-49631036D01*
X116380134Y-49631036D02*
X116999181Y-49631036D01*
X116665848Y-50011989D01*
X116808705Y-50011989D01*
X116903943Y-50059608D01*
X116951562Y-50107227D01*
X116999181Y-50202465D01*
X116999181Y-50440560D01*
X116951562Y-50535798D01*
X116903943Y-50583417D01*
X116808705Y-50631036D01*
X116522991Y-50631036D01*
X116427753Y-50583417D01*
X116380134Y-50535798D01*
%TO.C,J3*%
X122355740Y-34348989D02*
X122355740Y-35063275D01*
X122308121Y-35206132D01*
X122212883Y-35301370D01*
X122070026Y-35348989D01*
X121974788Y-35348989D01*
X122736693Y-34348989D02*
X123355740Y-34348989D01*
X123022407Y-34729942D01*
X123165264Y-34729942D01*
X123260502Y-34777561D01*
X123308121Y-34825180D01*
X123355740Y-34920418D01*
X123355740Y-35158513D01*
X123308121Y-35253751D01*
X123260502Y-35301370D01*
X123165264Y-35348989D01*
X122879550Y-35348989D01*
X122784312Y-35301370D01*
X122736693Y-35253751D01*
%TO.C,J4*%
X122662514Y-50462380D02*
X122662514Y-51176666D01*
X122614895Y-51319523D01*
X122519657Y-51414761D01*
X122376800Y-51462380D01*
X122281562Y-51462380D01*
X123567276Y-50795714D02*
X123567276Y-51462380D01*
X123329181Y-50414761D02*
X123091086Y-51129047D01*
X123710133Y-51129047D01*
%TO.C,J7*%
X56054666Y-49954380D02*
X56054666Y-50668666D01*
X56007047Y-50811523D01*
X55911809Y-50906761D01*
X55768952Y-50954380D01*
X55673714Y-50954380D01*
X56435619Y-49954380D02*
X57102285Y-49954380D01*
X56673714Y-50954380D01*
%TO.C,R10*%
X68127093Y-49738328D02*
X67793760Y-49262138D01*
X67555665Y-49738328D02*
X67555665Y-48738328D01*
X67936617Y-48738328D01*
X68031855Y-48785948D01*
X68079474Y-48833567D01*
X68127093Y-48928805D01*
X68127093Y-49071662D01*
X68079474Y-49166900D01*
X68031855Y-49214519D01*
X67936617Y-49262138D01*
X67555665Y-49262138D01*
X69079474Y-49738328D02*
X68508046Y-49738328D01*
X68793760Y-49738328D02*
X68793760Y-48738328D01*
X68698522Y-48881186D01*
X68603284Y-48976424D01*
X68508046Y-49024043D01*
X69698522Y-48738328D02*
X69793760Y-48738328D01*
X69888998Y-48785948D01*
X69936617Y-48833567D01*
X69984236Y-48928805D01*
X70031855Y-49119281D01*
X70031855Y-49357376D01*
X69984236Y-49547852D01*
X69936617Y-49643090D01*
X69888998Y-49690709D01*
X69793760Y-49738328D01*
X69698522Y-49738328D01*
X69603284Y-49690709D01*
X69555665Y-49643090D01*
X69508046Y-49547852D01*
X69460427Y-49357376D01*
X69460427Y-49119281D01*
X69508046Y-48928805D01*
X69555665Y-48833567D01*
X69603284Y-48785948D01*
X69698522Y-48738328D01*
X68171344Y-47341652D02*
X67599916Y-47341652D01*
X67885630Y-47341652D02*
X67885630Y-46341652D01*
X67790392Y-46484510D01*
X67695154Y-46579748D01*
X67599916Y-46627367D01*
X68790392Y-46341652D02*
X68885630Y-46341652D01*
X68980868Y-46389272D01*
X69028487Y-46436891D01*
X69076106Y-46532129D01*
X69123725Y-46722605D01*
X69123725Y-46960700D01*
X69076106Y-47151176D01*
X69028487Y-47246414D01*
X68980868Y-47294033D01*
X68885630Y-47341652D01*
X68790392Y-47341652D01*
X68695154Y-47294033D01*
X68647535Y-47246414D01*
X68599916Y-47151176D01*
X68552297Y-46960700D01*
X68552297Y-46722605D01*
X68599916Y-46532129D01*
X68647535Y-46436891D01*
X68695154Y-46389272D01*
X68790392Y-46341652D01*
X69552297Y-47341652D02*
X69552297Y-46341652D01*
X70123725Y-47341652D02*
X69695154Y-46770224D01*
X70123725Y-46341652D02*
X69552297Y-46913081D01*
%TO.C,R5*%
X129552038Y-45168013D02*
X129218705Y-44691823D01*
X128980609Y-45168013D02*
X128980609Y-44168013D01*
X129361562Y-44168013D01*
X129456800Y-44215633D01*
X129504419Y-44263252D01*
X129552038Y-44358490D01*
X129552038Y-44501347D01*
X129504419Y-44596585D01*
X129456800Y-44644204D01*
X129361562Y-44691823D01*
X128980609Y-44691823D01*
X130456800Y-44168013D02*
X129980609Y-44168013D01*
X129932990Y-44644204D01*
X129980609Y-44596585D01*
X130075847Y-44548966D01*
X130313943Y-44548966D01*
X130409181Y-44596585D01*
X130456800Y-44644204D01*
X130504419Y-44739442D01*
X130504419Y-44977537D01*
X130456800Y-45072775D01*
X130409181Y-45120394D01*
X130313943Y-45168013D01*
X130075847Y-45168013D01*
X129980609Y-45120394D01*
X129932990Y-45072775D01*
X127908151Y-47513650D02*
X127336723Y-47513650D01*
X127622437Y-47513650D02*
X127622437Y-46513650D01*
X127527199Y-46656508D01*
X127431961Y-46751746D01*
X127336723Y-46799365D01*
X128527199Y-46513650D02*
X128622437Y-46513650D01*
X128717675Y-46561270D01*
X128765294Y-46608889D01*
X128812913Y-46704127D01*
X128860532Y-46894603D01*
X128860532Y-47132698D01*
X128812913Y-47323174D01*
X128765294Y-47418412D01*
X128717675Y-47466031D01*
X128622437Y-47513650D01*
X128527199Y-47513650D01*
X128431961Y-47466031D01*
X128384342Y-47418412D01*
X128336723Y-47323174D01*
X128289104Y-47132698D01*
X128289104Y-46894603D01*
X128336723Y-46704127D01*
X128384342Y-46608889D01*
X128431961Y-46561270D01*
X128527199Y-46513650D01*
X129289104Y-47513650D02*
X129289104Y-46513650D01*
X129860532Y-47513650D02*
X129431961Y-46942222D01*
X129860532Y-46513650D02*
X129289104Y-47085079D01*
%TO.C,R7*%
X145027787Y-45203285D02*
X144694454Y-44727095D01*
X144456358Y-45203285D02*
X144456358Y-44203285D01*
X144837311Y-44203285D01*
X144932549Y-44250905D01*
X144980168Y-44298524D01*
X145027787Y-44393762D01*
X145027787Y-44536619D01*
X144980168Y-44631857D01*
X144932549Y-44679476D01*
X144837311Y-44727095D01*
X144456358Y-44727095D01*
X145361120Y-44203285D02*
X146027787Y-44203285D01*
X145599215Y-45203285D01*
X144468705Y-47624103D02*
X143897277Y-47624103D01*
X144182991Y-47624103D02*
X144182991Y-46624103D01*
X144087753Y-46766961D01*
X143992515Y-46862199D01*
X143897277Y-46909818D01*
X145087753Y-46624103D02*
X145182991Y-46624103D01*
X145278229Y-46671723D01*
X145325848Y-46719342D01*
X145373467Y-46814580D01*
X145421086Y-47005056D01*
X145421086Y-47243151D01*
X145373467Y-47433627D01*
X145325848Y-47528865D01*
X145278229Y-47576484D01*
X145182991Y-47624103D01*
X145087753Y-47624103D01*
X144992515Y-47576484D01*
X144944896Y-47528865D01*
X144897277Y-47433627D01*
X144849658Y-47243151D01*
X144849658Y-47005056D01*
X144897277Y-46814580D01*
X144944896Y-46719342D01*
X144992515Y-46671723D01*
X145087753Y-46624103D01*
X145849658Y-47624103D02*
X145849658Y-46624103D01*
X146421086Y-47624103D02*
X145992515Y-47052675D01*
X146421086Y-46624103D02*
X145849658Y-47195532D01*
%TO.C,R8*%
X110865060Y-63150656D02*
X110531727Y-62674466D01*
X110293631Y-63150656D02*
X110293631Y-62150656D01*
X110674584Y-62150656D01*
X110769822Y-62198276D01*
X110817441Y-62245895D01*
X110865060Y-62341133D01*
X110865060Y-62483990D01*
X110817441Y-62579228D01*
X110769822Y-62626847D01*
X110674584Y-62674466D01*
X110293631Y-62674466D01*
X111436488Y-62579228D02*
X111341250Y-62531609D01*
X111293631Y-62483990D01*
X111246012Y-62388752D01*
X111246012Y-62341133D01*
X111293631Y-62245895D01*
X111341250Y-62198276D01*
X111436488Y-62150656D01*
X111626965Y-62150656D01*
X111722203Y-62198276D01*
X111769822Y-62245895D01*
X111817441Y-62341133D01*
X111817441Y-62388752D01*
X111769822Y-62483990D01*
X111722203Y-62531609D01*
X111626965Y-62579228D01*
X111436488Y-62579228D01*
X111341250Y-62626847D01*
X111293631Y-62674466D01*
X111246012Y-62769704D01*
X111246012Y-62960180D01*
X111293631Y-63055418D01*
X111341250Y-63103037D01*
X111436488Y-63150656D01*
X111626965Y-63150656D01*
X111722203Y-63103037D01*
X111769822Y-63055418D01*
X111817441Y-62960180D01*
X111817441Y-62769704D01*
X111769822Y-62674466D01*
X111722203Y-62626847D01*
X111626965Y-62579228D01*
X110460827Y-65729975D02*
X109889399Y-65729975D01*
X110175113Y-65729975D02*
X110175113Y-64729975D01*
X110079875Y-64872833D01*
X109984637Y-64968071D01*
X109889399Y-65015690D01*
X111079875Y-64729975D02*
X111175113Y-64729975D01*
X111270351Y-64777595D01*
X111317970Y-64825214D01*
X111365589Y-64920452D01*
X111413208Y-65110928D01*
X111413208Y-65349023D01*
X111365589Y-65539499D01*
X111317970Y-65634737D01*
X111270351Y-65682356D01*
X111175113Y-65729975D01*
X111079875Y-65729975D01*
X110984637Y-65682356D01*
X110937018Y-65634737D01*
X110889399Y-65539499D01*
X110841780Y-65349023D01*
X110841780Y-65110928D01*
X110889399Y-64920452D01*
X110937018Y-64825214D01*
X110984637Y-64777595D01*
X111079875Y-64729975D01*
X111841780Y-65729975D02*
X111841780Y-64729975D01*
X112413208Y-65729975D02*
X111984637Y-65158547D01*
X112413208Y-64729975D02*
X111841780Y-65301404D01*
%TO.C,R2*%
X69674694Y-63031743D02*
X69341361Y-62555553D01*
X69103265Y-63031743D02*
X69103265Y-62031743D01*
X69484218Y-62031743D01*
X69579456Y-62079363D01*
X69627075Y-62126982D01*
X69674694Y-62222220D01*
X69674694Y-62365077D01*
X69627075Y-62460315D01*
X69579456Y-62507934D01*
X69484218Y-62555553D01*
X69103265Y-62555553D01*
X70055646Y-62126982D02*
X70103265Y-62079363D01*
X70198503Y-62031743D01*
X70436599Y-62031743D01*
X70531837Y-62079363D01*
X70579456Y-62126982D01*
X70627075Y-62222220D01*
X70627075Y-62317458D01*
X70579456Y-62460315D01*
X70008027Y-63031743D01*
X70627075Y-63031743D01*
X69325617Y-65571381D02*
X68754189Y-65571381D01*
X69039903Y-65571381D02*
X69039903Y-64571381D01*
X68944665Y-64714239D01*
X68849427Y-64809477D01*
X68754189Y-64857096D01*
X69944665Y-64571381D02*
X70039903Y-64571381D01*
X70135141Y-64619001D01*
X70182760Y-64666620D01*
X70230379Y-64761858D01*
X70277998Y-64952334D01*
X70277998Y-65190429D01*
X70230379Y-65380905D01*
X70182760Y-65476143D01*
X70135141Y-65523762D01*
X70039903Y-65571381D01*
X69944665Y-65571381D01*
X69849427Y-65523762D01*
X69801808Y-65476143D01*
X69754189Y-65380905D01*
X69706570Y-65190429D01*
X69706570Y-64952334D01*
X69754189Y-64761858D01*
X69801808Y-64666620D01*
X69849427Y-64619001D01*
X69944665Y-64571381D01*
X70706570Y-65571381D02*
X70706570Y-64571381D01*
X71277998Y-65571381D02*
X70849427Y-64999953D01*
X71277998Y-64571381D02*
X70706570Y-65142810D01*
%TO.C,U6*%
X103285111Y-38024099D02*
X103285111Y-38833623D01*
X103332730Y-38928861D01*
X103380349Y-38976480D01*
X103475587Y-39024099D01*
X103666063Y-39024099D01*
X103761301Y-38976480D01*
X103808920Y-38928861D01*
X103856539Y-38833623D01*
X103856539Y-38024099D01*
X104761301Y-38024099D02*
X104570825Y-38024099D01*
X104475587Y-38071719D01*
X104427968Y-38119338D01*
X104332730Y-38262195D01*
X104285111Y-38452671D01*
X104285111Y-38833623D01*
X104332730Y-38928861D01*
X104380349Y-38976480D01*
X104475587Y-39024099D01*
X104666063Y-39024099D01*
X104761301Y-38976480D01*
X104808920Y-38928861D01*
X104856539Y-38833623D01*
X104856539Y-38595528D01*
X104808920Y-38500290D01*
X104761301Y-38452671D01*
X104666063Y-38405052D01*
X104475587Y-38405052D01*
X104380349Y-38452671D01*
X104332730Y-38500290D01*
X104285111Y-38595528D01*
%TO.C,R3*%
X129542647Y-63269701D02*
X129209314Y-62793511D01*
X128971218Y-63269701D02*
X128971218Y-62269701D01*
X129352171Y-62269701D01*
X129447409Y-62317321D01*
X129495028Y-62364940D01*
X129542647Y-62460178D01*
X129542647Y-62603035D01*
X129495028Y-62698273D01*
X129447409Y-62745892D01*
X129352171Y-62793511D01*
X128971218Y-62793511D01*
X129875980Y-62269701D02*
X130495028Y-62269701D01*
X130161694Y-62650654D01*
X130304552Y-62650654D01*
X130399790Y-62698273D01*
X130447409Y-62745892D01*
X130495028Y-62841130D01*
X130495028Y-63079225D01*
X130447409Y-63174463D01*
X130399790Y-63222082D01*
X130304552Y-63269701D01*
X130018837Y-63269701D01*
X129923599Y-63222082D01*
X129875980Y-63174463D01*
X128873199Y-66047430D02*
X128301771Y-66047430D01*
X128587485Y-66047430D02*
X128587485Y-65047430D01*
X128492247Y-65190288D01*
X128397009Y-65285526D01*
X128301771Y-65333145D01*
X129492247Y-65047430D02*
X129587485Y-65047430D01*
X129682723Y-65095050D01*
X129730342Y-65142669D01*
X129777961Y-65237907D01*
X129825580Y-65428383D01*
X129825580Y-65666478D01*
X129777961Y-65856954D01*
X129730342Y-65952192D01*
X129682723Y-65999811D01*
X129587485Y-66047430D01*
X129492247Y-66047430D01*
X129397009Y-65999811D01*
X129349390Y-65952192D01*
X129301771Y-65856954D01*
X129254152Y-65666478D01*
X129254152Y-65428383D01*
X129301771Y-65237907D01*
X129349390Y-65142669D01*
X129397009Y-65095050D01*
X129492247Y-65047430D01*
X130254152Y-66047430D02*
X130254152Y-65047430D01*
X130825580Y-66047430D02*
X130397009Y-65476002D01*
X130825580Y-65047430D02*
X130254152Y-65618859D01*
%TO.C,U1*%
X74370278Y-48880755D02*
X74370278Y-49690279D01*
X74417897Y-49785517D01*
X74465516Y-49833136D01*
X74560754Y-49880755D01*
X74751230Y-49880755D01*
X74846468Y-49833136D01*
X74894087Y-49785517D01*
X74941706Y-49690279D01*
X74941706Y-48880755D01*
X75941706Y-49880755D02*
X75370278Y-49880755D01*
X75655992Y-49880755D02*
X75655992Y-48880755D01*
X75560754Y-49023613D01*
X75465516Y-49118851D01*
X75370278Y-49166470D01*
%TO.C,R9*%
X78801516Y-45611417D02*
X78468183Y-45135227D01*
X78230087Y-45611417D02*
X78230087Y-44611417D01*
X78611040Y-44611417D01*
X78706278Y-44659037D01*
X78753897Y-44706656D01*
X78801516Y-44801894D01*
X78801516Y-44944751D01*
X78753897Y-45039989D01*
X78706278Y-45087608D01*
X78611040Y-45135227D01*
X78230087Y-45135227D01*
X79277706Y-45611417D02*
X79468183Y-45611417D01*
X79563421Y-45563798D01*
X79611040Y-45516179D01*
X79706278Y-45373322D01*
X79753897Y-45182846D01*
X79753897Y-44801894D01*
X79706278Y-44706656D01*
X79658659Y-44659037D01*
X79563421Y-44611417D01*
X79372944Y-44611417D01*
X79277706Y-44659037D01*
X79230087Y-44706656D01*
X79182468Y-44801894D01*
X79182468Y-45039989D01*
X79230087Y-45135227D01*
X79277706Y-45182846D01*
X79372944Y-45230465D01*
X79563421Y-45230465D01*
X79658659Y-45182846D01*
X79706278Y-45135227D01*
X79753897Y-45039989D01*
X78357070Y-48071690D02*
X77785642Y-48071690D01*
X78071356Y-48071690D02*
X78071356Y-47071690D01*
X77976118Y-47214548D01*
X77880880Y-47309786D01*
X77785642Y-47357405D01*
X78976118Y-47071690D02*
X79071356Y-47071690D01*
X79166594Y-47119310D01*
X79214213Y-47166929D01*
X79261832Y-47262167D01*
X79309451Y-47452643D01*
X79309451Y-47690738D01*
X79261832Y-47881214D01*
X79214213Y-47976452D01*
X79166594Y-48024071D01*
X79071356Y-48071690D01*
X78976118Y-48071690D01*
X78880880Y-48024071D01*
X78833261Y-47976452D01*
X78785642Y-47881214D01*
X78738023Y-47690738D01*
X78738023Y-47452643D01*
X78785642Y-47262167D01*
X78833261Y-47166929D01*
X78880880Y-47119310D01*
X78976118Y-47071690D01*
X79738023Y-48071690D02*
X79738023Y-47071690D01*
X80309451Y-48071690D02*
X79880880Y-47500262D01*
X80309451Y-47071690D02*
X79738023Y-47643119D01*
%TO.C,U2*%
X71936504Y-31793741D02*
X71936504Y-32603265D01*
X71984123Y-32698503D01*
X72031742Y-32746122D01*
X72126980Y-32793741D01*
X72317456Y-32793741D01*
X72412694Y-32746122D01*
X72460313Y-32698503D01*
X72507932Y-32603265D01*
X72507932Y-31793741D01*
X72936504Y-31888980D02*
X72984123Y-31841361D01*
X73079361Y-31793741D01*
X73317456Y-31793741D01*
X73412694Y-31841361D01*
X73460313Y-31888980D01*
X73507932Y-31984218D01*
X73507932Y-32079456D01*
X73460313Y-32222313D01*
X72888885Y-32793741D01*
X73507932Y-32793741D01*
%TO.C,R1*%
X61222462Y-45611417D02*
X60889129Y-45135227D01*
X60651033Y-45611417D02*
X60651033Y-44611417D01*
X61031986Y-44611417D01*
X61127224Y-44659037D01*
X61174843Y-44706656D01*
X61222462Y-44801894D01*
X61222462Y-44944751D01*
X61174843Y-45039989D01*
X61127224Y-45087608D01*
X61031986Y-45135227D01*
X60651033Y-45135227D01*
X62174843Y-45611417D02*
X61603414Y-45611417D01*
X61889129Y-45611417D02*
X61889129Y-44611417D01*
X61793890Y-44754275D01*
X61698652Y-44849513D01*
X61603414Y-44897132D01*
X60585182Y-47952645D02*
X60013754Y-47952645D01*
X60299468Y-47952645D02*
X60299468Y-46952645D01*
X60204230Y-47095503D01*
X60108992Y-47190741D01*
X60013754Y-47238360D01*
X61204230Y-46952645D02*
X61299468Y-46952645D01*
X61394706Y-47000265D01*
X61442325Y-47047884D01*
X61489944Y-47143122D01*
X61537563Y-47333598D01*
X61537563Y-47571693D01*
X61489944Y-47762169D01*
X61442325Y-47857407D01*
X61394706Y-47905026D01*
X61299468Y-47952645D01*
X61204230Y-47952645D01*
X61108992Y-47905026D01*
X61061373Y-47857407D01*
X61013754Y-47762169D01*
X60966135Y-47571693D01*
X60966135Y-47333598D01*
X61013754Y-47143122D01*
X61061373Y-47047884D01*
X61108992Y-47000265D01*
X61204230Y-46952645D01*
X61966135Y-47952645D02*
X61966135Y-46952645D01*
X62537563Y-47952645D02*
X62108992Y-47381217D01*
X62537563Y-46952645D02*
X61966135Y-47524074D01*
%TO.C,R6*%
X145230062Y-63349065D02*
X144896729Y-62872875D01*
X144658633Y-63349065D02*
X144658633Y-62349065D01*
X145039586Y-62349065D01*
X145134824Y-62396685D01*
X145182443Y-62444304D01*
X145230062Y-62539542D01*
X145230062Y-62682399D01*
X145182443Y-62777637D01*
X145134824Y-62825256D01*
X145039586Y-62872875D01*
X144658633Y-62872875D01*
X146087205Y-62349065D02*
X145896729Y-62349065D01*
X145801490Y-62396685D01*
X145753871Y-62444304D01*
X145658633Y-62587161D01*
X145611014Y-62777637D01*
X145611014Y-63158589D01*
X145658633Y-63253827D01*
X145706252Y-63301446D01*
X145801490Y-63349065D01*
X145991967Y-63349065D01*
X146087205Y-63301446D01*
X146134824Y-63253827D01*
X146182443Y-63158589D01*
X146182443Y-62920494D01*
X146134824Y-62825256D01*
X146087205Y-62777637D01*
X145991967Y-62730018D01*
X145801490Y-62730018D01*
X145706252Y-62777637D01*
X145658633Y-62825256D01*
X145611014Y-62920494D01*
X145063389Y-65729975D02*
X144491961Y-65729975D01*
X144777675Y-65729975D02*
X144777675Y-64729975D01*
X144682437Y-64872833D01*
X144587199Y-64968071D01*
X144491961Y-65015690D01*
X145682437Y-64729975D02*
X145777675Y-64729975D01*
X145872913Y-64777595D01*
X145920532Y-64825214D01*
X145968151Y-64920452D01*
X146015770Y-65110928D01*
X146015770Y-65349023D01*
X145968151Y-65539499D01*
X145920532Y-65634737D01*
X145872913Y-65682356D01*
X145777675Y-65729975D01*
X145682437Y-65729975D01*
X145587199Y-65682356D01*
X145539580Y-65634737D01*
X145491961Y-65539499D01*
X145444342Y-65349023D01*
X145444342Y-65110928D01*
X145491961Y-64920452D01*
X145539580Y-64825214D01*
X145587199Y-64777595D01*
X145682437Y-64729975D01*
X146444342Y-65729975D02*
X146444342Y-64729975D01*
X147015770Y-65729975D02*
X146587199Y-65158547D01*
X147015770Y-64729975D02*
X146444342Y-65301404D01*
%TO.C,C4*%
X129974905Y-49589431D02*
X130070143Y-49589431D01*
X130165381Y-49637051D01*
X130213000Y-49684670D01*
X130260619Y-49779908D01*
X130308238Y-49970384D01*
X130308238Y-50208479D01*
X130260619Y-50398955D01*
X130213000Y-50494193D01*
X130165381Y-50541812D01*
X130070143Y-50589431D01*
X129974905Y-50589431D01*
X129879666Y-50541812D01*
X129832047Y-50494193D01*
X129784428Y-50398955D01*
X129736809Y-50208479D01*
X129736809Y-49970384D01*
X129784428Y-49779908D01*
X129832047Y-49684670D01*
X129879666Y-49637051D01*
X129974905Y-49589431D01*
X130736809Y-50494193D02*
X130784428Y-50541812D01*
X130736809Y-50589431D01*
X130689190Y-50541812D01*
X130736809Y-50494193D01*
X130736809Y-50589431D01*
X131736809Y-50589431D02*
X131165381Y-50589431D01*
X131451095Y-50589431D02*
X131451095Y-49589431D01*
X131355857Y-49732289D01*
X131260619Y-49827527D01*
X131165381Y-49875146D01*
X132593952Y-49922765D02*
X132593952Y-50589431D01*
X132165381Y-49922765D02*
X132165381Y-50446574D01*
X132213000Y-50541812D01*
X132308238Y-50589431D01*
X132451095Y-50589431D01*
X132546333Y-50541812D01*
X132593952Y-50494193D01*
X132927285Y-49922765D02*
X133308238Y-49922765D01*
X133070143Y-50589431D02*
X133070143Y-49732289D01*
X133117762Y-49637051D01*
X133213000Y-49589431D01*
X133308238Y-49589431D01*
%TO.C,J8*%
X54944832Y-20754138D02*
X54855546Y-21468424D01*
X54790070Y-21611281D01*
X54682927Y-21706519D01*
X54534117Y-21754138D01*
X54438879Y-21754138D01*
X55510308Y-21182710D02*
X55421022Y-21135091D01*
X55379355Y-21087472D01*
X55343641Y-20992234D01*
X55349593Y-20944615D01*
X55409117Y-20849377D01*
X55462689Y-20801758D01*
X55563879Y-20754138D01*
X55754355Y-20754138D01*
X55843641Y-20801758D01*
X55885308Y-20849377D01*
X55921022Y-20944615D01*
X55915070Y-20992234D01*
X55855546Y-21087472D01*
X55801974Y-21135091D01*
X55700784Y-21182710D01*
X55510308Y-21182710D01*
X55409117Y-21230329D01*
X55355546Y-21277948D01*
X55296022Y-21373186D01*
X55272213Y-21563662D01*
X55307927Y-21658900D01*
X55349593Y-21706519D01*
X55438879Y-21754138D01*
X55629355Y-21754138D01*
X55730546Y-21706519D01*
X55784117Y-21658900D01*
X55843641Y-21563662D01*
X55867451Y-21373186D01*
X55831736Y-21277948D01*
X55790070Y-21230329D01*
X55700784Y-21182710D01*
%TO.C,J6*%
X55546666Y-32174380D02*
X55546666Y-32888666D01*
X55499047Y-33031523D01*
X55403809Y-33126761D01*
X55260952Y-33174380D01*
X55165714Y-33174380D01*
X56451428Y-32174380D02*
X56260952Y-32174380D01*
X56165714Y-32222000D01*
X56118095Y-32269619D01*
X56022857Y-32412476D01*
X55975238Y-32602952D01*
X55975238Y-32983904D01*
X56022857Y-33079142D01*
X56070476Y-33126761D01*
X56165714Y-33174380D01*
X56356190Y-33174380D01*
X56451428Y-33126761D01*
X56499047Y-33079142D01*
X56546666Y-32983904D01*
X56546666Y-32745809D01*
X56499047Y-32650571D01*
X56451428Y-32602952D01*
X56356190Y-32555333D01*
X56165714Y-32555333D01*
X56070476Y-32602952D01*
X56022857Y-32650571D01*
X55975238Y-32745809D01*
%TO.C,U4*%
X137539109Y-49690559D02*
X137539109Y-50500083D01*
X137586728Y-50595321D01*
X137634347Y-50642940D01*
X137729585Y-50690559D01*
X137920061Y-50690559D01*
X138015299Y-50642940D01*
X138062918Y-50595321D01*
X138110537Y-50500083D01*
X138110537Y-49690559D01*
X139015299Y-50023893D02*
X139015299Y-50690559D01*
X138777204Y-49642940D02*
X138539109Y-50357226D01*
X139158156Y-50357226D01*
D15*
%TO.C,C1*%
X60017659Y-48662291D02*
X61275659Y-48662291D01*
X60017659Y-50502291D02*
X61275659Y-50502291D01*
%TO.C,C3*%
X89430103Y-49210479D02*
X88172103Y-49210479D01*
X89430103Y-51050479D02*
X88172103Y-51050479D01*
%TO.C,C2*%
X59903166Y-31183329D02*
X61161166Y-31183329D01*
X59903166Y-33023329D02*
X61161166Y-33023329D01*
%TO.C,J5*%
X88078000Y-55626000D02*
X90738000Y-55626000D01*
X88078000Y-54356000D02*
X88078000Y-53026000D01*
X88078000Y-53026000D02*
X89408000Y-53026000D01*
X88078000Y-60766000D02*
X90738000Y-60766000D01*
X88078000Y-55626000D02*
X88078000Y-60766000D01*
X90738000Y-55626000D02*
X90738000Y-60766000D01*
%TO.C,J1*%
X78740000Y-26077500D02*
X127060000Y-26077500D01*
X127060000Y-26077500D02*
X127060000Y-20877500D01*
X76140000Y-23477500D02*
X76140000Y-20877500D01*
X78740000Y-26077500D02*
X78740000Y-23477500D01*
X76140000Y-20877500D02*
X127060000Y-20877500D01*
X76140000Y-26077500D02*
X76140000Y-24747500D01*
X77470000Y-26077500D02*
X76140000Y-26077500D01*
X78740000Y-23477500D02*
X76140000Y-23477500D01*
%TO.C,C5*%
X126446897Y-32917953D02*
X127704897Y-32917953D01*
X126446897Y-31077953D02*
X127704897Y-31077953D01*
%TO.C,U5*%
X125010094Y-39181078D02*
X125010094Y-40831078D01*
X125010094Y-40831078D02*
X150530094Y-40831078D01*
X150530094Y-35531078D02*
X125010094Y-35531078D01*
X150530094Y-40831078D02*
X150530094Y-35531078D01*
X125010094Y-35531078D02*
X125010094Y-37181078D01*
X125010094Y-39181078D02*
G75*
G03*
X125010094Y-37181078I0J1000000D01*
G01*
%TO.C,C6*%
X97855309Y-37970789D02*
X96597309Y-37970789D01*
X97855309Y-39810789D02*
X96597309Y-39810789D01*
%TO.C,R4*%
X100468467Y-63968010D02*
X93928467Y-63968010D01*
X100468467Y-63638010D02*
X100468467Y-63968010D01*
X100468467Y-61558010D02*
X100468467Y-61228010D01*
X93928467Y-63968010D02*
X93928467Y-63638010D01*
X100468467Y-61228010D02*
X93928467Y-61228010D01*
X93928467Y-61228010D02*
X93928467Y-61558010D01*
%TO.C,J2*%
X89530506Y-43434000D02*
X92190506Y-43434000D01*
X89530506Y-48574000D02*
X92190506Y-48574000D01*
X89530506Y-40834000D02*
X90860506Y-40834000D01*
X89530506Y-42164000D02*
X89530506Y-40834000D01*
X92190506Y-43434000D02*
X92190506Y-48574000D01*
X89530506Y-43434000D02*
X89530506Y-48574000D01*
%TO.C,U3*%
X117458761Y-58656810D02*
X117458761Y-53356810D01*
X91938761Y-57006810D02*
X91938761Y-58656810D01*
X91938761Y-58656810D02*
X117458761Y-58656810D01*
X117458761Y-53356810D02*
X91938761Y-53356810D01*
X91938761Y-53356810D02*
X91938761Y-55006810D01*
X91938761Y-57006810D02*
G75*
G03*
X91938761Y-55006810I0J1000000D01*
G01*
%TO.C,J3*%
X121359074Y-37226609D02*
X121359074Y-35896609D01*
X121359074Y-38496609D02*
X124019074Y-38496609D01*
X121359074Y-38496609D02*
X121359074Y-43636609D01*
X121359074Y-43636609D02*
X124019074Y-43636609D01*
X121359074Y-35896609D02*
X122689074Y-35896609D01*
X124019074Y-38496609D02*
X124019074Y-43636609D01*
%TO.C,J4*%
X121665848Y-54610000D02*
X121665848Y-59750000D01*
X124325848Y-54610000D02*
X124325848Y-59750000D01*
X121665848Y-53340000D02*
X121665848Y-52010000D01*
X121665848Y-59750000D02*
X124325848Y-59750000D01*
X121665848Y-52010000D02*
X122995848Y-52010000D01*
X121665848Y-54610000D02*
X124325848Y-54610000D01*
%TO.C,J7*%
X55058000Y-51502000D02*
X56388000Y-51502000D01*
X55058000Y-54102000D02*
X57718000Y-54102000D01*
X55058000Y-52832000D02*
X55058000Y-51502000D01*
X55058000Y-54102000D02*
X55058000Y-59242000D01*
X55058000Y-59242000D02*
X57718000Y-59242000D01*
X57718000Y-54102000D02*
X57718000Y-59242000D01*
%TO.C,R10*%
X72131821Y-48219272D02*
X72131821Y-47889272D01*
X72131821Y-50299272D02*
X72131821Y-50629272D01*
X65591821Y-50629272D02*
X65591821Y-50299272D01*
X72131821Y-50629272D02*
X65591821Y-50629272D01*
X72131821Y-47889272D02*
X65591821Y-47889272D01*
X65591821Y-47889272D02*
X65591821Y-48219272D01*
%TO.C,R5*%
X132988705Y-45829838D02*
X132988705Y-46159838D01*
X126448705Y-46159838D02*
X126448705Y-45829838D01*
X126448705Y-43419838D02*
X126448705Y-43749838D01*
X132988705Y-46159838D02*
X126448705Y-46159838D01*
X132988705Y-43419838D02*
X126448705Y-43419838D01*
X132988705Y-43749838D02*
X132988705Y-43419838D01*
%TO.C,R7*%
X141889182Y-45841723D02*
X141889182Y-46171723D01*
X148429182Y-46171723D02*
X148429182Y-45841723D01*
X141889182Y-43761723D02*
X141889182Y-43431723D01*
X141889182Y-43431723D02*
X148429182Y-43431723D01*
X148429182Y-43431723D02*
X148429182Y-43761723D01*
X141889182Y-46171723D02*
X148429182Y-46171723D01*
%TO.C,R8*%
X107761727Y-61407861D02*
X107761727Y-61737861D01*
X114301727Y-64147861D02*
X107761727Y-64147861D01*
X107761727Y-64147861D02*
X107761727Y-63817861D01*
X114301727Y-61407861D02*
X107761727Y-61407861D01*
X114301727Y-61737861D02*
X114301727Y-61407861D01*
X114301727Y-63817861D02*
X114301727Y-64147861D01*
%TO.C,R2*%
X73286094Y-63893366D02*
X66746094Y-63893366D01*
X73286094Y-61483366D02*
X73286094Y-61153366D01*
X73286094Y-61153366D02*
X66746094Y-61153366D01*
X73286094Y-63563366D02*
X73286094Y-63893366D01*
X66746094Y-63893366D02*
X66746094Y-63563366D01*
X66746094Y-61153366D02*
X66746094Y-61483366D01*
%TO.C,U6*%
X94405371Y-47760285D02*
X112305371Y-47760285D01*
X112305371Y-47760285D02*
X112305371Y-42460285D01*
X94405371Y-46110285D02*
X94405371Y-47760285D01*
X94405371Y-42460285D02*
X94405371Y-44110285D01*
X112305371Y-42460285D02*
X94405371Y-42460285D01*
X94405371Y-46110285D02*
G75*
G03*
X94405371Y-44110285I0J1000000D01*
G01*
%TO.C,R3*%
X132979314Y-61750942D02*
X132979314Y-61420942D01*
X132979314Y-63830942D02*
X132979314Y-64160942D01*
X132979314Y-64160942D02*
X126439314Y-64160942D01*
X132979314Y-61420942D02*
X126439314Y-61420942D01*
X126439314Y-61420942D02*
X126439314Y-61750942D01*
X126439314Y-64160942D02*
X126439314Y-63830942D01*
%TO.C,U1*%
X84028625Y-53220000D02*
X58508625Y-53220000D01*
X84028625Y-58520000D02*
X84028625Y-53220000D01*
X58508625Y-58520000D02*
X84028625Y-58520000D01*
X58508625Y-53220000D02*
X58508625Y-54870000D01*
X58508625Y-56870000D02*
X58508625Y-58520000D01*
X58508625Y-56870000D02*
G75*
G03*
X58508625Y-54870000I0J1000000D01*
G01*
%TO.C,R9*%
X82198457Y-46039999D02*
X82198457Y-46369999D01*
X82198457Y-43629999D02*
X75658457Y-43629999D01*
X82198457Y-43959999D02*
X82198457Y-43629999D01*
X75658457Y-43629999D02*
X75658457Y-43959999D01*
X82198457Y-46369999D02*
X75658457Y-46369999D01*
X75658457Y-46369999D02*
X75658457Y-46039999D01*
%TO.C,U2*%
X83941269Y-35630750D02*
X58421269Y-35630750D01*
X58421269Y-39280750D02*
X58421269Y-40930750D01*
X58421269Y-40930750D02*
X83941269Y-40930750D01*
X83941269Y-40930750D02*
X83941269Y-35630750D01*
X58421269Y-35630750D02*
X58421269Y-37280750D01*
X58421269Y-39280750D02*
G75*
G03*
X58421269Y-37280750I0J1000000D01*
G01*
%TO.C,R1*%
X58198000Y-43842000D02*
X58198000Y-44172000D01*
X64738000Y-46582000D02*
X58198000Y-46582000D01*
X64738000Y-44172000D02*
X64738000Y-43842000D01*
X64738000Y-46252000D02*
X64738000Y-46582000D01*
X58198000Y-46582000D02*
X58198000Y-46252000D01*
X64738000Y-43842000D02*
X58198000Y-43842000D01*
%TO.C,R6*%
X142007772Y-61368091D02*
X142007772Y-61698091D01*
X142007772Y-64108091D02*
X142007772Y-63778091D01*
X148547772Y-63778091D02*
X148547772Y-64108091D01*
X148547772Y-61698091D02*
X148547772Y-61368091D01*
X148547772Y-64108091D02*
X142007772Y-64108091D01*
X148547772Y-61368091D02*
X142007772Y-61368091D01*
%TO.C,C4*%
X126465258Y-48884272D02*
X127723258Y-48884272D01*
X126465258Y-50724272D02*
X127723258Y-50724272D01*
%TO.C,G\u002A\u002A\u002A*%
G36*
X100731116Y-32631586D02*
G01*
X100727842Y-32585374D01*
X100725741Y-32532937D01*
X100724814Y-32476993D01*
X100725060Y-32420260D01*
X100726480Y-32365457D01*
X100729074Y-32315302D01*
X100732840Y-32272514D01*
X100735564Y-32252136D01*
X100762540Y-32116168D01*
X100799588Y-31986167D01*
X100846695Y-31862158D01*
X100903847Y-31744169D01*
X100971032Y-31632226D01*
X101048235Y-31526355D01*
X101135445Y-31426583D01*
X101161609Y-31399789D01*
X101259634Y-31309835D01*
X101363818Y-31229848D01*
X101474114Y-31159852D01*
X101590473Y-31099870D01*
X101712846Y-31049927D01*
X101841186Y-31010047D01*
X101975445Y-30980254D01*
X102013956Y-30973744D01*
X102051789Y-30969228D01*
X102098562Y-30965925D01*
X102151556Y-30963835D01*
X102208053Y-30962956D01*
X102265336Y-30963286D01*
X102320685Y-30964823D01*
X102371382Y-30967565D01*
X102414710Y-30971511D01*
X102433297Y-30974017D01*
X102567979Y-31000574D01*
X102697035Y-31037392D01*
X102820414Y-31084445D01*
X102938064Y-31141707D01*
X103049931Y-31209152D01*
X103155964Y-31286754D01*
X103256110Y-31374486D01*
X103282518Y-31400291D01*
X103372848Y-31498687D01*
X103453173Y-31603157D01*
X103523415Y-31713544D01*
X103583498Y-31829692D01*
X103633346Y-31951447D01*
X103672881Y-32078651D01*
X103702027Y-32211149D01*
X103711802Y-32272954D01*
X103714847Y-32302943D01*
X103717124Y-32342010D01*
X103718634Y-32387534D01*
X103719376Y-32436899D01*
X103719350Y-32487485D01*
X103718556Y-32536674D01*
X103716995Y-32581845D01*
X103714666Y-32620382D01*
X103711802Y-32648035D01*
X103687396Y-32782807D01*
X103652545Y-32912420D01*
X103607338Y-33036694D01*
X103551861Y-33155454D01*
X103486201Y-33268521D01*
X103410446Y-33375719D01*
X103324683Y-33476870D01*
X103282518Y-33520698D01*
X103184399Y-33610656D01*
X103079736Y-33691010D01*
X102969055Y-33761498D01*
X102852880Y-33821855D01*
X102731739Y-33871818D01*
X102606155Y-33911123D01*
X102476656Y-33939508D01*
X102433297Y-33946412D01*
X102408772Y-33949206D01*
X102376296Y-33951811D01*
X102338152Y-33954152D01*
X102296618Y-33956149D01*
X102253977Y-33957728D01*
X102212508Y-33958810D01*
X102174493Y-33959320D01*
X102142212Y-33959179D01*
X102117946Y-33958311D01*
X102108032Y-33957389D01*
X102094450Y-33955655D01*
X102072920Y-33953059D01*
X102047145Y-33950046D01*
X102034774Y-33948628D01*
X101911699Y-33928800D01*
X101790065Y-33897713D01*
X101670790Y-33855818D01*
X101554795Y-33803565D01*
X101442997Y-33741404D01*
X101336316Y-33669787D01*
X101235670Y-33589163D01*
X101162612Y-33520978D01*
X101072416Y-33423113D01*
X100992413Y-33319607D01*
X100922541Y-33210334D01*
X100862737Y-33095167D01*
X100812937Y-32973980D01*
X100773078Y-32846648D01*
X100743096Y-32713042D01*
X100741489Y-32703615D01*
X101522068Y-32703615D01*
X101529186Y-32714665D01*
X101546791Y-32730570D01*
X101552573Y-32735209D01*
X101580713Y-32762116D01*
X101611010Y-32799889D01*
X101643052Y-32847957D01*
X101676430Y-32905751D01*
X101680079Y-32912516D01*
X101714361Y-32967981D01*
X101752320Y-33012592D01*
X101794821Y-33046875D01*
X101842730Y-33071353D01*
X101896910Y-33086552D01*
X101958228Y-33092998D01*
X101977921Y-33093303D01*
X102004824Y-33092687D01*
X102029859Y-33091164D01*
X102048859Y-33089020D01*
X102053462Y-33088141D01*
X102068894Y-33085786D01*
X102076534Y-33088410D01*
X102078189Y-33091221D01*
X102079122Y-33099475D01*
X102079798Y-33117405D01*
X102080186Y-33142969D01*
X102080251Y-33174122D01*
X102080014Y-33204808D01*
X102078729Y-33310293D01*
X102302898Y-33310290D01*
X102527068Y-33310287D01*
X102527068Y-33092824D01*
X102526979Y-33030628D01*
X102526619Y-32978839D01*
X102525845Y-32936147D01*
X102524514Y-32901237D01*
X102522484Y-32872798D01*
X102519613Y-32849517D01*
X102515757Y-32830081D01*
X102510774Y-32813178D01*
X102504523Y-32797496D01*
X102496859Y-32781722D01*
X102492367Y-32773229D01*
X102476160Y-32743117D01*
X102520296Y-32735997D01*
X102579156Y-32722945D01*
X102638878Y-32703234D01*
X102695773Y-32678351D01*
X102746152Y-32649783D01*
X102762827Y-32638265D01*
X102806716Y-32599510D01*
X102845892Y-32552093D01*
X102878677Y-32498672D01*
X102903394Y-32441906D01*
X102916447Y-32394809D01*
X102920859Y-32364174D01*
X102923816Y-32324971D01*
X102925283Y-32280269D01*
X102925223Y-32233138D01*
X102923603Y-32186644D01*
X102920385Y-32143856D01*
X102919458Y-32135229D01*
X102910096Y-32074049D01*
X102896836Y-32022479D01*
X102879071Y-31978880D01*
X102856192Y-31941612D01*
X102840663Y-31922611D01*
X102814873Y-31893926D01*
X102826113Y-31857809D01*
X102839358Y-31796409D01*
X102841082Y-31734031D01*
X102831278Y-31670246D01*
X102822131Y-31637942D01*
X102816242Y-31621291D01*
X102810943Y-31613388D01*
X102803500Y-31611741D01*
X102794889Y-31613107D01*
X102758832Y-31624987D01*
X102720427Y-31645830D01*
X102682088Y-31673892D01*
X102646230Y-31707426D01*
X102617894Y-31741087D01*
X102590473Y-31778136D01*
X102557305Y-31761761D01*
X102531748Y-31750572D01*
X102504532Y-31741841D01*
X102473885Y-31735318D01*
X102438036Y-31730754D01*
X102395214Y-31727902D01*
X102343647Y-31726513D01*
X102304363Y-31726277D01*
X102246202Y-31726841D01*
X102197936Y-31728700D01*
X102157782Y-31732105D01*
X102123962Y-31737308D01*
X102094694Y-31744558D01*
X102068198Y-31754107D01*
X102050979Y-31761980D01*
X102017369Y-31778574D01*
X102001851Y-31755124D01*
X101976206Y-31722108D01*
X101944569Y-31690256D01*
X101909420Y-31661446D01*
X101873241Y-31637553D01*
X101838512Y-31620454D01*
X101813904Y-31613016D01*
X101795226Y-31609385D01*
X101781855Y-31652533D01*
X101772472Y-31695256D01*
X101768360Y-31742959D01*
X101769525Y-31791273D01*
X101775974Y-31835825D01*
X101781559Y-31856488D01*
X101793946Y-31894220D01*
X101772092Y-31918024D01*
X101747142Y-31948543D01*
X101728623Y-31980017D01*
X101713480Y-32017693D01*
X101712729Y-32019915D01*
X101701585Y-32061802D01*
X101692862Y-32112051D01*
X101686700Y-32167673D01*
X101683237Y-32225680D01*
X101682610Y-32283084D01*
X101684957Y-32336898D01*
X101690416Y-32384132D01*
X101694879Y-32406573D01*
X101716550Y-32472740D01*
X101748217Y-32532995D01*
X101789422Y-32586691D01*
X101839707Y-32633184D01*
X101872387Y-32656298D01*
X101917569Y-32681126D01*
X101970540Y-32703526D01*
X102027414Y-32722122D01*
X102084305Y-32735538D01*
X102106499Y-32739189D01*
X102134270Y-32743116D01*
X102122129Y-32760166D01*
X102108982Y-32783946D01*
X102097014Y-32815191D01*
X102087634Y-32849645D01*
X102082632Y-32879320D01*
X102078729Y-32914694D01*
X102049426Y-32925007D01*
X102030607Y-32930240D01*
X102008906Y-32933137D01*
X101981003Y-32934016D01*
X101958586Y-32933672D01*
X101929114Y-32932522D01*
X101907589Y-32930433D01*
X101890239Y-32926657D01*
X101873292Y-32920447D01*
X101858955Y-32913921D01*
X101810527Y-32884647D01*
X101768742Y-32845900D01*
X101738082Y-32805133D01*
X101707603Y-32762776D01*
X101676851Y-32731201D01*
X101644470Y-32709517D01*
X101609104Y-32696834D01*
X101569396Y-32692263D01*
X101565923Y-32692221D01*
X101540207Y-32693131D01*
X101525665Y-32696683D01*
X101522068Y-32703615D01*
X100741489Y-32703615D01*
X100735564Y-32668853D01*
X100731116Y-32631586D01*
G37*
%TO.C,J8*%
X56577838Y-24901758D02*
X56577838Y-30041758D01*
X53917838Y-23631758D02*
X53917838Y-22301758D01*
X53917838Y-24901758D02*
X56577838Y-24901758D01*
X53917838Y-24901758D02*
X53917838Y-30041758D01*
X53917838Y-22301758D02*
X55247838Y-22301758D01*
X53917838Y-30041758D02*
X56577838Y-30041758D01*
%TO.C,G\u002A\u002A\u002A*%
G36*
X149984076Y-31437597D02*
G01*
X149983828Y-31463975D01*
X149956194Y-31478882D01*
X149914932Y-31527969D01*
X149906893Y-31572085D01*
X149881347Y-31634200D01*
X149847731Y-31647680D01*
X149800060Y-31613540D01*
X149788570Y-31551735D01*
X149819340Y-31461220D01*
X149870424Y-31429811D01*
X149939149Y-31422132D01*
X149984076Y-31437597D01*
G37*
G36*
X136648833Y-23130268D02*
G01*
X136850330Y-23135297D01*
X137018074Y-23142759D01*
X137130298Y-23151903D01*
X137135736Y-23152617D01*
X137312235Y-23176809D01*
X137536918Y-24010459D01*
X137638459Y-24384946D01*
X137722335Y-24688748D01*
X137790342Y-24927623D01*
X137844278Y-25107329D01*
X137885939Y-25233624D01*
X137917122Y-25312266D01*
X137939624Y-25349014D01*
X137954943Y-25349979D01*
X137972196Y-25304769D01*
X138006801Y-25193340D01*
X138055880Y-25025716D01*
X138116553Y-24811922D01*
X138185943Y-24561982D01*
X138261171Y-24285922D01*
X138271774Y-24246615D01*
X138560272Y-23175829D01*
X139246005Y-23147261D01*
X139469564Y-23138777D01*
X139663933Y-23132980D01*
X139816187Y-23130127D01*
X139913404Y-23130475D01*
X139943073Y-23133420D01*
X139955389Y-23173125D01*
X139986672Y-23281924D01*
X140034978Y-23452851D01*
X140098361Y-23678941D01*
X140174877Y-23953228D01*
X140262581Y-24268746D01*
X140359528Y-24618530D01*
X140463773Y-24995615D01*
X140525354Y-25218798D01*
X141096297Y-27289450D01*
X142616383Y-27289450D01*
X143020027Y-27289298D01*
X143351829Y-27288227D01*
X143618830Y-27285309D01*
X143828070Y-27279621D01*
X143986589Y-27270237D01*
X144101427Y-27256231D01*
X144179626Y-27236678D01*
X144228224Y-27210653D01*
X144254262Y-27177230D01*
X144264781Y-27135485D01*
X144266821Y-27084491D01*
X144266831Y-27072525D01*
X144263055Y-27009309D01*
X144245843Y-26959772D01*
X144206370Y-26921855D01*
X144135810Y-26893497D01*
X144025338Y-26872637D01*
X143866128Y-26857215D01*
X143649353Y-26845171D01*
X143366190Y-26834445D01*
X143227569Y-26829908D01*
X142884550Y-26817263D01*
X142608353Y-26802457D01*
X142386918Y-26783658D01*
X142208188Y-26759032D01*
X142060103Y-26726748D01*
X141930603Y-26684971D01*
X141807630Y-26631871D01*
X141756054Y-26606276D01*
X141575096Y-26492909D01*
X141383093Y-26339260D01*
X141210408Y-26171444D01*
X141112226Y-26052539D01*
X140949523Y-25760787D01*
X140844712Y-25431708D01*
X140798585Y-25082397D01*
X140811930Y-24729946D01*
X140885538Y-24391449D01*
X141020199Y-24084001D01*
X141021183Y-24082303D01*
X141193855Y-23843086D01*
X141419486Y-23616101D01*
X141672907Y-23424454D01*
X141841209Y-23329490D01*
X141951042Y-23278245D01*
X142046001Y-23241151D01*
X142143406Y-23214982D01*
X142260576Y-23196509D01*
X142414830Y-23182507D01*
X142623486Y-23169747D01*
X142728632Y-23164134D01*
X142892831Y-23157650D01*
X143125116Y-23151570D01*
X143414688Y-23146032D01*
X143750752Y-23141171D01*
X144122511Y-23137124D01*
X144519167Y-23134028D01*
X144929926Y-23132018D01*
X145331737Y-23131237D01*
X147323508Y-23130419D01*
X147628479Y-23573133D01*
X147839524Y-23875823D01*
X148009434Y-24111439D01*
X148138329Y-24280138D01*
X148226330Y-24382080D01*
X148270091Y-24416710D01*
X148304065Y-24389941D01*
X148375623Y-24308045D01*
X148477191Y-24180570D01*
X148601193Y-24017066D01*
X148740053Y-23827081D01*
X148760554Y-23798485D01*
X149211576Y-23167866D01*
X149667697Y-23163677D01*
X149916614Y-23162426D01*
X150170076Y-23162977D01*
X150415500Y-23165104D01*
X150640304Y-23168583D01*
X150831904Y-23173188D01*
X150977716Y-23178694D01*
X151065158Y-23184877D01*
X151084612Y-23189018D01*
X151066229Y-23223467D01*
X151007800Y-23315985D01*
X150913944Y-23459628D01*
X150789284Y-23647448D01*
X150638439Y-23872497D01*
X150466030Y-24127830D01*
X150276678Y-24406500D01*
X150202536Y-24515174D01*
X150006637Y-24802511D01*
X149824612Y-25070476D01*
X149661298Y-25311872D01*
X149521536Y-25519505D01*
X149410163Y-25686176D01*
X149332020Y-25804691D01*
X149291945Y-25867851D01*
X149287810Y-25875542D01*
X149305355Y-25917459D01*
X149363107Y-26017275D01*
X149456520Y-26167933D01*
X149581048Y-26362372D01*
X149732146Y-26593536D01*
X149905267Y-26854365D01*
X150095866Y-27137800D01*
X150190332Y-27277021D01*
X150435673Y-27637566D01*
X150640258Y-27938391D01*
X150807661Y-28185020D01*
X150941460Y-28382978D01*
X151045229Y-28537790D01*
X151122544Y-28654981D01*
X151176982Y-28740074D01*
X151212118Y-28798596D01*
X151231529Y-28836070D01*
X151238790Y-28858022D01*
X151237477Y-28869976D01*
X151231167Y-28877457D01*
X151228107Y-28880372D01*
X151182850Y-28888293D01*
X151070095Y-28896276D01*
X150901225Y-28903862D01*
X150687622Y-28910592D01*
X150440668Y-28916006D01*
X150286926Y-28918359D01*
X149371827Y-28930187D01*
X148908955Y-28267582D01*
X148762686Y-28059174D01*
X148625961Y-27866174D01*
X148507306Y-27700476D01*
X148415248Y-27573977D01*
X148358314Y-27498572D01*
X148353226Y-27492277D01*
X148260369Y-27379576D01*
X148026702Y-27689482D01*
X147912061Y-27843849D01*
X147769975Y-28038626D01*
X147618069Y-28249485D01*
X147473971Y-28452098D01*
X147466410Y-28462820D01*
X147139786Y-28926251D01*
X146258708Y-28926251D01*
X146000023Y-28925223D01*
X145765758Y-28922343D01*
X145568156Y-28917920D01*
X145419458Y-28912262D01*
X145331907Y-28905677D01*
X145315745Y-28902504D01*
X145307724Y-28889881D01*
X145313561Y-28860115D01*
X145335881Y-28809155D01*
X145377309Y-28732948D01*
X145440471Y-28627445D01*
X145527992Y-28488594D01*
X145642497Y-28312344D01*
X145786611Y-28094644D01*
X145962961Y-27831444D01*
X146174170Y-27518691D01*
X146422865Y-27152335D01*
X146711670Y-26728325D01*
X146970686Y-26348796D01*
X147090642Y-26170623D01*
X147170253Y-26044123D01*
X147215435Y-25957074D01*
X147232102Y-25897255D01*
X147226169Y-25852443D01*
X147218834Y-25836063D01*
X147181226Y-25775361D01*
X147106651Y-25664014D01*
X147004256Y-25515370D01*
X146883191Y-25342782D01*
X146815280Y-25247142D01*
X146455806Y-24743033D01*
X144499641Y-24754130D01*
X144041091Y-24756768D01*
X143655163Y-24759506D01*
X143335598Y-24763032D01*
X143076137Y-24768037D01*
X142870523Y-24775212D01*
X142712497Y-24785244D01*
X142595801Y-24798826D01*
X142514176Y-24816647D01*
X142461363Y-24839396D01*
X142431106Y-24867764D01*
X142417144Y-24902440D01*
X142413221Y-24944115D01*
X142413104Y-24984164D01*
X142416205Y-25051270D01*
X142431523Y-25103463D01*
X142468084Y-25142995D01*
X142534911Y-25172118D01*
X142641029Y-25193087D01*
X142795463Y-25208153D01*
X143007236Y-25219570D01*
X143285373Y-25229590D01*
X143412081Y-25233553D01*
X143765829Y-25246552D01*
X144052702Y-25262809D01*
X144284695Y-25284276D01*
X144473805Y-25312901D01*
X144632028Y-25350634D01*
X144771359Y-25399425D01*
X144903795Y-25461222D01*
X144943748Y-25482465D01*
X145122495Y-25604957D01*
X145312507Y-25776522D01*
X145492510Y-25974376D01*
X145641230Y-26175733D01*
X145717470Y-26311104D01*
X145762053Y-26411940D01*
X145792256Y-26502279D01*
X145810849Y-26601279D01*
X145820605Y-26728098D01*
X145824293Y-26901895D01*
X145824750Y-27052804D01*
X145824091Y-27263410D01*
X145819698Y-27415413D01*
X145807944Y-27529092D01*
X145785204Y-27624725D01*
X145747853Y-27722591D01*
X145692263Y-27842969D01*
X145678201Y-27872446D01*
X145501045Y-28172956D01*
X145277429Y-28421134D01*
X144995315Y-28629227D01*
X144858308Y-28706663D01*
X144729484Y-28771778D01*
X144621268Y-28816701D01*
X144511347Y-28846850D01*
X144377408Y-28867647D01*
X144197137Y-28884509D01*
X144093886Y-28892337D01*
X143954772Y-28899356D01*
X143747284Y-28905450D01*
X143481925Y-28910510D01*
X143169197Y-28914424D01*
X142819604Y-28917083D01*
X142443649Y-28918376D01*
X142051835Y-28918194D01*
X141744574Y-28916971D01*
X139873094Y-28906531D01*
X139640366Y-28078270D01*
X139567942Y-27820485D01*
X139499072Y-27575289D01*
X139437917Y-27357506D01*
X139388641Y-27181960D01*
X139355405Y-27063472D01*
X139349654Y-27042944D01*
X139312581Y-26928683D01*
X139278448Y-26853479D01*
X139261302Y-26835879D01*
X139236738Y-26870906D01*
X139205513Y-26961152D01*
X139183850Y-27046282D01*
X139159033Y-27147741D01*
X139116784Y-27310183D01*
X139061101Y-27518675D01*
X138995982Y-27758285D01*
X138925427Y-28014079D01*
X138906625Y-28081608D01*
X138676487Y-28906531D01*
X137921970Y-28917243D01*
X137687735Y-28920036D01*
X137483049Y-28921461D01*
X137319995Y-28921517D01*
X137210655Y-28920204D01*
X137167114Y-28917523D01*
X137166834Y-28917243D01*
X137155311Y-28856631D01*
X137126040Y-28735912D01*
X137082381Y-28567109D01*
X137027693Y-28362249D01*
X136965337Y-28133355D01*
X136898672Y-27892454D01*
X136831057Y-27651570D01*
X136765851Y-27422728D01*
X136706416Y-27217953D01*
X136656109Y-27049270D01*
X136618291Y-26928705D01*
X136596321Y-26868281D01*
X136593079Y-26863578D01*
X136573003Y-26897745D01*
X136535166Y-26998107D01*
X136482754Y-27154810D01*
X136418956Y-27357998D01*
X136346960Y-27597819D01*
X136274383Y-27848808D01*
X136197592Y-28117252D01*
X136126761Y-28361401D01*
X136065018Y-28570746D01*
X136015494Y-28734777D01*
X135981315Y-28842985D01*
X135966156Y-28884134D01*
X135920344Y-28897310D01*
X135810373Y-28908160D01*
X135650893Y-28916608D01*
X135456558Y-28922580D01*
X135242019Y-28926003D01*
X135021930Y-28926800D01*
X134810942Y-28924899D01*
X134623707Y-28920224D01*
X134474879Y-28912701D01*
X134379109Y-28902256D01*
X134350839Y-28892340D01*
X134354124Y-28844072D01*
X134377067Y-28728018D01*
X134417621Y-28552229D01*
X134473740Y-28324756D01*
X134543378Y-28053652D01*
X134624489Y-27746968D01*
X134715025Y-27412754D01*
X134812940Y-27059062D01*
X134853481Y-26914761D01*
X134895837Y-26763695D01*
X134955795Y-26548512D01*
X135030044Y-26281155D01*
X135115277Y-25973564D01*
X135208184Y-25637684D01*
X135305456Y-25285457D01*
X135403783Y-24928825D01*
X135410823Y-24903270D01*
X135503978Y-24565588D01*
X135591982Y-24247580D01*
X135672328Y-23958236D01*
X135742506Y-23706548D01*
X135800009Y-23501505D01*
X135842326Y-23352099D01*
X135866951Y-23267321D01*
X135870263Y-23256608D01*
X135911457Y-23128425D01*
X136435347Y-23128425D01*
X136648833Y-23130268D01*
G37*
G36*
X150547778Y-31442455D02*
G01*
X150638557Y-31415648D01*
X150658481Y-31417148D01*
X150736270Y-31451727D01*
X150767340Y-31539096D01*
X150767354Y-31539217D01*
X150768095Y-31612176D01*
X150732725Y-31642032D01*
X150643391Y-31647680D01*
X150539201Y-31632357D01*
X150485807Y-31592587D01*
X150485716Y-31592352D01*
X150487470Y-31549077D01*
X150577390Y-31549077D01*
X150598687Y-31601564D01*
X150616831Y-31608239D01*
X150651822Y-31576293D01*
X150656272Y-31549077D01*
X150634975Y-31496591D01*
X150616831Y-31489916D01*
X150581839Y-31521861D01*
X150577390Y-31549077D01*
X150487470Y-31549077D01*
X150489086Y-31509210D01*
X150547778Y-31442455D01*
G37*
G36*
X149196955Y-31371593D02*
G01*
X149229570Y-31405654D01*
X149265977Y-31412288D01*
X149313417Y-31417401D01*
X149296849Y-31441876D01*
X149265977Y-31465938D01*
X149210362Y-31525380D01*
X149196955Y-31560394D01*
X149229512Y-31604571D01*
X149265977Y-31620492D01*
X149279820Y-31633349D01*
X149226193Y-31642156D01*
X149206815Y-31643105D01*
X149115972Y-31636345D01*
X149081333Y-31599544D01*
X149078632Y-31572085D01*
X149056464Y-31501503D01*
X149029683Y-31480173D01*
X149007032Y-31451676D01*
X149046586Y-31398004D01*
X149121658Y-31343506D01*
X149178535Y-31336860D01*
X149196955Y-31371593D01*
G37*
G36*
X150074426Y-31380218D02*
G01*
X150106810Y-31335015D01*
X150123818Y-31332152D01*
X150176326Y-31351993D01*
X150182980Y-31368850D01*
X150216515Y-31402292D01*
X150271722Y-31418151D01*
X150345248Y-31455994D01*
X150372944Y-31539217D01*
X150374792Y-31608259D01*
X150345226Y-31639316D01*
X150263701Y-31647455D01*
X150225040Y-31647680D01*
X150064657Y-31647680D01*
X150064657Y-31549077D01*
X150182980Y-31549077D01*
X150204277Y-31601564D01*
X150222421Y-31608239D01*
X150257412Y-31576293D01*
X150261862Y-31549077D01*
X150240565Y-31496591D01*
X150222421Y-31489916D01*
X150187429Y-31521861D01*
X150182980Y-31549077D01*
X150064657Y-31549077D01*
X150064657Y-31489916D01*
X150074426Y-31380218D01*
G37*
G36*
X136143456Y-30817255D02*
G01*
X136064880Y-30938700D01*
X136007990Y-31037573D01*
X135984335Y-31093689D01*
X135984222Y-31095506D01*
X136005094Y-31147931D01*
X136059970Y-31244396D01*
X136137240Y-31364585D01*
X136141986Y-31371593D01*
X136219665Y-31488837D01*
X136275995Y-31579301D01*
X136299614Y-31624683D01*
X136299750Y-31625795D01*
X136264595Y-31639064D01*
X136176192Y-31646548D01*
X136132126Y-31647192D01*
X136019324Y-31638697D01*
X135946649Y-31600862D01*
X135878478Y-31513894D01*
X135870657Y-31501918D01*
X135818091Y-31423581D01*
X135779406Y-31391656D01*
X135738875Y-31411082D01*
X135680768Y-31486801D01*
X135617589Y-31581403D01*
X135562139Y-31628940D01*
X135467535Y-31643365D01*
X135401788Y-31640565D01*
X135233657Y-31627959D01*
X135413041Y-31361024D01*
X135500708Y-31228629D01*
X135549542Y-31143471D01*
X135564963Y-31087483D01*
X135552389Y-31042601D01*
X135522097Y-30997434D01*
X135484512Y-30952788D01*
X135438768Y-30924437D01*
X135367406Y-30908623D01*
X135252970Y-30901588D01*
X135078000Y-30899577D01*
X135067219Y-30899540D01*
X134884125Y-30903428D01*
X134758464Y-30914772D01*
X134694448Y-30931059D01*
X134696291Y-30949776D01*
X134768206Y-30968411D01*
X134914406Y-30984451D01*
X134923706Y-30985137D01*
X135069743Y-31001548D01*
X135161621Y-31030459D01*
X135223982Y-31080734D01*
X135238357Y-31098340D01*
X135304009Y-31240661D01*
X135303309Y-31392447D01*
X135237466Y-31528211D01*
X135216915Y-31550870D01*
X135170381Y-31592696D01*
X135119510Y-31620359D01*
X135047761Y-31636769D01*
X134938593Y-31644840D01*
X134775465Y-31647483D01*
X134667034Y-31647680D01*
X134213962Y-31647680D01*
X134158010Y-31460335D01*
X134102057Y-31272990D01*
X134048935Y-31460335D01*
X134013373Y-31572165D01*
X133975895Y-31627380D01*
X133915452Y-31645894D01*
X133850910Y-31647680D01*
X133763033Y-31642818D01*
X133712911Y-31614885D01*
X133679728Y-31543860D01*
X133656111Y-31460335D01*
X133606213Y-31272990D01*
X133550534Y-31460335D01*
X133513682Y-31571910D01*
X133475444Y-31627131D01*
X133413812Y-31645785D01*
X133342143Y-31647680D01*
X133189432Y-31647680D01*
X133284459Y-31302571D01*
X133352218Y-31056371D01*
X133403095Y-30875710D01*
X133441789Y-30750253D01*
X133472996Y-30669665D01*
X133501414Y-30623613D01*
X133531739Y-30601761D01*
X133568670Y-30593775D01*
X133608227Y-30590222D01*
X133685717Y-30588355D01*
X133730168Y-30615063D01*
X133760881Y-30689343D01*
X133779202Y-30758517D01*
X133814278Y-30870447D01*
X133850593Y-30946235D01*
X133879865Y-30973502D01*
X133893813Y-30939870D01*
X133894069Y-30930209D01*
X133904247Y-30860577D01*
X133929136Y-30753785D01*
X133936003Y-30728364D01*
X133969355Y-30631550D01*
X134012116Y-30591927D01*
X134088454Y-30589197D01*
X134100370Y-30590320D01*
X134200851Y-30620461D01*
X134251722Y-30696074D01*
X134253314Y-30701096D01*
X134279167Y-30787375D01*
X134318640Y-30921453D01*
X134363495Y-31075334D01*
X134366485Y-31085646D01*
X134449363Y-31371593D01*
X134721453Y-31371593D01*
X134874753Y-31365310D01*
X134977776Y-31348611D01*
X135022698Y-31324720D01*
X135001696Y-31296863D01*
X134948452Y-31278013D01*
X134842698Y-31260326D01*
X134737289Y-31253808D01*
X134583133Y-31220205D01*
X134469551Y-31130097D01*
X134411225Y-30997312D01*
X134406582Y-30942418D01*
X134420022Y-30818394D01*
X134466216Y-30725377D01*
X134553974Y-30659396D01*
X134692108Y-30616480D01*
X134889428Y-30592660D01*
X135154745Y-30583963D01*
X135202577Y-30583714D01*
X135584441Y-30582773D01*
X135762033Y-30832179D01*
X135866140Y-30707476D01*
X135952469Y-30622957D01*
X136045900Y-30587978D01*
X136136468Y-30582773D01*
X136302689Y-30582773D01*
X136143456Y-30817255D01*
G37*
G36*
X151915763Y-30868241D02*
G01*
X151954098Y-30903471D01*
X151957824Y-30933142D01*
X151924536Y-31002199D01*
X151836935Y-31032452D01*
X151750759Y-31025634D01*
X151693445Y-30979570D01*
X151681737Y-30934850D01*
X151698376Y-30882203D01*
X151761787Y-30861083D01*
X151819781Y-30858860D01*
X151915763Y-30868241D01*
G37*
G36*
X152549439Y-30503891D02*
G01*
X152549439Y-31766003D01*
X151129564Y-31766003D01*
X151129564Y-31692360D01*
X151445091Y-31692360D01*
X151553554Y-31679880D01*
X151617292Y-31666201D01*
X151651411Y-31630100D01*
X151667446Y-31550542D01*
X151673938Y-31460335D01*
X151685860Y-31253270D01*
X151841563Y-31253270D01*
X151941722Y-31257682D01*
X151985903Y-31284122D01*
X151996978Y-31352394D01*
X151997265Y-31388088D01*
X152007413Y-31531199D01*
X152044099Y-31611875D01*
X152116690Y-31644667D01*
X152164330Y-31647680D01*
X152283515Y-31647680D01*
X152256276Y-31440615D01*
X152224790Y-31291581D01*
X152169894Y-31191992D01*
X152123011Y-31146226D01*
X152055229Y-31087796D01*
X152045733Y-31063476D01*
X152091502Y-31057745D01*
X152105728Y-31057483D01*
X152167518Y-31042920D01*
X152191669Y-30986770D01*
X152194470Y-30925439D01*
X152160945Y-30787671D01*
X152060348Y-30691327D01*
X151892646Y-30636386D01*
X151703055Y-30622214D01*
X151445091Y-30622214D01*
X151445091Y-31692360D01*
X151129564Y-31692360D01*
X151129564Y-30503891D01*
X152549439Y-30503891D01*
G37*
G36*
X150672650Y-30635195D02*
G01*
X150712289Y-30658332D01*
X150709728Y-30696578D01*
X150661944Y-30771949D01*
X150651935Y-30786069D01*
X150563112Y-30910808D01*
X150649133Y-31060272D01*
X150701615Y-31156012D01*
X150732068Y-31220373D01*
X150735154Y-31231503D01*
X150708228Y-31256863D01*
X150645125Y-31243276D01*
X150572352Y-31199678D01*
X150536461Y-31164528D01*
X150463168Y-31075785D01*
X150399719Y-31164528D01*
X150326268Y-31230953D01*
X150259625Y-31253270D01*
X150203744Y-31247926D01*
X150189552Y-31221899D01*
X150218732Y-31160195D01*
X150280650Y-31065909D01*
X150338983Y-30973523D01*
X150354348Y-30917419D01*
X150330927Y-30870637D01*
X150313978Y-30851076D01*
X150248476Y-30813751D01*
X150146356Y-30788548D01*
X150033039Y-30777270D01*
X149933947Y-30781720D01*
X149874499Y-30803698D01*
X149867452Y-30819419D01*
X149901673Y-30847315D01*
X149983538Y-30858860D01*
X150090990Y-30887774D01*
X150170285Y-30959438D01*
X150200823Y-31051232D01*
X150194213Y-31090174D01*
X150135388Y-31181045D01*
X150028170Y-31233530D01*
X149860681Y-31252893D01*
X149826178Y-31253270D01*
X149698811Y-31250809D01*
X149627654Y-31236063D01*
X149590044Y-31197986D01*
X149563317Y-31125533D01*
X149563179Y-31125087D01*
X149537133Y-31052690D01*
X149515187Y-31041404D01*
X149487875Y-31096570D01*
X149458343Y-31184248D01*
X149412166Y-31244905D01*
X149351111Y-31242276D01*
X149300602Y-31180883D01*
X149292033Y-31154667D01*
X149263057Y-31080878D01*
X149236396Y-31056065D01*
X149204903Y-31089440D01*
X149180759Y-31154667D01*
X149142971Y-31224135D01*
X149090474Y-31252793D01*
X149048644Y-31233677D01*
X149039191Y-31193513D01*
X149049312Y-31125328D01*
X149075574Y-31009193D01*
X149104819Y-30897705D01*
X149160136Y-30746105D01*
X149219802Y-30668293D01*
X149281158Y-30665891D01*
X149341546Y-30740519D01*
X149346515Y-30750397D01*
X149389806Y-30839139D01*
X149415350Y-30754044D01*
X149466090Y-30677589D01*
X149514526Y-30649693D01*
X149561422Y-30651835D01*
X149598830Y-30697140D01*
X149637296Y-30800649D01*
X149649876Y-30842739D01*
X149695507Y-30973994D01*
X149743903Y-31046383D01*
X149808075Y-31079253D01*
X149809155Y-31079527D01*
X149911991Y-31086727D01*
X149975826Y-31072531D01*
X150010035Y-31049019D01*
X149976956Y-31033324D01*
X149926613Y-31025346D01*
X149794632Y-30988757D01*
X149728111Y-30916980D01*
X149717534Y-30803058D01*
X149726543Y-30740919D01*
X149750031Y-30702666D01*
X149805209Y-30679821D01*
X149909285Y-30663910D01*
X150024301Y-30651976D01*
X150179776Y-30638940D01*
X150278361Y-30639685D01*
X150341257Y-30656864D01*
X150389668Y-30693133D01*
X150395007Y-30698389D01*
X150453202Y-30749422D01*
X150493048Y-30742185D01*
X150537682Y-30691631D01*
X150618177Y-30632338D01*
X150672650Y-30635195D01*
G37*
G36*
X145462011Y-30706141D02*
G01*
X145558562Y-30829510D01*
X145649772Y-30706141D01*
X145730951Y-30619694D01*
X145824359Y-30586166D01*
X145891329Y-30582773D01*
X145987337Y-30589639D01*
X146038794Y-30606695D01*
X146041550Y-30612354D01*
X146021105Y-30657695D01*
X145967488Y-30748859D01*
X145892068Y-30866566D01*
X145887944Y-30872780D01*
X145734465Y-31103625D01*
X145907790Y-31351570D01*
X145990358Y-31472611D01*
X146051570Y-31567923D01*
X146080262Y-31619984D01*
X146081116Y-31623597D01*
X146045964Y-31638208D01*
X145957569Y-31646470D01*
X145913492Y-31647192D01*
X145800691Y-31638697D01*
X145728016Y-31600862D01*
X145659845Y-31513894D01*
X145652023Y-31501918D01*
X145599458Y-31423581D01*
X145560773Y-31391656D01*
X145520241Y-31411082D01*
X145462135Y-31486801D01*
X145398955Y-31581403D01*
X145343505Y-31628940D01*
X145248902Y-31643365D01*
X145183154Y-31640565D01*
X145015024Y-31627959D01*
X145193972Y-31361673D01*
X145281544Y-31229012D01*
X145330171Y-31143118D01*
X145345575Y-31085740D01*
X145333477Y-31038629D01*
X145308351Y-30996844D01*
X145274370Y-30951709D01*
X145232583Y-30922982D01*
X145165960Y-30906970D01*
X145057469Y-30899980D01*
X144890078Y-30898319D01*
X144853909Y-30898301D01*
X144672164Y-30902092D01*
X144540960Y-30912686D01*
X144471824Y-30928917D01*
X144464036Y-30937742D01*
X144499311Y-30961156D01*
X144588663Y-30975290D01*
X144643479Y-30977183D01*
X144811222Y-30996149D01*
X144953838Y-31046920D01*
X145049432Y-31120308D01*
X145070591Y-31156434D01*
X145095972Y-31316377D01*
X145057207Y-31468281D01*
X144998282Y-31550870D01*
X144951486Y-31592884D01*
X144900291Y-31620597D01*
X144828034Y-31636966D01*
X144718052Y-31644951D01*
X144553680Y-31647510D01*
X144453032Y-31647680D01*
X144004593Y-31647680D01*
X143883303Y-31272990D01*
X143833217Y-31462406D01*
X143800386Y-31574642D01*
X143766482Y-31628885D01*
X143711442Y-31643706D01*
X143641472Y-31639890D01*
X143544443Y-31622392D01*
X143492458Y-31574947D01*
X143459331Y-31483284D01*
X143420500Y-31363901D01*
X143388873Y-31321771D01*
X143358941Y-31356297D01*
X143325196Y-31466882D01*
X143324742Y-31468685D01*
X143293462Y-31577418D01*
X143256770Y-31629791D01*
X143191778Y-31646364D01*
X143125513Y-31647680D01*
X142971356Y-31647680D01*
X143052614Y-31361733D01*
X143104460Y-31177584D01*
X143158494Y-30983003D01*
X143197847Y-30839139D01*
X143236178Y-30708552D01*
X143271001Y-30636057D01*
X143316601Y-30602896D01*
X143387265Y-30590313D01*
X143387356Y-30590304D01*
X143466846Y-30589053D01*
X143512717Y-30618240D01*
X143546236Y-30697159D01*
X143561261Y-30748068D01*
X143603363Y-30880773D01*
X143636224Y-30937376D01*
X143665840Y-30919169D01*
X143698207Y-30827448D01*
X143710757Y-30780322D01*
X143744322Y-30664125D01*
X143779069Y-30605532D01*
X143832575Y-30584988D01*
X143888330Y-30582773D01*
X143963055Y-30588257D01*
X144008246Y-30617445D01*
X144040456Y-30689441D01*
X144067788Y-30789838D01*
X144111059Y-30954290D01*
X144158378Y-31125348D01*
X144175375Y-31184248D01*
X144230446Y-31371593D01*
X144502677Y-31371593D01*
X144659540Y-31364990D01*
X144763812Y-31347125D01*
X144807670Y-31320909D01*
X144783290Y-31289255D01*
X144756391Y-31277123D01*
X144678911Y-31262014D01*
X144562560Y-31253779D01*
X144526846Y-31253270D01*
X144363449Y-31222009D01*
X144249748Y-31136449D01*
X144193220Y-31008924D01*
X144201341Y-30851768D01*
X144231739Y-30766463D01*
X144279820Y-30692893D01*
X144354351Y-30641075D01*
X144467704Y-30607690D01*
X144632251Y-30589419D01*
X144860364Y-30582945D01*
X144916604Y-30582773D01*
X145365461Y-30582773D01*
X145462011Y-30706141D01*
G37*
G36*
X140822119Y-30589744D02*
G01*
X140872494Y-30607462D01*
X140874905Y-30612880D01*
X140854402Y-30659064D01*
X140801020Y-30749229D01*
X140736862Y-30847970D01*
X140664384Y-30962064D01*
X140614393Y-31053130D01*
X140598818Y-31096114D01*
X140619682Y-31148222D01*
X140674538Y-31244440D01*
X140751785Y-31364509D01*
X140756582Y-31371593D01*
X140834262Y-31488837D01*
X140890591Y-31579301D01*
X140914210Y-31624683D01*
X140914346Y-31625795D01*
X140879190Y-31639110D01*
X140790784Y-31646709D01*
X140746722Y-31647410D01*
X140632466Y-31638568D01*
X140557714Y-31599356D01*
X140485728Y-31510047D01*
X140482705Y-31505621D01*
X140428152Y-31428403D01*
X140388439Y-31398012D01*
X140347222Y-31419391D01*
X140288157Y-31497485D01*
X140232185Y-31581403D01*
X140176735Y-31628940D01*
X140082131Y-31643365D01*
X140016384Y-31640565D01*
X139848254Y-31627959D01*
X140023152Y-31367710D01*
X140198050Y-31107460D01*
X140122979Y-30993020D01*
X140062126Y-30917202D01*
X140012303Y-30882716D01*
X140007835Y-30882525D01*
X139952134Y-30884988D01*
X139838670Y-30888115D01*
X139688549Y-30891351D01*
X139632514Y-30892385D01*
X139472669Y-30900867D01*
X139360291Y-30917140D01*
X139301430Y-30937057D01*
X139302138Y-30956468D01*
X139368465Y-30971225D01*
X139506462Y-30977182D01*
X139508813Y-30977183D01*
X139646940Y-30984512D01*
X139739299Y-31013599D01*
X139818214Y-31075099D01*
X139824340Y-31081164D01*
X139911019Y-31215624D01*
X139927103Y-31362405D01*
X139872300Y-31502240D01*
X139831512Y-31550870D01*
X139784978Y-31592696D01*
X139734107Y-31620359D01*
X139662358Y-31636769D01*
X139553189Y-31644840D01*
X139390061Y-31647483D01*
X139281630Y-31647680D01*
X138828558Y-31647680D01*
X138716654Y-31272990D01*
X138663531Y-31460335D01*
X138628073Y-31572105D01*
X138590659Y-31627312D01*
X138529946Y-31645856D01*
X138462611Y-31647680D01*
X138363965Y-31641045D01*
X138316102Y-31606328D01*
X138291143Y-31521313D01*
X138288836Y-31509201D01*
X138257561Y-31393306D01*
X138222219Y-31356083D01*
X138183181Y-31397585D01*
X138149158Y-31488777D01*
X138113312Y-31589422D01*
X138068434Y-31635048D01*
X137986847Y-31647283D01*
X137945809Y-31647680D01*
X137845407Y-31641118D01*
X137808781Y-31617262D01*
X137812425Y-31589420D01*
X137830784Y-31530305D01*
X137864450Y-31411849D01*
X137908697Y-31251008D01*
X137958796Y-31064738D01*
X137960864Y-31056966D01*
X138086946Y-30582773D01*
X138216960Y-30582773D01*
X138304774Y-30591566D01*
X138353008Y-30632958D01*
X138387712Y-30729467D01*
X138388049Y-30730677D01*
X138414932Y-30839899D01*
X138428829Y-30920596D01*
X138429344Y-30930209D01*
X138440646Y-30972817D01*
X138468368Y-30952889D01*
X138504227Y-30882804D01*
X138539941Y-30774941D01*
X138544211Y-30758517D01*
X138575619Y-30649441D01*
X138610012Y-30598520D01*
X138666785Y-30586752D01*
X138716005Y-30590222D01*
X138774581Y-30598875D01*
X138816385Y-30620938D01*
X138849973Y-30670911D01*
X138883904Y-30763297D01*
X138926737Y-30912596D01*
X138944382Y-30977183D01*
X139046432Y-31351872D01*
X139295878Y-31363763D01*
X139464293Y-31366224D01*
X139580523Y-31356534D01*
X139637000Y-31336541D01*
X139626156Y-31308090D01*
X139593073Y-31291250D01*
X139502601Y-31269439D01*
X139379616Y-31256878D01*
X139353442Y-31256042D01*
X139187450Y-31222564D01*
X139074582Y-31134012D01*
X139020539Y-30998348D01*
X139031021Y-30823534D01*
X139034257Y-30810276D01*
X139073878Y-30721819D01*
X139147597Y-30658190D01*
X139265795Y-30616072D01*
X139438851Y-30592147D01*
X139677146Y-30583099D01*
X139746192Y-30582773D01*
X140199037Y-30582773D01*
X140287107Y-30706456D01*
X140375176Y-30830138D01*
X140477137Y-30706100D01*
X140567115Y-30619101D01*
X140665740Y-30585383D01*
X140727001Y-30582417D01*
X140822119Y-30589744D01*
G37*
G36*
X149491704Y-31469199D02*
G01*
X149505442Y-31523171D01*
X149530975Y-31581819D01*
X149566051Y-31576444D01*
X149589659Y-31515748D01*
X149591365Y-31487588D01*
X149607636Y-31421442D01*
X149643709Y-31421418D01*
X149680470Y-31485025D01*
X149684829Y-31499776D01*
X149704129Y-31591318D01*
X149685691Y-31634270D01*
X149613047Y-31646958D01*
X149551924Y-31647680D01*
X149450804Y-31643100D01*
X149405854Y-31617727D01*
X149394433Y-31554108D01*
X149394160Y-31526070D01*
X149412255Y-31440518D01*
X149452026Y-31421372D01*
X149491704Y-31469199D01*
G37*
G36*
X153298818Y-21274699D02*
G01*
X153298818Y-32515382D01*
X132276769Y-32515382D01*
X132276769Y-31884326D01*
X137522421Y-31884326D01*
X141190433Y-31884326D01*
X141260536Y-31884326D01*
X141939812Y-31884326D01*
X141939812Y-31746282D01*
X141935485Y-31659695D01*
X141907783Y-31619655D01*
X141834623Y-31607760D01*
X141772188Y-31606597D01*
X141604564Y-31604955D01*
X141750704Y-31475758D01*
X141887221Y-31323385D01*
X141951331Y-31175444D01*
X141946960Y-31108653D01*
X142689191Y-31108653D01*
X142690561Y-31339898D01*
X142694369Y-31543426D01*
X142700161Y-31706302D01*
X142707483Y-31815587D01*
X142715485Y-31858032D01*
X142759125Y-31863409D01*
X142873695Y-31868417D01*
X143051243Y-31872941D01*
X143283818Y-31876867D01*
X143563469Y-31880081D01*
X143882243Y-31882470D01*
X144232189Y-31883919D01*
X144549491Y-31884326D01*
X146357203Y-31884326D01*
X146357203Y-31804177D01*
X146514967Y-31804177D01*
X146520922Y-31843125D01*
X146549089Y-31866913D01*
X146614921Y-31879235D01*
X146733871Y-31883785D01*
X146850216Y-31884326D01*
X147185464Y-31884326D01*
X148684222Y-31884326D01*
X152667762Y-31884326D01*
X152667762Y-30385568D01*
X148684222Y-30385568D01*
X148684222Y-31884326D01*
X147185464Y-31884326D01*
X147185464Y-31746282D01*
X147181192Y-31659728D01*
X147153654Y-31619879D01*
X147080768Y-31608485D01*
X147017840Y-31607747D01*
X146850216Y-31607255D01*
X147017840Y-31451566D01*
X147116041Y-31351872D01*
X147264346Y-31351872D01*
X147270740Y-31410392D01*
X147303370Y-31439586D01*
X147382408Y-31449541D01*
X147461551Y-31450475D01*
X147658756Y-31450475D01*
X147658756Y-31647680D01*
X147661953Y-31764719D01*
X147678268Y-31823107D01*
X147717787Y-31843017D01*
X147757359Y-31844885D01*
X147815878Y-31838491D01*
X147845072Y-31805861D01*
X147855027Y-31726823D01*
X147855961Y-31647680D01*
X147855961Y-31450475D01*
X148033446Y-31450475D01*
X148142967Y-31446388D01*
X148194858Y-31426300D01*
X148210252Y-31378468D01*
X148210930Y-31351872D01*
X148203458Y-31290765D01*
X148166882Y-31261987D01*
X148079961Y-31253598D01*
X148035507Y-31253270D01*
X147860083Y-31253270D01*
X147848162Y-31046205D01*
X147836764Y-30923118D01*
X147814611Y-30858355D01*
X147772288Y-30831370D01*
X147747498Y-30826536D01*
X147696941Y-30825490D01*
X147670421Y-30852795D01*
X147660263Y-30926364D01*
X147658756Y-31033601D01*
X147658756Y-31253270D01*
X147461551Y-31253270D01*
X147344512Y-31256467D01*
X147286124Y-31272782D01*
X147266214Y-31312301D01*
X147264346Y-31351872D01*
X147116041Y-31351872D01*
X147116955Y-31350944D01*
X147167522Y-31268909D01*
X147184606Y-31177406D01*
X147185464Y-31139392D01*
X147155594Y-30991771D01*
X147077104Y-30889272D01*
X146966674Y-30832765D01*
X146840986Y-30823121D01*
X146716718Y-30861210D01*
X146610553Y-30947903D01*
X146539170Y-31084069D01*
X146533336Y-31105366D01*
X146521854Y-31179916D01*
X146552071Y-31209031D01*
X146632707Y-31213829D01*
X146731792Y-31198032D01*
X146777137Y-31143482D01*
X146779626Y-31134947D01*
X146819245Y-31070849D01*
X146854816Y-31056065D01*
X146904174Y-31081138D01*
X146901485Y-31146770D01*
X146851305Y-31238583D01*
X146766631Y-31334275D01*
X146634156Y-31490275D01*
X146546027Y-31655995D01*
X146514967Y-31804177D01*
X146357203Y-31804177D01*
X146357203Y-30385568D01*
X142689191Y-30385568D01*
X142689191Y-31108653D01*
X141946960Y-31108653D01*
X141942351Y-31038216D01*
X141859599Y-30917985D01*
X141815203Y-30882561D01*
X141680810Y-30829673D01*
X141538974Y-30837884D01*
X141412300Y-30898768D01*
X141323394Y-31003898D01*
X141299273Y-31074898D01*
X141294847Y-31143113D01*
X141331504Y-31170062D01*
X141408608Y-31174388D01*
X141512159Y-31156597D01*
X141559665Y-31115226D01*
X141605489Y-31060531D01*
X141657277Y-31078908D01*
X141678216Y-31115822D01*
X141665022Y-31183633D01*
X141592105Y-31272156D01*
X141579733Y-31283446D01*
X141419178Y-31450942D01*
X141322939Y-31616287D01*
X141288033Y-31737754D01*
X141260536Y-31884326D01*
X141190433Y-31884326D01*
X141190433Y-30385568D01*
X137522421Y-30385568D01*
X137522421Y-31884326D01*
X132276769Y-31884326D01*
X132276769Y-31108653D01*
X132907824Y-31108653D01*
X132909215Y-31339931D01*
X132913080Y-31543525D01*
X132918958Y-31706489D01*
X132926389Y-31815877D01*
X132934508Y-31858421D01*
X132978217Y-31863649D01*
X133092873Y-31868101D01*
X133270544Y-31871707D01*
X133503298Y-31874397D01*
X133783204Y-31876099D01*
X134102329Y-31876743D01*
X134452742Y-31876258D01*
X134778374Y-31874855D01*
X136595557Y-31864605D01*
X136606288Y-31125087D01*
X136617018Y-30385568D01*
X132907824Y-30385568D01*
X132907824Y-31108653D01*
X132276769Y-31108653D01*
X132276769Y-30030599D01*
X132907824Y-30030599D01*
X152667762Y-30030599D01*
X152667762Y-22024077D01*
X132907824Y-22024077D01*
X132907824Y-30030599D01*
X132276769Y-30030599D01*
X132276769Y-21274699D01*
X153298818Y-21274699D01*
G37*
%TO.C,J6*%
X54550000Y-36322000D02*
X57210000Y-36322000D01*
X54550000Y-35052000D02*
X54550000Y-33722000D01*
X54550000Y-33722000D02*
X55880000Y-33722000D01*
X57210000Y-36322000D02*
X57210000Y-41462000D01*
X54550000Y-36322000D02*
X54550000Y-41462000D01*
X54550000Y-41462000D02*
X57210000Y-41462000D01*
%TO.C,U4*%
X150546514Y-58698244D02*
X150546514Y-53398244D01*
X125026514Y-58698244D02*
X150546514Y-58698244D01*
X125026514Y-53398244D02*
X125026514Y-55048244D01*
X150546514Y-53398244D02*
X125026514Y-53398244D01*
X125026514Y-57048244D02*
X125026514Y-58698244D01*
X125026514Y-57048244D02*
G75*
G03*
X125026514Y-55048244I0J1000000D01*
G01*
%TD*%
M02*
