M48
; DRILL file {KiCad (6.0.9-0)} date Wednesday, 14 December 2022 at 23:49:07
; FORMAT={-:-/ absolute / inch / decimal}
; #@! TF.CreationDate,2022-12-14T23:49:07+00:00
; #@! TF.GenerationSoftware,Kicad,Pcbnew,(6.0.9-0)
; #@! TF.FileFunction,Plated,1,2,PTH
FMAT,2
INCH
; #@! TA.AperFunction,Plated,PTH,ViaDrill
T1C0.0157
; #@! TA.AperFunction,Plated,PTH,ComponentDrill
T2C0.0315
; #@! TA.AperFunction,Plated,PTH,ComponentDrill
T3C0.0394
%
G90
G05
T1
X2.5Y-2.2037
X2.5299Y-2.1508
X2.5591Y-1.5748
X2.7032Y-1.4239
X2.8636Y-1.7712
X2.88Y-2.2
X2.94Y-2.2
X3.05Y-1.55
X3.1099Y-1.5512
X3.12Y-2.78
X3.1598Y-2.9024
X3.1752Y-1.7253
X3.3646Y-2.3056
X3.44Y-2.54
X3.4788Y-2.9063
X3.75Y-2.25
X3.7599Y-1.14
X3.9Y-1.34
X4.12Y-2.46
X4.1314Y-2.2601
X4.1322Y-2.2126
X4.3Y-2.66
X4.3641Y-2.2137
X4.6Y-2.58
X4.615Y-2.419
X4.62Y-1.84
X4.6551Y-2.3833
X4.66Y-1.46
X4.66Y-2.46
X4.7Y-2.64
X4.8Y-1.9
X4.8172Y-2.7323
X4.82Y-2.56
X4.8414Y-1.8891
X4.8542Y-2.8881
X4.88Y-1.2
X4.88Y-1.86
X4.9575Y-2.8933
X4.96Y-2.56
X5.049Y-2.131
X5.0837Y-1.4363
X5.16Y-1.56
X5.1712Y-2.1825
X5.1752Y-1.931
X5.18Y-1.86
X5.4Y-1.86
X5.4Y-1.92
X5.4Y-2.5591
X5.4514Y-2.1836
X5.4907Y-1.9093
T2
X2.27Y-1.78
X2.3339Y-1.2639
X2.3385Y-1.9521
X2.3524Y-1.3571
X2.3524Y-1.6571
X2.3559Y-2.0496
X2.3559Y-2.3496
X2.4324Y-1.2639
X2.4369Y-1.9521
X2.4524Y-1.3571
X2.4524Y-1.6571
X2.4559Y-2.0496
X2.4559Y-2.3496
X2.5524Y-1.3571
X2.5524Y-1.6571
X2.5559Y-2.0496
X2.5559Y-2.3496
X2.5611Y-1.9393
X2.57Y-1.78
X2.6065Y-2.4615
X2.6524Y-1.3571
X2.6524Y-1.6571
X2.6559Y-2.0496
X2.6559Y-2.3496
X2.7524Y-1.3571
X2.7524Y-1.6571
X2.7559Y-2.0496
X2.7559Y-2.3496
X2.8524Y-1.3571
X2.8524Y-1.6571
X2.8559Y-2.0496
X2.8559Y-2.3496
X2.8611Y-1.9393
X2.9065Y-2.4615
X2.9524Y-1.3571
X2.9524Y-1.6571
X2.9559Y-2.0496
X2.9559Y-2.3496
X2.9574Y-1.7717
X3.0524Y-1.3571
X3.0524Y-1.6571
X3.0559Y-2.0496
X3.0559Y-2.3496
X3.1524Y-1.3571
X3.1524Y-1.6571
X3.1559Y-2.0496
X3.1559Y-2.3496
X3.2524Y-1.3571
X3.2524Y-1.6571
X3.2559Y-2.0496
X3.2559Y-2.3496
X3.2574Y-1.7717
X3.4469Y-1.9736
X3.5453Y-1.9736
X3.672Y-2.055
X3.672Y-2.355
X3.6767Y-2.4645
X3.7691Y-1.626
X3.7691Y-1.926
X3.772Y-2.055
X3.772Y-2.355
X3.7786Y-1.5311
X3.8691Y-1.626
X3.8691Y-1.926
X3.872Y-2.055
X3.872Y-2.355
X3.877Y-1.5311
X3.9691Y-1.626
X3.9691Y-1.926
X3.972Y-2.055
X3.972Y-2.355
X3.9767Y-2.4645
X4.0691Y-1.626
X4.0691Y-1.926
X4.072Y-2.055
X4.072Y-2.355
X4.1691Y-1.626
X4.1691Y-1.926
X4.172Y-2.055
X4.172Y-2.355
X4.2213Y-2.4716
X4.2691Y-1.626
X4.2691Y-1.926
X4.272Y-2.055
X4.272Y-2.355
X4.3691Y-1.626
X4.3691Y-1.926
X4.372Y-2.055
X4.372Y-2.355
X4.472Y-2.055
X4.472Y-2.355
X4.5213Y-2.4716
X4.572Y-2.055
X4.572Y-2.355
X4.9538Y-1.2598
X4.9545Y-1.9608
X4.9567Y-2.4721
X4.957Y-1.7634
X4.974Y-1.3532
X4.974Y-1.6532
X4.9747Y-2.0566
X4.9747Y-2.3566
X5.0522Y-1.2598
X5.0529Y-1.9608
X5.074Y-1.3532
X5.074Y-1.6532
X5.0747Y-2.0566
X5.0747Y-2.3566
X5.174Y-1.3532
X5.174Y-1.6532
X5.1747Y-2.0566
X5.1747Y-2.3566
X5.2567Y-2.4721
X5.257Y-1.7634
X5.274Y-1.3532
X5.274Y-1.6532
X5.2747Y-2.0566
X5.2747Y-2.3566
X5.374Y-1.3532
X5.374Y-1.6532
X5.3747Y-2.0566
X5.3747Y-2.3566
X5.474Y-1.3532
X5.474Y-1.6532
X5.4747Y-2.0566
X5.4747Y-2.3566
X5.5649Y-1.7638
X5.5696Y-2.47
X5.574Y-1.3532
X5.574Y-1.6532
X5.5747Y-2.0566
X5.5747Y-2.3566
X5.674Y-1.3532
X5.674Y-1.6532
X5.6747Y-2.0566
X5.6747Y-2.3566
X5.774Y-1.3532
X5.774Y-1.6532
X5.7747Y-2.0566
X5.7747Y-2.3566
X5.8649Y-1.7638
X5.8696Y-2.47
X5.874Y-1.3532
X5.874Y-1.6532
X5.8747Y-2.0566
X5.8747Y-2.3566
T3
X2.1751Y-0.9304
X2.1751Y-1.0304
X2.1751Y-1.1304
X2.2Y-1.38
X2.2Y-1.48
X2.2Y-1.58
X2.22Y-2.08
X2.22Y-2.18
X2.22Y-2.28
X3.05Y-0.8743
X3.05Y-0.9743
X3.15Y-0.8743
X3.15Y-0.9743
X3.25Y-0.8743
X3.25Y-0.9743
X3.35Y-0.8743
X3.35Y-0.9743
X3.45Y-0.8743
X3.45Y-0.9743
X3.52Y-2.14
X3.52Y-2.24
X3.52Y-2.34
X3.55Y-0.8743
X3.55Y-0.9743
X3.5772Y-1.66
X3.5772Y-1.76
X3.5772Y-1.86
X3.65Y-0.8743
X3.65Y-0.9743
X3.75Y-0.8743
X3.75Y-0.9743
X3.85Y-0.8743
X3.85Y-0.9743
X3.95Y-0.8743
X3.95Y-0.9743
X4.05Y-0.8743
X4.05Y-0.9743
X4.15Y-0.8743
X4.15Y-0.9743
X4.25Y-0.8743
X4.25Y-0.9743
X4.35Y-0.8743
X4.35Y-0.9743
X4.45Y-0.8743
X4.45Y-0.9743
X4.55Y-0.8743
X4.55Y-0.9743
X4.65Y-0.8743
X4.65Y-0.9743
X4.75Y-0.8743
X4.75Y-0.9743
X4.8303Y-1.4656
X4.8303Y-1.5656
X4.8303Y-1.6656
X4.8424Y-2.1
X4.8424Y-2.2
X4.8424Y-2.3
X4.85Y-0.8743
X4.85Y-0.9743
X4.95Y-0.8743
X4.95Y-0.9743
T0
M30
