%TF.GenerationSoftware,KiCad,Pcbnew,(6.0.9-0)*%
%TF.CreationDate,2022-12-14T23:49:12+00:00*%
%TF.ProjectId,MSX_DE1_Hat,4d53585f-4445-4315-9f48-61742e6b6963,1.1*%
%TF.SameCoordinates,Original*%
%TF.FileFunction,Soldermask,Bot*%
%TF.FilePolarity,Negative*%
%FSLAX46Y46*%
G04 Gerber Fmt 4.6, Leading zero omitted, Abs format (unit mm)*
G04 Created by KiCad (PCBNEW (6.0.9-0)) date 2022-12-14 23:49:12*
%MOMM*%
%LPD*%
G01*
G04 APERTURE LIST*
%ADD10C,1.600000*%
%ADD11R,1.700000X1.700000*%
%ADD12O,1.700000X1.700000*%
%ADD13R,1.600000X1.600000*%
%ADD14O,1.600000X1.600000*%
%ADD15R,1.500000X11.000000*%
G04 APERTURE END LIST*
D10*
%TO.C,C1*%
X59396659Y-49582291D03*
X61896659Y-49582291D03*
%TD*%
%TO.C,C3*%
X90051103Y-50130479D03*
X87551103Y-50130479D03*
%TD*%
%TO.C,C2*%
X59282166Y-32103329D03*
X61782166Y-32103329D03*
%TD*%
D11*
%TO.C,J5*%
X89408000Y-54356000D03*
D12*
X89408000Y-56896000D03*
X89408000Y-59436000D03*
%TD*%
D11*
%TO.C,J1*%
X77470000Y-24747500D03*
D12*
X77470000Y-22207500D03*
X80010000Y-24747500D03*
X80010000Y-22207500D03*
X82550000Y-24747500D03*
X82550000Y-22207500D03*
X85090000Y-24747500D03*
X85090000Y-22207500D03*
X87630000Y-24747500D03*
X87630000Y-22207500D03*
X90170000Y-24747500D03*
X90170000Y-22207500D03*
X92710000Y-24747500D03*
X92710000Y-22207500D03*
X95250000Y-24747500D03*
X95250000Y-22207500D03*
X97790000Y-24747500D03*
X97790000Y-22207500D03*
X100330000Y-24747500D03*
X100330000Y-22207500D03*
X102870000Y-24747500D03*
X102870000Y-22207500D03*
X105410000Y-24747500D03*
X105410000Y-22207500D03*
X107950000Y-24747500D03*
X107950000Y-22207500D03*
X110490000Y-24747500D03*
X110490000Y-22207500D03*
X113030000Y-24747500D03*
X113030000Y-22207500D03*
X115570000Y-24747500D03*
X115570000Y-22207500D03*
X118110000Y-24747500D03*
X118110000Y-22207500D03*
X120650000Y-24747500D03*
X120650000Y-22207500D03*
X123190000Y-24747500D03*
X123190000Y-22207500D03*
X125730000Y-24747500D03*
X125730000Y-22207500D03*
%TD*%
D10*
%TO.C,C5*%
X125825897Y-31997953D03*
X128325897Y-31997953D03*
%TD*%
D13*
%TO.C,U5*%
X126340094Y-41991078D03*
D14*
X128880094Y-41991078D03*
X131420094Y-41991078D03*
X133960094Y-41991078D03*
X136500094Y-41991078D03*
X139040094Y-41991078D03*
X141580094Y-41991078D03*
X144120094Y-41991078D03*
X146660094Y-41991078D03*
X149200094Y-41991078D03*
X149200094Y-34371078D03*
X146660094Y-34371078D03*
X144120094Y-34371078D03*
X141580094Y-34371078D03*
X139040094Y-34371078D03*
X136500094Y-34371078D03*
X133960094Y-34371078D03*
X131420094Y-34371078D03*
X128880094Y-34371078D03*
X126340094Y-34371078D03*
%TD*%
D10*
%TO.C,C6*%
X98476309Y-38890789D03*
X95976309Y-38890789D03*
%TD*%
%TO.C,R4*%
X101008467Y-62598010D03*
D14*
X93388467Y-62598010D03*
%TD*%
D11*
%TO.C,J2*%
X90860506Y-42164000D03*
D12*
X90860506Y-44704000D03*
X90860506Y-47244000D03*
%TD*%
D13*
%TO.C,U3*%
X93268761Y-59816810D03*
D14*
X95808761Y-59816810D03*
X98348761Y-59816810D03*
X100888761Y-59816810D03*
X103428761Y-59816810D03*
X105968761Y-59816810D03*
X108508761Y-59816810D03*
X111048761Y-59816810D03*
X113588761Y-59816810D03*
X116128761Y-59816810D03*
X116128761Y-52196810D03*
X113588761Y-52196810D03*
X111048761Y-52196810D03*
X108508761Y-52196810D03*
X105968761Y-52196810D03*
X103428761Y-52196810D03*
X100888761Y-52196810D03*
X98348761Y-52196810D03*
X95808761Y-52196810D03*
X93268761Y-52196810D03*
%TD*%
D15*
%TO.C,CONN1*%
X138382025Y-80314405D03*
X135842025Y-80314405D03*
X133302025Y-80314405D03*
X130762025Y-80314405D03*
X128222025Y-80314405D03*
X125682025Y-80314405D03*
X123142025Y-80314405D03*
X120602025Y-80314405D03*
X118062025Y-80314405D03*
X115522025Y-80314405D03*
X112982025Y-80314405D03*
X110442025Y-80314405D03*
X107902025Y-80314405D03*
X105362025Y-80314405D03*
X102822025Y-80314405D03*
X100282025Y-80314405D03*
X97742025Y-80314405D03*
X95202025Y-80314405D03*
X92662025Y-80314405D03*
X90122025Y-80314405D03*
X87582025Y-80314405D03*
X85042025Y-80314405D03*
X82502025Y-80314405D03*
X79962025Y-80314405D03*
X77422025Y-80314405D03*
%TD*%
D11*
%TO.C,J3*%
X122689074Y-37226609D03*
D12*
X122689074Y-39766609D03*
X122689074Y-42306609D03*
%TD*%
D11*
%TO.C,J4*%
X122995848Y-53340000D03*
D12*
X122995848Y-55880000D03*
X122995848Y-58420000D03*
%TD*%
D11*
%TO.C,J7*%
X56388000Y-52832000D03*
D12*
X56388000Y-55372000D03*
X56388000Y-57912000D03*
%TD*%
D10*
%TO.C,R10*%
X72671821Y-49259272D03*
D14*
X65051821Y-49259272D03*
%TD*%
D10*
%TO.C,R5*%
X133528705Y-44789838D03*
D14*
X125908705Y-44789838D03*
%TD*%
D10*
%TO.C,R7*%
X141349182Y-44801723D03*
D14*
X148969182Y-44801723D03*
%TD*%
D10*
%TO.C,R8*%
X114841727Y-62777861D03*
D14*
X107221727Y-62777861D03*
%TD*%
D10*
%TO.C,R2*%
X73826094Y-62523366D03*
D14*
X66206094Y-62523366D03*
%TD*%
D13*
%TO.C,U6*%
X95735371Y-48920285D03*
D14*
X98275371Y-48920285D03*
X100815371Y-48920285D03*
X103355371Y-48920285D03*
X105895371Y-48920285D03*
X108435371Y-48920285D03*
X110975371Y-48920285D03*
X110975371Y-41300285D03*
X108435371Y-41300285D03*
X105895371Y-41300285D03*
X103355371Y-41300285D03*
X100815371Y-41300285D03*
X98275371Y-41300285D03*
X95735371Y-41300285D03*
%TD*%
D10*
%TO.C,R3*%
X133519314Y-62790942D03*
D14*
X125899314Y-62790942D03*
%TD*%
D13*
%TO.C,U1*%
X59838625Y-59680000D03*
D14*
X62378625Y-59680000D03*
X64918625Y-59680000D03*
X67458625Y-59680000D03*
X69998625Y-59680000D03*
X72538625Y-59680000D03*
X75078625Y-59680000D03*
X77618625Y-59680000D03*
X80158625Y-59680000D03*
X82698625Y-59680000D03*
X82698625Y-52060000D03*
X80158625Y-52060000D03*
X77618625Y-52060000D03*
X75078625Y-52060000D03*
X72538625Y-52060000D03*
X69998625Y-52060000D03*
X67458625Y-52060000D03*
X64918625Y-52060000D03*
X62378625Y-52060000D03*
X59838625Y-52060000D03*
%TD*%
D10*
%TO.C,R9*%
X82738457Y-44999999D03*
D14*
X75118457Y-44999999D03*
%TD*%
D13*
%TO.C,U2*%
X59751269Y-42090750D03*
D14*
X62291269Y-42090750D03*
X64831269Y-42090750D03*
X67371269Y-42090750D03*
X69911269Y-42090750D03*
X72451269Y-42090750D03*
X74991269Y-42090750D03*
X77531269Y-42090750D03*
X80071269Y-42090750D03*
X82611269Y-42090750D03*
X82611269Y-34470750D03*
X80071269Y-34470750D03*
X77531269Y-34470750D03*
X74991269Y-34470750D03*
X72451269Y-34470750D03*
X69911269Y-34470750D03*
X67371269Y-34470750D03*
X64831269Y-34470750D03*
X62291269Y-34470750D03*
X59751269Y-34470750D03*
%TD*%
D10*
%TO.C,R1*%
X65278000Y-45212000D03*
D14*
X57658000Y-45212000D03*
%TD*%
D10*
%TO.C,R6*%
X149087772Y-62738091D03*
D14*
X141467772Y-62738091D03*
%TD*%
D10*
%TO.C,C4*%
X125844258Y-49804272D03*
X128344258Y-49804272D03*
%TD*%
D11*
%TO.C,J8*%
X55247838Y-23631758D03*
D12*
X55247838Y-26171758D03*
X55247838Y-28711758D03*
%TD*%
D11*
%TO.C,J6*%
X55880000Y-35052000D03*
D12*
X55880000Y-37592000D03*
X55880000Y-40132000D03*
%TD*%
D13*
%TO.C,U4*%
X126356514Y-59858244D03*
D14*
X128896514Y-59858244D03*
X131436514Y-59858244D03*
X133976514Y-59858244D03*
X136516514Y-59858244D03*
X139056514Y-59858244D03*
X141596514Y-59858244D03*
X144136514Y-59858244D03*
X146676514Y-59858244D03*
X149216514Y-59858244D03*
X149216514Y-52238244D03*
X146676514Y-52238244D03*
X144136514Y-52238244D03*
X141596514Y-52238244D03*
X139056514Y-52238244D03*
X136516514Y-52238244D03*
X133976514Y-52238244D03*
X131436514Y-52238244D03*
X128896514Y-52238244D03*
X126356514Y-52238244D03*
%TD*%
M02*
