%TF.GenerationSoftware,KiCad,Pcbnew,(6.0.9-0)*%
%TF.CreationDate,2022-12-14T23:49:09+00:00*%
%TF.ProjectId,MSX_DE1_Hat,4d53585f-4445-4315-9f48-61742e6b6963,1.1*%
%TF.SameCoordinates,Original*%
%TF.FileFunction,Drillmap*%
%TF.FilePolarity,Positive*%
%FSLAX45Y45*%
G04 Gerber Fmt 4.5, Leading zero omitted, Abs format (unit mm)*
G04 Created by KiCad (PCBNEW (6.0.9-0)) date 2022-12-14 23:49:09*
%MOMM*%
%LPD*%
G01*
G04 APERTURE LIST*
%ADD10C,0.200000*%
%ADD11C,0.040000*%
%ADD12C,0.080000*%
%ADD13C,0.100000*%
G04 APERTURE END LIST*
D10*
D11*
X6330108Y-5577454D02*
X6370108Y-5617454D01*
X6370108Y-5577454D02*
X6330108Y-5617454D01*
X6405927Y-5442964D02*
X6445927Y-5482964D01*
X6445927Y-5442964D02*
X6405927Y-5482964D01*
X6480000Y-3980000D02*
X6520000Y-4020000D01*
X6520000Y-3980000D02*
X6480000Y-4020000D01*
X6846204Y-3596757D02*
X6886204Y-3636757D01*
X6886204Y-3596757D02*
X6846204Y-3636757D01*
X7253515Y-4478955D02*
X7293515Y-4518955D01*
X7293515Y-4478955D02*
X7253515Y-4518955D01*
X7295200Y-5568000D02*
X7335200Y-5608000D01*
X7335200Y-5568000D02*
X7295200Y-5608000D01*
X7447600Y-5568000D02*
X7487600Y-5608000D01*
X7487600Y-5568000D02*
X7447600Y-5608000D01*
X7727000Y-3917000D02*
X7767000Y-3957000D01*
X7767000Y-3917000D02*
X7727000Y-3957000D01*
X7879048Y-3919998D02*
X7919048Y-3959998D01*
X7919048Y-3919998D02*
X7879048Y-3959998D01*
X7904800Y-7041200D02*
X7944800Y-7081200D01*
X7944800Y-7041200D02*
X7904800Y-7081200D01*
X8006000Y-7352127D02*
X8046000Y-7392127D01*
X8046000Y-7352127D02*
X8006000Y-7392127D01*
X8045090Y-4362211D02*
X8085090Y-4402211D01*
X8085090Y-4362211D02*
X8045090Y-4402211D01*
X8526164Y-5836235D02*
X8566164Y-5876235D01*
X8566164Y-5836235D02*
X8526164Y-5876235D01*
X8717600Y-6431600D02*
X8757600Y-6471600D01*
X8757600Y-6431600D02*
X8717600Y-6471600D01*
X8816253Y-7361970D02*
X8856253Y-7401970D01*
X8856253Y-7361970D02*
X8816253Y-7401970D01*
X9505000Y-5695000D02*
X9545000Y-5735000D01*
X9545000Y-5695000D02*
X9505000Y-5735000D01*
X9530273Y-2875509D02*
X9570273Y-2915509D01*
X9570273Y-2875509D02*
X9530273Y-2915509D01*
X9886000Y-3383600D02*
X9926000Y-3423600D01*
X9926000Y-3383600D02*
X9886000Y-3423600D01*
X10444800Y-6228400D02*
X10484800Y-6268400D01*
X10484800Y-6228400D02*
X10444800Y-6268400D01*
X10473729Y-5720594D02*
X10513729Y-5760594D01*
X10513729Y-5720594D02*
X10473729Y-5760594D01*
X10475872Y-5599972D02*
X10515872Y-5639972D01*
X10515872Y-5599972D02*
X10475872Y-5639972D01*
X10902000Y-6736400D02*
X10942000Y-6776400D01*
X10942000Y-6736400D02*
X10902000Y-6776400D01*
X11064866Y-5602814D02*
X11104866Y-5642814D01*
X11104866Y-5602814D02*
X11064866Y-5642814D01*
X11664000Y-6533200D02*
X11704000Y-6573200D01*
X11704000Y-6533200D02*
X11664000Y-6573200D01*
X11702218Y-6124182D02*
X11742218Y-6164182D01*
X11742218Y-6124182D02*
X11702218Y-6164182D01*
X11714800Y-4653600D02*
X11754800Y-4693600D01*
X11754800Y-4653600D02*
X11714800Y-4693600D01*
X11803956Y-6033645D02*
X11843956Y-6073645D01*
X11843956Y-6033645D02*
X11803956Y-6073645D01*
X11816400Y-3688400D02*
X11856400Y-3728400D01*
X11856400Y-3688400D02*
X11816400Y-3728400D01*
X11816400Y-6228400D02*
X11856400Y-6268400D01*
X11856400Y-6228400D02*
X11816400Y-6268400D01*
X11918000Y-6685600D02*
X11958000Y-6725600D01*
X11958000Y-6685600D02*
X11918000Y-6725600D01*
X12172000Y-4806000D02*
X12212000Y-4846000D01*
X12212000Y-4806000D02*
X12172000Y-4846000D01*
X12215812Y-6920128D02*
X12255812Y-6960128D01*
X12255812Y-6920128D02*
X12215812Y-6960128D01*
X12222800Y-6482400D02*
X12262800Y-6522400D01*
X12262800Y-6482400D02*
X12222800Y-6522400D01*
X12277135Y-4778361D02*
X12317135Y-4818361D01*
X12317135Y-4778361D02*
X12277135Y-4818361D01*
X12309583Y-7315839D02*
X12349583Y-7355839D01*
X12349583Y-7315839D02*
X12309583Y-7355839D01*
X12375200Y-3028000D02*
X12415200Y-3068000D01*
X12415200Y-3028000D02*
X12375200Y-3068000D01*
X12375200Y-4704400D02*
X12415200Y-4744400D01*
X12415200Y-4704400D02*
X12375200Y-4744400D01*
X12572051Y-7328887D02*
X12612051Y-7368887D01*
X12612051Y-7328887D02*
X12572051Y-7368887D01*
X12578400Y-6482400D02*
X12618400Y-6522400D01*
X12618400Y-6482400D02*
X12578400Y-6522400D01*
X12804513Y-5392687D02*
X12844513Y-5432687D01*
X12844513Y-5392687D02*
X12804513Y-5432687D01*
X12892718Y-3628163D02*
X12932718Y-3668163D01*
X12932718Y-3628163D02*
X12892718Y-3668163D01*
X13086400Y-3942400D02*
X13126400Y-3982400D01*
X13126400Y-3942400D02*
X13086400Y-3982400D01*
X13114927Y-5523654D02*
X13154927Y-5563654D01*
X13154927Y-5523654D02*
X13114927Y-5563654D01*
X13124942Y-4884616D02*
X13164942Y-4924616D01*
X13164942Y-4884616D02*
X13124942Y-4924616D01*
X13137200Y-4704400D02*
X13177200Y-4744400D01*
X13177200Y-4704400D02*
X13137200Y-4744400D01*
X13696000Y-4704400D02*
X13736000Y-4744400D01*
X13736000Y-4704400D02*
X13696000Y-4744400D01*
X13696000Y-4856800D02*
X13736000Y-4896800D01*
X13736000Y-4856800D02*
X13696000Y-4896800D01*
X13696000Y-6480000D02*
X13736000Y-6520000D01*
X13736000Y-6480000D02*
X13696000Y-6520000D01*
X13826555Y-5526300D02*
X13866555Y-5566300D01*
X13866555Y-5526300D02*
X13826555Y-5566300D01*
X13926451Y-4829549D02*
X13966451Y-4869549D01*
X13966451Y-4829549D02*
X13926451Y-4869549D01*
D12*
X5805800Y-4521200D02*
G75*
G03*
X5805800Y-4521200I-40000J0D01*
G01*
X5968217Y-3210333D02*
G75*
G03*
X5968217Y-3210333I-40000J0D01*
G01*
X5979666Y-4958229D02*
G75*
G03*
X5979666Y-4958229I-40000J0D01*
G01*
X6015127Y-3447075D02*
G75*
G03*
X6015127Y-3447075I-40000J0D01*
G01*
X6015127Y-4209075D02*
G75*
G03*
X6015127Y-4209075I-40000J0D01*
G01*
X6023862Y-5206000D02*
G75*
G03*
X6023862Y-5206000I-40000J0D01*
G01*
X6023862Y-5968000D02*
G75*
G03*
X6023862Y-5968000I-40000J0D01*
G01*
X6218217Y-3210333D02*
G75*
G03*
X6218217Y-3210333I-40000J0D01*
G01*
X6229666Y-4958229D02*
G75*
G03*
X6229666Y-4958229I-40000J0D01*
G01*
X6269127Y-3447075D02*
G75*
G03*
X6269127Y-3447075I-40000J0D01*
G01*
X6269127Y-4209075D02*
G75*
G03*
X6269127Y-4209075I-40000J0D01*
G01*
X6277862Y-5206000D02*
G75*
G03*
X6277862Y-5206000I-40000J0D01*
G01*
X6277862Y-5968000D02*
G75*
G03*
X6277862Y-5968000I-40000J0D01*
G01*
X6523127Y-3447075D02*
G75*
G03*
X6523127Y-3447075I-40000J0D01*
G01*
X6523127Y-4209075D02*
G75*
G03*
X6523127Y-4209075I-40000J0D01*
G01*
X6531862Y-5206000D02*
G75*
G03*
X6531862Y-5206000I-40000J0D01*
G01*
X6531862Y-5968000D02*
G75*
G03*
X6531862Y-5968000I-40000J0D01*
G01*
X6545182Y-4925927D02*
G75*
G03*
X6545182Y-4925927I-40000J0D01*
G01*
X6567800Y-4521200D02*
G75*
G03*
X6567800Y-4521200I-40000J0D01*
G01*
X6660609Y-6252337D02*
G75*
G03*
X6660609Y-6252337I-40000J0D01*
G01*
X6777127Y-3447075D02*
G75*
G03*
X6777127Y-3447075I-40000J0D01*
G01*
X6777127Y-4209075D02*
G75*
G03*
X6777127Y-4209075I-40000J0D01*
G01*
X6785862Y-5206000D02*
G75*
G03*
X6785862Y-5206000I-40000J0D01*
G01*
X6785862Y-5968000D02*
G75*
G03*
X6785862Y-5968000I-40000J0D01*
G01*
X7031127Y-3447075D02*
G75*
G03*
X7031127Y-3447075I-40000J0D01*
G01*
X7031127Y-4209075D02*
G75*
G03*
X7031127Y-4209075I-40000J0D01*
G01*
X7039862Y-5206000D02*
G75*
G03*
X7039862Y-5206000I-40000J0D01*
G01*
X7039862Y-5968000D02*
G75*
G03*
X7039862Y-5968000I-40000J0D01*
G01*
X7285127Y-3447075D02*
G75*
G03*
X7285127Y-3447075I-40000J0D01*
G01*
X7285127Y-4209075D02*
G75*
G03*
X7285127Y-4209075I-40000J0D01*
G01*
X7293862Y-5206000D02*
G75*
G03*
X7293862Y-5206000I-40000J0D01*
G01*
X7293862Y-5968000D02*
G75*
G03*
X7293862Y-5968000I-40000J0D01*
G01*
X7307182Y-4925927D02*
G75*
G03*
X7307182Y-4925927I-40000J0D01*
G01*
X7422609Y-6252337D02*
G75*
G03*
X7422609Y-6252337I-40000J0D01*
G01*
X7539127Y-3447075D02*
G75*
G03*
X7539127Y-3447075I-40000J0D01*
G01*
X7539127Y-4209075D02*
G75*
G03*
X7539127Y-4209075I-40000J0D01*
G01*
X7547862Y-5206000D02*
G75*
G03*
X7547862Y-5206000I-40000J0D01*
G01*
X7547862Y-5968000D02*
G75*
G03*
X7547862Y-5968000I-40000J0D01*
G01*
X7551846Y-4500000D02*
G75*
G03*
X7551846Y-4500000I-40000J0D01*
G01*
X7793127Y-3447075D02*
G75*
G03*
X7793127Y-3447075I-40000J0D01*
G01*
X7793127Y-4209075D02*
G75*
G03*
X7793127Y-4209075I-40000J0D01*
G01*
X7801862Y-5206000D02*
G75*
G03*
X7801862Y-5206000I-40000J0D01*
G01*
X7801862Y-5968000D02*
G75*
G03*
X7801862Y-5968000I-40000J0D01*
G01*
X8047127Y-3447075D02*
G75*
G03*
X8047127Y-3447075I-40000J0D01*
G01*
X8047127Y-4209075D02*
G75*
G03*
X8047127Y-4209075I-40000J0D01*
G01*
X8055862Y-5206000D02*
G75*
G03*
X8055862Y-5206000I-40000J0D01*
G01*
X8055862Y-5968000D02*
G75*
G03*
X8055862Y-5968000I-40000J0D01*
G01*
X8301127Y-3447075D02*
G75*
G03*
X8301127Y-3447075I-40000J0D01*
G01*
X8301127Y-4209075D02*
G75*
G03*
X8301127Y-4209075I-40000J0D01*
G01*
X8309862Y-5206000D02*
G75*
G03*
X8309862Y-5206000I-40000J0D01*
G01*
X8309862Y-5968000D02*
G75*
G03*
X8309862Y-5968000I-40000J0D01*
G01*
X8313846Y-4500000D02*
G75*
G03*
X8313846Y-4500000I-40000J0D01*
G01*
X8795110Y-5013048D02*
G75*
G03*
X8795110Y-5013048I-40000J0D01*
G01*
X9045110Y-5013048D02*
G75*
G03*
X9045110Y-5013048I-40000J0D01*
G01*
X9366876Y-5219681D02*
G75*
G03*
X9366876Y-5219681I-40000J0D01*
G01*
X9366876Y-5981681D02*
G75*
G03*
X9366876Y-5981681I-40000J0D01*
G01*
X9378847Y-6259801D02*
G75*
G03*
X9378847Y-6259801I-40000J0D01*
G01*
X9613537Y-4130028D02*
G75*
G03*
X9613537Y-4130028I-40000J0D01*
G01*
X9613537Y-4892029D02*
G75*
G03*
X9613537Y-4892029I-40000J0D01*
G01*
X9620876Y-5219681D02*
G75*
G03*
X9620876Y-5219681I-40000J0D01*
G01*
X9620876Y-5981681D02*
G75*
G03*
X9620876Y-5981681I-40000J0D01*
G01*
X9637631Y-3889079D02*
G75*
G03*
X9637631Y-3889079I-40000J0D01*
G01*
X9867537Y-4130028D02*
G75*
G03*
X9867537Y-4130028I-40000J0D01*
G01*
X9867537Y-4892029D02*
G75*
G03*
X9867537Y-4892029I-40000J0D01*
G01*
X9874876Y-5219681D02*
G75*
G03*
X9874876Y-5219681I-40000J0D01*
G01*
X9874876Y-5981681D02*
G75*
G03*
X9874876Y-5981681I-40000J0D01*
G01*
X9887631Y-3889079D02*
G75*
G03*
X9887631Y-3889079I-40000J0D01*
G01*
X10121537Y-4130028D02*
G75*
G03*
X10121537Y-4130028I-40000J0D01*
G01*
X10121537Y-4892029D02*
G75*
G03*
X10121537Y-4892029I-40000J0D01*
G01*
X10128876Y-5219681D02*
G75*
G03*
X10128876Y-5219681I-40000J0D01*
G01*
X10128876Y-5981681D02*
G75*
G03*
X10128876Y-5981681I-40000J0D01*
G01*
X10140847Y-6259801D02*
G75*
G03*
X10140847Y-6259801I-40000J0D01*
G01*
X10375537Y-4130028D02*
G75*
G03*
X10375537Y-4130028I-40000J0D01*
G01*
X10375537Y-4892029D02*
G75*
G03*
X10375537Y-4892029I-40000J0D01*
G01*
X10382876Y-5219681D02*
G75*
G03*
X10382876Y-5219681I-40000J0D01*
G01*
X10382876Y-5981681D02*
G75*
G03*
X10382876Y-5981681I-40000J0D01*
G01*
X10629537Y-4130028D02*
G75*
G03*
X10629537Y-4130028I-40000J0D01*
G01*
X10629537Y-4892029D02*
G75*
G03*
X10629537Y-4892029I-40000J0D01*
G01*
X10636876Y-5219681D02*
G75*
G03*
X10636876Y-5219681I-40000J0D01*
G01*
X10636876Y-5981681D02*
G75*
G03*
X10636876Y-5981681I-40000J0D01*
G01*
X10762173Y-6277786D02*
G75*
G03*
X10762173Y-6277786I-40000J0D01*
G01*
X10883537Y-4130028D02*
G75*
G03*
X10883537Y-4130028I-40000J0D01*
G01*
X10883537Y-4892029D02*
G75*
G03*
X10883537Y-4892029I-40000J0D01*
G01*
X10890876Y-5219681D02*
G75*
G03*
X10890876Y-5219681I-40000J0D01*
G01*
X10890876Y-5981681D02*
G75*
G03*
X10890876Y-5981681I-40000J0D01*
G01*
X11137537Y-4130028D02*
G75*
G03*
X11137537Y-4130028I-40000J0D01*
G01*
X11137537Y-4892029D02*
G75*
G03*
X11137537Y-4892029I-40000J0D01*
G01*
X11144876Y-5219681D02*
G75*
G03*
X11144876Y-5219681I-40000J0D01*
G01*
X11144876Y-5981681D02*
G75*
G03*
X11144876Y-5981681I-40000J0D01*
G01*
X11398876Y-5219681D02*
G75*
G03*
X11398876Y-5219681I-40000J0D01*
G01*
X11398876Y-5981681D02*
G75*
G03*
X11398876Y-5981681I-40000J0D01*
G01*
X11524173Y-6277786D02*
G75*
G03*
X11524173Y-6277786I-40000J0D01*
G01*
X11652876Y-5219681D02*
G75*
G03*
X11652876Y-5219681I-40000J0D01*
G01*
X11652876Y-5981681D02*
G75*
G03*
X11652876Y-5981681I-40000J0D01*
G01*
X12622590Y-3199795D02*
G75*
G03*
X12622590Y-3199795I-40000J0D01*
G01*
X12624426Y-4980427D02*
G75*
G03*
X12624426Y-4980427I-40000J0D01*
G01*
X12629931Y-6279094D02*
G75*
G03*
X12629931Y-6279094I-40000J0D01*
G01*
X12630870Y-4478984D02*
G75*
G03*
X12630870Y-4478984I-40000J0D01*
G01*
X12674009Y-3437108D02*
G75*
G03*
X12674009Y-3437108I-40000J0D01*
G01*
X12674009Y-4199108D02*
G75*
G03*
X12674009Y-4199108I-40000J0D01*
G01*
X12675651Y-5223824D02*
G75*
G03*
X12675651Y-5223824I-40000J0D01*
G01*
X12675651Y-5985824D02*
G75*
G03*
X12675651Y-5985824I-40000J0D01*
G01*
X12872590Y-3199795D02*
G75*
G03*
X12872590Y-3199795I-40000J0D01*
G01*
X12874426Y-4980427D02*
G75*
G03*
X12874426Y-4980427I-40000J0D01*
G01*
X12928009Y-3437108D02*
G75*
G03*
X12928009Y-3437108I-40000J0D01*
G01*
X12928009Y-4199108D02*
G75*
G03*
X12928009Y-4199108I-40000J0D01*
G01*
X12929651Y-5223824D02*
G75*
G03*
X12929651Y-5223824I-40000J0D01*
G01*
X12929651Y-5985824D02*
G75*
G03*
X12929651Y-5985824I-40000J0D01*
G01*
X13182009Y-3437108D02*
G75*
G03*
X13182009Y-3437108I-40000J0D01*
G01*
X13182009Y-4199108D02*
G75*
G03*
X13182009Y-4199108I-40000J0D01*
G01*
X13183651Y-5223824D02*
G75*
G03*
X13183651Y-5223824I-40000J0D01*
G01*
X13183651Y-5985824D02*
G75*
G03*
X13183651Y-5985824I-40000J0D01*
G01*
X13391931Y-6279094D02*
G75*
G03*
X13391931Y-6279094I-40000J0D01*
G01*
X13392870Y-4478984D02*
G75*
G03*
X13392870Y-4478984I-40000J0D01*
G01*
X13436009Y-3437108D02*
G75*
G03*
X13436009Y-3437108I-40000J0D01*
G01*
X13436009Y-4199108D02*
G75*
G03*
X13436009Y-4199108I-40000J0D01*
G01*
X13437651Y-5223824D02*
G75*
G03*
X13437651Y-5223824I-40000J0D01*
G01*
X13437651Y-5985824D02*
G75*
G03*
X13437651Y-5985824I-40000J0D01*
G01*
X13690009Y-3437108D02*
G75*
G03*
X13690009Y-3437108I-40000J0D01*
G01*
X13690009Y-4199108D02*
G75*
G03*
X13690009Y-4199108I-40000J0D01*
G01*
X13691651Y-5223824D02*
G75*
G03*
X13691651Y-5223824I-40000J0D01*
G01*
X13691651Y-5985824D02*
G75*
G03*
X13691651Y-5985824I-40000J0D01*
G01*
X13944009Y-3437108D02*
G75*
G03*
X13944009Y-3437108I-40000J0D01*
G01*
X13944009Y-4199108D02*
G75*
G03*
X13944009Y-4199108I-40000J0D01*
G01*
X13945651Y-5223824D02*
G75*
G03*
X13945651Y-5223824I-40000J0D01*
G01*
X13945651Y-5985824D02*
G75*
G03*
X13945651Y-5985824I-40000J0D01*
G01*
X14174918Y-4480172D02*
G75*
G03*
X14174918Y-4480172I-40000J0D01*
G01*
X14186777Y-6273809D02*
G75*
G03*
X14186777Y-6273809I-40000J0D01*
G01*
X14198009Y-3437108D02*
G75*
G03*
X14198009Y-3437108I-40000J0D01*
G01*
X14198009Y-4199108D02*
G75*
G03*
X14198009Y-4199108I-40000J0D01*
G01*
X14199651Y-5223824D02*
G75*
G03*
X14199651Y-5223824I-40000J0D01*
G01*
X14199651Y-5985824D02*
G75*
G03*
X14199651Y-5985824I-40000J0D01*
G01*
X14452009Y-3437108D02*
G75*
G03*
X14452009Y-3437108I-40000J0D01*
G01*
X14452009Y-4199108D02*
G75*
G03*
X14452009Y-4199108I-40000J0D01*
G01*
X14453651Y-5223824D02*
G75*
G03*
X14453651Y-5223824I-40000J0D01*
G01*
X14453651Y-5985824D02*
G75*
G03*
X14453651Y-5985824I-40000J0D01*
G01*
X14706009Y-3437108D02*
G75*
G03*
X14706009Y-3437108I-40000J0D01*
G01*
X14706009Y-4199108D02*
G75*
G03*
X14706009Y-4199108I-40000J0D01*
G01*
X14707651Y-5223824D02*
G75*
G03*
X14707651Y-5223824I-40000J0D01*
G01*
X14707651Y-5985824D02*
G75*
G03*
X14707651Y-5985824I-40000J0D01*
G01*
X14936918Y-4480172D02*
G75*
G03*
X14936918Y-4480172I-40000J0D01*
G01*
X14948777Y-6273809D02*
G75*
G03*
X14948777Y-6273809I-40000J0D01*
G01*
X14960009Y-3437108D02*
G75*
G03*
X14960009Y-3437108I-40000J0D01*
G01*
X14960009Y-4199108D02*
G75*
G03*
X14960009Y-4199108I-40000J0D01*
G01*
X14961651Y-5223824D02*
G75*
G03*
X14961651Y-5223824I-40000J0D01*
G01*
X14961651Y-5985824D02*
G75*
G03*
X14961651Y-5985824I-40000J0D01*
G01*
D13*
X5524784Y-2313176D02*
X5524784Y-2413176D01*
X5474784Y-2363176D02*
X5574784Y-2363176D01*
X5524784Y-2567176D02*
X5524784Y-2667176D01*
X5474784Y-2617176D02*
X5574784Y-2617176D01*
X5524784Y-2821176D02*
X5524784Y-2921176D01*
X5474784Y-2871176D02*
X5574784Y-2871176D01*
X5588000Y-3455200D02*
X5588000Y-3555200D01*
X5538000Y-3505200D02*
X5638000Y-3505200D01*
X5588000Y-3709200D02*
X5588000Y-3809200D01*
X5538000Y-3759200D02*
X5638000Y-3759200D01*
X5588000Y-3963200D02*
X5588000Y-4063200D01*
X5538000Y-4013200D02*
X5638000Y-4013200D01*
X5638800Y-5233200D02*
X5638800Y-5333200D01*
X5588800Y-5283200D02*
X5688800Y-5283200D01*
X5638800Y-5487200D02*
X5638800Y-5587200D01*
X5588800Y-5537200D02*
X5688800Y-5537200D01*
X5638800Y-5741200D02*
X5638800Y-5841200D01*
X5588800Y-5791200D02*
X5688800Y-5791200D01*
X7747000Y-2170750D02*
X7747000Y-2270750D01*
X7697000Y-2220750D02*
X7797000Y-2220750D01*
X7747000Y-2424750D02*
X7747000Y-2524750D01*
X7697000Y-2474750D02*
X7797000Y-2474750D01*
X8001000Y-2170750D02*
X8001000Y-2270750D01*
X7951000Y-2220750D02*
X8051000Y-2220750D01*
X8001000Y-2424750D02*
X8001000Y-2524750D01*
X7951000Y-2474750D02*
X8051000Y-2474750D01*
X8255000Y-2170750D02*
X8255000Y-2270750D01*
X8205000Y-2220750D02*
X8305000Y-2220750D01*
X8255000Y-2424750D02*
X8255000Y-2524750D01*
X8205000Y-2474750D02*
X8305000Y-2474750D01*
X8509000Y-2170750D02*
X8509000Y-2270750D01*
X8459000Y-2220750D02*
X8559000Y-2220750D01*
X8509000Y-2424750D02*
X8509000Y-2524750D01*
X8459000Y-2474750D02*
X8559000Y-2474750D01*
X8763000Y-2170750D02*
X8763000Y-2270750D01*
X8713000Y-2220750D02*
X8813000Y-2220750D01*
X8763000Y-2424750D02*
X8763000Y-2524750D01*
X8713000Y-2474750D02*
X8813000Y-2474750D01*
X8940800Y-5385600D02*
X8940800Y-5485600D01*
X8890800Y-5435600D02*
X8990800Y-5435600D01*
X8940800Y-5639600D02*
X8940800Y-5739600D01*
X8890800Y-5689600D02*
X8990800Y-5689600D01*
X8940800Y-5893600D02*
X8940800Y-5993600D01*
X8890800Y-5943600D02*
X8990800Y-5943600D01*
X9017000Y-2170750D02*
X9017000Y-2270750D01*
X8967000Y-2220750D02*
X9067000Y-2220750D01*
X9017000Y-2424750D02*
X9017000Y-2524750D01*
X8967000Y-2474750D02*
X9067000Y-2474750D01*
X9086051Y-4166400D02*
X9086051Y-4266400D01*
X9036051Y-4216400D02*
X9136051Y-4216400D01*
X9086051Y-4420400D02*
X9086051Y-4520400D01*
X9036051Y-4470400D02*
X9136051Y-4470400D01*
X9086051Y-4674400D02*
X9086051Y-4774400D01*
X9036051Y-4724400D02*
X9136051Y-4724400D01*
X9271000Y-2170750D02*
X9271000Y-2270750D01*
X9221000Y-2220750D02*
X9321000Y-2220750D01*
X9271000Y-2424750D02*
X9271000Y-2524750D01*
X9221000Y-2474750D02*
X9321000Y-2474750D01*
X9525000Y-2170750D02*
X9525000Y-2270750D01*
X9475000Y-2220750D02*
X9575000Y-2220750D01*
X9525000Y-2424750D02*
X9525000Y-2524750D01*
X9475000Y-2474750D02*
X9575000Y-2474750D01*
X9779000Y-2170750D02*
X9779000Y-2270750D01*
X9729000Y-2220750D02*
X9829000Y-2220750D01*
X9779000Y-2424750D02*
X9779000Y-2524750D01*
X9729000Y-2474750D02*
X9829000Y-2474750D01*
X10033000Y-2170750D02*
X10033000Y-2270750D01*
X9983000Y-2220750D02*
X10083000Y-2220750D01*
X10033000Y-2424750D02*
X10033000Y-2524750D01*
X9983000Y-2474750D02*
X10083000Y-2474750D01*
X10287000Y-2170750D02*
X10287000Y-2270750D01*
X10237000Y-2220750D02*
X10337000Y-2220750D01*
X10287000Y-2424750D02*
X10287000Y-2524750D01*
X10237000Y-2474750D02*
X10337000Y-2474750D01*
X10541000Y-2170750D02*
X10541000Y-2270750D01*
X10491000Y-2220750D02*
X10591000Y-2220750D01*
X10541000Y-2424750D02*
X10541000Y-2524750D01*
X10491000Y-2474750D02*
X10591000Y-2474750D01*
X10795000Y-2170750D02*
X10795000Y-2270750D01*
X10745000Y-2220750D02*
X10845000Y-2220750D01*
X10795000Y-2424750D02*
X10795000Y-2524750D01*
X10745000Y-2474750D02*
X10845000Y-2474750D01*
X11049000Y-2170750D02*
X11049000Y-2270750D01*
X10999000Y-2220750D02*
X11099000Y-2220750D01*
X11049000Y-2424750D02*
X11049000Y-2524750D01*
X10999000Y-2474750D02*
X11099000Y-2474750D01*
X11303000Y-2170750D02*
X11303000Y-2270750D01*
X11253000Y-2220750D02*
X11353000Y-2220750D01*
X11303000Y-2424750D02*
X11303000Y-2524750D01*
X11253000Y-2474750D02*
X11353000Y-2474750D01*
X11557000Y-2170750D02*
X11557000Y-2270750D01*
X11507000Y-2220750D02*
X11607000Y-2220750D01*
X11557000Y-2424750D02*
X11557000Y-2524750D01*
X11507000Y-2474750D02*
X11607000Y-2474750D01*
X11811000Y-2170750D02*
X11811000Y-2270750D01*
X11761000Y-2220750D02*
X11861000Y-2220750D01*
X11811000Y-2424750D02*
X11811000Y-2524750D01*
X11761000Y-2474750D02*
X11861000Y-2474750D01*
X12065000Y-2170750D02*
X12065000Y-2270750D01*
X12015000Y-2220750D02*
X12115000Y-2220750D01*
X12065000Y-2424750D02*
X12065000Y-2524750D01*
X12015000Y-2474750D02*
X12115000Y-2474750D01*
X12268907Y-3672661D02*
X12268907Y-3772661D01*
X12218907Y-3722661D02*
X12318907Y-3722661D01*
X12268907Y-3926661D02*
X12268907Y-4026661D01*
X12218907Y-3976661D02*
X12318907Y-3976661D01*
X12268907Y-4180661D02*
X12268907Y-4280661D01*
X12218907Y-4230661D02*
X12318907Y-4230661D01*
X12299585Y-5284000D02*
X12299585Y-5384000D01*
X12249585Y-5334000D02*
X12349585Y-5334000D01*
X12299585Y-5538000D02*
X12299585Y-5638000D01*
X12249585Y-5588000D02*
X12349585Y-5588000D01*
X12299585Y-5792000D02*
X12299585Y-5892000D01*
X12249585Y-5842000D02*
X12349585Y-5842000D01*
X12319000Y-2170750D02*
X12319000Y-2270750D01*
X12269000Y-2220750D02*
X12369000Y-2220750D01*
X12319000Y-2424750D02*
X12319000Y-2524750D01*
X12269000Y-2474750D02*
X12369000Y-2474750D01*
X12573000Y-2170750D02*
X12573000Y-2270750D01*
X12523000Y-2220750D02*
X12623000Y-2220750D01*
X12573000Y-2424750D02*
X12573000Y-2524750D01*
X12523000Y-2474750D02*
X12623000Y-2474750D01*
D10*
X5445619Y-8936476D02*
X5445619Y-8736476D01*
X5493238Y-8736476D01*
X5521810Y-8746000D01*
X5540857Y-8765048D01*
X5550381Y-8784095D01*
X5559905Y-8822190D01*
X5559905Y-8850762D01*
X5550381Y-8888857D01*
X5540857Y-8907905D01*
X5521810Y-8926952D01*
X5493238Y-8936476D01*
X5445619Y-8936476D01*
X5645619Y-8936476D02*
X5645619Y-8803143D01*
X5645619Y-8841238D02*
X5655143Y-8822190D01*
X5664667Y-8812667D01*
X5683714Y-8803143D01*
X5702762Y-8803143D01*
X5769428Y-8936476D02*
X5769428Y-8803143D01*
X5769428Y-8736476D02*
X5759905Y-8746000D01*
X5769428Y-8755524D01*
X5778952Y-8746000D01*
X5769428Y-8736476D01*
X5769428Y-8755524D01*
X5893238Y-8936476D02*
X5874190Y-8926952D01*
X5864667Y-8907905D01*
X5864667Y-8736476D01*
X5998000Y-8936476D02*
X5978952Y-8926952D01*
X5969428Y-8907905D01*
X5969428Y-8736476D01*
X6226571Y-8936476D02*
X6226571Y-8736476D01*
X6293238Y-8879333D01*
X6359905Y-8736476D01*
X6359905Y-8936476D01*
X6540857Y-8936476D02*
X6540857Y-8831714D01*
X6531333Y-8812667D01*
X6512286Y-8803143D01*
X6474190Y-8803143D01*
X6455143Y-8812667D01*
X6540857Y-8926952D02*
X6521809Y-8936476D01*
X6474190Y-8936476D01*
X6455143Y-8926952D01*
X6445619Y-8907905D01*
X6445619Y-8888857D01*
X6455143Y-8869810D01*
X6474190Y-8860286D01*
X6521809Y-8860286D01*
X6540857Y-8850762D01*
X6636095Y-8803143D02*
X6636095Y-9003143D01*
X6636095Y-8812667D02*
X6655143Y-8803143D01*
X6693238Y-8803143D01*
X6712286Y-8812667D01*
X6721809Y-8822190D01*
X6731333Y-8841238D01*
X6731333Y-8898381D01*
X6721809Y-8917429D01*
X6712286Y-8926952D01*
X6693238Y-8936476D01*
X6655143Y-8936476D01*
X6636095Y-8926952D01*
X6817048Y-8917429D02*
X6826571Y-8926952D01*
X6817048Y-8936476D01*
X6807524Y-8926952D01*
X6817048Y-8917429D01*
X6817048Y-8936476D01*
X6817048Y-8812667D02*
X6826571Y-8822190D01*
X6817048Y-8831714D01*
X6807524Y-8822190D01*
X6817048Y-8812667D01*
X6817048Y-8831714D01*
D11*
X5148000Y-9246000D02*
X5188000Y-9286000D01*
X5188000Y-9246000D02*
X5148000Y-9286000D01*
D10*
X5483714Y-9156476D02*
X5502762Y-9156476D01*
X5521810Y-9166000D01*
X5531333Y-9175524D01*
X5540857Y-9194571D01*
X5550381Y-9232667D01*
X5550381Y-9280286D01*
X5540857Y-9318381D01*
X5531333Y-9337429D01*
X5521810Y-9346952D01*
X5502762Y-9356476D01*
X5483714Y-9356476D01*
X5464667Y-9346952D01*
X5455143Y-9337429D01*
X5445619Y-9318381D01*
X5436095Y-9280286D01*
X5436095Y-9232667D01*
X5445619Y-9194571D01*
X5455143Y-9175524D01*
X5464667Y-9166000D01*
X5483714Y-9156476D01*
X5636095Y-9337429D02*
X5645619Y-9346952D01*
X5636095Y-9356476D01*
X5626571Y-9346952D01*
X5636095Y-9337429D01*
X5636095Y-9356476D01*
X5817048Y-9223143D02*
X5817048Y-9356476D01*
X5769428Y-9146952D02*
X5721809Y-9289810D01*
X5845619Y-9289810D01*
X5959905Y-9156476D02*
X5978952Y-9156476D01*
X5998000Y-9166000D01*
X6007524Y-9175524D01*
X6017048Y-9194571D01*
X6026571Y-9232667D01*
X6026571Y-9280286D01*
X6017048Y-9318381D01*
X6007524Y-9337429D01*
X5998000Y-9346952D01*
X5978952Y-9356476D01*
X5959905Y-9356476D01*
X5940857Y-9346952D01*
X5931333Y-9337429D01*
X5921809Y-9318381D01*
X5912286Y-9280286D01*
X5912286Y-9232667D01*
X5921809Y-9194571D01*
X5931333Y-9175524D01*
X5940857Y-9166000D01*
X5959905Y-9156476D01*
X6150381Y-9156476D02*
X6169428Y-9156476D01*
X6188476Y-9166000D01*
X6198000Y-9175524D01*
X6207524Y-9194571D01*
X6217048Y-9232667D01*
X6217048Y-9280286D01*
X6207524Y-9318381D01*
X6198000Y-9337429D01*
X6188476Y-9346952D01*
X6169428Y-9356476D01*
X6150381Y-9356476D01*
X6131333Y-9346952D01*
X6121809Y-9337429D01*
X6112286Y-9318381D01*
X6102762Y-9280286D01*
X6102762Y-9232667D01*
X6112286Y-9194571D01*
X6121809Y-9175524D01*
X6131333Y-9166000D01*
X6150381Y-9156476D01*
X6302762Y-9356476D02*
X6302762Y-9223143D01*
X6302762Y-9242190D02*
X6312286Y-9232667D01*
X6331333Y-9223143D01*
X6359905Y-9223143D01*
X6378952Y-9232667D01*
X6388476Y-9251714D01*
X6388476Y-9356476D01*
X6388476Y-9251714D02*
X6398000Y-9232667D01*
X6417048Y-9223143D01*
X6445619Y-9223143D01*
X6464667Y-9232667D01*
X6474190Y-9251714D01*
X6474190Y-9356476D01*
X6569428Y-9356476D02*
X6569428Y-9223143D01*
X6569428Y-9242190D02*
X6578952Y-9232667D01*
X6598000Y-9223143D01*
X6626571Y-9223143D01*
X6645619Y-9232667D01*
X6655143Y-9251714D01*
X6655143Y-9356476D01*
X6655143Y-9251714D02*
X6664667Y-9232667D01*
X6683714Y-9223143D01*
X6712286Y-9223143D01*
X6731333Y-9232667D01*
X6740857Y-9251714D01*
X6740857Y-9356476D01*
X7131333Y-9146952D02*
X6959905Y-9404095D01*
X7388476Y-9156476D02*
X7407524Y-9156476D01*
X7426571Y-9166000D01*
X7436095Y-9175524D01*
X7445619Y-9194571D01*
X7455143Y-9232667D01*
X7455143Y-9280286D01*
X7445619Y-9318381D01*
X7436095Y-9337429D01*
X7426571Y-9346952D01*
X7407524Y-9356476D01*
X7388476Y-9356476D01*
X7369428Y-9346952D01*
X7359905Y-9337429D01*
X7350381Y-9318381D01*
X7340857Y-9280286D01*
X7340857Y-9232667D01*
X7350381Y-9194571D01*
X7359905Y-9175524D01*
X7369428Y-9166000D01*
X7388476Y-9156476D01*
X7540857Y-9337429D02*
X7550381Y-9346952D01*
X7540857Y-9356476D01*
X7531333Y-9346952D01*
X7540857Y-9337429D01*
X7540857Y-9356476D01*
X7674190Y-9156476D02*
X7693238Y-9156476D01*
X7712286Y-9166000D01*
X7721809Y-9175524D01*
X7731333Y-9194571D01*
X7740857Y-9232667D01*
X7740857Y-9280286D01*
X7731333Y-9318381D01*
X7721809Y-9337429D01*
X7712286Y-9346952D01*
X7693238Y-9356476D01*
X7674190Y-9356476D01*
X7655143Y-9346952D01*
X7645619Y-9337429D01*
X7636095Y-9318381D01*
X7626571Y-9280286D01*
X7626571Y-9232667D01*
X7636095Y-9194571D01*
X7645619Y-9175524D01*
X7655143Y-9166000D01*
X7674190Y-9156476D01*
X7931333Y-9356476D02*
X7817048Y-9356476D01*
X7874190Y-9356476D02*
X7874190Y-9156476D01*
X7855143Y-9185048D01*
X7836095Y-9204095D01*
X7817048Y-9213619D01*
X8112286Y-9156476D02*
X8017048Y-9156476D01*
X8007524Y-9251714D01*
X8017048Y-9242190D01*
X8036095Y-9232667D01*
X8083714Y-9232667D01*
X8102762Y-9242190D01*
X8112286Y-9251714D01*
X8121809Y-9270762D01*
X8121809Y-9318381D01*
X8112286Y-9337429D01*
X8102762Y-9346952D01*
X8083714Y-9356476D01*
X8036095Y-9356476D01*
X8017048Y-9346952D01*
X8007524Y-9337429D01*
X8188476Y-9156476D02*
X8321809Y-9156476D01*
X8236095Y-9356476D01*
X8388476Y-9156476D02*
X8388476Y-9194571D01*
X8464667Y-9156476D02*
X8464667Y-9194571D01*
X8759905Y-9432667D02*
X8750381Y-9423143D01*
X8731333Y-9394571D01*
X8721810Y-9375524D01*
X8712286Y-9346952D01*
X8702762Y-9299333D01*
X8702762Y-9261238D01*
X8712286Y-9213619D01*
X8721810Y-9185048D01*
X8731333Y-9166000D01*
X8750381Y-9137429D01*
X8759905Y-9127905D01*
X8931333Y-9156476D02*
X8836095Y-9156476D01*
X8826571Y-9251714D01*
X8836095Y-9242190D01*
X8855143Y-9232667D01*
X8902762Y-9232667D01*
X8921810Y-9242190D01*
X8931333Y-9251714D01*
X8940857Y-9270762D01*
X8940857Y-9318381D01*
X8931333Y-9337429D01*
X8921810Y-9346952D01*
X8902762Y-9356476D01*
X8855143Y-9356476D01*
X8836095Y-9346952D01*
X8826571Y-9337429D01*
X9064667Y-9156476D02*
X9083714Y-9156476D01*
X9102762Y-9166000D01*
X9112286Y-9175524D01*
X9121810Y-9194571D01*
X9131333Y-9232667D01*
X9131333Y-9280286D01*
X9121810Y-9318381D01*
X9112286Y-9337429D01*
X9102762Y-9346952D01*
X9083714Y-9356476D01*
X9064667Y-9356476D01*
X9045619Y-9346952D01*
X9036095Y-9337429D01*
X9026571Y-9318381D01*
X9017048Y-9280286D01*
X9017048Y-9232667D01*
X9026571Y-9194571D01*
X9036095Y-9175524D01*
X9045619Y-9166000D01*
X9064667Y-9156476D01*
X9369429Y-9356476D02*
X9369429Y-9156476D01*
X9455143Y-9356476D02*
X9455143Y-9251714D01*
X9445619Y-9232667D01*
X9426571Y-9223143D01*
X9398000Y-9223143D01*
X9378952Y-9232667D01*
X9369429Y-9242190D01*
X9578952Y-9356476D02*
X9559905Y-9346952D01*
X9550381Y-9337429D01*
X9540857Y-9318381D01*
X9540857Y-9261238D01*
X9550381Y-9242190D01*
X9559905Y-9232667D01*
X9578952Y-9223143D01*
X9607524Y-9223143D01*
X9626571Y-9232667D01*
X9636095Y-9242190D01*
X9645619Y-9261238D01*
X9645619Y-9318381D01*
X9636095Y-9337429D01*
X9626571Y-9346952D01*
X9607524Y-9356476D01*
X9578952Y-9356476D01*
X9759905Y-9356476D02*
X9740857Y-9346952D01*
X9731333Y-9327905D01*
X9731333Y-9156476D01*
X9912286Y-9346952D02*
X9893238Y-9356476D01*
X9855143Y-9356476D01*
X9836095Y-9346952D01*
X9826571Y-9327905D01*
X9826571Y-9251714D01*
X9836095Y-9232667D01*
X9855143Y-9223143D01*
X9893238Y-9223143D01*
X9912286Y-9232667D01*
X9921810Y-9251714D01*
X9921810Y-9270762D01*
X9826571Y-9289810D01*
X9998000Y-9346952D02*
X10017048Y-9356476D01*
X10055143Y-9356476D01*
X10074190Y-9346952D01*
X10083714Y-9327905D01*
X10083714Y-9318381D01*
X10074190Y-9299333D01*
X10055143Y-9289810D01*
X10026571Y-9289810D01*
X10007524Y-9280286D01*
X9998000Y-9261238D01*
X9998000Y-9251714D01*
X10007524Y-9232667D01*
X10026571Y-9223143D01*
X10055143Y-9223143D01*
X10074190Y-9232667D01*
X10150381Y-9432667D02*
X10159905Y-9423143D01*
X10178952Y-9394571D01*
X10188476Y-9375524D01*
X10198000Y-9346952D01*
X10207524Y-9299333D01*
X10207524Y-9261238D01*
X10198000Y-9213619D01*
X10188476Y-9185048D01*
X10178952Y-9166000D01*
X10159905Y-9137429D01*
X10150381Y-9127905D01*
D12*
X5188000Y-9530000D02*
G75*
G03*
X5188000Y-9530000I-40000J0D01*
G01*
D10*
X5483714Y-9420476D02*
X5502762Y-9420476D01*
X5521810Y-9430000D01*
X5531333Y-9439524D01*
X5540857Y-9458571D01*
X5550381Y-9496667D01*
X5550381Y-9544286D01*
X5540857Y-9582381D01*
X5531333Y-9601429D01*
X5521810Y-9610952D01*
X5502762Y-9620476D01*
X5483714Y-9620476D01*
X5464667Y-9610952D01*
X5455143Y-9601429D01*
X5445619Y-9582381D01*
X5436095Y-9544286D01*
X5436095Y-9496667D01*
X5445619Y-9458571D01*
X5455143Y-9439524D01*
X5464667Y-9430000D01*
X5483714Y-9420476D01*
X5636095Y-9601429D02*
X5645619Y-9610952D01*
X5636095Y-9620476D01*
X5626571Y-9610952D01*
X5636095Y-9601429D01*
X5636095Y-9620476D01*
X5759905Y-9506190D02*
X5740857Y-9496667D01*
X5731333Y-9487143D01*
X5721809Y-9468095D01*
X5721809Y-9458571D01*
X5731333Y-9439524D01*
X5740857Y-9430000D01*
X5759905Y-9420476D01*
X5798000Y-9420476D01*
X5817048Y-9430000D01*
X5826571Y-9439524D01*
X5836095Y-9458571D01*
X5836095Y-9468095D01*
X5826571Y-9487143D01*
X5817048Y-9496667D01*
X5798000Y-9506190D01*
X5759905Y-9506190D01*
X5740857Y-9515714D01*
X5731333Y-9525238D01*
X5721809Y-9544286D01*
X5721809Y-9582381D01*
X5731333Y-9601429D01*
X5740857Y-9610952D01*
X5759905Y-9620476D01*
X5798000Y-9620476D01*
X5817048Y-9610952D01*
X5826571Y-9601429D01*
X5836095Y-9582381D01*
X5836095Y-9544286D01*
X5826571Y-9525238D01*
X5817048Y-9515714D01*
X5798000Y-9506190D01*
X5959905Y-9420476D02*
X5978952Y-9420476D01*
X5998000Y-9430000D01*
X6007524Y-9439524D01*
X6017048Y-9458571D01*
X6026571Y-9496667D01*
X6026571Y-9544286D01*
X6017048Y-9582381D01*
X6007524Y-9601429D01*
X5998000Y-9610952D01*
X5978952Y-9620476D01*
X5959905Y-9620476D01*
X5940857Y-9610952D01*
X5931333Y-9601429D01*
X5921809Y-9582381D01*
X5912286Y-9544286D01*
X5912286Y-9496667D01*
X5921809Y-9458571D01*
X5931333Y-9439524D01*
X5940857Y-9430000D01*
X5959905Y-9420476D01*
X6150381Y-9420476D02*
X6169428Y-9420476D01*
X6188476Y-9430000D01*
X6198000Y-9439524D01*
X6207524Y-9458571D01*
X6217048Y-9496667D01*
X6217048Y-9544286D01*
X6207524Y-9582381D01*
X6198000Y-9601429D01*
X6188476Y-9610952D01*
X6169428Y-9620476D01*
X6150381Y-9620476D01*
X6131333Y-9610952D01*
X6121809Y-9601429D01*
X6112286Y-9582381D01*
X6102762Y-9544286D01*
X6102762Y-9496667D01*
X6112286Y-9458571D01*
X6121809Y-9439524D01*
X6131333Y-9430000D01*
X6150381Y-9420476D01*
X6302762Y-9620476D02*
X6302762Y-9487143D01*
X6302762Y-9506190D02*
X6312286Y-9496667D01*
X6331333Y-9487143D01*
X6359905Y-9487143D01*
X6378952Y-9496667D01*
X6388476Y-9515714D01*
X6388476Y-9620476D01*
X6388476Y-9515714D02*
X6398000Y-9496667D01*
X6417048Y-9487143D01*
X6445619Y-9487143D01*
X6464667Y-9496667D01*
X6474190Y-9515714D01*
X6474190Y-9620476D01*
X6569428Y-9620476D02*
X6569428Y-9487143D01*
X6569428Y-9506190D02*
X6578952Y-9496667D01*
X6598000Y-9487143D01*
X6626571Y-9487143D01*
X6645619Y-9496667D01*
X6655143Y-9515714D01*
X6655143Y-9620476D01*
X6655143Y-9515714D02*
X6664667Y-9496667D01*
X6683714Y-9487143D01*
X6712286Y-9487143D01*
X6731333Y-9496667D01*
X6740857Y-9515714D01*
X6740857Y-9620476D01*
X7131333Y-9410952D02*
X6959905Y-9668095D01*
X7388476Y-9420476D02*
X7407524Y-9420476D01*
X7426571Y-9430000D01*
X7436095Y-9439524D01*
X7445619Y-9458571D01*
X7455143Y-9496667D01*
X7455143Y-9544286D01*
X7445619Y-9582381D01*
X7436095Y-9601429D01*
X7426571Y-9610952D01*
X7407524Y-9620476D01*
X7388476Y-9620476D01*
X7369428Y-9610952D01*
X7359905Y-9601429D01*
X7350381Y-9582381D01*
X7340857Y-9544286D01*
X7340857Y-9496667D01*
X7350381Y-9458571D01*
X7359905Y-9439524D01*
X7369428Y-9430000D01*
X7388476Y-9420476D01*
X7540857Y-9601429D02*
X7550381Y-9610952D01*
X7540857Y-9620476D01*
X7531333Y-9610952D01*
X7540857Y-9601429D01*
X7540857Y-9620476D01*
X7674190Y-9420476D02*
X7693238Y-9420476D01*
X7712286Y-9430000D01*
X7721809Y-9439524D01*
X7731333Y-9458571D01*
X7740857Y-9496667D01*
X7740857Y-9544286D01*
X7731333Y-9582381D01*
X7721809Y-9601429D01*
X7712286Y-9610952D01*
X7693238Y-9620476D01*
X7674190Y-9620476D01*
X7655143Y-9610952D01*
X7645619Y-9601429D01*
X7636095Y-9582381D01*
X7626571Y-9544286D01*
X7626571Y-9496667D01*
X7636095Y-9458571D01*
X7645619Y-9439524D01*
X7655143Y-9430000D01*
X7674190Y-9420476D01*
X7807524Y-9420476D02*
X7931333Y-9420476D01*
X7864667Y-9496667D01*
X7893238Y-9496667D01*
X7912286Y-9506190D01*
X7921809Y-9515714D01*
X7931333Y-9534762D01*
X7931333Y-9582381D01*
X7921809Y-9601429D01*
X7912286Y-9610952D01*
X7893238Y-9620476D01*
X7836095Y-9620476D01*
X7817048Y-9610952D01*
X7807524Y-9601429D01*
X8121809Y-9620476D02*
X8007524Y-9620476D01*
X8064667Y-9620476D02*
X8064667Y-9420476D01*
X8045619Y-9449048D01*
X8026571Y-9468095D01*
X8007524Y-9477619D01*
X8302762Y-9420476D02*
X8207524Y-9420476D01*
X8198000Y-9515714D01*
X8207524Y-9506190D01*
X8226571Y-9496667D01*
X8274190Y-9496667D01*
X8293238Y-9506190D01*
X8302762Y-9515714D01*
X8312286Y-9534762D01*
X8312286Y-9582381D01*
X8302762Y-9601429D01*
X8293238Y-9610952D01*
X8274190Y-9620476D01*
X8226571Y-9620476D01*
X8207524Y-9610952D01*
X8198000Y-9601429D01*
X8388476Y-9420476D02*
X8388476Y-9458571D01*
X8464667Y-9420476D02*
X8464667Y-9458571D01*
X8759905Y-9696667D02*
X8750381Y-9687143D01*
X8731333Y-9658571D01*
X8721810Y-9639524D01*
X8712286Y-9610952D01*
X8702762Y-9563333D01*
X8702762Y-9525238D01*
X8712286Y-9477619D01*
X8721810Y-9449048D01*
X8731333Y-9430000D01*
X8750381Y-9401429D01*
X8759905Y-9391905D01*
X8940857Y-9620476D02*
X8826571Y-9620476D01*
X8883714Y-9620476D02*
X8883714Y-9420476D01*
X8864667Y-9449048D01*
X8845619Y-9468095D01*
X8826571Y-9477619D01*
X9112286Y-9487143D02*
X9112286Y-9620476D01*
X9064667Y-9410952D02*
X9017048Y-9553810D01*
X9140857Y-9553810D01*
X9302762Y-9420476D02*
X9264667Y-9420476D01*
X9245619Y-9430000D01*
X9236095Y-9439524D01*
X9217048Y-9468095D01*
X9207524Y-9506190D01*
X9207524Y-9582381D01*
X9217048Y-9601429D01*
X9226571Y-9610952D01*
X9245619Y-9620476D01*
X9283714Y-9620476D01*
X9302762Y-9610952D01*
X9312286Y-9601429D01*
X9321810Y-9582381D01*
X9321810Y-9534762D01*
X9312286Y-9515714D01*
X9302762Y-9506190D01*
X9283714Y-9496667D01*
X9245619Y-9496667D01*
X9226571Y-9506190D01*
X9217048Y-9515714D01*
X9207524Y-9534762D01*
X9559905Y-9620476D02*
X9559905Y-9420476D01*
X9645619Y-9620476D02*
X9645619Y-9515714D01*
X9636095Y-9496667D01*
X9617048Y-9487143D01*
X9588476Y-9487143D01*
X9569429Y-9496667D01*
X9559905Y-9506190D01*
X9769429Y-9620476D02*
X9750381Y-9610952D01*
X9740857Y-9601429D01*
X9731333Y-9582381D01*
X9731333Y-9525238D01*
X9740857Y-9506190D01*
X9750381Y-9496667D01*
X9769429Y-9487143D01*
X9798000Y-9487143D01*
X9817048Y-9496667D01*
X9826571Y-9506190D01*
X9836095Y-9525238D01*
X9836095Y-9582381D01*
X9826571Y-9601429D01*
X9817048Y-9610952D01*
X9798000Y-9620476D01*
X9769429Y-9620476D01*
X9950381Y-9620476D02*
X9931333Y-9610952D01*
X9921810Y-9591905D01*
X9921810Y-9420476D01*
X10102762Y-9610952D02*
X10083714Y-9620476D01*
X10045619Y-9620476D01*
X10026571Y-9610952D01*
X10017048Y-9591905D01*
X10017048Y-9515714D01*
X10026571Y-9496667D01*
X10045619Y-9487143D01*
X10083714Y-9487143D01*
X10102762Y-9496667D01*
X10112286Y-9515714D01*
X10112286Y-9534762D01*
X10017048Y-9553810D01*
X10188476Y-9610952D02*
X10207524Y-9620476D01*
X10245619Y-9620476D01*
X10264667Y-9610952D01*
X10274190Y-9591905D01*
X10274190Y-9582381D01*
X10264667Y-9563333D01*
X10245619Y-9553810D01*
X10217048Y-9553810D01*
X10198000Y-9544286D01*
X10188476Y-9525238D01*
X10188476Y-9515714D01*
X10198000Y-9496667D01*
X10217048Y-9487143D01*
X10245619Y-9487143D01*
X10264667Y-9496667D01*
X10340857Y-9696667D02*
X10350381Y-9687143D01*
X10369429Y-9658571D01*
X10378952Y-9639524D01*
X10388476Y-9610952D01*
X10398000Y-9563333D01*
X10398000Y-9525238D01*
X10388476Y-9477619D01*
X10378952Y-9449048D01*
X10369429Y-9430000D01*
X10350381Y-9401429D01*
X10340857Y-9391905D01*
D13*
X5138000Y-9744000D02*
X5138000Y-9844000D01*
X5088000Y-9794000D02*
X5188000Y-9794000D01*
D10*
X5550381Y-9884476D02*
X5436095Y-9884476D01*
X5493238Y-9884476D02*
X5493238Y-9684476D01*
X5474190Y-9713048D01*
X5455143Y-9732095D01*
X5436095Y-9741619D01*
X5636095Y-9865429D02*
X5645619Y-9874952D01*
X5636095Y-9884476D01*
X5626571Y-9874952D01*
X5636095Y-9865429D01*
X5636095Y-9884476D01*
X5769428Y-9684476D02*
X5788476Y-9684476D01*
X5807524Y-9694000D01*
X5817048Y-9703524D01*
X5826571Y-9722571D01*
X5836095Y-9760667D01*
X5836095Y-9808286D01*
X5826571Y-9846381D01*
X5817048Y-9865429D01*
X5807524Y-9874952D01*
X5788476Y-9884476D01*
X5769428Y-9884476D01*
X5750381Y-9874952D01*
X5740857Y-9865429D01*
X5731333Y-9846381D01*
X5721809Y-9808286D01*
X5721809Y-9760667D01*
X5731333Y-9722571D01*
X5740857Y-9703524D01*
X5750381Y-9694000D01*
X5769428Y-9684476D01*
X5959905Y-9684476D02*
X5978952Y-9684476D01*
X5998000Y-9694000D01*
X6007524Y-9703524D01*
X6017048Y-9722571D01*
X6026571Y-9760667D01*
X6026571Y-9808286D01*
X6017048Y-9846381D01*
X6007524Y-9865429D01*
X5998000Y-9874952D01*
X5978952Y-9884476D01*
X5959905Y-9884476D01*
X5940857Y-9874952D01*
X5931333Y-9865429D01*
X5921809Y-9846381D01*
X5912286Y-9808286D01*
X5912286Y-9760667D01*
X5921809Y-9722571D01*
X5931333Y-9703524D01*
X5940857Y-9694000D01*
X5959905Y-9684476D01*
X6150381Y-9684476D02*
X6169428Y-9684476D01*
X6188476Y-9694000D01*
X6198000Y-9703524D01*
X6207524Y-9722571D01*
X6217048Y-9760667D01*
X6217048Y-9808286D01*
X6207524Y-9846381D01*
X6198000Y-9865429D01*
X6188476Y-9874952D01*
X6169428Y-9884476D01*
X6150381Y-9884476D01*
X6131333Y-9874952D01*
X6121809Y-9865429D01*
X6112286Y-9846381D01*
X6102762Y-9808286D01*
X6102762Y-9760667D01*
X6112286Y-9722571D01*
X6121809Y-9703524D01*
X6131333Y-9694000D01*
X6150381Y-9684476D01*
X6302762Y-9884476D02*
X6302762Y-9751143D01*
X6302762Y-9770190D02*
X6312286Y-9760667D01*
X6331333Y-9751143D01*
X6359905Y-9751143D01*
X6378952Y-9760667D01*
X6388476Y-9779714D01*
X6388476Y-9884476D01*
X6388476Y-9779714D02*
X6398000Y-9760667D01*
X6417048Y-9751143D01*
X6445619Y-9751143D01*
X6464667Y-9760667D01*
X6474190Y-9779714D01*
X6474190Y-9884476D01*
X6569428Y-9884476D02*
X6569428Y-9751143D01*
X6569428Y-9770190D02*
X6578952Y-9760667D01*
X6598000Y-9751143D01*
X6626571Y-9751143D01*
X6645619Y-9760667D01*
X6655143Y-9779714D01*
X6655143Y-9884476D01*
X6655143Y-9779714D02*
X6664667Y-9760667D01*
X6683714Y-9751143D01*
X6712286Y-9751143D01*
X6731333Y-9760667D01*
X6740857Y-9779714D01*
X6740857Y-9884476D01*
X7131333Y-9674952D02*
X6959905Y-9932095D01*
X7388476Y-9684476D02*
X7407524Y-9684476D01*
X7426571Y-9694000D01*
X7436095Y-9703524D01*
X7445619Y-9722571D01*
X7455143Y-9760667D01*
X7455143Y-9808286D01*
X7445619Y-9846381D01*
X7436095Y-9865429D01*
X7426571Y-9874952D01*
X7407524Y-9884476D01*
X7388476Y-9884476D01*
X7369428Y-9874952D01*
X7359905Y-9865429D01*
X7350381Y-9846381D01*
X7340857Y-9808286D01*
X7340857Y-9760667D01*
X7350381Y-9722571D01*
X7359905Y-9703524D01*
X7369428Y-9694000D01*
X7388476Y-9684476D01*
X7540857Y-9865429D02*
X7550381Y-9874952D01*
X7540857Y-9884476D01*
X7531333Y-9874952D01*
X7540857Y-9865429D01*
X7540857Y-9884476D01*
X7674190Y-9684476D02*
X7693238Y-9684476D01*
X7712286Y-9694000D01*
X7721809Y-9703524D01*
X7731333Y-9722571D01*
X7740857Y-9760667D01*
X7740857Y-9808286D01*
X7731333Y-9846381D01*
X7721809Y-9865429D01*
X7712286Y-9874952D01*
X7693238Y-9884476D01*
X7674190Y-9884476D01*
X7655143Y-9874952D01*
X7645619Y-9865429D01*
X7636095Y-9846381D01*
X7626571Y-9808286D01*
X7626571Y-9760667D01*
X7636095Y-9722571D01*
X7645619Y-9703524D01*
X7655143Y-9694000D01*
X7674190Y-9684476D01*
X7807524Y-9684476D02*
X7931333Y-9684476D01*
X7864667Y-9760667D01*
X7893238Y-9760667D01*
X7912286Y-9770190D01*
X7921809Y-9779714D01*
X7931333Y-9798762D01*
X7931333Y-9846381D01*
X7921809Y-9865429D01*
X7912286Y-9874952D01*
X7893238Y-9884476D01*
X7836095Y-9884476D01*
X7817048Y-9874952D01*
X7807524Y-9865429D01*
X8026571Y-9884476D02*
X8064667Y-9884476D01*
X8083714Y-9874952D01*
X8093238Y-9865429D01*
X8112286Y-9836857D01*
X8121809Y-9798762D01*
X8121809Y-9722571D01*
X8112286Y-9703524D01*
X8102762Y-9694000D01*
X8083714Y-9684476D01*
X8045619Y-9684476D01*
X8026571Y-9694000D01*
X8017048Y-9703524D01*
X8007524Y-9722571D01*
X8007524Y-9770190D01*
X8017048Y-9789238D01*
X8026571Y-9798762D01*
X8045619Y-9808286D01*
X8083714Y-9808286D01*
X8102762Y-9798762D01*
X8112286Y-9789238D01*
X8121809Y-9770190D01*
X8293238Y-9751143D02*
X8293238Y-9884476D01*
X8245619Y-9674952D02*
X8198000Y-9817810D01*
X8321809Y-9817810D01*
X8388476Y-9684476D02*
X8388476Y-9722571D01*
X8464667Y-9684476D02*
X8464667Y-9722571D01*
X8759905Y-9960667D02*
X8750381Y-9951143D01*
X8731333Y-9922571D01*
X8721810Y-9903524D01*
X8712286Y-9874952D01*
X8702762Y-9827333D01*
X8702762Y-9789238D01*
X8712286Y-9741619D01*
X8721810Y-9713048D01*
X8731333Y-9694000D01*
X8750381Y-9665429D01*
X8759905Y-9655905D01*
X8921810Y-9684476D02*
X8883714Y-9684476D01*
X8864667Y-9694000D01*
X8855143Y-9703524D01*
X8836095Y-9732095D01*
X8826571Y-9770190D01*
X8826571Y-9846381D01*
X8836095Y-9865429D01*
X8845619Y-9874952D01*
X8864667Y-9884476D01*
X8902762Y-9884476D01*
X8921810Y-9874952D01*
X8931333Y-9865429D01*
X8940857Y-9846381D01*
X8940857Y-9798762D01*
X8931333Y-9779714D01*
X8921810Y-9770190D01*
X8902762Y-9760667D01*
X8864667Y-9760667D01*
X8845619Y-9770190D01*
X8836095Y-9779714D01*
X8826571Y-9798762D01*
X9131333Y-9884476D02*
X9017048Y-9884476D01*
X9074190Y-9884476D02*
X9074190Y-9684476D01*
X9055143Y-9713048D01*
X9036095Y-9732095D01*
X9017048Y-9741619D01*
X9369429Y-9884476D02*
X9369429Y-9684476D01*
X9455143Y-9884476D02*
X9455143Y-9779714D01*
X9445619Y-9760667D01*
X9426571Y-9751143D01*
X9398000Y-9751143D01*
X9378952Y-9760667D01*
X9369429Y-9770190D01*
X9578952Y-9884476D02*
X9559905Y-9874952D01*
X9550381Y-9865429D01*
X9540857Y-9846381D01*
X9540857Y-9789238D01*
X9550381Y-9770190D01*
X9559905Y-9760667D01*
X9578952Y-9751143D01*
X9607524Y-9751143D01*
X9626571Y-9760667D01*
X9636095Y-9770190D01*
X9645619Y-9789238D01*
X9645619Y-9846381D01*
X9636095Y-9865429D01*
X9626571Y-9874952D01*
X9607524Y-9884476D01*
X9578952Y-9884476D01*
X9759905Y-9884476D02*
X9740857Y-9874952D01*
X9731333Y-9855905D01*
X9731333Y-9684476D01*
X9912286Y-9874952D02*
X9893238Y-9884476D01*
X9855143Y-9884476D01*
X9836095Y-9874952D01*
X9826571Y-9855905D01*
X9826571Y-9779714D01*
X9836095Y-9760667D01*
X9855143Y-9751143D01*
X9893238Y-9751143D01*
X9912286Y-9760667D01*
X9921810Y-9779714D01*
X9921810Y-9798762D01*
X9826571Y-9817810D01*
X9998000Y-9874952D02*
X10017048Y-9884476D01*
X10055143Y-9884476D01*
X10074190Y-9874952D01*
X10083714Y-9855905D01*
X10083714Y-9846381D01*
X10074190Y-9827333D01*
X10055143Y-9817810D01*
X10026571Y-9817810D01*
X10007524Y-9808286D01*
X9998000Y-9789238D01*
X9998000Y-9779714D01*
X10007524Y-9760667D01*
X10026571Y-9751143D01*
X10055143Y-9751143D01*
X10074190Y-9760667D01*
X10150381Y-9960667D02*
X10159905Y-9951143D01*
X10178952Y-9922571D01*
X10188476Y-9903524D01*
X10198000Y-9874952D01*
X10207524Y-9827333D01*
X10207524Y-9789238D01*
X10198000Y-9741619D01*
X10188476Y-9713048D01*
X10178952Y-9694000D01*
X10159905Y-9665429D01*
X10150381Y-9655905D01*
M02*
