%TF.GenerationSoftware,KiCad,Pcbnew,(6.0.7)*%
%TF.CreationDate,2022-12-14T18:08:10+00:00*%
%TF.ProjectId,MSX_DE1_Hat,4d53585f-4445-4315-9f48-61742e6b6963,1.1*%
%TF.SameCoordinates,Original*%
%TF.FileFunction,Legend,Bot*%
%TF.FilePolarity,Positive*%
%FSLAX46Y46*%
G04 Gerber Fmt 4.6, Leading zero omitted, Abs format (unit mm)*
G04 Created by KiCad (PCBNEW (6.0.7)) date 2022-12-14 18:08:10*
%MOMM*%
%LPD*%
G01*
G04 APERTURE LIST*
%ADD10C,0.110000*%
%ADD11C,0.150000*%
G04 APERTURE END LIST*
D10*
X138512571Y-74439428D02*
X138855428Y-74439428D01*
X138684000Y-74439428D02*
X138684000Y-73839428D01*
X138741142Y-73925142D01*
X138798285Y-73982285D01*
X138855428Y-74010857D01*
X77387428Y-74039428D02*
X77387428Y-74439428D01*
X77530285Y-73810857D02*
X77673142Y-74239428D01*
X77301714Y-74239428D01*
X77044571Y-74439428D02*
X76930285Y-74439428D01*
X76873142Y-74410857D01*
X76844571Y-74382285D01*
X76787428Y-74296571D01*
X76758857Y-74182285D01*
X76758857Y-73953714D01*
X76787428Y-73896571D01*
X76816000Y-73868000D01*
X76873142Y-73839428D01*
X76987428Y-73839428D01*
X77044571Y-73868000D01*
X77073142Y-73896571D01*
X77101714Y-73953714D01*
X77101714Y-74096571D01*
X77073142Y-74153714D01*
X77044571Y-74182285D01*
X76987428Y-74210857D01*
X76873142Y-74210857D01*
X76816000Y-74182285D01*
X76787428Y-74153714D01*
X76758857Y-74096571D01*
D11*
%TO.C,CD4077 / XNOR Truth Table*%
X145751921Y-23497009D02*
X145780493Y-23525581D01*
X145866207Y-23554152D01*
X145923350Y-23554152D01*
X146009064Y-23525581D01*
X146066207Y-23468438D01*
X146094778Y-23411295D01*
X146123350Y-23297009D01*
X146123350Y-23211295D01*
X146094778Y-23097009D01*
X146066207Y-23039866D01*
X146009064Y-22982724D01*
X145923350Y-22954152D01*
X145866207Y-22954152D01*
X145780493Y-22982724D01*
X145751921Y-23011295D01*
X145494778Y-23554152D02*
X145494778Y-22954152D01*
X145351921Y-22954152D01*
X145266207Y-22982724D01*
X145209064Y-23039866D01*
X145180493Y-23097009D01*
X145151921Y-23211295D01*
X145151921Y-23297009D01*
X145180493Y-23411295D01*
X145209064Y-23468438D01*
X145266207Y-23525581D01*
X145351921Y-23554152D01*
X145494778Y-23554152D01*
X144637636Y-23154152D02*
X144637636Y-23554152D01*
X144780493Y-22925581D02*
X144923350Y-23354152D01*
X144551921Y-23354152D01*
X144209064Y-22954152D02*
X144151921Y-22954152D01*
X144094778Y-22982724D01*
X144066207Y-23011295D01*
X144037636Y-23068438D01*
X144009064Y-23182724D01*
X144009064Y-23325581D01*
X144037636Y-23439866D01*
X144066207Y-23497009D01*
X144094778Y-23525581D01*
X144151921Y-23554152D01*
X144209064Y-23554152D01*
X144266207Y-23525581D01*
X144294778Y-23497009D01*
X144323350Y-23439866D01*
X144351921Y-23325581D01*
X144351921Y-23182724D01*
X144323350Y-23068438D01*
X144294778Y-23011295D01*
X144266207Y-22982724D01*
X144209064Y-22954152D01*
X143809064Y-22954152D02*
X143409064Y-22954152D01*
X143666207Y-23554152D01*
X143237636Y-22954152D02*
X142837636Y-22954152D01*
X143094778Y-23554152D01*
X141723350Y-22925581D02*
X142237636Y-23697009D01*
X141123350Y-22954152D02*
X140723350Y-23554152D01*
X140723350Y-22954152D02*
X141123350Y-23554152D01*
X140494778Y-23554152D02*
X140494778Y-22954152D01*
X140151921Y-23554152D01*
X140151921Y-22954152D01*
X139751921Y-22954152D02*
X139637636Y-22954152D01*
X139580493Y-22982724D01*
X139523350Y-23039866D01*
X139494778Y-23154152D01*
X139494778Y-23354152D01*
X139523350Y-23468438D01*
X139580493Y-23525581D01*
X139637636Y-23554152D01*
X139751921Y-23554152D01*
X139809064Y-23525581D01*
X139866207Y-23468438D01*
X139894778Y-23354152D01*
X139894778Y-23154152D01*
X139866207Y-23039866D01*
X139809064Y-22982724D01*
X139751921Y-22954152D01*
X138894778Y-23554152D02*
X139094778Y-23268438D01*
X139237636Y-23554152D02*
X139237636Y-22954152D01*
X139009064Y-22954152D01*
X138951921Y-22982724D01*
X138923350Y-23011295D01*
X138894778Y-23068438D01*
X138894778Y-23154152D01*
X138923350Y-23211295D01*
X138951921Y-23239866D01*
X139009064Y-23268438D01*
X139237636Y-23268438D01*
X138266207Y-22954152D02*
X137923350Y-22954152D01*
X138094778Y-23554152D02*
X138094778Y-22954152D01*
X137723350Y-23554152D02*
X137723350Y-23154152D01*
X137723350Y-23268438D02*
X137694778Y-23211295D01*
X137666207Y-23182724D01*
X137609064Y-23154152D01*
X137551921Y-23154152D01*
X137094778Y-23154152D02*
X137094778Y-23554152D01*
X137351921Y-23154152D02*
X137351921Y-23468438D01*
X137323350Y-23525581D01*
X137266207Y-23554152D01*
X137180493Y-23554152D01*
X137123350Y-23525581D01*
X137094778Y-23497009D01*
X136894778Y-23154152D02*
X136666207Y-23154152D01*
X136809064Y-22954152D02*
X136809064Y-23468438D01*
X136780493Y-23525581D01*
X136723350Y-23554152D01*
X136666207Y-23554152D01*
X136466207Y-23554152D02*
X136466207Y-22954152D01*
X136209064Y-23554152D02*
X136209064Y-23239866D01*
X136237636Y-23182724D01*
X136294778Y-23154152D01*
X136380493Y-23154152D01*
X136437636Y-23182724D01*
X136466207Y-23211295D01*
X135551921Y-22954152D02*
X135209064Y-22954152D01*
X135380493Y-23554152D02*
X135380493Y-22954152D01*
X134751921Y-23554152D02*
X134751921Y-23239866D01*
X134780493Y-23182724D01*
X134837636Y-23154152D01*
X134951921Y-23154152D01*
X135009064Y-23182724D01*
X134751921Y-23525581D02*
X134809064Y-23554152D01*
X134951921Y-23554152D01*
X135009064Y-23525581D01*
X135037636Y-23468438D01*
X135037636Y-23411295D01*
X135009064Y-23354152D01*
X134951921Y-23325581D01*
X134809064Y-23325581D01*
X134751921Y-23297009D01*
X134466207Y-23554152D02*
X134466207Y-22954152D01*
X134466207Y-23182724D02*
X134409064Y-23154152D01*
X134294778Y-23154152D01*
X134237636Y-23182724D01*
X134209064Y-23211295D01*
X134180493Y-23268438D01*
X134180493Y-23439866D01*
X134209064Y-23497009D01*
X134237636Y-23525581D01*
X134294778Y-23554152D01*
X134409064Y-23554152D01*
X134466207Y-23525581D01*
X133837636Y-23554152D02*
X133894778Y-23525581D01*
X133923350Y-23468438D01*
X133923350Y-22954152D01*
X133380493Y-23525581D02*
X133437636Y-23554152D01*
X133551921Y-23554152D01*
X133609064Y-23525581D01*
X133637636Y-23468438D01*
X133637636Y-23239866D01*
X133609064Y-23182724D01*
X133551921Y-23154152D01*
X133437636Y-23154152D01*
X133380493Y-23182724D01*
X133351921Y-23239866D01*
X133351921Y-23297009D01*
X133637636Y-23354152D01*
G36*
X150222448Y-30632968D02*
G01*
X150267495Y-30680350D01*
X150321415Y-30705391D01*
X150342691Y-30708840D01*
X150369589Y-30738724D01*
X150357071Y-30758098D01*
X150302834Y-30772058D01*
X150296313Y-30772158D01*
X150263948Y-30780841D01*
X150245793Y-30813618D01*
X150237840Y-30884667D01*
X150236080Y-31008169D01*
X150235905Y-31044085D01*
X150230803Y-31159488D01*
X150217477Y-31218816D01*
X150194359Y-31230415D01*
X150171453Y-31195960D01*
X150154348Y-31098194D01*
X150145320Y-30935970D01*
X150145068Y-30926102D01*
X150143182Y-30757705D01*
X150148544Y-30649822D01*
X150162587Y-30596825D01*
X150186745Y-30593083D01*
X150222448Y-30632968D01*
G37*
G36*
X142975036Y-26872058D02*
G01*
X142893140Y-26865148D01*
X142767211Y-26815158D01*
X142687377Y-26721271D01*
X142659470Y-26588724D01*
X142659728Y-26586257D01*
X142770190Y-26586257D01*
X142807669Y-26690356D01*
X142855958Y-26741379D01*
X142943945Y-26772058D01*
X142984829Y-26769079D01*
X143012947Y-26748426D01*
X143024426Y-26693743D01*
X143026619Y-26588724D01*
X143025536Y-26508064D01*
X143017114Y-26440315D01*
X142994648Y-26411631D01*
X142951520Y-26405901D01*
X142856672Y-26428007D01*
X142789244Y-26493428D01*
X142770190Y-26586257D01*
X142659728Y-26586257D01*
X142667166Y-26515193D01*
X142722843Y-26402127D01*
X142827410Y-26330447D01*
X142975036Y-26305391D01*
X143126750Y-26305391D01*
X143126750Y-26872058D01*
X142975036Y-26872058D01*
G37*
G36*
X136282985Y-25096516D02*
G01*
X136276615Y-25222529D01*
X136266229Y-25307539D01*
X136252979Y-25338724D01*
X136244353Y-25333732D01*
X136224128Y-25283619D01*
X136211258Y-25197058D01*
X136200995Y-25055391D01*
X136042013Y-25045213D01*
X135966509Y-25034837D01*
X135856877Y-24986146D01*
X135801218Y-24903177D01*
X135802146Y-24849448D01*
X135886848Y-24849448D01*
X135918620Y-24923659D01*
X135964851Y-24951282D01*
X136049982Y-24969789D01*
X136137637Y-24970328D01*
X136195432Y-24949835D01*
X136210238Y-24911947D01*
X136217683Y-24837055D01*
X136217680Y-24835446D01*
X136200852Y-24762967D01*
X136142585Y-24732464D01*
X136081335Y-24725975D01*
X135979276Y-24741156D01*
X135910757Y-24785464D01*
X135886848Y-24849448D01*
X135802146Y-24849448D01*
X135803175Y-24789823D01*
X135809524Y-24769386D01*
X135866706Y-24695074D01*
X135973770Y-24652381D01*
X136136413Y-24638724D01*
X136284437Y-24638724D01*
X136284437Y-24988724D01*
X136282985Y-25096516D01*
G37*
G36*
X150736488Y-23716682D02*
G01*
X150765605Y-23750820D01*
X150816660Y-23817313D01*
X150836868Y-23854458D01*
X150834199Y-23856167D01*
X150784724Y-23861293D01*
X150679119Y-23864988D01*
X150525643Y-23867173D01*
X150332555Y-23867768D01*
X150108117Y-23866693D01*
X149860587Y-23863869D01*
X149576841Y-23859316D01*
X149342983Y-23854271D01*
X149158034Y-23848239D01*
X149012957Y-23840606D01*
X148898717Y-23830761D01*
X148806279Y-23818090D01*
X148726607Y-23801981D01*
X148650666Y-23781821D01*
X148397807Y-23697796D01*
X148058898Y-23542415D01*
X147754125Y-23343675D01*
X147472197Y-23093806D01*
X147201823Y-22785039D01*
X147171380Y-22745948D01*
X147080051Y-22623885D01*
X147002474Y-22513595D01*
X146952848Y-22435039D01*
X146936838Y-22406237D01*
X146902918Y-22353612D01*
X146882528Y-22352371D01*
X146862214Y-22396847D01*
X146833733Y-22448144D01*
X146740976Y-22531134D01*
X146617494Y-22583480D01*
X146486216Y-22593207D01*
X146400732Y-22570884D01*
X146301105Y-22517881D01*
X146226689Y-22450378D01*
X146197447Y-22382914D01*
X146184110Y-22365295D01*
X146137376Y-22352530D01*
X146048912Y-22344353D01*
X145910388Y-22340005D01*
X145713478Y-22338724D01*
X145229510Y-22338724D01*
X145229510Y-22270167D01*
X146330955Y-22270167D01*
X146349218Y-22325391D01*
X146405136Y-22386834D01*
X146466869Y-22420222D01*
X146538645Y-22438724D01*
X146566228Y-22434121D01*
X146640934Y-22391440D01*
X146704569Y-22323734D01*
X146731481Y-22255391D01*
X146726797Y-22228977D01*
X146698809Y-22184934D01*
X147145533Y-22184934D01*
X147145825Y-22235388D01*
X147153763Y-22255391D01*
X147184271Y-22332264D01*
X147258243Y-22456719D01*
X147360120Y-22598940D01*
X147482285Y-22749115D01*
X147617116Y-22897429D01*
X147756994Y-23034071D01*
X147894300Y-23149228D01*
X147906667Y-23158578D01*
X148078593Y-23281894D01*
X148231560Y-23374362D01*
X148392708Y-23450677D01*
X148589172Y-23525535D01*
X148673970Y-23554693D01*
X148751355Y-23577615D01*
X148830185Y-23594692D01*
X148921343Y-23607031D01*
X149035715Y-23615739D01*
X149184183Y-23621925D01*
X149377633Y-23626697D01*
X149626947Y-23631162D01*
X149761749Y-23633085D01*
X149967884Y-23634668D01*
X150144336Y-23634333D01*
X150281843Y-23632182D01*
X150371141Y-23628312D01*
X150402966Y-23622824D01*
X150398142Y-23606965D01*
X150369051Y-23544844D01*
X150322379Y-23457399D01*
X150222491Y-23251736D01*
X150108253Y-22902278D01*
X150045161Y-22528848D01*
X150038259Y-22304451D01*
X150258542Y-22304451D01*
X150266872Y-22505298D01*
X150284529Y-22678716D01*
X150311343Y-22805391D01*
X150324555Y-22844846D01*
X150358529Y-22918707D01*
X150402932Y-22952757D01*
X150476851Y-22965457D01*
X150593834Y-22975523D01*
X150550222Y-22732123D01*
X150531693Y-22609980D01*
X150509176Y-22308445D01*
X150514969Y-22004960D01*
X150549106Y-21730670D01*
X150549699Y-21727598D01*
X150568966Y-21613429D01*
X150578303Y-21527786D01*
X150575693Y-21489003D01*
X150575435Y-21488756D01*
X150532464Y-21476954D01*
X150454353Y-21472057D01*
X150439552Y-21472143D01*
X150387730Y-21478407D01*
X150354699Y-21505299D01*
X150329551Y-21567674D01*
X150301375Y-21680391D01*
X150291232Y-21730502D01*
X150270551Y-21897737D01*
X150259712Y-22095492D01*
X150258542Y-22304451D01*
X150038259Y-22304451D01*
X150033294Y-22143044D01*
X150072731Y-21756468D01*
X150163551Y-21380720D01*
X150305832Y-21027399D01*
X150353442Y-20929856D01*
X150389267Y-20852971D01*
X150402966Y-20818637D01*
X150400147Y-20817443D01*
X150350721Y-20813646D01*
X150247223Y-20810420D01*
X150099462Y-20807944D01*
X149917248Y-20806399D01*
X149710390Y-20805962D01*
X149457716Y-20807237D01*
X149259785Y-20811132D01*
X149104674Y-20818456D01*
X148980425Y-20830017D01*
X148875084Y-20846623D01*
X148776695Y-20869083D01*
X148545390Y-20940784D01*
X148179087Y-21107876D01*
X147847782Y-21330019D01*
X147556811Y-21604000D01*
X147551329Y-21610119D01*
X147455170Y-21725068D01*
X147354551Y-21856917D01*
X147261432Y-21988773D01*
X147187773Y-22103743D01*
X147145533Y-22184934D01*
X146698809Y-22184934D01*
X146681232Y-22157275D01*
X146607587Y-22097231D01*
X146531218Y-22072058D01*
X146509702Y-22074284D01*
X146427012Y-22115122D01*
X146359123Y-22188635D01*
X146330955Y-22270167D01*
X145229510Y-22270167D01*
X145229510Y-22172058D01*
X145709585Y-22172058D01*
X145732185Y-22172053D01*
X145914310Y-22171322D01*
X146041253Y-22168377D01*
X146123487Y-22161848D01*
X146171486Y-22150366D01*
X146195725Y-22132562D01*
X146206679Y-22107065D01*
X146249574Y-22042878D01*
X146333341Y-21977032D01*
X146433179Y-21926054D01*
X146524531Y-21905515D01*
X146543850Y-21906373D01*
X146656480Y-21936941D01*
X146763239Y-21999060D01*
X146833701Y-22075955D01*
X146849390Y-22100421D01*
X146871591Y-22108816D01*
X146903338Y-22083195D01*
X146953066Y-22015942D01*
X147029210Y-21899445D01*
X147101880Y-21794746D01*
X147250084Y-21608848D01*
X147422429Y-21416512D01*
X147600572Y-21237812D01*
X147766172Y-21092826D01*
X147844895Y-21038153D01*
X147993723Y-20952515D01*
X148172912Y-20862305D01*
X148363270Y-20776529D01*
X148545607Y-20704190D01*
X148700732Y-20654294D01*
X148767110Y-20639080D01*
X148862640Y-20623791D01*
X148982713Y-20611437D01*
X149135771Y-20601494D01*
X149330256Y-20593432D01*
X149574610Y-20586727D01*
X149877276Y-20580850D01*
X149935498Y-20579912D01*
X150176205Y-20576967D01*
X150391828Y-20575803D01*
X150574037Y-20576361D01*
X150714501Y-20578580D01*
X150804888Y-20582399D01*
X150836868Y-20587760D01*
X150827985Y-20607592D01*
X150786875Y-20668204D01*
X150723606Y-20749781D01*
X150696987Y-20784546D01*
X150629224Y-20886165D01*
X150559503Y-21004336D01*
X150497598Y-21121072D01*
X150453286Y-21218387D01*
X150436343Y-21278296D01*
X150436678Y-21280424D01*
X150471250Y-21298127D01*
X150545307Y-21305391D01*
X150569940Y-21304943D01*
X150620798Y-21295372D01*
X150661137Y-21263379D01*
X150703268Y-21196030D01*
X150759505Y-21080391D01*
X150822518Y-20955331D01*
X150899424Y-20819342D01*
X150967833Y-20713724D01*
X150981778Y-20694799D01*
X151048725Y-20617029D01*
X151109883Y-20580905D01*
X151187538Y-20572058D01*
X151202585Y-20572233D01*
X151274778Y-20579167D01*
X151304148Y-20593077D01*
X151292473Y-20618506D01*
X151250722Y-20685072D01*
X151189104Y-20774019D01*
X151158954Y-20817679D01*
X151091864Y-20923512D01*
X151023475Y-21040092D01*
X150963098Y-21150687D01*
X150920043Y-21238567D01*
X150903623Y-21287002D01*
X150915401Y-21290116D01*
X150982979Y-21295454D01*
X151102459Y-21300734D01*
X151264574Y-21305645D01*
X151460057Y-21309874D01*
X151679641Y-21313110D01*
X151700540Y-21313351D01*
X151942677Y-21316400D01*
X152126645Y-21319715D01*
X152260420Y-21324073D01*
X152351982Y-21330252D01*
X152409308Y-21339029D01*
X152440378Y-21351182D01*
X152453169Y-21367488D01*
X152455660Y-21388724D01*
X152455584Y-21394022D01*
X152451527Y-21413757D01*
X152435586Y-21428890D01*
X152399921Y-21440158D01*
X152336695Y-21448298D01*
X152238069Y-21454046D01*
X152096206Y-21458138D01*
X151903267Y-21461313D01*
X151651414Y-21464305D01*
X150847169Y-21473219D01*
X150800297Y-21614305D01*
X150795845Y-21628807D01*
X150772265Y-21761017D01*
X150758132Y-21958675D01*
X150753426Y-22222058D01*
X150753536Y-22266717D01*
X150759686Y-22520004D01*
X150775266Y-22707609D01*
X150800297Y-22829810D01*
X150847169Y-22970896D01*
X151264629Y-22975523D01*
X151651414Y-22979810D01*
X151715320Y-22980525D01*
X151952849Y-22983494D01*
X152133276Y-22986815D01*
X152264441Y-22991225D01*
X152354181Y-22997461D01*
X152410335Y-23006259D01*
X152440741Y-23018355D01*
X152453236Y-23034487D01*
X152455660Y-23055391D01*
X152455652Y-23057186D01*
X152452662Y-23078022D01*
X152438767Y-23093987D01*
X152405991Y-23105857D01*
X152346355Y-23114411D01*
X152251880Y-23120425D01*
X152114588Y-23124677D01*
X151926501Y-23127945D01*
X151679641Y-23131005D01*
X151544969Y-23132818D01*
X151338797Y-23136690D01*
X151162309Y-23141367D01*
X151024772Y-23146538D01*
X150935455Y-23151891D01*
X150903623Y-23157113D01*
X150909577Y-23180317D01*
X150942741Y-23254515D01*
X150996858Y-23358104D01*
X151062579Y-23474215D01*
X151130556Y-23585978D01*
X151191441Y-23676523D01*
X151239069Y-23743733D01*
X151285993Y-23815500D01*
X151304148Y-23851523D01*
X151303286Y-23854030D01*
X151265364Y-23866840D01*
X151188629Y-23872058D01*
X151163281Y-23871282D01*
X151089871Y-23855509D01*
X151024272Y-23812694D01*
X150958574Y-23734027D01*
X150884870Y-23610700D01*
X150795252Y-23433905D01*
X150786934Y-23416785D01*
X150722650Y-23287826D01*
X150675869Y-23206907D01*
X150637018Y-23162796D01*
X150596525Y-23144263D01*
X150544819Y-23140078D01*
X150536515Y-23140075D01*
X150465496Y-23150047D01*
X150436343Y-23173008D01*
X150444575Y-23209129D01*
X150481462Y-23296472D01*
X150539001Y-23408840D01*
X150607289Y-23528292D01*
X150667468Y-23622824D01*
X150676420Y-23636886D01*
X150736488Y-23716682D01*
G37*
G36*
X148142762Y-24653510D02*
G01*
X148156666Y-24711447D01*
X148164341Y-24820641D01*
X148166698Y-24988724D01*
X148165812Y-25072921D01*
X148158740Y-25215500D01*
X148146530Y-25303614D01*
X148131514Y-25334887D01*
X148116024Y-25306942D01*
X148102392Y-25217402D01*
X148092949Y-25063892D01*
X148083255Y-24789060D01*
X147908726Y-25063892D01*
X147877851Y-25112085D01*
X147786004Y-25246149D01*
X147719968Y-25319707D01*
X147675678Y-25331613D01*
X147649073Y-25280720D01*
X147636089Y-25165880D01*
X147632663Y-24985946D01*
X147632678Y-24968872D01*
X147635025Y-24810048D01*
X147642089Y-24708915D01*
X147654874Y-24657316D01*
X147674385Y-24647092D01*
X147691237Y-24664647D01*
X147710846Y-24746080D01*
X147718810Y-24891536D01*
X147718826Y-24892858D01*
X147720963Y-25012580D01*
X147723954Y-25105799D01*
X147727154Y-25152434D01*
X147735842Y-25149960D01*
X147773424Y-25106136D01*
X147833429Y-25022965D01*
X147908025Y-24910902D01*
X147955377Y-24839687D01*
X148030260Y-24736382D01*
X148090073Y-24665327D01*
X148124976Y-24638859D01*
X148142762Y-24653510D01*
G37*
G36*
X153086754Y-23124019D02*
G01*
X153048104Y-23138214D01*
X152986549Y-23129439D01*
X152924092Y-23079180D01*
X152914546Y-23005391D01*
X152956317Y-23005391D01*
X152966536Y-23059380D01*
X153014727Y-23099045D01*
X153034042Y-23100885D01*
X153064859Y-23078581D01*
X153073137Y-23005391D01*
X153072092Y-22970907D01*
X153056371Y-22918592D01*
X153014727Y-22911737D01*
X152977858Y-22933248D01*
X152956317Y-23005391D01*
X152914546Y-23005391D01*
X152911922Y-22985107D01*
X152915504Y-22960607D01*
X152944789Y-22900699D01*
X153014727Y-22878177D01*
X153036867Y-22875914D01*
X153084059Y-22880662D01*
X153103025Y-22917295D01*
X153106514Y-23003177D01*
X153106425Y-23005391D01*
X153103808Y-23070127D01*
X153086754Y-23124019D01*
G37*
G36*
X150391507Y-29648032D02*
G01*
X150351603Y-29727038D01*
X150303678Y-29763847D01*
X150225181Y-29772058D01*
X150171935Y-29768606D01*
X150088830Y-29734905D01*
X150038133Y-29656825D01*
X150010910Y-29524023D01*
X150010696Y-29522109D01*
X150009708Y-29411272D01*
X150070887Y-29411272D01*
X150077385Y-29529030D01*
X150111408Y-29636092D01*
X150153744Y-29701127D01*
X150210646Y-29728011D01*
X150281830Y-29695997D01*
X150312840Y-29661327D01*
X150335702Y-29586546D01*
X150343278Y-29462576D01*
X150342448Y-29405583D01*
X150322628Y-29272989D01*
X150275124Y-29196576D01*
X150197790Y-29172058D01*
X150183063Y-29173690D01*
X150127075Y-29215615D01*
X150088567Y-29300805D01*
X150070887Y-29411272D01*
X150009708Y-29411272D01*
X150009154Y-29349193D01*
X150045011Y-29217924D01*
X150115186Y-29134568D01*
X150216602Y-29105391D01*
X150248773Y-29109007D01*
X150331441Y-29157432D01*
X150391886Y-29250554D01*
X150425270Y-29373366D01*
X150426234Y-29462576D01*
X150426756Y-29510861D01*
X150391507Y-29648032D01*
G37*
G36*
X143522698Y-28089835D02*
G01*
X143502287Y-28177901D01*
X143460522Y-28238724D01*
X143399673Y-28282767D01*
X143327013Y-28305391D01*
X143282568Y-28300269D01*
X143197414Y-28247109D01*
X143144769Y-28139029D01*
X143126750Y-27979474D01*
X143128506Y-27942806D01*
X143193504Y-27942806D01*
X143195207Y-27997645D01*
X143207601Y-28103457D01*
X143228056Y-28174249D01*
X143260439Y-28211902D01*
X143327013Y-28238724D01*
X143371173Y-28226505D01*
X143425970Y-28174249D01*
X143454727Y-28075241D01*
X143459485Y-27949809D01*
X143441400Y-27828607D01*
X143402112Y-27741390D01*
X143367697Y-27703070D01*
X143327072Y-27689528D01*
X143268603Y-27722921D01*
X143224028Y-27765969D01*
X143199834Y-27832863D01*
X143193504Y-27942806D01*
X143128506Y-27942806D01*
X143131729Y-27875529D01*
X143164379Y-27742086D01*
X143228919Y-27664093D01*
X143327013Y-27638724D01*
X143388103Y-27647196D01*
X143466529Y-27702749D01*
X143512366Y-27812566D01*
X143524626Y-27949809D01*
X143527276Y-27979474D01*
X143522698Y-28089835D01*
G37*
G36*
X150404547Y-28140111D02*
G01*
X150351674Y-28240077D01*
X150331639Y-28259659D01*
X150240663Y-28302582D01*
X150147237Y-28289480D01*
X150066868Y-28225989D01*
X150015062Y-28117743D01*
X150011674Y-28102137D01*
X150004411Y-27995157D01*
X150006495Y-27968126D01*
X150072518Y-27968126D01*
X150089569Y-28102080D01*
X150104338Y-28152056D01*
X150142673Y-28210641D01*
X150208182Y-28232329D01*
X150274050Y-28224567D01*
X150317595Y-28176205D01*
X150340230Y-28078846D01*
X150345582Y-27924360D01*
X150344245Y-27881898D01*
X150326466Y-27776049D01*
X150285301Y-27717318D01*
X150247909Y-27697661D01*
X150179151Y-27702616D01*
X150123123Y-27756965D01*
X150085641Y-27849278D01*
X150072518Y-27968126D01*
X150006495Y-27968126D01*
X150013879Y-27872329D01*
X150036620Y-27761056D01*
X150069179Y-27688742D01*
X150071604Y-27686026D01*
X150134976Y-27652528D01*
X150225181Y-27638724D01*
X150301158Y-27646140D01*
X150349883Y-27681380D01*
X150391494Y-27762719D01*
X150419506Y-27860758D01*
X150423193Y-27924360D01*
X150427873Y-28005092D01*
X150404547Y-28140111D01*
G37*
G36*
X143779835Y-26216173D02*
G01*
X143818349Y-26268423D01*
X143865377Y-26370748D01*
X143924743Y-26530453D01*
X143958552Y-26626960D01*
X144003475Y-26754980D01*
X144037383Y-26851355D01*
X144054777Y-26900438D01*
X144055349Y-26926906D01*
X144012433Y-26933772D01*
X143991049Y-26921324D01*
X143947614Y-26859219D01*
X143893387Y-26741570D01*
X143826024Y-26563724D01*
X143772115Y-26409235D01*
X143739592Y-26305002D01*
X143727167Y-26242985D01*
X143732839Y-26213148D01*
X143754607Y-26205453D01*
X143779835Y-26216173D01*
G37*
G36*
X136724349Y-24656398D02*
G01*
X136833857Y-24665503D01*
X136906130Y-24681203D01*
X136933896Y-24699962D01*
X136909882Y-24718240D01*
X136826816Y-24732503D01*
X136718340Y-24742948D01*
X136718340Y-25040836D01*
X136718321Y-25059525D01*
X136715877Y-25198806D01*
X136708001Y-25284152D01*
X136692774Y-25326985D01*
X136668274Y-25338724D01*
X136665133Y-25338608D01*
X136641725Y-25324069D01*
X136627381Y-25277208D01*
X136620182Y-25186604D01*
X136618209Y-25040836D01*
X136618209Y-24742948D01*
X136509733Y-24732503D01*
X136466724Y-24727155D01*
X136409660Y-24710752D01*
X136408555Y-24691837D01*
X136456138Y-24673947D01*
X136545135Y-24660619D01*
X136668274Y-24655391D01*
X136724349Y-24656398D01*
G37*
G36*
X143301582Y-32072987D02*
G01*
X143327013Y-32104326D01*
X143327029Y-32104943D01*
X143354549Y-32142235D01*
X143418800Y-32186325D01*
X143510587Y-32236055D01*
X143418800Y-32237390D01*
X143327013Y-32238724D01*
X143327013Y-32488724D01*
X143326982Y-32500448D01*
X143322176Y-32623733D01*
X143310454Y-32707704D01*
X143293636Y-32738724D01*
X143285933Y-32731649D01*
X143272311Y-32672195D01*
X143263432Y-32560241D01*
X143260259Y-32405391D01*
X143260967Y-32328463D01*
X143266920Y-32192418D01*
X143278130Y-32103748D01*
X143293636Y-32072058D01*
X143301582Y-32072987D01*
G37*
G36*
X146800242Y-24639226D02*
G01*
X146814260Y-24676548D01*
X146824164Y-24760558D01*
X146829757Y-24873574D01*
X146830846Y-24997914D01*
X146827234Y-25115897D01*
X146818726Y-25209841D01*
X146805126Y-25262064D01*
X146769122Y-25295671D01*
X146697161Y-25334951D01*
X146615714Y-25358697D01*
X146489081Y-25353661D01*
X146390828Y-25291330D01*
X146328317Y-25174901D01*
X146317063Y-25126481D01*
X146304392Y-25012731D01*
X146302952Y-24888780D01*
X146311739Y-24773748D01*
X146329751Y-24686752D01*
X146355988Y-24646913D01*
X146369409Y-24648210D01*
X146386011Y-24683863D01*
X146395005Y-24769198D01*
X146397709Y-24912613D01*
X146400675Y-25054328D01*
X146414816Y-25166224D01*
X146445854Y-25232416D01*
X146499455Y-25263996D01*
X146581284Y-25272058D01*
X146651880Y-25266596D01*
X146709890Y-25239415D01*
X146744242Y-25179230D01*
X146760658Y-25074928D01*
X146764858Y-24915391D01*
X146765035Y-24883996D01*
X146770320Y-24755786D01*
X146781872Y-24670002D01*
X146798235Y-24638724D01*
X146800242Y-24639226D01*
G37*
G36*
X134754185Y-24645657D02*
G01*
X134816033Y-24648764D01*
X134933899Y-24661472D01*
X135009744Y-24679305D01*
X135037484Y-24699158D01*
X135011037Y-24717925D01*
X134924319Y-24732503D01*
X134815843Y-24742948D01*
X134815843Y-25040836D01*
X134815824Y-25059525D01*
X134813380Y-25198806D01*
X134805505Y-25284152D01*
X134790277Y-25326985D01*
X134765778Y-25338724D01*
X134762637Y-25338608D01*
X134739228Y-25324069D01*
X134724884Y-25277208D01*
X134717685Y-25186604D01*
X134715712Y-25040836D01*
X134715712Y-24742948D01*
X134609807Y-24732503D01*
X134606493Y-24732156D01*
X134529618Y-24711920D01*
X134489738Y-24678990D01*
X134492425Y-24661820D01*
X134529444Y-24648009D01*
X134613454Y-24643030D01*
X134754185Y-24645657D01*
G37*
G36*
X143310666Y-29120122D02*
G01*
X143352644Y-29172058D01*
X143389955Y-29213205D01*
X143452460Y-29242047D01*
X143454676Y-29242187D01*
X143472580Y-29250920D01*
X143427144Y-29268444D01*
X143411318Y-29273143D01*
X143373853Y-29292946D01*
X143352180Y-29332154D01*
X143340720Y-29406517D01*
X143333895Y-29531788D01*
X143331474Y-29581044D01*
X143319969Y-29702681D01*
X143305037Y-29762027D01*
X143289139Y-29762194D01*
X143274735Y-29706292D01*
X143264288Y-29597432D01*
X143260259Y-29438724D01*
X143261357Y-29341856D01*
X143266526Y-29219893D01*
X143274967Y-29136368D01*
X143285607Y-29105391D01*
X143310666Y-29120122D01*
G37*
G36*
X150763268Y-26157305D02*
G01*
X150802148Y-26218329D01*
X150850620Y-26329134D01*
X150912411Y-26497058D01*
X150957427Y-26627301D01*
X150999084Y-26751756D01*
X151027272Y-26840664D01*
X151037541Y-26880391D01*
X151031787Y-26891813D01*
X150987066Y-26905391D01*
X150964241Y-26903713D01*
X150937000Y-26890234D01*
X150927182Y-26857015D01*
X150899040Y-26773333D01*
X150856997Y-26652316D01*
X150805491Y-26506901D01*
X150802189Y-26497649D01*
X150747937Y-26342059D01*
X150715651Y-26238263D01*
X150703315Y-26176369D01*
X150708913Y-26146487D01*
X150730428Y-26138724D01*
X150763268Y-26157305D01*
G37*
G36*
X145055301Y-22376377D02*
G01*
X145028936Y-22400914D01*
X144970837Y-22399272D01*
X144917021Y-22387776D01*
X144885914Y-22352052D01*
X144879050Y-22272058D01*
X144912427Y-22272058D01*
X144922646Y-22326047D01*
X144970837Y-22365712D01*
X144990152Y-22367552D01*
X145020969Y-22345247D01*
X145029247Y-22272058D01*
X145028203Y-22237574D01*
X145012481Y-22185259D01*
X144970837Y-22178403D01*
X144933969Y-22199914D01*
X144912427Y-22272058D01*
X144879050Y-22272058D01*
X144883229Y-22203174D01*
X144908522Y-22160729D01*
X144970837Y-22144843D01*
X144995066Y-22142409D01*
X145040903Y-22147782D01*
X145059270Y-22185244D01*
X145062624Y-22272058D01*
X145062391Y-22308396D01*
X145055301Y-22376377D01*
G37*
G36*
X137521398Y-24639226D02*
G01*
X137535416Y-24676548D01*
X137545320Y-24760558D01*
X137550914Y-24873574D01*
X137552002Y-24997914D01*
X137548390Y-25115897D01*
X137539882Y-25209841D01*
X137526282Y-25262064D01*
X137490279Y-25295671D01*
X137418318Y-25334951D01*
X137385624Y-25347878D01*
X137325415Y-25366180D01*
X137273336Y-25362323D01*
X137193753Y-25336561D01*
X137119643Y-25294103D01*
X137053607Y-25208996D01*
X137052468Y-25206168D01*
X137033543Y-25122827D01*
X137024904Y-25009970D01*
X137025747Y-24886775D01*
X137035271Y-24772420D01*
X137052671Y-24686081D01*
X137077144Y-24646936D01*
X137090573Y-24648229D01*
X137107171Y-24683878D01*
X137116162Y-24769205D01*
X137118866Y-24912613D01*
X137122082Y-25059495D01*
X137136711Y-25169228D01*
X137168651Y-25233794D01*
X137223771Y-25264351D01*
X137307941Y-25272058D01*
X137364351Y-25267109D01*
X137424598Y-25237097D01*
X137461838Y-25171072D01*
X137480750Y-25059017D01*
X137486014Y-24890916D01*
X137486054Y-24877630D01*
X137490904Y-24753902D01*
X137502612Y-24669768D01*
X137519391Y-24638724D01*
X137521398Y-24639226D01*
G37*
G36*
X153333209Y-23055728D02*
G01*
X153325830Y-23097027D01*
X153316598Y-23080391D01*
X153300531Y-23033643D01*
X153270002Y-23005391D01*
X153242385Y-23022732D01*
X153207049Y-23080391D01*
X153188416Y-23116960D01*
X153181387Y-23099638D01*
X153183665Y-23022058D01*
X153191456Y-22948984D01*
X153196252Y-22938724D01*
X153206645Y-22938724D01*
X153212294Y-22954058D01*
X153256711Y-22972058D01*
X153279742Y-22968297D01*
X153306776Y-22938724D01*
X153301128Y-22923390D01*
X153256711Y-22905391D01*
X153233679Y-22909152D01*
X153206645Y-22938724D01*
X153196252Y-22938724D01*
X153215591Y-22897350D01*
X153265628Y-22878072D01*
X153281648Y-22876128D01*
X153319944Y-22882411D01*
X153335033Y-22921983D01*
X153335141Y-22938724D01*
X153335608Y-23011406D01*
X153333209Y-23055728D01*
G37*
G36*
X135618902Y-24639226D02*
G01*
X135632920Y-24676548D01*
X135642823Y-24760558D01*
X135648417Y-24873574D01*
X135649506Y-24997914D01*
X135645894Y-25115897D01*
X135637386Y-25209841D01*
X135623786Y-25262064D01*
X135587782Y-25295671D01*
X135515821Y-25334951D01*
X135479982Y-25349093D01*
X135421337Y-25366356D01*
X135369108Y-25361826D01*
X135288508Y-25335604D01*
X135269544Y-25328410D01*
X135193342Y-25274124D01*
X135147688Y-25177271D01*
X135136231Y-25128120D01*
X135123304Y-25013636D01*
X135121651Y-24889228D01*
X135130302Y-24773942D01*
X135148290Y-24686822D01*
X135174648Y-24646913D01*
X135188069Y-24648210D01*
X135204671Y-24683863D01*
X135213664Y-24769198D01*
X135216369Y-24912613D01*
X135219585Y-25059495D01*
X135234214Y-25169228D01*
X135266154Y-25233794D01*
X135321274Y-25264351D01*
X135405444Y-25272058D01*
X135461854Y-25267109D01*
X135522101Y-25237097D01*
X135559341Y-25171072D01*
X135578253Y-25059017D01*
X135583518Y-24890916D01*
X135583557Y-24877630D01*
X135588408Y-24753902D01*
X135600116Y-24669768D01*
X135616895Y-24638724D01*
X135618902Y-24639226D01*
G37*
G36*
X143520265Y-31072873D02*
G01*
X143499627Y-31150639D01*
X143460522Y-31205391D01*
X143399673Y-31249434D01*
X143327013Y-31272058D01*
X143277712Y-31266005D01*
X143194004Y-31210718D01*
X143143604Y-31098055D01*
X143127488Y-30935860D01*
X143193252Y-30935860D01*
X143201771Y-31052196D01*
X143228056Y-31140916D01*
X143234093Y-31151135D01*
X143296330Y-31198976D01*
X143369523Y-31192969D01*
X143429706Y-31133944D01*
X143433865Y-31125245D01*
X143452257Y-31041462D01*
X143455188Y-30930693D01*
X143444615Y-30816240D01*
X143422490Y-30721408D01*
X143390766Y-30669500D01*
X143355837Y-30649876D01*
X143303845Y-30645775D01*
X143245954Y-30691105D01*
X143225383Y-30724072D01*
X143201467Y-30817841D01*
X143193252Y-30935860D01*
X143127488Y-30935860D01*
X143126750Y-30928428D01*
X143130846Y-30830971D01*
X143145879Y-30726451D01*
X143168472Y-30665128D01*
X143236541Y-30607241D01*
X143334847Y-30591881D01*
X143438588Y-30640560D01*
X143481114Y-30678611D01*
X143511114Y-30728857D01*
X143524324Y-30803842D01*
X143527276Y-30924477D01*
X143527245Y-30930693D01*
X143527138Y-30952304D01*
X143520265Y-31072873D01*
G37*
G36*
X136406877Y-26340546D02*
G01*
X136430929Y-26356572D01*
X136444307Y-26400143D01*
X136450081Y-26484292D01*
X136451323Y-26622058D01*
X136450894Y-26716744D01*
X136447118Y-26818831D01*
X136436853Y-26875610D01*
X136417027Y-26900118D01*
X136384569Y-26905391D01*
X136362260Y-26903569D01*
X136338208Y-26887543D01*
X136324831Y-26843972D01*
X136319057Y-26759823D01*
X136317815Y-26622058D01*
X136318244Y-26527371D01*
X136322020Y-26425284D01*
X136332285Y-26368505D01*
X136352111Y-26343997D01*
X136384569Y-26338724D01*
X136406877Y-26340546D01*
G37*
G36*
X153452224Y-21224548D02*
G01*
X153487192Y-21291059D01*
X153529008Y-21388790D01*
X153559162Y-21471564D01*
X153579717Y-21544096D01*
X153579074Y-21571991D01*
X153561855Y-21552901D01*
X153526887Y-21486389D01*
X153485071Y-21388658D01*
X153454917Y-21305885D01*
X153434362Y-21233353D01*
X153435005Y-21205457D01*
X153452224Y-21224548D01*
G37*
G36*
X153405837Y-22840589D02*
G01*
X153432719Y-22881180D01*
X153467947Y-22958285D01*
X153502944Y-23049909D01*
X153529136Y-23134054D01*
X153537946Y-23188724D01*
X153533381Y-23198753D01*
X153515917Y-23172058D01*
X153508677Y-23153780D01*
X153477181Y-23077321D01*
X153436296Y-22980391D01*
X153418183Y-22934677D01*
X153398042Y-22865826D01*
X153401501Y-22838724D01*
X153405837Y-22840589D01*
G37*
G36*
X153211108Y-21239114D02*
G01*
X153235652Y-21273670D01*
X153258971Y-21347058D01*
X153283224Y-21455391D01*
X153325838Y-21338724D01*
X153350889Y-21278091D01*
X153368178Y-21259618D01*
X153369147Y-21301535D01*
X153352670Y-21401224D01*
X153345150Y-21432269D01*
X153314097Y-21493769D01*
X153279167Y-21497053D01*
X153249693Y-21438724D01*
X153249098Y-21436496D01*
X153219092Y-21380315D01*
X153187754Y-21382204D01*
X153173268Y-21441502D01*
X153165070Y-21481237D01*
X153134255Y-21497959D01*
X153102859Y-21465416D01*
X153068838Y-21400406D01*
X153040900Y-21325768D01*
X153027560Y-21264282D01*
X153037334Y-21238724D01*
X153039761Y-21239116D01*
X153065479Y-21273677D01*
X153089555Y-21347058D01*
X153114319Y-21455391D01*
X153148622Y-21347058D01*
X153152163Y-21336278D01*
X153182446Y-21267036D01*
X153208821Y-21238724D01*
X153211108Y-21239114D01*
G37*
G36*
X152966142Y-21422960D02*
G01*
X152958745Y-21464030D01*
X152949450Y-21447058D01*
X152949222Y-21445891D01*
X152920383Y-21383408D01*
X152881439Y-21380554D01*
X152849168Y-21438724D01*
X152833032Y-21477624D01*
X152800257Y-21505391D01*
X152788769Y-21501409D01*
X152792404Y-21467254D01*
X152807515Y-21417014D01*
X152813294Y-21333920D01*
X152813638Y-21305391D01*
X152839497Y-21305391D01*
X152845145Y-21320725D01*
X152889562Y-21338724D01*
X152912594Y-21334963D01*
X152939628Y-21305391D01*
X152933980Y-21290057D01*
X152889562Y-21272058D01*
X152866531Y-21275818D01*
X152839497Y-21305391D01*
X152813638Y-21305391D01*
X152813730Y-21297782D01*
X152833160Y-21250144D01*
X152891795Y-21238724D01*
X152907457Y-21238985D01*
X152950482Y-21250153D01*
X152967525Y-21291207D01*
X152967674Y-21305391D01*
X152968460Y-21380391D01*
X152966142Y-21422960D01*
G37*
G36*
X136439253Y-32055391D02*
G01*
X136459459Y-32082190D01*
X136521648Y-32105391D01*
X136557040Y-32111150D01*
X136584832Y-32138724D01*
X136572314Y-32158098D01*
X136518077Y-32172058D01*
X136512764Y-32172123D01*
X136479766Y-32180388D01*
X136461246Y-32212518D01*
X136453124Y-32282767D01*
X136451323Y-32405391D01*
X136450391Y-32488233D01*
X136443505Y-32580315D01*
X136427510Y-32626241D01*
X136399587Y-32638724D01*
X136387839Y-32637158D01*
X136368015Y-32617562D01*
X136357153Y-32566251D01*
X136353650Y-32471619D01*
X136355907Y-32322058D01*
X136358524Y-32245994D01*
X136369591Y-32102379D01*
X136386956Y-32022032D01*
X136410288Y-32006015D01*
X136439253Y-32055391D01*
G37*
G36*
X146772482Y-28816621D02*
G01*
X146783421Y-28886236D01*
X146791505Y-29015893D01*
X146796516Y-29201440D01*
X146798235Y-29438724D01*
X146797643Y-29583390D01*
X146793974Y-29790954D01*
X146787141Y-29944354D01*
X146777363Y-30039440D01*
X146764858Y-30072058D01*
X146757234Y-30060827D01*
X146746295Y-29991212D01*
X146738211Y-29861555D01*
X146733200Y-29676008D01*
X146731481Y-29438724D01*
X146732073Y-29294058D01*
X146735741Y-29086494D01*
X146742574Y-28933094D01*
X146752353Y-28838009D01*
X146764858Y-28805391D01*
X146772482Y-28816621D01*
G37*
G36*
X136217254Y-26716744D02*
G01*
X136213478Y-26818831D01*
X136203213Y-26875610D01*
X136183387Y-26900118D01*
X136150929Y-26905391D01*
X136120793Y-26901577D01*
X136091642Y-26869133D01*
X136084175Y-26788724D01*
X136083890Y-26773418D01*
X136073011Y-26701362D01*
X136051245Y-26672058D01*
X136044836Y-26673806D01*
X136008869Y-26713374D01*
X135969506Y-26788724D01*
X135917429Y-26875317D01*
X135852508Y-26905391D01*
X135826827Y-26904710D01*
X135802320Y-26893138D01*
X135806827Y-26853840D01*
X135838612Y-26769881D01*
X135857701Y-26718420D01*
X135873140Y-26641431D01*
X135855031Y-26596548D01*
X135822040Y-26550625D01*
X135818070Y-26505391D01*
X135967355Y-26505391D01*
X135976109Y-26532843D01*
X136025765Y-26565712D01*
X136067282Y-26560100D01*
X136084175Y-26505391D01*
X136073075Y-26456665D01*
X136025765Y-26445070D01*
X135995102Y-26458325D01*
X135967355Y-26505391D01*
X135818070Y-26505391D01*
X135815322Y-26474077D01*
X135860373Y-26406063D01*
X135948214Y-26357354D01*
X136069870Y-26338724D01*
X136217683Y-26338724D01*
X136217683Y-26622058D01*
X136217254Y-26716744D01*
G37*
G36*
X144688531Y-22322395D02*
G01*
X144681152Y-22363694D01*
X144671920Y-22347058D01*
X144671692Y-22345891D01*
X144642853Y-22283408D01*
X144603909Y-22280554D01*
X144571638Y-22338724D01*
X144556050Y-22377664D01*
X144525745Y-22405391D01*
X144513761Y-22397238D01*
X144517647Y-22352458D01*
X144529188Y-22312486D01*
X144541632Y-22227458D01*
X144548346Y-22205391D01*
X144561967Y-22205391D01*
X144567615Y-22220725D01*
X144612033Y-22238724D01*
X144635064Y-22234963D01*
X144662098Y-22205391D01*
X144656450Y-22190057D01*
X144612033Y-22172058D01*
X144589001Y-22175818D01*
X144561967Y-22205391D01*
X144548346Y-22205391D01*
X144556299Y-22179255D01*
X144620377Y-22144739D01*
X144636928Y-22142750D01*
X144675302Y-22149080D01*
X144690378Y-22188659D01*
X144690481Y-22205391D01*
X144690930Y-22278072D01*
X144688531Y-22322395D01*
G37*
G36*
X136606737Y-29648063D02*
G01*
X136566857Y-29727024D01*
X136518930Y-29763844D01*
X136440425Y-29772058D01*
X136353938Y-29761148D01*
X136285700Y-29715269D01*
X136245077Y-29624103D01*
X136224694Y-29477586D01*
X136223288Y-29456707D01*
X136223151Y-29440422D01*
X136296876Y-29440422D01*
X136303773Y-29556361D01*
X136325473Y-29638429D01*
X136335963Y-29656691D01*
X136399196Y-29720482D01*
X136464986Y-29724031D01*
X136521808Y-29665735D01*
X136536551Y-29629574D01*
X136556074Y-29524337D01*
X136559304Y-29403396D01*
X136546480Y-29293594D01*
X136517843Y-29221776D01*
X136459584Y-29182537D01*
X136386971Y-29174525D01*
X136334995Y-29204597D01*
X136324886Y-29225788D01*
X136304131Y-29320326D01*
X136296876Y-29440422D01*
X136223151Y-29440422D01*
X136222332Y-29343302D01*
X136240611Y-29265445D01*
X136283599Y-29197058D01*
X136327537Y-29151224D01*
X136412216Y-29109917D01*
X136492806Y-29121170D01*
X136562802Y-29175905D01*
X136615699Y-29265041D01*
X136644990Y-29379499D01*
X136644840Y-29403396D01*
X136644171Y-29510200D01*
X136606737Y-29648063D01*
G37*
G36*
X136623030Y-31109582D02*
G01*
X136599250Y-31164775D01*
X136556101Y-31208266D01*
X136485710Y-31251896D01*
X136416671Y-31272058D01*
X136374627Y-31264471D01*
X136302313Y-31208751D01*
X136249769Y-31112673D01*
X136220111Y-30992693D01*
X136219954Y-30987239D01*
X136287721Y-30987239D01*
X136316988Y-31119888D01*
X136352808Y-31179081D01*
X136414060Y-31208619D01*
X136477952Y-31187943D01*
X136530222Y-31123012D01*
X136556609Y-31019785D01*
X136560839Y-30942191D01*
X136556143Y-30805935D01*
X136529520Y-30718366D01*
X136478592Y-30668793D01*
X136448456Y-30654629D01*
X136397541Y-30654436D01*
X136345084Y-30704646D01*
X136325000Y-30735774D01*
X136291009Y-30850070D01*
X136287721Y-30987239D01*
X136219954Y-30987239D01*
X136216454Y-30865264D01*
X136241915Y-30746841D01*
X136299609Y-30653876D01*
X136305744Y-30647815D01*
X136390026Y-30585296D01*
X136466718Y-30581573D01*
X136555406Y-30635217D01*
X136589122Y-30666979D01*
X136617458Y-30718074D01*
X136630678Y-30796328D01*
X136634202Y-30921426D01*
X136633919Y-30942191D01*
X136632819Y-31022941D01*
X136623030Y-31109582D01*
G37*
G36*
X136873039Y-26905391D02*
G01*
X136776696Y-26897781D01*
X136651657Y-26849658D01*
X136576529Y-26757334D01*
X136551661Y-26622058D01*
X136684963Y-26622058D01*
X136696288Y-26705194D01*
X136725016Y-26765391D01*
X136751109Y-26784287D01*
X136825147Y-26805391D01*
X136840129Y-26804255D01*
X136868501Y-26784682D01*
X136881874Y-26729013D01*
X136885226Y-26622058D01*
X136884854Y-26576339D01*
X136878440Y-26489760D01*
X136860197Y-26448951D01*
X136825147Y-26438724D01*
X136767876Y-26450005D01*
X136706424Y-26511693D01*
X136684963Y-26622058D01*
X136551661Y-26622058D01*
X136551455Y-26620937D01*
X136561217Y-26520418D01*
X136611673Y-26416708D01*
X136709144Y-26357528D01*
X136858142Y-26338724D01*
X137018734Y-26338724D01*
X137018734Y-26905391D01*
X136873039Y-26905391D01*
G37*
G36*
X148375641Y-24648116D02*
G01*
X148388787Y-24711970D01*
X148397306Y-24828518D01*
X148400338Y-24988724D01*
X148399442Y-25079746D01*
X148393353Y-25217600D01*
X148382238Y-25306937D01*
X148366960Y-25338724D01*
X148358280Y-25329333D01*
X148345134Y-25265478D01*
X148336615Y-25148930D01*
X148333583Y-24988724D01*
X148334479Y-24897702D01*
X148340568Y-24759848D01*
X148351683Y-24670511D01*
X148366960Y-24638724D01*
X148375641Y-24648116D01*
G37*
G36*
X138304516Y-25169654D02*
G01*
X138230414Y-25277694D01*
X138120180Y-25348517D01*
X138062724Y-25363791D01*
X137936758Y-25357090D01*
X137828623Y-25300456D01*
X137746433Y-25205394D01*
X137698304Y-25083414D01*
X137697229Y-25058609D01*
X137781082Y-25058609D01*
X137830744Y-25184668D01*
X137879753Y-25234700D01*
X137979762Y-25272302D01*
X138090042Y-25262991D01*
X138186934Y-25205391D01*
X138233682Y-25133379D01*
X138256161Y-25014143D01*
X138235215Y-24890309D01*
X138171763Y-24787209D01*
X138167357Y-24782862D01*
X138070296Y-24717654D01*
X137973656Y-24717199D01*
X137868619Y-24781328D01*
X137836636Y-24814657D01*
X137783724Y-24928051D01*
X137781082Y-25058609D01*
X137697229Y-25058609D01*
X137692350Y-24946021D01*
X137736688Y-24804724D01*
X137793674Y-24724140D01*
X137903858Y-24653316D01*
X138037650Y-24640518D01*
X138185812Y-24688144D01*
X138206335Y-24699922D01*
X138293393Y-24789531D01*
X138337668Y-24908843D01*
X138340178Y-25014143D01*
X138340821Y-25041127D01*
X138304516Y-25169654D01*
G37*
G36*
X146787109Y-28749835D02*
G01*
X146792331Y-28759861D01*
X146764858Y-28772058D01*
X146747188Y-28769652D01*
X146742607Y-28749835D01*
X146747499Y-28745846D01*
X146787109Y-28749835D01*
G37*
G36*
X146167978Y-24646058D02*
G01*
X146215365Y-24657642D01*
X146223158Y-24678990D01*
X146222664Y-24680340D01*
X146180798Y-24713025D01*
X146103089Y-24732503D01*
X145997184Y-24742948D01*
X145997184Y-25040836D01*
X145997164Y-25059525D01*
X145994721Y-25198806D01*
X145986845Y-25284152D01*
X145971617Y-25326985D01*
X145947118Y-25338724D01*
X145943977Y-25338608D01*
X145920568Y-25324069D01*
X145906224Y-25277208D01*
X145899025Y-25186604D01*
X145897052Y-25040836D01*
X145897052Y-24742948D01*
X145788577Y-24732503D01*
X145743655Y-24726970D01*
X145683504Y-24710217D01*
X145681016Y-24690604D01*
X145730111Y-24671237D01*
X145824703Y-24655219D01*
X145958711Y-24645657D01*
X146071270Y-24643013D01*
X146167978Y-24646058D01*
G37*
G36*
X132946483Y-33172058D02*
G01*
X132949341Y-31655391D01*
X133046851Y-31655391D01*
X133046853Y-32363724D01*
X133046855Y-33072058D01*
X139855791Y-33072058D01*
X139887840Y-33072058D01*
X146731481Y-33072058D01*
X146731481Y-32388724D01*
X146732371Y-32198444D01*
X146736273Y-31988350D01*
X146743110Y-31833647D01*
X146752699Y-31738079D01*
X146764858Y-31705391D01*
X146773034Y-31706178D01*
X146794283Y-31730391D01*
X146794108Y-31732194D01*
X146793156Y-31780389D01*
X146792698Y-31883195D01*
X146792732Y-32030057D01*
X146793261Y-32210419D01*
X146794283Y-32413724D01*
X146798235Y-33072058D01*
X153607171Y-33072058D01*
X153607171Y-31672058D01*
X146781547Y-31672058D01*
X146371592Y-31672043D01*
X145711748Y-31671955D01*
X145071557Y-31671791D01*
X144454159Y-31671556D01*
X143862694Y-31671254D01*
X143300302Y-31670887D01*
X142770124Y-31670460D01*
X142275299Y-31669977D01*
X141818967Y-31669441D01*
X141404269Y-31668857D01*
X141034344Y-31668228D01*
X140712334Y-31667557D01*
X140441377Y-31666850D01*
X140224614Y-31666109D01*
X140065185Y-31665339D01*
X139966230Y-31664542D01*
X139930889Y-31663724D01*
X139928075Y-31667112D01*
X139920287Y-31718141D01*
X139912806Y-31822846D01*
X139906097Y-31971698D01*
X139900624Y-32155167D01*
X139896849Y-32363724D01*
X139887840Y-33072058D01*
X139855791Y-33072058D01*
X139855791Y-31672682D01*
X136451321Y-31664036D01*
X133046851Y-31655391D01*
X132949341Y-31655391D01*
X132950792Y-30885158D01*
X133046855Y-30885158D01*
X133047157Y-31067259D01*
X133048823Y-31263210D01*
X133052455Y-31406629D01*
X133058622Y-31505659D01*
X133067892Y-31568445D01*
X133080834Y-31603132D01*
X133098016Y-31617865D01*
X133105826Y-31619103D01*
X133170146Y-31622241D01*
X133293286Y-31625091D01*
X133469785Y-31627655D01*
X133694184Y-31629933D01*
X133961024Y-31631926D01*
X134264844Y-31633635D01*
X134600185Y-31635061D01*
X134961588Y-31636205D01*
X135343592Y-31637067D01*
X135740737Y-31637649D01*
X136147565Y-31637950D01*
X136558615Y-31637973D01*
X136968428Y-31637718D01*
X137371544Y-31637186D01*
X137762503Y-31636378D01*
X138135846Y-31635293D01*
X138486113Y-31633935D01*
X138807844Y-31632303D01*
X139095579Y-31630397D01*
X139343859Y-31628220D01*
X139547224Y-31625772D01*
X139700215Y-31623053D01*
X139797371Y-31620065D01*
X139833233Y-31616808D01*
X139835623Y-31610432D01*
X139842057Y-31551008D01*
X139847601Y-31438496D01*
X139851944Y-31282969D01*
X139854778Y-31094502D01*
X139855783Y-30884836D01*
X139889168Y-30884836D01*
X139889318Y-31117811D01*
X139890353Y-31295337D01*
X139893151Y-31423222D01*
X139898587Y-31510024D01*
X139907540Y-31564299D01*
X139920886Y-31594603D01*
X139939503Y-31609495D01*
X139964267Y-31617530D01*
X139982745Y-31619224D01*
X140064152Y-31621937D01*
X140204938Y-31624517D01*
X140400504Y-31626936D01*
X140646252Y-31629169D01*
X140937586Y-31631187D01*
X141269908Y-31632966D01*
X141638620Y-31634477D01*
X142039125Y-31635695D01*
X142466826Y-31636593D01*
X142917124Y-31637145D01*
X143385423Y-31637323D01*
X146731481Y-31637201D01*
X146731481Y-31636810D01*
X146798235Y-31636810D01*
X150160981Y-31635130D01*
X150465778Y-31634909D01*
X150922933Y-31634313D01*
X151358593Y-31633430D01*
X151768230Y-31632286D01*
X152147321Y-31630903D01*
X152491337Y-31629308D01*
X152795755Y-31627525D01*
X153056047Y-31625578D01*
X153267689Y-31623491D01*
X153426153Y-31621290D01*
X153526916Y-31618999D01*
X153565449Y-31616642D01*
X153576225Y-31603907D01*
X153588331Y-31555554D01*
X153597116Y-31465921D01*
X153602943Y-31328670D01*
X153606174Y-31137458D01*
X153607171Y-30885946D01*
X153607171Y-30172058D01*
X146798235Y-30172058D01*
X146798235Y-31636810D01*
X146731481Y-31636810D01*
X146731481Y-30172058D01*
X139889168Y-30172058D01*
X139889168Y-30884836D01*
X139855783Y-30884836D01*
X139855791Y-30883169D01*
X139855791Y-30172058D01*
X133046855Y-30172058D01*
X133046855Y-30885158D01*
X132950792Y-30885158D01*
X132952199Y-30138724D01*
X133046855Y-30138724D01*
X139855791Y-30138724D01*
X139855791Y-30138484D01*
X139889168Y-30138484D01*
X146748169Y-30138483D01*
X153607171Y-30138481D01*
X153607171Y-28705391D01*
X139889168Y-28705391D01*
X139889168Y-30138484D01*
X139855791Y-30138484D01*
X139855791Y-28705391D01*
X133046855Y-28705391D01*
X133046855Y-30138724D01*
X132952199Y-30138724D01*
X132954948Y-28680391D01*
X132954965Y-28672058D01*
X133046855Y-28672058D01*
X139855791Y-28672058D01*
X139855791Y-28671818D01*
X139887867Y-28671818D01*
X146748169Y-28671816D01*
X153608472Y-28671814D01*
X153590482Y-27222058D01*
X150194359Y-27213566D01*
X146798235Y-27205075D01*
X146798235Y-27905233D01*
X146797239Y-28111021D01*
X146793270Y-28321875D01*
X146786434Y-28476969D01*
X146776906Y-28572682D01*
X146764858Y-28605391D01*
X146755048Y-28584494D01*
X146744996Y-28501228D01*
X146737603Y-28357848D01*
X146733040Y-28157976D01*
X146731481Y-27905234D01*
X146731481Y-27205076D01*
X139905857Y-27222058D01*
X139887867Y-28671818D01*
X139855791Y-28671818D01*
X139855791Y-27205391D01*
X133046855Y-27205391D01*
X133046855Y-28672058D01*
X132954965Y-28672058D01*
X132955496Y-28412915D01*
X132956856Y-27880365D01*
X132958517Y-27368462D01*
X132959296Y-27172058D01*
X133046855Y-27172058D01*
X139855791Y-27172058D01*
X139887840Y-27172058D01*
X146731481Y-27172058D01*
X146798235Y-27172058D01*
X153607171Y-27172058D01*
X153607171Y-25738724D01*
X146798235Y-25738724D01*
X146798235Y-27172058D01*
X146731481Y-27172058D01*
X146731481Y-25738410D01*
X143318669Y-25746900D01*
X139905857Y-25755391D01*
X139896849Y-26463724D01*
X139887840Y-27172058D01*
X139855791Y-27172058D01*
X139855791Y-25772058D01*
X133046855Y-25772058D01*
X133046855Y-27172058D01*
X132959296Y-27172058D01*
X132960450Y-26881042D01*
X132962627Y-26421939D01*
X132965018Y-25994989D01*
X132966928Y-25705391D01*
X133046855Y-25705391D01*
X153607171Y-25705391D01*
X153607171Y-24305391D01*
X139889168Y-24305391D01*
X139889168Y-25705391D01*
X139855791Y-25705391D01*
X139855791Y-24305391D01*
X133046855Y-24305391D01*
X133046855Y-25705391D01*
X132966928Y-25705391D01*
X132967596Y-25604025D01*
X132970331Y-25252884D01*
X132973195Y-24945400D01*
X132976159Y-24685408D01*
X132979195Y-24476742D01*
X132982274Y-24323239D01*
X132985367Y-24228732D01*
X132988445Y-24197058D01*
X132996131Y-24197360D01*
X133060426Y-24198020D01*
X133187779Y-24198665D01*
X133375644Y-24199293D01*
X133621474Y-24199902D01*
X133922723Y-24200490D01*
X134276846Y-24201055D01*
X134681295Y-24201594D01*
X135133526Y-24202107D01*
X135630991Y-24202590D01*
X136171144Y-24203042D01*
X136751440Y-24203461D01*
X137369332Y-24203844D01*
X138022274Y-24204190D01*
X138707720Y-24204496D01*
X139423123Y-24204761D01*
X140165938Y-24204982D01*
X140933619Y-24205158D01*
X141723618Y-24205286D01*
X142533391Y-24205364D01*
X143360390Y-24205391D01*
X153707302Y-24205391D01*
X153707302Y-33172058D01*
X132946483Y-33172058D01*
G37*
G36*
X150609724Y-26242671D02*
G01*
X150636606Y-26275579D01*
X150634015Y-26296304D01*
X150618835Y-26371474D01*
X150594531Y-26477487D01*
X150566267Y-26592891D01*
X150539208Y-26696233D01*
X150518519Y-26766062D01*
X150493624Y-26790797D01*
X150429606Y-26799395D01*
X150400754Y-26791360D01*
X150354981Y-26745982D01*
X150320981Y-26649376D01*
X150294149Y-26559332D01*
X150266007Y-26495151D01*
X150244562Y-26474731D01*
X150235894Y-26508169D01*
X150235405Y-26517402D01*
X150223398Y-26588406D01*
X150200384Y-26682430D01*
X150178500Y-26748270D01*
X150144099Y-26793611D01*
X150092156Y-26799097D01*
X150079455Y-26796572D01*
X150036545Y-26769560D01*
X150000766Y-26705000D01*
X149963451Y-26588724D01*
X149925996Y-26441202D01*
X149907666Y-26324947D01*
X149915279Y-26259338D01*
X149948595Y-26238724D01*
X149970051Y-26251206D01*
X150004359Y-26324821D01*
X150037493Y-26463724D01*
X150048839Y-26522814D01*
X150067671Y-26605485D01*
X150084582Y-26635321D01*
X150104131Y-26609372D01*
X150130876Y-26524683D01*
X150169377Y-26378302D01*
X150198293Y-26293113D01*
X150239813Y-26241776D01*
X150284323Y-26255133D01*
X150329800Y-26332255D01*
X150374222Y-26472216D01*
X150381345Y-26500287D01*
X150408147Y-26599354D01*
X150425704Y-26642268D01*
X150438912Y-26636300D01*
X150452668Y-26588724D01*
X150487060Y-26447480D01*
X150516658Y-26339618D01*
X150540482Y-26276219D01*
X150562786Y-26246261D01*
X150587826Y-26238724D01*
X150609724Y-26242671D01*
G37*
G36*
X149800122Y-26661679D02*
G01*
X149792461Y-26749262D01*
X149777142Y-26793294D01*
X149752112Y-26805391D01*
X149724398Y-26797162D01*
X149698858Y-26741977D01*
X149700300Y-26630391D01*
X149700999Y-26619390D01*
X149685029Y-26575470D01*
X149644327Y-26576322D01*
X149594136Y-26616041D01*
X149549698Y-26688724D01*
X149540928Y-26708047D01*
X149495166Y-26777365D01*
X149451269Y-26805391D01*
X149446100Y-26805286D01*
X149408119Y-26787092D01*
X149410986Y-26732170D01*
X149454865Y-26632645D01*
X149459592Y-26623217D01*
X149484618Y-26549938D01*
X149477463Y-26509301D01*
X149446410Y-26478084D01*
X149427405Y-26404934D01*
X149551849Y-26404934D01*
X149571686Y-26445397D01*
X149625526Y-26467879D01*
X149678641Y-26450988D01*
X149703974Y-26406263D01*
X149687694Y-26358555D01*
X149626947Y-26344739D01*
X149580261Y-26362169D01*
X149551849Y-26404934D01*
X149427405Y-26404934D01*
X149425327Y-26396937D01*
X149456128Y-26309218D01*
X149479420Y-26282057D01*
X149545538Y-26248220D01*
X149653873Y-26238724D01*
X149802177Y-26238724D01*
X149802177Y-26522058D01*
X149800122Y-26661679D01*
G37*
G36*
X143625352Y-26728346D02*
G01*
X143617691Y-26815929D01*
X143602372Y-26859961D01*
X143577342Y-26872058D01*
X143572782Y-26871847D01*
X143538133Y-26841679D01*
X143527276Y-26755391D01*
X143527026Y-26737645D01*
X143513298Y-26661846D01*
X143475507Y-26638724D01*
X143466309Y-26640319D01*
X143419041Y-26679709D01*
X143374928Y-26755391D01*
X143366158Y-26774713D01*
X143320396Y-26844032D01*
X143276499Y-26872058D01*
X143271330Y-26871952D01*
X143233349Y-26853759D01*
X143236216Y-26798836D01*
X143280095Y-26699312D01*
X143284822Y-26689884D01*
X143309848Y-26616604D01*
X143302693Y-26575967D01*
X143271640Y-26544751D01*
X143252753Y-26472058D01*
X143377079Y-26472058D01*
X143393462Y-26505465D01*
X143452177Y-26532709D01*
X143455322Y-26533138D01*
X143512030Y-26525515D01*
X143527276Y-26472058D01*
X143527258Y-26469074D01*
X143510757Y-26417572D01*
X143452177Y-26411406D01*
X143405490Y-26428935D01*
X143377079Y-26472058D01*
X143252753Y-26472058D01*
X143250557Y-26463604D01*
X143281358Y-26375884D01*
X143304650Y-26348723D01*
X143370767Y-26314887D01*
X143479103Y-26305391D01*
X143627407Y-26305391D01*
X143627407Y-26588724D01*
X143625352Y-26728346D01*
G37*
G36*
X145450224Y-24657884D02*
G01*
X145533234Y-24711735D01*
X145585048Y-24785419D01*
X145595449Y-24863965D01*
X145554218Y-24932404D01*
X145528190Y-24948971D01*
X145448410Y-24987554D01*
X145345610Y-25029196D01*
X145323194Y-25037651D01*
X145233265Y-25078717D01*
X145190382Y-25119507D01*
X145179444Y-25173101D01*
X145179991Y-25194565D01*
X145192989Y-25234880D01*
X145236920Y-25251894D01*
X145329641Y-25255391D01*
X145420052Y-25250661D01*
X145479083Y-25228636D01*
X145512786Y-25180391D01*
X145513639Y-25178462D01*
X145552783Y-25117326D01*
X145583945Y-25112907D01*
X145596658Y-25166891D01*
X145575800Y-25232090D01*
X145507814Y-25303315D01*
X145413084Y-25347243D01*
X145390305Y-25351435D01*
X145275811Y-25345666D01*
X145170203Y-25304046D01*
X145092726Y-25237110D01*
X145062624Y-25155391D01*
X145064449Y-25137923D01*
X145108413Y-25062289D01*
X145199681Y-24992755D01*
X145323061Y-24941782D01*
X145351811Y-24933110D01*
X145453118Y-24883906D01*
X145490517Y-24823984D01*
X145462797Y-24754966D01*
X145455926Y-24747397D01*
X145378054Y-24709491D01*
X145285296Y-24718317D01*
X145205077Y-24772058D01*
X145155310Y-24820855D01*
X145111590Y-24834406D01*
X145096001Y-24790614D01*
X145103296Y-24760423D01*
X145157787Y-24700975D01*
X145248200Y-24656328D01*
X145353756Y-24638724D01*
X145450224Y-24657884D01*
G37*
G36*
X144783912Y-22199963D02*
G01*
X144786516Y-22272058D01*
X144785543Y-22320974D01*
X144780306Y-22362854D01*
X144772052Y-22347058D01*
X144766530Y-22294190D01*
X144772052Y-22197058D01*
X144777255Y-22180172D01*
X144783912Y-22199963D01*
G37*
G36*
X150226077Y-32116238D02*
G01*
X150252549Y-32145873D01*
X150319523Y-32188769D01*
X150352465Y-32203414D01*
X150363473Y-32218328D01*
X150311179Y-32230241D01*
X150293322Y-32233954D01*
X150261982Y-32250516D01*
X150244793Y-32289525D01*
X150237559Y-32365715D01*
X150236080Y-32493820D01*
X150235716Y-32547897D01*
X150230206Y-32661029D01*
X150216914Y-32719076D01*
X150194359Y-32730436D01*
X150187741Y-32726341D01*
X150166764Y-32675545D01*
X150152531Y-32566184D01*
X150144457Y-32394325D01*
X150143086Y-32303467D01*
X150147619Y-32164351D01*
X150162557Y-32088152D01*
X150188508Y-32072804D01*
X150226077Y-32116238D01*
G37*
G36*
X147464269Y-25095934D02*
G01*
X147457880Y-25222356D01*
X147447521Y-25307517D01*
X147434320Y-25338724D01*
X147425693Y-25333732D01*
X147405469Y-25283619D01*
X147392598Y-25197058D01*
X147382335Y-25055391D01*
X147219644Y-25036732D01*
X147165099Y-25028251D01*
X147045360Y-24983130D01*
X146984153Y-24908451D01*
X146983279Y-24847187D01*
X147067248Y-24847187D01*
X147099960Y-24923659D01*
X147106296Y-24930005D01*
X147173468Y-24960029D01*
X147269602Y-24972058D01*
X147299878Y-24971896D01*
X147367969Y-24964130D01*
X147394512Y-24932168D01*
X147399024Y-24858957D01*
X147396838Y-24814619D01*
X147371191Y-24746775D01*
X147307902Y-24722412D01*
X147196003Y-24734826D01*
X147179970Y-24738539D01*
X147095761Y-24781857D01*
X147067248Y-24847187D01*
X146983279Y-24847187D01*
X146982683Y-24805391D01*
X146984572Y-24797874D01*
X147011172Y-24726016D01*
X147055997Y-24682737D01*
X147135222Y-24658862D01*
X147265018Y-24645214D01*
X147465778Y-24630711D01*
X147465778Y-24984718D01*
X147464269Y-25095934D01*
G37*
G36*
X136439253Y-27688724D02*
G01*
X136459459Y-27715523D01*
X136521648Y-27738724D01*
X136557040Y-27744483D01*
X136584832Y-27772058D01*
X136572314Y-27791432D01*
X136518077Y-27805391D01*
X136512764Y-27805456D01*
X136479766Y-27813721D01*
X136461246Y-27845851D01*
X136453124Y-27916100D01*
X136451323Y-28038724D01*
X136450391Y-28121567D01*
X136443505Y-28213648D01*
X136427510Y-28259574D01*
X136399587Y-28272058D01*
X136387839Y-28270491D01*
X136368015Y-28250895D01*
X136357153Y-28199585D01*
X136353650Y-28104953D01*
X136355907Y-27955391D01*
X136358524Y-27879327D01*
X136369591Y-27735712D01*
X136386956Y-27655365D01*
X136410288Y-27639348D01*
X136439253Y-27688724D01*
G37*
%TD*%
M02*
