%TF.GenerationSoftware,KiCad,Pcbnew,(6.0.7)*%
%TF.CreationDate,2022-12-14T18:08:08+00:00*%
%TF.ProjectId,MSX_DE1_Hat,4d53585f-4445-4315-9f48-61742e6b6963,1.1*%
%TF.SameCoordinates,Original*%
%TF.FileFunction,Drillmap*%
%TF.FilePolarity,Positive*%
%FSLAX45Y45*%
G04 Gerber Fmt 4.5, Leading zero omitted, Abs format (unit mm)*
G04 Created by KiCad (PCBNEW (6.0.7)) date 2022-12-14 18:08:08*
%MOMM*%
%LPD*%
G01*
G04 APERTURE LIST*
%ADD10C,0.200000*%
G04 APERTURE END LIST*
D10*
X5445619Y-8936476D02*
X5445619Y-8736476D01*
X5493238Y-8736476D01*
X5521810Y-8746000D01*
X5540857Y-8765048D01*
X5550381Y-8784095D01*
X5559905Y-8822190D01*
X5559905Y-8850762D01*
X5550381Y-8888857D01*
X5540857Y-8907905D01*
X5521810Y-8926952D01*
X5493238Y-8936476D01*
X5445619Y-8936476D01*
X5645619Y-8936476D02*
X5645619Y-8803143D01*
X5645619Y-8841238D02*
X5655143Y-8822190D01*
X5664667Y-8812667D01*
X5683714Y-8803143D01*
X5702762Y-8803143D01*
X5769428Y-8936476D02*
X5769428Y-8803143D01*
X5769428Y-8736476D02*
X5759905Y-8746000D01*
X5769428Y-8755524D01*
X5778952Y-8746000D01*
X5769428Y-8736476D01*
X5769428Y-8755524D01*
X5893238Y-8936476D02*
X5874190Y-8926952D01*
X5864667Y-8907905D01*
X5864667Y-8736476D01*
X5998000Y-8936476D02*
X5978952Y-8926952D01*
X5969428Y-8907905D01*
X5969428Y-8736476D01*
X6226571Y-8936476D02*
X6226571Y-8736476D01*
X6293238Y-8879333D01*
X6359905Y-8736476D01*
X6359905Y-8936476D01*
X6540857Y-8936476D02*
X6540857Y-8831714D01*
X6531333Y-8812667D01*
X6512286Y-8803143D01*
X6474190Y-8803143D01*
X6455143Y-8812667D01*
X6540857Y-8926952D02*
X6521809Y-8936476D01*
X6474190Y-8936476D01*
X6455143Y-8926952D01*
X6445619Y-8907905D01*
X6445619Y-8888857D01*
X6455143Y-8869810D01*
X6474190Y-8860286D01*
X6521809Y-8860286D01*
X6540857Y-8850762D01*
X6636095Y-8803143D02*
X6636095Y-9003143D01*
X6636095Y-8812667D02*
X6655143Y-8803143D01*
X6693238Y-8803143D01*
X6712286Y-8812667D01*
X6721809Y-8822190D01*
X6731333Y-8841238D01*
X6731333Y-8898381D01*
X6721809Y-8917429D01*
X6712286Y-8926952D01*
X6693238Y-8936476D01*
X6655143Y-8936476D01*
X6636095Y-8926952D01*
X6817048Y-8917429D02*
X6826571Y-8926952D01*
X6817048Y-8936476D01*
X6807524Y-8926952D01*
X6817048Y-8917429D01*
X6817048Y-8936476D01*
X6817048Y-8812667D02*
X6826571Y-8822190D01*
X6817048Y-8831714D01*
X6807524Y-8822190D01*
X6817048Y-8812667D01*
X6817048Y-8831714D01*
M02*
