%TF.GenerationSoftware,KiCad,Pcbnew,(6.0.7)*%
%TF.CreationDate,2023-01-29T20:04:43+00:00*%
%TF.ProjectId,DE0_Addon_Board,4445305f-4164-4646-9f6e-5f426f617264,0*%
%TF.SameCoordinates,Original*%
%TF.FileFunction,Soldermask,Bot*%
%TF.FilePolarity,Negative*%
%FSLAX46Y46*%
G04 Gerber Fmt 4.6, Leading zero omitted, Abs format (unit mm)*
G04 Created by KiCad (PCBNEW (6.0.7)) date 2023-01-29 20:04:43*
%MOMM*%
%LPD*%
G01*
G04 APERTURE LIST*
%ADD10R,1.700000X1.700000*%
%ADD11O,1.700000X1.700000*%
G04 APERTURE END LIST*
D10*
%TO.C,J2*%
X63500000Y-44704000D03*
D11*
X63500000Y-47244000D03*
X63500000Y-49784000D03*
X63500000Y-52324000D03*
X63500000Y-54864000D03*
%TD*%
D10*
%TO.C,J1*%
X55372000Y-26416000D03*
D11*
X57912000Y-26416000D03*
X55372000Y-28956000D03*
X57912000Y-28956000D03*
X55372000Y-31496000D03*
X57912000Y-31496000D03*
X55372000Y-34036000D03*
X57912000Y-34036000D03*
X55372000Y-36576000D03*
X57912000Y-36576000D03*
X55372000Y-39116000D03*
X57912000Y-39116000D03*
X55372000Y-41656000D03*
X57912000Y-41656000D03*
X55372000Y-44196000D03*
X57912000Y-44196000D03*
X55372000Y-46736000D03*
X57912000Y-46736000D03*
X55372000Y-49276000D03*
X57912000Y-49276000D03*
X55372000Y-51816000D03*
X57912000Y-51816000D03*
X55372000Y-54356000D03*
X57912000Y-54356000D03*
X55372000Y-56896000D03*
X57912000Y-56896000D03*
X55372000Y-59436000D03*
X57912000Y-59436000D03*
X55372000Y-61976000D03*
X57912000Y-61976000D03*
X55372000Y-64516000D03*
X57912000Y-64516000D03*
X55372000Y-67056000D03*
X57912000Y-67056000D03*
X55372000Y-69596000D03*
X57912000Y-69596000D03*
X55372000Y-72136000D03*
X57912000Y-72136000D03*
X55372000Y-74676000D03*
X57912000Y-74676000D03*
%TD*%
M02*
