%TF.GenerationSoftware,KiCad,Pcbnew,(6.0.7)*%
%TF.CreationDate,2023-01-29T20:04:43+00:00*%
%TF.ProjectId,DE0_Addon_Board,4445305f-4164-4646-9f6e-5f426f617264,0*%
%TF.SameCoordinates,Original*%
%TF.FileFunction,Paste,Top*%
%TF.FilePolarity,Positive*%
%FSLAX46Y46*%
G04 Gerber Fmt 4.6, Leading zero omitted, Abs format (unit mm)*
G04 Created by KiCad (PCBNEW (6.0.7)) date 2023-01-29 20:04:43*
%MOMM*%
%LPD*%
G01*
G04 APERTURE LIST*
G04 Aperture macros list*
%AMRoundRect*
0 Rectangle with rounded corners*
0 $1 Rounding radius*
0 $2 $3 $4 $5 $6 $7 $8 $9 X,Y pos of 4 corners*
0 Add a 4 corners polygon primitive as box body*
4,1,4,$2,$3,$4,$5,$6,$7,$8,$9,$2,$3,0*
0 Add four circle primitives for the rounded corners*
1,1,$1+$1,$2,$3*
1,1,$1+$1,$4,$5*
1,1,$1+$1,$6,$7*
1,1,$1+$1,$8,$9*
0 Add four rect primitives between the rounded corners*
20,1,$1+$1,$2,$3,$4,$5,0*
20,1,$1+$1,$4,$5,$6,$7,0*
20,1,$1+$1,$6,$7,$8,$9,0*
20,1,$1+$1,$8,$9,$2,$3,0*%
G04 Aperture macros list end*
%ADD10RoundRect,0.155000X-0.155000X0.212500X-0.155000X-0.212500X0.155000X-0.212500X0.155000X0.212500X0*%
%ADD11RoundRect,0.038500X-0.686500X-0.236500X0.686500X-0.236500X0.686500X0.236500X-0.686500X0.236500X0*%
G04 APERTURE END LIST*
D10*
%TO.C,C2*%
X38354000Y-49978500D03*
X38354000Y-51113500D03*
%TD*%
D11*
%TO.C,U1*%
X39851000Y-41892000D03*
X39851000Y-42692000D03*
X39851000Y-43492000D03*
X39851000Y-44292000D03*
X39851000Y-45092000D03*
X39851000Y-45892000D03*
X39851000Y-46692000D03*
X39851000Y-47492000D03*
X39851000Y-48292000D03*
X39851000Y-49092000D03*
X39851000Y-49892000D03*
X39851000Y-50692000D03*
X39851000Y-51492000D03*
X39851000Y-52292000D03*
X39851000Y-53092000D03*
X39851000Y-53892000D03*
X39851000Y-54692000D03*
X39851000Y-55492000D03*
X39851000Y-56292000D03*
X39851000Y-57092000D03*
X39851000Y-57892000D03*
X39851000Y-58692000D03*
X51081000Y-58692000D03*
X51081000Y-57892000D03*
X51081000Y-57092000D03*
X51081000Y-56292000D03*
X51081000Y-55492000D03*
X51081000Y-54692000D03*
X51081000Y-53892000D03*
X51081000Y-53092000D03*
X51081000Y-52292000D03*
X51081000Y-51492000D03*
X51081000Y-50692000D03*
X51081000Y-49892000D03*
X51081000Y-49092000D03*
X51081000Y-48292000D03*
X51081000Y-47492000D03*
X51081000Y-46692000D03*
X51081000Y-45892000D03*
X51081000Y-45092000D03*
X51081000Y-44292000D03*
X51081000Y-43492000D03*
X51081000Y-42692000D03*
X51081000Y-41892000D03*
%TD*%
D10*
%TO.C,C1*%
X52578000Y-49722259D03*
X52578000Y-50857259D03*
%TD*%
M02*
