%TF.GenerationSoftware,KiCad,Pcbnew,(6.0.7)*%
%TF.CreationDate,2023-01-29T20:04:32+00:00*%
%TF.ProjectId,DE0_Addon_Board,4445305f-4164-4646-9f6e-5f426f617264,0*%
%TF.SameCoordinates,Original*%
%TF.FileFunction,Drillmap*%
%TF.FilePolarity,Positive*%
%FSLAX45Y45*%
G04 Gerber Fmt 4.5, Leading zero omitted, Abs format (unit mm)*
G04 Created by KiCad (PCBNEW (6.0.7)) date 2023-01-29 20:04:32*
%MOMM*%
%LPD*%
G01*
G04 APERTURE LIST*
%ADD10C,0.100000*%
%ADD11C,0.200000*%
G04 APERTURE END LIST*
D10*
X6553200Y-2184400D02*
X3784600Y-2184400D01*
X3784600Y-2184400D02*
X3784600Y-7848600D01*
X3784600Y-7848600D02*
X6553200Y-7848600D01*
X6553200Y-7848600D02*
X6553200Y-2184400D01*
D11*
X4037219Y-8164076D02*
X4037219Y-7964076D01*
X4084838Y-7964076D01*
X4113409Y-7973600D01*
X4132457Y-7992648D01*
X4141981Y-8011695D01*
X4151505Y-8049790D01*
X4151505Y-8078362D01*
X4141981Y-8116457D01*
X4132457Y-8135505D01*
X4113409Y-8154552D01*
X4084838Y-8164076D01*
X4037219Y-8164076D01*
X4237219Y-8164076D02*
X4237219Y-8030743D01*
X4237219Y-8068838D02*
X4246743Y-8049790D01*
X4256267Y-8040267D01*
X4275314Y-8030743D01*
X4294362Y-8030743D01*
X4361029Y-8164076D02*
X4361029Y-8030743D01*
X4361029Y-7964076D02*
X4351505Y-7973600D01*
X4361029Y-7983124D01*
X4370552Y-7973600D01*
X4361029Y-7964076D01*
X4361029Y-7983124D01*
X4484838Y-8164076D02*
X4465790Y-8154552D01*
X4456267Y-8135505D01*
X4456267Y-7964076D01*
X4589600Y-8164076D02*
X4570552Y-8154552D01*
X4561029Y-8135505D01*
X4561029Y-7964076D01*
X4818171Y-8164076D02*
X4818171Y-7964076D01*
X4884838Y-8106933D01*
X4951505Y-7964076D01*
X4951505Y-8164076D01*
X5132457Y-8164076D02*
X5132457Y-8059314D01*
X5122933Y-8040267D01*
X5103886Y-8030743D01*
X5065790Y-8030743D01*
X5046743Y-8040267D01*
X5132457Y-8154552D02*
X5113410Y-8164076D01*
X5065790Y-8164076D01*
X5046743Y-8154552D01*
X5037219Y-8135505D01*
X5037219Y-8116457D01*
X5046743Y-8097409D01*
X5065790Y-8087886D01*
X5113410Y-8087886D01*
X5132457Y-8078362D01*
X5227695Y-8030743D02*
X5227695Y-8230743D01*
X5227695Y-8040267D02*
X5246743Y-8030743D01*
X5284838Y-8030743D01*
X5303886Y-8040267D01*
X5313410Y-8049790D01*
X5322933Y-8068838D01*
X5322933Y-8125981D01*
X5313410Y-8145028D01*
X5303886Y-8154552D01*
X5284838Y-8164076D01*
X5246743Y-8164076D01*
X5227695Y-8154552D01*
X5408648Y-8145028D02*
X5418171Y-8154552D01*
X5408648Y-8164076D01*
X5399124Y-8154552D01*
X5408648Y-8145028D01*
X5408648Y-8164076D01*
X5408648Y-8040267D02*
X5418171Y-8049790D01*
X5408648Y-8059314D01*
X5399124Y-8049790D01*
X5408648Y-8040267D01*
X5408648Y-8059314D01*
M02*
