M48
; DRILL file {KiCad (6.0.7)} date Sun Jan 29 20:04:36 2023
; FORMAT={-:-/ absolute / inch / decimal}
; #@! TF.CreationDate,2023-01-29T20:04:36+00:00
; #@! TF.GenerationSoftware,Kicad,Pcbnew,(6.0.7)
; #@! TF.FileFunction,Plated,1,2,PTH
FMAT,2
INCH
; #@! TA.AperFunction,Plated,PTH,ViaDrill
T1C0.0157
; #@! TA.AperFunction,Plated,PTH,ComponentDrill
T2C0.0394
%
G90
G05
T1
X1.56Y-1.53
X1.63Y-1.9987
X1.63Y-2.12
X1.6471Y-1.9629
X1.66Y-2.09
X1.68Y-1.99
X1.6953Y-1.8451
X1.7Y-2.06
X1.7199Y-1.9987
X1.7598Y-1.8398
X1.83Y-2.09
X1.85Y-1.84
X1.85Y-2.05
X1.86Y-2.01
X1.93Y-1.84
X1.95Y-1.97
X2.0819Y-2.1217
X2.12Y-1.99
T2
X2.18Y-1.04
X2.18Y-1.14
X2.18Y-1.24
X2.18Y-1.34
X2.18Y-1.44
X2.18Y-1.54
X2.18Y-1.64
X2.18Y-1.74
X2.18Y-1.84
X2.18Y-1.94
X2.18Y-2.04
X2.18Y-2.14
X2.18Y-2.24
X2.18Y-2.34
X2.18Y-2.44
X2.18Y-2.54
X2.18Y-2.64
X2.18Y-2.74
X2.18Y-2.84
X2.18Y-2.94
X2.28Y-1.04
X2.28Y-1.14
X2.28Y-1.24
X2.28Y-1.34
X2.28Y-1.44
X2.28Y-1.54
X2.28Y-1.64
X2.28Y-1.74
X2.28Y-1.84
X2.28Y-1.94
X2.28Y-2.04
X2.28Y-2.14
X2.28Y-2.24
X2.28Y-2.34
X2.28Y-2.44
X2.28Y-2.54
X2.28Y-2.64
X2.28Y-2.74
X2.28Y-2.84
X2.28Y-2.94
X2.5Y-1.76
X2.5Y-1.86
X2.5Y-1.96
X2.5Y-2.06
X2.5Y-2.16
T0
M30
