%TF.GenerationSoftware,KiCad,Pcbnew,(6.0.7)*%
%TF.CreationDate,2023-01-29T20:04:43+00:00*%
%TF.ProjectId,DE0_Addon_Board,4445305f-4164-4646-9f6e-5f426f617264,0*%
%TF.SameCoordinates,Original*%
%TF.FileFunction,Legend,Top*%
%TF.FilePolarity,Positive*%
%FSLAX46Y46*%
G04 Gerber Fmt 4.6, Leading zero omitted, Abs format (unit mm)*
G04 Created by KiCad (PCBNEW (6.0.7)) date 2023-01-29 20:04:43*
%MOMM*%
%LPD*%
G01*
G04 APERTURE LIST*
%ADD10C,0.150000*%
%ADD11C,0.125000*%
%ADD12C,0.120000*%
%ADD13C,0.127000*%
%ADD14C,0.200000*%
G04 APERTURE END LIST*
D10*
X57626285Y-77001714D02*
X57626285Y-77668380D01*
X57388190Y-76620761D02*
X57150095Y-77335047D01*
X57769142Y-77335047D01*
X58340571Y-76668380D02*
X58435809Y-76668380D01*
X58531047Y-76716000D01*
X58578666Y-76763619D01*
X58626285Y-76858857D01*
X58673904Y-77049333D01*
X58673904Y-77287428D01*
X58626285Y-77477904D01*
X58578666Y-77573142D01*
X58531047Y-77620761D01*
X58435809Y-77668380D01*
X58340571Y-77668380D01*
X58245333Y-77620761D01*
X58197714Y-77573142D01*
X58150095Y-77477904D01*
X58102476Y-77287428D01*
X58102476Y-77049333D01*
X58150095Y-76858857D01*
X58197714Y-76763619D01*
X58245333Y-76716000D01*
X58340571Y-76668380D01*
X54562476Y-76668380D02*
X55181523Y-76668380D01*
X54848190Y-77049333D01*
X54991047Y-77049333D01*
X55086285Y-77096952D01*
X55133904Y-77144571D01*
X55181523Y-77239809D01*
X55181523Y-77477904D01*
X55133904Y-77573142D01*
X55086285Y-77620761D01*
X54991047Y-77668380D01*
X54705333Y-77668380D01*
X54610095Y-77620761D01*
X54562476Y-77573142D01*
X55657714Y-77668380D02*
X55848190Y-77668380D01*
X55943428Y-77620761D01*
X55991047Y-77573142D01*
X56086285Y-77430285D01*
X56133904Y-77239809D01*
X56133904Y-76858857D01*
X56086285Y-76763619D01*
X56038666Y-76716000D01*
X55943428Y-76668380D01*
X55752952Y-76668380D01*
X55657714Y-76716000D01*
X55610095Y-76763619D01*
X55562476Y-76858857D01*
X55562476Y-77096952D01*
X55610095Y-77192190D01*
X55657714Y-77239809D01*
X55752952Y-77287428D01*
X55943428Y-77287428D01*
X56038666Y-77239809D01*
X56086285Y-77192190D01*
X56133904Y-77096952D01*
X57626285Y-23423619D02*
X57673904Y-23376000D01*
X57769142Y-23328380D01*
X58007238Y-23328380D01*
X58102476Y-23376000D01*
X58150095Y-23423619D01*
X58197714Y-23518857D01*
X58197714Y-23614095D01*
X58150095Y-23756952D01*
X57578666Y-24328380D01*
X58197714Y-24328380D01*
X55657714Y-24328380D02*
X55086285Y-24328380D01*
X55372000Y-24328380D02*
X55372000Y-23328380D01*
X55276761Y-23471238D01*
X55181523Y-23566476D01*
X55086285Y-23614095D01*
D11*
X38898190Y-28428190D02*
X39183904Y-28428190D01*
X39041047Y-28928190D02*
X39041047Y-28428190D01*
X39350571Y-28928190D02*
X39350571Y-28428190D01*
X39564857Y-28928190D02*
X39564857Y-28666285D01*
X39541047Y-28618666D01*
X39493428Y-28594857D01*
X39422000Y-28594857D01*
X39374380Y-28618666D01*
X39350571Y-28642476D01*
X39802952Y-28928190D02*
X39802952Y-28594857D01*
X39802952Y-28428190D02*
X39779142Y-28452000D01*
X39802952Y-28475809D01*
X39826761Y-28452000D01*
X39802952Y-28428190D01*
X39802952Y-28475809D01*
X40017238Y-28904380D02*
X40064857Y-28928190D01*
X40160095Y-28928190D01*
X40207714Y-28904380D01*
X40231523Y-28856761D01*
X40231523Y-28832952D01*
X40207714Y-28785333D01*
X40160095Y-28761523D01*
X40088666Y-28761523D01*
X40041047Y-28737714D01*
X40017238Y-28690095D01*
X40017238Y-28666285D01*
X40041047Y-28618666D01*
X40088666Y-28594857D01*
X40160095Y-28594857D01*
X40207714Y-28618666D01*
X40802952Y-28904380D02*
X40874380Y-28928190D01*
X40993428Y-28928190D01*
X41041047Y-28904380D01*
X41064857Y-28880571D01*
X41088666Y-28832952D01*
X41088666Y-28785333D01*
X41064857Y-28737714D01*
X41041047Y-28713904D01*
X40993428Y-28690095D01*
X40898190Y-28666285D01*
X40850571Y-28642476D01*
X40826761Y-28618666D01*
X40802952Y-28571047D01*
X40802952Y-28523428D01*
X40826761Y-28475809D01*
X40850571Y-28452000D01*
X40898190Y-28428190D01*
X41017238Y-28428190D01*
X41088666Y-28452000D01*
X41302952Y-28928190D02*
X41302952Y-28594857D01*
X41302952Y-28428190D02*
X41279142Y-28452000D01*
X41302952Y-28475809D01*
X41326761Y-28452000D01*
X41302952Y-28428190D01*
X41302952Y-28475809D01*
X41755333Y-28928190D02*
X41755333Y-28428190D01*
X41755333Y-28904380D02*
X41707714Y-28928190D01*
X41612476Y-28928190D01*
X41564857Y-28904380D01*
X41541047Y-28880571D01*
X41517238Y-28832952D01*
X41517238Y-28690095D01*
X41541047Y-28642476D01*
X41564857Y-28618666D01*
X41612476Y-28594857D01*
X41707714Y-28594857D01*
X41755333Y-28618666D01*
X42183904Y-28904380D02*
X42136285Y-28928190D01*
X42041047Y-28928190D01*
X41993428Y-28904380D01*
X41969619Y-28856761D01*
X41969619Y-28666285D01*
X41993428Y-28618666D01*
X42041047Y-28594857D01*
X42136285Y-28594857D01*
X42183904Y-28618666D01*
X42207714Y-28666285D01*
X42207714Y-28713904D01*
X41969619Y-28761523D01*
X42969619Y-28666285D02*
X42802952Y-28666285D01*
X42802952Y-28928190D02*
X42802952Y-28428190D01*
X43041047Y-28428190D01*
X43445809Y-28928190D02*
X43445809Y-28666285D01*
X43422000Y-28618666D01*
X43374380Y-28594857D01*
X43279142Y-28594857D01*
X43231523Y-28618666D01*
X43445809Y-28904380D02*
X43398190Y-28928190D01*
X43279142Y-28928190D01*
X43231523Y-28904380D01*
X43207714Y-28856761D01*
X43207714Y-28809142D01*
X43231523Y-28761523D01*
X43279142Y-28737714D01*
X43398190Y-28737714D01*
X43445809Y-28713904D01*
X43898190Y-28904380D02*
X43850571Y-28928190D01*
X43755333Y-28928190D01*
X43707714Y-28904380D01*
X43683904Y-28880571D01*
X43660095Y-28832952D01*
X43660095Y-28690095D01*
X43683904Y-28642476D01*
X43707714Y-28618666D01*
X43755333Y-28594857D01*
X43850571Y-28594857D01*
X43898190Y-28618666D01*
X44112476Y-28928190D02*
X44112476Y-28594857D01*
X44112476Y-28428190D02*
X44088666Y-28452000D01*
X44112476Y-28475809D01*
X44136285Y-28452000D01*
X44112476Y-28428190D01*
X44112476Y-28475809D01*
X44350571Y-28594857D02*
X44350571Y-28928190D01*
X44350571Y-28642476D02*
X44374380Y-28618666D01*
X44422000Y-28594857D01*
X44493428Y-28594857D01*
X44541047Y-28618666D01*
X44564857Y-28666285D01*
X44564857Y-28928190D01*
X45017238Y-28594857D02*
X45017238Y-28999619D01*
X44993428Y-29047238D01*
X44969619Y-29071047D01*
X44922000Y-29094857D01*
X44850571Y-29094857D01*
X44802952Y-29071047D01*
X45017238Y-28904380D02*
X44969619Y-28928190D01*
X44874380Y-28928190D01*
X44826761Y-28904380D01*
X44802952Y-28880571D01*
X44779142Y-28832952D01*
X44779142Y-28690095D01*
X44802952Y-28642476D01*
X44826761Y-28618666D01*
X44874380Y-28594857D01*
X44969619Y-28594857D01*
X45017238Y-28618666D01*
X45636285Y-28428190D02*
X45636285Y-28832952D01*
X45660095Y-28880571D01*
X45683904Y-28904380D01*
X45731523Y-28928190D01*
X45826761Y-28928190D01*
X45874380Y-28904380D01*
X45898190Y-28880571D01*
X45922000Y-28832952D01*
X45922000Y-28428190D01*
X46160095Y-28594857D02*
X46160095Y-29094857D01*
X46160095Y-28618666D02*
X46207714Y-28594857D01*
X46302952Y-28594857D01*
X46350571Y-28618666D01*
X46374380Y-28642476D01*
X46398190Y-28690095D01*
X46398190Y-28832952D01*
X46374380Y-28880571D01*
X46350571Y-28904380D01*
X46302952Y-28928190D01*
X46207714Y-28928190D01*
X46160095Y-28904380D01*
D10*
X59602000Y-54672666D02*
X59602000Y-53972666D01*
X59868666Y-53972666D01*
X59935333Y-54006000D01*
X59968666Y-54039333D01*
X60002000Y-54106000D01*
X60002000Y-54206000D01*
X59968666Y-54272666D01*
X59935333Y-54306000D01*
X59868666Y-54339333D01*
X59602000Y-54339333D01*
X60268666Y-54039333D02*
X60302000Y-54006000D01*
X60368666Y-53972666D01*
X60535333Y-53972666D01*
X60602000Y-54006000D01*
X60635333Y-54039333D01*
X60668666Y-54106000D01*
X60668666Y-54172666D01*
X60635333Y-54272666D01*
X60235333Y-54672666D01*
X60668666Y-54672666D01*
X61268666Y-54206000D02*
X61268666Y-54672666D01*
X61102000Y-53939333D02*
X60935333Y-54439333D01*
X61368666Y-54439333D01*
X59602000Y-52132666D02*
X59602000Y-51432666D01*
X59868666Y-51432666D01*
X59935333Y-51466000D01*
X59968666Y-51499333D01*
X60002000Y-51566000D01*
X60002000Y-51666000D01*
X59968666Y-51732666D01*
X59935333Y-51766000D01*
X59868666Y-51799333D01*
X59602000Y-51799333D01*
X60268666Y-51499333D02*
X60302000Y-51466000D01*
X60368666Y-51432666D01*
X60535333Y-51432666D01*
X60602000Y-51466000D01*
X60635333Y-51499333D01*
X60668666Y-51566000D01*
X60668666Y-51632666D01*
X60635333Y-51732666D01*
X60235333Y-52132666D01*
X60668666Y-52132666D01*
X60935333Y-51499333D02*
X60968666Y-51466000D01*
X61035333Y-51432666D01*
X61202000Y-51432666D01*
X61268666Y-51466000D01*
X61302000Y-51499333D01*
X61335333Y-51566000D01*
X61335333Y-51632666D01*
X61302000Y-51732666D01*
X60902000Y-52132666D01*
X61335333Y-52132666D01*
X52236000Y-52132666D02*
X52236000Y-51432666D01*
X52502666Y-51432666D01*
X52569333Y-51466000D01*
X52602666Y-51499333D01*
X52636000Y-51566000D01*
X52636000Y-51666000D01*
X52602666Y-51732666D01*
X52569333Y-51766000D01*
X52502666Y-51799333D01*
X52236000Y-51799333D01*
X52902666Y-51499333D02*
X52936000Y-51466000D01*
X53002666Y-51432666D01*
X53169333Y-51432666D01*
X53236000Y-51466000D01*
X53269333Y-51499333D01*
X53302666Y-51566000D01*
X53302666Y-51632666D01*
X53269333Y-51732666D01*
X52869333Y-52132666D01*
X53302666Y-52132666D01*
X53969333Y-52132666D02*
X53569333Y-52132666D01*
X53769333Y-52132666D02*
X53769333Y-51432666D01*
X53702666Y-51532666D01*
X53636000Y-51599333D01*
X53569333Y-51632666D01*
X52569333Y-29272666D02*
X52569333Y-28572666D01*
X52836000Y-28572666D01*
X52902666Y-28606000D01*
X52936000Y-28639333D01*
X52969333Y-28706000D01*
X52969333Y-28806000D01*
X52936000Y-28872666D01*
X52902666Y-28906000D01*
X52836000Y-28939333D01*
X52569333Y-28939333D01*
X53202666Y-28572666D02*
X53636000Y-28572666D01*
X53402666Y-28839333D01*
X53502666Y-28839333D01*
X53569333Y-28872666D01*
X53602666Y-28906000D01*
X53636000Y-28972666D01*
X53636000Y-29139333D01*
X53602666Y-29206000D01*
X53569333Y-29239333D01*
X53502666Y-29272666D01*
X53302666Y-29272666D01*
X53236000Y-29239333D01*
X53202666Y-29206000D01*
X52569333Y-26478666D02*
X52569333Y-25778666D01*
X52836000Y-25778666D01*
X52902666Y-25812000D01*
X52936000Y-25845333D01*
X52969333Y-25912000D01*
X52969333Y-26012000D01*
X52936000Y-26078666D01*
X52902666Y-26112000D01*
X52836000Y-26145333D01*
X52569333Y-26145333D01*
X53636000Y-26478666D02*
X53236000Y-26478666D01*
X53436000Y-26478666D02*
X53436000Y-25778666D01*
X53369333Y-25878666D01*
X53302666Y-25945333D01*
X53236000Y-25978666D01*
D11*
X60606857Y-55852190D02*
X60606857Y-55352190D01*
X60797333Y-55352190D01*
X60844952Y-55376000D01*
X60868761Y-55399809D01*
X60892571Y-55447428D01*
X60892571Y-55518857D01*
X60868761Y-55566476D01*
X60844952Y-55590285D01*
X60797333Y-55614095D01*
X60606857Y-55614095D01*
X61083047Y-55399809D02*
X61106857Y-55376000D01*
X61154476Y-55352190D01*
X61273523Y-55352190D01*
X61321142Y-55376000D01*
X61344952Y-55399809D01*
X61368761Y-55447428D01*
X61368761Y-55495047D01*
X61344952Y-55566476D01*
X61059238Y-55852190D01*
X61368761Y-55852190D01*
X61797333Y-55518857D02*
X61797333Y-55852190D01*
X61678285Y-55328380D02*
X61559238Y-55685523D01*
X61868761Y-55685523D01*
X60606857Y-53058190D02*
X60606857Y-52558190D01*
X60797333Y-52558190D01*
X60844952Y-52582000D01*
X60868761Y-52605809D01*
X60892571Y-52653428D01*
X60892571Y-52724857D01*
X60868761Y-52772476D01*
X60844952Y-52796285D01*
X60797333Y-52820095D01*
X60606857Y-52820095D01*
X61083047Y-52605809D02*
X61106857Y-52582000D01*
X61154476Y-52558190D01*
X61273523Y-52558190D01*
X61321142Y-52582000D01*
X61344952Y-52605809D01*
X61368761Y-52653428D01*
X61368761Y-52701047D01*
X61344952Y-52772476D01*
X61059238Y-53058190D01*
X61368761Y-53058190D01*
X61559238Y-52605809D02*
X61583047Y-52582000D01*
X61630666Y-52558190D01*
X61749714Y-52558190D01*
X61797333Y-52582000D01*
X61821142Y-52605809D01*
X61844952Y-52653428D01*
X61844952Y-52701047D01*
X61821142Y-52772476D01*
X61535428Y-53058190D01*
X61844952Y-53058190D01*
X60606857Y-50518190D02*
X60606857Y-50018190D01*
X60797333Y-50018190D01*
X60844952Y-50042000D01*
X60868761Y-50065809D01*
X60892571Y-50113428D01*
X60892571Y-50184857D01*
X60868761Y-50232476D01*
X60844952Y-50256285D01*
X60797333Y-50280095D01*
X60606857Y-50280095D01*
X61083047Y-50065809D02*
X61106857Y-50042000D01*
X61154476Y-50018190D01*
X61273523Y-50018190D01*
X61321142Y-50042000D01*
X61344952Y-50065809D01*
X61368761Y-50113428D01*
X61368761Y-50161047D01*
X61344952Y-50232476D01*
X61059238Y-50518190D01*
X61368761Y-50518190D01*
X61844952Y-50518190D02*
X61559238Y-50518190D01*
X61702095Y-50518190D02*
X61702095Y-50018190D01*
X61654476Y-50089619D01*
X61606857Y-50137238D01*
X61559238Y-50161047D01*
X60844952Y-47978190D02*
X60844952Y-47478190D01*
X61035428Y-47478190D01*
X61083047Y-47502000D01*
X61106857Y-47525809D01*
X61130666Y-47573428D01*
X61130666Y-47644857D01*
X61106857Y-47692476D01*
X61083047Y-47716285D01*
X61035428Y-47740095D01*
X60844952Y-47740095D01*
X61297333Y-47478190D02*
X61606857Y-47478190D01*
X61440190Y-47668666D01*
X61511619Y-47668666D01*
X61559238Y-47692476D01*
X61583047Y-47716285D01*
X61606857Y-47763904D01*
X61606857Y-47882952D01*
X61583047Y-47930571D01*
X61559238Y-47954380D01*
X61511619Y-47978190D01*
X61368761Y-47978190D01*
X61321142Y-47954380D01*
X61297333Y-47930571D01*
X60844952Y-45692190D02*
X60844952Y-45192190D01*
X61035428Y-45192190D01*
X61083047Y-45216000D01*
X61106857Y-45239809D01*
X61130666Y-45287428D01*
X61130666Y-45358857D01*
X61106857Y-45406476D01*
X61083047Y-45430285D01*
X61035428Y-45454095D01*
X60844952Y-45454095D01*
X61606857Y-45692190D02*
X61321142Y-45692190D01*
X61464000Y-45692190D02*
X61464000Y-45192190D01*
X61416380Y-45263619D01*
X61368761Y-45311238D01*
X61321142Y-45335047D01*
D10*
X52252666Y-54726666D02*
X52586000Y-54726666D01*
X52186000Y-54926666D02*
X52419333Y-54226666D01*
X52652666Y-54926666D01*
X53252666Y-54926666D02*
X52852666Y-54926666D01*
X53052666Y-54926666D02*
X53052666Y-54226666D01*
X52986000Y-54326666D01*
X52919333Y-54393333D01*
X52852666Y-54426666D01*
X53852666Y-54460000D02*
X53852666Y-54926666D01*
X53686000Y-54193333D02*
X53519333Y-54693333D01*
X53952666Y-54693333D01*
X52586000Y-72506666D02*
X52919333Y-72506666D01*
X52519333Y-72706666D02*
X52752666Y-72006666D01*
X52986000Y-72706666D01*
X53152666Y-72006666D02*
X53619333Y-72006666D01*
X53319333Y-72706666D01*
X52252666Y-57266666D02*
X52586000Y-57266666D01*
X52186000Y-57466666D02*
X52419333Y-56766666D01*
X52652666Y-57466666D01*
X53252666Y-57466666D02*
X52852666Y-57466666D01*
X53052666Y-57466666D02*
X53052666Y-56766666D01*
X52986000Y-56866666D01*
X52919333Y-56933333D01*
X52852666Y-56966666D01*
X53519333Y-56833333D02*
X53552666Y-56800000D01*
X53619333Y-56766666D01*
X53786000Y-56766666D01*
X53852666Y-56800000D01*
X53886000Y-56833333D01*
X53919333Y-56900000D01*
X53919333Y-56966666D01*
X53886000Y-57066666D01*
X53486000Y-57466666D01*
X53919333Y-57466666D01*
X60035333Y-69433333D02*
X59435333Y-70333333D01*
X60202000Y-69466666D02*
X60368666Y-70166666D01*
X60502000Y-69666666D01*
X60635333Y-70166666D01*
X60802000Y-69466666D01*
X61068666Y-69800000D02*
X61302000Y-69800000D01*
X61402000Y-70166666D02*
X61068666Y-70166666D01*
X61068666Y-69466666D01*
X61402000Y-69466666D01*
X59952000Y-72506666D02*
X60285333Y-72506666D01*
X59885333Y-72706666D02*
X60118666Y-72006666D01*
X60352000Y-72706666D01*
X60885333Y-72006666D02*
X60752000Y-72006666D01*
X60685333Y-72040000D01*
X60652000Y-72073333D01*
X60585333Y-72173333D01*
X60552000Y-72306666D01*
X60552000Y-72573333D01*
X60585333Y-72640000D01*
X60618666Y-72673333D01*
X60685333Y-72706666D01*
X60818666Y-72706666D01*
X60885333Y-72673333D01*
X60918666Y-72640000D01*
X60952000Y-72573333D01*
X60952000Y-72406666D01*
X60918666Y-72340000D01*
X60885333Y-72306666D01*
X60818666Y-72273333D01*
X60685333Y-72273333D01*
X60618666Y-72306666D01*
X60585333Y-72340000D01*
X60552000Y-72406666D01*
X52586000Y-75046666D02*
X52919333Y-75046666D01*
X52519333Y-75246666D02*
X52752666Y-74546666D01*
X52986000Y-75246666D01*
X53252666Y-75246666D02*
X53386000Y-75246666D01*
X53452666Y-75213333D01*
X53486000Y-75180000D01*
X53552666Y-75080000D01*
X53586000Y-74946666D01*
X53586000Y-74680000D01*
X53552666Y-74613333D01*
X53519333Y-74580000D01*
X53452666Y-74546666D01*
X53319333Y-74546666D01*
X53252666Y-74580000D01*
X53219333Y-74613333D01*
X53186000Y-74680000D01*
X53186000Y-74846666D01*
X53219333Y-74913333D01*
X53252666Y-74946666D01*
X53319333Y-74980000D01*
X53452666Y-74980000D01*
X53519333Y-74946666D01*
X53552666Y-74913333D01*
X53586000Y-74846666D01*
X59602000Y-41972666D02*
X59602000Y-41272666D01*
X59768666Y-41272666D01*
X59868666Y-41306000D01*
X59935333Y-41372666D01*
X59968666Y-41439333D01*
X60002000Y-41572666D01*
X60002000Y-41672666D01*
X59968666Y-41806000D01*
X59935333Y-41872666D01*
X59868666Y-41939333D01*
X59768666Y-41972666D01*
X59602000Y-41972666D01*
X60668666Y-41972666D02*
X60268666Y-41972666D01*
X60468666Y-41972666D02*
X60468666Y-41272666D01*
X60402000Y-41372666D01*
X60335333Y-41439333D01*
X60268666Y-41472666D01*
X61102000Y-41272666D02*
X61168666Y-41272666D01*
X61235333Y-41306000D01*
X61268666Y-41339333D01*
X61302000Y-41406000D01*
X61335333Y-41539333D01*
X61335333Y-41706000D01*
X61302000Y-41839333D01*
X61268666Y-41906000D01*
X61235333Y-41939333D01*
X61168666Y-41972666D01*
X61102000Y-41972666D01*
X61035333Y-41939333D01*
X61002000Y-41906000D01*
X60968666Y-41839333D01*
X60935333Y-41706000D01*
X60935333Y-41539333D01*
X60968666Y-41406000D01*
X61002000Y-41339333D01*
X61035333Y-41306000D01*
X61102000Y-41272666D01*
X60206000Y-31612666D02*
X60539333Y-31612666D01*
X60139333Y-31812666D02*
X60372666Y-31112666D01*
X60606000Y-31812666D01*
X60772666Y-31112666D02*
X61206000Y-31112666D01*
X60972666Y-31379333D01*
X61072666Y-31379333D01*
X61139333Y-31412666D01*
X61172666Y-31446000D01*
X61206000Y-31512666D01*
X61206000Y-31679333D01*
X61172666Y-31746000D01*
X61139333Y-31779333D01*
X61072666Y-31812666D01*
X60872666Y-31812666D01*
X60806000Y-31779333D01*
X60772666Y-31746000D01*
X38800738Y-22988380D02*
X39372166Y-22988380D01*
X39086452Y-23988380D02*
X39086452Y-22988380D01*
X40086452Y-23940761D02*
X39991214Y-23988380D01*
X39800738Y-23988380D01*
X39705500Y-23940761D01*
X39657880Y-23845523D01*
X39657880Y-23464571D01*
X39705500Y-23369333D01*
X39800738Y-23321714D01*
X39991214Y-23321714D01*
X40086452Y-23369333D01*
X40134071Y-23464571D01*
X40134071Y-23559809D01*
X39657880Y-23655047D01*
X40562642Y-23988380D02*
X40562642Y-23321714D01*
X40562642Y-23512190D02*
X40610261Y-23416952D01*
X40657880Y-23369333D01*
X40753119Y-23321714D01*
X40848357Y-23321714D01*
X41610261Y-23988380D02*
X41610261Y-23464571D01*
X41562642Y-23369333D01*
X41467404Y-23321714D01*
X41276928Y-23321714D01*
X41181690Y-23369333D01*
X41610261Y-23940761D02*
X41515023Y-23988380D01*
X41276928Y-23988380D01*
X41181690Y-23940761D01*
X41134071Y-23845523D01*
X41134071Y-23750285D01*
X41181690Y-23655047D01*
X41276928Y-23607428D01*
X41515023Y-23607428D01*
X41610261Y-23559809D01*
X42038833Y-23940761D02*
X42134071Y-23988380D01*
X42324547Y-23988380D01*
X42419785Y-23940761D01*
X42467404Y-23845523D01*
X42467404Y-23797904D01*
X42419785Y-23702666D01*
X42324547Y-23655047D01*
X42181690Y-23655047D01*
X42086452Y-23607428D01*
X42038833Y-23512190D01*
X42038833Y-23464571D01*
X42086452Y-23369333D01*
X42181690Y-23321714D01*
X42324547Y-23321714D01*
X42419785Y-23369333D01*
X42895976Y-23988380D02*
X42895976Y-23321714D01*
X42895976Y-22988380D02*
X42848357Y-23036000D01*
X42895976Y-23083619D01*
X42943595Y-23036000D01*
X42895976Y-22988380D01*
X42895976Y-23083619D01*
X43800738Y-23940761D02*
X43705500Y-23988380D01*
X43515023Y-23988380D01*
X43419785Y-23940761D01*
X43372166Y-23893142D01*
X43324547Y-23797904D01*
X43324547Y-23512190D01*
X43372166Y-23416952D01*
X43419785Y-23369333D01*
X43515023Y-23321714D01*
X43705500Y-23321714D01*
X43800738Y-23369333D01*
X44991214Y-23988380D02*
X44991214Y-22988380D01*
X45229309Y-22988380D01*
X45372166Y-23036000D01*
X45467404Y-23131238D01*
X45515023Y-23226476D01*
X45562642Y-23416952D01*
X45562642Y-23559809D01*
X45515023Y-23750285D01*
X45467404Y-23845523D01*
X45372166Y-23940761D01*
X45229309Y-23988380D01*
X44991214Y-23988380D01*
X45991214Y-23464571D02*
X46324547Y-23464571D01*
X46467404Y-23988380D02*
X45991214Y-23988380D01*
X45991214Y-22988380D01*
X46467404Y-22988380D01*
X47086452Y-22988380D02*
X47181690Y-22988380D01*
X47276928Y-23036000D01*
X47324547Y-23083619D01*
X47372166Y-23178857D01*
X47419785Y-23369333D01*
X47419785Y-23607428D01*
X47372166Y-23797904D01*
X47324547Y-23893142D01*
X47276928Y-23940761D01*
X47181690Y-23988380D01*
X47086452Y-23988380D01*
X46991214Y-23940761D01*
X46943595Y-23893142D01*
X46895976Y-23797904D01*
X46848357Y-23607428D01*
X46848357Y-23369333D01*
X46895976Y-23178857D01*
X46943595Y-23083619D01*
X46991214Y-23036000D01*
X47086452Y-22988380D01*
X48562642Y-23702666D02*
X49038833Y-23702666D01*
X48467404Y-23988380D02*
X48800738Y-22988380D01*
X49134071Y-23988380D01*
X49895976Y-23988380D02*
X49895976Y-22988380D01*
X49895976Y-23940761D02*
X49800738Y-23988380D01*
X49610261Y-23988380D01*
X49515023Y-23940761D01*
X49467404Y-23893142D01*
X49419785Y-23797904D01*
X49419785Y-23512190D01*
X49467404Y-23416952D01*
X49515023Y-23369333D01*
X49610261Y-23321714D01*
X49800738Y-23321714D01*
X49895976Y-23369333D01*
X50800738Y-23988380D02*
X50800738Y-22988380D01*
X50800738Y-23940761D02*
X50705500Y-23988380D01*
X50515023Y-23988380D01*
X50419785Y-23940761D01*
X50372166Y-23893142D01*
X50324547Y-23797904D01*
X50324547Y-23512190D01*
X50372166Y-23416952D01*
X50419785Y-23369333D01*
X50515023Y-23321714D01*
X50705500Y-23321714D01*
X50800738Y-23369333D01*
X51276928Y-23607428D02*
X52038833Y-23607428D01*
X52705500Y-22988380D02*
X52895976Y-22988380D01*
X52991214Y-23036000D01*
X53086452Y-23131238D01*
X53134071Y-23321714D01*
X53134071Y-23655047D01*
X53086452Y-23845523D01*
X52991214Y-23940761D01*
X52895976Y-23988380D01*
X52705500Y-23988380D01*
X52610261Y-23940761D01*
X52515023Y-23845523D01*
X52467404Y-23655047D01*
X52467404Y-23321714D01*
X52515023Y-23131238D01*
X52610261Y-23036000D01*
X52705500Y-22988380D01*
X53562642Y-23321714D02*
X53562642Y-23988380D01*
X53562642Y-23416952D02*
X53610261Y-23369333D01*
X53705500Y-23321714D01*
X53848357Y-23321714D01*
X53943595Y-23369333D01*
X53991214Y-23464571D01*
X53991214Y-23988380D01*
X38895976Y-25550761D02*
X39038833Y-25598380D01*
X39276928Y-25598380D01*
X39372166Y-25550761D01*
X39419785Y-25503142D01*
X39467404Y-25407904D01*
X39467404Y-25312666D01*
X39419785Y-25217428D01*
X39372166Y-25169809D01*
X39276928Y-25122190D01*
X39086452Y-25074571D01*
X38991214Y-25026952D01*
X38943595Y-24979333D01*
X38895976Y-24884095D01*
X38895976Y-24788857D01*
X38943595Y-24693619D01*
X38991214Y-24646000D01*
X39086452Y-24598380D01*
X39324547Y-24598380D01*
X39467404Y-24646000D01*
X40467404Y-25598380D02*
X40134071Y-25122190D01*
X39895976Y-25598380D02*
X39895976Y-24598380D01*
X40276928Y-24598380D01*
X40372166Y-24646000D01*
X40419785Y-24693619D01*
X40467404Y-24788857D01*
X40467404Y-24931714D01*
X40419785Y-25026952D01*
X40372166Y-25074571D01*
X40276928Y-25122190D01*
X39895976Y-25122190D01*
X40848357Y-25312666D02*
X41324547Y-25312666D01*
X40753119Y-25598380D02*
X41086452Y-24598380D01*
X41419785Y-25598380D01*
X41753119Y-25598380D02*
X41753119Y-24598380D01*
X42086452Y-25312666D01*
X42419785Y-24598380D01*
X42419785Y-25598380D01*
X43610261Y-24693619D02*
X43657880Y-24646000D01*
X43753119Y-24598380D01*
X43991214Y-24598380D01*
X44086452Y-24646000D01*
X44134071Y-24693619D01*
X44181690Y-24788857D01*
X44181690Y-24884095D01*
X44134071Y-25026952D01*
X43562642Y-25598380D01*
X44181690Y-25598380D01*
X45086452Y-24598380D02*
X44610261Y-24598380D01*
X44562642Y-25074571D01*
X44610261Y-25026952D01*
X44705500Y-24979333D01*
X44943595Y-24979333D01*
X45038833Y-25026952D01*
X45086452Y-25074571D01*
X45134071Y-25169809D01*
X45134071Y-25407904D01*
X45086452Y-25503142D01*
X45038833Y-25550761D01*
X44943595Y-25598380D01*
X44705500Y-25598380D01*
X44610261Y-25550761D01*
X44562642Y-25503142D01*
X45991214Y-24598380D02*
X45800738Y-24598380D01*
X45705500Y-24646000D01*
X45657880Y-24693619D01*
X45562642Y-24836476D01*
X45515023Y-25026952D01*
X45515023Y-25407904D01*
X45562642Y-25503142D01*
X45610261Y-25550761D01*
X45705500Y-25598380D01*
X45895976Y-25598380D01*
X45991214Y-25550761D01*
X46038833Y-25503142D01*
X46086452Y-25407904D01*
X46086452Y-25169809D01*
X46038833Y-25074571D01*
X45991214Y-25026952D01*
X45895976Y-24979333D01*
X45705500Y-24979333D01*
X45610261Y-25026952D01*
X45562642Y-25074571D01*
X45515023Y-25169809D01*
X46515023Y-25598380D02*
X46515023Y-24598380D01*
X47086452Y-25598380D02*
X46657880Y-25026952D01*
X47086452Y-24598380D02*
X46515023Y-25169809D01*
X47848357Y-25074571D02*
X47991214Y-25122190D01*
X48038833Y-25169809D01*
X48086452Y-25265047D01*
X48086452Y-25407904D01*
X48038833Y-25503142D01*
X47991214Y-25550761D01*
X47895976Y-25598380D01*
X47515023Y-25598380D01*
X47515023Y-24598380D01*
X47848357Y-24598380D01*
X47943595Y-24646000D01*
X47991214Y-24693619D01*
X48038833Y-24788857D01*
X48038833Y-24884095D01*
X47991214Y-24979333D01*
X47943595Y-25026952D01*
X47848357Y-25074571D01*
X47515023Y-25074571D01*
X48419785Y-25598380D02*
X48943595Y-24931714D01*
X48419785Y-24931714D02*
X48943595Y-25598380D01*
X49848357Y-25598380D02*
X49276928Y-25598380D01*
X49562642Y-25598380D02*
X49562642Y-24598380D01*
X49467404Y-24741238D01*
X49372166Y-24836476D01*
X49276928Y-24884095D01*
X50705500Y-24598380D02*
X50515023Y-24598380D01*
X50419785Y-24646000D01*
X50372166Y-24693619D01*
X50276928Y-24836476D01*
X50229309Y-25026952D01*
X50229309Y-25407904D01*
X50276928Y-25503142D01*
X50324547Y-25550761D01*
X50419785Y-25598380D01*
X50610261Y-25598380D01*
X50705500Y-25550761D01*
X50753119Y-25503142D01*
X50800738Y-25407904D01*
X50800738Y-25169809D01*
X50753119Y-25074571D01*
X50705500Y-25026952D01*
X50610261Y-24979333D01*
X50419785Y-24979333D01*
X50324547Y-25026952D01*
X50276928Y-25074571D01*
X50229309Y-25169809D01*
X39229309Y-27589333D02*
X39181690Y-27541714D01*
X39086452Y-27398857D01*
X39038833Y-27303619D01*
X38991214Y-27160761D01*
X38943595Y-26922666D01*
X38943595Y-26732190D01*
X38991214Y-26494095D01*
X39038833Y-26351238D01*
X39086452Y-26256000D01*
X39181690Y-26113142D01*
X39229309Y-26065523D01*
X40086452Y-26208380D02*
X39610261Y-26208380D01*
X39562642Y-26684571D01*
X39610261Y-26636952D01*
X39705500Y-26589333D01*
X39943595Y-26589333D01*
X40038833Y-26636952D01*
X40086452Y-26684571D01*
X40134071Y-26779809D01*
X40134071Y-27017904D01*
X40086452Y-27113142D01*
X40038833Y-27160761D01*
X39943595Y-27208380D01*
X39705500Y-27208380D01*
X39610261Y-27160761D01*
X39562642Y-27113142D01*
X41086452Y-27208380D02*
X40515023Y-27208380D01*
X40800738Y-27208380D02*
X40800738Y-26208380D01*
X40705500Y-26351238D01*
X40610261Y-26446476D01*
X40515023Y-26494095D01*
X41467404Y-26303619D02*
X41515023Y-26256000D01*
X41610261Y-26208380D01*
X41848357Y-26208380D01*
X41943595Y-26256000D01*
X41991214Y-26303619D01*
X42038833Y-26398857D01*
X42038833Y-26494095D01*
X41991214Y-26636952D01*
X41419785Y-27208380D01*
X42038833Y-27208380D01*
X43229309Y-27208380D02*
X43229309Y-26208380D01*
X43800738Y-27208380D02*
X43372166Y-26636952D01*
X43800738Y-26208380D02*
X43229309Y-26779809D01*
X44562642Y-26684571D02*
X44705500Y-26732190D01*
X44753119Y-26779809D01*
X44800738Y-26875047D01*
X44800738Y-27017904D01*
X44753119Y-27113142D01*
X44705500Y-27160761D01*
X44610261Y-27208380D01*
X44229309Y-27208380D01*
X44229309Y-26208380D01*
X44562642Y-26208380D01*
X44657880Y-26256000D01*
X44705500Y-26303619D01*
X44753119Y-26398857D01*
X44753119Y-26494095D01*
X44705500Y-26589333D01*
X44657880Y-26636952D01*
X44562642Y-26684571D01*
X44229309Y-26684571D01*
X45134071Y-27589333D02*
X45181690Y-27541714D01*
X45276928Y-27398857D01*
X45324547Y-27303619D01*
X45372166Y-27160761D01*
X45419785Y-26922666D01*
X45419785Y-26732190D01*
X45372166Y-26494095D01*
X45324547Y-26351238D01*
X45276928Y-26256000D01*
X45181690Y-26113142D01*
X45134071Y-26065523D01*
X59618666Y-44312666D02*
X59952000Y-44312666D01*
X59552000Y-44512666D02*
X59785333Y-43812666D01*
X60018666Y-44512666D01*
X60618666Y-44512666D02*
X60218666Y-44512666D01*
X60418666Y-44512666D02*
X60418666Y-43812666D01*
X60352000Y-43912666D01*
X60285333Y-43979333D01*
X60218666Y-44012666D01*
X60852000Y-43812666D02*
X61318666Y-43812666D01*
X61018666Y-44512666D01*
X52236000Y-67626666D02*
X52236000Y-66926666D01*
X52402666Y-66926666D01*
X52502666Y-66960000D01*
X52569333Y-67026666D01*
X52602666Y-67093333D01*
X52636000Y-67226666D01*
X52636000Y-67326666D01*
X52602666Y-67460000D01*
X52569333Y-67526666D01*
X52502666Y-67593333D01*
X52402666Y-67626666D01*
X52236000Y-67626666D01*
X53302666Y-67626666D02*
X52902666Y-67626666D01*
X53102666Y-67626666D02*
X53102666Y-66926666D01*
X53036000Y-67026666D01*
X52969333Y-67093333D01*
X52902666Y-67126666D01*
X53936000Y-66926666D02*
X53602666Y-66926666D01*
X53569333Y-67260000D01*
X53602666Y-67226666D01*
X53669333Y-67193333D01*
X53836000Y-67193333D01*
X53902666Y-67226666D01*
X53936000Y-67260000D01*
X53969333Y-67326666D01*
X53969333Y-67493333D01*
X53936000Y-67560000D01*
X53902666Y-67593333D01*
X53836000Y-67626666D01*
X53669333Y-67626666D01*
X53602666Y-67593333D01*
X53569333Y-67560000D01*
X59602000Y-64832666D02*
X59602000Y-64132666D01*
X59768666Y-64132666D01*
X59868666Y-64166000D01*
X59935333Y-64232666D01*
X59968666Y-64299333D01*
X60002000Y-64432666D01*
X60002000Y-64532666D01*
X59968666Y-64666000D01*
X59935333Y-64732666D01*
X59868666Y-64799333D01*
X59768666Y-64832666D01*
X59602000Y-64832666D01*
X60668666Y-64832666D02*
X60268666Y-64832666D01*
X60468666Y-64832666D02*
X60468666Y-64132666D01*
X60402000Y-64232666D01*
X60335333Y-64299333D01*
X60268666Y-64332666D01*
X60935333Y-64199333D02*
X60968666Y-64166000D01*
X61035333Y-64132666D01*
X61202000Y-64132666D01*
X61268666Y-64166000D01*
X61302000Y-64199333D01*
X61335333Y-64266000D01*
X61335333Y-64332666D01*
X61302000Y-64432666D01*
X60902000Y-64832666D01*
X61335333Y-64832666D01*
X59618666Y-59552666D02*
X59952000Y-59552666D01*
X59552000Y-59752666D02*
X59785333Y-59052666D01*
X60018666Y-59752666D01*
X60618666Y-59752666D02*
X60218666Y-59752666D01*
X60418666Y-59752666D02*
X60418666Y-59052666D01*
X60352000Y-59152666D01*
X60285333Y-59219333D01*
X60218666Y-59252666D01*
X61285333Y-59752666D02*
X60885333Y-59752666D01*
X61085333Y-59752666D02*
X61085333Y-59052666D01*
X61018666Y-59152666D01*
X60952000Y-59219333D01*
X60885333Y-59252666D01*
X52569333Y-36892666D02*
X52569333Y-36192666D01*
X52736000Y-36192666D01*
X52836000Y-36226000D01*
X52902666Y-36292666D01*
X52936000Y-36359333D01*
X52969333Y-36492666D01*
X52969333Y-36592666D01*
X52936000Y-36726000D01*
X52902666Y-36792666D01*
X52836000Y-36859333D01*
X52736000Y-36892666D01*
X52569333Y-36892666D01*
X53402666Y-36192666D02*
X53469333Y-36192666D01*
X53536000Y-36226000D01*
X53569333Y-36259333D01*
X53602666Y-36326000D01*
X53636000Y-36459333D01*
X53636000Y-36626000D01*
X53602666Y-36759333D01*
X53569333Y-36826000D01*
X53536000Y-36859333D01*
X53469333Y-36892666D01*
X53402666Y-36892666D01*
X53336000Y-36859333D01*
X53302666Y-36826000D01*
X53269333Y-36759333D01*
X53236000Y-36626000D01*
X53236000Y-36459333D01*
X53269333Y-36326000D01*
X53302666Y-36259333D01*
X53336000Y-36226000D01*
X53402666Y-36192666D01*
X39942000Y-76398380D02*
X39608666Y-75922190D01*
X39370571Y-76398380D02*
X39370571Y-75398380D01*
X39751523Y-75398380D01*
X39846761Y-75446000D01*
X39894380Y-75493619D01*
X39942000Y-75588857D01*
X39942000Y-75731714D01*
X39894380Y-75826952D01*
X39846761Y-75874571D01*
X39751523Y-75922190D01*
X39370571Y-75922190D01*
X40942000Y-76303142D02*
X40894380Y-76350761D01*
X40751523Y-76398380D01*
X40656285Y-76398380D01*
X40513428Y-76350761D01*
X40418190Y-76255523D01*
X40370571Y-76160285D01*
X40322952Y-75969809D01*
X40322952Y-75826952D01*
X40370571Y-75636476D01*
X40418190Y-75541238D01*
X40513428Y-75446000D01*
X40656285Y-75398380D01*
X40751523Y-75398380D01*
X40894380Y-75446000D01*
X40942000Y-75493619D01*
X41942000Y-76303142D02*
X41894380Y-76350761D01*
X41751523Y-76398380D01*
X41656285Y-76398380D01*
X41513428Y-76350761D01*
X41418190Y-76255523D01*
X41370571Y-76160285D01*
X41322952Y-75969809D01*
X41322952Y-75826952D01*
X41370571Y-75636476D01*
X41418190Y-75541238D01*
X41513428Y-75446000D01*
X41656285Y-75398380D01*
X41751523Y-75398380D01*
X41894380Y-75446000D01*
X41942000Y-75493619D01*
X43751523Y-75922190D02*
X43703904Y-75874571D01*
X43608666Y-75826952D01*
X43513428Y-75826952D01*
X43418190Y-75874571D01*
X43370571Y-75922190D01*
X43322952Y-76017428D01*
X43322952Y-76112666D01*
X43370571Y-76207904D01*
X43418190Y-76255523D01*
X43513428Y-76303142D01*
X43608666Y-76303142D01*
X43703904Y-76255523D01*
X43751523Y-76207904D01*
X43751523Y-75826952D02*
X43751523Y-76207904D01*
X43799142Y-76255523D01*
X43846761Y-76255523D01*
X43942000Y-76207904D01*
X43989619Y-76112666D01*
X43989619Y-75874571D01*
X43894380Y-75731714D01*
X43751523Y-75636476D01*
X43561047Y-75588857D01*
X43370571Y-75636476D01*
X43227714Y-75731714D01*
X43132476Y-75874571D01*
X43084857Y-76065047D01*
X43132476Y-76255523D01*
X43227714Y-76398380D01*
X43370571Y-76493619D01*
X43561047Y-76541238D01*
X43751523Y-76493619D01*
X43894380Y-76398380D01*
X45132476Y-75493619D02*
X45180095Y-75446000D01*
X45275333Y-75398380D01*
X45513428Y-75398380D01*
X45608666Y-75446000D01*
X45656285Y-75493619D01*
X45703904Y-75588857D01*
X45703904Y-75684095D01*
X45656285Y-75826952D01*
X45084857Y-76398380D01*
X45703904Y-76398380D01*
X46322952Y-75398380D02*
X46418190Y-75398380D01*
X46513428Y-75446000D01*
X46561047Y-75493619D01*
X46608666Y-75588857D01*
X46656285Y-75779333D01*
X46656285Y-76017428D01*
X46608666Y-76207904D01*
X46561047Y-76303142D01*
X46513428Y-76350761D01*
X46418190Y-76398380D01*
X46322952Y-76398380D01*
X46227714Y-76350761D01*
X46180095Y-76303142D01*
X46132476Y-76207904D01*
X46084857Y-76017428D01*
X46084857Y-75779333D01*
X46132476Y-75588857D01*
X46180095Y-75493619D01*
X46227714Y-75446000D01*
X46322952Y-75398380D01*
X47037238Y-75493619D02*
X47084857Y-75446000D01*
X47180095Y-75398380D01*
X47418190Y-75398380D01*
X47513428Y-75446000D01*
X47561047Y-75493619D01*
X47608666Y-75588857D01*
X47608666Y-75684095D01*
X47561047Y-75826952D01*
X46989619Y-76398380D01*
X47608666Y-76398380D01*
X47942000Y-75398380D02*
X48561047Y-75398380D01*
X48227714Y-75779333D01*
X48370571Y-75779333D01*
X48465809Y-75826952D01*
X48513428Y-75874571D01*
X48561047Y-75969809D01*
X48561047Y-76207904D01*
X48513428Y-76303142D01*
X48465809Y-76350761D01*
X48370571Y-76398380D01*
X48084857Y-76398380D01*
X47989619Y-76350761D01*
X47942000Y-76303142D01*
X59918666Y-61626000D02*
X59852000Y-61592666D01*
X59752000Y-61592666D01*
X59652000Y-61626000D01*
X59585333Y-61692666D01*
X59552000Y-61759333D01*
X59518666Y-61892666D01*
X59518666Y-61992666D01*
X59552000Y-62126000D01*
X59585333Y-62192666D01*
X59652000Y-62259333D01*
X59752000Y-62292666D01*
X59818666Y-62292666D01*
X59918666Y-62259333D01*
X59952000Y-62226000D01*
X59952000Y-61992666D01*
X59818666Y-61992666D01*
X60252000Y-62292666D02*
X60252000Y-61592666D01*
X60652000Y-62292666D01*
X60652000Y-61592666D01*
X60985333Y-62292666D02*
X60985333Y-61592666D01*
X61152000Y-61592666D01*
X61252000Y-61626000D01*
X61318666Y-61692666D01*
X61352000Y-61759333D01*
X61385333Y-61892666D01*
X61385333Y-61992666D01*
X61352000Y-62126000D01*
X61318666Y-62192666D01*
X61252000Y-62259333D01*
X61152000Y-62292666D01*
X60985333Y-62292666D01*
X59618666Y-46852666D02*
X59952000Y-46852666D01*
X59552000Y-47052666D02*
X59785333Y-46352666D01*
X60018666Y-47052666D01*
X60618666Y-47052666D02*
X60218666Y-47052666D01*
X60418666Y-47052666D02*
X60418666Y-46352666D01*
X60352000Y-46452666D01*
X60285333Y-46519333D01*
X60218666Y-46552666D01*
X61252000Y-46352666D02*
X60918666Y-46352666D01*
X60885333Y-46686000D01*
X60918666Y-46652666D01*
X60985333Y-46619333D01*
X61152000Y-46619333D01*
X61218666Y-46652666D01*
X61252000Y-46686000D01*
X61285333Y-46752666D01*
X61285333Y-46919333D01*
X61252000Y-46986000D01*
X61218666Y-47019333D01*
X61152000Y-47052666D01*
X60985333Y-47052666D01*
X60918666Y-47019333D01*
X60885333Y-46986000D01*
X59618666Y-57012666D02*
X59952000Y-57012666D01*
X59552000Y-57212666D02*
X59785333Y-56512666D01*
X60018666Y-57212666D01*
X60618666Y-57212666D02*
X60218666Y-57212666D01*
X60418666Y-57212666D02*
X60418666Y-56512666D01*
X60352000Y-56612666D01*
X60285333Y-56679333D01*
X60218666Y-56712666D01*
X60852000Y-56512666D02*
X61285333Y-56512666D01*
X61052000Y-56779333D01*
X61152000Y-56779333D01*
X61218666Y-56812666D01*
X61252000Y-56846000D01*
X61285333Y-56912666D01*
X61285333Y-57079333D01*
X61252000Y-57146000D01*
X61218666Y-57179333D01*
X61152000Y-57212666D01*
X60952000Y-57212666D01*
X60885333Y-57179333D01*
X60852000Y-57146000D01*
X59918666Y-38766000D02*
X59852000Y-38732666D01*
X59752000Y-38732666D01*
X59652000Y-38766000D01*
X59585333Y-38832666D01*
X59552000Y-38899333D01*
X59518666Y-39032666D01*
X59518666Y-39132666D01*
X59552000Y-39266000D01*
X59585333Y-39332666D01*
X59652000Y-39399333D01*
X59752000Y-39432666D01*
X59818666Y-39432666D01*
X59918666Y-39399333D01*
X59952000Y-39366000D01*
X59952000Y-39132666D01*
X59818666Y-39132666D01*
X60252000Y-39432666D02*
X60252000Y-38732666D01*
X60652000Y-39432666D01*
X60652000Y-38732666D01*
X60985333Y-39432666D02*
X60985333Y-38732666D01*
X61152000Y-38732666D01*
X61252000Y-38766000D01*
X61318666Y-38832666D01*
X61352000Y-38899333D01*
X61385333Y-39032666D01*
X61385333Y-39132666D01*
X61352000Y-39266000D01*
X61318666Y-39332666D01*
X61252000Y-39399333D01*
X61152000Y-39432666D01*
X60985333Y-39432666D01*
X52586000Y-31612666D02*
X52919333Y-31612666D01*
X52519333Y-31812666D02*
X52752666Y-31112666D01*
X52986000Y-31812666D01*
X53186000Y-31179333D02*
X53219333Y-31146000D01*
X53286000Y-31112666D01*
X53452666Y-31112666D01*
X53519333Y-31146000D01*
X53552666Y-31179333D01*
X53586000Y-31246000D01*
X53586000Y-31312666D01*
X53552666Y-31412666D01*
X53152666Y-31812666D01*
X53586000Y-31812666D01*
X59935333Y-36892666D02*
X59935333Y-36192666D01*
X60102000Y-36192666D01*
X60202000Y-36226000D01*
X60268666Y-36292666D01*
X60302000Y-36359333D01*
X60335333Y-36492666D01*
X60335333Y-36592666D01*
X60302000Y-36726000D01*
X60268666Y-36792666D01*
X60202000Y-36859333D01*
X60102000Y-36892666D01*
X59935333Y-36892666D01*
X61002000Y-36892666D02*
X60602000Y-36892666D01*
X60802000Y-36892666D02*
X60802000Y-36192666D01*
X60735333Y-36292666D01*
X60668666Y-36359333D01*
X60602000Y-36392666D01*
X60206000Y-26532666D02*
X60539333Y-26532666D01*
X60139333Y-26732666D02*
X60372666Y-26032666D01*
X60606000Y-26732666D01*
X60972666Y-26032666D02*
X61039333Y-26032666D01*
X61106000Y-26066000D01*
X61139333Y-26099333D01*
X61172666Y-26166000D01*
X61206000Y-26299333D01*
X61206000Y-26466000D01*
X61172666Y-26599333D01*
X61139333Y-26666000D01*
X61106000Y-26699333D01*
X61039333Y-26732666D01*
X60972666Y-26732666D01*
X60906000Y-26699333D01*
X60872666Y-26666000D01*
X60839333Y-26599333D01*
X60806000Y-26466000D01*
X60806000Y-26299333D01*
X60839333Y-26166000D01*
X60872666Y-26099333D01*
X60906000Y-26066000D01*
X60972666Y-26032666D01*
X52252666Y-59806666D02*
X52586000Y-59806666D01*
X52186000Y-60006666D02*
X52419333Y-59306666D01*
X52652666Y-60006666D01*
X53252666Y-60006666D02*
X52852666Y-60006666D01*
X53052666Y-60006666D02*
X53052666Y-59306666D01*
X52986000Y-59406666D01*
X52919333Y-59473333D01*
X52852666Y-59506666D01*
X53686000Y-59306666D02*
X53752666Y-59306666D01*
X53819333Y-59340000D01*
X53852666Y-59373333D01*
X53886000Y-59440000D01*
X53919333Y-59573333D01*
X53919333Y-59740000D01*
X53886000Y-59873333D01*
X53852666Y-59940000D01*
X53819333Y-59973333D01*
X53752666Y-60006666D01*
X53686000Y-60006666D01*
X53619333Y-59973333D01*
X53586000Y-59940000D01*
X53552666Y-59873333D01*
X53519333Y-59740000D01*
X53519333Y-59573333D01*
X53552666Y-59440000D01*
X53586000Y-59373333D01*
X53619333Y-59340000D01*
X53686000Y-59306666D01*
X59952000Y-75046666D02*
X60285333Y-75046666D01*
X59885333Y-75246666D02*
X60118666Y-74546666D01*
X60352000Y-75246666D01*
X60685333Y-74846666D02*
X60618666Y-74813333D01*
X60585333Y-74780000D01*
X60552000Y-74713333D01*
X60552000Y-74680000D01*
X60585333Y-74613333D01*
X60618666Y-74580000D01*
X60685333Y-74546666D01*
X60818666Y-74546666D01*
X60885333Y-74580000D01*
X60918666Y-74613333D01*
X60952000Y-74680000D01*
X60952000Y-74713333D01*
X60918666Y-74780000D01*
X60885333Y-74813333D01*
X60818666Y-74846666D01*
X60685333Y-74846666D01*
X60618666Y-74880000D01*
X60585333Y-74913333D01*
X60552000Y-74980000D01*
X60552000Y-75113333D01*
X60585333Y-75180000D01*
X60618666Y-75213333D01*
X60685333Y-75246666D01*
X60818666Y-75246666D01*
X60885333Y-75213333D01*
X60918666Y-75180000D01*
X60952000Y-75113333D01*
X60952000Y-74980000D01*
X60918666Y-74913333D01*
X60885333Y-74880000D01*
X60818666Y-74846666D01*
X52702666Y-46065333D02*
X52102666Y-46965333D01*
X53069333Y-46098666D02*
X53202666Y-46098666D01*
X53269333Y-46132000D01*
X53336000Y-46198666D01*
X53369333Y-46332000D01*
X53369333Y-46565333D01*
X53336000Y-46698666D01*
X53269333Y-46765333D01*
X53202666Y-46798666D01*
X53069333Y-46798666D01*
X53002666Y-46765333D01*
X52936000Y-46698666D01*
X52902666Y-46565333D01*
X52902666Y-46332000D01*
X52936000Y-46198666D01*
X53002666Y-46132000D01*
X53069333Y-46098666D01*
X53669333Y-46432000D02*
X53902666Y-46432000D01*
X54002666Y-46798666D02*
X53669333Y-46798666D01*
X53669333Y-46098666D01*
X54002666Y-46098666D01*
X52052666Y-61846666D02*
X52486000Y-61846666D01*
X52252666Y-62113333D01*
X52352666Y-62113333D01*
X52419333Y-62146666D01*
X52452666Y-62180000D01*
X52486000Y-62246666D01*
X52486000Y-62413333D01*
X52452666Y-62480000D01*
X52419333Y-62513333D01*
X52352666Y-62546666D01*
X52152666Y-62546666D01*
X52086000Y-62513333D01*
X52052666Y-62480000D01*
X52786000Y-62480000D02*
X52819333Y-62513333D01*
X52786000Y-62546666D01*
X52752666Y-62513333D01*
X52786000Y-62480000D01*
X52786000Y-62546666D01*
X53052666Y-61846666D02*
X53486000Y-61846666D01*
X53252666Y-62113333D01*
X53352666Y-62113333D01*
X53419333Y-62146666D01*
X53452666Y-62180000D01*
X53486000Y-62246666D01*
X53486000Y-62413333D01*
X53452666Y-62480000D01*
X53419333Y-62513333D01*
X53352666Y-62546666D01*
X53152666Y-62546666D01*
X53086000Y-62513333D01*
X53052666Y-62480000D01*
X53686000Y-61846666D02*
X53919333Y-62546666D01*
X54152666Y-61846666D01*
X59602000Y-67626666D02*
X59602000Y-66926666D01*
X59768666Y-66926666D01*
X59868666Y-66960000D01*
X59935333Y-67026666D01*
X59968666Y-67093333D01*
X60002000Y-67226666D01*
X60002000Y-67326666D01*
X59968666Y-67460000D01*
X59935333Y-67526666D01*
X59868666Y-67593333D01*
X59768666Y-67626666D01*
X59602000Y-67626666D01*
X60668666Y-67626666D02*
X60268666Y-67626666D01*
X60468666Y-67626666D02*
X60468666Y-66926666D01*
X60402000Y-67026666D01*
X60335333Y-67093333D01*
X60268666Y-67126666D01*
X61268666Y-67160000D02*
X61268666Y-67626666D01*
X61102000Y-66893333D02*
X60935333Y-67393333D01*
X61368666Y-67393333D01*
X60339333Y-33619333D02*
X59739333Y-34519333D01*
X60972666Y-34286000D02*
X60939333Y-34319333D01*
X60839333Y-34352666D01*
X60772666Y-34352666D01*
X60672666Y-34319333D01*
X60606000Y-34252666D01*
X60572666Y-34186000D01*
X60539333Y-34052666D01*
X60539333Y-33952666D01*
X60572666Y-33819333D01*
X60606000Y-33752666D01*
X60672666Y-33686000D01*
X60772666Y-33652666D01*
X60839333Y-33652666D01*
X60939333Y-33686000D01*
X60972666Y-33719333D01*
X61272666Y-33986000D02*
X61506000Y-33986000D01*
X61606000Y-34352666D02*
X61272666Y-34352666D01*
X61272666Y-33652666D01*
X61606000Y-33652666D01*
X60035333Y-48859333D02*
X59435333Y-49759333D01*
X60268666Y-48892666D02*
X60268666Y-49459333D01*
X60302000Y-49526000D01*
X60335333Y-49559333D01*
X60402000Y-49592666D01*
X60535333Y-49592666D01*
X60602000Y-49559333D01*
X60635333Y-49526000D01*
X60668666Y-49459333D01*
X60668666Y-48892666D01*
X61235333Y-49226000D02*
X61335333Y-49259333D01*
X61368666Y-49292666D01*
X61402000Y-49359333D01*
X61402000Y-49459333D01*
X61368666Y-49526000D01*
X61335333Y-49559333D01*
X61268666Y-49592666D01*
X61002000Y-49592666D01*
X61002000Y-48892666D01*
X61235333Y-48892666D01*
X61302000Y-48926000D01*
X61335333Y-48959333D01*
X61368666Y-49026000D01*
X61368666Y-49092666D01*
X61335333Y-49159333D01*
X61302000Y-49192666D01*
X61235333Y-49226000D01*
X61002000Y-49226000D01*
X52506666Y-44312666D02*
X52840000Y-44312666D01*
X52440000Y-44512666D02*
X52673333Y-43812666D01*
X52906666Y-44512666D01*
X53506666Y-44512666D02*
X53106666Y-44512666D01*
X53306666Y-44512666D02*
X53306666Y-43812666D01*
X53240000Y-43912666D01*
X53173333Y-43979333D01*
X53106666Y-44012666D01*
X54106666Y-43812666D02*
X53973333Y-43812666D01*
X53906666Y-43846000D01*
X53873333Y-43879333D01*
X53806666Y-43979333D01*
X53773333Y-44112666D01*
X53773333Y-44379333D01*
X53806666Y-44446000D01*
X53840000Y-44479333D01*
X53906666Y-44512666D01*
X54040000Y-44512666D01*
X54106666Y-44479333D01*
X54140000Y-44446000D01*
X54173333Y-44379333D01*
X54173333Y-44212666D01*
X54140000Y-44146000D01*
X54106666Y-44112666D01*
X54040000Y-44079333D01*
X53906666Y-44079333D01*
X53840000Y-44112666D01*
X53806666Y-44146000D01*
X53773333Y-44212666D01*
X52586000Y-33898666D02*
X52919333Y-33898666D01*
X52519333Y-34098666D02*
X52752666Y-33398666D01*
X52986000Y-34098666D01*
X53519333Y-33632000D02*
X53519333Y-34098666D01*
X53352666Y-33365333D02*
X53186000Y-33865333D01*
X53619333Y-33865333D01*
X52236000Y-65086666D02*
X52236000Y-64386666D01*
X52402666Y-64386666D01*
X52502666Y-64420000D01*
X52569333Y-64486666D01*
X52602666Y-64553333D01*
X52636000Y-64686666D01*
X52636000Y-64786666D01*
X52602666Y-64920000D01*
X52569333Y-64986666D01*
X52502666Y-65053333D01*
X52402666Y-65086666D01*
X52236000Y-65086666D01*
X53302666Y-65086666D02*
X52902666Y-65086666D01*
X53102666Y-65086666D02*
X53102666Y-64386666D01*
X53036000Y-64486666D01*
X52969333Y-64553333D01*
X52902666Y-64586666D01*
X53536000Y-64386666D02*
X53969333Y-64386666D01*
X53736000Y-64653333D01*
X53836000Y-64653333D01*
X53902666Y-64686666D01*
X53936000Y-64720000D01*
X53969333Y-64786666D01*
X53969333Y-64953333D01*
X53936000Y-65020000D01*
X53902666Y-65053333D01*
X53836000Y-65086666D01*
X53636000Y-65086666D01*
X53569333Y-65053333D01*
X53536000Y-65020000D01*
X53006666Y-48097333D02*
X52406666Y-48997333D01*
X53573333Y-48830666D02*
X53240000Y-48830666D01*
X53240000Y-48130666D01*
X54040000Y-48464000D02*
X54140000Y-48497333D01*
X54173333Y-48530666D01*
X54206666Y-48597333D01*
X54206666Y-48697333D01*
X54173333Y-48764000D01*
X54140000Y-48797333D01*
X54073333Y-48830666D01*
X53806666Y-48830666D01*
X53806666Y-48130666D01*
X54040000Y-48130666D01*
X54106666Y-48164000D01*
X54140000Y-48197333D01*
X54173333Y-48264000D01*
X54173333Y-48330666D01*
X54140000Y-48397333D01*
X54106666Y-48430666D01*
X54040000Y-48464000D01*
X53806666Y-48464000D01*
X60206000Y-29072666D02*
X60539333Y-29072666D01*
X60139333Y-29272666D02*
X60372666Y-28572666D01*
X60606000Y-29272666D01*
X61206000Y-29272666D02*
X60806000Y-29272666D01*
X61006000Y-29272666D02*
X61006000Y-28572666D01*
X60939333Y-28672666D01*
X60872666Y-28739333D01*
X60806000Y-28772666D01*
X52236000Y-41972666D02*
X52236000Y-41272666D01*
X52402666Y-41272666D01*
X52502666Y-41306000D01*
X52569333Y-41372666D01*
X52602666Y-41439333D01*
X52636000Y-41572666D01*
X52636000Y-41672666D01*
X52602666Y-41806000D01*
X52569333Y-41872666D01*
X52502666Y-41939333D01*
X52402666Y-41972666D01*
X52236000Y-41972666D01*
X53302666Y-41972666D02*
X52902666Y-41972666D01*
X53102666Y-41972666D02*
X53102666Y-41272666D01*
X53036000Y-41372666D01*
X52969333Y-41439333D01*
X52902666Y-41472666D01*
X53969333Y-41972666D02*
X53569333Y-41972666D01*
X53769333Y-41972666D02*
X53769333Y-41272666D01*
X53702666Y-41372666D01*
X53636000Y-41439333D01*
X53569333Y-41472666D01*
X52586000Y-69966666D02*
X52919333Y-69966666D01*
X52519333Y-70166666D02*
X52752666Y-69466666D01*
X52986000Y-70166666D01*
X53552666Y-69466666D02*
X53219333Y-69466666D01*
X53186000Y-69800000D01*
X53219333Y-69766666D01*
X53286000Y-69733333D01*
X53452666Y-69733333D01*
X53519333Y-69766666D01*
X53552666Y-69800000D01*
X53586000Y-69866666D01*
X53586000Y-70033333D01*
X53552666Y-70100000D01*
X53519333Y-70133333D01*
X53452666Y-70166666D01*
X53286000Y-70166666D01*
X53219333Y-70133333D01*
X53186000Y-70100000D01*
%TO.C,U1*%
X40770000Y-40194666D02*
X40770000Y-39494666D01*
X41070000Y-40161333D02*
X41170000Y-40194666D01*
X41336666Y-40194666D01*
X41403333Y-40161333D01*
X41436666Y-40128000D01*
X41470000Y-40061333D01*
X41470000Y-39994666D01*
X41436666Y-39928000D01*
X41403333Y-39894666D01*
X41336666Y-39861333D01*
X41203333Y-39828000D01*
X41136666Y-39794666D01*
X41103333Y-39761333D01*
X41070000Y-39694666D01*
X41070000Y-39628000D01*
X41103333Y-39561333D01*
X41136666Y-39528000D01*
X41203333Y-39494666D01*
X41370000Y-39494666D01*
X41470000Y-39528000D01*
X42070000Y-39494666D02*
X41936666Y-39494666D01*
X41870000Y-39528000D01*
X41836666Y-39561333D01*
X41770000Y-39661333D01*
X41736666Y-39794666D01*
X41736666Y-40061333D01*
X41770000Y-40128000D01*
X41803333Y-40161333D01*
X41870000Y-40194666D01*
X42003333Y-40194666D01*
X42070000Y-40161333D01*
X42103333Y-40128000D01*
X42136666Y-40061333D01*
X42136666Y-39894666D01*
X42103333Y-39828000D01*
X42070000Y-39794666D01*
X42003333Y-39761333D01*
X41870000Y-39761333D01*
X41803333Y-39794666D01*
X41770000Y-39828000D01*
X41736666Y-39894666D01*
X42803333Y-40194666D02*
X42403333Y-40194666D01*
X42603333Y-40194666D02*
X42603333Y-39494666D01*
X42536666Y-39594666D01*
X42470000Y-39661333D01*
X42403333Y-39694666D01*
X43036666Y-39494666D02*
X43203333Y-40194666D01*
X43336666Y-39694666D01*
X43470000Y-40194666D01*
X43636666Y-39494666D01*
X43803333Y-39494666D02*
X44036666Y-40194666D01*
X44270000Y-39494666D01*
X44470000Y-39561333D02*
X44503333Y-39528000D01*
X44570000Y-39494666D01*
X44736666Y-39494666D01*
X44803333Y-39528000D01*
X44836666Y-39561333D01*
X44870000Y-39628000D01*
X44870000Y-39694666D01*
X44836666Y-39794666D01*
X44436666Y-40194666D01*
X44870000Y-40194666D01*
X45503333Y-39494666D02*
X45170000Y-39494666D01*
X45136666Y-39828000D01*
X45170000Y-39794666D01*
X45236666Y-39761333D01*
X45403333Y-39761333D01*
X45470000Y-39794666D01*
X45503333Y-39828000D01*
X45536666Y-39894666D01*
X45536666Y-40061333D01*
X45503333Y-40128000D01*
X45470000Y-40161333D01*
X45403333Y-40194666D01*
X45236666Y-40194666D01*
X45170000Y-40161333D01*
X45136666Y-40128000D01*
X46136666Y-39494666D02*
X46003333Y-39494666D01*
X45936666Y-39528000D01*
X45903333Y-39561333D01*
X45836666Y-39661333D01*
X45803333Y-39794666D01*
X45803333Y-40061333D01*
X45836666Y-40128000D01*
X45870000Y-40161333D01*
X45936666Y-40194666D01*
X46070000Y-40194666D01*
X46136666Y-40161333D01*
X46170000Y-40128000D01*
X46203333Y-40061333D01*
X46203333Y-39894666D01*
X46170000Y-39828000D01*
X46136666Y-39794666D01*
X46070000Y-39761333D01*
X45936666Y-39761333D01*
X45870000Y-39794666D01*
X45836666Y-39828000D01*
X45803333Y-39894666D01*
X46870000Y-40194666D02*
X46470000Y-40194666D01*
X46670000Y-40194666D02*
X46670000Y-39494666D01*
X46603333Y-39594666D01*
X46536666Y-39661333D01*
X46470000Y-39694666D01*
X47470000Y-39494666D02*
X47336666Y-39494666D01*
X47270000Y-39528000D01*
X47236666Y-39561333D01*
X47170000Y-39661333D01*
X47136666Y-39794666D01*
X47136666Y-40061333D01*
X47170000Y-40128000D01*
X47203333Y-40161333D01*
X47270000Y-40194666D01*
X47403333Y-40194666D01*
X47470000Y-40161333D01*
X47503333Y-40128000D01*
X47536666Y-40061333D01*
X47536666Y-39894666D01*
X47503333Y-39828000D01*
X47470000Y-39794666D01*
X47403333Y-39761333D01*
X47270000Y-39761333D01*
X47203333Y-39794666D01*
X47170000Y-39828000D01*
X47136666Y-39894666D01*
X47836666Y-39828000D02*
X48070000Y-39828000D01*
X48170000Y-40194666D02*
X47836666Y-40194666D01*
X47836666Y-39494666D01*
X48170000Y-39494666D01*
X48470000Y-40194666D02*
X48470000Y-39494666D01*
X48636666Y-39494666D01*
X48736666Y-39528000D01*
X48803333Y-39594666D01*
X48836666Y-39661333D01*
X48870000Y-39794666D01*
X48870000Y-39894666D01*
X48836666Y-40028000D01*
X48803333Y-40094666D01*
X48736666Y-40161333D01*
X48636666Y-40194666D01*
X48470000Y-40194666D01*
X49403333Y-39828000D02*
X49503333Y-39861333D01*
X49536666Y-39894666D01*
X49570000Y-39961333D01*
X49570000Y-40061333D01*
X49536666Y-40128000D01*
X49503333Y-40161333D01*
X49436666Y-40194666D01*
X49170000Y-40194666D01*
X49170000Y-39494666D01*
X49403333Y-39494666D01*
X49470000Y-39528000D01*
X49503333Y-39561333D01*
X49536666Y-39628000D01*
X49536666Y-39694666D01*
X49503333Y-39761333D01*
X49470000Y-39794666D01*
X49403333Y-39828000D01*
X49170000Y-39828000D01*
X50203333Y-40194666D02*
X49870000Y-40194666D01*
X49870000Y-39494666D01*
X50770000Y-40194666D02*
X50436666Y-40194666D01*
X50436666Y-39494666D01*
D12*
%TO.C,J2*%
X64830000Y-45974000D02*
X64830000Y-56194000D01*
X62170000Y-43374000D02*
X63500000Y-43374000D01*
X62170000Y-45974000D02*
X62170000Y-56194000D01*
X62170000Y-56194000D02*
X64830000Y-56194000D01*
X62170000Y-45974000D02*
X64830000Y-45974000D01*
X62170000Y-44704000D02*
X62170000Y-43374000D01*
%TO.C,C2*%
X38714000Y-50430165D02*
X38714000Y-50661835D01*
X37994000Y-50430165D02*
X37994000Y-50661835D01*
D13*
%TO.C,U1*%
X40386000Y-41084500D02*
X50546000Y-41084500D01*
X40386000Y-59499500D02*
X50546000Y-59499500D01*
D14*
X38501000Y-41342000D02*
G75*
G03*
X38501000Y-41342000I-100000J0D01*
G01*
D12*
%TO.C,C1*%
X52938000Y-50173924D02*
X52938000Y-50405594D01*
X52218000Y-50173924D02*
X52218000Y-50405594D01*
%TD*%
M02*
