%TF.GenerationSoftware,KiCad,Pcbnew,(6.0.7)*%
%TF.CreationDate,2023-01-29T20:04:43+00:00*%
%TF.ProjectId,DE0_Addon_Board,4445305f-4164-4646-9f6e-5f426f617264,0*%
%TF.SameCoordinates,Original*%
%TF.FileFunction,Copper,L1,Top*%
%TF.FilePolarity,Positive*%
%FSLAX46Y46*%
G04 Gerber Fmt 4.6, Leading zero omitted, Abs format (unit mm)*
G04 Created by KiCad (PCBNEW (6.0.7)) date 2023-01-29 20:04:43*
%MOMM*%
%LPD*%
G01*
G04 APERTURE LIST*
G04 Aperture macros list*
%AMRoundRect*
0 Rectangle with rounded corners*
0 $1 Rounding radius*
0 $2 $3 $4 $5 $6 $7 $8 $9 X,Y pos of 4 corners*
0 Add a 4 corners polygon primitive as box body*
4,1,4,$2,$3,$4,$5,$6,$7,$8,$9,$2,$3,0*
0 Add four circle primitives for the rounded corners*
1,1,$1+$1,$2,$3*
1,1,$1+$1,$4,$5*
1,1,$1+$1,$6,$7*
1,1,$1+$1,$8,$9*
0 Add four rect primitives between the rounded corners*
20,1,$1+$1,$2,$3,$4,$5,0*
20,1,$1+$1,$4,$5,$6,$7,0*
20,1,$1+$1,$6,$7,$8,$9,0*
20,1,$1+$1,$8,$9,$2,$3,0*%
G04 Aperture macros list end*
%TA.AperFunction,ComponentPad*%
%ADD10R,1.700000X1.700000*%
%TD*%
%TA.AperFunction,ComponentPad*%
%ADD11O,1.700000X1.700000*%
%TD*%
%TA.AperFunction,SMDPad,CuDef*%
%ADD12RoundRect,0.155000X-0.155000X0.212500X-0.155000X-0.212500X0.155000X-0.212500X0.155000X0.212500X0*%
%TD*%
%TA.AperFunction,SMDPad,CuDef*%
%ADD13RoundRect,0.038500X-0.686500X-0.236500X0.686500X-0.236500X0.686500X0.236500X-0.686500X0.236500X0*%
%TD*%
%TA.AperFunction,ViaPad*%
%ADD14C,0.800000*%
%TD*%
%TA.AperFunction,Conductor*%
%ADD15C,0.250000*%
%TD*%
G04 APERTURE END LIST*
D10*
%TO.P,J2,1,Pin_1*%
%TO.N,P1*%
X63500000Y-44704000D03*
D11*
%TO.P,J2,2,Pin_2*%
%TO.N,P3*%
X63500000Y-47244000D03*
%TO.P,J2,3,Pin_3*%
%TO.N,P21*%
X63500000Y-49784000D03*
%TO.P,J2,4,Pin_4*%
%TO.N,P22*%
X63500000Y-52324000D03*
%TO.P,J2,5,Pin_5*%
%TO.N,P24*%
X63500000Y-54864000D03*
%TD*%
D12*
%TO.P,C2,1*%
%TO.N,+3.3V*%
X38354000Y-49978500D03*
%TO.P,C2,2*%
%TO.N,GNDREF*%
X38354000Y-51113500D03*
%TD*%
D13*
%TO.P,U1,1,A0*%
%TO.N,A0*%
X39851000Y-41892000D03*
%TO.P,U1,2,A1*%
%TO.N,A1*%
X39851000Y-42692000D03*
%TO.P,U1,3,A2*%
%TO.N,A2*%
X39851000Y-43492000D03*
%TO.P,U1,4,A3*%
%TO.N,A3*%
X39851000Y-44292000D03*
%TO.P,U1,5,A4*%
%TO.N,A4*%
X39851000Y-45092000D03*
%TO.P,U1,6,~{CE}*%
%TO.N,CE_n*%
X39851000Y-45892000D03*
%TO.P,U1,7,I/O0*%
%TO.N,D0*%
X39851000Y-46692000D03*
%TO.P,U1,8,I/O1*%
%TO.N,D1*%
X39851000Y-47492000D03*
%TO.P,U1,9,I/O2*%
%TO.N,D10*%
X39851000Y-48292000D03*
%TO.P,U1,10,I/O3*%
%TO.N,D11*%
X39851000Y-49092000D03*
%TO.P,U1,11,VDD*%
%TO.N,+3.3V*%
X39851000Y-49892000D03*
%TO.P,U1,12,GND*%
%TO.N,GNDREF*%
X39851000Y-50692000D03*
%TO.P,U1,13,I/O4*%
%TO.N,D12*%
X39851000Y-51492000D03*
%TO.P,U1,14,I/O5*%
%TO.N,D13*%
X39851000Y-52292000D03*
%TO.P,U1,15,I/O6*%
%TO.N,D14*%
X39851000Y-53092000D03*
%TO.P,U1,16,I/O7*%
%TO.N,D15*%
X39851000Y-53892000D03*
%TO.P,U1,17,~{WE}*%
%TO.N,WE_n*%
X39851000Y-54692000D03*
%TO.P,U1,18,A5*%
%TO.N,A5*%
X39851000Y-55492000D03*
%TO.P,U1,19,A6*%
%TO.N,A6*%
X39851000Y-56292000D03*
%TO.P,U1,20,A7*%
%TO.N,A7*%
X39851000Y-57092000D03*
%TO.P,U1,21,A8*%
%TO.N,A8*%
X39851000Y-57892000D03*
%TO.P,U1,22,A9*%
%TO.N,A9*%
X39851000Y-58692000D03*
%TO.P,U1,23,A10*%
%TO.N,A10*%
X51081000Y-58692000D03*
%TO.P,U1,24,A11*%
%TO.N,A11*%
X51081000Y-57892000D03*
%TO.P,U1,25,A12*%
%TO.N,A12*%
X51081000Y-57092000D03*
%TO.P,U1,26,A13*%
%TO.N,A13*%
X51081000Y-56292000D03*
%TO.P,U1,27,A14*%
%TO.N,A14*%
X51081000Y-55492000D03*
%TO.P,U1,28,NC*%
%TO.N,unconnected-(U1-Pad28)*%
X51081000Y-54692000D03*
%TO.P,U1,29,I/08*%
%TO.N,D0*%
X51081000Y-53892000D03*
%TO.P,U1,30,I/09*%
%TO.N,D1*%
X51081000Y-53092000D03*
%TO.P,U1,31,I/10*%
%TO.N,D10*%
X51081000Y-52292000D03*
%TO.P,U1,32,I/11*%
%TO.N,D11*%
X51081000Y-51492000D03*
%TO.P,U1,33,VDD*%
%TO.N,+3.3V*%
X51081000Y-50692000D03*
%TO.P,U1,34,GND*%
%TO.N,GNDREF*%
X51081000Y-49892000D03*
%TO.P,U1,35,I/12*%
%TO.N,D12*%
X51081000Y-49092000D03*
%TO.P,U1,36,I/13*%
%TO.N,D13*%
X51081000Y-48292000D03*
%TO.P,U1,37,I/14*%
%TO.N,D14*%
X51081000Y-47492000D03*
%TO.P,U1,38,I/15*%
%TO.N,D15*%
X51081000Y-46692000D03*
%TO.P,U1,39,~{LB}*%
%TO.N,LB_n*%
X51081000Y-45892000D03*
%TO.P,U1,40,~{UB}*%
%TO.N,UB_n*%
X51081000Y-45092000D03*
%TO.P,U1,41,~{OE}*%
%TO.N,OE_n*%
X51081000Y-44292000D03*
%TO.P,U1,42,A15*%
%TO.N,A15*%
X51081000Y-43492000D03*
%TO.P,U1,43,A16*%
%TO.N,A16*%
X51081000Y-42692000D03*
%TO.P,U1,44,A17*%
%TO.N,A17*%
X51081000Y-41892000D03*
%TD*%
D12*
%TO.P,C1,1*%
%TO.N,GNDREF*%
X52578000Y-49722259D03*
%TO.P,C1,2*%
%TO.N,+3.3V*%
X52578000Y-50857259D03*
%TD*%
D10*
%TO.P,J1,1,Pin_1*%
%TO.N,P1*%
X55372000Y-26416000D03*
D11*
%TO.P,J1,2,Pin_2*%
%TO.N,A0*%
X57912000Y-26416000D03*
%TO.P,J1,3,Pin_3*%
%TO.N,P3*%
X55372000Y-28956000D03*
%TO.P,J1,4,Pin_4*%
%TO.N,A1*%
X57912000Y-28956000D03*
%TO.P,J1,5,Pin_5*%
%TO.N,A2*%
X55372000Y-31496000D03*
%TO.P,J1,6,Pin_6*%
%TO.N,A3*%
X57912000Y-31496000D03*
%TO.P,J1,7,Pin_7*%
%TO.N,A4*%
X55372000Y-34036000D03*
%TO.P,J1,8,Pin_8*%
%TO.N,CE_n*%
X57912000Y-34036000D03*
%TO.P,J1,9,Pin_9*%
%TO.N,D0*%
X55372000Y-36576000D03*
%TO.P,J1,10,Pin_10*%
%TO.N,D1*%
X57912000Y-36576000D03*
%TO.P,J1,11,Pin_11*%
%TO.N,unconnected-(J1-Pad11)*%
X55372000Y-39116000D03*
%TO.P,J1,12,Pin_12*%
%TO.N,GNDREF*%
X57912000Y-39116000D03*
%TO.P,J1,13,Pin_13*%
%TO.N,D11*%
X55372000Y-41656000D03*
%TO.P,J1,14,Pin_14*%
%TO.N,D10*%
X57912000Y-41656000D03*
%TO.P,J1,15,Pin_15*%
%TO.N,A16*%
X55372000Y-44196000D03*
%TO.P,J1,16,Pin_16*%
%TO.N,A17*%
X57912000Y-44196000D03*
%TO.P,J1,17,Pin_17*%
%TO.N,OE_n*%
X55372000Y-46736000D03*
%TO.P,J1,18,Pin_18*%
%TO.N,A15*%
X57912000Y-46736000D03*
%TO.P,J1,19,Pin_19*%
%TO.N,LB_n*%
X55372000Y-49276000D03*
%TO.P,J1,20,Pin_20*%
%TO.N,UB_n*%
X57912000Y-49276000D03*
%TO.P,J1,21,Pin_21*%
%TO.N,P21*%
X55372000Y-51816000D03*
%TO.P,J1,22,Pin_22*%
%TO.N,P22*%
X57912000Y-51816000D03*
%TO.P,J1,23,Pin_23*%
%TO.N,A14*%
X55372000Y-54356000D03*
%TO.P,J1,24,Pin_24*%
%TO.N,P24*%
X57912000Y-54356000D03*
%TO.P,J1,25,Pin_25*%
%TO.N,A12*%
X55372000Y-56896000D03*
%TO.P,J1,26,Pin_26*%
%TO.N,A13*%
X57912000Y-56896000D03*
%TO.P,J1,27,Pin_27*%
%TO.N,A10*%
X55372000Y-59436000D03*
%TO.P,J1,28,Pin_28*%
%TO.N,A11*%
X57912000Y-59436000D03*
%TO.P,J1,29,Pin_29*%
%TO.N,+3.3V*%
X55372000Y-61976000D03*
%TO.P,J1,30,Pin_30*%
%TO.N,GNDREF*%
X57912000Y-61976000D03*
%TO.P,J1,31,Pin_31*%
%TO.N,D13*%
X55372000Y-64516000D03*
%TO.P,J1,32,Pin_32*%
%TO.N,D12*%
X57912000Y-64516000D03*
%TO.P,J1,33,Pin_33*%
%TO.N,D15*%
X55372000Y-67056000D03*
%TO.P,J1,34,Pin_34*%
%TO.N,D14*%
X57912000Y-67056000D03*
%TO.P,J1,35,Pin_35*%
%TO.N,A5*%
X55372000Y-69596000D03*
%TO.P,J1,36,Pin_36*%
%TO.N,WE_n*%
X57912000Y-69596000D03*
%TO.P,J1,37,Pin_37*%
%TO.N,A7*%
X55372000Y-72136000D03*
%TO.P,J1,38,Pin_38*%
%TO.N,A6*%
X57912000Y-72136000D03*
%TO.P,J1,39,Pin_39*%
%TO.N,A9*%
X55372000Y-74676000D03*
%TO.P,J1,40,Pin_40*%
%TO.N,A8*%
X57912000Y-74676000D03*
%TD*%
D14*
%TO.N,+3.3V*%
X39624000Y-38862000D03*
%TO.N,GNDREF*%
X41402000Y-50767500D03*
X49530000Y-50038000D03*
%TO.N,D0*%
X52879208Y-53890529D03*
%TO.N,D1*%
X46482000Y-53086000D03*
X43059714Y-46864885D03*
%TO.N,D10*%
X44699915Y-46731486D03*
X46990000Y-52070000D03*
%TO.N,+3.3V*%
X41836783Y-49857217D03*
X53848000Y-50546000D03*
%TO.N,D11*%
X46990000Y-46736000D03*
X47244000Y-51054000D03*
%TO.N,D13*%
X43685359Y-50767500D03*
X43180000Y-52324000D03*
%TO.N,D14*%
X42672000Y-50546000D03*
X42164000Y-53086000D03*
%TO.N,D15*%
X41402000Y-53848000D03*
X49022000Y-46736000D03*
%TD*%
D15*
%TO.N,P1*%
X57150000Y-24638000D02*
X55372000Y-26416000D01*
X58674000Y-24638000D02*
X57150000Y-24638000D01*
X60648000Y-42952000D02*
X60648000Y-26612000D01*
X62400000Y-44704000D02*
X60648000Y-42952000D01*
X60648000Y-26612000D02*
X58674000Y-24638000D01*
X63500000Y-44704000D02*
X62400000Y-44704000D01*
%TO.N,P3*%
X60198000Y-43942000D02*
X63500000Y-47244000D01*
X60198000Y-29210000D02*
X60198000Y-43942000D01*
X58769000Y-27781000D02*
X60198000Y-29210000D01*
X57309000Y-27781000D02*
X58769000Y-27781000D01*
X56134000Y-28956000D02*
X57309000Y-27781000D01*
X55372000Y-28956000D02*
X56134000Y-28956000D01*
%TO.N,A0*%
X56668778Y-27659222D02*
X57912000Y-26416000D01*
%TO.N,LB_n*%
X51988000Y-45892000D02*
X51081000Y-45892000D01*
X55372000Y-49276000D02*
X51988000Y-45892000D01*
%TO.N,UB_n*%
X56637722Y-48001722D02*
X54859722Y-48001722D01*
X53340000Y-45720000D02*
X52712000Y-45092000D01*
X54859722Y-48001722D02*
X53340000Y-46482000D01*
X52712000Y-45092000D02*
X51081000Y-45092000D01*
X53340000Y-46482000D02*
X53340000Y-45720000D01*
X57912000Y-49276000D02*
X56637722Y-48001722D01*
%TO.N,A17*%
X56642000Y-42926000D02*
X57912000Y-44196000D01*
X53322000Y-41892000D02*
X54356000Y-42926000D01*
X51081000Y-41892000D02*
X53322000Y-41892000D01*
X54356000Y-42926000D02*
X56642000Y-42926000D01*
%TO.N,A16*%
X55372000Y-44196000D02*
X54610000Y-44196000D01*
X51101000Y-42672000D02*
X51081000Y-42692000D01*
X53086000Y-42672000D02*
X51101000Y-42672000D01*
X54610000Y-44196000D02*
X53086000Y-42672000D01*
%TO.N,A15*%
X54864000Y-45466000D02*
X56642000Y-45466000D01*
X51081000Y-43492000D02*
X52890000Y-43492000D01*
X56642000Y-45466000D02*
X57912000Y-46736000D01*
X52890000Y-43492000D02*
X54864000Y-45466000D01*
%TO.N,GNDREF*%
X51081000Y-49892000D02*
X52408259Y-49892000D01*
X49676000Y-49892000D02*
X49530000Y-50038000D01*
X41326500Y-50692000D02*
X39851000Y-50692000D01*
X39851000Y-50692000D02*
X39100500Y-50692000D01*
X51081000Y-49892000D02*
X49676000Y-49892000D01*
X38679000Y-51113500D02*
X38354000Y-51113500D01*
X39100500Y-50692000D02*
X38679000Y-51113500D01*
X41402000Y-50767500D02*
X41326500Y-50692000D01*
%TO.N,WE_n*%
X40722000Y-54692000D02*
X39851000Y-54692000D01*
X57912000Y-69596000D02*
X56642000Y-68326000D01*
X56642000Y-68326000D02*
X54356000Y-68326000D01*
X54356000Y-68326000D02*
X40722000Y-54692000D01*
%TO.N,A8*%
X56642000Y-73406000D02*
X57912000Y-74676000D01*
X40488067Y-57892000D02*
X42672000Y-60075933D01*
X42672000Y-60075933D02*
X42672000Y-66040000D01*
X50038000Y-73406000D02*
X56642000Y-73406000D01*
X39851000Y-57892000D02*
X40488067Y-57892000D01*
X42672000Y-66040000D02*
X50038000Y-73406000D01*
%TO.N,A9*%
X49022000Y-74676000D02*
X55372000Y-74676000D01*
X39851000Y-58692000D02*
X39851000Y-65505000D01*
X39851000Y-65505000D02*
X49022000Y-74676000D01*
%TO.N,A6*%
X39851000Y-56292000D02*
X40488067Y-56292000D01*
X43572000Y-61976000D02*
X52462000Y-70866000D01*
X40488067Y-56292000D02*
X43572000Y-59375933D01*
X56642000Y-70866000D02*
X57912000Y-72136000D01*
X52462000Y-70866000D02*
X56642000Y-70866000D01*
X43572000Y-59375933D02*
X43572000Y-61976000D01*
%TO.N,A11*%
X57912000Y-59436000D02*
X56642000Y-58166000D01*
X56642000Y-58166000D02*
X54356000Y-58166000D01*
X54082000Y-57892000D02*
X51081000Y-57892000D01*
X54356000Y-58166000D02*
X54082000Y-57892000D01*
%TO.N,A10*%
X55372000Y-59436000D02*
X53594000Y-59436000D01*
X53594000Y-59436000D02*
X52850000Y-58692000D01*
X52850000Y-58692000D02*
X51081000Y-58692000D01*
%TO.N,OE_n*%
X52832000Y-44196000D02*
X51177000Y-44196000D01*
X55372000Y-46736000D02*
X52832000Y-44196000D01*
X51177000Y-44196000D02*
X51081000Y-44292000D01*
%TO.N,A7*%
X43122000Y-59725933D02*
X43122000Y-64966000D01*
X40488067Y-57092000D02*
X43122000Y-59725933D01*
X50292000Y-72136000D02*
X55372000Y-72136000D01*
X39851000Y-57092000D02*
X40488067Y-57092000D01*
X43122000Y-64966000D02*
X50292000Y-72136000D01*
%TO.N,CE_n*%
X42246000Y-45892000D02*
X52832000Y-35306000D01*
X52832000Y-35306000D02*
X56642000Y-35306000D01*
X56642000Y-35306000D02*
X57912000Y-34036000D01*
X39851000Y-45892000D02*
X42246000Y-45892000D01*
%TO.N,A12*%
X51139000Y-57150000D02*
X51081000Y-57092000D01*
X55372000Y-56896000D02*
X52832000Y-56896000D01*
X52832000Y-56896000D02*
X52578000Y-57150000D01*
X52578000Y-57150000D02*
X51139000Y-57150000D01*
%TO.N,A13*%
X52928000Y-56292000D02*
X51081000Y-56292000D01*
X53594000Y-55626000D02*
X52928000Y-56292000D01*
X56642000Y-55626000D02*
X53594000Y-55626000D01*
X57912000Y-56896000D02*
X56642000Y-55626000D01*
%TO.N,D0*%
X51081000Y-53892000D02*
X52877737Y-53892000D01*
X39851000Y-46692000D02*
X42208000Y-46692000D01*
X52877737Y-53892000D02*
X52879208Y-53890529D01*
X52324000Y-36576000D02*
X55372000Y-36576000D01*
X42208000Y-46692000D02*
X52324000Y-36576000D01*
%TO.N,A14*%
X51081000Y-55492000D02*
X51122975Y-55450025D01*
X53007975Y-55450025D02*
X54102000Y-54356000D01*
X51122975Y-55450025D02*
X53007975Y-55450025D01*
X54102000Y-54356000D02*
X55372000Y-54356000D01*
%TO.N,D1*%
X39851000Y-47492000D02*
X42432599Y-47492000D01*
X43059714Y-46864885D02*
X43059714Y-46602286D01*
X46488000Y-53092000D02*
X51081000Y-53092000D01*
X46482000Y-53086000D02*
X46488000Y-53092000D01*
X56576406Y-37911594D02*
X57912000Y-36576000D01*
X43059714Y-46602286D02*
X51750406Y-37911594D01*
X42432599Y-47492000D02*
X43059714Y-46864885D01*
X51750406Y-37911594D02*
X56576406Y-37911594D01*
%TO.N,A0*%
X39851000Y-41892000D02*
X54083778Y-27659222D01*
X54083778Y-27659222D02*
X56668778Y-27659222D01*
%TO.N,D10*%
X44699915Y-46731486D02*
X44708514Y-46731486D01*
X43139401Y-48292000D02*
X39851000Y-48292000D01*
X44708514Y-46731486D02*
X49581000Y-41859000D01*
X49581000Y-41859000D02*
X49581000Y-41318537D01*
X50513537Y-40386000D02*
X56642000Y-40386000D01*
X56642000Y-40386000D02*
X57912000Y-41656000D01*
X44699915Y-46731486D02*
X43139401Y-48292000D01*
X46990000Y-52070000D02*
X47212000Y-52292000D01*
X47212000Y-52292000D02*
X51081000Y-52292000D01*
X49581000Y-41318537D02*
X50513537Y-40386000D01*
%TO.N,+3.3V*%
X39851000Y-49892000D02*
X41802000Y-49892000D01*
X39851000Y-49892000D02*
X38440500Y-49892000D01*
X52412741Y-50692000D02*
X52578000Y-50857259D01*
X53848000Y-50546000D02*
X53594000Y-50800000D01*
X59436000Y-59690000D02*
X58325000Y-60801000D01*
X51081000Y-50692000D02*
X52412741Y-50692000D01*
X58303701Y-50546000D02*
X59436000Y-51678299D01*
X56547000Y-60801000D02*
X55372000Y-61976000D01*
X38440500Y-49892000D02*
X38354000Y-49978500D01*
X41802000Y-49892000D02*
X41836783Y-49857217D01*
X52635259Y-50800000D02*
X52578000Y-50857259D01*
X53594000Y-50800000D02*
X52635259Y-50800000D01*
X59436000Y-51678299D02*
X59436000Y-59690000D01*
X53848000Y-50546000D02*
X58303701Y-50546000D01*
X58325000Y-60801000D02*
X56547000Y-60801000D01*
%TO.N,A1*%
X39851000Y-42692000D02*
X42514299Y-42692000D01*
X42514299Y-42692000D02*
X54980299Y-30226000D01*
X54980299Y-30226000D02*
X56642000Y-30226000D01*
X56642000Y-30226000D02*
X57912000Y-28956000D01*
%TO.N,D11*%
X50031000Y-41504933D02*
X50641933Y-40894000D01*
X50641933Y-40894000D02*
X54356000Y-40894000D01*
X46990000Y-46736000D02*
X45720000Y-46736000D01*
X46990000Y-46228000D02*
X50031000Y-43187000D01*
X47682000Y-51492000D02*
X51081000Y-51492000D01*
X47244000Y-51054000D02*
X47682000Y-51492000D01*
X44750305Y-47715000D02*
X44741000Y-47715000D01*
X45175000Y-47281000D02*
X45175000Y-47290305D01*
X50031000Y-43187000D02*
X50031000Y-41504933D01*
X45175000Y-47290305D02*
X44750305Y-47715000D01*
X54356000Y-40894000D02*
X55118000Y-41656000D01*
X43364000Y-49092000D02*
X39851000Y-49092000D01*
X55118000Y-41656000D02*
X55372000Y-41656000D01*
X44741000Y-47715000D02*
X43364000Y-49092000D01*
X45720000Y-46736000D02*
X45175000Y-47281000D01*
X46990000Y-46736000D02*
X46990000Y-46228000D01*
%TO.N,A2*%
X42360000Y-43492000D02*
X54356000Y-31496000D01*
X54356000Y-31496000D02*
X55372000Y-31496000D01*
X39851000Y-43492000D02*
X42360000Y-43492000D01*
%TO.N,D12*%
X50031000Y-57660305D02*
X50031000Y-59079067D01*
X54197933Y-63246000D02*
X56642000Y-63246000D01*
X43110000Y-51492000D02*
X43862695Y-51492000D01*
X50031000Y-59079067D02*
X54197933Y-63246000D01*
X56642000Y-63246000D02*
X57912000Y-64516000D01*
X51081000Y-49092000D02*
X49346000Y-49092000D01*
X39851000Y-51492000D02*
X43110000Y-51492000D01*
X49346000Y-49092000D02*
X48146000Y-50292000D01*
X45974000Y-50292000D02*
X44774000Y-51492000D01*
X48146000Y-50292000D02*
X45974000Y-50292000D01*
X43862695Y-51492000D02*
X50031000Y-57660305D01*
X44774000Y-51492000D02*
X43110000Y-51492000D01*
%TO.N,A3*%
X53817396Y-32671000D02*
X56737000Y-32671000D01*
X56737000Y-32671000D02*
X57912000Y-31496000D01*
X39851000Y-44292000D02*
X42196396Y-44292000D01*
X42196396Y-44292000D02*
X53817396Y-32671000D01*
%TO.N,D13*%
X54831537Y-64516000D02*
X55372000Y-64516000D01*
X49581000Y-59265463D02*
X54831537Y-64516000D01*
X43273604Y-52292000D02*
X49581000Y-58599396D01*
X39851000Y-52292000D02*
X43273604Y-52292000D01*
X45562396Y-48292000D02*
X51081000Y-48292000D01*
X43685359Y-50169037D02*
X45562396Y-48292000D01*
X49581000Y-58599396D02*
X49581000Y-59265463D01*
X43685359Y-50767500D02*
X43685359Y-50169037D01*
%TO.N,A4*%
X42284000Y-45092000D02*
X53340000Y-34036000D01*
X39851000Y-45092000D02*
X42284000Y-45092000D01*
X53340000Y-34036000D02*
X55372000Y-34036000D01*
%TO.N,D14*%
X49276000Y-47752000D02*
X49536000Y-47492000D01*
X57912000Y-67056000D02*
X56642000Y-65786000D01*
X49536000Y-47492000D02*
X51081000Y-47492000D01*
X39857000Y-53086000D02*
X39851000Y-53092000D01*
X42672000Y-50546000D02*
X45466000Y-47752000D01*
X56642000Y-65786000D02*
X54864000Y-65786000D01*
X42164000Y-53086000D02*
X39857000Y-53086000D01*
X54864000Y-65786000D02*
X42164000Y-53086000D01*
X45466000Y-47752000D02*
X49276000Y-47752000D01*
%TO.N,A5*%
X42908067Y-57912000D02*
X42926000Y-57912000D01*
X44022000Y-59008000D02*
X44022000Y-61722000D01*
X39851000Y-55492000D02*
X40488067Y-55492000D01*
X40488067Y-55492000D02*
X42908067Y-57912000D01*
X51896000Y-69596000D02*
X55372000Y-69596000D01*
X42926000Y-57912000D02*
X44022000Y-59008000D01*
X44022000Y-61722000D02*
X51896000Y-69596000D01*
%TO.N,D15*%
X39851000Y-53892000D02*
X40684000Y-53892000D01*
X41358000Y-53892000D02*
X41402000Y-53848000D01*
X40684000Y-53892000D02*
X41358000Y-53892000D01*
X40684000Y-53892000D02*
X53848000Y-67056000D01*
X50443933Y-46692000D02*
X51081000Y-46692000D01*
X53848000Y-67056000D02*
X55372000Y-67056000D01*
X50399933Y-46736000D02*
X50443933Y-46692000D01*
X49022000Y-46736000D02*
X50399933Y-46736000D01*
%TD*%
%TA.AperFunction,Conductor*%
%TO.N,+3.3V*%
G36*
X59378651Y-29297213D02*
G01*
X59414333Y-29322237D01*
X59527595Y-29435499D01*
X59561621Y-29497811D01*
X59564500Y-29524594D01*
X59564500Y-43863233D01*
X59563973Y-43874416D01*
X59562298Y-43881909D01*
X59562547Y-43889835D01*
X59562547Y-43889836D01*
X59564438Y-43949986D01*
X59564500Y-43953945D01*
X59564500Y-43981856D01*
X59564997Y-43985790D01*
X59564997Y-43985791D01*
X59565005Y-43985856D01*
X59565938Y-43997693D01*
X59567327Y-44041889D01*
X59572978Y-44061339D01*
X59576987Y-44080700D01*
X59579526Y-44100797D01*
X59582445Y-44108168D01*
X59582445Y-44108170D01*
X59595804Y-44141912D01*
X59599649Y-44153142D01*
X59611982Y-44195593D01*
X59616015Y-44202412D01*
X59616017Y-44202417D01*
X59622293Y-44213028D01*
X59630988Y-44230776D01*
X59638448Y-44249617D01*
X59643110Y-44256033D01*
X59643110Y-44256034D01*
X59664436Y-44285387D01*
X59670952Y-44295307D01*
X59693458Y-44333362D01*
X59707779Y-44347683D01*
X59720619Y-44362716D01*
X59732528Y-44379107D01*
X59738634Y-44384158D01*
X59766605Y-44407298D01*
X59775384Y-44415288D01*
X62149778Y-46789682D01*
X62183804Y-46851994D01*
X62182100Y-46912448D01*
X62160989Y-46988570D01*
X62160441Y-46993700D01*
X62160440Y-46993704D01*
X62153250Y-47060989D01*
X62137251Y-47210695D01*
X62137548Y-47215848D01*
X62137548Y-47215851D01*
X62143011Y-47310590D01*
X62150110Y-47433715D01*
X62151247Y-47438761D01*
X62151248Y-47438767D01*
X62172275Y-47532069D01*
X62199222Y-47651639D01*
X62283266Y-47858616D01*
X62285965Y-47863020D01*
X62373077Y-48005174D01*
X62399987Y-48049088D01*
X62546250Y-48217938D01*
X62718126Y-48360632D01*
X62788595Y-48401811D01*
X62791445Y-48403476D01*
X62840169Y-48455114D01*
X62853240Y-48524897D01*
X62826509Y-48590669D01*
X62786055Y-48624027D01*
X62773607Y-48630507D01*
X62769474Y-48633610D01*
X62769471Y-48633612D01*
X62633905Y-48735398D01*
X62594965Y-48764635D01*
X62440629Y-48926138D01*
X62314743Y-49110680D01*
X62300857Y-49140595D01*
X62251071Y-49247851D01*
X62220688Y-49313305D01*
X62160989Y-49528570D01*
X62137251Y-49750695D01*
X62137548Y-49755848D01*
X62137548Y-49755851D01*
X62145785Y-49898706D01*
X62150110Y-49973715D01*
X62151247Y-49978761D01*
X62151248Y-49978767D01*
X62174308Y-50081088D01*
X62199222Y-50191639D01*
X62283266Y-50398616D01*
X62285965Y-50403020D01*
X62394314Y-50579830D01*
X62399987Y-50589088D01*
X62546250Y-50757938D01*
X62718126Y-50900632D01*
X62760683Y-50925500D01*
X62791445Y-50943476D01*
X62840169Y-50995114D01*
X62853240Y-51064897D01*
X62826509Y-51130669D01*
X62786055Y-51164027D01*
X62773607Y-51170507D01*
X62769474Y-51173610D01*
X62769471Y-51173612D01*
X62599100Y-51301530D01*
X62594965Y-51304635D01*
X62440629Y-51466138D01*
X62314743Y-51650680D01*
X62287014Y-51710417D01*
X62251071Y-51787851D01*
X62220688Y-51853305D01*
X62160989Y-52068570D01*
X62137251Y-52290695D01*
X62137548Y-52295848D01*
X62137548Y-52295851D01*
X62146322Y-52448017D01*
X62150110Y-52513715D01*
X62151247Y-52518761D01*
X62151248Y-52518767D01*
X62174308Y-52621088D01*
X62199222Y-52731639D01*
X62283266Y-52938616D01*
X62310710Y-52983401D01*
X62380156Y-53096726D01*
X62399987Y-53129088D01*
X62546250Y-53297938D01*
X62718126Y-53440632D01*
X62752963Y-53460989D01*
X62791445Y-53483476D01*
X62840169Y-53535114D01*
X62853240Y-53604897D01*
X62826509Y-53670669D01*
X62786055Y-53704027D01*
X62773607Y-53710507D01*
X62769474Y-53713610D01*
X62769471Y-53713612D01*
X62599100Y-53841530D01*
X62594965Y-53844635D01*
X62440629Y-54006138D01*
X62314743Y-54190680D01*
X62220688Y-54393305D01*
X62160989Y-54608570D01*
X62137251Y-54830695D01*
X62137548Y-54835848D01*
X62137548Y-54835851D01*
X62138529Y-54852857D01*
X62150110Y-55053715D01*
X62151247Y-55058761D01*
X62151248Y-55058767D01*
X62158738Y-55092000D01*
X62199222Y-55271639D01*
X62283266Y-55478616D01*
X62285965Y-55483020D01*
X62373077Y-55625174D01*
X62399987Y-55669088D01*
X62546250Y-55837938D01*
X62718126Y-55980632D01*
X62911000Y-56093338D01*
X63119692Y-56173030D01*
X63124760Y-56174061D01*
X63124763Y-56174062D01*
X63232017Y-56195883D01*
X63338597Y-56217567D01*
X63343772Y-56217757D01*
X63343774Y-56217757D01*
X63556673Y-56225564D01*
X63556677Y-56225564D01*
X63561837Y-56225753D01*
X63566957Y-56225097D01*
X63566959Y-56225097D01*
X63778288Y-56198025D01*
X63778289Y-56198025D01*
X63783416Y-56197368D01*
X63788366Y-56195883D01*
X63992429Y-56134661D01*
X63992434Y-56134659D01*
X63997384Y-56133174D01*
X64197994Y-56034896D01*
X64379860Y-55905173D01*
X64386004Y-55899051D01*
X64461209Y-55824107D01*
X64538096Y-55747489D01*
X64545061Y-55737797D01*
X64665435Y-55570277D01*
X64668453Y-55566077D01*
X64675650Y-55551516D01*
X64765136Y-55370453D01*
X64765137Y-55370451D01*
X64767430Y-55365811D01*
X64776943Y-55334502D01*
X64815882Y-55275140D01*
X64880736Y-55246252D01*
X64950913Y-55257013D01*
X65004131Y-55304006D01*
X65023500Y-55371132D01*
X65023500Y-77851500D01*
X65003498Y-77919621D01*
X64949842Y-77966114D01*
X64897500Y-77977500D01*
X38480500Y-77977500D01*
X38412379Y-77957498D01*
X38365886Y-77903842D01*
X38354500Y-77851500D01*
X38354500Y-52115500D01*
X38374502Y-52047379D01*
X38428158Y-52000886D01*
X38480500Y-51989500D01*
X38491500Y-51989500D01*
X38559621Y-52009502D01*
X38606114Y-52063158D01*
X38617500Y-52115500D01*
X38617500Y-52571000D01*
X38628295Y-52660205D01*
X38629562Y-52663405D01*
X38629562Y-52720595D01*
X38628295Y-52723795D01*
X38617500Y-52813000D01*
X38617500Y-53371000D01*
X38628295Y-53460205D01*
X38629562Y-53463405D01*
X38629562Y-53520595D01*
X38628295Y-53523795D01*
X38617500Y-53613000D01*
X38617500Y-54171000D01*
X38628295Y-54260205D01*
X38629562Y-54263405D01*
X38629562Y-54320595D01*
X38628295Y-54323795D01*
X38617500Y-54413000D01*
X38617500Y-54971000D01*
X38628295Y-55060205D01*
X38629562Y-55063405D01*
X38629562Y-55120595D01*
X38628295Y-55123795D01*
X38617500Y-55213000D01*
X38617500Y-55771000D01*
X38628295Y-55860205D01*
X38629562Y-55863405D01*
X38629562Y-55920595D01*
X38628295Y-55923795D01*
X38617500Y-56013000D01*
X38617500Y-56571000D01*
X38628295Y-56660205D01*
X38629562Y-56663405D01*
X38629562Y-56720595D01*
X38628295Y-56723795D01*
X38617500Y-56813000D01*
X38617500Y-57371000D01*
X38628295Y-57460205D01*
X38629562Y-57463405D01*
X38629562Y-57520595D01*
X38628295Y-57523795D01*
X38617500Y-57613000D01*
X38617500Y-58171000D01*
X38628295Y-58260205D01*
X38629562Y-58263405D01*
X38629562Y-58320595D01*
X38628295Y-58323795D01*
X38617500Y-58413000D01*
X38617500Y-58971000D01*
X38628295Y-59060205D01*
X38683465Y-59199549D01*
X38774076Y-59318924D01*
X38893451Y-59409535D01*
X39032795Y-59464705D01*
X39040833Y-59465678D01*
X39040834Y-59465678D01*
X39106637Y-59473641D01*
X39171862Y-59501682D01*
X39211572Y-59560534D01*
X39217500Y-59598728D01*
X39217500Y-65426233D01*
X39216973Y-65437416D01*
X39215298Y-65444909D01*
X39215547Y-65452835D01*
X39215547Y-65452836D01*
X39217438Y-65512986D01*
X39217500Y-65516945D01*
X39217500Y-65544856D01*
X39217997Y-65548790D01*
X39217997Y-65548791D01*
X39218005Y-65548856D01*
X39218938Y-65560693D01*
X39220327Y-65604889D01*
X39225978Y-65624339D01*
X39229987Y-65643700D01*
X39232526Y-65663797D01*
X39235445Y-65671168D01*
X39235445Y-65671170D01*
X39248804Y-65704912D01*
X39252649Y-65716142D01*
X39264982Y-65758593D01*
X39269015Y-65765412D01*
X39269017Y-65765417D01*
X39275293Y-65776028D01*
X39283988Y-65793776D01*
X39291448Y-65812617D01*
X39296110Y-65819033D01*
X39296110Y-65819034D01*
X39317436Y-65848387D01*
X39323952Y-65858307D01*
X39346458Y-65896362D01*
X39360779Y-65910683D01*
X39373619Y-65925716D01*
X39385528Y-65942107D01*
X39391634Y-65947158D01*
X39419605Y-65970298D01*
X39428384Y-65978288D01*
X48518343Y-75068247D01*
X48525887Y-75076537D01*
X48530000Y-75083018D01*
X48535777Y-75088443D01*
X48579667Y-75129658D01*
X48582509Y-75132413D01*
X48602231Y-75152135D01*
X48605355Y-75154558D01*
X48605359Y-75154562D01*
X48605424Y-75154612D01*
X48614445Y-75162317D01*
X48646679Y-75192586D01*
X48653627Y-75196405D01*
X48653629Y-75196407D01*
X48664432Y-75202346D01*
X48680959Y-75213202D01*
X48690698Y-75220757D01*
X48690700Y-75220758D01*
X48696960Y-75225614D01*
X48737540Y-75243174D01*
X48748188Y-75248391D01*
X48786940Y-75269695D01*
X48794616Y-75271666D01*
X48794619Y-75271667D01*
X48806562Y-75274733D01*
X48825267Y-75281137D01*
X48843855Y-75289181D01*
X48851678Y-75290420D01*
X48851688Y-75290423D01*
X48887524Y-75296099D01*
X48899144Y-75298505D01*
X48934289Y-75307528D01*
X48941970Y-75309500D01*
X48962224Y-75309500D01*
X48981934Y-75311051D01*
X49001943Y-75314220D01*
X49009835Y-75313474D01*
X49045961Y-75310059D01*
X49057819Y-75309500D01*
X54096274Y-75309500D01*
X54164395Y-75329502D01*
X54203707Y-75369665D01*
X54271987Y-75481088D01*
X54418250Y-75649938D01*
X54590126Y-75792632D01*
X54783000Y-75905338D01*
X54991692Y-75985030D01*
X54996760Y-75986061D01*
X54996763Y-75986062D01*
X55104017Y-76007883D01*
X55210597Y-76029567D01*
X55215772Y-76029757D01*
X55215774Y-76029757D01*
X55428673Y-76037564D01*
X55428677Y-76037564D01*
X55433837Y-76037753D01*
X55438957Y-76037097D01*
X55438959Y-76037097D01*
X55650288Y-76010025D01*
X55650289Y-76010025D01*
X55655416Y-76009368D01*
X55660366Y-76007883D01*
X55864429Y-75946661D01*
X55864434Y-75946659D01*
X55869384Y-75945174D01*
X56069994Y-75846896D01*
X56251860Y-75717173D01*
X56410096Y-75559489D01*
X56540453Y-75378077D01*
X56541776Y-75379028D01*
X56588645Y-75335857D01*
X56658580Y-75323625D01*
X56724026Y-75351144D01*
X56751875Y-75382994D01*
X56811987Y-75481088D01*
X56958250Y-75649938D01*
X57130126Y-75792632D01*
X57323000Y-75905338D01*
X57531692Y-75985030D01*
X57536760Y-75986061D01*
X57536763Y-75986062D01*
X57644017Y-76007883D01*
X57750597Y-76029567D01*
X57755772Y-76029757D01*
X57755774Y-76029757D01*
X57968673Y-76037564D01*
X57968677Y-76037564D01*
X57973837Y-76037753D01*
X57978957Y-76037097D01*
X57978959Y-76037097D01*
X58190288Y-76010025D01*
X58190289Y-76010025D01*
X58195416Y-76009368D01*
X58200366Y-76007883D01*
X58404429Y-75946661D01*
X58404434Y-75946659D01*
X58409384Y-75945174D01*
X58609994Y-75846896D01*
X58791860Y-75717173D01*
X58950096Y-75559489D01*
X59080453Y-75378077D01*
X59084611Y-75369665D01*
X59177136Y-75182453D01*
X59177137Y-75182451D01*
X59179430Y-75177811D01*
X59244370Y-74964069D01*
X59273529Y-74742590D01*
X59275156Y-74676000D01*
X59256852Y-74453361D01*
X59202431Y-74236702D01*
X59113354Y-74031840D01*
X59052078Y-73937121D01*
X58994822Y-73848617D01*
X58994820Y-73848614D01*
X58992014Y-73844277D01*
X58841670Y-73679051D01*
X58837619Y-73675852D01*
X58837615Y-73675848D01*
X58670414Y-73543800D01*
X58670410Y-73543798D01*
X58666359Y-73540598D01*
X58625053Y-73517796D01*
X58575084Y-73467364D01*
X58560312Y-73397921D01*
X58585428Y-73331516D01*
X58612780Y-73304909D01*
X58656603Y-73273650D01*
X58791860Y-73177173D01*
X58950096Y-73019489D01*
X59080453Y-72838077D01*
X59113302Y-72771613D01*
X59177136Y-72642453D01*
X59177137Y-72642451D01*
X59179430Y-72637811D01*
X59244370Y-72424069D01*
X59273529Y-72202590D01*
X59275156Y-72136000D01*
X59256852Y-71913361D01*
X59202431Y-71696702D01*
X59113354Y-71491840D01*
X59052078Y-71397122D01*
X58994822Y-71308617D01*
X58994820Y-71308614D01*
X58992014Y-71304277D01*
X58841670Y-71139051D01*
X58837619Y-71135852D01*
X58837615Y-71135848D01*
X58670414Y-71003800D01*
X58670410Y-71003798D01*
X58666359Y-71000598D01*
X58625053Y-70977796D01*
X58575084Y-70927364D01*
X58560312Y-70857921D01*
X58585428Y-70791516D01*
X58612780Y-70764909D01*
X58656603Y-70733650D01*
X58791860Y-70637173D01*
X58950096Y-70479489D01*
X59080453Y-70298077D01*
X59179430Y-70097811D01*
X59244370Y-69884069D01*
X59273529Y-69662590D01*
X59275156Y-69596000D01*
X59256852Y-69373361D01*
X59202431Y-69156702D01*
X59113354Y-68951840D01*
X59052078Y-68857121D01*
X58994822Y-68768617D01*
X58994820Y-68768614D01*
X58992014Y-68764277D01*
X58841670Y-68599051D01*
X58837619Y-68595852D01*
X58837615Y-68595848D01*
X58670414Y-68463800D01*
X58670410Y-68463798D01*
X58666359Y-68460598D01*
X58625053Y-68437796D01*
X58575084Y-68387364D01*
X58560312Y-68317921D01*
X58585428Y-68251516D01*
X58612780Y-68224909D01*
X58656603Y-68193650D01*
X58791860Y-68097173D01*
X58950096Y-67939489D01*
X59080453Y-67758077D01*
X59179430Y-67557811D01*
X59244370Y-67344069D01*
X59273529Y-67122590D01*
X59275156Y-67056000D01*
X59256852Y-66833361D01*
X59202431Y-66616702D01*
X59113354Y-66411840D01*
X59036857Y-66293593D01*
X58994822Y-66228617D01*
X58994820Y-66228614D01*
X58992014Y-66224277D01*
X58841670Y-66059051D01*
X58837619Y-66055852D01*
X58837615Y-66055848D01*
X58670414Y-65923800D01*
X58670410Y-65923798D01*
X58666359Y-65920598D01*
X58625053Y-65897796D01*
X58575084Y-65847364D01*
X58560312Y-65777921D01*
X58585428Y-65711516D01*
X58612780Y-65684909D01*
X58736066Y-65596970D01*
X58791860Y-65557173D01*
X58800272Y-65548791D01*
X58946435Y-65403137D01*
X58950096Y-65399489D01*
X59080453Y-65218077D01*
X59094130Y-65190405D01*
X59177136Y-65022453D01*
X59177137Y-65022451D01*
X59179430Y-65017811D01*
X59244370Y-64804069D01*
X59273529Y-64582590D01*
X59275156Y-64516000D01*
X59256852Y-64293361D01*
X59202431Y-64076702D01*
X59113354Y-63871840D01*
X58992014Y-63684277D01*
X58841670Y-63519051D01*
X58837619Y-63515852D01*
X58837615Y-63515848D01*
X58670414Y-63383800D01*
X58670410Y-63383798D01*
X58666359Y-63380598D01*
X58625053Y-63357796D01*
X58575084Y-63307364D01*
X58560312Y-63237921D01*
X58585428Y-63171516D01*
X58612780Y-63144909D01*
X58656603Y-63113650D01*
X58791860Y-63017173D01*
X58950096Y-62859489D01*
X59080453Y-62678077D01*
X59179430Y-62477811D01*
X59244370Y-62264069D01*
X59273529Y-62042590D01*
X59275156Y-61976000D01*
X59256852Y-61753361D01*
X59202431Y-61536702D01*
X59113354Y-61331840D01*
X58992014Y-61144277D01*
X58841670Y-60979051D01*
X58837619Y-60975852D01*
X58837615Y-60975848D01*
X58670414Y-60843800D01*
X58670410Y-60843798D01*
X58666359Y-60840598D01*
X58625053Y-60817796D01*
X58575084Y-60767364D01*
X58560312Y-60697921D01*
X58585428Y-60631516D01*
X58612780Y-60604909D01*
X58656603Y-60573650D01*
X58791860Y-60477173D01*
X58950096Y-60319489D01*
X59080453Y-60138077D01*
X59084611Y-60129665D01*
X59177136Y-59942453D01*
X59177137Y-59942451D01*
X59179430Y-59937811D01*
X59234221Y-59757473D01*
X59242865Y-59729023D01*
X59242865Y-59729021D01*
X59244370Y-59724069D01*
X59273529Y-59502590D01*
X59273611Y-59499240D01*
X59275074Y-59439365D01*
X59275074Y-59439361D01*
X59275156Y-59436000D01*
X59256852Y-59213361D01*
X59202431Y-58996702D01*
X59113354Y-58791840D01*
X59052078Y-58697122D01*
X58994822Y-58608617D01*
X58994820Y-58608614D01*
X58992014Y-58604277D01*
X58841670Y-58439051D01*
X58837619Y-58435852D01*
X58837615Y-58435848D01*
X58670414Y-58303800D01*
X58670410Y-58303798D01*
X58666359Y-58300598D01*
X58625053Y-58277796D01*
X58575084Y-58227364D01*
X58560312Y-58157921D01*
X58585428Y-58091516D01*
X58612780Y-58064909D01*
X58656603Y-58033650D01*
X58791860Y-57937173D01*
X58950096Y-57779489D01*
X59080453Y-57598077D01*
X59179430Y-57397811D01*
X59244370Y-57184069D01*
X59273529Y-56962590D01*
X59275156Y-56896000D01*
X59256852Y-56673361D01*
X59202431Y-56456702D01*
X59113354Y-56251840D01*
X59061176Y-56171185D01*
X58994822Y-56068617D01*
X58994820Y-56068614D01*
X58992014Y-56064277D01*
X58841670Y-55899051D01*
X58837619Y-55895852D01*
X58837615Y-55895848D01*
X58670414Y-55763800D01*
X58670410Y-55763798D01*
X58666359Y-55760598D01*
X58625053Y-55737796D01*
X58575084Y-55687364D01*
X58560312Y-55617921D01*
X58585428Y-55551516D01*
X58612780Y-55524909D01*
X58677680Y-55478616D01*
X58791860Y-55397173D01*
X58950096Y-55239489D01*
X59033794Y-55123011D01*
X59077435Y-55062277D01*
X59080453Y-55058077D01*
X59125362Y-54967211D01*
X59177136Y-54862453D01*
X59177137Y-54862451D01*
X59179430Y-54857811D01*
X59244370Y-54644069D01*
X59273529Y-54422590D01*
X59275156Y-54356000D01*
X59256852Y-54133361D01*
X59202431Y-53916702D01*
X59113354Y-53711840D01*
X59045761Y-53607357D01*
X58994822Y-53528617D01*
X58994820Y-53528614D01*
X58992014Y-53524277D01*
X58841670Y-53359051D01*
X58837619Y-53355852D01*
X58837615Y-53355848D01*
X58670414Y-53223800D01*
X58670410Y-53223798D01*
X58666359Y-53220598D01*
X58625053Y-53197796D01*
X58575084Y-53147364D01*
X58560312Y-53077921D01*
X58585428Y-53011516D01*
X58612780Y-52984909D01*
X58677680Y-52938616D01*
X58791860Y-52857173D01*
X58950096Y-52699489D01*
X58955478Y-52692000D01*
X59077435Y-52522277D01*
X59080453Y-52518077D01*
X59101320Y-52475857D01*
X59177136Y-52322453D01*
X59177137Y-52322451D01*
X59179430Y-52317811D01*
X59244370Y-52104069D01*
X59273529Y-51882590D01*
X59275156Y-51816000D01*
X59256852Y-51593361D01*
X59202431Y-51376702D01*
X59113354Y-51171840D01*
X59045761Y-51067357D01*
X58994822Y-50988617D01*
X58994820Y-50988614D01*
X58992014Y-50984277D01*
X58841670Y-50819051D01*
X58837619Y-50815852D01*
X58837615Y-50815848D01*
X58670414Y-50683800D01*
X58670410Y-50683798D01*
X58666359Y-50680598D01*
X58625053Y-50657796D01*
X58575084Y-50607364D01*
X58560312Y-50537921D01*
X58585428Y-50471516D01*
X58612780Y-50444909D01*
X58681426Y-50395944D01*
X58791860Y-50317173D01*
X58950096Y-50159489D01*
X59009594Y-50076689D01*
X59077435Y-49982277D01*
X59080453Y-49978077D01*
X59101320Y-49935857D01*
X59177136Y-49782453D01*
X59177137Y-49782451D01*
X59179430Y-49777811D01*
X59215243Y-49659938D01*
X59242865Y-49569023D01*
X59242865Y-49569021D01*
X59244370Y-49564069D01*
X59273529Y-49342590D01*
X59275156Y-49276000D01*
X59256852Y-49053361D01*
X59202431Y-48836702D01*
X59113354Y-48631840D01*
X59045761Y-48527357D01*
X58994822Y-48448617D01*
X58994820Y-48448614D01*
X58992014Y-48444277D01*
X58841670Y-48279051D01*
X58837619Y-48275852D01*
X58837615Y-48275848D01*
X58670414Y-48143800D01*
X58670410Y-48143798D01*
X58666359Y-48140598D01*
X58625053Y-48117796D01*
X58575084Y-48067364D01*
X58560312Y-47997921D01*
X58585428Y-47931516D01*
X58612780Y-47904909D01*
X58671506Y-47863020D01*
X58791860Y-47777173D01*
X58950096Y-47619489D01*
X59080453Y-47438077D01*
X59114978Y-47368222D01*
X59177136Y-47242453D01*
X59177137Y-47242451D01*
X59179430Y-47237811D01*
X59244370Y-47024069D01*
X59273529Y-46802590D01*
X59273611Y-46799240D01*
X59275074Y-46739365D01*
X59275074Y-46739361D01*
X59275156Y-46736000D01*
X59256852Y-46513361D01*
X59202431Y-46296702D01*
X59113354Y-46091840D01*
X59020940Y-45948989D01*
X58994822Y-45908617D01*
X58994820Y-45908614D01*
X58992014Y-45904277D01*
X58841670Y-45739051D01*
X58837619Y-45735852D01*
X58837615Y-45735848D01*
X58670414Y-45603800D01*
X58670410Y-45603798D01*
X58666359Y-45600598D01*
X58625053Y-45577796D01*
X58575084Y-45527364D01*
X58560312Y-45457921D01*
X58585428Y-45391516D01*
X58612780Y-45364909D01*
X58656603Y-45333650D01*
X58791860Y-45237173D01*
X58950096Y-45079489D01*
X59080453Y-44898077D01*
X59122501Y-44813000D01*
X59177136Y-44702453D01*
X59177137Y-44702451D01*
X59179430Y-44697811D01*
X59244370Y-44484069D01*
X59273529Y-44262590D01*
X59274306Y-44230787D01*
X59275074Y-44199365D01*
X59275074Y-44199361D01*
X59275156Y-44196000D01*
X59256852Y-43973361D01*
X59202431Y-43756702D01*
X59113354Y-43551840D01*
X59070345Y-43485358D01*
X58994822Y-43368617D01*
X58994820Y-43368614D01*
X58992014Y-43364277D01*
X58841670Y-43199051D01*
X58837619Y-43195852D01*
X58837615Y-43195848D01*
X58670414Y-43063800D01*
X58670410Y-43063798D01*
X58666359Y-43060598D01*
X58625053Y-43037796D01*
X58575084Y-42987364D01*
X58560312Y-42917921D01*
X58585428Y-42851516D01*
X58612780Y-42824909D01*
X58656603Y-42793650D01*
X58791860Y-42697173D01*
X58824961Y-42664188D01*
X58946435Y-42543137D01*
X58950096Y-42539489D01*
X59080453Y-42358077D01*
X59093426Y-42331829D01*
X59177136Y-42162453D01*
X59177137Y-42162451D01*
X59179430Y-42157811D01*
X59244370Y-41944069D01*
X59273529Y-41722590D01*
X59275156Y-41656000D01*
X59256852Y-41433361D01*
X59202431Y-41216702D01*
X59113354Y-41011840D01*
X58992014Y-40824277D01*
X58841670Y-40659051D01*
X58837619Y-40655852D01*
X58837615Y-40655848D01*
X58670414Y-40523800D01*
X58670410Y-40523798D01*
X58666359Y-40520598D01*
X58625053Y-40497796D01*
X58575084Y-40447364D01*
X58560312Y-40377921D01*
X58585428Y-40311516D01*
X58612780Y-40284909D01*
X58656603Y-40253650D01*
X58791860Y-40157173D01*
X58950096Y-39999489D01*
X59080453Y-39818077D01*
X59179430Y-39617811D01*
X59244370Y-39404069D01*
X59273529Y-39182590D01*
X59275156Y-39116000D01*
X59256852Y-38893361D01*
X59202431Y-38676702D01*
X59113354Y-38471840D01*
X58992014Y-38284277D01*
X58841670Y-38119051D01*
X58837619Y-38115852D01*
X58837615Y-38115848D01*
X58670414Y-37983800D01*
X58670410Y-37983798D01*
X58666359Y-37980598D01*
X58625053Y-37957796D01*
X58575084Y-37907364D01*
X58560312Y-37837921D01*
X58585428Y-37771516D01*
X58612780Y-37744909D01*
X58656603Y-37713650D01*
X58791860Y-37617173D01*
X58950096Y-37459489D01*
X59080453Y-37278077D01*
X59179430Y-37077811D01*
X59244370Y-36864069D01*
X59273529Y-36642590D01*
X59275156Y-36576000D01*
X59256852Y-36353361D01*
X59202431Y-36136702D01*
X59113354Y-35931840D01*
X58992014Y-35744277D01*
X58841670Y-35579051D01*
X58837619Y-35575852D01*
X58837615Y-35575848D01*
X58670414Y-35443800D01*
X58670410Y-35443798D01*
X58666359Y-35440598D01*
X58625053Y-35417796D01*
X58575084Y-35367364D01*
X58560312Y-35297921D01*
X58585428Y-35231516D01*
X58612780Y-35204909D01*
X58656603Y-35173650D01*
X58791860Y-35077173D01*
X58950096Y-34919489D01*
X59080453Y-34738077D01*
X59179430Y-34537811D01*
X59244370Y-34324069D01*
X59273529Y-34102590D01*
X59275156Y-34036000D01*
X59256852Y-33813361D01*
X59202431Y-33596702D01*
X59113354Y-33391840D01*
X58992014Y-33204277D01*
X58841670Y-33039051D01*
X58837619Y-33035852D01*
X58837615Y-33035848D01*
X58670414Y-32903800D01*
X58670410Y-32903798D01*
X58666359Y-32900598D01*
X58625053Y-32877796D01*
X58575084Y-32827364D01*
X58560312Y-32757921D01*
X58585428Y-32691516D01*
X58612780Y-32664909D01*
X58656603Y-32633650D01*
X58791860Y-32537173D01*
X58950096Y-32379489D01*
X59080453Y-32198077D01*
X59179430Y-31997811D01*
X59244370Y-31784069D01*
X59273529Y-31562590D01*
X59275156Y-31496000D01*
X59256852Y-31273361D01*
X59202431Y-31056702D01*
X59113354Y-30851840D01*
X58992014Y-30664277D01*
X58841670Y-30499051D01*
X58837619Y-30495852D01*
X58837615Y-30495848D01*
X58670414Y-30363800D01*
X58670410Y-30363798D01*
X58666359Y-30360598D01*
X58625053Y-30337796D01*
X58575084Y-30287364D01*
X58560312Y-30217921D01*
X58585428Y-30151516D01*
X58612780Y-30124909D01*
X58656603Y-30093650D01*
X58791860Y-29997173D01*
X58950096Y-29839489D01*
X59009594Y-29756689D01*
X59077435Y-29662277D01*
X59080453Y-29658077D01*
X59179430Y-29457811D01*
X59204681Y-29374701D01*
X59243620Y-29315339D01*
X59308474Y-29286452D01*
X59378651Y-29297213D01*
G37*
%TD.AperFunction*%
%TA.AperFunction,Conductor*%
G36*
X56724026Y-60111144D02*
G01*
X56751875Y-60142994D01*
X56811987Y-60241088D01*
X56958250Y-60409938D01*
X57130126Y-60552632D01*
X57200595Y-60593811D01*
X57203445Y-60595476D01*
X57252169Y-60647114D01*
X57265240Y-60716897D01*
X57238509Y-60782669D01*
X57198055Y-60816027D01*
X57185607Y-60822507D01*
X57181474Y-60825610D01*
X57181471Y-60825612D01*
X57157247Y-60843800D01*
X57006965Y-60956635D01*
X56852629Y-61118138D01*
X56849715Y-61122410D01*
X56849714Y-61122411D01*
X56744898Y-61276066D01*
X56689987Y-61321069D01*
X56619462Y-61329240D01*
X56555715Y-61297986D01*
X56535018Y-61273502D01*
X56454426Y-61148926D01*
X56448136Y-61140757D01*
X56304806Y-60983240D01*
X56297273Y-60976215D01*
X56130139Y-60844222D01*
X56121556Y-60838520D01*
X56084602Y-60818120D01*
X56034631Y-60767687D01*
X56019859Y-60698245D01*
X56044975Y-60631839D01*
X56072327Y-60605232D01*
X56095797Y-60588491D01*
X56251860Y-60477173D01*
X56410096Y-60319489D01*
X56540453Y-60138077D01*
X56541776Y-60139028D01*
X56588645Y-60095857D01*
X56658580Y-60083625D01*
X56724026Y-60111144D01*
G37*
%TD.AperFunction*%
%TA.AperFunction,Conductor*%
G36*
X52523012Y-47323370D02*
G01*
X52529595Y-47329499D01*
X54021778Y-48821682D01*
X54055804Y-48883994D01*
X54054100Y-48944448D01*
X54032989Y-49020570D01*
X54032441Y-49025700D01*
X54032440Y-49025704D01*
X54028933Y-49058522D01*
X54009251Y-49242695D01*
X54009548Y-49247848D01*
X54009548Y-49247851D01*
X54018011Y-49394621D01*
X54022110Y-49465715D01*
X54023247Y-49470761D01*
X54023248Y-49470767D01*
X54035152Y-49523588D01*
X54071222Y-49683639D01*
X54109461Y-49777811D01*
X54138269Y-49848756D01*
X54155266Y-49890616D01*
X54203022Y-49968547D01*
X54269291Y-50076688D01*
X54271987Y-50081088D01*
X54418250Y-50249938D01*
X54590126Y-50392632D01*
X54607903Y-50403020D01*
X54663445Y-50435476D01*
X54712169Y-50487114D01*
X54725240Y-50556897D01*
X54698509Y-50622669D01*
X54658055Y-50656027D01*
X54645607Y-50662507D01*
X54641474Y-50665610D01*
X54641471Y-50665612D01*
X54495504Y-50775207D01*
X54466965Y-50796635D01*
X54312629Y-50958138D01*
X54309720Y-50962403D01*
X54309714Y-50962411D01*
X54239803Y-51064897D01*
X54186743Y-51142680D01*
X54161132Y-51197855D01*
X54096382Y-51337348D01*
X54092688Y-51345305D01*
X54032989Y-51560570D01*
X54009251Y-51782695D01*
X54009548Y-51787848D01*
X54009548Y-51787851D01*
X54017850Y-51931829D01*
X54022110Y-52005715D01*
X54023247Y-52010761D01*
X54023248Y-52010767D01*
X54035118Y-52063435D01*
X54071222Y-52223639D01*
X54109461Y-52317811D01*
X54147780Y-52412179D01*
X54155266Y-52430616D01*
X54206019Y-52513438D01*
X54269291Y-52616688D01*
X54271987Y-52621088D01*
X54418250Y-52789938D01*
X54590126Y-52932632D01*
X54607903Y-52943020D01*
X54663445Y-52975476D01*
X54712169Y-53027114D01*
X54725240Y-53096897D01*
X54698509Y-53162669D01*
X54658055Y-53196027D01*
X54645607Y-53202507D01*
X54641474Y-53205610D01*
X54641471Y-53205612D01*
X54471100Y-53333530D01*
X54466965Y-53336635D01*
X54434125Y-53371000D01*
X54318495Y-53492000D01*
X54312629Y-53498138D01*
X54309720Y-53502403D01*
X54309714Y-53502411D01*
X54197160Y-53667409D01*
X54142249Y-53712412D01*
X54097038Y-53722343D01*
X54094008Y-53722438D01*
X54090055Y-53722500D01*
X54062144Y-53722500D01*
X54058210Y-53722997D01*
X54058209Y-53722997D01*
X54058144Y-53723005D01*
X54046307Y-53723938D01*
X54014049Y-53724952D01*
X54010030Y-53725078D01*
X54002111Y-53725327D01*
X53982657Y-53730979D01*
X53963300Y-53734987D01*
X53951070Y-53736532D01*
X53951069Y-53736532D01*
X53943203Y-53737526D01*
X53935833Y-53740444D01*
X53927567Y-53743717D01*
X53856867Y-53750199D01*
X53793886Y-53717429D01*
X53761346Y-53665504D01*
X53745518Y-53616789D01*
X53713735Y-53518973D01*
X53618248Y-53353585D01*
X53600191Y-53333530D01*
X53494883Y-53216574D01*
X53494882Y-53216573D01*
X53490461Y-53211663D01*
X53370752Y-53124689D01*
X53341302Y-53103292D01*
X53341301Y-53103291D01*
X53335960Y-53099411D01*
X53329932Y-53096727D01*
X53329930Y-53096726D01*
X53167527Y-53024420D01*
X53167526Y-53024420D01*
X53161496Y-53021735D01*
X53068095Y-53001882D01*
X52981152Y-52983401D01*
X52981147Y-52983401D01*
X52974695Y-52982029D01*
X52783721Y-52982029D01*
X52777269Y-52983401D01*
X52777264Y-52983401D01*
X52690321Y-53001882D01*
X52596920Y-53021735D01*
X52590890Y-53024420D01*
X52590889Y-53024420D01*
X52491749Y-53068560D01*
X52421382Y-53077994D01*
X52357085Y-53047888D01*
X52319271Y-52987799D01*
X52314500Y-52953453D01*
X52314500Y-52813000D01*
X52303705Y-52723795D01*
X52302438Y-52720595D01*
X52302438Y-52663405D01*
X52303705Y-52660205D01*
X52314500Y-52571000D01*
X52314500Y-52013000D01*
X52303705Y-51923795D01*
X52302438Y-51920595D01*
X52302438Y-51863405D01*
X52303705Y-51860205D01*
X52314500Y-51771000D01*
X52314500Y-51764241D01*
X52318735Y-51731847D01*
X52324000Y-51712057D01*
X52324000Y-51710417D01*
X52832000Y-51710417D01*
X52836271Y-51724962D01*
X52848302Y-51727007D01*
X52861088Y-51724446D01*
X53000589Y-51680730D01*
X53014334Y-51674524D01*
X53138604Y-51599263D01*
X53150473Y-51589956D01*
X53253197Y-51487232D01*
X53262504Y-51475363D01*
X53337765Y-51351093D01*
X53343971Y-51337348D01*
X53387685Y-51197855D01*
X53390298Y-51184805D01*
X53395537Y-51127797D01*
X53391525Y-51114135D01*
X53390135Y-51112930D01*
X53382452Y-51111259D01*
X52850115Y-51111259D01*
X52834876Y-51115734D01*
X52833671Y-51117124D01*
X52832000Y-51124807D01*
X52832000Y-51710417D01*
X52324000Y-51710417D01*
X52324000Y-51129374D01*
X52319526Y-51114136D01*
X52312916Y-51108409D01*
X52278275Y-51059566D01*
X52251696Y-50992435D01*
X52248535Y-50984451D01*
X52157924Y-50865076D01*
X52151089Y-50859888D01*
X52151084Y-50859883D01*
X52062129Y-50792362D01*
X52019962Y-50735244D01*
X52015370Y-50664396D01*
X52049810Y-50602312D01*
X52062128Y-50591639D01*
X52079905Y-50578145D01*
X52146258Y-50552890D01*
X52193765Y-50558272D01*
X52301199Y-50591940D01*
X52313644Y-50593084D01*
X52318283Y-50593510D01*
X52333532Y-50595860D01*
X52367547Y-50603259D01*
X53377885Y-50603259D01*
X53393124Y-50598784D01*
X53394329Y-50597394D01*
X53395813Y-50590573D01*
X53395734Y-50588871D01*
X53390298Y-50529713D01*
X53387685Y-50516663D01*
X53343971Y-50377170D01*
X53337766Y-50363428D01*
X53332974Y-50355516D01*
X53314793Y-50286887D01*
X53332973Y-50224969D01*
X53338221Y-50216303D01*
X53342157Y-50209804D01*
X53346753Y-50195140D01*
X53374531Y-50106500D01*
X53390181Y-50056560D01*
X53396500Y-49987791D01*
X53396500Y-49456727D01*
X53390181Y-49387958D01*
X53342157Y-49234714D01*
X53258966Y-49097349D01*
X53145410Y-48983793D01*
X53008045Y-48900602D01*
X53000798Y-48898331D01*
X53000796Y-48898330D01*
X52922013Y-48873641D01*
X52854801Y-48852578D01*
X52786032Y-48846259D01*
X52430196Y-48846259D01*
X52362075Y-48826257D01*
X52315582Y-48772601D01*
X52305109Y-48735398D01*
X52304677Y-48731828D01*
X52303705Y-48723795D01*
X52302438Y-48720595D01*
X52302438Y-48663405D01*
X52303705Y-48660205D01*
X52314500Y-48571000D01*
X52314500Y-48013000D01*
X52303705Y-47923795D01*
X52302438Y-47920595D01*
X52302438Y-47863405D01*
X52303705Y-47860205D01*
X52314500Y-47771000D01*
X52314500Y-47418594D01*
X52334502Y-47350473D01*
X52388158Y-47303980D01*
X52458432Y-47293876D01*
X52523012Y-47323370D01*
G37*
%TD.AperFunction*%
%TA.AperFunction,Conductor*%
G36*
X38710862Y-49675857D02*
G01*
X38764457Y-49707658D01*
X38768888Y-49712089D01*
X38774076Y-49718924D01*
X38780911Y-49724112D01*
X38780916Y-49724117D01*
X38869871Y-49791638D01*
X38912038Y-49848756D01*
X38916630Y-49919604D01*
X38882190Y-49981688D01*
X38869871Y-49992362D01*
X38780916Y-50059883D01*
X38780911Y-50059888D01*
X38774076Y-50065076D01*
X38768888Y-50071911D01*
X38768883Y-50071916D01*
X38684808Y-50182680D01*
X38627690Y-50224847D01*
X38584446Y-50232500D01*
X38480500Y-50232500D01*
X38412379Y-50212498D01*
X38365886Y-50158842D01*
X38354500Y-50106500D01*
X38354500Y-49850500D01*
X38374502Y-49782379D01*
X38428158Y-49735886D01*
X38480500Y-49724500D01*
X38559885Y-49724500D01*
X38575125Y-49720025D01*
X38580139Y-49714239D01*
X38639865Y-49675856D01*
X38710862Y-49675857D01*
G37*
%TD.AperFunction*%
%TA.AperFunction,Conductor*%
G36*
X64965621Y-22372502D02*
G01*
X65012114Y-22426158D01*
X65023500Y-22478500D01*
X65023500Y-43526472D01*
X65003498Y-43594593D01*
X64949842Y-43641086D01*
X64879568Y-43651190D01*
X64814988Y-43621696D01*
X64796674Y-43602037D01*
X64762614Y-43556590D01*
X64713261Y-43490739D01*
X64596705Y-43403385D01*
X64460316Y-43352255D01*
X64398134Y-43345500D01*
X62601866Y-43345500D01*
X62539684Y-43352255D01*
X62403295Y-43403385D01*
X62286739Y-43490739D01*
X62281358Y-43497919D01*
X62275008Y-43504269D01*
X62272382Y-43501643D01*
X62229563Y-43533637D01*
X62158743Y-43538638D01*
X62096542Y-43504637D01*
X61318405Y-42726500D01*
X61284379Y-42664188D01*
X61281500Y-42637405D01*
X61281500Y-26690768D01*
X61282027Y-26679585D01*
X61283702Y-26672092D01*
X61281562Y-26604001D01*
X61281500Y-26600044D01*
X61281500Y-26572144D01*
X61280996Y-26568153D01*
X61280063Y-26556311D01*
X61278923Y-26520036D01*
X61278674Y-26512111D01*
X61273021Y-26492652D01*
X61269012Y-26473293D01*
X61268846Y-26471983D01*
X61266474Y-26453203D01*
X61263558Y-26445837D01*
X61263556Y-26445831D01*
X61250200Y-26412098D01*
X61246355Y-26400868D01*
X61236230Y-26366017D01*
X61236230Y-26366016D01*
X61234019Y-26358407D01*
X61223705Y-26340966D01*
X61215008Y-26323213D01*
X61210472Y-26311758D01*
X61207552Y-26304383D01*
X61181563Y-26268612D01*
X61175047Y-26258692D01*
X61156578Y-26227463D01*
X61152542Y-26220638D01*
X61138221Y-26206317D01*
X61125380Y-26191283D01*
X61118131Y-26181306D01*
X61113472Y-26174893D01*
X61079395Y-26146702D01*
X61070616Y-26138712D01*
X59177652Y-24245747D01*
X59170112Y-24237461D01*
X59166000Y-24230982D01*
X59116348Y-24184356D01*
X59113507Y-24181602D01*
X59093770Y-24161865D01*
X59090573Y-24159385D01*
X59081551Y-24151680D01*
X59068122Y-24139069D01*
X59049321Y-24121414D01*
X59042375Y-24117595D01*
X59042372Y-24117593D01*
X59031566Y-24111652D01*
X59015047Y-24100801D01*
X59014583Y-24100441D01*
X58999041Y-24088386D01*
X58991772Y-24085241D01*
X58991768Y-24085238D01*
X58958463Y-24070826D01*
X58947813Y-24065609D01*
X58909060Y-24044305D01*
X58889437Y-24039267D01*
X58870734Y-24032863D01*
X58859420Y-24027967D01*
X58859419Y-24027967D01*
X58852145Y-24024819D01*
X58844322Y-24023580D01*
X58844312Y-24023577D01*
X58808476Y-24017901D01*
X58796856Y-24015495D01*
X58761711Y-24006472D01*
X58761710Y-24006472D01*
X58754030Y-24004500D01*
X58733776Y-24004500D01*
X58714065Y-24002949D01*
X58701886Y-24001020D01*
X58694057Y-23999780D01*
X58664786Y-24002547D01*
X58650039Y-24003941D01*
X58638181Y-24004500D01*
X57228768Y-24004500D01*
X57217585Y-24003973D01*
X57210092Y-24002298D01*
X57202166Y-24002547D01*
X57202165Y-24002547D01*
X57142002Y-24004438D01*
X57138044Y-24004500D01*
X57110144Y-24004500D01*
X57106154Y-24005004D01*
X57094320Y-24005936D01*
X57050111Y-24007326D01*
X57042497Y-24009538D01*
X57042492Y-24009539D01*
X57030659Y-24012977D01*
X57011296Y-24016988D01*
X56991203Y-24019526D01*
X56983836Y-24022443D01*
X56983831Y-24022444D01*
X56950092Y-24035802D01*
X56938865Y-24039646D01*
X56896407Y-24051982D01*
X56889581Y-24056019D01*
X56878972Y-24062293D01*
X56861224Y-24070988D01*
X56842383Y-24078448D01*
X56835967Y-24083110D01*
X56835966Y-24083110D01*
X56806613Y-24104436D01*
X56796693Y-24110952D01*
X56765465Y-24129420D01*
X56765462Y-24129422D01*
X56758638Y-24133458D01*
X56744317Y-24147779D01*
X56729284Y-24160619D01*
X56712893Y-24172528D01*
X56704217Y-24183016D01*
X56684702Y-24206605D01*
X56676712Y-24215384D01*
X55871501Y-25020595D01*
X55809189Y-25054621D01*
X55782406Y-25057500D01*
X54473866Y-25057500D01*
X54411684Y-25064255D01*
X54275295Y-25115385D01*
X54158739Y-25202739D01*
X54071385Y-25319295D01*
X54020255Y-25455684D01*
X54013500Y-25517866D01*
X54013500Y-26921310D01*
X53993498Y-26989431D01*
X53939842Y-27035924D01*
X53926875Y-27040509D01*
X53924981Y-27040748D01*
X53917611Y-27043666D01*
X53883876Y-27057022D01*
X53872646Y-27060867D01*
X53837795Y-27070992D01*
X53830185Y-27073203D01*
X53823362Y-27077238D01*
X53812744Y-27083517D01*
X53794991Y-27092214D01*
X53787346Y-27095241D01*
X53776161Y-27099670D01*
X53769746Y-27104331D01*
X53740390Y-27125659D01*
X53730473Y-27132173D01*
X53692416Y-27154680D01*
X53678095Y-27169001D01*
X53663062Y-27181841D01*
X53646671Y-27193750D01*
X53641620Y-27199856D01*
X53618480Y-27227827D01*
X53610490Y-27236606D01*
X39775500Y-41071595D01*
X39713188Y-41105621D01*
X39686405Y-41108500D01*
X39122000Y-41108500D01*
X39064879Y-41115412D01*
X39040834Y-41118322D01*
X39040833Y-41118322D01*
X39032795Y-41119295D01*
X38893451Y-41174465D01*
X38774076Y-41265076D01*
X38683465Y-41384451D01*
X38628295Y-41523795D01*
X38617500Y-41613000D01*
X38617500Y-42171000D01*
X38628295Y-42260205D01*
X38629562Y-42263405D01*
X38629562Y-42320595D01*
X38628295Y-42323795D01*
X38617500Y-42413000D01*
X38617500Y-42971000D01*
X38628295Y-43060205D01*
X38629562Y-43063405D01*
X38629562Y-43120595D01*
X38628295Y-43123795D01*
X38617500Y-43213000D01*
X38617500Y-43771000D01*
X38628295Y-43860205D01*
X38629562Y-43863405D01*
X38629562Y-43920595D01*
X38628295Y-43923795D01*
X38617500Y-44013000D01*
X38617500Y-44571000D01*
X38628295Y-44660205D01*
X38629562Y-44663405D01*
X38629562Y-44720595D01*
X38628295Y-44723795D01*
X38617500Y-44813000D01*
X38617500Y-45371000D01*
X38628295Y-45460205D01*
X38629562Y-45463405D01*
X38629562Y-45520595D01*
X38628295Y-45523795D01*
X38617500Y-45613000D01*
X38617500Y-46171000D01*
X38628295Y-46260205D01*
X38629562Y-46263405D01*
X38629562Y-46320595D01*
X38628295Y-46323795D01*
X38617500Y-46413000D01*
X38617500Y-46971000D01*
X38628295Y-47060205D01*
X38629562Y-47063405D01*
X38629562Y-47120595D01*
X38628295Y-47123795D01*
X38617500Y-47213000D01*
X38617500Y-47771000D01*
X38628295Y-47860205D01*
X38629562Y-47863405D01*
X38629562Y-47920595D01*
X38628295Y-47923795D01*
X38617500Y-48013000D01*
X38617500Y-48571000D01*
X38628295Y-48660205D01*
X38629562Y-48663405D01*
X38629562Y-48720595D01*
X38628295Y-48723795D01*
X38617500Y-48813000D01*
X38617500Y-48977000D01*
X38597498Y-49045121D01*
X38543842Y-49091614D01*
X38491500Y-49103000D01*
X38480500Y-49103000D01*
X38412379Y-49082998D01*
X38365886Y-49029342D01*
X38354500Y-48977000D01*
X38354500Y-22478500D01*
X38374502Y-22410379D01*
X38428158Y-22363886D01*
X38480500Y-22352500D01*
X64897500Y-22352500D01*
X64965621Y-22372502D01*
G37*
%TD.AperFunction*%
%TD*%
M02*
