%TF.GenerationSoftware,KiCad,Pcbnew,(6.0.7)*%
%TF.CreationDate,2023-01-29T20:04:43+00:00*%
%TF.ProjectId,DE0_Addon_Board,4445305f-4164-4646-9f6e-5f426f617264,0*%
%TF.SameCoordinates,Original*%
%TF.FileFunction,Legend,Bot*%
%TF.FilePolarity,Positive*%
%FSLAX46Y46*%
G04 Gerber Fmt 4.6, Leading zero omitted, Abs format (unit mm)*
G04 Created by KiCad (PCBNEW (6.0.7)) date 2023-01-29 20:04:43*
%MOMM*%
%LPD*%
G01*
G04 APERTURE LIST*
%ADD10C,0.150000*%
%ADD11C,0.120000*%
G04 APERTURE END LIST*
D10*
X45310619Y-60078095D02*
X46310619Y-60078095D01*
X45977285Y-59601904D02*
X45310619Y-59601904D01*
X45882047Y-59601904D02*
X45929666Y-59554285D01*
X45977285Y-59459047D01*
X45977285Y-59316190D01*
X45929666Y-59220952D01*
X45834428Y-59173333D01*
X45310619Y-59173333D01*
X45358238Y-58744761D02*
X45310619Y-58649523D01*
X45310619Y-58459047D01*
X45358238Y-58363809D01*
X45453476Y-58316190D01*
X45501095Y-58316190D01*
X45596333Y-58363809D01*
X45643952Y-58459047D01*
X45643952Y-58601904D01*
X45691571Y-58697142D01*
X45786809Y-58744761D01*
X45834428Y-58744761D01*
X45929666Y-58697142D01*
X45977285Y-58601904D01*
X45977285Y-58459047D01*
X45929666Y-58363809D01*
X45977285Y-58030476D02*
X45977285Y-57649523D01*
X46310619Y-57887619D02*
X45453476Y-57887619D01*
X45358238Y-57840000D01*
X45310619Y-57744761D01*
X45310619Y-57649523D01*
X45310619Y-56887619D02*
X45834428Y-56887619D01*
X45929666Y-56935238D01*
X45977285Y-57030476D01*
X45977285Y-57220952D01*
X45929666Y-57316190D01*
X45358238Y-56887619D02*
X45310619Y-56982857D01*
X45310619Y-57220952D01*
X45358238Y-57316190D01*
X45453476Y-57363809D01*
X45548714Y-57363809D01*
X45643952Y-57316190D01*
X45691571Y-57220952D01*
X45691571Y-56982857D01*
X45739190Y-56887619D01*
X45310619Y-56268571D02*
X45358238Y-56363809D01*
X45453476Y-56411428D01*
X46310619Y-56411428D01*
X45310619Y-55744761D02*
X45358238Y-55840000D01*
X45453476Y-55887619D01*
X46310619Y-55887619D01*
X45310619Y-54601904D02*
X45977285Y-54601904D01*
X46310619Y-54601904D02*
X46263000Y-54649523D01*
X46215380Y-54601904D01*
X46263000Y-54554285D01*
X46310619Y-54601904D01*
X46215380Y-54601904D01*
X45977285Y-54125714D02*
X45310619Y-54125714D01*
X45882047Y-54125714D02*
X45929666Y-54078095D01*
X45977285Y-53982857D01*
X45977285Y-53840000D01*
X45929666Y-53744761D01*
X45834428Y-53697142D01*
X45310619Y-53697142D01*
X45310619Y-52459047D02*
X46310619Y-52459047D01*
X46310619Y-52220952D01*
X46263000Y-52078095D01*
X46167761Y-51982857D01*
X46072523Y-51935238D01*
X45882047Y-51887619D01*
X45739190Y-51887619D01*
X45548714Y-51935238D01*
X45453476Y-51982857D01*
X45358238Y-52078095D01*
X45310619Y-52220952D01*
X45310619Y-52459047D01*
X45834428Y-51459047D02*
X45834428Y-51125714D01*
X45310619Y-50982857D02*
X45310619Y-51459047D01*
X46310619Y-51459047D01*
X46310619Y-50982857D01*
X46310619Y-50363809D02*
X46310619Y-50268571D01*
X46263000Y-50173333D01*
X46215380Y-50125714D01*
X46120142Y-50078095D01*
X45929666Y-50030476D01*
X45691571Y-50030476D01*
X45501095Y-50078095D01*
X45405857Y-50125714D01*
X45358238Y-50173333D01*
X45310619Y-50268571D01*
X45310619Y-50363809D01*
X45358238Y-50459047D01*
X45405857Y-50506666D01*
X45501095Y-50554285D01*
X45691571Y-50601904D01*
X45929666Y-50601904D01*
X46120142Y-50554285D01*
X46215380Y-50506666D01*
X46263000Y-50459047D01*
X46310619Y-50363809D01*
X46310619Y-48554285D02*
X45596333Y-48554285D01*
X45453476Y-48601904D01*
X45358238Y-48697142D01*
X45310619Y-48840000D01*
X45310619Y-48935238D01*
X45310619Y-48078095D02*
X46310619Y-48078095D01*
X46310619Y-47697142D01*
X46263000Y-47601904D01*
X46215380Y-47554285D01*
X46120142Y-47506666D01*
X45977285Y-47506666D01*
X45882047Y-47554285D01*
X45834428Y-47601904D01*
X45786809Y-47697142D01*
X45786809Y-48078095D01*
X45310619Y-46554285D02*
X45310619Y-47125714D01*
X45310619Y-46840000D02*
X46310619Y-46840000D01*
X46167761Y-46935238D01*
X46072523Y-47030476D01*
X46024904Y-47125714D01*
X44700619Y-63720952D02*
X43700619Y-63482857D01*
X44414904Y-63292380D01*
X43700619Y-63101904D01*
X44700619Y-62863809D01*
X43700619Y-62482857D02*
X44367285Y-62482857D01*
X44700619Y-62482857D02*
X44653000Y-62530476D01*
X44605380Y-62482857D01*
X44653000Y-62435238D01*
X44700619Y-62482857D01*
X44605380Y-62482857D01*
X44367285Y-62149523D02*
X44367285Y-61768571D01*
X44700619Y-62006666D02*
X43843476Y-62006666D01*
X43748238Y-61959047D01*
X43700619Y-61863809D01*
X43700619Y-61768571D01*
X43700619Y-61435238D02*
X44700619Y-61435238D01*
X43700619Y-61006666D02*
X44224428Y-61006666D01*
X44319666Y-61054285D01*
X44367285Y-61149523D01*
X44367285Y-61292380D01*
X44319666Y-61387619D01*
X44272047Y-61435238D01*
X44700619Y-59911428D02*
X44700619Y-59340000D01*
X43700619Y-59625714D02*
X44700619Y-59625714D01*
X43700619Y-59006666D02*
X44700619Y-59006666D01*
X43700619Y-58578095D02*
X44224428Y-58578095D01*
X44319666Y-58625714D01*
X44367285Y-58720952D01*
X44367285Y-58863809D01*
X44319666Y-58959047D01*
X44272047Y-59006666D01*
X43700619Y-58101904D02*
X44367285Y-58101904D01*
X44700619Y-58101904D02*
X44653000Y-58149523D01*
X44605380Y-58101904D01*
X44653000Y-58054285D01*
X44700619Y-58101904D01*
X44605380Y-58101904D01*
X43748238Y-57673333D02*
X43700619Y-57578095D01*
X43700619Y-57387619D01*
X43748238Y-57292380D01*
X43843476Y-57244761D01*
X43891095Y-57244761D01*
X43986333Y-57292380D01*
X44033952Y-57387619D01*
X44033952Y-57530476D01*
X44081571Y-57625714D01*
X44176809Y-57673333D01*
X44224428Y-57673333D01*
X44319666Y-57625714D01*
X44367285Y-57530476D01*
X44367285Y-57387619D01*
X44319666Y-57292380D01*
X43748238Y-56101904D02*
X43700619Y-55959047D01*
X43700619Y-55720952D01*
X43748238Y-55625714D01*
X43795857Y-55578095D01*
X43891095Y-55530476D01*
X43986333Y-55530476D01*
X44081571Y-55578095D01*
X44129190Y-55625714D01*
X44176809Y-55720952D01*
X44224428Y-55911428D01*
X44272047Y-56006666D01*
X44319666Y-56054285D01*
X44414904Y-56101904D01*
X44510142Y-56101904D01*
X44605380Y-56054285D01*
X44653000Y-56006666D01*
X44700619Y-55911428D01*
X44700619Y-55673333D01*
X44653000Y-55530476D01*
X43700619Y-55101904D02*
X44367285Y-55101904D01*
X44700619Y-55101904D02*
X44653000Y-55149523D01*
X44605380Y-55101904D01*
X44653000Y-55054285D01*
X44700619Y-55101904D01*
X44605380Y-55101904D01*
X43700619Y-54197142D02*
X44700619Y-54197142D01*
X43748238Y-54197142D02*
X43700619Y-54292380D01*
X43700619Y-54482857D01*
X43748238Y-54578095D01*
X43795857Y-54625714D01*
X43891095Y-54673333D01*
X44176809Y-54673333D01*
X44272047Y-54625714D01*
X44319666Y-54578095D01*
X44367285Y-54482857D01*
X44367285Y-54292380D01*
X44319666Y-54197142D01*
X43748238Y-53340000D02*
X43700619Y-53435238D01*
X43700619Y-53625714D01*
X43748238Y-53720952D01*
X43843476Y-53768571D01*
X44224428Y-53768571D01*
X44319666Y-53720952D01*
X44367285Y-53625714D01*
X44367285Y-53435238D01*
X44319666Y-53340000D01*
X44224428Y-53292380D01*
X44129190Y-53292380D01*
X44033952Y-53768571D01*
X44224428Y-51768571D02*
X44224428Y-52101904D01*
X43700619Y-52101904D02*
X44700619Y-52101904D01*
X44700619Y-51625714D01*
X43700619Y-50816190D02*
X44224428Y-50816190D01*
X44319666Y-50863809D01*
X44367285Y-50959047D01*
X44367285Y-51149523D01*
X44319666Y-51244761D01*
X43748238Y-50816190D02*
X43700619Y-50911428D01*
X43700619Y-51149523D01*
X43748238Y-51244761D01*
X43843476Y-51292380D01*
X43938714Y-51292380D01*
X44033952Y-51244761D01*
X44081571Y-51149523D01*
X44081571Y-50911428D01*
X44129190Y-50816190D01*
X43748238Y-49911428D02*
X43700619Y-50006666D01*
X43700619Y-50197142D01*
X43748238Y-50292380D01*
X43795857Y-50340000D01*
X43891095Y-50387619D01*
X44176809Y-50387619D01*
X44272047Y-50340000D01*
X44319666Y-50292380D01*
X44367285Y-50197142D01*
X44367285Y-50006666D01*
X44319666Y-49911428D01*
X43700619Y-49482857D02*
X44367285Y-49482857D01*
X44700619Y-49482857D02*
X44653000Y-49530476D01*
X44605380Y-49482857D01*
X44653000Y-49435238D01*
X44700619Y-49482857D01*
X44605380Y-49482857D01*
X44367285Y-49006666D02*
X43700619Y-49006666D01*
X44272047Y-49006666D02*
X44319666Y-48959047D01*
X44367285Y-48863809D01*
X44367285Y-48720952D01*
X44319666Y-48625714D01*
X44224428Y-48578095D01*
X43700619Y-48578095D01*
X44367285Y-47673333D02*
X43557761Y-47673333D01*
X43462523Y-47720952D01*
X43414904Y-47768571D01*
X43367285Y-47863809D01*
X43367285Y-48006666D01*
X43414904Y-48101904D01*
X43748238Y-47673333D02*
X43700619Y-47768571D01*
X43700619Y-47959047D01*
X43748238Y-48054285D01*
X43795857Y-48101904D01*
X43891095Y-48149523D01*
X44176809Y-48149523D01*
X44272047Y-48101904D01*
X44319666Y-48054285D01*
X44367285Y-47959047D01*
X44367285Y-47768571D01*
X44319666Y-47673333D01*
X43700619Y-46435238D02*
X44700619Y-46435238D01*
X44700619Y-46197142D01*
X44653000Y-46054285D01*
X44557761Y-45959047D01*
X44462523Y-45911428D01*
X44272047Y-45863809D01*
X44129190Y-45863809D01*
X43938714Y-45911428D01*
X43843476Y-45959047D01*
X43748238Y-46054285D01*
X43700619Y-46197142D01*
X43700619Y-46435238D01*
X43700619Y-45292380D02*
X43748238Y-45387619D01*
X43795857Y-45435238D01*
X43891095Y-45482857D01*
X44176809Y-45482857D01*
X44272047Y-45435238D01*
X44319666Y-45387619D01*
X44367285Y-45292380D01*
X44367285Y-45149523D01*
X44319666Y-45054285D01*
X44272047Y-45006666D01*
X44176809Y-44959047D01*
X43891095Y-44959047D01*
X43795857Y-45006666D01*
X43748238Y-45054285D01*
X43700619Y-45149523D01*
X43700619Y-45292380D01*
X44367285Y-44625714D02*
X43700619Y-44435238D01*
X44176809Y-44244761D01*
X43700619Y-44054285D01*
X44367285Y-43863809D01*
X44367285Y-43482857D02*
X43700619Y-43482857D01*
X44272047Y-43482857D02*
X44319666Y-43435238D01*
X44367285Y-43340000D01*
X44367285Y-43197142D01*
X44319666Y-43101904D01*
X44224428Y-43054285D01*
X43700619Y-43054285D01*
X61820619Y-75897238D02*
X62820619Y-75897238D01*
X62106333Y-75563904D01*
X62820619Y-75230571D01*
X61820619Y-75230571D01*
X61820619Y-74611523D02*
X61868238Y-74706761D01*
X61915857Y-74754380D01*
X62011095Y-74802000D01*
X62296809Y-74802000D01*
X62392047Y-74754380D01*
X62439666Y-74706761D01*
X62487285Y-74611523D01*
X62487285Y-74468666D01*
X62439666Y-74373428D01*
X62392047Y-74325809D01*
X62296809Y-74278190D01*
X62011095Y-74278190D01*
X61915857Y-74325809D01*
X61868238Y-74373428D01*
X61820619Y-74468666D01*
X61820619Y-74611523D01*
X62487285Y-73421047D02*
X61820619Y-73421047D01*
X62487285Y-73849619D02*
X61963476Y-73849619D01*
X61868238Y-73802000D01*
X61820619Y-73706761D01*
X61820619Y-73563904D01*
X61868238Y-73468666D01*
X61915857Y-73421047D01*
X62487285Y-72944857D02*
X61820619Y-72944857D01*
X62392047Y-72944857D02*
X62439666Y-72897238D01*
X62487285Y-72802000D01*
X62487285Y-72659142D01*
X62439666Y-72563904D01*
X62344428Y-72516285D01*
X61820619Y-72516285D01*
X62487285Y-72182952D02*
X62487285Y-71802000D01*
X62820619Y-72040095D02*
X61963476Y-72040095D01*
X61868238Y-71992476D01*
X61820619Y-71897238D01*
X61820619Y-71802000D01*
X62344428Y-70373428D02*
X62344428Y-70706761D01*
X61820619Y-70706761D02*
X62820619Y-70706761D01*
X62820619Y-70230571D01*
X61868238Y-69468666D02*
X61820619Y-69563904D01*
X61820619Y-69754380D01*
X61868238Y-69849619D01*
X61963476Y-69897238D01*
X62344428Y-69897238D01*
X62439666Y-69849619D01*
X62487285Y-69754380D01*
X62487285Y-69563904D01*
X62439666Y-69468666D01*
X62344428Y-69421047D01*
X62249190Y-69421047D01*
X62153952Y-69897238D01*
X61820619Y-68992476D02*
X62487285Y-68992476D01*
X62392047Y-68992476D02*
X62439666Y-68944857D01*
X62487285Y-68849619D01*
X62487285Y-68706761D01*
X62439666Y-68611523D01*
X62344428Y-68563904D01*
X61820619Y-68563904D01*
X62344428Y-68563904D02*
X62439666Y-68516285D01*
X62487285Y-68421047D01*
X62487285Y-68278190D01*
X62439666Y-68182952D01*
X62344428Y-68135333D01*
X61820619Y-68135333D01*
X61820619Y-67230571D02*
X62344428Y-67230571D01*
X62439666Y-67278190D01*
X62487285Y-67373428D01*
X62487285Y-67563904D01*
X62439666Y-67659142D01*
X61868238Y-67230571D02*
X61820619Y-67325809D01*
X61820619Y-67563904D01*
X61868238Y-67659142D01*
X61963476Y-67706761D01*
X62058714Y-67706761D01*
X62153952Y-67659142D01*
X62201571Y-67563904D01*
X62201571Y-67325809D01*
X62249190Y-67230571D01*
X61820619Y-66611523D02*
X61868238Y-66706761D01*
X61963476Y-66754380D01*
X62820619Y-66754380D01*
X61868238Y-65849619D02*
X61820619Y-65944857D01*
X61820619Y-66135333D01*
X61868238Y-66230571D01*
X61963476Y-66278190D01*
X62344428Y-66278190D01*
X62439666Y-66230571D01*
X62487285Y-66135333D01*
X62487285Y-65944857D01*
X62439666Y-65849619D01*
X62344428Y-65802000D01*
X62249190Y-65802000D01*
X62153952Y-66278190D01*
X61915857Y-64040095D02*
X61868238Y-64087714D01*
X61820619Y-64230571D01*
X61820619Y-64325809D01*
X61868238Y-64468666D01*
X61963476Y-64563904D01*
X62058714Y-64611523D01*
X62249190Y-64659142D01*
X62392047Y-64659142D01*
X62582523Y-64611523D01*
X62677761Y-64563904D01*
X62773000Y-64468666D01*
X62820619Y-64325809D01*
X62820619Y-64230571D01*
X62773000Y-64087714D01*
X62725380Y-64040095D01*
X61820619Y-63468666D02*
X61868238Y-63563904D01*
X61915857Y-63611523D01*
X62011095Y-63659142D01*
X62296809Y-63659142D01*
X62392047Y-63611523D01*
X62439666Y-63563904D01*
X62487285Y-63468666D01*
X62487285Y-63325809D01*
X62439666Y-63230571D01*
X62392047Y-63182952D01*
X62296809Y-63135333D01*
X62011095Y-63135333D01*
X61915857Y-63182952D01*
X61868238Y-63230571D01*
X61820619Y-63325809D01*
X61820619Y-63468666D01*
X62487285Y-62706761D02*
X61820619Y-62706761D01*
X62392047Y-62706761D02*
X62439666Y-62659142D01*
X62487285Y-62563904D01*
X62487285Y-62421047D01*
X62439666Y-62325809D01*
X62344428Y-62278190D01*
X61820619Y-62278190D01*
X61868238Y-61421047D02*
X61820619Y-61516285D01*
X61820619Y-61706761D01*
X61868238Y-61802000D01*
X61963476Y-61849619D01*
X62344428Y-61849619D01*
X62439666Y-61802000D01*
X62487285Y-61706761D01*
X62487285Y-61516285D01*
X62439666Y-61421047D01*
X62344428Y-61373428D01*
X62249190Y-61373428D01*
X62153952Y-61849619D01*
X61868238Y-60516285D02*
X61820619Y-60611523D01*
X61820619Y-60802000D01*
X61868238Y-60897238D01*
X61915857Y-60944857D01*
X62011095Y-60992476D01*
X62296809Y-60992476D01*
X62392047Y-60944857D01*
X62439666Y-60897238D01*
X62487285Y-60802000D01*
X62487285Y-60611523D01*
X62439666Y-60516285D01*
X62487285Y-60230571D02*
X62487285Y-59849619D01*
X62820619Y-60087714D02*
X61963476Y-60087714D01*
X61868238Y-60040095D01*
X61820619Y-59944857D01*
X61820619Y-59849619D01*
X61820619Y-59373428D02*
X61868238Y-59468666D01*
X61915857Y-59516285D01*
X62011095Y-59563904D01*
X62296809Y-59563904D01*
X62392047Y-59516285D01*
X62439666Y-59468666D01*
X62487285Y-59373428D01*
X62487285Y-59230571D01*
X62439666Y-59135333D01*
X62392047Y-59087714D01*
X62296809Y-59040095D01*
X62011095Y-59040095D01*
X61915857Y-59087714D01*
X61868238Y-59135333D01*
X61820619Y-59230571D01*
X61820619Y-59373428D01*
X61820619Y-58611523D02*
X62487285Y-58611523D01*
X62296809Y-58611523D02*
X62392047Y-58563904D01*
X62439666Y-58516285D01*
X62487285Y-58421047D01*
X62487285Y-58325809D01*
X60210619Y-71087714D02*
X61210619Y-71087714D01*
X60877285Y-70611523D02*
X60210619Y-70611523D01*
X60782047Y-70611523D02*
X60829666Y-70563904D01*
X60877285Y-70468666D01*
X60877285Y-70325809D01*
X60829666Y-70230571D01*
X60734428Y-70182952D01*
X60210619Y-70182952D01*
X61210619Y-69087714D02*
X61210619Y-68516285D01*
X60210619Y-68802000D02*
X61210619Y-68802000D01*
X60210619Y-68182952D02*
X61210619Y-68182952D01*
X60210619Y-67754380D02*
X60734428Y-67754380D01*
X60829666Y-67802000D01*
X60877285Y-67897238D01*
X60877285Y-68040095D01*
X60829666Y-68135333D01*
X60782047Y-68182952D01*
X60210619Y-67278190D02*
X60877285Y-67278190D01*
X61210619Y-67278190D02*
X61163000Y-67325809D01*
X61115380Y-67278190D01*
X61163000Y-67230571D01*
X61210619Y-67278190D01*
X61115380Y-67278190D01*
X60258238Y-66849619D02*
X60210619Y-66754380D01*
X60210619Y-66563904D01*
X60258238Y-66468666D01*
X60353476Y-66421047D01*
X60401095Y-66421047D01*
X60496333Y-66468666D01*
X60543952Y-66563904D01*
X60543952Y-66706761D01*
X60591571Y-66802000D01*
X60686809Y-66849619D01*
X60734428Y-66849619D01*
X60829666Y-66802000D01*
X60877285Y-66706761D01*
X60877285Y-66563904D01*
X60829666Y-66468666D01*
X60258238Y-65278190D02*
X60210619Y-65135333D01*
X60210619Y-64897238D01*
X60258238Y-64802000D01*
X60305857Y-64754380D01*
X60401095Y-64706761D01*
X60496333Y-64706761D01*
X60591571Y-64754380D01*
X60639190Y-64802000D01*
X60686809Y-64897238D01*
X60734428Y-65087714D01*
X60782047Y-65182952D01*
X60829666Y-65230571D01*
X60924904Y-65278190D01*
X61020142Y-65278190D01*
X61115380Y-65230571D01*
X61163000Y-65182952D01*
X61210619Y-65087714D01*
X61210619Y-64849619D01*
X61163000Y-64706761D01*
X60210619Y-64278190D02*
X60877285Y-64278190D01*
X61210619Y-64278190D02*
X61163000Y-64325809D01*
X61115380Y-64278190D01*
X61163000Y-64230571D01*
X61210619Y-64278190D01*
X61115380Y-64278190D01*
X60210619Y-63373428D02*
X61210619Y-63373428D01*
X60258238Y-63373428D02*
X60210619Y-63468666D01*
X60210619Y-63659142D01*
X60258238Y-63754380D01*
X60305857Y-63802000D01*
X60401095Y-63849619D01*
X60686809Y-63849619D01*
X60782047Y-63802000D01*
X60829666Y-63754380D01*
X60877285Y-63659142D01*
X60877285Y-63468666D01*
X60829666Y-63373428D01*
X60258238Y-62516285D02*
X60210619Y-62611523D01*
X60210619Y-62802000D01*
X60258238Y-62897238D01*
X60353476Y-62944857D01*
X60734428Y-62944857D01*
X60829666Y-62897238D01*
X60877285Y-62802000D01*
X60877285Y-62611523D01*
X60829666Y-62516285D01*
X60734428Y-62468666D01*
X60639190Y-62468666D01*
X60543952Y-62944857D01*
X50347619Y-66807904D02*
X51347619Y-66807904D01*
X50347619Y-66379333D02*
X50871428Y-66379333D01*
X50966666Y-66426952D01*
X51014285Y-66522190D01*
X51014285Y-66665047D01*
X50966666Y-66760285D01*
X50919047Y-66807904D01*
X51014285Y-66046000D02*
X51014285Y-65665047D01*
X51347619Y-65903142D02*
X50490476Y-65903142D01*
X50395238Y-65855523D01*
X50347619Y-65760285D01*
X50347619Y-65665047D01*
X51014285Y-65474571D02*
X51014285Y-65093619D01*
X51347619Y-65331714D02*
X50490476Y-65331714D01*
X50395238Y-65284095D01*
X50347619Y-65188857D01*
X50347619Y-65093619D01*
X51014285Y-64760285D02*
X50014285Y-64760285D01*
X50966666Y-64760285D02*
X51014285Y-64665047D01*
X51014285Y-64474571D01*
X50966666Y-64379333D01*
X50919047Y-64331714D01*
X50823809Y-64284095D01*
X50538095Y-64284095D01*
X50442857Y-64331714D01*
X50395238Y-64379333D01*
X50347619Y-64474571D01*
X50347619Y-64665047D01*
X50395238Y-64760285D01*
X50395238Y-63903142D02*
X50347619Y-63807904D01*
X50347619Y-63617428D01*
X50395238Y-63522190D01*
X50490476Y-63474571D01*
X50538095Y-63474571D01*
X50633333Y-63522190D01*
X50680952Y-63617428D01*
X50680952Y-63760285D01*
X50728571Y-63855523D01*
X50823809Y-63903142D01*
X50871428Y-63903142D01*
X50966666Y-63855523D01*
X51014285Y-63760285D01*
X51014285Y-63617428D01*
X50966666Y-63522190D01*
X50442857Y-63046000D02*
X50395238Y-62998380D01*
X50347619Y-63046000D01*
X50395238Y-63093619D01*
X50442857Y-63046000D01*
X50347619Y-63046000D01*
X50966666Y-63046000D02*
X50919047Y-62998380D01*
X50871428Y-63046000D01*
X50919047Y-63093619D01*
X50966666Y-63046000D01*
X50871428Y-63046000D01*
X51395238Y-61855523D02*
X50109523Y-62712666D01*
X51395238Y-60807904D02*
X50109523Y-61665047D01*
X51014285Y-60046000D02*
X50204761Y-60046000D01*
X50109523Y-60093619D01*
X50061904Y-60141238D01*
X50014285Y-60236476D01*
X50014285Y-60379333D01*
X50061904Y-60474571D01*
X50395238Y-60046000D02*
X50347619Y-60141238D01*
X50347619Y-60331714D01*
X50395238Y-60426952D01*
X50442857Y-60474571D01*
X50538095Y-60522190D01*
X50823809Y-60522190D01*
X50919047Y-60474571D01*
X50966666Y-60426952D01*
X51014285Y-60331714D01*
X51014285Y-60141238D01*
X50966666Y-60046000D01*
X50347619Y-59569809D02*
X51014285Y-59569809D01*
X51347619Y-59569809D02*
X51300000Y-59617428D01*
X51252380Y-59569809D01*
X51300000Y-59522190D01*
X51347619Y-59569809D01*
X51252380Y-59569809D01*
X51014285Y-59236476D02*
X51014285Y-58855523D01*
X51347619Y-59093619D02*
X50490476Y-59093619D01*
X50395238Y-59046000D01*
X50347619Y-58950761D01*
X50347619Y-58855523D01*
X50347619Y-58522190D02*
X51347619Y-58522190D01*
X50347619Y-58093619D02*
X50871428Y-58093619D01*
X50966666Y-58141238D01*
X51014285Y-58236476D01*
X51014285Y-58379333D01*
X50966666Y-58474571D01*
X50919047Y-58522190D01*
X51014285Y-57188857D02*
X50347619Y-57188857D01*
X51014285Y-57617428D02*
X50490476Y-57617428D01*
X50395238Y-57569809D01*
X50347619Y-57474571D01*
X50347619Y-57331714D01*
X50395238Y-57236476D01*
X50442857Y-57188857D01*
X50347619Y-56712666D02*
X51347619Y-56712666D01*
X50966666Y-56712666D02*
X51014285Y-56617428D01*
X51014285Y-56426952D01*
X50966666Y-56331714D01*
X50919047Y-56284095D01*
X50823809Y-56236476D01*
X50538095Y-56236476D01*
X50442857Y-56284095D01*
X50395238Y-56331714D01*
X50347619Y-56426952D01*
X50347619Y-56617428D01*
X50395238Y-56712666D01*
X50442857Y-55807904D02*
X50395238Y-55760285D01*
X50347619Y-55807904D01*
X50395238Y-55855523D01*
X50442857Y-55807904D01*
X50347619Y-55807904D01*
X50395238Y-54903142D02*
X50347619Y-54998380D01*
X50347619Y-55188857D01*
X50395238Y-55284095D01*
X50442857Y-55331714D01*
X50538095Y-55379333D01*
X50823809Y-55379333D01*
X50919047Y-55331714D01*
X50966666Y-55284095D01*
X51014285Y-55188857D01*
X51014285Y-54998380D01*
X50966666Y-54903142D01*
X50347619Y-54331714D02*
X50395238Y-54426952D01*
X50442857Y-54474571D01*
X50538095Y-54522190D01*
X50823809Y-54522190D01*
X50919047Y-54474571D01*
X50966666Y-54426952D01*
X51014285Y-54331714D01*
X51014285Y-54188857D01*
X50966666Y-54093619D01*
X50919047Y-54046000D01*
X50823809Y-53998380D01*
X50538095Y-53998380D01*
X50442857Y-54046000D01*
X50395238Y-54093619D01*
X50347619Y-54188857D01*
X50347619Y-54331714D01*
X50347619Y-53569809D02*
X51014285Y-53569809D01*
X50919047Y-53569809D02*
X50966666Y-53522190D01*
X51014285Y-53426952D01*
X51014285Y-53284095D01*
X50966666Y-53188857D01*
X50871428Y-53141238D01*
X50347619Y-53141238D01*
X50871428Y-53141238D02*
X50966666Y-53093619D01*
X51014285Y-52998380D01*
X51014285Y-52855523D01*
X50966666Y-52760285D01*
X50871428Y-52712666D01*
X50347619Y-52712666D01*
X51395238Y-51522190D02*
X50109523Y-52379333D01*
X50395238Y-50760285D02*
X50347619Y-50855523D01*
X50347619Y-51046000D01*
X50395238Y-51141238D01*
X50442857Y-51188857D01*
X50538095Y-51236476D01*
X50823809Y-51236476D01*
X50919047Y-51188857D01*
X50966666Y-51141238D01*
X51014285Y-51046000D01*
X51014285Y-50855523D01*
X50966666Y-50760285D01*
X50347619Y-50188857D02*
X50395238Y-50284095D01*
X50442857Y-50331714D01*
X50538095Y-50379333D01*
X50823809Y-50379333D01*
X50919047Y-50331714D01*
X50966666Y-50284095D01*
X51014285Y-50188857D01*
X51014285Y-50046000D01*
X50966666Y-49950761D01*
X50919047Y-49903142D01*
X50823809Y-49855523D01*
X50538095Y-49855523D01*
X50442857Y-49903142D01*
X50395238Y-49950761D01*
X50347619Y-50046000D01*
X50347619Y-50188857D01*
X50395238Y-49474571D02*
X50347619Y-49379333D01*
X50347619Y-49188857D01*
X50395238Y-49093619D01*
X50490476Y-49046000D01*
X50538095Y-49046000D01*
X50633333Y-49093619D01*
X50680952Y-49188857D01*
X50680952Y-49331714D01*
X50728571Y-49426952D01*
X50823809Y-49474571D01*
X50871428Y-49474571D01*
X50966666Y-49426952D01*
X51014285Y-49331714D01*
X51014285Y-49188857D01*
X50966666Y-49093619D01*
X51014285Y-48760285D02*
X51014285Y-48379333D01*
X51347619Y-48617428D02*
X50490476Y-48617428D01*
X50395238Y-48569809D01*
X50347619Y-48474571D01*
X50347619Y-48379333D01*
X50347619Y-47617428D02*
X50871428Y-47617428D01*
X50966666Y-47665047D01*
X51014285Y-47760285D01*
X51014285Y-47950761D01*
X50966666Y-48046000D01*
X50395238Y-47617428D02*
X50347619Y-47712666D01*
X50347619Y-47950761D01*
X50395238Y-48046000D01*
X50490476Y-48093619D01*
X50585714Y-48093619D01*
X50680952Y-48046000D01*
X50728571Y-47950761D01*
X50728571Y-47712666D01*
X50776190Y-47617428D01*
X50347619Y-47141238D02*
X51014285Y-47141238D01*
X50823809Y-47141238D02*
X50919047Y-47093619D01*
X50966666Y-47046000D01*
X51014285Y-46950761D01*
X51014285Y-46855523D01*
X50395238Y-46093619D02*
X50347619Y-46188857D01*
X50347619Y-46379333D01*
X50395238Y-46474571D01*
X50442857Y-46522190D01*
X50538095Y-46569809D01*
X50823809Y-46569809D01*
X50919047Y-46522190D01*
X50966666Y-46474571D01*
X51014285Y-46379333D01*
X51014285Y-46188857D01*
X50966666Y-46093619D01*
X51395238Y-44950761D02*
X50109523Y-45807904D01*
X50347619Y-44617428D02*
X51347619Y-44617428D01*
X50633333Y-44284095D01*
X51347619Y-43950761D01*
X50347619Y-43950761D01*
X50395238Y-43522190D02*
X50347619Y-43379333D01*
X50347619Y-43141238D01*
X50395238Y-43046000D01*
X50442857Y-42998380D01*
X50538095Y-42950761D01*
X50633333Y-42950761D01*
X50728571Y-42998380D01*
X50776190Y-43046000D01*
X50823809Y-43141238D01*
X50871428Y-43331714D01*
X50919047Y-43426952D01*
X50966666Y-43474571D01*
X51061904Y-43522190D01*
X51157142Y-43522190D01*
X51252380Y-43474571D01*
X51300000Y-43426952D01*
X51347619Y-43331714D01*
X51347619Y-43093619D01*
X51300000Y-42950761D01*
X51347619Y-42617428D02*
X50347619Y-41950761D01*
X51347619Y-41950761D02*
X50347619Y-42617428D01*
X50252380Y-41807904D02*
X50252380Y-41046000D01*
X50871428Y-40474571D02*
X50871428Y-40807904D01*
X50347619Y-40807904D02*
X51347619Y-40807904D01*
X51347619Y-40331714D01*
X50347619Y-39950761D02*
X51347619Y-39950761D01*
X51347619Y-39569809D01*
X51300000Y-39474571D01*
X51252380Y-39426952D01*
X51157142Y-39379333D01*
X51014285Y-39379333D01*
X50919047Y-39426952D01*
X50871428Y-39474571D01*
X50823809Y-39569809D01*
X50823809Y-39950761D01*
X51300000Y-38426952D02*
X51347619Y-38522190D01*
X51347619Y-38665047D01*
X51300000Y-38807904D01*
X51204761Y-38903142D01*
X51109523Y-38950761D01*
X50919047Y-38998380D01*
X50776190Y-38998380D01*
X50585714Y-38950761D01*
X50490476Y-38903142D01*
X50395238Y-38807904D01*
X50347619Y-38665047D01*
X50347619Y-38569809D01*
X50395238Y-38426952D01*
X50442857Y-38379333D01*
X50776190Y-38379333D01*
X50776190Y-38569809D01*
X50633333Y-37998380D02*
X50633333Y-37522190D01*
X50347619Y-38093619D02*
X51347619Y-37760285D01*
X50347619Y-37426952D01*
X50252380Y-37331714D02*
X50252380Y-36569809D01*
X50347619Y-36331714D02*
X51347619Y-36331714D01*
X50871428Y-36331714D02*
X50871428Y-35760285D01*
X50347619Y-35760285D02*
X51347619Y-35760285D01*
X50347619Y-34855523D02*
X50871428Y-34855523D01*
X50966666Y-34903142D01*
X51014285Y-34998380D01*
X51014285Y-35188857D01*
X50966666Y-35284095D01*
X50395238Y-34855523D02*
X50347619Y-34950761D01*
X50347619Y-35188857D01*
X50395238Y-35284095D01*
X50490476Y-35331714D01*
X50585714Y-35331714D01*
X50680952Y-35284095D01*
X50728571Y-35188857D01*
X50728571Y-34950761D01*
X50776190Y-34855523D01*
X51014285Y-34522190D02*
X51014285Y-34141238D01*
X51347619Y-34379333D02*
X50490476Y-34379333D01*
X50395238Y-34331714D01*
X50347619Y-34236476D01*
X50347619Y-34141238D01*
D11*
%TO.C,J1*%
X56642000Y-25086000D02*
X56642000Y-27686000D01*
X54042000Y-27686000D02*
X54042000Y-76006000D01*
X55372000Y-25086000D02*
X54042000Y-25086000D01*
X56642000Y-27686000D02*
X54042000Y-27686000D01*
X54042000Y-25086000D02*
X54042000Y-26416000D01*
X59242000Y-25086000D02*
X59242000Y-76006000D01*
X59242000Y-76006000D02*
X54042000Y-76006000D01*
X59242000Y-25086000D02*
X56642000Y-25086000D01*
%TD*%
M02*
