%TF.GenerationSoftware,KiCad,Pcbnew,(6.0.7)*%
%TF.CreationDate,2023-01-29T20:04:32+00:00*%
%TF.ProjectId,DE0_Addon_Board,4445305f-4164-4646-9f6e-5f426f617264,0*%
%TF.SameCoordinates,Original*%
%TF.FileFunction,Drillmap*%
%TF.FilePolarity,Positive*%
%FSLAX45Y45*%
G04 Gerber Fmt 4.5, Leading zero omitted, Abs format (unit mm)*
G04 Created by KiCad (PCBNEW (6.0.7)) date 2023-01-29 20:04:32*
%MOMM*%
%LPD*%
G01*
G04 APERTURE LIST*
%ADD10C,0.100000*%
%ADD11C,0.200000*%
%ADD12C,0.040000*%
G04 APERTURE END LIST*
D10*
X6553200Y-2184400D02*
X3784600Y-2184400D01*
X3784600Y-2184400D02*
X3784600Y-7848600D01*
X3784600Y-7848600D02*
X6553200Y-7848600D01*
X6553200Y-7848600D02*
X6553200Y-2184400D01*
D11*
D12*
X3942400Y-3866200D02*
X3982400Y-3906200D01*
X3982400Y-3866200D02*
X3942400Y-3906200D01*
X4120200Y-5056750D02*
X4160200Y-5096750D01*
X4160200Y-5056750D02*
X4120200Y-5096750D01*
X4120200Y-5364800D02*
X4160200Y-5404800D01*
X4160200Y-5364800D02*
X4120200Y-5404800D01*
X4163678Y-4965722D02*
X4203678Y-5005722D01*
X4203678Y-4965722D02*
X4163678Y-5005722D01*
X4196400Y-5288600D02*
X4236400Y-5328600D01*
X4236400Y-5288600D02*
X4196400Y-5328600D01*
X4247200Y-5034600D02*
X4287200Y-5074600D01*
X4287200Y-5034600D02*
X4247200Y-5074600D01*
X4285971Y-4666489D02*
X4325971Y-4706489D01*
X4325971Y-4666489D02*
X4285971Y-4706489D01*
X4298000Y-5212400D02*
X4338000Y-5252400D01*
X4338000Y-5212400D02*
X4298000Y-5252400D01*
X4348536Y-5056750D02*
X4388536Y-5096750D01*
X4388536Y-5056750D02*
X4348536Y-5096750D01*
X4449992Y-4653149D02*
X4489992Y-4693149D01*
X4489992Y-4653149D02*
X4449992Y-4693149D01*
X4628200Y-5288600D02*
X4668200Y-5328600D01*
X4668200Y-5288600D02*
X4628200Y-5328600D01*
X4679000Y-4653600D02*
X4719000Y-4693600D01*
X4719000Y-4653600D02*
X4679000Y-4693600D01*
X4679000Y-5187000D02*
X4719000Y-5227000D01*
X4719000Y-5187000D02*
X4679000Y-5227000D01*
X4704400Y-5085400D02*
X4744400Y-5125400D01*
X4744400Y-5085400D02*
X4704400Y-5125400D01*
X4882200Y-4653600D02*
X4922200Y-4693600D01*
X4922200Y-4653600D02*
X4882200Y-4693600D01*
X4933000Y-4983800D02*
X4973000Y-5023800D01*
X4973000Y-4983800D02*
X4933000Y-5023800D01*
X5267921Y-5369053D02*
X5307921Y-5409053D01*
X5307921Y-5369053D02*
X5267921Y-5409053D01*
X5364800Y-5034600D02*
X5404800Y-5074600D01*
X5404800Y-5034600D02*
X5364800Y-5074600D01*
D10*
X5587200Y-2641600D02*
G75*
G03*
X5587200Y-2641600I-50000J0D01*
G01*
X5587200Y-2895600D02*
G75*
G03*
X5587200Y-2895600I-50000J0D01*
G01*
X5587200Y-3149600D02*
G75*
G03*
X5587200Y-3149600I-50000J0D01*
G01*
X5587200Y-3403600D02*
G75*
G03*
X5587200Y-3403600I-50000J0D01*
G01*
X5587200Y-3657600D02*
G75*
G03*
X5587200Y-3657600I-50000J0D01*
G01*
X5587200Y-3911600D02*
G75*
G03*
X5587200Y-3911600I-50000J0D01*
G01*
X5587200Y-4165600D02*
G75*
G03*
X5587200Y-4165600I-50000J0D01*
G01*
X5587200Y-4419600D02*
G75*
G03*
X5587200Y-4419600I-50000J0D01*
G01*
X5587200Y-4673600D02*
G75*
G03*
X5587200Y-4673600I-50000J0D01*
G01*
X5587200Y-4927600D02*
G75*
G03*
X5587200Y-4927600I-50000J0D01*
G01*
X5587200Y-5181600D02*
G75*
G03*
X5587200Y-5181600I-50000J0D01*
G01*
X5587200Y-5435600D02*
G75*
G03*
X5587200Y-5435600I-50000J0D01*
G01*
X5587200Y-5689600D02*
G75*
G03*
X5587200Y-5689600I-50000J0D01*
G01*
X5587200Y-5943600D02*
G75*
G03*
X5587200Y-5943600I-50000J0D01*
G01*
X5587200Y-6197600D02*
G75*
G03*
X5587200Y-6197600I-50000J0D01*
G01*
X5587200Y-6451600D02*
G75*
G03*
X5587200Y-6451600I-50000J0D01*
G01*
X5587200Y-6705600D02*
G75*
G03*
X5587200Y-6705600I-50000J0D01*
G01*
X5587200Y-6959600D02*
G75*
G03*
X5587200Y-6959600I-50000J0D01*
G01*
X5587200Y-7213600D02*
G75*
G03*
X5587200Y-7213600I-50000J0D01*
G01*
X5587200Y-7467600D02*
G75*
G03*
X5587200Y-7467600I-50000J0D01*
G01*
X5841200Y-2641600D02*
G75*
G03*
X5841200Y-2641600I-50000J0D01*
G01*
X5841200Y-2895600D02*
G75*
G03*
X5841200Y-2895600I-50000J0D01*
G01*
X5841200Y-3149600D02*
G75*
G03*
X5841200Y-3149600I-50000J0D01*
G01*
X5841200Y-3403600D02*
G75*
G03*
X5841200Y-3403600I-50000J0D01*
G01*
X5841200Y-3657600D02*
G75*
G03*
X5841200Y-3657600I-50000J0D01*
G01*
X5841200Y-3911600D02*
G75*
G03*
X5841200Y-3911600I-50000J0D01*
G01*
X5841200Y-4165600D02*
G75*
G03*
X5841200Y-4165600I-50000J0D01*
G01*
X5841200Y-4419600D02*
G75*
G03*
X5841200Y-4419600I-50000J0D01*
G01*
X5841200Y-4673600D02*
G75*
G03*
X5841200Y-4673600I-50000J0D01*
G01*
X5841200Y-4927600D02*
G75*
G03*
X5841200Y-4927600I-50000J0D01*
G01*
X5841200Y-5181600D02*
G75*
G03*
X5841200Y-5181600I-50000J0D01*
G01*
X5841200Y-5435600D02*
G75*
G03*
X5841200Y-5435600I-50000J0D01*
G01*
X5841200Y-5689600D02*
G75*
G03*
X5841200Y-5689600I-50000J0D01*
G01*
X5841200Y-5943600D02*
G75*
G03*
X5841200Y-5943600I-50000J0D01*
G01*
X5841200Y-6197600D02*
G75*
G03*
X5841200Y-6197600I-50000J0D01*
G01*
X5841200Y-6451600D02*
G75*
G03*
X5841200Y-6451600I-50000J0D01*
G01*
X5841200Y-6705600D02*
G75*
G03*
X5841200Y-6705600I-50000J0D01*
G01*
X5841200Y-6959600D02*
G75*
G03*
X5841200Y-6959600I-50000J0D01*
G01*
X5841200Y-7213600D02*
G75*
G03*
X5841200Y-7213600I-50000J0D01*
G01*
X5841200Y-7467600D02*
G75*
G03*
X5841200Y-7467600I-50000J0D01*
G01*
X6400000Y-4470400D02*
G75*
G03*
X6400000Y-4470400I-50000J0D01*
G01*
X6400000Y-4724400D02*
G75*
G03*
X6400000Y-4724400I-50000J0D01*
G01*
X6400000Y-4978400D02*
G75*
G03*
X6400000Y-4978400I-50000J0D01*
G01*
X6400000Y-5232400D02*
G75*
G03*
X6400000Y-5232400I-50000J0D01*
G01*
X6400000Y-5486400D02*
G75*
G03*
X6400000Y-5486400I-50000J0D01*
G01*
D11*
X4037219Y-8164076D02*
X4037219Y-7964076D01*
X4084838Y-7964076D01*
X4113409Y-7973600D01*
X4132457Y-7992648D01*
X4141981Y-8011695D01*
X4151505Y-8049790D01*
X4151505Y-8078362D01*
X4141981Y-8116457D01*
X4132457Y-8135505D01*
X4113409Y-8154552D01*
X4084838Y-8164076D01*
X4037219Y-8164076D01*
X4237219Y-8164076D02*
X4237219Y-8030743D01*
X4237219Y-8068838D02*
X4246743Y-8049790D01*
X4256267Y-8040267D01*
X4275314Y-8030743D01*
X4294362Y-8030743D01*
X4361029Y-8164076D02*
X4361029Y-8030743D01*
X4361029Y-7964076D02*
X4351505Y-7973600D01*
X4361029Y-7983124D01*
X4370552Y-7973600D01*
X4361029Y-7964076D01*
X4361029Y-7983124D01*
X4484838Y-8164076D02*
X4465790Y-8154552D01*
X4456267Y-8135505D01*
X4456267Y-7964076D01*
X4589600Y-8164076D02*
X4570552Y-8154552D01*
X4561029Y-8135505D01*
X4561029Y-7964076D01*
X4818171Y-8164076D02*
X4818171Y-7964076D01*
X4884838Y-8106933D01*
X4951505Y-7964076D01*
X4951505Y-8164076D01*
X5132457Y-8164076D02*
X5132457Y-8059314D01*
X5122933Y-8040267D01*
X5103886Y-8030743D01*
X5065790Y-8030743D01*
X5046743Y-8040267D01*
X5132457Y-8154552D02*
X5113410Y-8164076D01*
X5065790Y-8164076D01*
X5046743Y-8154552D01*
X5037219Y-8135505D01*
X5037219Y-8116457D01*
X5046743Y-8097409D01*
X5065790Y-8087886D01*
X5113410Y-8087886D01*
X5132457Y-8078362D01*
X5227695Y-8030743D02*
X5227695Y-8230743D01*
X5227695Y-8040267D02*
X5246743Y-8030743D01*
X5284838Y-8030743D01*
X5303886Y-8040267D01*
X5313410Y-8049790D01*
X5322933Y-8068838D01*
X5322933Y-8125981D01*
X5313410Y-8145028D01*
X5303886Y-8154552D01*
X5284838Y-8164076D01*
X5246743Y-8164076D01*
X5227695Y-8154552D01*
X5408648Y-8145028D02*
X5418171Y-8154552D01*
X5408648Y-8164076D01*
X5399124Y-8154552D01*
X5408648Y-8145028D01*
X5408648Y-8164076D01*
X5408648Y-8040267D02*
X5418171Y-8049790D01*
X5408648Y-8059314D01*
X5399124Y-8049790D01*
X5408648Y-8040267D01*
X5408648Y-8059314D01*
D12*
X3739600Y-8473600D02*
X3779600Y-8513600D01*
X3779600Y-8473600D02*
X3739600Y-8513600D01*
D11*
X4075314Y-8384076D02*
X4094362Y-8384076D01*
X4113409Y-8393600D01*
X4122933Y-8403124D01*
X4132457Y-8422171D01*
X4141981Y-8460267D01*
X4141981Y-8507886D01*
X4132457Y-8545981D01*
X4122933Y-8565029D01*
X4113409Y-8574552D01*
X4094362Y-8584076D01*
X4075314Y-8584076D01*
X4056267Y-8574552D01*
X4046743Y-8565029D01*
X4037219Y-8545981D01*
X4027695Y-8507886D01*
X4027695Y-8460267D01*
X4037219Y-8422171D01*
X4046743Y-8403124D01*
X4056267Y-8393600D01*
X4075314Y-8384076D01*
X4227695Y-8565029D02*
X4237219Y-8574552D01*
X4227695Y-8584076D01*
X4218171Y-8574552D01*
X4227695Y-8565029D01*
X4227695Y-8584076D01*
X4408648Y-8450743D02*
X4408648Y-8584076D01*
X4361029Y-8374552D02*
X4313410Y-8517410D01*
X4437219Y-8517410D01*
X4551505Y-8384076D02*
X4570552Y-8384076D01*
X4589600Y-8393600D01*
X4599124Y-8403124D01*
X4608648Y-8422171D01*
X4618171Y-8460267D01*
X4618171Y-8507886D01*
X4608648Y-8545981D01*
X4599124Y-8565029D01*
X4589600Y-8574552D01*
X4570552Y-8584076D01*
X4551505Y-8584076D01*
X4532457Y-8574552D01*
X4522933Y-8565029D01*
X4513410Y-8545981D01*
X4503886Y-8507886D01*
X4503886Y-8460267D01*
X4513410Y-8422171D01*
X4522933Y-8403124D01*
X4532457Y-8393600D01*
X4551505Y-8384076D01*
X4741981Y-8384076D02*
X4761029Y-8384076D01*
X4780076Y-8393600D01*
X4789600Y-8403124D01*
X4799124Y-8422171D01*
X4808648Y-8460267D01*
X4808648Y-8507886D01*
X4799124Y-8545981D01*
X4789600Y-8565029D01*
X4780076Y-8574552D01*
X4761029Y-8584076D01*
X4741981Y-8584076D01*
X4722933Y-8574552D01*
X4713410Y-8565029D01*
X4703886Y-8545981D01*
X4694362Y-8507886D01*
X4694362Y-8460267D01*
X4703886Y-8422171D01*
X4713410Y-8403124D01*
X4722933Y-8393600D01*
X4741981Y-8384076D01*
X4894362Y-8584076D02*
X4894362Y-8450743D01*
X4894362Y-8469790D02*
X4903886Y-8460267D01*
X4922933Y-8450743D01*
X4951505Y-8450743D01*
X4970552Y-8460267D01*
X4980076Y-8479314D01*
X4980076Y-8584076D01*
X4980076Y-8479314D02*
X4989600Y-8460267D01*
X5008648Y-8450743D01*
X5037219Y-8450743D01*
X5056267Y-8460267D01*
X5065790Y-8479314D01*
X5065790Y-8584076D01*
X5161029Y-8584076D02*
X5161029Y-8450743D01*
X5161029Y-8469790D02*
X5170552Y-8460267D01*
X5189600Y-8450743D01*
X5218171Y-8450743D01*
X5237219Y-8460267D01*
X5246743Y-8479314D01*
X5246743Y-8584076D01*
X5246743Y-8479314D02*
X5256267Y-8460267D01*
X5275314Y-8450743D01*
X5303886Y-8450743D01*
X5322933Y-8460267D01*
X5332457Y-8479314D01*
X5332457Y-8584076D01*
X5722933Y-8374552D02*
X5551505Y-8631695D01*
X5980076Y-8384076D02*
X5999124Y-8384076D01*
X6018171Y-8393600D01*
X6027695Y-8403124D01*
X6037219Y-8422171D01*
X6046743Y-8460267D01*
X6046743Y-8507886D01*
X6037219Y-8545981D01*
X6027695Y-8565029D01*
X6018171Y-8574552D01*
X5999124Y-8584076D01*
X5980076Y-8584076D01*
X5961028Y-8574552D01*
X5951505Y-8565029D01*
X5941981Y-8545981D01*
X5932457Y-8507886D01*
X5932457Y-8460267D01*
X5941981Y-8422171D01*
X5951505Y-8403124D01*
X5961028Y-8393600D01*
X5980076Y-8384076D01*
X6132457Y-8565029D02*
X6141981Y-8574552D01*
X6132457Y-8584076D01*
X6122933Y-8574552D01*
X6132457Y-8565029D01*
X6132457Y-8584076D01*
X6265790Y-8384076D02*
X6284838Y-8384076D01*
X6303886Y-8393600D01*
X6313409Y-8403124D01*
X6322933Y-8422171D01*
X6332457Y-8460267D01*
X6332457Y-8507886D01*
X6322933Y-8545981D01*
X6313409Y-8565029D01*
X6303886Y-8574552D01*
X6284838Y-8584076D01*
X6265790Y-8584076D01*
X6246743Y-8574552D01*
X6237219Y-8565029D01*
X6227695Y-8545981D01*
X6218171Y-8507886D01*
X6218171Y-8460267D01*
X6227695Y-8422171D01*
X6237219Y-8403124D01*
X6246743Y-8393600D01*
X6265790Y-8384076D01*
X6522933Y-8584076D02*
X6408648Y-8584076D01*
X6465790Y-8584076D02*
X6465790Y-8384076D01*
X6446743Y-8412648D01*
X6427695Y-8431695D01*
X6408648Y-8441219D01*
X6703886Y-8384076D02*
X6608648Y-8384076D01*
X6599124Y-8479314D01*
X6608648Y-8469790D01*
X6627695Y-8460267D01*
X6675314Y-8460267D01*
X6694362Y-8469790D01*
X6703886Y-8479314D01*
X6713409Y-8498362D01*
X6713409Y-8545981D01*
X6703886Y-8565029D01*
X6694362Y-8574552D01*
X6675314Y-8584076D01*
X6627695Y-8584076D01*
X6608648Y-8574552D01*
X6599124Y-8565029D01*
X6780076Y-8384076D02*
X6913409Y-8384076D01*
X6827695Y-8584076D01*
X6980076Y-8384076D02*
X6980076Y-8422171D01*
X7056267Y-8384076D02*
X7056267Y-8422171D01*
X7351505Y-8660267D02*
X7341981Y-8650743D01*
X7322933Y-8622171D01*
X7313409Y-8603124D01*
X7303886Y-8574552D01*
X7294362Y-8526933D01*
X7294362Y-8488838D01*
X7303886Y-8441219D01*
X7313409Y-8412648D01*
X7322933Y-8393600D01*
X7341981Y-8365028D01*
X7351505Y-8355505D01*
X7532457Y-8584076D02*
X7418171Y-8584076D01*
X7475314Y-8584076D02*
X7475314Y-8384076D01*
X7456267Y-8412648D01*
X7437219Y-8431695D01*
X7418171Y-8441219D01*
X7646743Y-8469790D02*
X7627695Y-8460267D01*
X7618171Y-8450743D01*
X7608648Y-8431695D01*
X7608648Y-8422171D01*
X7618171Y-8403124D01*
X7627695Y-8393600D01*
X7646743Y-8384076D01*
X7684838Y-8384076D01*
X7703886Y-8393600D01*
X7713409Y-8403124D01*
X7722933Y-8422171D01*
X7722933Y-8431695D01*
X7713409Y-8450743D01*
X7703886Y-8460267D01*
X7684838Y-8469790D01*
X7646743Y-8469790D01*
X7627695Y-8479314D01*
X7618171Y-8488838D01*
X7608648Y-8507886D01*
X7608648Y-8545981D01*
X7618171Y-8565029D01*
X7627695Y-8574552D01*
X7646743Y-8584076D01*
X7684838Y-8584076D01*
X7703886Y-8574552D01*
X7713409Y-8565029D01*
X7722933Y-8545981D01*
X7722933Y-8507886D01*
X7713409Y-8488838D01*
X7703886Y-8479314D01*
X7684838Y-8469790D01*
X7961028Y-8584076D02*
X7961028Y-8384076D01*
X8046743Y-8584076D02*
X8046743Y-8479314D01*
X8037219Y-8460267D01*
X8018171Y-8450743D01*
X7989600Y-8450743D01*
X7970552Y-8460267D01*
X7961028Y-8469790D01*
X8170552Y-8584076D02*
X8151505Y-8574552D01*
X8141981Y-8565029D01*
X8132457Y-8545981D01*
X8132457Y-8488838D01*
X8141981Y-8469790D01*
X8151505Y-8460267D01*
X8170552Y-8450743D01*
X8199124Y-8450743D01*
X8218171Y-8460267D01*
X8227695Y-8469790D01*
X8237219Y-8488838D01*
X8237219Y-8545981D01*
X8227695Y-8565029D01*
X8218171Y-8574552D01*
X8199124Y-8584076D01*
X8170552Y-8584076D01*
X8351505Y-8584076D02*
X8332457Y-8574552D01*
X8322933Y-8555505D01*
X8322933Y-8384076D01*
X8503886Y-8574552D02*
X8484838Y-8584076D01*
X8446743Y-8584076D01*
X8427695Y-8574552D01*
X8418171Y-8555505D01*
X8418171Y-8479314D01*
X8427695Y-8460267D01*
X8446743Y-8450743D01*
X8484838Y-8450743D01*
X8503886Y-8460267D01*
X8513410Y-8479314D01*
X8513410Y-8498362D01*
X8418171Y-8517410D01*
X8589600Y-8574552D02*
X8608648Y-8584076D01*
X8646743Y-8584076D01*
X8665790Y-8574552D01*
X8675314Y-8555505D01*
X8675314Y-8545981D01*
X8665790Y-8526933D01*
X8646743Y-8517410D01*
X8618171Y-8517410D01*
X8599124Y-8507886D01*
X8589600Y-8488838D01*
X8589600Y-8479314D01*
X8599124Y-8460267D01*
X8618171Y-8450743D01*
X8646743Y-8450743D01*
X8665790Y-8460267D01*
X8741981Y-8660267D02*
X8751505Y-8650743D01*
X8770552Y-8622171D01*
X8780076Y-8603124D01*
X8789600Y-8574552D01*
X8799124Y-8526933D01*
X8799124Y-8488838D01*
X8789600Y-8441219D01*
X8780076Y-8412648D01*
X8770552Y-8393600D01*
X8751505Y-8365028D01*
X8741981Y-8355505D01*
D10*
X3779600Y-8757600D02*
G75*
G03*
X3779600Y-8757600I-50000J0D01*
G01*
D11*
X4141981Y-8848076D02*
X4027695Y-8848076D01*
X4084838Y-8848076D02*
X4084838Y-8648076D01*
X4065790Y-8676648D01*
X4046743Y-8695695D01*
X4027695Y-8705219D01*
X4227695Y-8829029D02*
X4237219Y-8838552D01*
X4227695Y-8848076D01*
X4218171Y-8838552D01*
X4227695Y-8829029D01*
X4227695Y-8848076D01*
X4361029Y-8648076D02*
X4380076Y-8648076D01*
X4399124Y-8657600D01*
X4408648Y-8667124D01*
X4418171Y-8686171D01*
X4427695Y-8724267D01*
X4427695Y-8771886D01*
X4418171Y-8809981D01*
X4408648Y-8829029D01*
X4399124Y-8838552D01*
X4380076Y-8848076D01*
X4361029Y-8848076D01*
X4341981Y-8838552D01*
X4332457Y-8829029D01*
X4322933Y-8809981D01*
X4313410Y-8771886D01*
X4313410Y-8724267D01*
X4322933Y-8686171D01*
X4332457Y-8667124D01*
X4341981Y-8657600D01*
X4361029Y-8648076D01*
X4551505Y-8648076D02*
X4570552Y-8648076D01*
X4589600Y-8657600D01*
X4599124Y-8667124D01*
X4608648Y-8686171D01*
X4618171Y-8724267D01*
X4618171Y-8771886D01*
X4608648Y-8809981D01*
X4599124Y-8829029D01*
X4589600Y-8838552D01*
X4570552Y-8848076D01*
X4551505Y-8848076D01*
X4532457Y-8838552D01*
X4522933Y-8829029D01*
X4513410Y-8809981D01*
X4503886Y-8771886D01*
X4503886Y-8724267D01*
X4513410Y-8686171D01*
X4522933Y-8667124D01*
X4532457Y-8657600D01*
X4551505Y-8648076D01*
X4741981Y-8648076D02*
X4761029Y-8648076D01*
X4780076Y-8657600D01*
X4789600Y-8667124D01*
X4799124Y-8686171D01*
X4808648Y-8724267D01*
X4808648Y-8771886D01*
X4799124Y-8809981D01*
X4789600Y-8829029D01*
X4780076Y-8838552D01*
X4761029Y-8848076D01*
X4741981Y-8848076D01*
X4722933Y-8838552D01*
X4713410Y-8829029D01*
X4703886Y-8809981D01*
X4694362Y-8771886D01*
X4694362Y-8724267D01*
X4703886Y-8686171D01*
X4713410Y-8667124D01*
X4722933Y-8657600D01*
X4741981Y-8648076D01*
X4894362Y-8848076D02*
X4894362Y-8714743D01*
X4894362Y-8733790D02*
X4903886Y-8724267D01*
X4922933Y-8714743D01*
X4951505Y-8714743D01*
X4970552Y-8724267D01*
X4980076Y-8743314D01*
X4980076Y-8848076D01*
X4980076Y-8743314D02*
X4989600Y-8724267D01*
X5008648Y-8714743D01*
X5037219Y-8714743D01*
X5056267Y-8724267D01*
X5065790Y-8743314D01*
X5065790Y-8848076D01*
X5161029Y-8848076D02*
X5161029Y-8714743D01*
X5161029Y-8733790D02*
X5170552Y-8724267D01*
X5189600Y-8714743D01*
X5218171Y-8714743D01*
X5237219Y-8724267D01*
X5246743Y-8743314D01*
X5246743Y-8848076D01*
X5246743Y-8743314D02*
X5256267Y-8724267D01*
X5275314Y-8714743D01*
X5303886Y-8714743D01*
X5322933Y-8724267D01*
X5332457Y-8743314D01*
X5332457Y-8848076D01*
X5722933Y-8638552D02*
X5551505Y-8895695D01*
X5980076Y-8648076D02*
X5999124Y-8648076D01*
X6018171Y-8657600D01*
X6027695Y-8667124D01*
X6037219Y-8686171D01*
X6046743Y-8724267D01*
X6046743Y-8771886D01*
X6037219Y-8809981D01*
X6027695Y-8829029D01*
X6018171Y-8838552D01*
X5999124Y-8848076D01*
X5980076Y-8848076D01*
X5961028Y-8838552D01*
X5951505Y-8829029D01*
X5941981Y-8809981D01*
X5932457Y-8771886D01*
X5932457Y-8724267D01*
X5941981Y-8686171D01*
X5951505Y-8667124D01*
X5961028Y-8657600D01*
X5980076Y-8648076D01*
X6132457Y-8829029D02*
X6141981Y-8838552D01*
X6132457Y-8848076D01*
X6122933Y-8838552D01*
X6132457Y-8829029D01*
X6132457Y-8848076D01*
X6265790Y-8648076D02*
X6284838Y-8648076D01*
X6303886Y-8657600D01*
X6313409Y-8667124D01*
X6322933Y-8686171D01*
X6332457Y-8724267D01*
X6332457Y-8771886D01*
X6322933Y-8809981D01*
X6313409Y-8829029D01*
X6303886Y-8838552D01*
X6284838Y-8848076D01*
X6265790Y-8848076D01*
X6246743Y-8838552D01*
X6237219Y-8829029D01*
X6227695Y-8809981D01*
X6218171Y-8771886D01*
X6218171Y-8724267D01*
X6227695Y-8686171D01*
X6237219Y-8667124D01*
X6246743Y-8657600D01*
X6265790Y-8648076D01*
X6399124Y-8648076D02*
X6522933Y-8648076D01*
X6456267Y-8724267D01*
X6484838Y-8724267D01*
X6503886Y-8733790D01*
X6513409Y-8743314D01*
X6522933Y-8762362D01*
X6522933Y-8809981D01*
X6513409Y-8829029D01*
X6503886Y-8838552D01*
X6484838Y-8848076D01*
X6427695Y-8848076D01*
X6408648Y-8838552D01*
X6399124Y-8829029D01*
X6618171Y-8848076D02*
X6656267Y-8848076D01*
X6675314Y-8838552D01*
X6684838Y-8829029D01*
X6703886Y-8800457D01*
X6713409Y-8762362D01*
X6713409Y-8686171D01*
X6703886Y-8667124D01*
X6694362Y-8657600D01*
X6675314Y-8648076D01*
X6637219Y-8648076D01*
X6618171Y-8657600D01*
X6608648Y-8667124D01*
X6599124Y-8686171D01*
X6599124Y-8733790D01*
X6608648Y-8752838D01*
X6618171Y-8762362D01*
X6637219Y-8771886D01*
X6675314Y-8771886D01*
X6694362Y-8762362D01*
X6703886Y-8752838D01*
X6713409Y-8733790D01*
X6884838Y-8714743D02*
X6884838Y-8848076D01*
X6837219Y-8638552D02*
X6789600Y-8781410D01*
X6913409Y-8781410D01*
X6980076Y-8648076D02*
X6980076Y-8686171D01*
X7056267Y-8648076D02*
X7056267Y-8686171D01*
X7351505Y-8924267D02*
X7341981Y-8914743D01*
X7322933Y-8886171D01*
X7313409Y-8867124D01*
X7303886Y-8838552D01*
X7294362Y-8790933D01*
X7294362Y-8752838D01*
X7303886Y-8705219D01*
X7313409Y-8676648D01*
X7322933Y-8657600D01*
X7341981Y-8629029D01*
X7351505Y-8619505D01*
X7513409Y-8714743D02*
X7513409Y-8848076D01*
X7465790Y-8638552D02*
X7418171Y-8781410D01*
X7541981Y-8781410D01*
X7713409Y-8648076D02*
X7618171Y-8648076D01*
X7608648Y-8743314D01*
X7618171Y-8733790D01*
X7637219Y-8724267D01*
X7684838Y-8724267D01*
X7703886Y-8733790D01*
X7713409Y-8743314D01*
X7722933Y-8762362D01*
X7722933Y-8809981D01*
X7713409Y-8829029D01*
X7703886Y-8838552D01*
X7684838Y-8848076D01*
X7637219Y-8848076D01*
X7618171Y-8838552D01*
X7608648Y-8829029D01*
X7961028Y-8848076D02*
X7961028Y-8648076D01*
X8046743Y-8848076D02*
X8046743Y-8743314D01*
X8037219Y-8724267D01*
X8018171Y-8714743D01*
X7989600Y-8714743D01*
X7970552Y-8724267D01*
X7961028Y-8733790D01*
X8170552Y-8848076D02*
X8151505Y-8838552D01*
X8141981Y-8829029D01*
X8132457Y-8809981D01*
X8132457Y-8752838D01*
X8141981Y-8733790D01*
X8151505Y-8724267D01*
X8170552Y-8714743D01*
X8199124Y-8714743D01*
X8218171Y-8724267D01*
X8227695Y-8733790D01*
X8237219Y-8752838D01*
X8237219Y-8809981D01*
X8227695Y-8829029D01*
X8218171Y-8838552D01*
X8199124Y-8848076D01*
X8170552Y-8848076D01*
X8351505Y-8848076D02*
X8332457Y-8838552D01*
X8322933Y-8819505D01*
X8322933Y-8648076D01*
X8503886Y-8838552D02*
X8484838Y-8848076D01*
X8446743Y-8848076D01*
X8427695Y-8838552D01*
X8418171Y-8819505D01*
X8418171Y-8743314D01*
X8427695Y-8724267D01*
X8446743Y-8714743D01*
X8484838Y-8714743D01*
X8503886Y-8724267D01*
X8513410Y-8743314D01*
X8513410Y-8762362D01*
X8418171Y-8781410D01*
X8589600Y-8838552D02*
X8608648Y-8848076D01*
X8646743Y-8848076D01*
X8665790Y-8838552D01*
X8675314Y-8819505D01*
X8675314Y-8809981D01*
X8665790Y-8790933D01*
X8646743Y-8781410D01*
X8618171Y-8781410D01*
X8599124Y-8771886D01*
X8589600Y-8752838D01*
X8589600Y-8743314D01*
X8599124Y-8724267D01*
X8618171Y-8714743D01*
X8646743Y-8714743D01*
X8665790Y-8724267D01*
X8741981Y-8924267D02*
X8751505Y-8914743D01*
X8770552Y-8886171D01*
X8780076Y-8867124D01*
X8789600Y-8838552D01*
X8799124Y-8790933D01*
X8799124Y-8752838D01*
X8789600Y-8705219D01*
X8780076Y-8676648D01*
X8770552Y-8657600D01*
X8751505Y-8629029D01*
X8741981Y-8619505D01*
M02*
