%TF.GenerationSoftware,KiCad,Pcbnew,7.0.7*%
%TF.CreationDate,2023-11-09T10:03:36+00:00*%
%TF.ProjectId,MSX_FPGA_Hat,4d53585f-4650-4474-915f-4861742e6b69,1.5*%
%TF.SameCoordinates,Original*%
%TF.FileFunction,Soldermask,Bot*%
%TF.FilePolarity,Negative*%
%FSLAX46Y46*%
G04 Gerber Fmt 4.6, Leading zero omitted, Abs format (unit mm)*
G04 Created by KiCad (PCBNEW 7.0.7) date 2023-11-09 10:03:36*
%MOMM*%
%LPD*%
G01*
G04 APERTURE LIST*
%ADD10C,0.150000*%
%ADD11C,1.600000*%
%ADD12R,1.600000X1.600000*%
%ADD13O,1.600000X1.600000*%
%ADD14R,1.700000X1.700000*%
%ADD15O,1.700000X1.700000*%
%ADD16R,1.500000X8.000000*%
G04 APERTURE END LIST*
D10*
X140970000Y-86360000D02*
X74930000Y-86360000D01*
X74930000Y-76200000D01*
X140970000Y-76200000D01*
X140970000Y-86360000D01*
G36*
X140970000Y-86360000D02*
G01*
X74930000Y-86360000D01*
X74930000Y-76200000D01*
X140970000Y-76200000D01*
X140970000Y-86360000D01*
G37*
D11*
%TO.C,C1*%
X61505859Y-45328812D03*
X61505859Y-47828812D03*
%TD*%
%TO.C,C7*%
X61722000Y-26904000D03*
X61722000Y-24404000D03*
%TD*%
D12*
%TO.C,U3*%
X91699000Y-59172000D03*
D13*
X94239000Y-59172000D03*
X96779000Y-59172000D03*
X99319000Y-59172000D03*
X101859000Y-59172000D03*
X104399000Y-59172000D03*
X106939000Y-59172000D03*
X109479000Y-59172000D03*
X112019000Y-59172000D03*
X114559000Y-59172000D03*
X114559000Y-51552000D03*
X112019000Y-51552000D03*
X109479000Y-51552000D03*
X106939000Y-51552000D03*
X104399000Y-51552000D03*
X101859000Y-51552000D03*
X99319000Y-51552000D03*
X96779000Y-51552000D03*
X94239000Y-51552000D03*
X91699000Y-51552000D03*
%TD*%
D14*
%TO.C,J5*%
X65786000Y-25400000D03*
D15*
X65786000Y-27940000D03*
X65786000Y-30480000D03*
%TD*%
D11*
%TO.C,R7*%
X146558000Y-62230000D03*
D13*
X138938000Y-62230000D03*
%TD*%
D11*
%TO.C,C2*%
X61562447Y-42735930D03*
X61562447Y-40235930D03*
%TD*%
D12*
%TO.C,C9*%
X133945621Y-30734000D03*
D11*
X136445621Y-30734000D03*
%TD*%
D14*
%TO.C,SW1*%
X133878000Y-24613000D03*
D15*
X136418000Y-24613000D03*
%TD*%
D14*
%TO.C,IDC1*%
X127632000Y-25706000D03*
D15*
X127632000Y-28246000D03*
X125092000Y-25706000D03*
X125092000Y-28246000D03*
X122552000Y-25706000D03*
X122552000Y-28246000D03*
X120012000Y-25706000D03*
X120012000Y-28246000D03*
X117472000Y-25706000D03*
X117472000Y-28246000D03*
X114932000Y-25706000D03*
X114932000Y-28246000D03*
X112392000Y-25706000D03*
X112392000Y-28246000D03*
X109852000Y-25706000D03*
X109852000Y-28246000D03*
X107312000Y-25706000D03*
X107312000Y-28246000D03*
X104772000Y-25706000D03*
X104772000Y-28246000D03*
X102232000Y-25706000D03*
X102232000Y-28246000D03*
X99692000Y-25706000D03*
X99692000Y-28246000D03*
X97152000Y-25706000D03*
X97152000Y-28246000D03*
X94612000Y-25706000D03*
X94612000Y-28246000D03*
X92072000Y-25706000D03*
X92072000Y-28246000D03*
X89532000Y-25706000D03*
X89532000Y-28246000D03*
X86992000Y-25706000D03*
X86992000Y-28246000D03*
X84452000Y-25706000D03*
X84452000Y-28246000D03*
X81912000Y-25706000D03*
X81912000Y-28246000D03*
X79372000Y-25706000D03*
X79372000Y-28246000D03*
%TD*%
D11*
%TO.C,C5*%
X120396000Y-46188000D03*
X120396000Y-43688000D03*
%TD*%
%TO.C,R4*%
X99060000Y-45466000D03*
D13*
X91440000Y-45466000D03*
%TD*%
D16*
%TO.C,CONN1*%
X138382025Y-81007202D03*
X135842025Y-81007202D03*
X133302025Y-81007202D03*
X130762025Y-81007202D03*
X128222025Y-81007202D03*
X125682025Y-81007202D03*
X123142025Y-81007202D03*
X120602025Y-81007202D03*
X118062025Y-81007202D03*
X115522025Y-81007202D03*
X112982025Y-81007202D03*
X110442025Y-81007202D03*
X107902025Y-81007202D03*
X105362025Y-81007202D03*
X102822025Y-81007202D03*
X100282025Y-81007202D03*
X97742025Y-81007202D03*
X95202025Y-81007202D03*
X92662025Y-81007202D03*
X90122025Y-81007202D03*
X87582025Y-81007202D03*
X85042025Y-81007202D03*
X82502025Y-81007202D03*
X79962025Y-81007202D03*
X77422025Y-81007202D03*
%TD*%
D11*
%TO.C,D1*%
X149860000Y-62484000D03*
D13*
X149860000Y-54864000D03*
%TD*%
D11*
%TO.C,R3*%
X131052000Y-62280630D03*
D13*
X123432000Y-62280630D03*
%TD*%
D12*
%TO.C,RN5*%
X75661725Y-61017219D03*
D13*
X73121725Y-61017219D03*
X70581725Y-61017219D03*
X68041725Y-61017219D03*
X65501725Y-61017219D03*
X62961725Y-61017219D03*
X60421725Y-61017219D03*
X57881725Y-61017219D03*
X55341725Y-61017219D03*
%TD*%
D12*
%TO.C,RN4*%
X107427000Y-33528000D03*
D13*
X109967000Y-33528000D03*
X112507000Y-33528000D03*
X115047000Y-33528000D03*
X117587000Y-33528000D03*
X120127000Y-33528000D03*
X122667000Y-33528000D03*
X125207000Y-33528000D03*
X127747000Y-33528000D03*
%TD*%
D12*
%TO.C,U5*%
X123360000Y-49226000D03*
D13*
X125900000Y-49226000D03*
X128440000Y-49226000D03*
X130980000Y-49226000D03*
X133520000Y-49226000D03*
X136060000Y-49226000D03*
X138600000Y-49226000D03*
X141140000Y-49226000D03*
X143680000Y-49226000D03*
X146220000Y-49226000D03*
X146220000Y-41606000D03*
X143680000Y-41606000D03*
X141140000Y-41606000D03*
X138600000Y-41606000D03*
X136060000Y-41606000D03*
X133520000Y-41606000D03*
X130980000Y-41606000D03*
X128440000Y-41606000D03*
X125900000Y-41606000D03*
X123360000Y-41606000D03*
%TD*%
D12*
%TO.C,RN1*%
X100076000Y-37084000D03*
D13*
X97536000Y-37084000D03*
X94996000Y-37084000D03*
X92456000Y-37084000D03*
X89916000Y-37084000D03*
X87376000Y-37084000D03*
X84836000Y-37084000D03*
X82296000Y-37084000D03*
X79756000Y-37084000D03*
%TD*%
D11*
%TO.C,R8*%
X146558000Y-65501812D03*
D13*
X138938000Y-65501812D03*
%TD*%
D11*
%TO.C,R5*%
X107442000Y-45466000D03*
D13*
X115062000Y-45466000D03*
%TD*%
D11*
%TO.C,C3*%
X88900000Y-56368000D03*
X88900000Y-53868000D03*
%TD*%
%TO.C,D2*%
X149860000Y-41656000D03*
D13*
X149860000Y-34036000D03*
%TD*%
D12*
%TO.C,RN2*%
X100091000Y-33528000D03*
D13*
X97551000Y-33528000D03*
X95011000Y-33528000D03*
X92471000Y-33528000D03*
X89931000Y-33528000D03*
X87391000Y-33528000D03*
X84851000Y-33528000D03*
X82311000Y-33528000D03*
X79771000Y-33528000D03*
%TD*%
D11*
%TO.C,R2*%
X57335866Y-40224562D03*
D13*
X57335866Y-47844562D03*
%TD*%
D12*
%TO.C,U1*%
X56748709Y-57897829D03*
D13*
X59288709Y-57897829D03*
X61828709Y-57897829D03*
X64368709Y-57897829D03*
X66908709Y-57897829D03*
X69448709Y-57897829D03*
X71988709Y-57897829D03*
X74528709Y-57897829D03*
X77068709Y-57897829D03*
X79608709Y-57897829D03*
X79608709Y-50277829D03*
X77068709Y-50277829D03*
X74528709Y-50277829D03*
X71988709Y-50277829D03*
X69448709Y-50277829D03*
X66908709Y-50277829D03*
X64368709Y-50277829D03*
X61828709Y-50277829D03*
X59288709Y-50277829D03*
X56748709Y-50277829D03*
%TD*%
D12*
%TO.C,C8*%
X71628000Y-28027621D03*
D11*
X71628000Y-30527621D03*
%TD*%
%TO.C,R6*%
X66933441Y-37333077D03*
D13*
X74553441Y-37333077D03*
%TD*%
D11*
%TO.C,C6*%
X61722000Y-31750000D03*
X61722000Y-29250000D03*
%TD*%
D12*
%TO.C,U2*%
X64380328Y-47885400D03*
D13*
X66920328Y-47885400D03*
X69460328Y-47885400D03*
X72000328Y-47885400D03*
X74540328Y-47885400D03*
X77080328Y-47885400D03*
X79620328Y-47885400D03*
X82160328Y-47885400D03*
X84700328Y-47885400D03*
X87240328Y-47885400D03*
X87240328Y-40265400D03*
X84700328Y-40265400D03*
X82160328Y-40265400D03*
X79620328Y-40265400D03*
X77080328Y-40265400D03*
X74540328Y-40265400D03*
X72000328Y-40265400D03*
X69460328Y-40265400D03*
X66920328Y-40265400D03*
X64380328Y-40265400D03*
%TD*%
D11*
%TO.C,R1*%
X64480620Y-37333077D03*
D13*
X56860620Y-37333077D03*
%TD*%
D11*
%TO.C,C4*%
X120396000Y-56876000D03*
X120396000Y-54376000D03*
%TD*%
D14*
%TO.C,J2*%
X149860000Y-24907000D03*
D15*
X149860000Y-27447000D03*
X149860000Y-29987000D03*
%TD*%
D14*
%TO.C,J1*%
X141986000Y-24887000D03*
D15*
X144526000Y-24887000D03*
X141986000Y-27427000D03*
X144526000Y-27427000D03*
X141986000Y-29967000D03*
X144526000Y-29967000D03*
%TD*%
D11*
%TO.C,R9*%
X149860000Y-44450000D03*
D13*
X149860000Y-52070000D03*
%TD*%
D12*
%TO.C,RN3*%
X107427000Y-37084000D03*
D13*
X109967000Y-37084000D03*
X112507000Y-37084000D03*
X115047000Y-37084000D03*
X117587000Y-37084000D03*
X120127000Y-37084000D03*
X122667000Y-37084000D03*
X125207000Y-37084000D03*
X127747000Y-37084000D03*
%TD*%
D11*
%TO.C,R10*%
X138430000Y-38608000D03*
D13*
X146050000Y-38608000D03*
%TD*%
D12*
%TO.C,U4*%
X123308514Y-59488874D03*
D13*
X125848514Y-59488874D03*
X128388514Y-59488874D03*
X130928514Y-59488874D03*
X133468514Y-59488874D03*
X136008514Y-59488874D03*
X138548514Y-59488874D03*
X141088514Y-59488874D03*
X143628514Y-59488874D03*
X146168514Y-59488874D03*
X146168514Y-51868874D03*
X143628514Y-51868874D03*
X141088514Y-51868874D03*
X138548514Y-51868874D03*
X136008514Y-51868874D03*
X133468514Y-51868874D03*
X130928514Y-51868874D03*
X128388514Y-51868874D03*
X125848514Y-51868874D03*
X123308514Y-51868874D03*
%TD*%
M02*
