%TF.GenerationSoftware,KiCad,Pcbnew,7.0.7*%
%TF.CreationDate,2023-11-09T10:03:33+00:00*%
%TF.ProjectId,MSX_FPGA_Hat,4d53585f-4650-4474-915f-4861742e6b69,1.5*%
%TF.SameCoordinates,Original*%
%TF.FileFunction,Drillmap*%
%TF.FilePolarity,Positive*%
%FSLAX45Y45*%
G04 Gerber Fmt 4.5, Leading zero omitted, Abs format (unit mm)*
G04 Created by KiCad (PCBNEW 7.0.7) date 2023-11-09 10:03:33*
%MOMM*%
%LPD*%
G01*
G04 APERTURE LIST*
%ADD10C,0.200000*%
G04 APERTURE END LIST*
D10*
X5519777Y-8936564D02*
X5519777Y-8736564D01*
X5519777Y-8736564D02*
X5567396Y-8736564D01*
X5567396Y-8736564D02*
X5595967Y-8746088D01*
X5595967Y-8746088D02*
X5615015Y-8765136D01*
X5615015Y-8765136D02*
X5624539Y-8784183D01*
X5624539Y-8784183D02*
X5634062Y-8822279D01*
X5634062Y-8822279D02*
X5634062Y-8850850D01*
X5634062Y-8850850D02*
X5624539Y-8888945D01*
X5624539Y-8888945D02*
X5615015Y-8907993D01*
X5615015Y-8907993D02*
X5595967Y-8927041D01*
X5595967Y-8927041D02*
X5567396Y-8936564D01*
X5567396Y-8936564D02*
X5519777Y-8936564D01*
X5719777Y-8936564D02*
X5719777Y-8803231D01*
X5719777Y-8841326D02*
X5729301Y-8822279D01*
X5729301Y-8822279D02*
X5738824Y-8812755D01*
X5738824Y-8812755D02*
X5757872Y-8803231D01*
X5757872Y-8803231D02*
X5776920Y-8803231D01*
X5843586Y-8936564D02*
X5843586Y-8803231D01*
X5843586Y-8736564D02*
X5834062Y-8746088D01*
X5834062Y-8746088D02*
X5843586Y-8755612D01*
X5843586Y-8755612D02*
X5853110Y-8746088D01*
X5853110Y-8746088D02*
X5843586Y-8736564D01*
X5843586Y-8736564D02*
X5843586Y-8755612D01*
X5967396Y-8936564D02*
X5948348Y-8927041D01*
X5948348Y-8927041D02*
X5938824Y-8907993D01*
X5938824Y-8907993D02*
X5938824Y-8736564D01*
X6072158Y-8936564D02*
X6053110Y-8927041D01*
X6053110Y-8927041D02*
X6043586Y-8907993D01*
X6043586Y-8907993D02*
X6043586Y-8736564D01*
X6300729Y-8936564D02*
X6300729Y-8736564D01*
X6300729Y-8736564D02*
X6367396Y-8879422D01*
X6367396Y-8879422D02*
X6434062Y-8736564D01*
X6434062Y-8736564D02*
X6434062Y-8936564D01*
X6615015Y-8936564D02*
X6615015Y-8831803D01*
X6615015Y-8831803D02*
X6605491Y-8812755D01*
X6605491Y-8812755D02*
X6586443Y-8803231D01*
X6586443Y-8803231D02*
X6548348Y-8803231D01*
X6548348Y-8803231D02*
X6529301Y-8812755D01*
X6615015Y-8927041D02*
X6595967Y-8936564D01*
X6595967Y-8936564D02*
X6548348Y-8936564D01*
X6548348Y-8936564D02*
X6529301Y-8927041D01*
X6529301Y-8927041D02*
X6519777Y-8907993D01*
X6519777Y-8907993D02*
X6519777Y-8888945D01*
X6519777Y-8888945D02*
X6529301Y-8869898D01*
X6529301Y-8869898D02*
X6548348Y-8860374D01*
X6548348Y-8860374D02*
X6595967Y-8860374D01*
X6595967Y-8860374D02*
X6615015Y-8850850D01*
X6710253Y-8803231D02*
X6710253Y-9003231D01*
X6710253Y-8812755D02*
X6729301Y-8803231D01*
X6729301Y-8803231D02*
X6767396Y-8803231D01*
X6767396Y-8803231D02*
X6786443Y-8812755D01*
X6786443Y-8812755D02*
X6795967Y-8822279D01*
X6795967Y-8822279D02*
X6805491Y-8841326D01*
X6805491Y-8841326D02*
X6805491Y-8898469D01*
X6805491Y-8898469D02*
X6795967Y-8917517D01*
X6795967Y-8917517D02*
X6786443Y-8927041D01*
X6786443Y-8927041D02*
X6767396Y-8936564D01*
X6767396Y-8936564D02*
X6729301Y-8936564D01*
X6729301Y-8936564D02*
X6710253Y-8927041D01*
X6891205Y-8917517D02*
X6900729Y-8927041D01*
X6900729Y-8927041D02*
X6891205Y-8936564D01*
X6891205Y-8936564D02*
X6881682Y-8927041D01*
X6881682Y-8927041D02*
X6891205Y-8917517D01*
X6891205Y-8917517D02*
X6891205Y-8936564D01*
X6891205Y-8812755D02*
X6900729Y-8822279D01*
X6900729Y-8822279D02*
X6891205Y-8831803D01*
X6891205Y-8831803D02*
X6881682Y-8822279D01*
X6881682Y-8822279D02*
X6891205Y-8812755D01*
X6891205Y-8812755D02*
X6891205Y-8831803D01*
M02*
