M48
; DRILL file {KiCad 7.0.7} date Thu Nov  9 10:03:31 2023
; FORMAT={-:-/ absolute / inch / decimal}
; #@! TF.CreationDate,2023-11-09T10:03:31+00:00
; #@! TF.GenerationSoftware,Kicad,Pcbnew,7.0.7
; #@! TF.FileFunction,Plated,1,2,PTH
FMAT,2
INCH
; #@! TA.AperFunction,Plated,PTH,ViaDrill
T1C0.0157
; #@! TA.AperFunction,Plated,PTH,ComponentDrill
T2C0.0315
; #@! TA.AperFunction,Plated,PTH,ComponentDrill
T3C0.0394
%
G90
G05
T1
X2.18Y-1.13
X2.7Y-1.15
X2.75Y-2.85
X2.8531Y-1.3786
X2.95Y-0.97
X3.0223Y-2.587
X3.05Y-2.2
X3.0706Y-2.0325
X3.1607Y-2.9016
X3.3356Y-2.9648
X3.4282Y-2.202
X3.4963Y-2.6286
X3.5Y-1.8
X3.5421Y-2.9698
X3.5497Y-1.7003
X3.65Y-2.95
X3.7493Y-2.9507
X3.7762Y-2.2436
X3.8481Y-2.9663
X3.9265Y-2.9564
X4.0Y-2.65
X4.0484Y-2.9271
X4.1371Y-2.9827
X4.2475Y-2.9688
X4.3356Y-2.8494
X4.4045Y-2.8504
X4.41Y-1.57
X4.51Y-1.57
X4.58Y-2.04
X4.5945Y-2.875
X4.6512Y-2.3297
X4.68Y-1.86
X4.687Y-2.876
X4.7481Y-2.8769
X4.77Y-0.95
X4.86Y-2.1
X4.8986Y-2.877
X4.9Y-2.5828
X4.9941Y-2.8809
X5.05Y-1.5515
X5.0896Y-2.872
X5.0975Y-2.4451
X5.1026Y-1.7444
X5.14Y-1.3
X5.1722Y-2.1715
X5.186Y-2.878
X5.2Y-2.2
X5.2075Y-1.8383
X5.25Y-1.75
X5.29Y-2.48
X5.29Y-2.53
X5.29Y-2.58
X5.3Y-1.55
X5.31Y-2.26
X5.32Y-2.44
X5.35Y-2.18
X5.36Y-2.26
X5.38Y-1.33
X5.4Y-2.9357
X5.45Y-2.94
X5.51Y-1.51
X5.57Y-1.26
X5.6Y-2.11
X5.62Y-1.87
X5.81Y-1.82
X5.84Y-1.77
X5.91Y-2.53
T2
X2.1788Y-2.4023
X2.2342Y-1.9794
X2.2342Y-2.2794
X2.2386Y-1.4698
X2.2573Y-1.5836
X2.2573Y-1.8836
X2.2788Y-2.4023
X2.3342Y-1.9794
X2.3342Y-2.2794
X2.3788Y-2.4023
X2.4215Y-1.7846
X2.4215Y-1.883
X2.4237Y-1.5841
X2.4237Y-1.6825
X2.43Y-0.9608
X2.43Y-1.0592
X2.43Y-1.1516
X2.43Y-1.25
X2.4342Y-1.9794
X2.4342Y-2.2794
X2.4788Y-2.4023
X2.5342Y-1.9794
X2.5342Y-2.2794
X2.5347Y-1.5853
X2.5347Y-1.8853
X2.5386Y-1.4698
X2.5788Y-2.4023
X2.6342Y-1.9794
X2.6342Y-2.2794
X2.6347Y-1.5853
X2.6347Y-1.8853
X2.6352Y-1.4698
X2.6788Y-2.4023
X2.7342Y-1.9794
X2.7342Y-2.2794
X2.7347Y-1.5853
X2.7347Y-1.8853
X2.7788Y-2.4023
X2.82Y-1.1034
X2.82Y-1.2019
X2.8342Y-1.9794
X2.8342Y-2.2794
X2.8347Y-1.5853
X2.8347Y-1.8853
X2.8788Y-2.4023
X2.9342Y-1.9794
X2.9342Y-2.2794
X2.9347Y-1.5853
X2.9347Y-1.8853
X2.9352Y-1.4698
X2.9788Y-2.4023
X3.0342Y-1.9794
X3.0342Y-2.2794
X3.0347Y-1.5853
X3.0347Y-1.8853
X3.1342Y-1.9794
X3.1342Y-2.2794
X3.1347Y-1.5853
X3.1347Y-1.8853
X3.14Y-1.46
X3.1406Y-1.32
X3.2347Y-1.5853
X3.2347Y-1.8853
X3.24Y-1.46
X3.2406Y-1.32
X3.3347Y-1.5853
X3.3347Y-1.8853
X3.34Y-1.46
X3.3406Y-1.32
X3.4347Y-1.5853
X3.4347Y-1.8853
X3.44Y-1.46
X3.4406Y-1.32
X3.5Y-2.1208
X3.5Y-2.2192
X3.54Y-1.46
X3.5406Y-1.32
X3.6Y-1.79
X3.6102Y-2.0296
X3.6102Y-2.3296
X3.64Y-1.46
X3.6406Y-1.32
X3.7102Y-2.0296
X3.7102Y-2.3296
X3.74Y-1.46
X3.7406Y-1.32
X3.8102Y-2.0296
X3.8102Y-2.3296
X3.84Y-1.46
X3.8406Y-1.32
X3.9Y-1.79
X3.9102Y-2.0296
X3.9102Y-2.3296
X3.94Y-1.46
X3.9406Y-1.32
X4.0102Y-2.0296
X4.0102Y-2.3296
X4.1102Y-2.0296
X4.1102Y-2.3296
X4.2102Y-2.0296
X4.2102Y-2.3296
X4.2294Y-1.32
X4.2294Y-1.46
X4.23Y-1.79
X4.3102Y-2.0296
X4.3102Y-2.3296
X4.3294Y-1.32
X4.3294Y-1.46
X4.4102Y-2.0296
X4.4102Y-2.3296
X4.4294Y-1.32
X4.4294Y-1.46
X4.5102Y-2.0296
X4.5102Y-2.3296
X4.5294Y-1.32
X4.5294Y-1.46
X4.53Y-1.79
X4.6294Y-1.32
X4.6294Y-1.46
X4.7294Y-1.32
X4.7294Y-1.46
X4.74Y-1.72
X4.74Y-1.8184
X4.74Y-2.1408
X4.74Y-2.2392
X4.8294Y-1.32
X4.8294Y-1.46
X4.8547Y-2.0421
X4.8547Y-2.3421
X4.8567Y-1.638
X4.8567Y-1.938
X4.8595Y-2.452
X4.9294Y-1.32
X4.9294Y-1.46
X4.9547Y-2.0421
X4.9547Y-2.3421
X4.9567Y-1.638
X4.9567Y-1.938
X5.0294Y-1.32
X5.0294Y-1.46
X5.0547Y-2.0421
X5.0547Y-2.3421
X5.0567Y-1.638
X5.0567Y-1.938
X5.1547Y-2.0421
X5.1547Y-2.3421
X5.1567Y-1.638
X5.1567Y-1.938
X5.1595Y-2.452
X5.2547Y-2.0421
X5.2547Y-2.3421
X5.2567Y-1.638
X5.2567Y-1.938
X5.2734Y-1.21
X5.3547Y-2.0421
X5.3547Y-2.3421
X5.3567Y-1.638
X5.3567Y-1.938
X5.3719Y-1.21
X5.45Y-1.52
X5.4547Y-2.0421
X5.4547Y-2.3421
X5.4567Y-1.638
X5.4567Y-1.938
X5.47Y-2.45
X5.47Y-2.5788
X5.5547Y-2.0421
X5.5547Y-2.3421
X5.5567Y-1.638
X5.5567Y-1.938
X5.6547Y-2.0421
X5.6547Y-2.3421
X5.6567Y-1.638
X5.6567Y-1.938
X5.75Y-1.52
X5.7547Y-2.0421
X5.7547Y-2.3421
X5.7567Y-1.638
X5.7567Y-1.938
X5.77Y-2.45
X5.77Y-2.5788
X5.9Y-1.34
X5.9Y-1.64
X5.9Y-1.75
X5.9Y-2.05
X5.9Y-2.16
X5.9Y-2.46
T3
X2.59Y-1.0
X2.59Y-1.1
X2.59Y-1.2
X3.1249Y-1.012
X3.1249Y-1.112
X3.2249Y-1.012
X3.2249Y-1.112
X3.3249Y-1.012
X3.3249Y-1.112
X3.4249Y-1.012
X3.4249Y-1.112
X3.5249Y-1.012
X3.5249Y-1.112
X3.6249Y-1.012
X3.6249Y-1.112
X3.7249Y-1.012
X3.7249Y-1.112
X3.8249Y-1.012
X3.8249Y-1.112
X3.9249Y-1.012
X3.9249Y-1.112
X4.0249Y-1.012
X4.0249Y-1.112
X4.1249Y-1.012
X4.1249Y-1.112
X4.2249Y-1.012
X4.2249Y-1.112
X4.3249Y-1.012
X4.3249Y-1.112
X4.4249Y-1.012
X4.4249Y-1.112
X4.5249Y-1.012
X4.5249Y-1.112
X4.6249Y-1.012
X4.6249Y-1.112
X4.7249Y-1.012
X4.7249Y-1.112
X4.8249Y-1.012
X4.8249Y-1.112
X4.9249Y-1.012
X4.9249Y-1.112
X5.0249Y-1.012
X5.0249Y-1.112
X5.2708Y-0.969
X5.3708Y-0.969
X5.59Y-0.9798
X5.59Y-1.0798
X5.59Y-1.1798
X5.69Y-0.9798
X5.69Y-1.0798
X5.69Y-1.1798
X5.9Y-0.9806
X5.9Y-1.0806
X5.9Y-1.1806
T0
M30
