%TF.GenerationSoftware,KiCad,Pcbnew,7.0.7*%
%TF.CreationDate,2023-11-09T10:03:36+00:00*%
%TF.ProjectId,MSX_FPGA_Hat,4d53585f-4650-4474-915f-4861742e6b69,1.5*%
%TF.SameCoordinates,Original*%
%TF.FileFunction,Legend,Top*%
%TF.FilePolarity,Positive*%
%FSLAX46Y46*%
G04 Gerber Fmt 4.6, Leading zero omitted, Abs format (unit mm)*
G04 Created by KiCad (PCBNEW 7.0.7) date 2023-11-09 10:03:36*
%MOMM*%
%LPD*%
G01*
G04 APERTURE LIST*
%ADD10C,0.150000*%
%ADD11C,0.125000*%
%ADD12C,0.100000*%
%ADD13C,0.200000*%
%ADD14C,0.110000*%
%ADD15C,0.300000*%
%ADD16C,0.120000*%
G04 APERTURE END LIST*
D10*
X101452000Y-22536000D02*
X105542000Y-22536000D01*
X105542000Y-23706000D01*
X101452000Y-23706000D01*
X101452000Y-22536000D01*
D11*
X68278571Y-24862809D02*
X68278571Y-24362809D01*
X68278571Y-24362809D02*
X68397619Y-24362809D01*
X68397619Y-24362809D02*
X68469047Y-24386619D01*
X68469047Y-24386619D02*
X68516666Y-24434238D01*
X68516666Y-24434238D02*
X68540476Y-24481857D01*
X68540476Y-24481857D02*
X68564285Y-24577095D01*
X68564285Y-24577095D02*
X68564285Y-24648523D01*
X68564285Y-24648523D02*
X68540476Y-24743761D01*
X68540476Y-24743761D02*
X68516666Y-24791380D01*
X68516666Y-24791380D02*
X68469047Y-24839000D01*
X68469047Y-24839000D02*
X68397619Y-24862809D01*
X68397619Y-24862809D02*
X68278571Y-24862809D01*
X68778571Y-24600904D02*
X68945238Y-24600904D01*
X69016666Y-24862809D02*
X68778571Y-24862809D01*
X68778571Y-24862809D02*
X68778571Y-24362809D01*
X68778571Y-24362809D02*
X69016666Y-24362809D01*
X69326190Y-24362809D02*
X69373809Y-24362809D01*
X69373809Y-24362809D02*
X69421428Y-24386619D01*
X69421428Y-24386619D02*
X69445238Y-24410428D01*
X69445238Y-24410428D02*
X69469047Y-24458047D01*
X69469047Y-24458047D02*
X69492857Y-24553285D01*
X69492857Y-24553285D02*
X69492857Y-24672333D01*
X69492857Y-24672333D02*
X69469047Y-24767571D01*
X69469047Y-24767571D02*
X69445238Y-24815190D01*
X69445238Y-24815190D02*
X69421428Y-24839000D01*
X69421428Y-24839000D02*
X69373809Y-24862809D01*
X69373809Y-24862809D02*
X69326190Y-24862809D01*
X69326190Y-24862809D02*
X69278571Y-24839000D01*
X69278571Y-24839000D02*
X69254762Y-24815190D01*
X69254762Y-24815190D02*
X69230952Y-24767571D01*
X69230952Y-24767571D02*
X69207143Y-24672333D01*
X69207143Y-24672333D02*
X69207143Y-24553285D01*
X69207143Y-24553285D02*
X69230952Y-24458047D01*
X69230952Y-24458047D02*
X69254762Y-24410428D01*
X69254762Y-24410428D02*
X69278571Y-24386619D01*
X69278571Y-24386619D02*
X69326190Y-24362809D01*
X70064285Y-24339000D02*
X69635714Y-24981857D01*
X70230952Y-24862809D02*
X70230952Y-24362809D01*
X70230952Y-24362809D02*
X70350000Y-24362809D01*
X70350000Y-24362809D02*
X70421428Y-24386619D01*
X70421428Y-24386619D02*
X70469047Y-24434238D01*
X70469047Y-24434238D02*
X70492857Y-24481857D01*
X70492857Y-24481857D02*
X70516666Y-24577095D01*
X70516666Y-24577095D02*
X70516666Y-24648523D01*
X70516666Y-24648523D02*
X70492857Y-24743761D01*
X70492857Y-24743761D02*
X70469047Y-24791380D01*
X70469047Y-24791380D02*
X70421428Y-24839000D01*
X70421428Y-24839000D02*
X70350000Y-24862809D01*
X70350000Y-24862809D02*
X70230952Y-24862809D01*
X70730952Y-24600904D02*
X70897619Y-24600904D01*
X70969047Y-24862809D02*
X70730952Y-24862809D01*
X70730952Y-24862809D02*
X70730952Y-24362809D01*
X70730952Y-24362809D02*
X70969047Y-24362809D01*
X71445238Y-24862809D02*
X71159524Y-24862809D01*
X71302381Y-24862809D02*
X71302381Y-24362809D01*
X71302381Y-24362809D02*
X71254762Y-24434238D01*
X71254762Y-24434238D02*
X71207143Y-24481857D01*
X71207143Y-24481857D02*
X71159524Y-24505666D01*
D12*
X152341613Y-30183701D02*
X152151137Y-30317034D01*
X152341613Y-30412272D02*
X151941613Y-30412272D01*
X151941613Y-30412272D02*
X151941613Y-30259891D01*
X151941613Y-30259891D02*
X151960661Y-30221796D01*
X151960661Y-30221796D02*
X151979708Y-30202749D01*
X151979708Y-30202749D02*
X152017804Y-30183701D01*
X152017804Y-30183701D02*
X152074946Y-30183701D01*
X152074946Y-30183701D02*
X152113042Y-30202749D01*
X152113042Y-30202749D02*
X152132089Y-30221796D01*
X152132089Y-30221796D02*
X152151137Y-30259891D01*
X152151137Y-30259891D02*
X152151137Y-30412272D01*
X152322566Y-30031320D02*
X152341613Y-29974177D01*
X152341613Y-29974177D02*
X152341613Y-29878939D01*
X152341613Y-29878939D02*
X152322566Y-29840844D01*
X152322566Y-29840844D02*
X152303518Y-29821796D01*
X152303518Y-29821796D02*
X152265423Y-29802749D01*
X152265423Y-29802749D02*
X152227327Y-29802749D01*
X152227327Y-29802749D02*
X152189232Y-29821796D01*
X152189232Y-29821796D02*
X152170185Y-29840844D01*
X152170185Y-29840844D02*
X152151137Y-29878939D01*
X152151137Y-29878939D02*
X152132089Y-29955130D01*
X152132089Y-29955130D02*
X152113042Y-29993225D01*
X152113042Y-29993225D02*
X152093994Y-30012272D01*
X152093994Y-30012272D02*
X152055899Y-30031320D01*
X152055899Y-30031320D02*
X152017804Y-30031320D01*
X152017804Y-30031320D02*
X151979708Y-30012272D01*
X151979708Y-30012272D02*
X151960661Y-29993225D01*
X151960661Y-29993225D02*
X151941613Y-29955130D01*
X151941613Y-29955130D02*
X151941613Y-29859891D01*
X151941613Y-29859891D02*
X151960661Y-29802749D01*
X151941613Y-29688463D02*
X151941613Y-29459892D01*
X152341613Y-29574178D02*
X151941613Y-29574178D01*
X152353818Y-25021842D02*
X152372866Y-25040890D01*
X152372866Y-25040890D02*
X152391913Y-25098032D01*
X152391913Y-25098032D02*
X152391913Y-25136128D01*
X152391913Y-25136128D02*
X152372866Y-25193271D01*
X152372866Y-25193271D02*
X152334770Y-25231366D01*
X152334770Y-25231366D02*
X152296675Y-25250413D01*
X152296675Y-25250413D02*
X152220485Y-25269461D01*
X152220485Y-25269461D02*
X152163342Y-25269461D01*
X152163342Y-25269461D02*
X152087151Y-25250413D01*
X152087151Y-25250413D02*
X152049056Y-25231366D01*
X152049056Y-25231366D02*
X152010961Y-25193271D01*
X152010961Y-25193271D02*
X151991913Y-25136128D01*
X151991913Y-25136128D02*
X151991913Y-25098032D01*
X151991913Y-25098032D02*
X152010961Y-25040890D01*
X152010961Y-25040890D02*
X152030008Y-25021842D01*
X152391913Y-24659937D02*
X152391913Y-24850413D01*
X152391913Y-24850413D02*
X151991913Y-24850413D01*
X152391913Y-24526603D02*
X151991913Y-24526603D01*
X152391913Y-24298032D02*
X152163342Y-24469461D01*
X151991913Y-24298032D02*
X152220485Y-24526603D01*
D13*
X89331379Y-49501340D02*
X89331379Y-48601340D01*
X89717094Y-49501340D02*
X89717094Y-49029911D01*
X89717094Y-49029911D02*
X89674236Y-48944197D01*
X89674236Y-48944197D02*
X89588522Y-48901340D01*
X89588522Y-48901340D02*
X89459951Y-48901340D01*
X89459951Y-48901340D02*
X89374236Y-48944197D01*
X89374236Y-48944197D02*
X89331379Y-48987054D01*
X90017094Y-48901340D02*
X90359951Y-48901340D01*
X90145665Y-48601340D02*
X90145665Y-49372768D01*
X90145665Y-49372768D02*
X90188522Y-49458483D01*
X90188522Y-49458483D02*
X90274237Y-49501340D01*
X90274237Y-49501340D02*
X90359951Y-49501340D01*
X90531380Y-48901340D02*
X90874237Y-48901340D01*
X90659951Y-48601340D02*
X90659951Y-49372768D01*
X90659951Y-49372768D02*
X90702808Y-49458483D01*
X90702808Y-49458483D02*
X90788523Y-49501340D01*
X90788523Y-49501340D02*
X90874237Y-49501340D01*
X91174237Y-48901340D02*
X91174237Y-49801340D01*
X91174237Y-48944197D02*
X91259952Y-48901340D01*
X91259952Y-48901340D02*
X91431380Y-48901340D01*
X91431380Y-48901340D02*
X91517094Y-48944197D01*
X91517094Y-48944197D02*
X91559952Y-48987054D01*
X91559952Y-48987054D02*
X91602809Y-49072768D01*
X91602809Y-49072768D02*
X91602809Y-49329911D01*
X91602809Y-49329911D02*
X91559952Y-49415625D01*
X91559952Y-49415625D02*
X91517094Y-49458483D01*
X91517094Y-49458483D02*
X91431380Y-49501340D01*
X91431380Y-49501340D02*
X91259952Y-49501340D01*
X91259952Y-49501340D02*
X91174237Y-49458483D01*
X91945666Y-49458483D02*
X92031380Y-49501340D01*
X92031380Y-49501340D02*
X92202809Y-49501340D01*
X92202809Y-49501340D02*
X92288523Y-49458483D01*
X92288523Y-49458483D02*
X92331380Y-49372768D01*
X92331380Y-49372768D02*
X92331380Y-49329911D01*
X92331380Y-49329911D02*
X92288523Y-49244197D01*
X92288523Y-49244197D02*
X92202809Y-49201340D01*
X92202809Y-49201340D02*
X92074238Y-49201340D01*
X92074238Y-49201340D02*
X91988523Y-49158483D01*
X91988523Y-49158483D02*
X91945666Y-49072768D01*
X91945666Y-49072768D02*
X91945666Y-49029911D01*
X91945666Y-49029911D02*
X91988523Y-48944197D01*
X91988523Y-48944197D02*
X92074238Y-48901340D01*
X92074238Y-48901340D02*
X92202809Y-48901340D01*
X92202809Y-48901340D02*
X92288523Y-48944197D01*
X92717094Y-49415625D02*
X92759951Y-49458483D01*
X92759951Y-49458483D02*
X92717094Y-49501340D01*
X92717094Y-49501340D02*
X92674237Y-49458483D01*
X92674237Y-49458483D02*
X92717094Y-49415625D01*
X92717094Y-49415625D02*
X92717094Y-49501340D01*
X92717094Y-48944197D02*
X92759951Y-48987054D01*
X92759951Y-48987054D02*
X92717094Y-49029911D01*
X92717094Y-49029911D02*
X92674237Y-48987054D01*
X92674237Y-48987054D02*
X92717094Y-48944197D01*
X92717094Y-48944197D02*
X92717094Y-49029911D01*
X93788522Y-48558483D02*
X93017094Y-49715625D01*
X94731379Y-48558483D02*
X93959951Y-49715625D01*
X95417094Y-48901340D02*
X95417094Y-49629911D01*
X95417094Y-49629911D02*
X95374236Y-49715625D01*
X95374236Y-49715625D02*
X95331379Y-49758483D01*
X95331379Y-49758483D02*
X95245665Y-49801340D01*
X95245665Y-49801340D02*
X95117094Y-49801340D01*
X95117094Y-49801340D02*
X95031379Y-49758483D01*
X95417094Y-49458483D02*
X95331379Y-49501340D01*
X95331379Y-49501340D02*
X95159951Y-49501340D01*
X95159951Y-49501340D02*
X95074236Y-49458483D01*
X95074236Y-49458483D02*
X95031379Y-49415625D01*
X95031379Y-49415625D02*
X94988522Y-49329911D01*
X94988522Y-49329911D02*
X94988522Y-49072768D01*
X94988522Y-49072768D02*
X95031379Y-48987054D01*
X95031379Y-48987054D02*
X95074236Y-48944197D01*
X95074236Y-48944197D02*
X95159951Y-48901340D01*
X95159951Y-48901340D02*
X95331379Y-48901340D01*
X95331379Y-48901340D02*
X95417094Y-48944197D01*
X95845665Y-49501340D02*
X95845665Y-48901340D01*
X95845665Y-48601340D02*
X95802808Y-48644197D01*
X95802808Y-48644197D02*
X95845665Y-48687054D01*
X95845665Y-48687054D02*
X95888522Y-48644197D01*
X95888522Y-48644197D02*
X95845665Y-48601340D01*
X95845665Y-48601340D02*
X95845665Y-48687054D01*
X96145665Y-48901340D02*
X96488522Y-48901340D01*
X96274236Y-48601340D02*
X96274236Y-49372768D01*
X96274236Y-49372768D02*
X96317093Y-49458483D01*
X96317093Y-49458483D02*
X96402808Y-49501340D01*
X96402808Y-49501340D02*
X96488522Y-49501340D01*
X96788522Y-49501340D02*
X96788522Y-48601340D01*
X97174237Y-49501340D02*
X97174237Y-49029911D01*
X97174237Y-49029911D02*
X97131379Y-48944197D01*
X97131379Y-48944197D02*
X97045665Y-48901340D01*
X97045665Y-48901340D02*
X96917094Y-48901340D01*
X96917094Y-48901340D02*
X96831379Y-48944197D01*
X96831379Y-48944197D02*
X96788522Y-48987054D01*
X97988523Y-48901340D02*
X97988523Y-49501340D01*
X97602808Y-48901340D02*
X97602808Y-49372768D01*
X97602808Y-49372768D02*
X97645665Y-49458483D01*
X97645665Y-49458483D02*
X97731380Y-49501340D01*
X97731380Y-49501340D02*
X97859951Y-49501340D01*
X97859951Y-49501340D02*
X97945665Y-49458483D01*
X97945665Y-49458483D02*
X97988523Y-49415625D01*
X98417094Y-49501340D02*
X98417094Y-48601340D01*
X98417094Y-48944197D02*
X98502809Y-48901340D01*
X98502809Y-48901340D02*
X98674237Y-48901340D01*
X98674237Y-48901340D02*
X98759951Y-48944197D01*
X98759951Y-48944197D02*
X98802809Y-48987054D01*
X98802809Y-48987054D02*
X98845666Y-49072768D01*
X98845666Y-49072768D02*
X98845666Y-49329911D01*
X98845666Y-49329911D02*
X98802809Y-49415625D01*
X98802809Y-49415625D02*
X98759951Y-49458483D01*
X98759951Y-49458483D02*
X98674237Y-49501340D01*
X98674237Y-49501340D02*
X98502809Y-49501340D01*
X98502809Y-49501340D02*
X98417094Y-49458483D01*
X99231380Y-49415625D02*
X99274237Y-49458483D01*
X99274237Y-49458483D02*
X99231380Y-49501340D01*
X99231380Y-49501340D02*
X99188523Y-49458483D01*
X99188523Y-49458483D02*
X99231380Y-49415625D01*
X99231380Y-49415625D02*
X99231380Y-49501340D01*
X100045666Y-49458483D02*
X99959951Y-49501340D01*
X99959951Y-49501340D02*
X99788523Y-49501340D01*
X99788523Y-49501340D02*
X99702808Y-49458483D01*
X99702808Y-49458483D02*
X99659951Y-49415625D01*
X99659951Y-49415625D02*
X99617094Y-49329911D01*
X99617094Y-49329911D02*
X99617094Y-49072768D01*
X99617094Y-49072768D02*
X99659951Y-48987054D01*
X99659951Y-48987054D02*
X99702808Y-48944197D01*
X99702808Y-48944197D02*
X99788523Y-48901340D01*
X99788523Y-48901340D02*
X99959951Y-48901340D01*
X99959951Y-48901340D02*
X100045666Y-48944197D01*
X100559952Y-49501340D02*
X100474237Y-49458483D01*
X100474237Y-49458483D02*
X100431380Y-49415625D01*
X100431380Y-49415625D02*
X100388523Y-49329911D01*
X100388523Y-49329911D02*
X100388523Y-49072768D01*
X100388523Y-49072768D02*
X100431380Y-48987054D01*
X100431380Y-48987054D02*
X100474237Y-48944197D01*
X100474237Y-48944197D02*
X100559952Y-48901340D01*
X100559952Y-48901340D02*
X100688523Y-48901340D01*
X100688523Y-48901340D02*
X100774237Y-48944197D01*
X100774237Y-48944197D02*
X100817095Y-48987054D01*
X100817095Y-48987054D02*
X100859952Y-49072768D01*
X100859952Y-49072768D02*
X100859952Y-49329911D01*
X100859952Y-49329911D02*
X100817095Y-49415625D01*
X100817095Y-49415625D02*
X100774237Y-49458483D01*
X100774237Y-49458483D02*
X100688523Y-49501340D01*
X100688523Y-49501340D02*
X100559952Y-49501340D01*
X101245666Y-49501340D02*
X101245666Y-48901340D01*
X101245666Y-48987054D02*
X101288523Y-48944197D01*
X101288523Y-48944197D02*
X101374238Y-48901340D01*
X101374238Y-48901340D02*
X101502809Y-48901340D01*
X101502809Y-48901340D02*
X101588523Y-48944197D01*
X101588523Y-48944197D02*
X101631381Y-49029911D01*
X101631381Y-49029911D02*
X101631381Y-49501340D01*
X101631381Y-49029911D02*
X101674238Y-48944197D01*
X101674238Y-48944197D02*
X101759952Y-48901340D01*
X101759952Y-48901340D02*
X101888523Y-48901340D01*
X101888523Y-48901340D02*
X101974238Y-48944197D01*
X101974238Y-48944197D02*
X102017095Y-49029911D01*
X102017095Y-49029911D02*
X102017095Y-49501340D01*
X103088523Y-48558483D02*
X102317095Y-49715625D01*
X103774238Y-49458483D02*
X103688523Y-49501340D01*
X103688523Y-49501340D02*
X103517095Y-49501340D01*
X103517095Y-49501340D02*
X103431380Y-49458483D01*
X103431380Y-49458483D02*
X103388523Y-49415625D01*
X103388523Y-49415625D02*
X103345666Y-49329911D01*
X103345666Y-49329911D02*
X103345666Y-49072768D01*
X103345666Y-49072768D02*
X103388523Y-48987054D01*
X103388523Y-48987054D02*
X103431380Y-48944197D01*
X103431380Y-48944197D02*
X103517095Y-48901340D01*
X103517095Y-48901340D02*
X103688523Y-48901340D01*
X103688523Y-48901340D02*
X103774238Y-48944197D01*
X104288524Y-49501340D02*
X104202809Y-49458483D01*
X104202809Y-49458483D02*
X104159952Y-49415625D01*
X104159952Y-49415625D02*
X104117095Y-49329911D01*
X104117095Y-49329911D02*
X104117095Y-49072768D01*
X104117095Y-49072768D02*
X104159952Y-48987054D01*
X104159952Y-48987054D02*
X104202809Y-48944197D01*
X104202809Y-48944197D02*
X104288524Y-48901340D01*
X104288524Y-48901340D02*
X104417095Y-48901340D01*
X104417095Y-48901340D02*
X104502809Y-48944197D01*
X104502809Y-48944197D02*
X104545667Y-48987054D01*
X104545667Y-48987054D02*
X104588524Y-49072768D01*
X104588524Y-49072768D02*
X104588524Y-49329911D01*
X104588524Y-49329911D02*
X104545667Y-49415625D01*
X104545667Y-49415625D02*
X104502809Y-49458483D01*
X104502809Y-49458483D02*
X104417095Y-49501340D01*
X104417095Y-49501340D02*
X104288524Y-49501340D01*
X104931381Y-49458483D02*
X105017095Y-49501340D01*
X105017095Y-49501340D02*
X105188524Y-49501340D01*
X105188524Y-49501340D02*
X105274238Y-49458483D01*
X105274238Y-49458483D02*
X105317095Y-49372768D01*
X105317095Y-49372768D02*
X105317095Y-49329911D01*
X105317095Y-49329911D02*
X105274238Y-49244197D01*
X105274238Y-49244197D02*
X105188524Y-49201340D01*
X105188524Y-49201340D02*
X105059953Y-49201340D01*
X105059953Y-49201340D02*
X104974238Y-49158483D01*
X104974238Y-49158483D02*
X104931381Y-49072768D01*
X104931381Y-49072768D02*
X104931381Y-49029911D01*
X104931381Y-49029911D02*
X104974238Y-48944197D01*
X104974238Y-48944197D02*
X105059953Y-48901340D01*
X105059953Y-48901340D02*
X105188524Y-48901340D01*
X105188524Y-48901340D02*
X105274238Y-48944197D01*
X105574238Y-48901340D02*
X105917095Y-48901340D01*
X105702809Y-48601340D02*
X105702809Y-49372768D01*
X105702809Y-49372768D02*
X105745666Y-49458483D01*
X105745666Y-49458483D02*
X105831381Y-49501340D01*
X105831381Y-49501340D02*
X105917095Y-49501340D01*
X106602810Y-49501340D02*
X106602810Y-49029911D01*
X106602810Y-49029911D02*
X106559952Y-48944197D01*
X106559952Y-48944197D02*
X106474238Y-48901340D01*
X106474238Y-48901340D02*
X106302810Y-48901340D01*
X106302810Y-48901340D02*
X106217095Y-48944197D01*
X106602810Y-49458483D02*
X106517095Y-49501340D01*
X106517095Y-49501340D02*
X106302810Y-49501340D01*
X106302810Y-49501340D02*
X106217095Y-49458483D01*
X106217095Y-49458483D02*
X106174238Y-49372768D01*
X106174238Y-49372768D02*
X106174238Y-49287054D01*
X106174238Y-49287054D02*
X106217095Y-49201340D01*
X106217095Y-49201340D02*
X106302810Y-49158483D01*
X106302810Y-49158483D02*
X106517095Y-49158483D01*
X106517095Y-49158483D02*
X106602810Y-49115625D01*
X107031381Y-49501340D02*
X107031381Y-48901340D01*
X107031381Y-49072768D02*
X107074238Y-48987054D01*
X107074238Y-48987054D02*
X107117096Y-48944197D01*
X107117096Y-48944197D02*
X107202810Y-48901340D01*
X107202810Y-48901340D02*
X107288524Y-48901340D01*
X107974239Y-49458483D02*
X107888524Y-49501340D01*
X107888524Y-49501340D02*
X107717096Y-49501340D01*
X107717096Y-49501340D02*
X107631381Y-49458483D01*
X107631381Y-49458483D02*
X107588524Y-49415625D01*
X107588524Y-49415625D02*
X107545667Y-49329911D01*
X107545667Y-49329911D02*
X107545667Y-49072768D01*
X107545667Y-49072768D02*
X107588524Y-48987054D01*
X107588524Y-48987054D02*
X107631381Y-48944197D01*
X107631381Y-48944197D02*
X107717096Y-48901340D01*
X107717096Y-48901340D02*
X107888524Y-48901340D01*
X107888524Y-48901340D02*
X107974239Y-48944197D01*
X109002810Y-48558483D02*
X108231382Y-49715625D01*
X109302810Y-49501340D02*
X109302810Y-48601340D01*
X109302810Y-48601340D02*
X109602810Y-49244197D01*
X109602810Y-49244197D02*
X109902810Y-48601340D01*
X109902810Y-48601340D02*
X109902810Y-49501340D01*
X110288524Y-49458483D02*
X110417096Y-49501340D01*
X110417096Y-49501340D02*
X110631381Y-49501340D01*
X110631381Y-49501340D02*
X110717096Y-49458483D01*
X110717096Y-49458483D02*
X110759953Y-49415625D01*
X110759953Y-49415625D02*
X110802810Y-49329911D01*
X110802810Y-49329911D02*
X110802810Y-49244197D01*
X110802810Y-49244197D02*
X110759953Y-49158483D01*
X110759953Y-49158483D02*
X110717096Y-49115625D01*
X110717096Y-49115625D02*
X110631381Y-49072768D01*
X110631381Y-49072768D02*
X110459953Y-49029911D01*
X110459953Y-49029911D02*
X110374238Y-48987054D01*
X110374238Y-48987054D02*
X110331381Y-48944197D01*
X110331381Y-48944197D02*
X110288524Y-48858483D01*
X110288524Y-48858483D02*
X110288524Y-48772768D01*
X110288524Y-48772768D02*
X110331381Y-48687054D01*
X110331381Y-48687054D02*
X110374238Y-48644197D01*
X110374238Y-48644197D02*
X110459953Y-48601340D01*
X110459953Y-48601340D02*
X110674238Y-48601340D01*
X110674238Y-48601340D02*
X110802810Y-48644197D01*
X111102810Y-48601340D02*
X111702810Y-49501340D01*
X111702810Y-48601340D02*
X111102810Y-49501340D01*
X111831382Y-49587054D02*
X112517096Y-49587054D01*
X113031381Y-49029911D02*
X112731381Y-49029911D01*
X112731381Y-49501340D02*
X112731381Y-48601340D01*
X112731381Y-48601340D02*
X113159953Y-48601340D01*
X113502810Y-49501340D02*
X113502810Y-48601340D01*
X113502810Y-48601340D02*
X113845667Y-48601340D01*
X113845667Y-48601340D02*
X113931382Y-48644197D01*
X113931382Y-48644197D02*
X113974239Y-48687054D01*
X113974239Y-48687054D02*
X114017096Y-48772768D01*
X114017096Y-48772768D02*
X114017096Y-48901340D01*
X114017096Y-48901340D02*
X113974239Y-48987054D01*
X113974239Y-48987054D02*
X113931382Y-49029911D01*
X113931382Y-49029911D02*
X113845667Y-49072768D01*
X113845667Y-49072768D02*
X113502810Y-49072768D01*
X114874239Y-48644197D02*
X114788525Y-48601340D01*
X114788525Y-48601340D02*
X114659953Y-48601340D01*
X114659953Y-48601340D02*
X114531382Y-48644197D01*
X114531382Y-48644197D02*
X114445667Y-48729911D01*
X114445667Y-48729911D02*
X114402810Y-48815625D01*
X114402810Y-48815625D02*
X114359953Y-48987054D01*
X114359953Y-48987054D02*
X114359953Y-49115625D01*
X114359953Y-49115625D02*
X114402810Y-49287054D01*
X114402810Y-49287054D02*
X114445667Y-49372768D01*
X114445667Y-49372768D02*
X114531382Y-49458483D01*
X114531382Y-49458483D02*
X114659953Y-49501340D01*
X114659953Y-49501340D02*
X114745667Y-49501340D01*
X114745667Y-49501340D02*
X114874239Y-49458483D01*
X114874239Y-49458483D02*
X114917096Y-49415625D01*
X114917096Y-49415625D02*
X114917096Y-49115625D01*
X114917096Y-49115625D02*
X114745667Y-49115625D01*
X115259953Y-49244197D02*
X115688525Y-49244197D01*
X115174239Y-49501340D02*
X115474239Y-48601340D01*
X115474239Y-48601340D02*
X115774239Y-49501340D01*
X115859954Y-49587054D02*
X116545668Y-49587054D01*
X116759953Y-49501340D02*
X116759953Y-48601340D01*
X116759953Y-49029911D02*
X117274239Y-49029911D01*
X117274239Y-49501340D02*
X117274239Y-48601340D01*
X118088525Y-49501340D02*
X118088525Y-49029911D01*
X118088525Y-49029911D02*
X118045667Y-48944197D01*
X118045667Y-48944197D02*
X117959953Y-48901340D01*
X117959953Y-48901340D02*
X117788525Y-48901340D01*
X117788525Y-48901340D02*
X117702810Y-48944197D01*
X118088525Y-49458483D02*
X118002810Y-49501340D01*
X118002810Y-49501340D02*
X117788525Y-49501340D01*
X117788525Y-49501340D02*
X117702810Y-49458483D01*
X117702810Y-49458483D02*
X117659953Y-49372768D01*
X117659953Y-49372768D02*
X117659953Y-49287054D01*
X117659953Y-49287054D02*
X117702810Y-49201340D01*
X117702810Y-49201340D02*
X117788525Y-49158483D01*
X117788525Y-49158483D02*
X118002810Y-49158483D01*
X118002810Y-49158483D02*
X118088525Y-49115625D01*
X118388525Y-48901340D02*
X118731382Y-48901340D01*
X118517096Y-48601340D02*
X118517096Y-49372768D01*
X118517096Y-49372768D02*
X118559953Y-49458483D01*
X118559953Y-49458483D02*
X118645668Y-49501340D01*
X118645668Y-49501340D02*
X118731382Y-49501340D01*
D12*
X138912778Y-29767251D02*
X138779445Y-29576775D01*
X138684207Y-29767251D02*
X138684207Y-29367251D01*
X138684207Y-29367251D02*
X138836588Y-29367251D01*
X138836588Y-29367251D02*
X138874683Y-29386299D01*
X138874683Y-29386299D02*
X138893730Y-29405346D01*
X138893730Y-29405346D02*
X138912778Y-29443442D01*
X138912778Y-29443442D02*
X138912778Y-29500584D01*
X138912778Y-29500584D02*
X138893730Y-29538680D01*
X138893730Y-29538680D02*
X138874683Y-29557727D01*
X138874683Y-29557727D02*
X138836588Y-29576775D01*
X138836588Y-29576775D02*
X138684207Y-29576775D01*
X139217540Y-29557727D02*
X139084207Y-29557727D01*
X139084207Y-29767251D02*
X139084207Y-29367251D01*
X139084207Y-29367251D02*
X139274683Y-29367251D01*
X139408016Y-29748204D02*
X139465159Y-29767251D01*
X139465159Y-29767251D02*
X139560397Y-29767251D01*
X139560397Y-29767251D02*
X139598492Y-29748204D01*
X139598492Y-29748204D02*
X139617540Y-29729156D01*
X139617540Y-29729156D02*
X139636587Y-29691061D01*
X139636587Y-29691061D02*
X139636587Y-29652965D01*
X139636587Y-29652965D02*
X139617540Y-29614870D01*
X139617540Y-29614870D02*
X139598492Y-29595823D01*
X139598492Y-29595823D02*
X139560397Y-29576775D01*
X139560397Y-29576775D02*
X139484206Y-29557727D01*
X139484206Y-29557727D02*
X139446111Y-29538680D01*
X139446111Y-29538680D02*
X139427064Y-29519632D01*
X139427064Y-29519632D02*
X139408016Y-29481537D01*
X139408016Y-29481537D02*
X139408016Y-29443442D01*
X139408016Y-29443442D02*
X139427064Y-29405346D01*
X139427064Y-29405346D02*
X139446111Y-29386299D01*
X139446111Y-29386299D02*
X139484206Y-29367251D01*
X139484206Y-29367251D02*
X139579445Y-29367251D01*
X139579445Y-29367251D02*
X139636587Y-29386299D01*
X139808016Y-29767251D02*
X139808016Y-29367251D01*
X139808016Y-29557727D02*
X140036587Y-29557727D01*
X140036587Y-29767251D02*
X140036587Y-29367251D01*
X146824316Y-24850049D02*
X146805268Y-24869097D01*
X146805268Y-24869097D02*
X146748126Y-24888144D01*
X146748126Y-24888144D02*
X146710030Y-24888144D01*
X146710030Y-24888144D02*
X146652887Y-24869097D01*
X146652887Y-24869097D02*
X146614792Y-24831001D01*
X146614792Y-24831001D02*
X146595745Y-24792906D01*
X146595745Y-24792906D02*
X146576697Y-24716716D01*
X146576697Y-24716716D02*
X146576697Y-24659573D01*
X146576697Y-24659573D02*
X146595745Y-24583382D01*
X146595745Y-24583382D02*
X146614792Y-24545287D01*
X146614792Y-24545287D02*
X146652887Y-24507192D01*
X146652887Y-24507192D02*
X146710030Y-24488144D01*
X146710030Y-24488144D02*
X146748126Y-24488144D01*
X146748126Y-24488144D02*
X146805268Y-24507192D01*
X146805268Y-24507192D02*
X146824316Y-24526239D01*
X146976697Y-24869097D02*
X147033840Y-24888144D01*
X147033840Y-24888144D02*
X147129078Y-24888144D01*
X147129078Y-24888144D02*
X147167173Y-24869097D01*
X147167173Y-24869097D02*
X147186221Y-24850049D01*
X147186221Y-24850049D02*
X147205268Y-24811954D01*
X147205268Y-24811954D02*
X147205268Y-24773858D01*
X147205268Y-24773858D02*
X147186221Y-24735763D01*
X147186221Y-24735763D02*
X147167173Y-24716716D01*
X147167173Y-24716716D02*
X147129078Y-24697668D01*
X147129078Y-24697668D02*
X147052887Y-24678620D01*
X147052887Y-24678620D02*
X147014792Y-24659573D01*
X147014792Y-24659573D02*
X146995745Y-24640525D01*
X146995745Y-24640525D02*
X146976697Y-24602430D01*
X146976697Y-24602430D02*
X146976697Y-24564335D01*
X146976697Y-24564335D02*
X146995745Y-24526239D01*
X146995745Y-24526239D02*
X147014792Y-24507192D01*
X147014792Y-24507192D02*
X147052887Y-24488144D01*
X147052887Y-24488144D02*
X147148126Y-24488144D01*
X147148126Y-24488144D02*
X147205268Y-24507192D01*
X147586220Y-24888144D02*
X147357649Y-24888144D01*
X147471935Y-24888144D02*
X147471935Y-24488144D01*
X147471935Y-24488144D02*
X147433839Y-24545287D01*
X147433839Y-24545287D02*
X147395744Y-24583382D01*
X147395744Y-24583382D02*
X147357649Y-24602430D01*
D10*
X130333714Y-25854819D02*
X129762286Y-25854819D01*
X130048000Y-25854819D02*
X130048000Y-24854819D01*
X130048000Y-24854819D02*
X129952762Y-24997676D01*
X129952762Y-24997676D02*
X129857524Y-25092914D01*
X129857524Y-25092914D02*
X129762286Y-25140533D01*
X134365333Y-26939771D02*
X134132000Y-26654057D01*
X133965333Y-26939771D02*
X133965333Y-26339771D01*
X133965333Y-26339771D02*
X134232000Y-26339771D01*
X134232000Y-26339771D02*
X134298667Y-26368342D01*
X134298667Y-26368342D02*
X134332000Y-26396914D01*
X134332000Y-26396914D02*
X134365333Y-26454057D01*
X134365333Y-26454057D02*
X134365333Y-26539771D01*
X134365333Y-26539771D02*
X134332000Y-26596914D01*
X134332000Y-26596914D02*
X134298667Y-26625485D01*
X134298667Y-26625485D02*
X134232000Y-26654057D01*
X134232000Y-26654057D02*
X133965333Y-26654057D01*
X134665333Y-26625485D02*
X134898667Y-26625485D01*
X134998667Y-26939771D02*
X134665333Y-26939771D01*
X134665333Y-26939771D02*
X134665333Y-26339771D01*
X134665333Y-26339771D02*
X134998667Y-26339771D01*
X135265333Y-26911200D02*
X135365333Y-26939771D01*
X135365333Y-26939771D02*
X135532000Y-26939771D01*
X135532000Y-26939771D02*
X135598666Y-26911200D01*
X135598666Y-26911200D02*
X135632000Y-26882628D01*
X135632000Y-26882628D02*
X135665333Y-26825485D01*
X135665333Y-26825485D02*
X135665333Y-26768342D01*
X135665333Y-26768342D02*
X135632000Y-26711200D01*
X135632000Y-26711200D02*
X135598666Y-26682628D01*
X135598666Y-26682628D02*
X135532000Y-26654057D01*
X135532000Y-26654057D02*
X135398666Y-26625485D01*
X135398666Y-26625485D02*
X135332000Y-26596914D01*
X135332000Y-26596914D02*
X135298666Y-26568342D01*
X135298666Y-26568342D02*
X135265333Y-26511200D01*
X135265333Y-26511200D02*
X135265333Y-26454057D01*
X135265333Y-26454057D02*
X135298666Y-26396914D01*
X135298666Y-26396914D02*
X135332000Y-26368342D01*
X135332000Y-26368342D02*
X135398666Y-26339771D01*
X135398666Y-26339771D02*
X135565333Y-26339771D01*
X135565333Y-26339771D02*
X135665333Y-26368342D01*
X135965333Y-26625485D02*
X136198667Y-26625485D01*
X136298667Y-26939771D02*
X135965333Y-26939771D01*
X135965333Y-26939771D02*
X135965333Y-26339771D01*
X135965333Y-26339771D02*
X136298667Y-26339771D01*
X136498666Y-26339771D02*
X136898666Y-26339771D01*
X136698666Y-26939771D02*
X136698666Y-26339771D01*
X75644476Y-25108819D02*
X76263523Y-25108819D01*
X76263523Y-25108819D02*
X75930190Y-25489771D01*
X75930190Y-25489771D02*
X76073047Y-25489771D01*
X76073047Y-25489771D02*
X76168285Y-25537390D01*
X76168285Y-25537390D02*
X76215904Y-25585009D01*
X76215904Y-25585009D02*
X76263523Y-25680247D01*
X76263523Y-25680247D02*
X76263523Y-25918342D01*
X76263523Y-25918342D02*
X76215904Y-26013580D01*
X76215904Y-26013580D02*
X76168285Y-26061200D01*
X76168285Y-26061200D02*
X76073047Y-26108819D01*
X76073047Y-26108819D02*
X75787333Y-26108819D01*
X75787333Y-26108819D02*
X75692095Y-26061200D01*
X75692095Y-26061200D02*
X75644476Y-26013580D01*
X76739714Y-26108819D02*
X76930190Y-26108819D01*
X76930190Y-26108819D02*
X77025428Y-26061200D01*
X77025428Y-26061200D02*
X77073047Y-26013580D01*
X77073047Y-26013580D02*
X77168285Y-25870723D01*
X77168285Y-25870723D02*
X77215904Y-25680247D01*
X77215904Y-25680247D02*
X77215904Y-25299295D01*
X77215904Y-25299295D02*
X77168285Y-25204057D01*
X77168285Y-25204057D02*
X77120666Y-25156438D01*
X77120666Y-25156438D02*
X77025428Y-25108819D01*
X77025428Y-25108819D02*
X76834952Y-25108819D01*
X76834952Y-25108819D02*
X76739714Y-25156438D01*
X76739714Y-25156438D02*
X76692095Y-25204057D01*
X76692095Y-25204057D02*
X76644476Y-25299295D01*
X76644476Y-25299295D02*
X76644476Y-25537390D01*
X76644476Y-25537390D02*
X76692095Y-25632628D01*
X76692095Y-25632628D02*
X76739714Y-25680247D01*
X76739714Y-25680247D02*
X76834952Y-25727866D01*
X76834952Y-25727866D02*
X77025428Y-25727866D01*
X77025428Y-25727866D02*
X77120666Y-25680247D01*
X77120666Y-25680247D02*
X77168285Y-25632628D01*
X77168285Y-25632628D02*
X77215904Y-25537390D01*
X129508286Y-28506057D02*
X129555905Y-28458438D01*
X129555905Y-28458438D02*
X129651143Y-28410819D01*
X129651143Y-28410819D02*
X129889238Y-28410819D01*
X129889238Y-28410819D02*
X129984476Y-28458438D01*
X129984476Y-28458438D02*
X130032095Y-28506057D01*
X130032095Y-28506057D02*
X130079714Y-28601295D01*
X130079714Y-28601295D02*
X130079714Y-28696533D01*
X130079714Y-28696533D02*
X130032095Y-28839390D01*
X130032095Y-28839390D02*
X129460667Y-29410819D01*
X129460667Y-29410819D02*
X130079714Y-29410819D01*
D12*
X146747015Y-27553678D02*
X146727967Y-27572726D01*
X146727967Y-27572726D02*
X146670825Y-27591773D01*
X146670825Y-27591773D02*
X146632729Y-27591773D01*
X146632729Y-27591773D02*
X146575586Y-27572726D01*
X146575586Y-27572726D02*
X146537491Y-27534630D01*
X146537491Y-27534630D02*
X146518444Y-27496535D01*
X146518444Y-27496535D02*
X146499396Y-27420345D01*
X146499396Y-27420345D02*
X146499396Y-27363202D01*
X146499396Y-27363202D02*
X146518444Y-27287011D01*
X146518444Y-27287011D02*
X146537491Y-27248916D01*
X146537491Y-27248916D02*
X146575586Y-27210821D01*
X146575586Y-27210821D02*
X146632729Y-27191773D01*
X146632729Y-27191773D02*
X146670825Y-27191773D01*
X146670825Y-27191773D02*
X146727967Y-27210821D01*
X146727967Y-27210821D02*
X146747015Y-27229868D01*
X146899396Y-27572726D02*
X146956539Y-27591773D01*
X146956539Y-27591773D02*
X147051777Y-27591773D01*
X147051777Y-27591773D02*
X147089872Y-27572726D01*
X147089872Y-27572726D02*
X147108920Y-27553678D01*
X147108920Y-27553678D02*
X147127967Y-27515583D01*
X147127967Y-27515583D02*
X147127967Y-27477487D01*
X147127967Y-27477487D02*
X147108920Y-27439392D01*
X147108920Y-27439392D02*
X147089872Y-27420345D01*
X147089872Y-27420345D02*
X147051777Y-27401297D01*
X147051777Y-27401297D02*
X146975586Y-27382249D01*
X146975586Y-27382249D02*
X146937491Y-27363202D01*
X146937491Y-27363202D02*
X146918444Y-27344154D01*
X146918444Y-27344154D02*
X146899396Y-27306059D01*
X146899396Y-27306059D02*
X146899396Y-27267964D01*
X146899396Y-27267964D02*
X146918444Y-27229868D01*
X146918444Y-27229868D02*
X146937491Y-27210821D01*
X146937491Y-27210821D02*
X146975586Y-27191773D01*
X146975586Y-27191773D02*
X147070825Y-27191773D01*
X147070825Y-27191773D02*
X147127967Y-27210821D01*
X147508919Y-27591773D02*
X147280348Y-27591773D01*
X147394634Y-27591773D02*
X147394634Y-27191773D01*
X147394634Y-27191773D02*
X147356538Y-27248916D01*
X147356538Y-27248916D02*
X147318443Y-27287011D01*
X147318443Y-27287011D02*
X147280348Y-27306059D01*
X147661300Y-27229868D02*
X147680348Y-27210821D01*
X147680348Y-27210821D02*
X147718443Y-27191773D01*
X147718443Y-27191773D02*
X147813681Y-27191773D01*
X147813681Y-27191773D02*
X147851776Y-27210821D01*
X147851776Y-27210821D02*
X147870824Y-27229868D01*
X147870824Y-27229868D02*
X147889871Y-27267964D01*
X147889871Y-27267964D02*
X147889871Y-27306059D01*
X147889871Y-27306059D02*
X147870824Y-27363202D01*
X147870824Y-27363202D02*
X147642252Y-27591773D01*
X147642252Y-27591773D02*
X147889871Y-27591773D01*
X146582799Y-30150605D02*
X146639942Y-30169652D01*
X146639942Y-30169652D02*
X146735180Y-30169652D01*
X146735180Y-30169652D02*
X146773275Y-30150605D01*
X146773275Y-30150605D02*
X146792323Y-30131557D01*
X146792323Y-30131557D02*
X146811370Y-30093462D01*
X146811370Y-30093462D02*
X146811370Y-30055366D01*
X146811370Y-30055366D02*
X146792323Y-30017271D01*
X146792323Y-30017271D02*
X146773275Y-29998224D01*
X146773275Y-29998224D02*
X146735180Y-29979176D01*
X146735180Y-29979176D02*
X146658989Y-29960128D01*
X146658989Y-29960128D02*
X146620894Y-29941081D01*
X146620894Y-29941081D02*
X146601847Y-29922033D01*
X146601847Y-29922033D02*
X146582799Y-29883938D01*
X146582799Y-29883938D02*
X146582799Y-29845843D01*
X146582799Y-29845843D02*
X146601847Y-29807747D01*
X146601847Y-29807747D02*
X146620894Y-29788700D01*
X146620894Y-29788700D02*
X146658989Y-29769652D01*
X146658989Y-29769652D02*
X146754228Y-29769652D01*
X146754228Y-29769652D02*
X146811370Y-29788700D01*
X146982799Y-30169652D02*
X146982799Y-29769652D01*
X146982799Y-29769652D02*
X147211370Y-30169652D01*
X147211370Y-30169652D02*
X147211370Y-29769652D01*
X147401847Y-30169652D02*
X147401847Y-29769652D01*
X147401847Y-29769652D02*
X147497085Y-29769652D01*
X147497085Y-29769652D02*
X147554228Y-29788700D01*
X147554228Y-29788700D02*
X147592323Y-29826795D01*
X147592323Y-29826795D02*
X147611370Y-29864890D01*
X147611370Y-29864890D02*
X147630418Y-29941081D01*
X147630418Y-29941081D02*
X147630418Y-29998224D01*
X147630418Y-29998224D02*
X147611370Y-30074414D01*
X147611370Y-30074414D02*
X147592323Y-30112509D01*
X147592323Y-30112509D02*
X147554228Y-30150605D01*
X147554228Y-30150605D02*
X147497085Y-30169652D01*
X147497085Y-30169652D02*
X147401847Y-30169652D01*
X139304084Y-24988744D02*
X139304084Y-24588744D01*
X139304084Y-24588744D02*
X139456465Y-24588744D01*
X139456465Y-24588744D02*
X139494560Y-24607792D01*
X139494560Y-24607792D02*
X139513607Y-24626839D01*
X139513607Y-24626839D02*
X139532655Y-24664935D01*
X139532655Y-24664935D02*
X139532655Y-24722077D01*
X139532655Y-24722077D02*
X139513607Y-24760173D01*
X139513607Y-24760173D02*
X139494560Y-24779220D01*
X139494560Y-24779220D02*
X139456465Y-24798268D01*
X139456465Y-24798268D02*
X139304084Y-24798268D01*
X139665988Y-24588744D02*
X139913607Y-24588744D01*
X139913607Y-24588744D02*
X139780274Y-24741125D01*
X139780274Y-24741125D02*
X139837417Y-24741125D01*
X139837417Y-24741125D02*
X139875512Y-24760173D01*
X139875512Y-24760173D02*
X139894560Y-24779220D01*
X139894560Y-24779220D02*
X139913607Y-24817316D01*
X139913607Y-24817316D02*
X139913607Y-24912554D01*
X139913607Y-24912554D02*
X139894560Y-24950649D01*
X139894560Y-24950649D02*
X139875512Y-24969697D01*
X139875512Y-24969697D02*
X139837417Y-24988744D01*
X139837417Y-24988744D02*
X139723131Y-24988744D01*
X139723131Y-24988744D02*
X139685036Y-24969697D01*
X139685036Y-24969697D02*
X139665988Y-24950649D01*
X152316463Y-27543687D02*
X151916463Y-27543687D01*
X151916463Y-27543687D02*
X151916463Y-27391306D01*
X151916463Y-27391306D02*
X151935511Y-27353211D01*
X151935511Y-27353211D02*
X151954558Y-27334164D01*
X151954558Y-27334164D02*
X151992654Y-27315116D01*
X151992654Y-27315116D02*
X152049796Y-27315116D01*
X152049796Y-27315116D02*
X152087892Y-27334164D01*
X152087892Y-27334164D02*
X152106939Y-27353211D01*
X152106939Y-27353211D02*
X152125987Y-27391306D01*
X152125987Y-27391306D02*
X152125987Y-27543687D01*
X152316463Y-26934164D02*
X152316463Y-27162735D01*
X152316463Y-27048449D02*
X151916463Y-27048449D01*
X151916463Y-27048449D02*
X151973606Y-27086545D01*
X151973606Y-27086545D02*
X152011701Y-27124640D01*
X152011701Y-27124640D02*
X152030749Y-27162735D01*
D14*
X77073142Y-73839851D02*
X76787428Y-73839851D01*
X76787428Y-73839851D02*
X76758856Y-74125565D01*
X76758856Y-74125565D02*
X76787428Y-74096994D01*
X76787428Y-74096994D02*
X76844571Y-74068422D01*
X76844571Y-74068422D02*
X76987428Y-74068422D01*
X76987428Y-74068422D02*
X77044571Y-74096994D01*
X77044571Y-74096994D02*
X77073142Y-74125565D01*
X77073142Y-74125565D02*
X77101713Y-74182708D01*
X77101713Y-74182708D02*
X77101713Y-74325565D01*
X77101713Y-74325565D02*
X77073142Y-74382708D01*
X77073142Y-74382708D02*
X77044571Y-74411280D01*
X77044571Y-74411280D02*
X76987428Y-74439851D01*
X76987428Y-74439851D02*
X76844571Y-74439851D01*
X76844571Y-74439851D02*
X76787428Y-74411280D01*
X76787428Y-74411280D02*
X76758856Y-74382708D01*
X77473142Y-73839851D02*
X77530285Y-73839851D01*
X77530285Y-73839851D02*
X77587428Y-73868422D01*
X77587428Y-73868422D02*
X77616000Y-73896994D01*
X77616000Y-73896994D02*
X77644571Y-73954137D01*
X77644571Y-73954137D02*
X77673142Y-74068422D01*
X77673142Y-74068422D02*
X77673142Y-74211280D01*
X77673142Y-74211280D02*
X77644571Y-74325565D01*
X77644571Y-74325565D02*
X77616000Y-74382708D01*
X77616000Y-74382708D02*
X77587428Y-74411280D01*
X77587428Y-74411280D02*
X77530285Y-74439851D01*
X77530285Y-74439851D02*
X77473142Y-74439851D01*
X77473142Y-74439851D02*
X77416000Y-74411280D01*
X77416000Y-74411280D02*
X77387428Y-74382708D01*
X77387428Y-74382708D02*
X77358857Y-74325565D01*
X77358857Y-74325565D02*
X77330285Y-74211280D01*
X77330285Y-74211280D02*
X77330285Y-74068422D01*
X77330285Y-74068422D02*
X77358857Y-73954137D01*
X77358857Y-73954137D02*
X77387428Y-73896994D01*
X77387428Y-73896994D02*
X77416000Y-73868422D01*
X77416000Y-73868422D02*
X77473142Y-73839851D01*
D15*
X144859714Y-73846328D02*
X145216857Y-74846328D01*
X145216857Y-74846328D02*
X145574000Y-73846328D01*
X148074000Y-74846328D02*
X147216857Y-74846328D01*
X147645428Y-74846328D02*
X147645428Y-73346328D01*
X147645428Y-73346328D02*
X147502571Y-73560614D01*
X147502571Y-73560614D02*
X147359714Y-73703471D01*
X147359714Y-73703471D02*
X147216857Y-73774900D01*
X148716856Y-74703471D02*
X148788285Y-74774900D01*
X148788285Y-74774900D02*
X148716856Y-74846328D01*
X148716856Y-74846328D02*
X148645428Y-74774900D01*
X148645428Y-74774900D02*
X148716856Y-74703471D01*
X148716856Y-74703471D02*
X148716856Y-74846328D01*
X150145428Y-73346328D02*
X149431142Y-73346328D01*
X149431142Y-73346328D02*
X149359714Y-74060614D01*
X149359714Y-74060614D02*
X149431142Y-73989185D01*
X149431142Y-73989185D02*
X149574000Y-73917757D01*
X149574000Y-73917757D02*
X149931142Y-73917757D01*
X149931142Y-73917757D02*
X150074000Y-73989185D01*
X150074000Y-73989185D02*
X150145428Y-74060614D01*
X150145428Y-74060614D02*
X150216857Y-74203471D01*
X150216857Y-74203471D02*
X150216857Y-74560614D01*
X150216857Y-74560614D02*
X150145428Y-74703471D01*
X150145428Y-74703471D02*
X150074000Y-74774900D01*
X150074000Y-74774900D02*
X149931142Y-74846328D01*
X149931142Y-74846328D02*
X149574000Y-74846328D01*
X149574000Y-74846328D02*
X149431142Y-74774900D01*
X149431142Y-74774900D02*
X149359714Y-74703471D01*
D14*
X139020571Y-74658994D02*
X139049143Y-74630422D01*
X139049143Y-74630422D02*
X139106286Y-74601851D01*
X139106286Y-74601851D02*
X139249143Y-74601851D01*
X139249143Y-74601851D02*
X139306286Y-74630422D01*
X139306286Y-74630422D02*
X139334857Y-74658994D01*
X139334857Y-74658994D02*
X139363428Y-74716137D01*
X139363428Y-74716137D02*
X139363428Y-74773280D01*
X139363428Y-74773280D02*
X139334857Y-74858994D01*
X139334857Y-74858994D02*
X138992000Y-75201851D01*
X138992000Y-75201851D02*
X139363428Y-75201851D01*
D12*
X139203854Y-27704578D02*
X139184806Y-27723626D01*
X139184806Y-27723626D02*
X139127664Y-27742673D01*
X139127664Y-27742673D02*
X139089568Y-27742673D01*
X139089568Y-27742673D02*
X139032425Y-27723626D01*
X139032425Y-27723626D02*
X138994330Y-27685530D01*
X138994330Y-27685530D02*
X138975283Y-27647435D01*
X138975283Y-27647435D02*
X138956235Y-27571245D01*
X138956235Y-27571245D02*
X138956235Y-27514102D01*
X138956235Y-27514102D02*
X138975283Y-27437911D01*
X138975283Y-27437911D02*
X138994330Y-27399816D01*
X138994330Y-27399816D02*
X139032425Y-27361721D01*
X139032425Y-27361721D02*
X139089568Y-27342673D01*
X139089568Y-27342673D02*
X139127664Y-27342673D01*
X139127664Y-27342673D02*
X139184806Y-27361721D01*
X139184806Y-27361721D02*
X139203854Y-27380768D01*
X139356235Y-27723626D02*
X139413378Y-27742673D01*
X139413378Y-27742673D02*
X139508616Y-27742673D01*
X139508616Y-27742673D02*
X139546711Y-27723626D01*
X139546711Y-27723626D02*
X139565759Y-27704578D01*
X139565759Y-27704578D02*
X139584806Y-27666483D01*
X139584806Y-27666483D02*
X139584806Y-27628387D01*
X139584806Y-27628387D02*
X139565759Y-27590292D01*
X139565759Y-27590292D02*
X139546711Y-27571245D01*
X139546711Y-27571245D02*
X139508616Y-27552197D01*
X139508616Y-27552197D02*
X139432425Y-27533149D01*
X139432425Y-27533149D02*
X139394330Y-27514102D01*
X139394330Y-27514102D02*
X139375283Y-27495054D01*
X139375283Y-27495054D02*
X139356235Y-27456959D01*
X139356235Y-27456959D02*
X139356235Y-27418864D01*
X139356235Y-27418864D02*
X139375283Y-27380768D01*
X139375283Y-27380768D02*
X139394330Y-27361721D01*
X139394330Y-27361721D02*
X139432425Y-27342673D01*
X139432425Y-27342673D02*
X139527664Y-27342673D01*
X139527664Y-27342673D02*
X139584806Y-27361721D01*
X139737187Y-27380768D02*
X139756235Y-27361721D01*
X139756235Y-27361721D02*
X139794330Y-27342673D01*
X139794330Y-27342673D02*
X139889568Y-27342673D01*
X139889568Y-27342673D02*
X139927663Y-27361721D01*
X139927663Y-27361721D02*
X139946711Y-27380768D01*
X139946711Y-27380768D02*
X139965758Y-27418864D01*
X139965758Y-27418864D02*
X139965758Y-27456959D01*
X139965758Y-27456959D02*
X139946711Y-27514102D01*
X139946711Y-27514102D02*
X139718139Y-27742673D01*
X139718139Y-27742673D02*
X139965758Y-27742673D01*
D10*
X76168285Y-28744152D02*
X76168285Y-29410819D01*
X75930190Y-28363200D02*
X75692095Y-29077485D01*
X75692095Y-29077485D02*
X76311142Y-29077485D01*
X76882571Y-28410819D02*
X76977809Y-28410819D01*
X76977809Y-28410819D02*
X77073047Y-28458438D01*
X77073047Y-28458438D02*
X77120666Y-28506057D01*
X77120666Y-28506057D02*
X77168285Y-28601295D01*
X77168285Y-28601295D02*
X77215904Y-28791771D01*
X77215904Y-28791771D02*
X77215904Y-29029866D01*
X77215904Y-29029866D02*
X77168285Y-29220342D01*
X77168285Y-29220342D02*
X77120666Y-29315580D01*
X77120666Y-29315580D02*
X77073047Y-29363200D01*
X77073047Y-29363200D02*
X76977809Y-29410819D01*
X76977809Y-29410819D02*
X76882571Y-29410819D01*
X76882571Y-29410819D02*
X76787333Y-29363200D01*
X76787333Y-29363200D02*
X76739714Y-29315580D01*
X76739714Y-29315580D02*
X76692095Y-29220342D01*
X76692095Y-29220342D02*
X76644476Y-29029866D01*
X76644476Y-29029866D02*
X76644476Y-28791771D01*
X76644476Y-28791771D02*
X76692095Y-28601295D01*
X76692095Y-28601295D02*
X76739714Y-28506057D01*
X76739714Y-28506057D02*
X76787333Y-28458438D01*
X76787333Y-28458438D02*
X76882571Y-28410819D01*
X59556590Y-48596327D02*
X59518494Y-48634423D01*
X59518494Y-48634423D02*
X59404209Y-48672518D01*
X59404209Y-48672518D02*
X59328018Y-48672518D01*
X59328018Y-48672518D02*
X59213732Y-48634423D01*
X59213732Y-48634423D02*
X59137542Y-48558232D01*
X59137542Y-48558232D02*
X59099447Y-48482042D01*
X59099447Y-48482042D02*
X59061351Y-48329661D01*
X59061351Y-48329661D02*
X59061351Y-48215375D01*
X59061351Y-48215375D02*
X59099447Y-48062994D01*
X59099447Y-48062994D02*
X59137542Y-47986803D01*
X59137542Y-47986803D02*
X59213732Y-47910613D01*
X59213732Y-47910613D02*
X59328018Y-47872518D01*
X59328018Y-47872518D02*
X59404209Y-47872518D01*
X59404209Y-47872518D02*
X59518494Y-47910613D01*
X59518494Y-47910613D02*
X59556590Y-47948708D01*
X60318494Y-48672518D02*
X59861351Y-48672518D01*
X60089923Y-48672518D02*
X60089923Y-47872518D01*
X60089923Y-47872518D02*
X60013732Y-47986803D01*
X60013732Y-47986803D02*
X59937542Y-48062994D01*
X59937542Y-48062994D02*
X59861351Y-48101089D01*
D11*
X61616327Y-23157156D02*
X61592518Y-23180966D01*
X61592518Y-23180966D02*
X61521089Y-23204775D01*
X61521089Y-23204775D02*
X61473470Y-23204775D01*
X61473470Y-23204775D02*
X61402042Y-23180966D01*
X61402042Y-23180966D02*
X61354423Y-23133346D01*
X61354423Y-23133346D02*
X61330613Y-23085727D01*
X61330613Y-23085727D02*
X61306804Y-22990489D01*
X61306804Y-22990489D02*
X61306804Y-22919061D01*
X61306804Y-22919061D02*
X61330613Y-22823823D01*
X61330613Y-22823823D02*
X61354423Y-22776204D01*
X61354423Y-22776204D02*
X61402042Y-22728585D01*
X61402042Y-22728585D02*
X61473470Y-22704775D01*
X61473470Y-22704775D02*
X61521089Y-22704775D01*
X61521089Y-22704775D02*
X61592518Y-22728585D01*
X61592518Y-22728585D02*
X61616327Y-22752394D01*
X61782994Y-22704775D02*
X62116327Y-22704775D01*
X62116327Y-22704775D02*
X61902042Y-23204775D01*
D10*
X87096761Y-50640653D02*
X87096761Y-52016843D01*
X87096761Y-52016843D02*
X87177714Y-52178748D01*
X87177714Y-52178748D02*
X87258666Y-52259701D01*
X87258666Y-52259701D02*
X87420571Y-52340653D01*
X87420571Y-52340653D02*
X87744380Y-52340653D01*
X87744380Y-52340653D02*
X87906285Y-52259701D01*
X87906285Y-52259701D02*
X87987238Y-52178748D01*
X87987238Y-52178748D02*
X88068190Y-52016843D01*
X88068190Y-52016843D02*
X88068190Y-50640653D01*
X88715809Y-50640653D02*
X89768190Y-50640653D01*
X89768190Y-50640653D02*
X89201523Y-51288272D01*
X89201523Y-51288272D02*
X89444380Y-51288272D01*
X89444380Y-51288272D02*
X89606285Y-51369224D01*
X89606285Y-51369224D02*
X89687237Y-51450177D01*
X89687237Y-51450177D02*
X89768190Y-51612081D01*
X89768190Y-51612081D02*
X89768190Y-52016843D01*
X89768190Y-52016843D02*
X89687237Y-52178748D01*
X89687237Y-52178748D02*
X89606285Y-52259701D01*
X89606285Y-52259701D02*
X89444380Y-52340653D01*
X89444380Y-52340653D02*
X88958666Y-52340653D01*
X88958666Y-52340653D02*
X88796761Y-52259701D01*
X88796761Y-52259701D02*
X88715809Y-52178748D01*
X98728286Y-54771819D02*
X99394952Y-54771819D01*
X99394952Y-54771819D02*
X98966381Y-55771819D01*
X100204476Y-55105152D02*
X100204476Y-55771819D01*
X99966381Y-54724200D02*
X99728286Y-55438485D01*
X99728286Y-55438485D02*
X100347333Y-55438485D01*
X101204476Y-55771819D02*
X100728286Y-55771819D01*
X100728286Y-55771819D02*
X100728286Y-54771819D01*
X101490191Y-55724200D02*
X101633048Y-55771819D01*
X101633048Y-55771819D02*
X101871143Y-55771819D01*
X101871143Y-55771819D02*
X101966381Y-55724200D01*
X101966381Y-55724200D02*
X102014000Y-55676580D01*
X102014000Y-55676580D02*
X102061619Y-55581342D01*
X102061619Y-55581342D02*
X102061619Y-55486104D01*
X102061619Y-55486104D02*
X102014000Y-55390866D01*
X102014000Y-55390866D02*
X101966381Y-55343247D01*
X101966381Y-55343247D02*
X101871143Y-55295628D01*
X101871143Y-55295628D02*
X101680667Y-55248009D01*
X101680667Y-55248009D02*
X101585429Y-55200390D01*
X101585429Y-55200390D02*
X101537810Y-55152771D01*
X101537810Y-55152771D02*
X101490191Y-55057533D01*
X101490191Y-55057533D02*
X101490191Y-54962295D01*
X101490191Y-54962295D02*
X101537810Y-54867057D01*
X101537810Y-54867057D02*
X101585429Y-54819438D01*
X101585429Y-54819438D02*
X101680667Y-54771819D01*
X101680667Y-54771819D02*
X101918762Y-54771819D01*
X101918762Y-54771819D02*
X102061619Y-54819438D01*
X102918762Y-54771819D02*
X102728286Y-54771819D01*
X102728286Y-54771819D02*
X102633048Y-54819438D01*
X102633048Y-54819438D02*
X102585429Y-54867057D01*
X102585429Y-54867057D02*
X102490191Y-55009914D01*
X102490191Y-55009914D02*
X102442572Y-55200390D01*
X102442572Y-55200390D02*
X102442572Y-55581342D01*
X102442572Y-55581342D02*
X102490191Y-55676580D01*
X102490191Y-55676580D02*
X102537810Y-55724200D01*
X102537810Y-55724200D02*
X102633048Y-55771819D01*
X102633048Y-55771819D02*
X102823524Y-55771819D01*
X102823524Y-55771819D02*
X102918762Y-55724200D01*
X102918762Y-55724200D02*
X102966381Y-55676580D01*
X102966381Y-55676580D02*
X103014000Y-55581342D01*
X103014000Y-55581342D02*
X103014000Y-55343247D01*
X103014000Y-55343247D02*
X102966381Y-55248009D01*
X102966381Y-55248009D02*
X102918762Y-55200390D01*
X102918762Y-55200390D02*
X102823524Y-55152771D01*
X102823524Y-55152771D02*
X102633048Y-55152771D01*
X102633048Y-55152771D02*
X102537810Y-55200390D01*
X102537810Y-55200390D02*
X102490191Y-55248009D01*
X102490191Y-55248009D02*
X102442572Y-55343247D01*
X103871143Y-55105152D02*
X103871143Y-55771819D01*
X103633048Y-54724200D02*
X103394953Y-55438485D01*
X103394953Y-55438485D02*
X104014000Y-55438485D01*
X104918762Y-55771819D02*
X104347334Y-55771819D01*
X104633048Y-55771819D02*
X104633048Y-54771819D01*
X104633048Y-54771819D02*
X104537810Y-54914676D01*
X104537810Y-54914676D02*
X104442572Y-55009914D01*
X104442572Y-55009914D02*
X104347334Y-55057533D01*
X105347334Y-55390866D02*
X106109239Y-55390866D01*
X107109238Y-55771819D02*
X106537810Y-55771819D01*
X106823524Y-55771819D02*
X106823524Y-54771819D01*
X106823524Y-54771819D02*
X106728286Y-54914676D01*
X106728286Y-54914676D02*
X106633048Y-55009914D01*
X106633048Y-55009914D02*
X106537810Y-55057533D01*
X107537810Y-55771819D02*
X107537810Y-54771819D01*
X107537810Y-54771819D02*
X107775905Y-54771819D01*
X107775905Y-54771819D02*
X107918762Y-54819438D01*
X107918762Y-54819438D02*
X108014000Y-54914676D01*
X108014000Y-54914676D02*
X108061619Y-55009914D01*
X108061619Y-55009914D02*
X108109238Y-55200390D01*
X108109238Y-55200390D02*
X108109238Y-55343247D01*
X108109238Y-55343247D02*
X108061619Y-55533723D01*
X108061619Y-55533723D02*
X108014000Y-55628961D01*
X108014000Y-55628961D02*
X107918762Y-55724200D01*
X107918762Y-55724200D02*
X107775905Y-55771819D01*
X107775905Y-55771819D02*
X107537810Y-55771819D01*
X108442572Y-54771819D02*
X108680667Y-55771819D01*
X108680667Y-55771819D02*
X108871143Y-55057533D01*
X108871143Y-55057533D02*
X109061619Y-55771819D01*
X109061619Y-55771819D02*
X109299715Y-54771819D01*
X65519333Y-32582295D02*
X65519333Y-33153723D01*
X65519333Y-33153723D02*
X65481238Y-33268009D01*
X65481238Y-33268009D02*
X65405047Y-33344200D01*
X65405047Y-33344200D02*
X65290762Y-33382295D01*
X65290762Y-33382295D02*
X65214571Y-33382295D01*
X66281238Y-32582295D02*
X65900286Y-32582295D01*
X65900286Y-32582295D02*
X65862190Y-32963247D01*
X65862190Y-32963247D02*
X65900286Y-32925152D01*
X65900286Y-32925152D02*
X65976476Y-32887057D01*
X65976476Y-32887057D02*
X66166952Y-32887057D01*
X66166952Y-32887057D02*
X66243143Y-32925152D01*
X66243143Y-32925152D02*
X66281238Y-32963247D01*
X66281238Y-32963247D02*
X66319333Y-33039438D01*
X66319333Y-33039438D02*
X66319333Y-33229914D01*
X66319333Y-33229914D02*
X66281238Y-33306104D01*
X66281238Y-33306104D02*
X66243143Y-33344200D01*
X66243143Y-33344200D02*
X66166952Y-33382295D01*
X66166952Y-33382295D02*
X65976476Y-33382295D01*
X65976476Y-33382295D02*
X65900286Y-33344200D01*
X65900286Y-33344200D02*
X65862190Y-33306104D01*
X142688747Y-62756448D02*
X142355414Y-62280257D01*
X142117319Y-62756448D02*
X142117319Y-61756448D01*
X142117319Y-61756448D02*
X142498271Y-61756448D01*
X142498271Y-61756448D02*
X142593509Y-61804067D01*
X142593509Y-61804067D02*
X142641128Y-61851686D01*
X142641128Y-61851686D02*
X142688747Y-61946924D01*
X142688747Y-61946924D02*
X142688747Y-62089781D01*
X142688747Y-62089781D02*
X142641128Y-62185019D01*
X142641128Y-62185019D02*
X142593509Y-62232638D01*
X142593509Y-62232638D02*
X142498271Y-62280257D01*
X142498271Y-62280257D02*
X142117319Y-62280257D01*
X143022081Y-61756448D02*
X143688747Y-61756448D01*
X143688747Y-61756448D02*
X143260176Y-62756448D01*
X59569242Y-40020702D02*
X59531146Y-40058798D01*
X59531146Y-40058798D02*
X59416861Y-40096893D01*
X59416861Y-40096893D02*
X59340670Y-40096893D01*
X59340670Y-40096893D02*
X59226384Y-40058798D01*
X59226384Y-40058798D02*
X59150194Y-39982607D01*
X59150194Y-39982607D02*
X59112099Y-39906417D01*
X59112099Y-39906417D02*
X59074003Y-39754036D01*
X59074003Y-39754036D02*
X59074003Y-39639750D01*
X59074003Y-39639750D02*
X59112099Y-39487369D01*
X59112099Y-39487369D02*
X59150194Y-39411178D01*
X59150194Y-39411178D02*
X59226384Y-39334988D01*
X59226384Y-39334988D02*
X59340670Y-39296893D01*
X59340670Y-39296893D02*
X59416861Y-39296893D01*
X59416861Y-39296893D02*
X59531146Y-39334988D01*
X59531146Y-39334988D02*
X59569242Y-39373083D01*
X59874003Y-39373083D02*
X59912099Y-39334988D01*
X59912099Y-39334988D02*
X59988289Y-39296893D01*
X59988289Y-39296893D02*
X60178765Y-39296893D01*
X60178765Y-39296893D02*
X60254956Y-39334988D01*
X60254956Y-39334988D02*
X60293051Y-39373083D01*
X60293051Y-39373083D02*
X60331146Y-39449274D01*
X60331146Y-39449274D02*
X60331146Y-39525464D01*
X60331146Y-39525464D02*
X60293051Y-39639750D01*
X60293051Y-39639750D02*
X59835908Y-40096893D01*
X59835908Y-40096893D02*
X60331146Y-40096893D01*
X134961333Y-35411580D02*
X134913714Y-35459200D01*
X134913714Y-35459200D02*
X134770857Y-35506819D01*
X134770857Y-35506819D02*
X134675619Y-35506819D01*
X134675619Y-35506819D02*
X134532762Y-35459200D01*
X134532762Y-35459200D02*
X134437524Y-35363961D01*
X134437524Y-35363961D02*
X134389905Y-35268723D01*
X134389905Y-35268723D02*
X134342286Y-35078247D01*
X134342286Y-35078247D02*
X134342286Y-34935390D01*
X134342286Y-34935390D02*
X134389905Y-34744914D01*
X134389905Y-34744914D02*
X134437524Y-34649676D01*
X134437524Y-34649676D02*
X134532762Y-34554438D01*
X134532762Y-34554438D02*
X134675619Y-34506819D01*
X134675619Y-34506819D02*
X134770857Y-34506819D01*
X134770857Y-34506819D02*
X134913714Y-34554438D01*
X134913714Y-34554438D02*
X134961333Y-34602057D01*
X135437524Y-35506819D02*
X135628000Y-35506819D01*
X135628000Y-35506819D02*
X135723238Y-35459200D01*
X135723238Y-35459200D02*
X135770857Y-35411580D01*
X135770857Y-35411580D02*
X135866095Y-35268723D01*
X135866095Y-35268723D02*
X135913714Y-35078247D01*
X135913714Y-35078247D02*
X135913714Y-34697295D01*
X135913714Y-34697295D02*
X135866095Y-34602057D01*
X135866095Y-34602057D02*
X135818476Y-34554438D01*
X135818476Y-34554438D02*
X135723238Y-34506819D01*
X135723238Y-34506819D02*
X135532762Y-34506819D01*
X135532762Y-34506819D02*
X135437524Y-34554438D01*
X135437524Y-34554438D02*
X135389905Y-34602057D01*
X135389905Y-34602057D02*
X135342286Y-34697295D01*
X135342286Y-34697295D02*
X135342286Y-34935390D01*
X135342286Y-34935390D02*
X135389905Y-35030628D01*
X135389905Y-35030628D02*
X135437524Y-35078247D01*
X135437524Y-35078247D02*
X135532762Y-35125866D01*
X135532762Y-35125866D02*
X135723238Y-35125866D01*
X135723238Y-35125866D02*
X135818476Y-35078247D01*
X135818476Y-35078247D02*
X135866095Y-35030628D01*
X135866095Y-35030628D02*
X135913714Y-34935390D01*
X120262667Y-48292104D02*
X120224571Y-48330200D01*
X120224571Y-48330200D02*
X120110286Y-48368295D01*
X120110286Y-48368295D02*
X120034095Y-48368295D01*
X120034095Y-48368295D02*
X119919809Y-48330200D01*
X119919809Y-48330200D02*
X119843619Y-48254009D01*
X119843619Y-48254009D02*
X119805524Y-48177819D01*
X119805524Y-48177819D02*
X119767428Y-48025438D01*
X119767428Y-48025438D02*
X119767428Y-47911152D01*
X119767428Y-47911152D02*
X119805524Y-47758771D01*
X119805524Y-47758771D02*
X119843619Y-47682580D01*
X119843619Y-47682580D02*
X119919809Y-47606390D01*
X119919809Y-47606390D02*
X120034095Y-47568295D01*
X120034095Y-47568295D02*
X120110286Y-47568295D01*
X120110286Y-47568295D02*
X120224571Y-47606390D01*
X120224571Y-47606390D02*
X120262667Y-47644485D01*
X120986476Y-47568295D02*
X120605524Y-47568295D01*
X120605524Y-47568295D02*
X120567428Y-47949247D01*
X120567428Y-47949247D02*
X120605524Y-47911152D01*
X120605524Y-47911152D02*
X120681714Y-47873057D01*
X120681714Y-47873057D02*
X120872190Y-47873057D01*
X120872190Y-47873057D02*
X120948381Y-47911152D01*
X120948381Y-47911152D02*
X120986476Y-47949247D01*
X120986476Y-47949247D02*
X121024571Y-48025438D01*
X121024571Y-48025438D02*
X121024571Y-48215914D01*
X121024571Y-48215914D02*
X120986476Y-48292104D01*
X120986476Y-48292104D02*
X120948381Y-48330200D01*
X120948381Y-48330200D02*
X120872190Y-48368295D01*
X120872190Y-48368295D02*
X120681714Y-48368295D01*
X120681714Y-48368295D02*
X120605524Y-48330200D01*
X120605524Y-48330200D02*
X120567428Y-48292104D01*
X95083333Y-45902216D02*
X94750000Y-45426025D01*
X94511905Y-45902216D02*
X94511905Y-44902216D01*
X94511905Y-44902216D02*
X94892857Y-44902216D01*
X94892857Y-44902216D02*
X94988095Y-44949835D01*
X94988095Y-44949835D02*
X95035714Y-44997454D01*
X95035714Y-44997454D02*
X95083333Y-45092692D01*
X95083333Y-45092692D02*
X95083333Y-45235549D01*
X95083333Y-45235549D02*
X95035714Y-45330787D01*
X95035714Y-45330787D02*
X94988095Y-45378406D01*
X94988095Y-45378406D02*
X94892857Y-45426025D01*
X94892857Y-45426025D02*
X94511905Y-45426025D01*
X95940476Y-45235549D02*
X95940476Y-45902216D01*
X95702381Y-44854597D02*
X95464286Y-45568882D01*
X95464286Y-45568882D02*
X96083333Y-45568882D01*
X149269524Y-59036295D02*
X149269524Y-58236295D01*
X149269524Y-58236295D02*
X149460000Y-58236295D01*
X149460000Y-58236295D02*
X149574286Y-58274390D01*
X149574286Y-58274390D02*
X149650476Y-58350580D01*
X149650476Y-58350580D02*
X149688571Y-58426771D01*
X149688571Y-58426771D02*
X149726667Y-58579152D01*
X149726667Y-58579152D02*
X149726667Y-58693438D01*
X149726667Y-58693438D02*
X149688571Y-58845819D01*
X149688571Y-58845819D02*
X149650476Y-58922009D01*
X149650476Y-58922009D02*
X149574286Y-58998200D01*
X149574286Y-58998200D02*
X149460000Y-59036295D01*
X149460000Y-59036295D02*
X149269524Y-59036295D01*
X150488571Y-59036295D02*
X150031428Y-59036295D01*
X150260000Y-59036295D02*
X150260000Y-58236295D01*
X150260000Y-58236295D02*
X150183809Y-58350580D01*
X150183809Y-58350580D02*
X150107619Y-58426771D01*
X150107619Y-58426771D02*
X150031428Y-58464866D01*
X127060333Y-62760449D02*
X126727000Y-62284258D01*
X126488905Y-62760449D02*
X126488905Y-61760449D01*
X126488905Y-61760449D02*
X126869857Y-61760449D01*
X126869857Y-61760449D02*
X126965095Y-61808068D01*
X126965095Y-61808068D02*
X127012714Y-61855687D01*
X127012714Y-61855687D02*
X127060333Y-61950925D01*
X127060333Y-61950925D02*
X127060333Y-62093782D01*
X127060333Y-62093782D02*
X127012714Y-62189020D01*
X127012714Y-62189020D02*
X126965095Y-62236639D01*
X126965095Y-62236639D02*
X126869857Y-62284258D01*
X126869857Y-62284258D02*
X126488905Y-62284258D01*
X127393667Y-61760449D02*
X128012714Y-61760449D01*
X128012714Y-61760449D02*
X127679381Y-62141401D01*
X127679381Y-62141401D02*
X127822238Y-62141401D01*
X127822238Y-62141401D02*
X127917476Y-62189020D01*
X127917476Y-62189020D02*
X127965095Y-62236639D01*
X127965095Y-62236639D02*
X128012714Y-62331877D01*
X128012714Y-62331877D02*
X128012714Y-62569972D01*
X128012714Y-62569972D02*
X127965095Y-62665210D01*
X127965095Y-62665210D02*
X127917476Y-62712830D01*
X127917476Y-62712830D02*
X127822238Y-62760449D01*
X127822238Y-62760449D02*
X127536524Y-62760449D01*
X127536524Y-62760449D02*
X127441286Y-62712830D01*
X127441286Y-62712830D02*
X127393667Y-62665210D01*
X78509357Y-60899089D02*
X78176024Y-60422898D01*
X77937929Y-60899089D02*
X77937929Y-59899089D01*
X77937929Y-59899089D02*
X78318881Y-59899089D01*
X78318881Y-59899089D02*
X78414119Y-59946708D01*
X78414119Y-59946708D02*
X78461738Y-59994327D01*
X78461738Y-59994327D02*
X78509357Y-60089565D01*
X78509357Y-60089565D02*
X78509357Y-60232422D01*
X78509357Y-60232422D02*
X78461738Y-60327660D01*
X78461738Y-60327660D02*
X78414119Y-60375279D01*
X78414119Y-60375279D02*
X78318881Y-60422898D01*
X78318881Y-60422898D02*
X77937929Y-60422898D01*
X78937929Y-60899089D02*
X78937929Y-59899089D01*
X78937929Y-59899089D02*
X79509357Y-60899089D01*
X79509357Y-60899089D02*
X79509357Y-59899089D01*
X80461738Y-59899089D02*
X79985548Y-59899089D01*
X79985548Y-59899089D02*
X79937929Y-60375279D01*
X79937929Y-60375279D02*
X79985548Y-60327660D01*
X79985548Y-60327660D02*
X80080786Y-60280041D01*
X80080786Y-60280041D02*
X80318881Y-60280041D01*
X80318881Y-60280041D02*
X80414119Y-60327660D01*
X80414119Y-60327660D02*
X80461738Y-60375279D01*
X80461738Y-60375279D02*
X80509357Y-60470517D01*
X80509357Y-60470517D02*
X80509357Y-60708612D01*
X80509357Y-60708612D02*
X80461738Y-60803850D01*
X80461738Y-60803850D02*
X80414119Y-60851470D01*
X80414119Y-60851470D02*
X80318881Y-60899089D01*
X80318881Y-60899089D02*
X80080786Y-60899089D01*
X80080786Y-60899089D02*
X79985548Y-60851470D01*
X79985548Y-60851470D02*
X79937929Y-60803850D01*
X130119523Y-34744819D02*
X129786190Y-34268628D01*
X129548095Y-34744819D02*
X129548095Y-33744819D01*
X129548095Y-33744819D02*
X129929047Y-33744819D01*
X129929047Y-33744819D02*
X130024285Y-33792438D01*
X130024285Y-33792438D02*
X130071904Y-33840057D01*
X130071904Y-33840057D02*
X130119523Y-33935295D01*
X130119523Y-33935295D02*
X130119523Y-34078152D01*
X130119523Y-34078152D02*
X130071904Y-34173390D01*
X130071904Y-34173390D02*
X130024285Y-34221009D01*
X130024285Y-34221009D02*
X129929047Y-34268628D01*
X129929047Y-34268628D02*
X129548095Y-34268628D01*
X130548095Y-34744819D02*
X130548095Y-33744819D01*
X130548095Y-33744819D02*
X131119523Y-34744819D01*
X131119523Y-34744819D02*
X131119523Y-33744819D01*
X132024285Y-34078152D02*
X132024285Y-34744819D01*
X131786190Y-33697200D02*
X131548095Y-34411485D01*
X131548095Y-34411485D02*
X132167142Y-34411485D01*
X118846761Y-40734653D02*
X118846761Y-42110843D01*
X118846761Y-42110843D02*
X118927714Y-42272748D01*
X118927714Y-42272748D02*
X119008666Y-42353701D01*
X119008666Y-42353701D02*
X119170571Y-42434653D01*
X119170571Y-42434653D02*
X119494380Y-42434653D01*
X119494380Y-42434653D02*
X119656285Y-42353701D01*
X119656285Y-42353701D02*
X119737238Y-42272748D01*
X119737238Y-42272748D02*
X119818190Y-42110843D01*
X119818190Y-42110843D02*
X119818190Y-40734653D01*
X121437237Y-40734653D02*
X120627713Y-40734653D01*
X120627713Y-40734653D02*
X120546761Y-41544177D01*
X120546761Y-41544177D02*
X120627713Y-41463224D01*
X120627713Y-41463224D02*
X120789618Y-41382272D01*
X120789618Y-41382272D02*
X121194380Y-41382272D01*
X121194380Y-41382272D02*
X121356285Y-41463224D01*
X121356285Y-41463224D02*
X121437237Y-41544177D01*
X121437237Y-41544177D02*
X121518190Y-41706081D01*
X121518190Y-41706081D02*
X121518190Y-42110843D01*
X121518190Y-42110843D02*
X121437237Y-42272748D01*
X121437237Y-42272748D02*
X121356285Y-42353701D01*
X121356285Y-42353701D02*
X121194380Y-42434653D01*
X121194380Y-42434653D02*
X120789618Y-42434653D01*
X120789618Y-42434653D02*
X120627713Y-42353701D01*
X120627713Y-42353701D02*
X120546761Y-42272748D01*
X129080286Y-44870819D02*
X129746952Y-44870819D01*
X129746952Y-44870819D02*
X129318381Y-45870819D01*
X130556476Y-45204152D02*
X130556476Y-45870819D01*
X130318381Y-44823200D02*
X130080286Y-45537485D01*
X130080286Y-45537485D02*
X130699333Y-45537485D01*
X131556476Y-45870819D02*
X131080286Y-45870819D01*
X131080286Y-45870819D02*
X131080286Y-44870819D01*
X131842191Y-45823200D02*
X131985048Y-45870819D01*
X131985048Y-45870819D02*
X132223143Y-45870819D01*
X132223143Y-45870819D02*
X132318381Y-45823200D01*
X132318381Y-45823200D02*
X132366000Y-45775580D01*
X132366000Y-45775580D02*
X132413619Y-45680342D01*
X132413619Y-45680342D02*
X132413619Y-45585104D01*
X132413619Y-45585104D02*
X132366000Y-45489866D01*
X132366000Y-45489866D02*
X132318381Y-45442247D01*
X132318381Y-45442247D02*
X132223143Y-45394628D01*
X132223143Y-45394628D02*
X132032667Y-45347009D01*
X132032667Y-45347009D02*
X131937429Y-45299390D01*
X131937429Y-45299390D02*
X131889810Y-45251771D01*
X131889810Y-45251771D02*
X131842191Y-45156533D01*
X131842191Y-45156533D02*
X131842191Y-45061295D01*
X131842191Y-45061295D02*
X131889810Y-44966057D01*
X131889810Y-44966057D02*
X131937429Y-44918438D01*
X131937429Y-44918438D02*
X132032667Y-44870819D01*
X132032667Y-44870819D02*
X132270762Y-44870819D01*
X132270762Y-44870819D02*
X132413619Y-44918438D01*
X133270762Y-44870819D02*
X133080286Y-44870819D01*
X133080286Y-44870819D02*
X132985048Y-44918438D01*
X132985048Y-44918438D02*
X132937429Y-44966057D01*
X132937429Y-44966057D02*
X132842191Y-45108914D01*
X132842191Y-45108914D02*
X132794572Y-45299390D01*
X132794572Y-45299390D02*
X132794572Y-45680342D01*
X132794572Y-45680342D02*
X132842191Y-45775580D01*
X132842191Y-45775580D02*
X132889810Y-45823200D01*
X132889810Y-45823200D02*
X132985048Y-45870819D01*
X132985048Y-45870819D02*
X133175524Y-45870819D01*
X133175524Y-45870819D02*
X133270762Y-45823200D01*
X133270762Y-45823200D02*
X133318381Y-45775580D01*
X133318381Y-45775580D02*
X133366000Y-45680342D01*
X133366000Y-45680342D02*
X133366000Y-45442247D01*
X133366000Y-45442247D02*
X133318381Y-45347009D01*
X133318381Y-45347009D02*
X133270762Y-45299390D01*
X133270762Y-45299390D02*
X133175524Y-45251771D01*
X133175524Y-45251771D02*
X132985048Y-45251771D01*
X132985048Y-45251771D02*
X132889810Y-45299390D01*
X132889810Y-45299390D02*
X132842191Y-45347009D01*
X132842191Y-45347009D02*
X132794572Y-45442247D01*
X134223143Y-45204152D02*
X134223143Y-45870819D01*
X133985048Y-44823200D02*
X133746953Y-45537485D01*
X133746953Y-45537485D02*
X134366000Y-45537485D01*
X135270762Y-45870819D02*
X134699334Y-45870819D01*
X134985048Y-45870819D02*
X134985048Y-44870819D01*
X134985048Y-44870819D02*
X134889810Y-45013676D01*
X134889810Y-45013676D02*
X134794572Y-45108914D01*
X134794572Y-45108914D02*
X134699334Y-45156533D01*
X135699334Y-45489866D02*
X136461239Y-45489866D01*
X137461238Y-45870819D02*
X136889810Y-45870819D01*
X137175524Y-45870819D02*
X137175524Y-44870819D01*
X137175524Y-44870819D02*
X137080286Y-45013676D01*
X137080286Y-45013676D02*
X136985048Y-45108914D01*
X136985048Y-45108914D02*
X136889810Y-45156533D01*
X137889810Y-45870819D02*
X137889810Y-44870819D01*
X137889810Y-44870819D02*
X138127905Y-44870819D01*
X138127905Y-44870819D02*
X138270762Y-44918438D01*
X138270762Y-44918438D02*
X138366000Y-45013676D01*
X138366000Y-45013676D02*
X138413619Y-45108914D01*
X138413619Y-45108914D02*
X138461238Y-45299390D01*
X138461238Y-45299390D02*
X138461238Y-45442247D01*
X138461238Y-45442247D02*
X138413619Y-45632723D01*
X138413619Y-45632723D02*
X138366000Y-45727961D01*
X138366000Y-45727961D02*
X138270762Y-45823200D01*
X138270762Y-45823200D02*
X138127905Y-45870819D01*
X138127905Y-45870819D02*
X137889810Y-45870819D01*
X138794572Y-44870819D02*
X139032667Y-45870819D01*
X139032667Y-45870819D02*
X139223143Y-45156533D01*
X139223143Y-45156533D02*
X139413619Y-45870819D01*
X139413619Y-45870819D02*
X139651715Y-44870819D01*
X102751609Y-38271881D02*
X102418276Y-37795690D01*
X102180181Y-38271881D02*
X102180181Y-37271881D01*
X102180181Y-37271881D02*
X102561133Y-37271881D01*
X102561133Y-37271881D02*
X102656371Y-37319500D01*
X102656371Y-37319500D02*
X102703990Y-37367119D01*
X102703990Y-37367119D02*
X102751609Y-37462357D01*
X102751609Y-37462357D02*
X102751609Y-37605214D01*
X102751609Y-37605214D02*
X102703990Y-37700452D01*
X102703990Y-37700452D02*
X102656371Y-37748071D01*
X102656371Y-37748071D02*
X102561133Y-37795690D01*
X102561133Y-37795690D02*
X102180181Y-37795690D01*
X103180181Y-38271881D02*
X103180181Y-37271881D01*
X103180181Y-37271881D02*
X103751609Y-38271881D01*
X103751609Y-38271881D02*
X103751609Y-37271881D01*
X104751609Y-38271881D02*
X104180181Y-38271881D01*
X104465895Y-38271881D02*
X104465895Y-37271881D01*
X104465895Y-37271881D02*
X104370657Y-37414738D01*
X104370657Y-37414738D02*
X104275419Y-37509976D01*
X104275419Y-37509976D02*
X104180181Y-37557595D01*
X142327333Y-65956631D02*
X141994000Y-65480440D01*
X141755905Y-65956631D02*
X141755905Y-64956631D01*
X141755905Y-64956631D02*
X142136857Y-64956631D01*
X142136857Y-64956631D02*
X142232095Y-65004250D01*
X142232095Y-65004250D02*
X142279714Y-65051869D01*
X142279714Y-65051869D02*
X142327333Y-65147107D01*
X142327333Y-65147107D02*
X142327333Y-65289964D01*
X142327333Y-65289964D02*
X142279714Y-65385202D01*
X142279714Y-65385202D02*
X142232095Y-65432821D01*
X142232095Y-65432821D02*
X142136857Y-65480440D01*
X142136857Y-65480440D02*
X141755905Y-65480440D01*
X142898762Y-65385202D02*
X142803524Y-65337583D01*
X142803524Y-65337583D02*
X142755905Y-65289964D01*
X142755905Y-65289964D02*
X142708286Y-65194726D01*
X142708286Y-65194726D02*
X142708286Y-65147107D01*
X142708286Y-65147107D02*
X142755905Y-65051869D01*
X142755905Y-65051869D02*
X142803524Y-65004250D01*
X142803524Y-65004250D02*
X142898762Y-64956631D01*
X142898762Y-64956631D02*
X143089238Y-64956631D01*
X143089238Y-64956631D02*
X143184476Y-65004250D01*
X143184476Y-65004250D02*
X143232095Y-65051869D01*
X143232095Y-65051869D02*
X143279714Y-65147107D01*
X143279714Y-65147107D02*
X143279714Y-65194726D01*
X143279714Y-65194726D02*
X143232095Y-65289964D01*
X143232095Y-65289964D02*
X143184476Y-65337583D01*
X143184476Y-65337583D02*
X143089238Y-65385202D01*
X143089238Y-65385202D02*
X142898762Y-65385202D01*
X142898762Y-65385202D02*
X142803524Y-65432821D01*
X142803524Y-65432821D02*
X142755905Y-65480440D01*
X142755905Y-65480440D02*
X142708286Y-65575678D01*
X142708286Y-65575678D02*
X142708286Y-65766154D01*
X142708286Y-65766154D02*
X142755905Y-65861392D01*
X142755905Y-65861392D02*
X142803524Y-65909012D01*
X142803524Y-65909012D02*
X142898762Y-65956631D01*
X142898762Y-65956631D02*
X143089238Y-65956631D01*
X143089238Y-65956631D02*
X143184476Y-65909012D01*
X143184476Y-65909012D02*
X143232095Y-65861392D01*
X143232095Y-65861392D02*
X143279714Y-65766154D01*
X143279714Y-65766154D02*
X143279714Y-65575678D01*
X143279714Y-65575678D02*
X143232095Y-65480440D01*
X143232095Y-65480440D02*
X143184476Y-65432821D01*
X143184476Y-65432821D02*
X143089238Y-65385202D01*
X111085333Y-45995024D02*
X110752000Y-45518833D01*
X110513905Y-45995024D02*
X110513905Y-44995024D01*
X110513905Y-44995024D02*
X110894857Y-44995024D01*
X110894857Y-44995024D02*
X110990095Y-45042643D01*
X110990095Y-45042643D02*
X111037714Y-45090262D01*
X111037714Y-45090262D02*
X111085333Y-45185500D01*
X111085333Y-45185500D02*
X111085333Y-45328357D01*
X111085333Y-45328357D02*
X111037714Y-45423595D01*
X111037714Y-45423595D02*
X110990095Y-45471214D01*
X110990095Y-45471214D02*
X110894857Y-45518833D01*
X110894857Y-45518833D02*
X110513905Y-45518833D01*
X111990095Y-44995024D02*
X111513905Y-44995024D01*
X111513905Y-44995024D02*
X111466286Y-45471214D01*
X111466286Y-45471214D02*
X111513905Y-45423595D01*
X111513905Y-45423595D02*
X111609143Y-45375976D01*
X111609143Y-45375976D02*
X111847238Y-45375976D01*
X111847238Y-45375976D02*
X111942476Y-45423595D01*
X111942476Y-45423595D02*
X111990095Y-45471214D01*
X111990095Y-45471214D02*
X112037714Y-45566452D01*
X112037714Y-45566452D02*
X112037714Y-45804547D01*
X112037714Y-45804547D02*
X111990095Y-45899785D01*
X111990095Y-45899785D02*
X111942476Y-45947405D01*
X111942476Y-45947405D02*
X111847238Y-45995024D01*
X111847238Y-45995024D02*
X111609143Y-45995024D01*
X111609143Y-45995024D02*
X111513905Y-45947405D01*
X111513905Y-45947405D02*
X111466286Y-45899785D01*
X88766667Y-58452104D02*
X88728571Y-58490200D01*
X88728571Y-58490200D02*
X88614286Y-58528295D01*
X88614286Y-58528295D02*
X88538095Y-58528295D01*
X88538095Y-58528295D02*
X88423809Y-58490200D01*
X88423809Y-58490200D02*
X88347619Y-58414009D01*
X88347619Y-58414009D02*
X88309524Y-58337819D01*
X88309524Y-58337819D02*
X88271428Y-58185438D01*
X88271428Y-58185438D02*
X88271428Y-58071152D01*
X88271428Y-58071152D02*
X88309524Y-57918771D01*
X88309524Y-57918771D02*
X88347619Y-57842580D01*
X88347619Y-57842580D02*
X88423809Y-57766390D01*
X88423809Y-57766390D02*
X88538095Y-57728295D01*
X88538095Y-57728295D02*
X88614286Y-57728295D01*
X88614286Y-57728295D02*
X88728571Y-57766390D01*
X88728571Y-57766390D02*
X88766667Y-57804485D01*
X89033333Y-57728295D02*
X89528571Y-57728295D01*
X89528571Y-57728295D02*
X89261905Y-58033057D01*
X89261905Y-58033057D02*
X89376190Y-58033057D01*
X89376190Y-58033057D02*
X89452381Y-58071152D01*
X89452381Y-58071152D02*
X89490476Y-58109247D01*
X89490476Y-58109247D02*
X89528571Y-58185438D01*
X89528571Y-58185438D02*
X89528571Y-58375914D01*
X89528571Y-58375914D02*
X89490476Y-58452104D01*
X89490476Y-58452104D02*
X89452381Y-58490200D01*
X89452381Y-58490200D02*
X89376190Y-58528295D01*
X89376190Y-58528295D02*
X89147619Y-58528295D01*
X89147619Y-58528295D02*
X89071428Y-58490200D01*
X89071428Y-58490200D02*
X89033333Y-58452104D01*
X149224107Y-38208295D02*
X149224107Y-37408295D01*
X149224107Y-37408295D02*
X149414583Y-37408295D01*
X149414583Y-37408295D02*
X149528869Y-37446390D01*
X149528869Y-37446390D02*
X149605059Y-37522580D01*
X149605059Y-37522580D02*
X149643154Y-37598771D01*
X149643154Y-37598771D02*
X149681250Y-37751152D01*
X149681250Y-37751152D02*
X149681250Y-37865438D01*
X149681250Y-37865438D02*
X149643154Y-38017819D01*
X149643154Y-38017819D02*
X149605059Y-38094009D01*
X149605059Y-38094009D02*
X149528869Y-38170200D01*
X149528869Y-38170200D02*
X149414583Y-38208295D01*
X149414583Y-38208295D02*
X149224107Y-38208295D01*
X149986011Y-37484485D02*
X150024107Y-37446390D01*
X150024107Y-37446390D02*
X150100297Y-37408295D01*
X150100297Y-37408295D02*
X150290773Y-37408295D01*
X150290773Y-37408295D02*
X150366964Y-37446390D01*
X150366964Y-37446390D02*
X150405059Y-37484485D01*
X150405059Y-37484485D02*
X150443154Y-37560676D01*
X150443154Y-37560676D02*
X150443154Y-37636866D01*
X150443154Y-37636866D02*
X150405059Y-37751152D01*
X150405059Y-37751152D02*
X149947916Y-38208295D01*
X149947916Y-38208295D02*
X150443154Y-38208295D01*
X103107469Y-33524965D02*
X102774136Y-33048774D01*
X102536041Y-33524965D02*
X102536041Y-32524965D01*
X102536041Y-32524965D02*
X102916993Y-32524965D01*
X102916993Y-32524965D02*
X103012231Y-32572584D01*
X103012231Y-32572584D02*
X103059850Y-32620203D01*
X103059850Y-32620203D02*
X103107469Y-32715441D01*
X103107469Y-32715441D02*
X103107469Y-32858298D01*
X103107469Y-32858298D02*
X103059850Y-32953536D01*
X103059850Y-32953536D02*
X103012231Y-33001155D01*
X103012231Y-33001155D02*
X102916993Y-33048774D01*
X102916993Y-33048774D02*
X102536041Y-33048774D01*
X103536041Y-33524965D02*
X103536041Y-32524965D01*
X103536041Y-32524965D02*
X104107469Y-33524965D01*
X104107469Y-33524965D02*
X104107469Y-32524965D01*
X104536041Y-32620203D02*
X104583660Y-32572584D01*
X104583660Y-32572584D02*
X104678898Y-32524965D01*
X104678898Y-32524965D02*
X104916993Y-32524965D01*
X104916993Y-32524965D02*
X105012231Y-32572584D01*
X105012231Y-32572584D02*
X105059850Y-32620203D01*
X105059850Y-32620203D02*
X105107469Y-32715441D01*
X105107469Y-32715441D02*
X105107469Y-32810679D01*
X105107469Y-32810679D02*
X105059850Y-32953536D01*
X105059850Y-32953536D02*
X104488422Y-33524965D01*
X104488422Y-33524965D02*
X105107469Y-33524965D01*
X57846682Y-44375961D02*
X57370491Y-44709294D01*
X57846682Y-44947389D02*
X56846682Y-44947389D01*
X56846682Y-44947389D02*
X56846682Y-44566437D01*
X56846682Y-44566437D02*
X56894301Y-44471199D01*
X56894301Y-44471199D02*
X56941920Y-44423580D01*
X56941920Y-44423580D02*
X57037158Y-44375961D01*
X57037158Y-44375961D02*
X57180015Y-44375961D01*
X57180015Y-44375961D02*
X57275253Y-44423580D01*
X57275253Y-44423580D02*
X57322872Y-44471199D01*
X57322872Y-44471199D02*
X57370491Y-44566437D01*
X57370491Y-44566437D02*
X57370491Y-44947389D01*
X56941920Y-43995008D02*
X56894301Y-43947389D01*
X56894301Y-43947389D02*
X56846682Y-43852151D01*
X56846682Y-43852151D02*
X56846682Y-43614056D01*
X56846682Y-43614056D02*
X56894301Y-43518818D01*
X56894301Y-43518818D02*
X56941920Y-43471199D01*
X56941920Y-43471199D02*
X57037158Y-43423580D01*
X57037158Y-43423580D02*
X57132396Y-43423580D01*
X57132396Y-43423580D02*
X57275253Y-43471199D01*
X57275253Y-43471199D02*
X57846682Y-44042627D01*
X57846682Y-44042627D02*
X57846682Y-43423580D01*
X53169526Y-24039708D02*
X53169526Y-24687327D01*
X53169526Y-24687327D02*
X53207621Y-24763517D01*
X53207621Y-24763517D02*
X53245716Y-24801613D01*
X53245716Y-24801613D02*
X53321907Y-24839708D01*
X53321907Y-24839708D02*
X53474288Y-24839708D01*
X53474288Y-24839708D02*
X53550478Y-24801613D01*
X53550478Y-24801613D02*
X53588573Y-24763517D01*
X53588573Y-24763517D02*
X53626669Y-24687327D01*
X53626669Y-24687327D02*
X53626669Y-24039708D01*
X54350478Y-24039708D02*
X54198097Y-24039708D01*
X54198097Y-24039708D02*
X54121906Y-24077803D01*
X54121906Y-24077803D02*
X54083811Y-24115898D01*
X54083811Y-24115898D02*
X54007621Y-24230184D01*
X54007621Y-24230184D02*
X53969525Y-24382565D01*
X53969525Y-24382565D02*
X53969525Y-24687327D01*
X53969525Y-24687327D02*
X54007621Y-24763517D01*
X54007621Y-24763517D02*
X54045716Y-24801613D01*
X54045716Y-24801613D02*
X54121906Y-24839708D01*
X54121906Y-24839708D02*
X54274287Y-24839708D01*
X54274287Y-24839708D02*
X54350478Y-24801613D01*
X54350478Y-24801613D02*
X54388573Y-24763517D01*
X54388573Y-24763517D02*
X54426668Y-24687327D01*
X54426668Y-24687327D02*
X54426668Y-24496851D01*
X54426668Y-24496851D02*
X54388573Y-24420660D01*
X54388573Y-24420660D02*
X54350478Y-24382565D01*
X54350478Y-24382565D02*
X54274287Y-24344470D01*
X54274287Y-24344470D02*
X54121906Y-24344470D01*
X54121906Y-24344470D02*
X54045716Y-24382565D01*
X54045716Y-24382565D02*
X54007621Y-24420660D01*
X54007621Y-24420660D02*
X53969525Y-24496851D01*
X81466845Y-51144482D02*
X81466845Y-52520672D01*
X81466845Y-52520672D02*
X81547798Y-52682577D01*
X81547798Y-52682577D02*
X81628750Y-52763530D01*
X81628750Y-52763530D02*
X81790655Y-52844482D01*
X81790655Y-52844482D02*
X82114464Y-52844482D01*
X82114464Y-52844482D02*
X82276369Y-52763530D01*
X82276369Y-52763530D02*
X82357322Y-52682577D01*
X82357322Y-52682577D02*
X82438274Y-52520672D01*
X82438274Y-52520672D02*
X82438274Y-51144482D01*
X84138274Y-52844482D02*
X83166845Y-52844482D01*
X83652559Y-52844482D02*
X83652559Y-51144482D01*
X83652559Y-51144482D02*
X83490655Y-51387339D01*
X83490655Y-51387339D02*
X83328750Y-51549244D01*
X83328750Y-51549244D02*
X83166845Y-51630196D01*
X60712370Y-53542648D02*
X61379036Y-53542648D01*
X61379036Y-53542648D02*
X60950465Y-54542648D01*
X62188560Y-53875981D02*
X62188560Y-54542648D01*
X61950465Y-53495029D02*
X61712370Y-54209314D01*
X61712370Y-54209314D02*
X62331417Y-54209314D01*
X63188560Y-54542648D02*
X62712370Y-54542648D01*
X62712370Y-54542648D02*
X62712370Y-53542648D01*
X63474275Y-54495029D02*
X63617132Y-54542648D01*
X63617132Y-54542648D02*
X63855227Y-54542648D01*
X63855227Y-54542648D02*
X63950465Y-54495029D01*
X63950465Y-54495029D02*
X63998084Y-54447409D01*
X63998084Y-54447409D02*
X64045703Y-54352171D01*
X64045703Y-54352171D02*
X64045703Y-54256933D01*
X64045703Y-54256933D02*
X63998084Y-54161695D01*
X63998084Y-54161695D02*
X63950465Y-54114076D01*
X63950465Y-54114076D02*
X63855227Y-54066457D01*
X63855227Y-54066457D02*
X63664751Y-54018838D01*
X63664751Y-54018838D02*
X63569513Y-53971219D01*
X63569513Y-53971219D02*
X63521894Y-53923600D01*
X63521894Y-53923600D02*
X63474275Y-53828362D01*
X63474275Y-53828362D02*
X63474275Y-53733124D01*
X63474275Y-53733124D02*
X63521894Y-53637886D01*
X63521894Y-53637886D02*
X63569513Y-53590267D01*
X63569513Y-53590267D02*
X63664751Y-53542648D01*
X63664751Y-53542648D02*
X63902846Y-53542648D01*
X63902846Y-53542648D02*
X64045703Y-53590267D01*
X64902846Y-53542648D02*
X64712370Y-53542648D01*
X64712370Y-53542648D02*
X64617132Y-53590267D01*
X64617132Y-53590267D02*
X64569513Y-53637886D01*
X64569513Y-53637886D02*
X64474275Y-53780743D01*
X64474275Y-53780743D02*
X64426656Y-53971219D01*
X64426656Y-53971219D02*
X64426656Y-54352171D01*
X64426656Y-54352171D02*
X64474275Y-54447409D01*
X64474275Y-54447409D02*
X64521894Y-54495029D01*
X64521894Y-54495029D02*
X64617132Y-54542648D01*
X64617132Y-54542648D02*
X64807608Y-54542648D01*
X64807608Y-54542648D02*
X64902846Y-54495029D01*
X64902846Y-54495029D02*
X64950465Y-54447409D01*
X64950465Y-54447409D02*
X64998084Y-54352171D01*
X64998084Y-54352171D02*
X64998084Y-54114076D01*
X64998084Y-54114076D02*
X64950465Y-54018838D01*
X64950465Y-54018838D02*
X64902846Y-53971219D01*
X64902846Y-53971219D02*
X64807608Y-53923600D01*
X64807608Y-53923600D02*
X64617132Y-53923600D01*
X64617132Y-53923600D02*
X64521894Y-53971219D01*
X64521894Y-53971219D02*
X64474275Y-54018838D01*
X64474275Y-54018838D02*
X64426656Y-54114076D01*
X65855227Y-53875981D02*
X65855227Y-54542648D01*
X65617132Y-53495029D02*
X65379037Y-54209314D01*
X65379037Y-54209314D02*
X65998084Y-54209314D01*
X66902846Y-54542648D02*
X66331418Y-54542648D01*
X66617132Y-54542648D02*
X66617132Y-53542648D01*
X66617132Y-53542648D02*
X66521894Y-53685505D01*
X66521894Y-53685505D02*
X66426656Y-53780743D01*
X66426656Y-53780743D02*
X66331418Y-53828362D01*
X67331418Y-54161695D02*
X68093323Y-54161695D01*
X69093322Y-54542648D02*
X68521894Y-54542648D01*
X68807608Y-54542648D02*
X68807608Y-53542648D01*
X68807608Y-53542648D02*
X68712370Y-53685505D01*
X68712370Y-53685505D02*
X68617132Y-53780743D01*
X68617132Y-53780743D02*
X68521894Y-53828362D01*
X69521894Y-54542648D02*
X69521894Y-53542648D01*
X69521894Y-53542648D02*
X69759989Y-53542648D01*
X69759989Y-53542648D02*
X69902846Y-53590267D01*
X69902846Y-53590267D02*
X69998084Y-53685505D01*
X69998084Y-53685505D02*
X70045703Y-53780743D01*
X70045703Y-53780743D02*
X70093322Y-53971219D01*
X70093322Y-53971219D02*
X70093322Y-54114076D01*
X70093322Y-54114076D02*
X70045703Y-54304552D01*
X70045703Y-54304552D02*
X69998084Y-54399790D01*
X69998084Y-54399790D02*
X69902846Y-54495029D01*
X69902846Y-54495029D02*
X69759989Y-54542648D01*
X69759989Y-54542648D02*
X69521894Y-54542648D01*
X70426656Y-53542648D02*
X70664751Y-54542648D01*
X70664751Y-54542648D02*
X70855227Y-53828362D01*
X70855227Y-53828362D02*
X71045703Y-54542648D01*
X71045703Y-54542648D02*
X71283799Y-53542648D01*
X71748667Y-33814104D02*
X71710571Y-33852200D01*
X71710571Y-33852200D02*
X71596286Y-33890295D01*
X71596286Y-33890295D02*
X71520095Y-33890295D01*
X71520095Y-33890295D02*
X71405809Y-33852200D01*
X71405809Y-33852200D02*
X71329619Y-33776009D01*
X71329619Y-33776009D02*
X71291524Y-33699819D01*
X71291524Y-33699819D02*
X71253428Y-33547438D01*
X71253428Y-33547438D02*
X71253428Y-33433152D01*
X71253428Y-33433152D02*
X71291524Y-33280771D01*
X71291524Y-33280771D02*
X71329619Y-33204580D01*
X71329619Y-33204580D02*
X71405809Y-33128390D01*
X71405809Y-33128390D02*
X71520095Y-33090295D01*
X71520095Y-33090295D02*
X71596286Y-33090295D01*
X71596286Y-33090295D02*
X71710571Y-33128390D01*
X71710571Y-33128390D02*
X71748667Y-33166485D01*
X72205809Y-33433152D02*
X72129619Y-33395057D01*
X72129619Y-33395057D02*
X72091524Y-33356961D01*
X72091524Y-33356961D02*
X72053428Y-33280771D01*
X72053428Y-33280771D02*
X72053428Y-33242676D01*
X72053428Y-33242676D02*
X72091524Y-33166485D01*
X72091524Y-33166485D02*
X72129619Y-33128390D01*
X72129619Y-33128390D02*
X72205809Y-33090295D01*
X72205809Y-33090295D02*
X72358190Y-33090295D01*
X72358190Y-33090295D02*
X72434381Y-33128390D01*
X72434381Y-33128390D02*
X72472476Y-33166485D01*
X72472476Y-33166485D02*
X72510571Y-33242676D01*
X72510571Y-33242676D02*
X72510571Y-33280771D01*
X72510571Y-33280771D02*
X72472476Y-33356961D01*
X72472476Y-33356961D02*
X72434381Y-33395057D01*
X72434381Y-33395057D02*
X72358190Y-33433152D01*
X72358190Y-33433152D02*
X72205809Y-33433152D01*
X72205809Y-33433152D02*
X72129619Y-33471247D01*
X72129619Y-33471247D02*
X72091524Y-33509342D01*
X72091524Y-33509342D02*
X72053428Y-33585533D01*
X72053428Y-33585533D02*
X72053428Y-33737914D01*
X72053428Y-33737914D02*
X72091524Y-33814104D01*
X72091524Y-33814104D02*
X72129619Y-33852200D01*
X72129619Y-33852200D02*
X72205809Y-33890295D01*
X72205809Y-33890295D02*
X72358190Y-33890295D01*
X72358190Y-33890295D02*
X72434381Y-33852200D01*
X72434381Y-33852200D02*
X72472476Y-33814104D01*
X72472476Y-33814104D02*
X72510571Y-33737914D01*
X72510571Y-33737914D02*
X72510571Y-33585533D01*
X72510571Y-33585533D02*
X72472476Y-33509342D01*
X72472476Y-33509342D02*
X72434381Y-33471247D01*
X72434381Y-33471247D02*
X72358190Y-33433152D01*
X70591774Y-37737896D02*
X70258441Y-37261705D01*
X70020346Y-37737896D02*
X70020346Y-36737896D01*
X70020346Y-36737896D02*
X70401298Y-36737896D01*
X70401298Y-36737896D02*
X70496536Y-36785515D01*
X70496536Y-36785515D02*
X70544155Y-36833134D01*
X70544155Y-36833134D02*
X70591774Y-36928372D01*
X70591774Y-36928372D02*
X70591774Y-37071229D01*
X70591774Y-37071229D02*
X70544155Y-37166467D01*
X70544155Y-37166467D02*
X70496536Y-37214086D01*
X70496536Y-37214086D02*
X70401298Y-37261705D01*
X70401298Y-37261705D02*
X70020346Y-37261705D01*
X71448917Y-36737896D02*
X71258441Y-36737896D01*
X71258441Y-36737896D02*
X71163203Y-36785515D01*
X71163203Y-36785515D02*
X71115584Y-36833134D01*
X71115584Y-36833134D02*
X71020346Y-36975991D01*
X71020346Y-36975991D02*
X70972727Y-37166467D01*
X70972727Y-37166467D02*
X70972727Y-37547419D01*
X70972727Y-37547419D02*
X71020346Y-37642657D01*
X71020346Y-37642657D02*
X71067965Y-37690277D01*
X71067965Y-37690277D02*
X71163203Y-37737896D01*
X71163203Y-37737896D02*
X71353679Y-37737896D01*
X71353679Y-37737896D02*
X71448917Y-37690277D01*
X71448917Y-37690277D02*
X71496536Y-37642657D01*
X71496536Y-37642657D02*
X71544155Y-37547419D01*
X71544155Y-37547419D02*
X71544155Y-37309324D01*
X71544155Y-37309324D02*
X71496536Y-37214086D01*
X71496536Y-37214086D02*
X71448917Y-37166467D01*
X71448917Y-37166467D02*
X71353679Y-37118848D01*
X71353679Y-37118848D02*
X71163203Y-37118848D01*
X71163203Y-37118848D02*
X71067965Y-37166467D01*
X71067965Y-37166467D02*
X71020346Y-37214086D01*
X71020346Y-37214086D02*
X70972727Y-37309324D01*
X61588667Y-33814104D02*
X61550571Y-33852200D01*
X61550571Y-33852200D02*
X61436286Y-33890295D01*
X61436286Y-33890295D02*
X61360095Y-33890295D01*
X61360095Y-33890295D02*
X61245809Y-33852200D01*
X61245809Y-33852200D02*
X61169619Y-33776009D01*
X61169619Y-33776009D02*
X61131524Y-33699819D01*
X61131524Y-33699819D02*
X61093428Y-33547438D01*
X61093428Y-33547438D02*
X61093428Y-33433152D01*
X61093428Y-33433152D02*
X61131524Y-33280771D01*
X61131524Y-33280771D02*
X61169619Y-33204580D01*
X61169619Y-33204580D02*
X61245809Y-33128390D01*
X61245809Y-33128390D02*
X61360095Y-33090295D01*
X61360095Y-33090295D02*
X61436286Y-33090295D01*
X61436286Y-33090295D02*
X61550571Y-33128390D01*
X61550571Y-33128390D02*
X61588667Y-33166485D01*
X62274381Y-33090295D02*
X62122000Y-33090295D01*
X62122000Y-33090295D02*
X62045809Y-33128390D01*
X62045809Y-33128390D02*
X62007714Y-33166485D01*
X62007714Y-33166485D02*
X61931524Y-33280771D01*
X61931524Y-33280771D02*
X61893428Y-33433152D01*
X61893428Y-33433152D02*
X61893428Y-33737914D01*
X61893428Y-33737914D02*
X61931524Y-33814104D01*
X61931524Y-33814104D02*
X61969619Y-33852200D01*
X61969619Y-33852200D02*
X62045809Y-33890295D01*
X62045809Y-33890295D02*
X62198190Y-33890295D01*
X62198190Y-33890295D02*
X62274381Y-33852200D01*
X62274381Y-33852200D02*
X62312476Y-33814104D01*
X62312476Y-33814104D02*
X62350571Y-33737914D01*
X62350571Y-33737914D02*
X62350571Y-33547438D01*
X62350571Y-33547438D02*
X62312476Y-33471247D01*
X62312476Y-33471247D02*
X62274381Y-33433152D01*
X62274381Y-33433152D02*
X62198190Y-33395057D01*
X62198190Y-33395057D02*
X62045809Y-33395057D01*
X62045809Y-33395057D02*
X61969619Y-33433152D01*
X61969619Y-33433152D02*
X61931524Y-33471247D01*
X61931524Y-33471247D02*
X61893428Y-33547438D01*
X89242089Y-39354053D02*
X89242089Y-40730243D01*
X89242089Y-40730243D02*
X89323042Y-40892148D01*
X89323042Y-40892148D02*
X89403994Y-40973101D01*
X89403994Y-40973101D02*
X89565899Y-41054053D01*
X89565899Y-41054053D02*
X89889708Y-41054053D01*
X89889708Y-41054053D02*
X90051613Y-40973101D01*
X90051613Y-40973101D02*
X90132566Y-40892148D01*
X90132566Y-40892148D02*
X90213518Y-40730243D01*
X90213518Y-40730243D02*
X90213518Y-39354053D01*
X90942089Y-39515958D02*
X91023041Y-39435005D01*
X91023041Y-39435005D02*
X91184946Y-39354053D01*
X91184946Y-39354053D02*
X91589708Y-39354053D01*
X91589708Y-39354053D02*
X91751613Y-39435005D01*
X91751613Y-39435005D02*
X91832565Y-39515958D01*
X91832565Y-39515958D02*
X91913518Y-39677862D01*
X91913518Y-39677862D02*
X91913518Y-39839767D01*
X91913518Y-39839767D02*
X91832565Y-40082624D01*
X91832565Y-40082624D02*
X90861137Y-41054053D01*
X90861137Y-41054053D02*
X91913518Y-41054053D01*
X68431345Y-43349469D02*
X69098011Y-43349469D01*
X69098011Y-43349469D02*
X68669440Y-44349469D01*
X69907535Y-43682802D02*
X69907535Y-44349469D01*
X69669440Y-43301850D02*
X69431345Y-44016135D01*
X69431345Y-44016135D02*
X70050392Y-44016135D01*
X70907535Y-44349469D02*
X70431345Y-44349469D01*
X70431345Y-44349469D02*
X70431345Y-43349469D01*
X71193250Y-44301850D02*
X71336107Y-44349469D01*
X71336107Y-44349469D02*
X71574202Y-44349469D01*
X71574202Y-44349469D02*
X71669440Y-44301850D01*
X71669440Y-44301850D02*
X71717059Y-44254230D01*
X71717059Y-44254230D02*
X71764678Y-44158992D01*
X71764678Y-44158992D02*
X71764678Y-44063754D01*
X71764678Y-44063754D02*
X71717059Y-43968516D01*
X71717059Y-43968516D02*
X71669440Y-43920897D01*
X71669440Y-43920897D02*
X71574202Y-43873278D01*
X71574202Y-43873278D02*
X71383726Y-43825659D01*
X71383726Y-43825659D02*
X71288488Y-43778040D01*
X71288488Y-43778040D02*
X71240869Y-43730421D01*
X71240869Y-43730421D02*
X71193250Y-43635183D01*
X71193250Y-43635183D02*
X71193250Y-43539945D01*
X71193250Y-43539945D02*
X71240869Y-43444707D01*
X71240869Y-43444707D02*
X71288488Y-43397088D01*
X71288488Y-43397088D02*
X71383726Y-43349469D01*
X71383726Y-43349469D02*
X71621821Y-43349469D01*
X71621821Y-43349469D02*
X71764678Y-43397088D01*
X72621821Y-43349469D02*
X72431345Y-43349469D01*
X72431345Y-43349469D02*
X72336107Y-43397088D01*
X72336107Y-43397088D02*
X72288488Y-43444707D01*
X72288488Y-43444707D02*
X72193250Y-43587564D01*
X72193250Y-43587564D02*
X72145631Y-43778040D01*
X72145631Y-43778040D02*
X72145631Y-44158992D01*
X72145631Y-44158992D02*
X72193250Y-44254230D01*
X72193250Y-44254230D02*
X72240869Y-44301850D01*
X72240869Y-44301850D02*
X72336107Y-44349469D01*
X72336107Y-44349469D02*
X72526583Y-44349469D01*
X72526583Y-44349469D02*
X72621821Y-44301850D01*
X72621821Y-44301850D02*
X72669440Y-44254230D01*
X72669440Y-44254230D02*
X72717059Y-44158992D01*
X72717059Y-44158992D02*
X72717059Y-43920897D01*
X72717059Y-43920897D02*
X72669440Y-43825659D01*
X72669440Y-43825659D02*
X72621821Y-43778040D01*
X72621821Y-43778040D02*
X72526583Y-43730421D01*
X72526583Y-43730421D02*
X72336107Y-43730421D01*
X72336107Y-43730421D02*
X72240869Y-43778040D01*
X72240869Y-43778040D02*
X72193250Y-43825659D01*
X72193250Y-43825659D02*
X72145631Y-43920897D01*
X73574202Y-43682802D02*
X73574202Y-44349469D01*
X73336107Y-43301850D02*
X73098012Y-44016135D01*
X73098012Y-44016135D02*
X73717059Y-44016135D01*
X74621821Y-44349469D02*
X74050393Y-44349469D01*
X74336107Y-44349469D02*
X74336107Y-43349469D01*
X74336107Y-43349469D02*
X74240869Y-43492326D01*
X74240869Y-43492326D02*
X74145631Y-43587564D01*
X74145631Y-43587564D02*
X74050393Y-43635183D01*
X75050393Y-43968516D02*
X75812298Y-43968516D01*
X76812297Y-44349469D02*
X76240869Y-44349469D01*
X76526583Y-44349469D02*
X76526583Y-43349469D01*
X76526583Y-43349469D02*
X76431345Y-43492326D01*
X76431345Y-43492326D02*
X76336107Y-43587564D01*
X76336107Y-43587564D02*
X76240869Y-43635183D01*
X77240869Y-44349469D02*
X77240869Y-43349469D01*
X77240869Y-43349469D02*
X77478964Y-43349469D01*
X77478964Y-43349469D02*
X77621821Y-43397088D01*
X77621821Y-43397088D02*
X77717059Y-43492326D01*
X77717059Y-43492326D02*
X77764678Y-43587564D01*
X77764678Y-43587564D02*
X77812297Y-43778040D01*
X77812297Y-43778040D02*
X77812297Y-43920897D01*
X77812297Y-43920897D02*
X77764678Y-44111373D01*
X77764678Y-44111373D02*
X77717059Y-44206611D01*
X77717059Y-44206611D02*
X77621821Y-44301850D01*
X77621821Y-44301850D02*
X77478964Y-44349469D01*
X77478964Y-44349469D02*
X77240869Y-44349469D01*
X78145631Y-43349469D02*
X78383726Y-44349469D01*
X78383726Y-44349469D02*
X78574202Y-43635183D01*
X78574202Y-43635183D02*
X78764678Y-44349469D01*
X78764678Y-44349469D02*
X79002774Y-43349469D01*
X60425082Y-37734933D02*
X60091749Y-37258742D01*
X59853654Y-37734933D02*
X59853654Y-36734933D01*
X59853654Y-36734933D02*
X60234606Y-36734933D01*
X60234606Y-36734933D02*
X60329844Y-36782552D01*
X60329844Y-36782552D02*
X60377463Y-36830171D01*
X60377463Y-36830171D02*
X60425082Y-36925409D01*
X60425082Y-36925409D02*
X60425082Y-37068266D01*
X60425082Y-37068266D02*
X60377463Y-37163504D01*
X60377463Y-37163504D02*
X60329844Y-37211123D01*
X60329844Y-37211123D02*
X60234606Y-37258742D01*
X60234606Y-37258742D02*
X59853654Y-37258742D01*
X61377463Y-37734933D02*
X60806035Y-37734933D01*
X61091749Y-37734933D02*
X61091749Y-36734933D01*
X61091749Y-36734933D02*
X60996511Y-36877790D01*
X60996511Y-36877790D02*
X60901273Y-36973028D01*
X60901273Y-36973028D02*
X60806035Y-37020647D01*
X120328041Y-59196529D02*
X120289945Y-59234625D01*
X120289945Y-59234625D02*
X120175660Y-59272720D01*
X120175660Y-59272720D02*
X120099469Y-59272720D01*
X120099469Y-59272720D02*
X119985183Y-59234625D01*
X119985183Y-59234625D02*
X119908993Y-59158434D01*
X119908993Y-59158434D02*
X119870898Y-59082244D01*
X119870898Y-59082244D02*
X119832802Y-58929863D01*
X119832802Y-58929863D02*
X119832802Y-58815577D01*
X119832802Y-58815577D02*
X119870898Y-58663196D01*
X119870898Y-58663196D02*
X119908993Y-58587005D01*
X119908993Y-58587005D02*
X119985183Y-58510815D01*
X119985183Y-58510815D02*
X120099469Y-58472720D01*
X120099469Y-58472720D02*
X120175660Y-58472720D01*
X120175660Y-58472720D02*
X120289945Y-58510815D01*
X120289945Y-58510815D02*
X120328041Y-58548910D01*
X121013755Y-58739386D02*
X121013755Y-59272720D01*
X120823279Y-58434625D02*
X120632802Y-59006053D01*
X120632802Y-59006053D02*
X121128041Y-59006053D01*
X149747562Y-31924125D02*
X149676134Y-32495553D01*
X149676134Y-32495553D02*
X149623753Y-32609839D01*
X149623753Y-32609839D02*
X149538038Y-32686030D01*
X149538038Y-32686030D02*
X149418991Y-32724125D01*
X149418991Y-32724125D02*
X149342800Y-32724125D01*
X150080896Y-32000315D02*
X150123753Y-31962220D01*
X150123753Y-31962220D02*
X150204705Y-31924125D01*
X150204705Y-31924125D02*
X150395181Y-31924125D01*
X150395181Y-31924125D02*
X150466610Y-31962220D01*
X150466610Y-31962220D02*
X150499943Y-32000315D01*
X150499943Y-32000315D02*
X150528515Y-32076506D01*
X150528515Y-32076506D02*
X150518991Y-32152696D01*
X150518991Y-32152696D02*
X150466610Y-32266982D01*
X150466610Y-32266982D02*
X149952324Y-32724125D01*
X149952324Y-32724125D02*
X150447562Y-32724125D01*
X142989333Y-32074295D02*
X142989333Y-32645723D01*
X142989333Y-32645723D02*
X142951238Y-32760009D01*
X142951238Y-32760009D02*
X142875047Y-32836200D01*
X142875047Y-32836200D02*
X142760762Y-32874295D01*
X142760762Y-32874295D02*
X142684571Y-32874295D01*
X143789333Y-32874295D02*
X143332190Y-32874295D01*
X143560762Y-32874295D02*
X143560762Y-32074295D01*
X143560762Y-32074295D02*
X143484571Y-32188580D01*
X143484571Y-32188580D02*
X143408381Y-32264771D01*
X143408381Y-32264771D02*
X143332190Y-32302866D01*
X150313127Y-48373775D02*
X149836936Y-48707108D01*
X150313127Y-48945203D02*
X149313127Y-48945203D01*
X149313127Y-48945203D02*
X149313127Y-48564251D01*
X149313127Y-48564251D02*
X149360746Y-48469013D01*
X149360746Y-48469013D02*
X149408365Y-48421394D01*
X149408365Y-48421394D02*
X149503603Y-48373775D01*
X149503603Y-48373775D02*
X149646460Y-48373775D01*
X149646460Y-48373775D02*
X149741698Y-48421394D01*
X149741698Y-48421394D02*
X149789317Y-48469013D01*
X149789317Y-48469013D02*
X149836936Y-48564251D01*
X149836936Y-48564251D02*
X149836936Y-48945203D01*
X150313127Y-47897584D02*
X150313127Y-47707108D01*
X150313127Y-47707108D02*
X150265508Y-47611870D01*
X150265508Y-47611870D02*
X150217888Y-47564251D01*
X150217888Y-47564251D02*
X150075031Y-47469013D01*
X150075031Y-47469013D02*
X149884555Y-47421394D01*
X149884555Y-47421394D02*
X149503603Y-47421394D01*
X149503603Y-47421394D02*
X149408365Y-47469013D01*
X149408365Y-47469013D02*
X149360746Y-47516632D01*
X149360746Y-47516632D02*
X149313127Y-47611870D01*
X149313127Y-47611870D02*
X149313127Y-47802346D01*
X149313127Y-47802346D02*
X149360746Y-47897584D01*
X149360746Y-47897584D02*
X149408365Y-47945203D01*
X149408365Y-47945203D02*
X149503603Y-47992822D01*
X149503603Y-47992822D02*
X149741698Y-47992822D01*
X149741698Y-47992822D02*
X149836936Y-47945203D01*
X149836936Y-47945203D02*
X149884555Y-47897584D01*
X149884555Y-47897584D02*
X149932174Y-47802346D01*
X149932174Y-47802346D02*
X149932174Y-47611870D01*
X149932174Y-47611870D02*
X149884555Y-47516632D01*
X149884555Y-47516632D02*
X149836936Y-47469013D01*
X149836936Y-47469013D02*
X149741698Y-47421394D01*
X130119523Y-38300819D02*
X129786190Y-37824628D01*
X129548095Y-38300819D02*
X129548095Y-37300819D01*
X129548095Y-37300819D02*
X129929047Y-37300819D01*
X129929047Y-37300819D02*
X130024285Y-37348438D01*
X130024285Y-37348438D02*
X130071904Y-37396057D01*
X130071904Y-37396057D02*
X130119523Y-37491295D01*
X130119523Y-37491295D02*
X130119523Y-37634152D01*
X130119523Y-37634152D02*
X130071904Y-37729390D01*
X130071904Y-37729390D02*
X130024285Y-37777009D01*
X130024285Y-37777009D02*
X129929047Y-37824628D01*
X129929047Y-37824628D02*
X129548095Y-37824628D01*
X130548095Y-38300819D02*
X130548095Y-37300819D01*
X130548095Y-37300819D02*
X131119523Y-38300819D01*
X131119523Y-38300819D02*
X131119523Y-37300819D01*
X131500476Y-37300819D02*
X132119523Y-37300819D01*
X132119523Y-37300819D02*
X131786190Y-37681771D01*
X131786190Y-37681771D02*
X131929047Y-37681771D01*
X131929047Y-37681771D02*
X132024285Y-37729390D01*
X132024285Y-37729390D02*
X132071904Y-37777009D01*
X132071904Y-37777009D02*
X132119523Y-37872247D01*
X132119523Y-37872247D02*
X132119523Y-38110342D01*
X132119523Y-38110342D02*
X132071904Y-38205580D01*
X132071904Y-38205580D02*
X132024285Y-38253200D01*
X132024285Y-38253200D02*
X131929047Y-38300819D01*
X131929047Y-38300819D02*
X131643333Y-38300819D01*
X131643333Y-38300819D02*
X131548095Y-38253200D01*
X131548095Y-38253200D02*
X131500476Y-38205580D01*
X141597142Y-39062819D02*
X141263809Y-38586628D01*
X141025714Y-39062819D02*
X141025714Y-38062819D01*
X141025714Y-38062819D02*
X141406666Y-38062819D01*
X141406666Y-38062819D02*
X141501904Y-38110438D01*
X141501904Y-38110438D02*
X141549523Y-38158057D01*
X141549523Y-38158057D02*
X141597142Y-38253295D01*
X141597142Y-38253295D02*
X141597142Y-38396152D01*
X141597142Y-38396152D02*
X141549523Y-38491390D01*
X141549523Y-38491390D02*
X141501904Y-38539009D01*
X141501904Y-38539009D02*
X141406666Y-38586628D01*
X141406666Y-38586628D02*
X141025714Y-38586628D01*
X142549523Y-39062819D02*
X141978095Y-39062819D01*
X142263809Y-39062819D02*
X142263809Y-38062819D01*
X142263809Y-38062819D02*
X142168571Y-38205676D01*
X142168571Y-38205676D02*
X142073333Y-38300914D01*
X142073333Y-38300914D02*
X141978095Y-38348533D01*
X143168571Y-38062819D02*
X143263809Y-38062819D01*
X143263809Y-38062819D02*
X143359047Y-38110438D01*
X143359047Y-38110438D02*
X143406666Y-38158057D01*
X143406666Y-38158057D02*
X143454285Y-38253295D01*
X143454285Y-38253295D02*
X143501904Y-38443771D01*
X143501904Y-38443771D02*
X143501904Y-38681866D01*
X143501904Y-38681866D02*
X143454285Y-38872342D01*
X143454285Y-38872342D02*
X143406666Y-38967580D01*
X143406666Y-38967580D02*
X143359047Y-39015200D01*
X143359047Y-39015200D02*
X143263809Y-39062819D01*
X143263809Y-39062819D02*
X143168571Y-39062819D01*
X143168571Y-39062819D02*
X143073333Y-39015200D01*
X143073333Y-39015200D02*
X143025714Y-38967580D01*
X143025714Y-38967580D02*
X142978095Y-38872342D01*
X142978095Y-38872342D02*
X142930476Y-38681866D01*
X142930476Y-38681866D02*
X142930476Y-38443771D01*
X142930476Y-38443771D02*
X142978095Y-38253295D01*
X142978095Y-38253295D02*
X143025714Y-38158057D01*
X143025714Y-38158057D02*
X143073333Y-38110438D01*
X143073333Y-38110438D02*
X143168571Y-38062819D01*
X118846761Y-50894653D02*
X118846761Y-52270843D01*
X118846761Y-52270843D02*
X118927714Y-52432748D01*
X118927714Y-52432748D02*
X119008666Y-52513701D01*
X119008666Y-52513701D02*
X119170571Y-52594653D01*
X119170571Y-52594653D02*
X119494380Y-52594653D01*
X119494380Y-52594653D02*
X119656285Y-52513701D01*
X119656285Y-52513701D02*
X119737238Y-52432748D01*
X119737238Y-52432748D02*
X119818190Y-52270843D01*
X119818190Y-52270843D02*
X119818190Y-50894653D01*
X121356285Y-51461320D02*
X121356285Y-52594653D01*
X120951523Y-50813701D02*
X120546761Y-52027986D01*
X120546761Y-52027986D02*
X121599142Y-52027986D01*
X128826286Y-53556819D02*
X129492952Y-53556819D01*
X129492952Y-53556819D02*
X129064381Y-54556819D01*
X130302476Y-53890152D02*
X130302476Y-54556819D01*
X130064381Y-53509200D02*
X129826286Y-54223485D01*
X129826286Y-54223485D02*
X130445333Y-54223485D01*
X131302476Y-54556819D02*
X130826286Y-54556819D01*
X130826286Y-54556819D02*
X130826286Y-53556819D01*
X131588191Y-54509200D02*
X131731048Y-54556819D01*
X131731048Y-54556819D02*
X131969143Y-54556819D01*
X131969143Y-54556819D02*
X132064381Y-54509200D01*
X132064381Y-54509200D02*
X132112000Y-54461580D01*
X132112000Y-54461580D02*
X132159619Y-54366342D01*
X132159619Y-54366342D02*
X132159619Y-54271104D01*
X132159619Y-54271104D02*
X132112000Y-54175866D01*
X132112000Y-54175866D02*
X132064381Y-54128247D01*
X132064381Y-54128247D02*
X131969143Y-54080628D01*
X131969143Y-54080628D02*
X131778667Y-54033009D01*
X131778667Y-54033009D02*
X131683429Y-53985390D01*
X131683429Y-53985390D02*
X131635810Y-53937771D01*
X131635810Y-53937771D02*
X131588191Y-53842533D01*
X131588191Y-53842533D02*
X131588191Y-53747295D01*
X131588191Y-53747295D02*
X131635810Y-53652057D01*
X131635810Y-53652057D02*
X131683429Y-53604438D01*
X131683429Y-53604438D02*
X131778667Y-53556819D01*
X131778667Y-53556819D02*
X132016762Y-53556819D01*
X132016762Y-53556819D02*
X132159619Y-53604438D01*
X133016762Y-53556819D02*
X132826286Y-53556819D01*
X132826286Y-53556819D02*
X132731048Y-53604438D01*
X132731048Y-53604438D02*
X132683429Y-53652057D01*
X132683429Y-53652057D02*
X132588191Y-53794914D01*
X132588191Y-53794914D02*
X132540572Y-53985390D01*
X132540572Y-53985390D02*
X132540572Y-54366342D01*
X132540572Y-54366342D02*
X132588191Y-54461580D01*
X132588191Y-54461580D02*
X132635810Y-54509200D01*
X132635810Y-54509200D02*
X132731048Y-54556819D01*
X132731048Y-54556819D02*
X132921524Y-54556819D01*
X132921524Y-54556819D02*
X133016762Y-54509200D01*
X133016762Y-54509200D02*
X133064381Y-54461580D01*
X133064381Y-54461580D02*
X133112000Y-54366342D01*
X133112000Y-54366342D02*
X133112000Y-54128247D01*
X133112000Y-54128247D02*
X133064381Y-54033009D01*
X133064381Y-54033009D02*
X133016762Y-53985390D01*
X133016762Y-53985390D02*
X132921524Y-53937771D01*
X132921524Y-53937771D02*
X132731048Y-53937771D01*
X132731048Y-53937771D02*
X132635810Y-53985390D01*
X132635810Y-53985390D02*
X132588191Y-54033009D01*
X132588191Y-54033009D02*
X132540572Y-54128247D01*
X133969143Y-53890152D02*
X133969143Y-54556819D01*
X133731048Y-53509200D02*
X133492953Y-54223485D01*
X133492953Y-54223485D02*
X134112000Y-54223485D01*
X135016762Y-54556819D02*
X134445334Y-54556819D01*
X134731048Y-54556819D02*
X134731048Y-53556819D01*
X134731048Y-53556819D02*
X134635810Y-53699676D01*
X134635810Y-53699676D02*
X134540572Y-53794914D01*
X134540572Y-53794914D02*
X134445334Y-53842533D01*
X135445334Y-54175866D02*
X136207239Y-54175866D01*
X137207238Y-54556819D02*
X136635810Y-54556819D01*
X136921524Y-54556819D02*
X136921524Y-53556819D01*
X136921524Y-53556819D02*
X136826286Y-53699676D01*
X136826286Y-53699676D02*
X136731048Y-53794914D01*
X136731048Y-53794914D02*
X136635810Y-53842533D01*
X137635810Y-54556819D02*
X137635810Y-53556819D01*
X137635810Y-53556819D02*
X137873905Y-53556819D01*
X137873905Y-53556819D02*
X138016762Y-53604438D01*
X138016762Y-53604438D02*
X138112000Y-53699676D01*
X138112000Y-53699676D02*
X138159619Y-53794914D01*
X138159619Y-53794914D02*
X138207238Y-53985390D01*
X138207238Y-53985390D02*
X138207238Y-54128247D01*
X138207238Y-54128247D02*
X138159619Y-54318723D01*
X138159619Y-54318723D02*
X138112000Y-54413961D01*
X138112000Y-54413961D02*
X138016762Y-54509200D01*
X138016762Y-54509200D02*
X137873905Y-54556819D01*
X137873905Y-54556819D02*
X137635810Y-54556819D01*
X138540572Y-53556819D02*
X138778667Y-54556819D01*
X138778667Y-54556819D02*
X138969143Y-53842533D01*
X138969143Y-53842533D02*
X139159619Y-54556819D01*
X139159619Y-54556819D02*
X139397715Y-53556819D01*
D16*
%TO.C,C1*%
X62425859Y-45949812D02*
X62425859Y-47207812D01*
X60585859Y-45949812D02*
X60585859Y-47207812D01*
%TO.C,C7*%
X60802000Y-26283000D02*
X60802000Y-25025000D01*
X62642000Y-26283000D02*
X62642000Y-25025000D01*
%TO.C,U3*%
X90369000Y-58012000D02*
X115889000Y-58012000D01*
X115889000Y-58012000D02*
X115889000Y-52712000D01*
X90369000Y-56362000D02*
X90369000Y-58012000D01*
X90369000Y-52712000D02*
X90369000Y-54362000D01*
X115889000Y-52712000D02*
X90369000Y-52712000D01*
X90369000Y-56362000D02*
G75*
G03*
X90369000Y-54362000I0J1000000D01*
G01*
%TO.C,J5*%
X64456000Y-24070000D02*
X65786000Y-24070000D01*
X64456000Y-25400000D02*
X64456000Y-24070000D01*
X64456000Y-26670000D02*
X64456000Y-31810000D01*
X64456000Y-26670000D02*
X67116000Y-26670000D01*
X64456000Y-31810000D02*
X67116000Y-31810000D01*
X67116000Y-26670000D02*
X67116000Y-31810000D01*
%TO.C,R7*%
X146018000Y-63600000D02*
X139478000Y-63600000D01*
X146018000Y-63270000D02*
X146018000Y-63600000D01*
X146018000Y-61190000D02*
X146018000Y-60860000D01*
X146018000Y-60860000D02*
X139478000Y-60860000D01*
X139478000Y-63600000D02*
X139478000Y-63270000D01*
X139478000Y-60860000D02*
X139478000Y-61190000D01*
%TO.C,C2*%
X60642447Y-42114930D02*
X60642447Y-40856930D01*
X62482447Y-42114930D02*
X62482447Y-40856930D01*
%TO.C,C9*%
X131695380Y-28895000D02*
X132325380Y-28895000D01*
X132010380Y-28580000D02*
X132010380Y-29210000D01*
X135195621Y-27504000D02*
X135195621Y-33964000D01*
X135235621Y-27504000D02*
X135235621Y-33964000D01*
X135275621Y-27504000D02*
X135275621Y-33964000D01*
X135315621Y-27506000D02*
X135315621Y-33962000D01*
X135355621Y-27507000D02*
X135355621Y-33961000D01*
X135395621Y-27510000D02*
X135395621Y-33958000D01*
X135435621Y-27512000D02*
X135435621Y-29694000D01*
X135435621Y-31774000D02*
X135435621Y-33956000D01*
X135475621Y-27516000D02*
X135475621Y-29694000D01*
X135475621Y-31774000D02*
X135475621Y-33952000D01*
X135515621Y-27519000D02*
X135515621Y-29694000D01*
X135515621Y-31774000D02*
X135515621Y-33949000D01*
X135555621Y-27523000D02*
X135555621Y-29694000D01*
X135555621Y-31774000D02*
X135555621Y-33945000D01*
X135595621Y-27528000D02*
X135595621Y-29694000D01*
X135595621Y-31774000D02*
X135595621Y-33940000D01*
X135635621Y-27533000D02*
X135635621Y-29694000D01*
X135635621Y-31774000D02*
X135635621Y-33935000D01*
X135675621Y-27539000D02*
X135675621Y-29694000D01*
X135675621Y-31774000D02*
X135675621Y-33929000D01*
X135715621Y-27545000D02*
X135715621Y-29694000D01*
X135715621Y-31774000D02*
X135715621Y-33923000D01*
X135755621Y-27552000D02*
X135755621Y-29694000D01*
X135755621Y-31774000D02*
X135755621Y-33916000D01*
X135795621Y-27559000D02*
X135795621Y-29694000D01*
X135795621Y-31774000D02*
X135795621Y-33909000D01*
X135835621Y-27567000D02*
X135835621Y-29694000D01*
X135835621Y-31774000D02*
X135835621Y-33901000D01*
X135875621Y-27575000D02*
X135875621Y-29694000D01*
X135875621Y-31774000D02*
X135875621Y-33893000D01*
X135916621Y-27584000D02*
X135916621Y-29694000D01*
X135916621Y-31774000D02*
X135916621Y-33884000D01*
X135956621Y-27593000D02*
X135956621Y-29694000D01*
X135956621Y-31774000D02*
X135956621Y-33875000D01*
X135996621Y-27603000D02*
X135996621Y-29694000D01*
X135996621Y-31774000D02*
X135996621Y-33865000D01*
X136036621Y-27613000D02*
X136036621Y-29694000D01*
X136036621Y-31774000D02*
X136036621Y-33855000D01*
X136076621Y-27624000D02*
X136076621Y-29694000D01*
X136076621Y-31774000D02*
X136076621Y-33844000D01*
X136116621Y-27636000D02*
X136116621Y-29694000D01*
X136116621Y-31774000D02*
X136116621Y-33832000D01*
X136156621Y-27648000D02*
X136156621Y-29694000D01*
X136156621Y-31774000D02*
X136156621Y-33820000D01*
X136196621Y-27660000D02*
X136196621Y-29694000D01*
X136196621Y-31774000D02*
X136196621Y-33808000D01*
X136236621Y-27673000D02*
X136236621Y-29694000D01*
X136236621Y-31774000D02*
X136236621Y-33795000D01*
X136276621Y-27687000D02*
X136276621Y-29694000D01*
X136276621Y-31774000D02*
X136276621Y-33781000D01*
X136316621Y-27701000D02*
X136316621Y-29694000D01*
X136316621Y-31774000D02*
X136316621Y-33767000D01*
X136356621Y-27716000D02*
X136356621Y-29694000D01*
X136356621Y-31774000D02*
X136356621Y-33752000D01*
X136396621Y-27732000D02*
X136396621Y-29694000D01*
X136396621Y-31774000D02*
X136396621Y-33736000D01*
X136436621Y-27748000D02*
X136436621Y-29694000D01*
X136436621Y-31774000D02*
X136436621Y-33720000D01*
X136476621Y-27764000D02*
X136476621Y-29694000D01*
X136476621Y-31774000D02*
X136476621Y-33704000D01*
X136516621Y-27782000D02*
X136516621Y-29694000D01*
X136516621Y-31774000D02*
X136516621Y-33686000D01*
X136556621Y-27800000D02*
X136556621Y-29694000D01*
X136556621Y-31774000D02*
X136556621Y-33668000D01*
X136596621Y-27818000D02*
X136596621Y-29694000D01*
X136596621Y-31774000D02*
X136596621Y-33650000D01*
X136636621Y-27838000D02*
X136636621Y-29694000D01*
X136636621Y-31774000D02*
X136636621Y-33630000D01*
X136676621Y-27858000D02*
X136676621Y-29694000D01*
X136676621Y-31774000D02*
X136676621Y-33610000D01*
X136716621Y-27878000D02*
X136716621Y-29694000D01*
X136716621Y-31774000D02*
X136716621Y-33590000D01*
X136756621Y-27900000D02*
X136756621Y-29694000D01*
X136756621Y-31774000D02*
X136756621Y-33568000D01*
X136796621Y-27922000D02*
X136796621Y-29694000D01*
X136796621Y-31774000D02*
X136796621Y-33546000D01*
X136836621Y-27944000D02*
X136836621Y-29694000D01*
X136836621Y-31774000D02*
X136836621Y-33524000D01*
X136876621Y-27968000D02*
X136876621Y-29694000D01*
X136876621Y-31774000D02*
X136876621Y-33500000D01*
X136916621Y-27992000D02*
X136916621Y-29694000D01*
X136916621Y-31774000D02*
X136916621Y-33476000D01*
X136956621Y-28018000D02*
X136956621Y-29694000D01*
X136956621Y-31774000D02*
X136956621Y-33450000D01*
X136996621Y-28044000D02*
X136996621Y-29694000D01*
X136996621Y-31774000D02*
X136996621Y-33424000D01*
X137036621Y-28070000D02*
X137036621Y-29694000D01*
X137036621Y-31774000D02*
X137036621Y-33398000D01*
X137076621Y-28098000D02*
X137076621Y-29694000D01*
X137076621Y-31774000D02*
X137076621Y-33370000D01*
X137116621Y-28127000D02*
X137116621Y-29694000D01*
X137116621Y-31774000D02*
X137116621Y-33341000D01*
X137156621Y-28156000D02*
X137156621Y-29694000D01*
X137156621Y-31774000D02*
X137156621Y-33312000D01*
X137196621Y-28186000D02*
X137196621Y-29694000D01*
X137196621Y-31774000D02*
X137196621Y-33282000D01*
X137236621Y-28218000D02*
X137236621Y-29694000D01*
X137236621Y-31774000D02*
X137236621Y-33250000D01*
X137276621Y-28250000D02*
X137276621Y-29694000D01*
X137276621Y-31774000D02*
X137276621Y-33218000D01*
X137316621Y-28284000D02*
X137316621Y-29694000D01*
X137316621Y-31774000D02*
X137316621Y-33184000D01*
X137356621Y-28318000D02*
X137356621Y-29694000D01*
X137356621Y-31774000D02*
X137356621Y-33150000D01*
X137396621Y-28354000D02*
X137396621Y-29694000D01*
X137396621Y-31774000D02*
X137396621Y-33114000D01*
X137436621Y-28391000D02*
X137436621Y-29694000D01*
X137436621Y-31774000D02*
X137436621Y-33077000D01*
X137476621Y-28429000D02*
X137476621Y-29694000D01*
X137476621Y-31774000D02*
X137476621Y-33039000D01*
X137516621Y-28469000D02*
X137516621Y-32999000D01*
X137556621Y-28510000D02*
X137556621Y-32958000D01*
X137596621Y-28552000D02*
X137596621Y-32916000D01*
X137636621Y-28597000D02*
X137636621Y-32871000D01*
X137676621Y-28642000D02*
X137676621Y-32826000D01*
X137716621Y-28690000D02*
X137716621Y-32778000D01*
X137756621Y-28739000D02*
X137756621Y-32729000D01*
X137796621Y-28790000D02*
X137796621Y-32678000D01*
X137836621Y-28844000D02*
X137836621Y-32624000D01*
X137876621Y-28900000D02*
X137876621Y-32568000D01*
X137916621Y-28958000D02*
X137916621Y-32510000D01*
X137956621Y-29020000D02*
X137956621Y-32448000D01*
X137996621Y-29084000D02*
X137996621Y-32384000D01*
X138036621Y-29153000D02*
X138036621Y-32315000D01*
X138076621Y-29225000D02*
X138076621Y-32243000D01*
X138116621Y-29302000D02*
X138116621Y-32166000D01*
X138156621Y-29384000D02*
X138156621Y-32084000D01*
X138196621Y-29472000D02*
X138196621Y-31996000D01*
X138236621Y-29569000D02*
X138236621Y-31899000D01*
X138276621Y-29675000D02*
X138276621Y-31793000D01*
X138316621Y-29794000D02*
X138316621Y-31674000D01*
X138356621Y-29932000D02*
X138356621Y-31536000D01*
X138396621Y-30101000D02*
X138396621Y-31367000D01*
X138436621Y-30332000D02*
X138436621Y-31136000D01*
X138465621Y-30734000D02*
G75*
G03*
X138465621Y-30734000I-3270000J0D01*
G01*
%TO.C,SW1*%
X135148000Y-25943000D02*
X137748000Y-25943000D01*
X135148000Y-25943000D02*
X135148000Y-23283000D01*
X137748000Y-25943000D02*
X137748000Y-23283000D01*
X132548000Y-24613000D02*
X132548000Y-23283000D01*
X132548000Y-23283000D02*
X133878000Y-23283000D01*
X135148000Y-23283000D02*
X137748000Y-23283000D01*
%TO.C,IDC1*%
X128962000Y-24376000D02*
X128962000Y-25706000D01*
X127632000Y-24376000D02*
X128962000Y-24376000D01*
X126362000Y-24376000D02*
X78042000Y-24376000D01*
X126362000Y-24376000D02*
X126362000Y-26976000D01*
X78042000Y-24376000D02*
X78042000Y-29576000D01*
X128962000Y-26976000D02*
X128962000Y-29576000D01*
X126362000Y-26976000D02*
X128962000Y-26976000D01*
X128962000Y-29576000D02*
X78042000Y-29576000D01*
%TO.C,C5*%
X119476000Y-45567000D02*
X119476000Y-44309000D01*
X121316000Y-45567000D02*
X121316000Y-44309000D01*
%TO.C,R4*%
X98520000Y-46836000D02*
X91980000Y-46836000D01*
X98520000Y-46506000D02*
X98520000Y-46836000D01*
X98520000Y-44426000D02*
X98520000Y-44096000D01*
X98520000Y-44096000D02*
X91980000Y-44096000D01*
X91980000Y-46836000D02*
X91980000Y-46506000D01*
X91980000Y-44096000D02*
X91980000Y-44426000D01*
%TO.C,D1*%
X148490000Y-61944000D02*
X148490000Y-55404000D01*
X148820000Y-61944000D02*
X148490000Y-61944000D01*
X150900000Y-61944000D02*
X151230000Y-61944000D01*
X151230000Y-61944000D02*
X151230000Y-55404000D01*
X148490000Y-55404000D02*
X148820000Y-55404000D01*
X151230000Y-55404000D02*
X150900000Y-55404000D01*
%TO.C,R3*%
X130512000Y-63650630D02*
X123972000Y-63650630D01*
X130512000Y-63320630D02*
X130512000Y-63650630D01*
X130512000Y-61240630D02*
X130512000Y-60910630D01*
X130512000Y-60910630D02*
X123972000Y-60910630D01*
X123972000Y-63650630D02*
X123972000Y-63320630D01*
X123972000Y-60910630D02*
X123972000Y-61240630D01*
%TO.C,RN5*%
X77101725Y-62417219D02*
X77101725Y-59617219D01*
X77101725Y-59617219D02*
X53901725Y-59617219D01*
X74391725Y-62417219D02*
X74391725Y-59617219D01*
X53901725Y-62417219D02*
X77101725Y-62417219D01*
X53901725Y-59617219D02*
X53901725Y-62417219D01*
%TO.C,RN4*%
X105987000Y-32128000D02*
X105987000Y-34928000D01*
X105987000Y-34928000D02*
X129187000Y-34928000D01*
X108697000Y-32128000D02*
X108697000Y-34928000D01*
X129187000Y-32128000D02*
X105987000Y-32128000D01*
X129187000Y-34928000D02*
X129187000Y-32128000D01*
%TO.C,U5*%
X122030000Y-48066000D02*
X147550000Y-48066000D01*
X147550000Y-48066000D02*
X147550000Y-42766000D01*
X122030000Y-46416000D02*
X122030000Y-48066000D01*
X122030000Y-42766000D02*
X122030000Y-44416000D01*
X147550000Y-42766000D02*
X122030000Y-42766000D01*
X122030000Y-46416000D02*
G75*
G03*
X122030000Y-44416000I0J1000000D01*
G01*
%TO.C,RN1*%
X101516000Y-38484000D02*
X101516000Y-35684000D01*
X101516000Y-35684000D02*
X78316000Y-35684000D01*
X98806000Y-38484000D02*
X98806000Y-35684000D01*
X78316000Y-38484000D02*
X101516000Y-38484000D01*
X78316000Y-35684000D02*
X78316000Y-38484000D01*
%TO.C,R8*%
X146018000Y-66871812D02*
X139478000Y-66871812D01*
X146018000Y-66541812D02*
X146018000Y-66871812D01*
X146018000Y-64461812D02*
X146018000Y-64131812D01*
X146018000Y-64131812D02*
X139478000Y-64131812D01*
X139478000Y-66871812D02*
X139478000Y-66541812D01*
X139478000Y-64131812D02*
X139478000Y-64461812D01*
%TO.C,R5*%
X107982000Y-44096000D02*
X114522000Y-44096000D01*
X107982000Y-44426000D02*
X107982000Y-44096000D01*
X107982000Y-46506000D02*
X107982000Y-46836000D01*
X107982000Y-46836000D02*
X114522000Y-46836000D01*
X114522000Y-44096000D02*
X114522000Y-44426000D01*
X114522000Y-46836000D02*
X114522000Y-46506000D01*
%TO.C,C3*%
X87980000Y-55747000D02*
X87980000Y-54489000D01*
X89820000Y-55747000D02*
X89820000Y-54489000D01*
%TO.C,D2*%
X148490000Y-41116000D02*
X148490000Y-34576000D01*
X148820000Y-41116000D02*
X148490000Y-41116000D01*
X150900000Y-41116000D02*
X151230000Y-41116000D01*
X151230000Y-41116000D02*
X151230000Y-34576000D01*
X148490000Y-34576000D02*
X148820000Y-34576000D01*
X151230000Y-34576000D02*
X150900000Y-34576000D01*
%TO.C,RN2*%
X101531000Y-34928000D02*
X101531000Y-32128000D01*
X101531000Y-32128000D02*
X78331000Y-32128000D01*
X98821000Y-34928000D02*
X98821000Y-32128000D01*
X78331000Y-34928000D02*
X101531000Y-34928000D01*
X78331000Y-32128000D02*
X78331000Y-34928000D01*
%TO.C,R2*%
X58705866Y-40764562D02*
X58705866Y-47304562D01*
X58375866Y-40764562D02*
X58705866Y-40764562D01*
X56295866Y-40764562D02*
X55965866Y-40764562D01*
X55965866Y-40764562D02*
X55965866Y-47304562D01*
X58705866Y-47304562D02*
X58375866Y-47304562D01*
X55965866Y-47304562D02*
X56295866Y-47304562D01*
%TO.C,U6*%
X53232000Y-31786000D02*
X53232000Y-25776000D01*
X60052000Y-29536000D02*
X60052000Y-25776000D01*
X53232000Y-25776000D02*
X54492000Y-25776000D01*
X60052000Y-25776000D02*
X58792000Y-25776000D01*
%TO.C,U1*%
X55418709Y-56737829D02*
X80938709Y-56737829D01*
X80938709Y-56737829D02*
X80938709Y-51437829D01*
X55418709Y-55087829D02*
X55418709Y-56737829D01*
X55418709Y-51437829D02*
X55418709Y-53087829D01*
X80938709Y-51437829D02*
X55418709Y-51437829D01*
X55418709Y-55087829D02*
G75*
G03*
X55418709Y-53087829I0J1000000D01*
G01*
%TO.C,G\u002A\u002A\u002A*%
G36*
X113055221Y-72841188D02*
G01*
X113060518Y-72873586D01*
X113035166Y-72936065D01*
X113013568Y-72944011D01*
X112971914Y-72905983D01*
X112966617Y-72873586D01*
X112991969Y-72811106D01*
X113013568Y-72803160D01*
X113055221Y-72841188D01*
G37*
G36*
X113524722Y-72841188D02*
G01*
X113530019Y-72873586D01*
X113504667Y-72936065D01*
X113483068Y-72944011D01*
X113441415Y-72905983D01*
X113436118Y-72873586D01*
X113461470Y-72811106D01*
X113483068Y-72803160D01*
X113524722Y-72841188D01*
G37*
G36*
X100680131Y-72100114D02*
G01*
X100818861Y-72106649D01*
X100903061Y-72122898D01*
X100952414Y-72153243D01*
X100986602Y-72202067D01*
X100994344Y-72216284D01*
X101027371Y-72311329D01*
X101013662Y-72409765D01*
X100946018Y-72534220D01*
X100852422Y-72662310D01*
X100761681Y-72779685D01*
X100760637Y-72601488D01*
X100722633Y-72408656D01*
X100612998Y-72275586D01*
X100434393Y-72204613D01*
X100294997Y-72192809D01*
X100154329Y-72184117D01*
X100056079Y-72161957D01*
X100031867Y-72145859D01*
X100061122Y-72122533D01*
X100178634Y-72106871D01*
X100379025Y-72099451D01*
X100467188Y-72098909D01*
X100680131Y-72100114D01*
G37*
G36*
X109109318Y-72031553D02*
G01*
X109243659Y-72096699D01*
X109344275Y-72178717D01*
X109369246Y-72218388D01*
X109398485Y-72375152D01*
X109355830Y-72529212D01*
X109235132Y-72699818D01*
X109204631Y-72733784D01*
X109010851Y-72944011D01*
X109207605Y-72944011D01*
X109331120Y-72948009D01*
X109385188Y-72973664D01*
X109394255Y-73041468D01*
X109389648Y-73096599D01*
X109374935Y-73249186D01*
X109015020Y-73262828D01*
X108840197Y-73263972D01*
X108704312Y-73254616D01*
X108632330Y-73236718D01*
X108627891Y-73232437D01*
X108612553Y-73125758D01*
X108657621Y-72976463D01*
X108754361Y-72805471D01*
X108864726Y-72665285D01*
X108995759Y-72502197D01*
X109060541Y-72380649D01*
X109056823Y-72306972D01*
X108999335Y-72286709D01*
X108937090Y-72324291D01*
X108928910Y-72357135D01*
X108893991Y-72408763D01*
X108781862Y-72427331D01*
X108761420Y-72427560D01*
X108651922Y-72421272D01*
X108613863Y-72390996D01*
X108624364Y-72321922D01*
X108691390Y-72198889D01*
X108802012Y-72087260D01*
X108923405Y-72016222D01*
X108980809Y-72005009D01*
X109109318Y-72031553D01*
G37*
G36*
X110109976Y-72016217D02*
G01*
X110138245Y-72064677D01*
X110148610Y-72172642D01*
X110149612Y-72263234D01*
X110149612Y-72521460D01*
X110384362Y-72521460D01*
X110523684Y-72525265D01*
X110593189Y-72544686D01*
X110616889Y-72591730D01*
X110619113Y-72638835D01*
X110611502Y-72708496D01*
X110572660Y-72743248D01*
X110478573Y-72755098D01*
X110384362Y-72756210D01*
X110149612Y-72756210D01*
X110149612Y-72990961D01*
X110144668Y-73131765D01*
X110123684Y-73201990D01*
X110077431Y-73224707D01*
X110055712Y-73225711D01*
X109999148Y-73213209D01*
X109971086Y-73160259D01*
X109962159Y-73043697D01*
X109961812Y-72993533D01*
X109961812Y-72761355D01*
X109738799Y-72747045D01*
X109600341Y-72731655D01*
X109530190Y-72700148D01*
X109502807Y-72639655D01*
X109500783Y-72627098D01*
X109500029Y-72564781D01*
X109535584Y-72533409D01*
X109629539Y-72522517D01*
X109723796Y-72521460D01*
X109961812Y-72521460D01*
X109961812Y-72263234D01*
X109965887Y-72114006D01*
X109983509Y-72036267D01*
X110022769Y-72007763D01*
X110055712Y-72005009D01*
X110109976Y-72016217D01*
G37*
G36*
X102953258Y-72053768D02*
G01*
X103072602Y-72144621D01*
X103143453Y-72287708D01*
X103154048Y-72382423D01*
X103140461Y-72502837D01*
X103087142Y-72603496D01*
X102975257Y-72718975D01*
X102966248Y-72727150D01*
X102861851Y-72825475D01*
X102793664Y-72897386D01*
X102778447Y-72920413D01*
X102820144Y-72935197D01*
X102924294Y-72943413D01*
X102966248Y-72944011D01*
X103086490Y-72948985D01*
X103139926Y-72979702D01*
X103153628Y-73059848D01*
X103154048Y-73108336D01*
X103154048Y-73272661D01*
X102781218Y-73272661D01*
X102603480Y-73268003D01*
X102464945Y-73255645D01*
X102389904Y-73238007D01*
X102383903Y-73233043D01*
X102373290Y-73136224D01*
X102417014Y-72996232D01*
X102503709Y-72836977D01*
X102622009Y-72682372D01*
X102668759Y-72633801D01*
X102776191Y-72517861D01*
X102845190Y-72420770D01*
X102860729Y-72369163D01*
X102810204Y-72310542D01*
X102739226Y-72295982D01*
X102689342Y-72329132D01*
X102684547Y-72353692D01*
X102653193Y-72407324D01*
X102549242Y-72427085D01*
X102520087Y-72427560D01*
X102355627Y-72427560D01*
X102417765Y-72274972D01*
X102517676Y-72125749D01*
X102654455Y-72041217D01*
X102806762Y-72018262D01*
X102953258Y-72053768D01*
G37*
G36*
X115017890Y-71795745D02*
G01*
X115208315Y-71869694D01*
X115324601Y-71988335D01*
X115360751Y-72134122D01*
X115349588Y-72241226D01*
X115303091Y-72283109D01*
X115255434Y-72288193D01*
X115190302Y-72292954D01*
X115187665Y-72316993D01*
X115251322Y-72378952D01*
X115278910Y-72403316D01*
X115359720Y-72490837D01*
X115397965Y-72591255D01*
X115408003Y-72743569D01*
X115408022Y-72753958D01*
X115404204Y-72894198D01*
X115385043Y-72964476D01*
X115338980Y-72988655D01*
X115293219Y-72990961D01*
X115222905Y-72981238D01*
X115186092Y-72935821D01*
X115168672Y-72830340D01*
X115164107Y-72767948D01*
X115149797Y-72544935D01*
X114950259Y-72530498D01*
X114750721Y-72516061D01*
X114750721Y-72753511D01*
X114747738Y-72893492D01*
X114729264Y-72963668D01*
X114681011Y-72988125D01*
X114609871Y-72990961D01*
X114469020Y-72990961D01*
X114469020Y-72380610D01*
X114469020Y-72169334D01*
X114750721Y-72169334D01*
X114762998Y-72248710D01*
X114818247Y-72281205D01*
X114915046Y-72286709D01*
X115026173Y-72277940D01*
X115071666Y-72238477D01*
X115079372Y-72169334D01*
X115067094Y-72089958D01*
X115011846Y-72057463D01*
X114915046Y-72051959D01*
X114803920Y-72060728D01*
X114758427Y-72100192D01*
X114750721Y-72169334D01*
X114469020Y-72169334D01*
X114469020Y-71770258D01*
X114759553Y-71770258D01*
X115017890Y-71795745D01*
G37*
G36*
X102261996Y-72380610D02*
G01*
X102261996Y-73272661D01*
X100110117Y-73272661D01*
X99669365Y-73271999D01*
X99257642Y-73270102D01*
X98884414Y-73267106D01*
X98559146Y-73263147D01*
X98291304Y-73258361D01*
X98090353Y-73252882D01*
X97965760Y-73246848D01*
X97926938Y-73241361D01*
X97916987Y-73186556D01*
X97908342Y-73053254D01*
X97903340Y-72908798D01*
X98236004Y-72908798D01*
X98236592Y-72961693D01*
X98291136Y-72985714D01*
X98404803Y-72990961D01*
X98528186Y-72984582D01*
X98592825Y-72948074D01*
X98632300Y-72855383D01*
X98646839Y-72803160D01*
X98682436Y-72686899D01*
X98710938Y-72620977D01*
X98717264Y-72615360D01*
X98740484Y-72655941D01*
X98774836Y-72757632D01*
X98787690Y-72803160D01*
X98826636Y-72922665D01*
X98878297Y-72976433D01*
X98975017Y-72990554D01*
X99020519Y-72990961D01*
X99141148Y-72983274D01*
X99200903Y-72944733D01*
X99232504Y-72852116D01*
X99235506Y-72838373D01*
X99273218Y-72693993D01*
X99307485Y-72641313D01*
X99342804Y-72678470D01*
X99377123Y-72779685D01*
X99429821Y-72967486D01*
X99963596Y-72980852D01*
X100199790Y-72985157D01*
X100363112Y-72982237D01*
X100474481Y-72969345D01*
X100554820Y-72943732D01*
X100625048Y-72902651D01*
X100640220Y-72891979D01*
X100715835Y-72842385D01*
X100734417Y-72840430D01*
X100724381Y-72852791D01*
X100672107Y-72928617D01*
X100695514Y-72971978D01*
X100801606Y-72989606D01*
X100868139Y-72990961D01*
X101010799Y-72979233D01*
X101104442Y-72930767D01*
X101174720Y-72850111D01*
X101251182Y-72758332D01*
X101307430Y-72711004D01*
X101314277Y-72709260D01*
X101359473Y-72745653D01*
X101423645Y-72834796D01*
X101432901Y-72850111D01*
X101499172Y-72940142D01*
X101580654Y-72980977D01*
X101715323Y-72990944D01*
X101724725Y-72990961D01*
X101849852Y-72986557D01*
X101924311Y-72975430D01*
X101933346Y-72969070D01*
X101909689Y-72921865D01*
X101847248Y-72817481D01*
X101758818Y-72677206D01*
X101745545Y-72656615D01*
X101654468Y-72512142D01*
X101587777Y-72399567D01*
X101558319Y-72340695D01*
X101557894Y-72338118D01*
X101582187Y-72288077D01*
X101646043Y-72182340D01*
X101736172Y-72042822D01*
X101745700Y-72028484D01*
X101933355Y-71746783D01*
X101735218Y-71731841D01*
X101598121Y-71731675D01*
X101506248Y-71770792D01*
X101413539Y-71868270D01*
X101289996Y-72019641D01*
X101202473Y-71871475D01*
X101114949Y-71723308D01*
X100536543Y-71723308D01*
X100246784Y-71727802D01*
X100035548Y-71744880D01*
X99887733Y-71779936D01*
X99788237Y-71838363D01*
X99721960Y-71925557D01*
X99679421Y-72029455D01*
X99651693Y-72167164D01*
X99681099Y-72288404D01*
X99700009Y-72327457D01*
X99749089Y-72409149D01*
X99809065Y-72463248D01*
X99902363Y-72499782D01*
X100051409Y-72528778D01*
X100196192Y-72549327D01*
X100334922Y-72570673D01*
X100389720Y-72588488D01*
X100370191Y-72607487D01*
X100337043Y-72618469D01*
X100220672Y-72639717D01*
X100058956Y-72654401D01*
X99976511Y-72657630D01*
X99733354Y-72662310D01*
X99662130Y-72415822D01*
X99606828Y-72220702D01*
X99550615Y-72016749D01*
X99531093Y-71944103D01*
X99491773Y-71810572D01*
X99451235Y-71746085D01*
X99385840Y-71728498D01*
X99305547Y-71732828D01*
X99199673Y-71749870D01*
X99142902Y-71795982D01*
X99108306Y-71898852D01*
X99097932Y-71946321D01*
X99066182Y-72067487D01*
X99035407Y-72138300D01*
X99025507Y-72145859D01*
X98996534Y-72104900D01*
X98957775Y-72000996D01*
X98938458Y-71934584D01*
X98898261Y-71805388D01*
X98852508Y-71743525D01*
X98776212Y-71724462D01*
X98723300Y-71723308D01*
X98564650Y-71723308D01*
X98411661Y-72274972D01*
X98350317Y-72496206D01*
X98296704Y-72689621D01*
X98256631Y-72834255D01*
X98236004Y-72908798D01*
X97903340Y-72908798D01*
X97901542Y-72856854D01*
X97897129Y-72612755D01*
X97895638Y-72349310D01*
X97895638Y-71488558D01*
X100078817Y-71488558D01*
X102261996Y-71488558D01*
X102261996Y-72380610D01*
G37*
G36*
X96768836Y-72380610D02*
G01*
X96768836Y-73272661D01*
X94609131Y-73272661D01*
X92449427Y-73272661D01*
X92449427Y-72921609D01*
X92747694Y-72921609D01*
X92750819Y-72966952D01*
X92817814Y-72987478D01*
X92912020Y-72990961D01*
X93035562Y-72984230D01*
X93101433Y-72946740D01*
X93144003Y-72852548D01*
X93158765Y-72804698D01*
X93206862Y-72679861D01*
X93249233Y-72648482D01*
X93287157Y-72710712D01*
X93314219Y-72822970D01*
X93362546Y-72950979D01*
X93455700Y-73006400D01*
X93606614Y-72999961D01*
X93683433Y-72956651D01*
X93742442Y-72846651D01*
X93767331Y-72767893D01*
X93827238Y-72553926D01*
X93890955Y-72772444D01*
X93954671Y-72990961D01*
X94495311Y-72990961D01*
X94729835Y-72989771D01*
X94890123Y-72983898D01*
X94995831Y-72969889D01*
X95066615Y-72944290D01*
X95122130Y-72903647D01*
X95151191Y-72875720D01*
X95247442Y-72723418D01*
X95266433Y-72591885D01*
X95229722Y-72404428D01*
X95119926Y-72275706D01*
X94937551Y-72206131D01*
X94775591Y-72192809D01*
X94633514Y-72185151D01*
X94538947Y-72165381D01*
X94515231Y-72145859D01*
X94559801Y-72123895D01*
X94684223Y-72108063D01*
X94874570Y-72099788D01*
X94973858Y-72098909D01*
X95185149Y-72100066D01*
X95322875Y-72106704D01*
X95407365Y-72123578D01*
X95458950Y-72155440D01*
X95497962Y-72207042D01*
X95508293Y-72223848D01*
X95543483Y-72289594D01*
X95551256Y-72348233D01*
X95524605Y-72422086D01*
X95456525Y-72533473D01*
X95371958Y-72658137D01*
X95159815Y-72967486D01*
X95362097Y-72982320D01*
X95499771Y-72983035D01*
X95589089Y-72947361D01*
X95673761Y-72857378D01*
X95677034Y-72853207D01*
X95756931Y-72761075D01*
X95814822Y-72711828D01*
X95823114Y-72709260D01*
X95866936Y-72745608D01*
X95930411Y-72834658D01*
X95939741Y-72850111D01*
X96006011Y-72940142D01*
X96087493Y-72980977D01*
X96222162Y-72990944D01*
X96231564Y-72990961D01*
X96356685Y-72985720D01*
X96431146Y-72972481D01*
X96440185Y-72964910D01*
X96415680Y-72915998D01*
X96351182Y-72811718D01*
X96260211Y-72673858D01*
X96252385Y-72662310D01*
X96159670Y-72520792D01*
X96092612Y-72408917D01*
X96064853Y-72349537D01*
X96064734Y-72347973D01*
X96089152Y-72292871D01*
X96153314Y-72183152D01*
X96243819Y-72041615D01*
X96252539Y-72028484D01*
X96440194Y-71746783D01*
X96242058Y-71731841D01*
X96104961Y-71731675D01*
X96013087Y-71770792D01*
X95920378Y-71868270D01*
X95796836Y-72019641D01*
X95709312Y-71871475D01*
X95621788Y-71723308D01*
X95071566Y-71723308D01*
X94780587Y-71727276D01*
X94568091Y-71742187D01*
X94418882Y-71772552D01*
X94317763Y-71822883D01*
X94249537Y-71897691D01*
X94207785Y-71979727D01*
X94156354Y-72115443D01*
X94148887Y-72205312D01*
X94190255Y-72288863D01*
X94255979Y-72370827D01*
X94342004Y-72454334D01*
X94445508Y-72504087D01*
X94600057Y-72534374D01*
X94656297Y-72541226D01*
X94823362Y-72568432D01*
X94900422Y-72598707D01*
X94891057Y-72627416D01*
X94798848Y-72649928D01*
X94627373Y-72661610D01*
X94562742Y-72662310D01*
X94240194Y-72662310D01*
X94169311Y-72415822D01*
X94115210Y-72221492D01*
X94061458Y-72018935D01*
X94043030Y-71946321D01*
X94004970Y-71812592D01*
X93962839Y-71746873D01*
X93893756Y-71725175D01*
X93830302Y-71723308D01*
X93733970Y-71730679D01*
X93676186Y-71768531D01*
X93633231Y-71860471D01*
X93606231Y-71946321D01*
X93565635Y-72074831D01*
X93539110Y-72123658D01*
X93515214Y-72103488D01*
X93493101Y-72051959D01*
X93450061Y-71924534D01*
X93428917Y-71840684D01*
X93386503Y-71770098D01*
X93279903Y-71736562D01*
X93243429Y-71732687D01*
X93075736Y-71718591D01*
X92925021Y-72285424D01*
X92865103Y-72508405D01*
X92811929Y-72701934D01*
X92771108Y-72845882D01*
X92748252Y-72920121D01*
X92747694Y-72921609D01*
X92449427Y-72921609D01*
X92449427Y-72380610D01*
X92449427Y-71488558D01*
X94609131Y-71488558D01*
X96768836Y-71488558D01*
X96768836Y-72380610D01*
G37*
G36*
X108412458Y-72380610D02*
G01*
X108412458Y-73272661D01*
X106252754Y-73272661D01*
X104093050Y-73272661D01*
X104093050Y-72979223D01*
X104376085Y-72979223D01*
X104416865Y-72986603D01*
X104520256Y-72990679D01*
X104560666Y-72990961D01*
X104681213Y-72983898D01*
X104745955Y-72945398D01*
X104788586Y-72849497D01*
X104802388Y-72804698D01*
X104850391Y-72679939D01*
X104892654Y-72648524D01*
X104930583Y-72710645D01*
X104958432Y-72826117D01*
X104986939Y-72934230D01*
X105038992Y-72980511D01*
X105147502Y-72990895D01*
X105167598Y-72990961D01*
X105280423Y-72984129D01*
X105343422Y-72946971D01*
X105386505Y-72854492D01*
X105406378Y-72791423D01*
X105436952Y-72689063D01*
X105459220Y-72639506D01*
X105483795Y-72650674D01*
X105521289Y-72730491D01*
X105582315Y-72886878D01*
X105601921Y-72937401D01*
X105656269Y-73017769D01*
X105743245Y-73021790D01*
X105749371Y-73020205D01*
X105842899Y-73007362D01*
X106001371Y-72997462D01*
X106195840Y-72992106D01*
X106266626Y-72991602D01*
X106469890Y-72988912D01*
X106603369Y-72978087D01*
X106691136Y-72953844D01*
X106757263Y-72910903D01*
X106794814Y-72875720D01*
X106891064Y-72723418D01*
X106910056Y-72591885D01*
X106871939Y-72404739D01*
X106760657Y-72274173D01*
X106580811Y-72204137D01*
X106445460Y-72192809D01*
X106304791Y-72184117D01*
X106206541Y-72161957D01*
X106182329Y-72145859D01*
X106211533Y-72122481D01*
X106328948Y-72106807D01*
X106529152Y-72099425D01*
X106614710Y-72098909D01*
X106826582Y-72099990D01*
X106964852Y-72106443D01*
X107049817Y-72123083D01*
X107101774Y-72154725D01*
X107141019Y-72206186D01*
X107153697Y-72226784D01*
X107190426Y-72294528D01*
X107199013Y-72353355D01*
X107172430Y-72426239D01*
X107103647Y-72536153D01*
X107023721Y-72651584D01*
X106925277Y-72794966D01*
X106852091Y-72906428D01*
X106817338Y-72965779D01*
X106816155Y-72969735D01*
X106858066Y-72982592D01*
X106963693Y-72990134D01*
X107019932Y-72990961D01*
X107159296Y-72980640D01*
X107250746Y-72934191D01*
X107339379Y-72828386D01*
X107341598Y-72825273D01*
X107459486Y-72659586D01*
X107572109Y-72824953D01*
X107658383Y-72932782D01*
X107748191Y-72980080D01*
X107884270Y-72990640D01*
X108006182Y-72985372D01*
X108076769Y-72971746D01*
X108083808Y-72964910D01*
X108059303Y-72915998D01*
X107994805Y-72811718D01*
X107903834Y-72673858D01*
X107896007Y-72662310D01*
X107803111Y-72519612D01*
X107735967Y-72405214D01*
X107708311Y-72342619D01*
X107708207Y-72340972D01*
X107732815Y-72282190D01*
X107797487Y-72170148D01*
X107888495Y-72028549D01*
X107893244Y-72021483D01*
X108078282Y-71746783D01*
X107882913Y-71731841D01*
X107746429Y-71732025D01*
X107654273Y-71772760D01*
X107564001Y-71868270D01*
X107440459Y-72019641D01*
X107352935Y-71871475D01*
X107265411Y-71723308D01*
X106672038Y-71723308D01*
X106424783Y-71724299D01*
X106252747Y-71729269D01*
X106137252Y-71741215D01*
X106059622Y-71763132D01*
X106001179Y-71798019D01*
X105954434Y-71838442D01*
X105860400Y-71961240D01*
X105830442Y-72115376D01*
X105830203Y-72135433D01*
X105859015Y-72305069D01*
X105951569Y-72425867D01*
X106117041Y-72505482D01*
X106323179Y-72546659D01*
X106470639Y-72568292D01*
X106533996Y-72586519D01*
X106522745Y-72605453D01*
X106487505Y-72617867D01*
X106371355Y-72639403D01*
X106209556Y-72654302D01*
X106125451Y-72657630D01*
X105880773Y-72662310D01*
X105827993Y-72462772D01*
X105755464Y-72188604D01*
X105701586Y-71992090D01*
X105660135Y-71860340D01*
X105624889Y-71780461D01*
X105589626Y-71739562D01*
X105548121Y-71724753D01*
X105494154Y-71723140D01*
X105471056Y-71723308D01*
X105373658Y-71730922D01*
X105318123Y-71770191D01*
X105280058Y-71865755D01*
X105261905Y-71934584D01*
X105223707Y-72059453D01*
X105187483Y-72135283D01*
X105173999Y-72145859D01*
X105144208Y-72104562D01*
X105109953Y-72000557D01*
X105097200Y-71946321D01*
X105065025Y-71821540D01*
X105021230Y-71763812D01*
X104939309Y-71747476D01*
X104891087Y-71746783D01*
X104727068Y-71746783D01*
X104552243Y-72357135D01*
X104488173Y-72581311D01*
X104434446Y-72770237D01*
X104395835Y-72907061D01*
X104377109Y-72974932D01*
X104376085Y-72979223D01*
X104093050Y-72979223D01*
X104093050Y-72380610D01*
X104093050Y-71488558D01*
X106252754Y-71488558D01*
X108412458Y-71488558D01*
X108412458Y-72380610D01*
G37*
G36*
X115924473Y-72380610D02*
G01*
X115924473Y-73272661D01*
X113584794Y-73272661D01*
X113124772Y-73272051D01*
X112693483Y-73270301D01*
X112299990Y-73267530D01*
X111953356Y-73263858D01*
X111662647Y-73259405D01*
X111436924Y-73254290D01*
X111285253Y-73248633D01*
X111216695Y-73242554D01*
X111213814Y-73241361D01*
X111203863Y-73186556D01*
X111195218Y-73053254D01*
X111188419Y-72856854D01*
X111186664Y-72759817D01*
X111566336Y-72759817D01*
X111593746Y-72791563D01*
X111643166Y-72848652D01*
X111652015Y-72897061D01*
X111679987Y-72981607D01*
X111710702Y-73006817D01*
X111819296Y-73032335D01*
X111905276Y-73023505D01*
X111933715Y-72990961D01*
X111895688Y-72949308D01*
X111863290Y-72944011D01*
X111801045Y-72906429D01*
X111792865Y-72873586D01*
X111815719Y-72835734D01*
X112003361Y-72835734D01*
X112027250Y-72919573D01*
X112076862Y-73006005D01*
X112157333Y-73032447D01*
X112227123Y-73029150D01*
X112332880Y-73007983D01*
X112373921Y-72953205D01*
X112378883Y-72885323D01*
X112505879Y-72885323D01*
X112507988Y-72995910D01*
X112548357Y-73036512D01*
X112564567Y-73037911D01*
X112624244Y-72997498D01*
X112637967Y-72920536D01*
X112662455Y-72826134D01*
X112708392Y-72803160D01*
X112726492Y-72795335D01*
X112825767Y-72795335D01*
X112835503Y-72941014D01*
X112876555Y-73013533D01*
X112966694Y-73032653D01*
X113035355Y-73028398D01*
X113136588Y-73005446D01*
X113173871Y-72943133D01*
X113175097Y-72921929D01*
X113318724Y-72921929D01*
X113385155Y-73004863D01*
X113492971Y-73035108D01*
X113616289Y-72996670D01*
X113659190Y-72923985D01*
X113663239Y-72844801D01*
X113613102Y-72756403D01*
X113517405Y-72712041D01*
X113412009Y-72716095D01*
X113332769Y-72772945D01*
X113318877Y-72802738D01*
X113318724Y-72921929D01*
X113175097Y-72921929D01*
X113177893Y-72873586D01*
X113161234Y-72767357D01*
X113098444Y-72722734D01*
X113072255Y-72717732D01*
X112989699Y-72689499D01*
X112966617Y-72659045D01*
X112928541Y-72620273D01*
X112896192Y-72615360D01*
X112846255Y-72647746D01*
X112826580Y-72753943D01*
X112825767Y-72795335D01*
X112726492Y-72795335D01*
X112770846Y-72776160D01*
X112778817Y-72753092D01*
X112738922Y-72721574D01*
X112649704Y-72717879D01*
X112556798Y-72745067D01*
X112515725Y-72817987D01*
X112505879Y-72885323D01*
X112378883Y-72885323D01*
X112379741Y-72873586D01*
X112355386Y-72764403D01*
X112299596Y-72732944D01*
X112238281Y-72782802D01*
X112210475Y-72850111D01*
X112177826Y-72967486D01*
X112173146Y-72838373D01*
X112147575Y-72737884D01*
X112100812Y-72709260D01*
X112017577Y-72741127D01*
X112003361Y-72835734D01*
X111815719Y-72835734D01*
X111830447Y-72811341D01*
X111863290Y-72803160D01*
X111925770Y-72777809D01*
X111933715Y-72756210D01*
X111895688Y-72714557D01*
X111863290Y-72709260D01*
X111800811Y-72683909D01*
X111792865Y-72662310D01*
X111763156Y-72618351D01*
X111690622Y-72635072D01*
X111613868Y-72693750D01*
X111566336Y-72759817D01*
X111186664Y-72759817D01*
X111184005Y-72612755D01*
X111183129Y-72457978D01*
X111610046Y-72457978D01*
X111628616Y-72511306D01*
X111670651Y-72521460D01*
X111742218Y-72482145D01*
X111800615Y-72392347D01*
X111852992Y-72263234D01*
X111883675Y-72380363D01*
X111941389Y-72486785D01*
X112021342Y-72510108D01*
X112099641Y-72448820D01*
X112126975Y-72395763D01*
X112179659Y-72263234D01*
X112224925Y-72392347D01*
X112255732Y-72462461D01*
X112302379Y-72501152D01*
X112389728Y-72517712D01*
X112542644Y-72521434D01*
X112570372Y-72521460D01*
X112738679Y-72517476D01*
X112840841Y-72499792D01*
X112904475Y-72459814D01*
X112947460Y-72404085D01*
X112997136Y-72312194D01*
X112989102Y-72239942D01*
X112947460Y-72169334D01*
X112839663Y-72072264D01*
X112730785Y-72051959D01*
X112632358Y-72038263D01*
X112591019Y-72005298D01*
X112591017Y-72005009D01*
X112631567Y-71970964D01*
X112732539Y-71956569D01*
X112862910Y-71960126D01*
X112991660Y-71979939D01*
X113087767Y-72014310D01*
X113111621Y-72033488D01*
X113144085Y-72094446D01*
X113131744Y-72169832D01*
X113070420Y-72289278D01*
X113007456Y-72404026D01*
X112970598Y-72481537D01*
X112966617Y-72495549D01*
X113000693Y-72524358D01*
X113081922Y-72510542D01*
X113178809Y-72462777D01*
X113229541Y-72423146D01*
X113334191Y-72324833D01*
X113386806Y-72423146D01*
X113479817Y-72505799D01*
X113560545Y-72521460D01*
X113643763Y-72514792D01*
X113649650Y-72477247D01*
X113613019Y-72415822D01*
X113514862Y-72263286D01*
X113461891Y-72166664D01*
X113449201Y-72102448D01*
X113471883Y-72047132D01*
X113522215Y-71980791D01*
X113590639Y-71883171D01*
X113623429Y-71815488D01*
X113623919Y-71810877D01*
X113589291Y-71773334D01*
X113507727Y-71779158D01*
X113412708Y-71823237D01*
X113381128Y-71847960D01*
X113309584Y-71899892D01*
X113251272Y-71883404D01*
X113209409Y-71847960D01*
X113095895Y-71793117D01*
X112907017Y-71770983D01*
X112854196Y-71770258D01*
X112634237Y-71782888D01*
X112493607Y-71824679D01*
X112420674Y-71901488D01*
X112403216Y-71997271D01*
X112433774Y-72141826D01*
X112529780Y-72221626D01*
X112659094Y-72243059D01*
X112746741Y-72249298D01*
X112748018Y-72265528D01*
X112711618Y-72281872D01*
X112565421Y-72311401D01*
X112455374Y-72264468D01*
X112371923Y-72134543D01*
X112333322Y-72023363D01*
X112268945Y-71854192D01*
X112201085Y-71778630D01*
X112129222Y-71796432D01*
X112059408Y-71894519D01*
X111994301Y-72018780D01*
X111962331Y-71891399D01*
X111916686Y-71789135D01*
X111857759Y-71770084D01*
X111792078Y-71825676D01*
X111726172Y-71947339D01*
X111666573Y-72126499D01*
X111622468Y-72337577D01*
X111610046Y-72457978D01*
X111183129Y-72457978D01*
X111182514Y-72349310D01*
X111182514Y-71629408D01*
X114093420Y-71629408D01*
X114093420Y-72380610D01*
X114093420Y-73131811D01*
X114938521Y-73131811D01*
X115783623Y-73131811D01*
X115783623Y-72380610D01*
X115783623Y-71629408D01*
X114938521Y-71629408D01*
X114093420Y-71629408D01*
X111182514Y-71629408D01*
X111182514Y-71488558D01*
X113553494Y-71488558D01*
X115924473Y-71488558D01*
X115924473Y-72380610D01*
G37*
G36*
X115924473Y-66300573D02*
G01*
X115924473Y-71066007D01*
X104186950Y-71066007D01*
X92449427Y-71066007D01*
X92449427Y-69690930D01*
X94092680Y-69690930D01*
X94112185Y-69711990D01*
X94177198Y-69727854D01*
X94297472Y-69739125D01*
X94482755Y-69746406D01*
X94742799Y-69750297D01*
X95071936Y-69751404D01*
X96051192Y-69751404D01*
X96393885Y-68542440D01*
X96486185Y-68219825D01*
X96571680Y-67926678D01*
X96646673Y-67675230D01*
X96707466Y-67477712D01*
X96750359Y-67346353D01*
X96771518Y-67293536D01*
X96783755Y-67279412D01*
X96794960Y-67275059D01*
X96808145Y-67290324D01*
X96826324Y-67335053D01*
X96852510Y-67419095D01*
X96889715Y-67552295D01*
X96940954Y-67744501D01*
X97009240Y-68005560D01*
X97097586Y-68345319D01*
X97121364Y-68436802D01*
X97200644Y-68740305D01*
X97274806Y-69021471D01*
X97339666Y-69264650D01*
X97391037Y-69454190D01*
X97424736Y-69574440D01*
X97432070Y-69598817D01*
X97480369Y-69751404D01*
X98383178Y-69751404D01*
X99285987Y-69751404D01*
X99365122Y-69434491D01*
X99419738Y-69221260D01*
X99486645Y-68968554D01*
X99561719Y-68691048D01*
X99640836Y-68403418D01*
X99719870Y-68120340D01*
X99794697Y-67856492D01*
X99861193Y-67626548D01*
X99915234Y-67445185D01*
X99952694Y-67327079D01*
X99968589Y-67287203D01*
X99991098Y-67317903D01*
X100030795Y-67422291D01*
X100081667Y-67583066D01*
X100126899Y-67742616D01*
X100187787Y-67963997D01*
X100266409Y-68244911D01*
X100354134Y-68554771D01*
X100442329Y-68862986D01*
X100475159Y-68976728D01*
X100692607Y-69727929D01*
X103413993Y-69726458D01*
X106135379Y-69724986D01*
X106404157Y-69617890D01*
X106783141Y-69423950D01*
X107120471Y-69166581D01*
X107400808Y-68860645D01*
X107608814Y-68521008D01*
X107660322Y-68400524D01*
X107788265Y-67947404D01*
X107827827Y-67500533D01*
X107780697Y-67068780D01*
X107648567Y-66661013D01*
X107433125Y-66286101D01*
X107206838Y-66020685D01*
X107028975Y-65851716D01*
X106859465Y-65715040D01*
X106685291Y-65606875D01*
X106493436Y-65523436D01*
X106270883Y-65460939D01*
X106004615Y-65415600D01*
X105681617Y-65383636D01*
X105288869Y-65361261D01*
X104889101Y-65346916D01*
X104528460Y-65335641D01*
X104250809Y-65324406D01*
X104045277Y-65310455D01*
X103900994Y-65291038D01*
X103807092Y-65263402D01*
X103752699Y-65224794D01*
X103726947Y-65172462D01*
X103718966Y-65103653D01*
X103718168Y-65050406D01*
X103718477Y-64995196D01*
X103725065Y-64948689D01*
X103745377Y-64910086D01*
X103786859Y-64878586D01*
X103856957Y-64853391D01*
X103963117Y-64833700D01*
X104112783Y-64818714D01*
X104313403Y-64807633D01*
X104572421Y-64799657D01*
X104897282Y-64793987D01*
X105295434Y-64789823D01*
X105774321Y-64786365D01*
X106201443Y-64783689D01*
X108530261Y-64769208D01*
X109009348Y-65456731D01*
X109488434Y-66144254D01*
X109365275Y-66339788D01*
X109305696Y-66430739D01*
X109201216Y-66586364D01*
X109060365Y-66794120D01*
X108891671Y-67041464D01*
X108703664Y-67315855D01*
X108519529Y-67583492D01*
X108169834Y-68093141D01*
X107869084Y-68536505D01*
X107618243Y-68912100D01*
X107418273Y-69218440D01*
X107270134Y-69454041D01*
X107174790Y-69617416D01*
X107133202Y-69707081D01*
X107133015Y-69723963D01*
X107185821Y-69731746D01*
X107319054Y-69738672D01*
X107519243Y-69744411D01*
X107772916Y-69748631D01*
X108066602Y-69751005D01*
X108252760Y-69751404D01*
X109345064Y-69751404D01*
X109639254Y-69340591D01*
X109788604Y-69133080D01*
X109969410Y-68883429D01*
X110157406Y-68625077D01*
X110307422Y-68419938D01*
X110681401Y-67910099D01*
X110767847Y-68020862D01*
X110820298Y-68091950D01*
X110916984Y-68226675D01*
X111048411Y-68411661D01*
X111205087Y-68633536D01*
X111377518Y-68878925D01*
X111421958Y-68942354D01*
X111989623Y-69753083D01*
X113096323Y-69740506D01*
X113502705Y-69733751D01*
X113819287Y-69723772D01*
X114045018Y-69710629D01*
X114178852Y-69694379D01*
X114219682Y-69677872D01*
X114197543Y-69629831D01*
X114127522Y-69512424D01*
X114014866Y-69333711D01*
X113864823Y-69101749D01*
X113682639Y-68824598D01*
X113473563Y-68510316D01*
X113242842Y-68166962D01*
X113061553Y-67899335D01*
X112818016Y-67540527D01*
X112591543Y-67205917D01*
X112387446Y-66903421D01*
X112211037Y-66640955D01*
X112067627Y-66426437D01*
X111962528Y-66267783D01*
X111901051Y-66172909D01*
X111886765Y-66148397D01*
X111912245Y-66105559D01*
X111984467Y-65994693D01*
X112097108Y-65825236D01*
X112243845Y-65606628D01*
X112418354Y-65348306D01*
X112614311Y-65059711D01*
X112724057Y-64898654D01*
X113025027Y-64457313D01*
X113277093Y-64087115D01*
X113484405Y-63781729D01*
X113651113Y-63534819D01*
X113781367Y-63340055D01*
X113879314Y-63191101D01*
X113949105Y-63081625D01*
X113994890Y-63005295D01*
X114020817Y-62955776D01*
X114031037Y-62926736D01*
X114029698Y-62911842D01*
X114027597Y-62909118D01*
X113968652Y-62894876D01*
X113833359Y-62882239D01*
X113639262Y-62871573D01*
X113403903Y-62863244D01*
X113144827Y-62857617D01*
X112879578Y-62855059D01*
X112625699Y-62855935D01*
X112400733Y-62860611D01*
X112222225Y-62869453D01*
X112201913Y-62871047D01*
X111798490Y-62904652D01*
X111272062Y-63640135D01*
X111107568Y-63869670D01*
X110961894Y-64072405D01*
X110843807Y-64236183D01*
X110762074Y-64348847D01*
X110725462Y-64398239D01*
X110724744Y-64399094D01*
X110689103Y-64388118D01*
X110615379Y-64313578D01*
X110500879Y-64172044D01*
X110342907Y-63960084D01*
X110138771Y-63674268D01*
X110001270Y-63477775D01*
X109564261Y-62849741D01*
X106981243Y-62852450D01*
X106477606Y-62853675D01*
X105986527Y-62856192D01*
X105518971Y-62859855D01*
X105085902Y-62864522D01*
X104698286Y-62870047D01*
X104367087Y-62876287D01*
X104103269Y-62883096D01*
X103917798Y-62890331D01*
X103866053Y-62893451D01*
X103622485Y-62913419D01*
X103443412Y-62937012D01*
X103299497Y-62971409D01*
X103161403Y-63023790D01*
X102999792Y-63101335D01*
X102984044Y-63109310D01*
X102623650Y-63341741D01*
X102305218Y-63644953D01*
X102048629Y-63998459D01*
X101961038Y-64163405D01*
X101900149Y-64297127D01*
X101859196Y-64409874D01*
X101834243Y-64525885D01*
X101821352Y-64669397D01*
X101816584Y-64864651D01*
X101815971Y-65056395D01*
X101818125Y-65315557D01*
X101826668Y-65504699D01*
X101844718Y-65647643D01*
X101875394Y-65768212D01*
X101921815Y-65890229D01*
X101926615Y-65901497D01*
X102145822Y-66297547D01*
X102435827Y-66634924D01*
X102788995Y-66906587D01*
X103197692Y-67105492D01*
X103253116Y-67125166D01*
X103364679Y-67159565D01*
X103483257Y-67186678D01*
X103623746Y-67207990D01*
X103801044Y-67224985D01*
X104030046Y-67239148D01*
X104325651Y-67251963D01*
X104632976Y-67262663D01*
X104946058Y-67274220D01*
X105230752Y-67287284D01*
X105472589Y-67300987D01*
X105657101Y-67314457D01*
X105769819Y-67326823D01*
X105795396Y-67332588D01*
X105877661Y-67412068D01*
X105911722Y-67536911D01*
X105887162Y-67666515D01*
X105883119Y-67674454D01*
X105854790Y-67711173D01*
X105807176Y-67741520D01*
X105731951Y-67766087D01*
X105620789Y-67785469D01*
X105465361Y-67800256D01*
X105257343Y-67811043D01*
X104988406Y-67818423D01*
X104650225Y-67822988D01*
X104234472Y-67825332D01*
X103754481Y-67826043D01*
X102171734Y-67826451D01*
X102105516Y-67603438D01*
X102080073Y-67514579D01*
X102032394Y-67344905D01*
X101965176Y-67104128D01*
X101881118Y-66801963D01*
X101782918Y-66448121D01*
X101673274Y-66052318D01*
X101554885Y-65624265D01*
X101430448Y-65173676D01*
X101412871Y-65109977D01*
X100786445Y-62839528D01*
X99977993Y-62857159D01*
X99712286Y-62864181D01*
X99480662Y-62872634D01*
X99298829Y-62881755D01*
X99182499Y-62890783D01*
X99147099Y-62897478D01*
X99129243Y-62947019D01*
X99090272Y-63075212D01*
X99033624Y-63270076D01*
X98962736Y-63519631D01*
X98881046Y-63811894D01*
X98791992Y-64134886D01*
X98790353Y-64140868D01*
X98683498Y-64531374D01*
X98598819Y-64840220D01*
X98533354Y-65076219D01*
X98484142Y-65248186D01*
X98448221Y-65364933D01*
X98422629Y-65435273D01*
X98404403Y-65468020D01*
X98390583Y-65471987D01*
X98378206Y-65455987D01*
X98364310Y-65428833D01*
X98360107Y-65421078D01*
X98335888Y-65355344D01*
X98291024Y-65211759D01*
X98229253Y-65003152D01*
X98154314Y-64742352D01*
X98069945Y-64442186D01*
X97983869Y-64130069D01*
X97895259Y-63808060D01*
X97813869Y-63516562D01*
X97743161Y-63267628D01*
X97686594Y-63073311D01*
X97647630Y-62945666D01*
X97629797Y-62896809D01*
X97577460Y-62889169D01*
X97446781Y-62882561D01*
X97253315Y-62877416D01*
X97012619Y-62874166D01*
X96779983Y-62873216D01*
X95953671Y-62873216D01*
X95327399Y-65126820D01*
X95104546Y-65929990D01*
X94902334Y-66661348D01*
X94721308Y-67318878D01*
X94562012Y-67900565D01*
X94424993Y-68404393D01*
X94310795Y-68828347D01*
X94219964Y-69170410D01*
X94153046Y-69428566D01*
X94110585Y-69600802D01*
X94093126Y-69685100D01*
X94092680Y-69690930D01*
X92449427Y-69690930D01*
X92449427Y-66300573D01*
X92449427Y-61535138D01*
X104186950Y-61535138D01*
X115924473Y-61535138D01*
X115924473Y-66300573D01*
G37*
%TO.C,C8*%
X73467000Y-25777380D02*
X73467000Y-26407380D01*
X73782000Y-26092380D02*
X73152000Y-26092380D01*
X74858000Y-29277621D02*
X68398000Y-29277621D01*
X74858000Y-29317621D02*
X68398000Y-29317621D01*
X74858000Y-29357621D02*
X68398000Y-29357621D01*
X74856000Y-29397621D02*
X68400000Y-29397621D01*
X74855000Y-29437621D02*
X68401000Y-29437621D01*
X74852000Y-29477621D02*
X68404000Y-29477621D01*
X74850000Y-29517621D02*
X72668000Y-29517621D01*
X70588000Y-29517621D02*
X68406000Y-29517621D01*
X74846000Y-29557621D02*
X72668000Y-29557621D01*
X70588000Y-29557621D02*
X68410000Y-29557621D01*
X74843000Y-29597621D02*
X72668000Y-29597621D01*
X70588000Y-29597621D02*
X68413000Y-29597621D01*
X74839000Y-29637621D02*
X72668000Y-29637621D01*
X70588000Y-29637621D02*
X68417000Y-29637621D01*
X74834000Y-29677621D02*
X72668000Y-29677621D01*
X70588000Y-29677621D02*
X68422000Y-29677621D01*
X74829000Y-29717621D02*
X72668000Y-29717621D01*
X70588000Y-29717621D02*
X68427000Y-29717621D01*
X74823000Y-29757621D02*
X72668000Y-29757621D01*
X70588000Y-29757621D02*
X68433000Y-29757621D01*
X74817000Y-29797621D02*
X72668000Y-29797621D01*
X70588000Y-29797621D02*
X68439000Y-29797621D01*
X74810000Y-29837621D02*
X72668000Y-29837621D01*
X70588000Y-29837621D02*
X68446000Y-29837621D01*
X74803000Y-29877621D02*
X72668000Y-29877621D01*
X70588000Y-29877621D02*
X68453000Y-29877621D01*
X74795000Y-29917621D02*
X72668000Y-29917621D01*
X70588000Y-29917621D02*
X68461000Y-29917621D01*
X74787000Y-29957621D02*
X72668000Y-29957621D01*
X70588000Y-29957621D02*
X68469000Y-29957621D01*
X74778000Y-29998621D02*
X72668000Y-29998621D01*
X70588000Y-29998621D02*
X68478000Y-29998621D01*
X74769000Y-30038621D02*
X72668000Y-30038621D01*
X70588000Y-30038621D02*
X68487000Y-30038621D01*
X74759000Y-30078621D02*
X72668000Y-30078621D01*
X70588000Y-30078621D02*
X68497000Y-30078621D01*
X74749000Y-30118621D02*
X72668000Y-30118621D01*
X70588000Y-30118621D02*
X68507000Y-30118621D01*
X74738000Y-30158621D02*
X72668000Y-30158621D01*
X70588000Y-30158621D02*
X68518000Y-30158621D01*
X74726000Y-30198621D02*
X72668000Y-30198621D01*
X70588000Y-30198621D02*
X68530000Y-30198621D01*
X74714000Y-30238621D02*
X72668000Y-30238621D01*
X70588000Y-30238621D02*
X68542000Y-30238621D01*
X74702000Y-30278621D02*
X72668000Y-30278621D01*
X70588000Y-30278621D02*
X68554000Y-30278621D01*
X74689000Y-30318621D02*
X72668000Y-30318621D01*
X70588000Y-30318621D02*
X68567000Y-30318621D01*
X74675000Y-30358621D02*
X72668000Y-30358621D01*
X70588000Y-30358621D02*
X68581000Y-30358621D01*
X74661000Y-30398621D02*
X72668000Y-30398621D01*
X70588000Y-30398621D02*
X68595000Y-30398621D01*
X74646000Y-30438621D02*
X72668000Y-30438621D01*
X70588000Y-30438621D02*
X68610000Y-30438621D01*
X74630000Y-30478621D02*
X72668000Y-30478621D01*
X70588000Y-30478621D02*
X68626000Y-30478621D01*
X74614000Y-30518621D02*
X72668000Y-30518621D01*
X70588000Y-30518621D02*
X68642000Y-30518621D01*
X74598000Y-30558621D02*
X72668000Y-30558621D01*
X70588000Y-30558621D02*
X68658000Y-30558621D01*
X74580000Y-30598621D02*
X72668000Y-30598621D01*
X70588000Y-30598621D02*
X68676000Y-30598621D01*
X74562000Y-30638621D02*
X72668000Y-30638621D01*
X70588000Y-30638621D02*
X68694000Y-30638621D01*
X74544000Y-30678621D02*
X72668000Y-30678621D01*
X70588000Y-30678621D02*
X68712000Y-30678621D01*
X74524000Y-30718621D02*
X72668000Y-30718621D01*
X70588000Y-30718621D02*
X68732000Y-30718621D01*
X74504000Y-30758621D02*
X72668000Y-30758621D01*
X70588000Y-30758621D02*
X68752000Y-30758621D01*
X74484000Y-30798621D02*
X72668000Y-30798621D01*
X70588000Y-30798621D02*
X68772000Y-30798621D01*
X74462000Y-30838621D02*
X72668000Y-30838621D01*
X70588000Y-30838621D02*
X68794000Y-30838621D01*
X74440000Y-30878621D02*
X72668000Y-30878621D01*
X70588000Y-30878621D02*
X68816000Y-30878621D01*
X74418000Y-30918621D02*
X72668000Y-30918621D01*
X70588000Y-30918621D02*
X68838000Y-30918621D01*
X74394000Y-30958621D02*
X72668000Y-30958621D01*
X70588000Y-30958621D02*
X68862000Y-30958621D01*
X74370000Y-30998621D02*
X72668000Y-30998621D01*
X70588000Y-30998621D02*
X68886000Y-30998621D01*
X74344000Y-31038621D02*
X72668000Y-31038621D01*
X70588000Y-31038621D02*
X68912000Y-31038621D01*
X74318000Y-31078621D02*
X72668000Y-31078621D01*
X70588000Y-31078621D02*
X68938000Y-31078621D01*
X74292000Y-31118621D02*
X72668000Y-31118621D01*
X70588000Y-31118621D02*
X68964000Y-31118621D01*
X74264000Y-31158621D02*
X72668000Y-31158621D01*
X70588000Y-31158621D02*
X68992000Y-31158621D01*
X74235000Y-31198621D02*
X72668000Y-31198621D01*
X70588000Y-31198621D02*
X69021000Y-31198621D01*
X74206000Y-31238621D02*
X72668000Y-31238621D01*
X70588000Y-31238621D02*
X69050000Y-31238621D01*
X74176000Y-31278621D02*
X72668000Y-31278621D01*
X70588000Y-31278621D02*
X69080000Y-31278621D01*
X74144000Y-31318621D02*
X72668000Y-31318621D01*
X70588000Y-31318621D02*
X69112000Y-31318621D01*
X74112000Y-31358621D02*
X72668000Y-31358621D01*
X70588000Y-31358621D02*
X69144000Y-31358621D01*
X74078000Y-31398621D02*
X72668000Y-31398621D01*
X70588000Y-31398621D02*
X69178000Y-31398621D01*
X74044000Y-31438621D02*
X72668000Y-31438621D01*
X70588000Y-31438621D02*
X69212000Y-31438621D01*
X74008000Y-31478621D02*
X72668000Y-31478621D01*
X70588000Y-31478621D02*
X69248000Y-31478621D01*
X73971000Y-31518621D02*
X72668000Y-31518621D01*
X70588000Y-31518621D02*
X69285000Y-31518621D01*
X73933000Y-31558621D02*
X72668000Y-31558621D01*
X70588000Y-31558621D02*
X69323000Y-31558621D01*
X73893000Y-31598621D02*
X69363000Y-31598621D01*
X73852000Y-31638621D02*
X69404000Y-31638621D01*
X73810000Y-31678621D02*
X69446000Y-31678621D01*
X73765000Y-31718621D02*
X69491000Y-31718621D01*
X73720000Y-31758621D02*
X69536000Y-31758621D01*
X73672000Y-31798621D02*
X69584000Y-31798621D01*
X73623000Y-31838621D02*
X69633000Y-31838621D01*
X73572000Y-31878621D02*
X69684000Y-31878621D01*
X73518000Y-31918621D02*
X69738000Y-31918621D01*
X73462000Y-31958621D02*
X69794000Y-31958621D01*
X73404000Y-31998621D02*
X69852000Y-31998621D01*
X73342000Y-32038621D02*
X69914000Y-32038621D01*
X73278000Y-32078621D02*
X69978000Y-32078621D01*
X73209000Y-32118621D02*
X70047000Y-32118621D01*
X73137000Y-32158621D02*
X70119000Y-32158621D01*
X73060000Y-32198621D02*
X70196000Y-32198621D01*
X72978000Y-32238621D02*
X70278000Y-32238621D01*
X72890000Y-32278621D02*
X70366000Y-32278621D01*
X72793000Y-32318621D02*
X70463000Y-32318621D01*
X72687000Y-32358621D02*
X70569000Y-32358621D01*
X72568000Y-32398621D02*
X70688000Y-32398621D01*
X72430000Y-32438621D02*
X70826000Y-32438621D01*
X72261000Y-32478621D02*
X70995000Y-32478621D01*
X72030000Y-32518621D02*
X71226000Y-32518621D01*
X74898000Y-29277621D02*
G75*
G03*
X74898000Y-29277621I-3270000J0D01*
G01*
%TO.C,R6*%
X67473441Y-35963077D02*
X74013441Y-35963077D01*
X67473441Y-36293077D02*
X67473441Y-35963077D01*
X67473441Y-38373077D02*
X67473441Y-38703077D01*
X67473441Y-38703077D02*
X74013441Y-38703077D01*
X74013441Y-35963077D02*
X74013441Y-36293077D01*
X74013441Y-38703077D02*
X74013441Y-38373077D01*
%TO.C,C6*%
X60802000Y-31129000D02*
X60802000Y-29871000D01*
X62642000Y-31129000D02*
X62642000Y-29871000D01*
%TO.C,U2*%
X63050328Y-46725400D02*
X88570328Y-46725400D01*
X88570328Y-46725400D02*
X88570328Y-41425400D01*
X63050328Y-45075400D02*
X63050328Y-46725400D01*
X63050328Y-41425400D02*
X63050328Y-43075400D01*
X88570328Y-41425400D02*
X63050328Y-41425400D01*
X63050328Y-45075400D02*
G75*
G03*
X63050328Y-43075400I0J1000000D01*
G01*
%TO.C,R1*%
X63940620Y-38703077D02*
X57400620Y-38703077D01*
X63940620Y-38373077D02*
X63940620Y-38703077D01*
X63940620Y-36293077D02*
X63940620Y-35963077D01*
X63940620Y-35963077D02*
X57400620Y-35963077D01*
X57400620Y-38703077D02*
X57400620Y-38373077D01*
X57400620Y-35963077D02*
X57400620Y-36293077D01*
%TO.C,C4*%
X119476000Y-56255000D02*
X119476000Y-54997000D01*
X121316000Y-56255000D02*
X121316000Y-54997000D01*
%TO.C,J2*%
X148530000Y-23577000D02*
X149860000Y-23577000D01*
X148530000Y-24907000D02*
X148530000Y-23577000D01*
X148530000Y-26177000D02*
X148530000Y-31317000D01*
X148530000Y-26177000D02*
X151190000Y-26177000D01*
X148530000Y-31317000D02*
X151190000Y-31317000D01*
X151190000Y-26177000D02*
X151190000Y-31317000D01*
%TO.C,J1*%
X140656000Y-23557000D02*
X141986000Y-23557000D01*
X140656000Y-24887000D02*
X140656000Y-23557000D01*
X140656000Y-26157000D02*
X140656000Y-31297000D01*
X140656000Y-26157000D02*
X143256000Y-26157000D01*
X140656000Y-31297000D02*
X145856000Y-31297000D01*
X143256000Y-23557000D02*
X145856000Y-23557000D01*
X143256000Y-26157000D02*
X143256000Y-23557000D01*
X145856000Y-23557000D02*
X145856000Y-31297000D01*
%TO.C,R9*%
X151230000Y-44990000D02*
X151230000Y-51530000D01*
X150900000Y-44990000D02*
X151230000Y-44990000D01*
X148820000Y-44990000D02*
X148490000Y-44990000D01*
X148490000Y-44990000D02*
X148490000Y-51530000D01*
X151230000Y-51530000D02*
X150900000Y-51530000D01*
X148490000Y-51530000D02*
X148820000Y-51530000D01*
%TO.C,RN3*%
X105987000Y-35684000D02*
X105987000Y-38484000D01*
X105987000Y-38484000D02*
X129187000Y-38484000D01*
X108697000Y-35684000D02*
X108697000Y-38484000D01*
X129187000Y-35684000D02*
X105987000Y-35684000D01*
X129187000Y-38484000D02*
X129187000Y-35684000D01*
%TO.C,R10*%
X138970000Y-37238000D02*
X145510000Y-37238000D01*
X138970000Y-37568000D02*
X138970000Y-37238000D01*
X138970000Y-39648000D02*
X138970000Y-39978000D01*
X138970000Y-39978000D02*
X145510000Y-39978000D01*
X145510000Y-37238000D02*
X145510000Y-37568000D01*
X145510000Y-39978000D02*
X145510000Y-39648000D01*
%TO.C,U4*%
X121978514Y-58328874D02*
X147498514Y-58328874D01*
X147498514Y-58328874D02*
X147498514Y-53028874D01*
X121978514Y-56678874D02*
X121978514Y-58328874D01*
X121978514Y-53028874D02*
X121978514Y-54678874D01*
X147498514Y-53028874D02*
X121978514Y-53028874D01*
X121978514Y-56678874D02*
G75*
G03*
X121978514Y-54678874I0J1000000D01*
G01*
%TD*%
M02*
