%TF.GenerationSoftware,KiCad,Pcbnew,7.0.7*%
%TF.CreationDate,2023-11-09T10:03:36+00:00*%
%TF.ProjectId,MSX_FPGA_Hat,4d53585f-4650-4474-915f-4861742e6b69,1.5*%
%TF.SameCoordinates,Original*%
%TF.FileFunction,Copper,L1,Top*%
%TF.FilePolarity,Positive*%
%FSLAX46Y46*%
G04 Gerber Fmt 4.6, Leading zero omitted, Abs format (unit mm)*
G04 Created by KiCad (PCBNEW 7.0.7) date 2023-11-09 10:03:36*
%MOMM*%
%LPD*%
G01*
G04 APERTURE LIST*
%ADD10C,0.200000*%
%TA.AperFunction,NonConductor*%
%ADD11C,0.200000*%
%TD*%
%TA.AperFunction,ComponentPad*%
%ADD12C,1.600000*%
%TD*%
%TA.AperFunction,ComponentPad*%
%ADD13R,1.600000X1.600000*%
%TD*%
%TA.AperFunction,ComponentPad*%
%ADD14O,1.600000X1.600000*%
%TD*%
%TA.AperFunction,ComponentPad*%
%ADD15R,1.700000X1.700000*%
%TD*%
%TA.AperFunction,ComponentPad*%
%ADD16O,1.700000X1.700000*%
%TD*%
%TA.AperFunction,ConnectorPad*%
%ADD17R,1.500000X8.000000*%
%TD*%
%TA.AperFunction,ConnectorPad*%
%ADD18R,1.500000X7.000000*%
%TD*%
%TA.AperFunction,SMDPad,CuDef*%
%ADD19R,1.500000X2.000000*%
%TD*%
%TA.AperFunction,SMDPad,CuDef*%
%ADD20R,3.800000X2.000000*%
%TD*%
%TA.AperFunction,ViaPad*%
%ADD21C,0.800000*%
%TD*%
%TA.AperFunction,Conductor*%
%ADD22C,0.250000*%
%TD*%
%TA.AperFunction,Conductor*%
%ADD23C,0.500000*%
%TD*%
%TA.AperFunction,Conductor*%
%ADD24C,0.400000*%
%TD*%
G04 APERTURE END LIST*
D10*
D11*
X65320381Y-75392637D02*
X64987048Y-74916446D01*
X64748953Y-75392637D02*
X64748953Y-74392637D01*
X64748953Y-74392637D02*
X65129905Y-74392637D01*
X65129905Y-74392637D02*
X65225143Y-74440256D01*
X65225143Y-74440256D02*
X65272762Y-74487875D01*
X65272762Y-74487875D02*
X65320381Y-74583113D01*
X65320381Y-74583113D02*
X65320381Y-74725970D01*
X65320381Y-74725970D02*
X65272762Y-74821208D01*
X65272762Y-74821208D02*
X65225143Y-74868827D01*
X65225143Y-74868827D02*
X65129905Y-74916446D01*
X65129905Y-74916446D02*
X64748953Y-74916446D01*
X66320381Y-75297398D02*
X66272762Y-75345018D01*
X66272762Y-75345018D02*
X66129905Y-75392637D01*
X66129905Y-75392637D02*
X66034667Y-75392637D01*
X66034667Y-75392637D02*
X65891810Y-75345018D01*
X65891810Y-75345018D02*
X65796572Y-75249779D01*
X65796572Y-75249779D02*
X65748953Y-75154541D01*
X65748953Y-75154541D02*
X65701334Y-74964065D01*
X65701334Y-74964065D02*
X65701334Y-74821208D01*
X65701334Y-74821208D02*
X65748953Y-74630732D01*
X65748953Y-74630732D02*
X65796572Y-74535494D01*
X65796572Y-74535494D02*
X65891810Y-74440256D01*
X65891810Y-74440256D02*
X66034667Y-74392637D01*
X66034667Y-74392637D02*
X66129905Y-74392637D01*
X66129905Y-74392637D02*
X66272762Y-74440256D01*
X66272762Y-74440256D02*
X66320381Y-74487875D01*
X67320381Y-75297398D02*
X67272762Y-75345018D01*
X67272762Y-75345018D02*
X67129905Y-75392637D01*
X67129905Y-75392637D02*
X67034667Y-75392637D01*
X67034667Y-75392637D02*
X66891810Y-75345018D01*
X66891810Y-75345018D02*
X66796572Y-75249779D01*
X66796572Y-75249779D02*
X66748953Y-75154541D01*
X66748953Y-75154541D02*
X66701334Y-74964065D01*
X66701334Y-74964065D02*
X66701334Y-74821208D01*
X66701334Y-74821208D02*
X66748953Y-74630732D01*
X66748953Y-74630732D02*
X66796572Y-74535494D01*
X66796572Y-74535494D02*
X66891810Y-74440256D01*
X66891810Y-74440256D02*
X67034667Y-74392637D01*
X67034667Y-74392637D02*
X67129905Y-74392637D01*
X67129905Y-74392637D02*
X67272762Y-74440256D01*
X67272762Y-74440256D02*
X67320381Y-74487875D01*
X69129905Y-74916446D02*
X69082286Y-74868827D01*
X69082286Y-74868827D02*
X68987048Y-74821208D01*
X68987048Y-74821208D02*
X68891810Y-74821208D01*
X68891810Y-74821208D02*
X68796572Y-74868827D01*
X68796572Y-74868827D02*
X68748953Y-74916446D01*
X68748953Y-74916446D02*
X68701334Y-75011684D01*
X68701334Y-75011684D02*
X68701334Y-75106922D01*
X68701334Y-75106922D02*
X68748953Y-75202160D01*
X68748953Y-75202160D02*
X68796572Y-75249779D01*
X68796572Y-75249779D02*
X68891810Y-75297398D01*
X68891810Y-75297398D02*
X68987048Y-75297398D01*
X68987048Y-75297398D02*
X69082286Y-75249779D01*
X69082286Y-75249779D02*
X69129905Y-75202160D01*
X69129905Y-74821208D02*
X69129905Y-75202160D01*
X69129905Y-75202160D02*
X69177524Y-75249779D01*
X69177524Y-75249779D02*
X69225143Y-75249779D01*
X69225143Y-75249779D02*
X69320382Y-75202160D01*
X69320382Y-75202160D02*
X69368001Y-75106922D01*
X69368001Y-75106922D02*
X69368001Y-74868827D01*
X69368001Y-74868827D02*
X69272763Y-74725970D01*
X69272763Y-74725970D02*
X69129905Y-74630732D01*
X69129905Y-74630732D02*
X68939429Y-74583113D01*
X68939429Y-74583113D02*
X68748953Y-74630732D01*
X68748953Y-74630732D02*
X68606096Y-74725970D01*
X68606096Y-74725970D02*
X68510858Y-74868827D01*
X68510858Y-74868827D02*
X68463239Y-75059303D01*
X68463239Y-75059303D02*
X68510858Y-75249779D01*
X68510858Y-75249779D02*
X68606096Y-75392637D01*
X68606096Y-75392637D02*
X68748953Y-75487875D01*
X68748953Y-75487875D02*
X68939429Y-75535494D01*
X68939429Y-75535494D02*
X69129905Y-75487875D01*
X69129905Y-75487875D02*
X69272763Y-75392637D01*
X70510858Y-74487875D02*
X70558477Y-74440256D01*
X70558477Y-74440256D02*
X70653715Y-74392637D01*
X70653715Y-74392637D02*
X70891810Y-74392637D01*
X70891810Y-74392637D02*
X70987048Y-74440256D01*
X70987048Y-74440256D02*
X71034667Y-74487875D01*
X71034667Y-74487875D02*
X71082286Y-74583113D01*
X71082286Y-74583113D02*
X71082286Y-74678351D01*
X71082286Y-74678351D02*
X71034667Y-74821208D01*
X71034667Y-74821208D02*
X70463239Y-75392637D01*
X70463239Y-75392637D02*
X71082286Y-75392637D01*
X71701334Y-74392637D02*
X71796572Y-74392637D01*
X71796572Y-74392637D02*
X71891810Y-74440256D01*
X71891810Y-74440256D02*
X71939429Y-74487875D01*
X71939429Y-74487875D02*
X71987048Y-74583113D01*
X71987048Y-74583113D02*
X72034667Y-74773589D01*
X72034667Y-74773589D02*
X72034667Y-75011684D01*
X72034667Y-75011684D02*
X71987048Y-75202160D01*
X71987048Y-75202160D02*
X71939429Y-75297398D01*
X71939429Y-75297398D02*
X71891810Y-75345018D01*
X71891810Y-75345018D02*
X71796572Y-75392637D01*
X71796572Y-75392637D02*
X71701334Y-75392637D01*
X71701334Y-75392637D02*
X71606096Y-75345018D01*
X71606096Y-75345018D02*
X71558477Y-75297398D01*
X71558477Y-75297398D02*
X71510858Y-75202160D01*
X71510858Y-75202160D02*
X71463239Y-75011684D01*
X71463239Y-75011684D02*
X71463239Y-74773589D01*
X71463239Y-74773589D02*
X71510858Y-74583113D01*
X71510858Y-74583113D02*
X71558477Y-74487875D01*
X71558477Y-74487875D02*
X71606096Y-74440256D01*
X71606096Y-74440256D02*
X71701334Y-74392637D01*
X72415620Y-74487875D02*
X72463239Y-74440256D01*
X72463239Y-74440256D02*
X72558477Y-74392637D01*
X72558477Y-74392637D02*
X72796572Y-74392637D01*
X72796572Y-74392637D02*
X72891810Y-74440256D01*
X72891810Y-74440256D02*
X72939429Y-74487875D01*
X72939429Y-74487875D02*
X72987048Y-74583113D01*
X72987048Y-74583113D02*
X72987048Y-74678351D01*
X72987048Y-74678351D02*
X72939429Y-74821208D01*
X72939429Y-74821208D02*
X72368001Y-75392637D01*
X72368001Y-75392637D02*
X72987048Y-75392637D01*
X73320382Y-74392637D02*
X73939429Y-74392637D01*
X73939429Y-74392637D02*
X73606096Y-74773589D01*
X73606096Y-74773589D02*
X73748953Y-74773589D01*
X73748953Y-74773589D02*
X73844191Y-74821208D01*
X73844191Y-74821208D02*
X73891810Y-74868827D01*
X73891810Y-74868827D02*
X73939429Y-74964065D01*
X73939429Y-74964065D02*
X73939429Y-75202160D01*
X73939429Y-75202160D02*
X73891810Y-75297398D01*
X73891810Y-75297398D02*
X73844191Y-75345018D01*
X73844191Y-75345018D02*
X73748953Y-75392637D01*
X73748953Y-75392637D02*
X73463239Y-75392637D01*
X73463239Y-75392637D02*
X73368001Y-75345018D01*
X73368001Y-75345018D02*
X73320382Y-75297398D01*
D12*
%TO.P,C1,1*%
%TO.N,GNDREF*%
X61505859Y-45328812D03*
%TO.P,C1,2*%
%TO.N,Vdd*%
X61505859Y-47828812D03*
%TD*%
%TO.P,C7,1*%
%TO.N,MSX_3.3V*%
X61722000Y-26904000D03*
%TO.P,C7,2*%
%TO.N,GNDREF*%
X61722000Y-24404000D03*
%TD*%
D13*
%TO.P,U3,1,DIR*%
%TO.N,Net-(U3-DIR)*%
X91699000Y-59172000D03*
D14*
%TO.P,U3,2,A1*%
%TO.N,A8*%
X94239000Y-59172000D03*
%TO.P,U3,3,A2*%
%TO.N,A12*%
X96779000Y-59172000D03*
%TO.P,U3,4,A3*%
%TO.N,A7*%
X99319000Y-59172000D03*
%TO.P,U3,5,A4*%
%TO.N,A6*%
X101859000Y-59172000D03*
%TO.P,U3,6,A5*%
%TO.N,A10*%
X104399000Y-59172000D03*
%TO.P,U3,7,A6*%
%TO.N,A11*%
X106939000Y-59172000D03*
%TO.P,U3,8,A7*%
%TO.N,A15*%
X109479000Y-59172000D03*
%TO.P,U3,9,A8*%
%TO.N,A9*%
X112019000Y-59172000D03*
%TO.P,U3,10,GND*%
%TO.N,GNDREF*%
X114559000Y-59172000D03*
%TO.P,U3,11,B8*%
%TO.N,C_A9*%
X114559000Y-51552000D03*
%TO.P,U3,12,B7*%
%TO.N,C_A15*%
X112019000Y-51552000D03*
%TO.P,U3,13,B6*%
%TO.N,C_A11*%
X109479000Y-51552000D03*
%TO.P,U3,14,B5*%
%TO.N,C_A10*%
X106939000Y-51552000D03*
%TO.P,U3,15,B4*%
%TO.N,C_A6*%
X104399000Y-51552000D03*
%TO.P,U3,16,B3*%
%TO.N,C_A7*%
X101859000Y-51552000D03*
%TO.P,U3,17,B2*%
%TO.N,C_A12*%
X99319000Y-51552000D03*
%TO.P,U3,18,B1*%
%TO.N,C_A8*%
X96779000Y-51552000D03*
%TO.P,U3,19,/OE*%
%TO.N,GNDREF*%
X94239000Y-51552000D03*
%TO.P,U3,20,Vcc*%
%TO.N,Vdd*%
X91699000Y-51552000D03*
%TD*%
D15*
%TO.P,J5,1,Pin_1*%
%TO.N,DE_3.3V*%
X65786000Y-25400000D03*
D16*
%TO.P,J5,2,Pin_2*%
%TO.N,Vdd*%
X65786000Y-27940000D03*
%TO.P,J5,3,Pin_3*%
%TO.N,MSX_3.3V*%
X65786000Y-30480000D03*
%TD*%
D12*
%TO.P,R7,1*%
%TO.N,+5V*%
X146558000Y-62230000D03*
D14*
%TO.P,R7,2*%
%TO.N,{slash}INT*%
X138938000Y-62230000D03*
%TD*%
D12*
%TO.P,C2,1*%
%TO.N,GNDREF*%
X61562447Y-42735930D03*
%TO.P,C2,2*%
%TO.N,Vdd*%
X61562447Y-40235930D03*
%TD*%
D13*
%TO.P,C9,1*%
%TO.N,{slash}RESET*%
X133945621Y-30734000D03*
D12*
%TO.P,C9,2*%
%TO.N,GNDREF*%
X136445621Y-30734000D03*
%TD*%
D15*
%TO.P,SW1,1,1*%
%TO.N,{slash}RESET*%
X133878000Y-24613000D03*
D16*
%TO.P,SW1,2,2*%
%TO.N,GNDREF*%
X136418000Y-24613000D03*
%TD*%
D15*
%TO.P,IDC1,1,Pin_1*%
%TO.N,C_CLK_OR_RST*%
X127632000Y-25706000D03*
D16*
%TO.P,IDC1,2,Pin_2*%
%TO.N,{slash}C_M1*%
X127632000Y-28246000D03*
%TO.P,IDC1,3,Pin_3*%
%TO.N,{slash}C_CS_SLT*%
X125092000Y-25706000D03*
%TO.P,IDC1,4,Pin_4*%
%TO.N,{slash}C_SLTSL*%
X125092000Y-28246000D03*
%TO.P,IDC1,5,Pin_5*%
%TO.N,{slash}C_BUSDIR*%
X122552000Y-25706000D03*
%TO.P,IDC1,6,Pin_6*%
%TO.N,{slash}C_MREQ*%
X122552000Y-28246000D03*
%TO.P,IDC1,7,Pin_7*%
%TO.N,{slash}C_U1_D_OE*%
X120012000Y-25706000D03*
%TO.P,IDC1,8,Pin_8*%
%TO.N,{slash}C_RD*%
X120012000Y-28246000D03*
%TO.P,IDC1,9,Pin_9*%
%TO.N,{slash}C_IORQ*%
X117472000Y-25706000D03*
%TO.P,IDC1,10,Pin_10*%
%TO.N,C_A15*%
X117472000Y-28246000D03*
%TO.P,IDC1,11,Pin_11*%
%TO.N,DE_5V*%
X114932000Y-25706000D03*
%TO.P,IDC1,12,Pin_12*%
%TO.N,GNDREF*%
X114932000Y-28246000D03*
%TO.P,IDC1,13,Pin_13*%
%TO.N,{slash}C_WR*%
X112392000Y-25706000D03*
%TO.P,IDC1,14,Pin_14*%
%TO.N,C_A8*%
X112392000Y-28246000D03*
%TO.P,IDC1,15,Pin_15*%
%TO.N,C_A9*%
X109852000Y-25706000D03*
%TO.P,IDC1,16,Pin_16*%
%TO.N,C_A6*%
X109852000Y-28246000D03*
%TO.P,IDC1,17,Pin_17*%
%TO.N,C_A11*%
X107312000Y-25706000D03*
%TO.P,IDC1,18,Pin_18*%
%TO.N,C_A10*%
X107312000Y-28246000D03*
%TO.P,IDC1,19,Pin_19*%
%TO.N,{slash}C_WAIT*%
X104772000Y-25706000D03*
%TO.P,IDC1,20,Pin_20*%
%TO.N,C_A7*%
X104772000Y-28246000D03*
%TO.P,IDC1,21,Pin_21*%
%TO.N,{slash}C_INT*%
X102232000Y-25706000D03*
%TO.P,IDC1,22,Pin_22*%
%TO.N,C_A12*%
X102232000Y-28246000D03*
%TO.P,IDC1,23,Pin_23*%
%TO.N,C_A13*%
X99692000Y-25706000D03*
%TO.P,IDC1,24,Pin_24*%
%TO.N,C_D0*%
X99692000Y-28246000D03*
%TO.P,IDC1,25,Pin_25*%
%TO.N,C_A14*%
X97152000Y-25706000D03*
%TO.P,IDC1,26,Pin_26*%
%TO.N,C_D1*%
X97152000Y-28246000D03*
%TO.P,IDC1,27,Pin_27*%
%TO.N,C_A0*%
X94612000Y-25706000D03*
%TO.P,IDC1,28,Pin_28*%
%TO.N,C_D2*%
X94612000Y-28246000D03*
%TO.P,IDC1,29,Pin_29*%
%TO.N,DE_3.3V*%
X92072000Y-25706000D03*
%TO.P,IDC1,30,Pin_30*%
%TO.N,GNDREF*%
X92072000Y-28246000D03*
%TO.P,IDC1,31,Pin_31*%
%TO.N,C_A1*%
X89532000Y-25706000D03*
%TO.P,IDC1,32,Pin_32*%
%TO.N,C_D3*%
X89532000Y-28246000D03*
%TO.P,IDC1,33,Pin_33*%
%TO.N,C_A2*%
X86992000Y-25706000D03*
%TO.P,IDC1,34,Pin_34*%
%TO.N,C_D4*%
X86992000Y-28246000D03*
%TO.P,IDC1,35,Pin_35*%
%TO.N,C_A3*%
X84452000Y-25706000D03*
%TO.P,IDC1,36,Pin_36*%
%TO.N,C_D5*%
X84452000Y-28246000D03*
%TO.P,IDC1,37,Pin_37*%
%TO.N,C_A4*%
X81912000Y-25706000D03*
%TO.P,IDC1,38,Pin_38*%
%TO.N,C_D6*%
X81912000Y-28246000D03*
%TO.P,IDC1,39,Pin_39*%
%TO.N,C_A5*%
X79372000Y-25706000D03*
%TO.P,IDC1,40,Pin_40*%
%TO.N,C_D7*%
X79372000Y-28246000D03*
%TD*%
D12*
%TO.P,C5,1*%
%TO.N,GNDREF*%
X120396000Y-46188000D03*
%TO.P,C5,2*%
%TO.N,Vdd*%
X120396000Y-43688000D03*
%TD*%
%TO.P,R4,1*%
%TO.N,Vdd*%
X99060000Y-45466000D03*
D14*
%TO.P,R4,2*%
%TO.N,Net-(U3-DIR)*%
X91440000Y-45466000D03*
%TD*%
D17*
%TO.P,CONN1,2,/CS2*%
%TO.N,{slash}CS2*%
X138382025Y-81007202D03*
%TO.P,CONN1,4,/SLTSL*%
%TO.N,{slash}SLTSL*%
X135842025Y-81007202D03*
%TO.P,CONN1,6,/RFSH*%
%TO.N,{slash}RFSH*%
X133302025Y-81007202D03*
%TO.P,CONN1,8,/INT*%
%TO.N,{slash}INT*%
X130762025Y-81007202D03*
%TO.P,CONN1,10,/BUSDIR*%
%TO.N,{slash}BUSDIR*%
X128222025Y-81007202D03*
%TO.P,CONN1,12,/MERQ*%
%TO.N,{slash}MREQ*%
X125682025Y-81007202D03*
%TO.P,CONN1,14,/RD*%
%TO.N,{slash}RD*%
X123142025Y-81007202D03*
%TO.P,CONN1,16,RSV_(NC)*%
%TO.N,unconnected-(CONN1-RSV_(NC)-Pad16)*%
X120602025Y-81007202D03*
%TO.P,CONN1,18,A15*%
%TO.N,A15*%
X118062025Y-81007202D03*
%TO.P,CONN1,20,A10*%
%TO.N,A10*%
X115522025Y-81007202D03*
%TO.P,CONN1,22,A6*%
%TO.N,A6*%
X112982025Y-81007202D03*
%TO.P,CONN1,24,A8*%
%TO.N,A8*%
X110442025Y-81007202D03*
%TO.P,CONN1,26,A13*%
%TO.N,A13*%
X107902025Y-81007202D03*
%TO.P,CONN1,28,A0*%
%TO.N,A0*%
X105362025Y-81007202D03*
%TO.P,CONN1,30,A2*%
%TO.N,A2*%
X102822025Y-81007202D03*
%TO.P,CONN1,32,A4*%
%TO.N,A4*%
X100282025Y-81007202D03*
%TO.P,CONN1,34,D0*%
%TO.N,D0*%
X97742025Y-81007202D03*
%TO.P,CONN1,36,D2*%
%TO.N,D2*%
X95202025Y-81007202D03*
%TO.P,CONN1,38,D4*%
%TO.N,D4*%
X92662025Y-81007202D03*
%TO.P,CONN1,40,D6*%
%TO.N,D6*%
X90122025Y-81007202D03*
%TO.P,CONN1,42,CLOCK*%
%TO.N,CLOCK*%
X87582025Y-81007202D03*
D18*
%TO.P,CONN1,44,SW1*%
%TO.N,SW1*%
X85036533Y-80499850D03*
D17*
%TO.P,CONN1,46,SW2*%
X82502025Y-81007202D03*
%TO.P,CONN1,48,+12V*%
%TO.N,+12V*%
X79962025Y-81007202D03*
%TO.P,CONN1,50,-12V*%
%TO.N,-12V*%
X77422025Y-81007202D03*
%TD*%
D12*
%TO.P,D1,1,K*%
%TO.N,{slash}INT*%
X149860000Y-62484000D03*
D14*
%TO.P,D1,2,A*%
%TO.N,Net-(D1-A)*%
X149860000Y-54864000D03*
%TD*%
D12*
%TO.P,R3,1*%
%TO.N,Vdd*%
X131052000Y-62280630D03*
D14*
%TO.P,R3,2*%
%TO.N,Net-(U4-DIR)*%
X123432000Y-62280630D03*
%TD*%
D13*
%TO.P,RN5,1,common*%
%TO.N,+5V*%
X75661725Y-61017219D03*
D14*
%TO.P,RN5,2,R1*%
%TO.N,D0*%
X73121725Y-61017219D03*
%TO.P,RN5,3,R2*%
%TO.N,D1*%
X70581725Y-61017219D03*
%TO.P,RN5,4,R3*%
%TO.N,D2*%
X68041725Y-61017219D03*
%TO.P,RN5,5,R4*%
%TO.N,D3*%
X65501725Y-61017219D03*
%TO.P,RN5,6,R5*%
%TO.N,D4*%
X62961725Y-61017219D03*
%TO.P,RN5,7,R6*%
%TO.N,D5*%
X60421725Y-61017219D03*
%TO.P,RN5,8,R7*%
%TO.N,D6*%
X57881725Y-61017219D03*
%TO.P,RN5,9,R8*%
%TO.N,D7*%
X55341725Y-61017219D03*
%TD*%
D13*
%TO.P,RN4,1,common*%
%TO.N,Vdd*%
X107427000Y-33528000D03*
D14*
%TO.P,RN4,2,R1*%
%TO.N,C_A10*%
X109967000Y-33528000D03*
%TO.P,RN4,3,R2*%
%TO.N,C_A11*%
X112507000Y-33528000D03*
%TO.P,RN4,4,R3*%
%TO.N,C_A9*%
X115047000Y-33528000D03*
%TO.P,RN4,5,R4*%
%TO.N,{slash}C_WR*%
X117587000Y-33528000D03*
%TO.P,RN4,6,R5*%
%TO.N,{slash}C_IORQ*%
X120127000Y-33528000D03*
%TO.P,RN4,7,R6*%
%TO.N,{slash}C_MREQ*%
X122667000Y-33528000D03*
%TO.P,RN4,8,R7*%
%TO.N,{slash}C_CS_SLT*%
X125207000Y-33528000D03*
%TO.P,RN4,9,R8*%
%TO.N,C_CLK_OR_RST*%
X127747000Y-33528000D03*
%TD*%
D13*
%TO.P,U5,1,DIR*%
%TO.N,Net-(U5-DIR)*%
X123360000Y-49226000D03*
D14*
%TO.P,U5,2,A1*%
%TO.N,{slash}CS12*%
X125900000Y-49226000D03*
%TO.P,U5,3,A2*%
%TO.N,{slash}RESET*%
X128440000Y-49226000D03*
%TO.P,U5,4,A3*%
%TO.N,{slash}RFSH*%
X130980000Y-49226000D03*
%TO.P,U5,5,A4*%
%TO.N,CLOCK*%
X133520000Y-49226000D03*
%TO.P,U5,6,A5*%
%TO.N,C_SOUNDIN*%
X136060000Y-49226000D03*
%TO.P,U5,7,A6*%
%TO.N,{slash}C_BUSDIR*%
X138600000Y-49226000D03*
%TO.P,U5,8,A7*%
%TO.N,{slash}C_INT*%
X141140000Y-49226000D03*
%TO.P,U5,9,A8*%
%TO.N,{slash}C_WAIT*%
X143680000Y-49226000D03*
%TO.P,U5,10,GND*%
%TO.N,GNDREF*%
X146220000Y-49226000D03*
%TO.P,U5,11,B8*%
%TO.N,Net-(D2-A)*%
X146220000Y-41606000D03*
%TO.P,U5,12,B7*%
%TO.N,Net-(D1-A)*%
X143680000Y-41606000D03*
%TO.P,U5,13,B6*%
%TO.N,{slash}BUSDIR*%
X141140000Y-41606000D03*
%TO.P,U5,14,B5*%
%TO.N,Net-(U5-B5)*%
X138600000Y-41606000D03*
%TO.P,U5,15,B4*%
%TO.N,C_CLOCK*%
X136060000Y-41606000D03*
%TO.P,U5,16,B3*%
%TO.N,{slash}C_RFSH*%
X133520000Y-41606000D03*
%TO.P,U5,17,B2*%
%TO.N,{slash}C_RESET*%
X130980000Y-41606000D03*
%TO.P,U5,18,B1*%
%TO.N,{slash}C_CS12*%
X128440000Y-41606000D03*
%TO.P,U5,19,/OE*%
%TO.N,GNDREF*%
X125900000Y-41606000D03*
%TO.P,U5,20,Vcc*%
%TO.N,Vdd*%
X123360000Y-41606000D03*
%TD*%
D13*
%TO.P,RN1,1,common*%
%TO.N,Vdd*%
X100076000Y-37084000D03*
D14*
%TO.P,RN1,2,R1*%
%TO.N,C_D0*%
X97536000Y-37084000D03*
%TO.P,RN1,3,R2*%
%TO.N,C_D1*%
X94996000Y-37084000D03*
%TO.P,RN1,4,R3*%
%TO.N,C_D2*%
X92456000Y-37084000D03*
%TO.P,RN1,5,R4*%
%TO.N,C_D3*%
X89916000Y-37084000D03*
%TO.P,RN1,6,R5*%
%TO.N,C_D4*%
X87376000Y-37084000D03*
%TO.P,RN1,7,R6*%
%TO.N,C_D5*%
X84836000Y-37084000D03*
%TO.P,RN1,8,R7*%
%TO.N,C_D6*%
X82296000Y-37084000D03*
%TO.P,RN1,9,R8*%
%TO.N,C_D7*%
X79756000Y-37084000D03*
%TD*%
D12*
%TO.P,R8,1*%
%TO.N,+5V*%
X146558000Y-65501812D03*
D14*
%TO.P,R8,2*%
%TO.N,{slash}WAIT*%
X138938000Y-65501812D03*
%TD*%
D12*
%TO.P,R5,1*%
%TO.N,Vdd*%
X107442000Y-45466000D03*
D14*
%TO.P,R5,2*%
%TO.N,Net-(U5-DIR)*%
X115062000Y-45466000D03*
%TD*%
D12*
%TO.P,C3,1*%
%TO.N,GNDREF*%
X88900000Y-56368000D03*
%TO.P,C3,2*%
%TO.N,Vdd*%
X88900000Y-53868000D03*
%TD*%
%TO.P,D2,1,K*%
%TO.N,{slash}WAIT*%
X149860000Y-41656000D03*
D14*
%TO.P,D2,2,A*%
%TO.N,Net-(D2-A)*%
X149860000Y-34036000D03*
%TD*%
D13*
%TO.P,RN2,1,common*%
%TO.N,Vdd*%
X100091000Y-33528000D03*
D14*
%TO.P,RN2,2,R1*%
%TO.N,C_A13*%
X97551000Y-33528000D03*
%TO.P,RN2,3,R2*%
%TO.N,C_A14*%
X95011000Y-33528000D03*
%TO.P,RN2,4,R3*%
%TO.N,C_A0*%
X92471000Y-33528000D03*
%TO.P,RN2,5,R4*%
%TO.N,C_A1*%
X89931000Y-33528000D03*
%TO.P,RN2,6,R5*%
%TO.N,C_A2*%
X87391000Y-33528000D03*
%TO.P,RN2,7,R6*%
%TO.N,C_A3*%
X84851000Y-33528000D03*
%TO.P,RN2,8,R7*%
%TO.N,C_A4*%
X82311000Y-33528000D03*
%TO.P,RN2,9,R8*%
%TO.N,C_A5*%
X79771000Y-33528000D03*
%TD*%
D12*
%TO.P,R2,1*%
%TO.N,Vdd*%
X57335866Y-40224562D03*
D14*
%TO.P,R2,2*%
%TO.N,{slash}RD*%
X57335866Y-47844562D03*
%TD*%
D19*
%TO.P,U6,1,GND*%
%TO.N,GNDREF*%
X54342000Y-30836000D03*
%TO.P,U6,2,VO*%
%TO.N,MSX_3.3V*%
X56642000Y-30836000D03*
D20*
X56642000Y-24536000D03*
D19*
%TO.P,U6,3,VI*%
%TO.N,+5V*%
X58942000Y-30836000D03*
%TD*%
D13*
%TO.P,U1,1,DIR*%
%TO.N,{slash}RD*%
X56748709Y-57897829D03*
D14*
%TO.P,U1,2,A1*%
%TO.N,D7*%
X59288709Y-57897829D03*
%TO.P,U1,3,A2*%
%TO.N,D6*%
X61828709Y-57897829D03*
%TO.P,U1,4,A3*%
%TO.N,D5*%
X64368709Y-57897829D03*
%TO.P,U1,5,A4*%
%TO.N,D4*%
X66908709Y-57897829D03*
%TO.P,U1,6,A5*%
%TO.N,D3*%
X69448709Y-57897829D03*
%TO.P,U1,7,A6*%
%TO.N,D2*%
X71988709Y-57897829D03*
%TO.P,U1,8,A7*%
%TO.N,D1*%
X74528709Y-57897829D03*
%TO.P,U1,9,A8*%
%TO.N,D0*%
X77068709Y-57897829D03*
%TO.P,U1,10,GND*%
%TO.N,GNDREF*%
X79608709Y-57897829D03*
%TO.P,U1,11,B8*%
%TO.N,C_D0*%
X79608709Y-50277829D03*
%TO.P,U1,12,B7*%
%TO.N,C_D1*%
X77068709Y-50277829D03*
%TO.P,U1,13,B6*%
%TO.N,C_D2*%
X74528709Y-50277829D03*
%TO.P,U1,14,B5*%
%TO.N,C_D3*%
X71988709Y-50277829D03*
%TO.P,U1,15,B4*%
%TO.N,C_D4*%
X69448709Y-50277829D03*
%TO.P,U1,16,B3*%
%TO.N,C_D5*%
X66908709Y-50277829D03*
%TO.P,U1,17,B2*%
%TO.N,C_D6*%
X64368709Y-50277829D03*
%TO.P,U1,18,B1*%
%TO.N,C_D7*%
X61828709Y-50277829D03*
%TO.P,U1,19,/OE*%
%TO.N,{slash}C_U1_D_OE*%
X59288709Y-50277829D03*
%TO.P,U1,20,Vcc*%
%TO.N,Vdd*%
X56748709Y-50277829D03*
%TD*%
D13*
%TO.P,C8,1*%
%TO.N,Vdd*%
X71628000Y-28027621D03*
D12*
%TO.P,C8,2*%
%TO.N,GNDREF*%
X71628000Y-30527621D03*
%TD*%
%TO.P,R6,1*%
%TO.N,Vdd*%
X66933441Y-37333077D03*
D14*
%TO.P,R6,2*%
%TO.N,{slash}C_U1_D_OE*%
X74553441Y-37333077D03*
%TD*%
D12*
%TO.P,C6,1*%
%TO.N,+5V*%
X61722000Y-31750000D03*
%TO.P,C6,2*%
%TO.N,GNDREF*%
X61722000Y-29250000D03*
%TD*%
D13*
%TO.P,U2,1,DIR*%
%TO.N,Net-(U2-DIR)*%
X64380328Y-47885400D03*
D14*
%TO.P,U2,2,A1*%
%TO.N,A5*%
X66920328Y-47885400D03*
%TO.P,U2,3,A2*%
%TO.N,A4*%
X69460328Y-47885400D03*
%TO.P,U2,4,A3*%
%TO.N,A3*%
X72000328Y-47885400D03*
%TO.P,U2,5,A4*%
%TO.N,A2*%
X74540328Y-47885400D03*
%TO.P,U2,6,A5*%
%TO.N,A1*%
X77080328Y-47885400D03*
%TO.P,U2,7,A6*%
%TO.N,A0*%
X79620328Y-47885400D03*
%TO.P,U2,8,A7*%
%TO.N,A14*%
X82160328Y-47885400D03*
%TO.P,U2,9,A8*%
%TO.N,A13*%
X84700328Y-47885400D03*
%TO.P,U2,10,GND*%
%TO.N,GNDREF*%
X87240328Y-47885400D03*
%TO.P,U2,11,B8*%
%TO.N,C_A13*%
X87240328Y-40265400D03*
%TO.P,U2,12,B7*%
%TO.N,C_A14*%
X84700328Y-40265400D03*
%TO.P,U2,13,B6*%
%TO.N,C_A0*%
X82160328Y-40265400D03*
%TO.P,U2,14,B5*%
%TO.N,C_A1*%
X79620328Y-40265400D03*
%TO.P,U2,15,B4*%
%TO.N,C_A2*%
X77080328Y-40265400D03*
%TO.P,U2,16,B3*%
%TO.N,C_A3*%
X74540328Y-40265400D03*
%TO.P,U2,17,B2*%
%TO.N,C_A4*%
X72000328Y-40265400D03*
%TO.P,U2,18,B1*%
%TO.N,C_A5*%
X69460328Y-40265400D03*
%TO.P,U2,19,/OE*%
%TO.N,GNDREF*%
X66920328Y-40265400D03*
%TO.P,U2,20,Vcc*%
%TO.N,Vdd*%
X64380328Y-40265400D03*
%TD*%
D12*
%TO.P,R1,1*%
%TO.N,Vdd*%
X64480620Y-37333077D03*
D14*
%TO.P,R1,2*%
%TO.N,Net-(U2-DIR)*%
X56860620Y-37333077D03*
%TD*%
D12*
%TO.P,C4,1*%
%TO.N,GNDREF*%
X120396000Y-56876000D03*
%TO.P,C4,2*%
%TO.N,Vdd*%
X120396000Y-54376000D03*
%TD*%
D15*
%TO.P,J2,1,Pin_1*%
%TO.N,C_CLOCK*%
X149860000Y-24907000D03*
D16*
%TO.P,J2,2,Pin_2*%
%TO.N,C_CLK_OR_RST*%
X149860000Y-27447000D03*
%TO.P,J2,3,Pin_3*%
%TO.N,{slash}C_RESET*%
X149860000Y-29987000D03*
%TD*%
D15*
%TO.P,J1,1,Pin_1*%
%TO.N,{slash}C_CS_SLT*%
X141986000Y-24887000D03*
D16*
%TO.P,J1,2,Pin_2*%
%TO.N,{slash}C_CS1*%
X144526000Y-24887000D03*
%TO.P,J1,3,Pin_3*%
%TO.N,{slash}C_CS2*%
X141986000Y-27427000D03*
%TO.P,J1,4,Pin_4*%
%TO.N,{slash}C_CS12*%
X144526000Y-27427000D03*
%TO.P,J1,5,Pin_5*%
%TO.N,{slash}C_RFSH*%
X141986000Y-29967000D03*
%TO.P,J1,6,Pin_6*%
%TO.N,C_SOUNDIN*%
X144526000Y-29967000D03*
%TD*%
D12*
%TO.P,R9,1*%
%TO.N,+5V*%
X149860000Y-44450000D03*
D14*
%TO.P,R9,2*%
%TO.N,{slash}BUSDIR*%
X149860000Y-52070000D03*
%TD*%
D13*
%TO.P,RN3,1,common*%
%TO.N,Vdd*%
X107427000Y-37084000D03*
D14*
%TO.P,RN3,2,R1*%
%TO.N,C_A12*%
X109967000Y-37084000D03*
%TO.P,RN3,3,R2*%
%TO.N,C_A7*%
X112507000Y-37084000D03*
%TO.P,RN3,4,R3*%
%TO.N,C_A6*%
X115047000Y-37084000D03*
%TO.P,RN3,5,R4*%
%TO.N,C_A8*%
X117587000Y-37084000D03*
%TO.P,RN3,6,R5*%
%TO.N,C_A15*%
X120127000Y-37084000D03*
%TO.P,RN3,7,R6*%
%TO.N,{slash}C_RD*%
X122667000Y-37084000D03*
%TO.P,RN3,8,R7*%
%TO.N,{slash}C_SLTSL*%
X125207000Y-37084000D03*
%TO.P,RN3,9,R8*%
%TO.N,{slash}C_M1*%
X127747000Y-37084000D03*
%TD*%
D12*
%TO.P,R10,1*%
%TO.N,SOUNDIN*%
X138430000Y-38608000D03*
D14*
%TO.P,R10,2*%
%TO.N,Net-(U5-B5)*%
X146050000Y-38608000D03*
%TD*%
D13*
%TO.P,U4,1,DIR*%
%TO.N,Net-(U4-DIR)*%
X123308514Y-59488874D03*
D14*
%TO.P,U4,2,A1*%
%TO.N,{slash}RD*%
X125848514Y-59488874D03*
%TO.P,U4,3,A2*%
%TO.N,{slash}WR*%
X128388514Y-59488874D03*
%TO.P,U4,4,A3*%
%TO.N,{slash}MREQ*%
X130928514Y-59488874D03*
%TO.P,U4,5,A4*%
%TO.N,{slash}IORQ*%
X133468514Y-59488874D03*
%TO.P,U4,6,A5*%
%TO.N,{slash}SLTSL*%
X136008514Y-59488874D03*
%TO.P,U4,7,A6*%
%TO.N,{slash}CS1*%
X138548514Y-59488874D03*
%TO.P,U4,8,A7*%
%TO.N,{slash}CS2*%
X141088514Y-59488874D03*
%TO.P,U4,9,A8*%
%TO.N,{slash}M1*%
X143628514Y-59488874D03*
%TO.P,U4,10,GND*%
%TO.N,GNDREF*%
X146168514Y-59488874D03*
%TO.P,U4,11,B8*%
%TO.N,{slash}C_M1*%
X146168514Y-51868874D03*
%TO.P,U4,12,B7*%
%TO.N,{slash}C_CS2*%
X143628514Y-51868874D03*
%TO.P,U4,13,B6*%
%TO.N,{slash}C_CS1*%
X141088514Y-51868874D03*
%TO.P,U4,14,B5*%
%TO.N,{slash}C_SLTSL*%
X138548514Y-51868874D03*
%TO.P,U4,15,B4*%
%TO.N,{slash}C_IORQ*%
X136008514Y-51868874D03*
%TO.P,U4,16,B3*%
%TO.N,{slash}C_MREQ*%
X133468514Y-51868874D03*
%TO.P,U4,17,B2*%
%TO.N,{slash}C_WR*%
X130928514Y-51868874D03*
%TO.P,U4,18,B1*%
%TO.N,{slash}C_RD*%
X128388514Y-51868874D03*
%TO.P,U4,19,/OE*%
%TO.N,GNDREF*%
X125848514Y-51868874D03*
%TO.P,U4,20,Vcc*%
%TO.N,Vdd*%
X123308514Y-51868874D03*
%TD*%
D21*
%TO.N,GNDREF*%
X118141464Y-59175145D03*
X76766359Y-65709623D03*
%TO.N,+5V*%
X88805606Y-66767238D03*
X101600000Y-67310000D03*
%TO.N,GNDREF*%
X88900000Y-45720000D03*
X129607196Y-44306515D03*
X134620000Y-39370000D03*
X69850000Y-72390000D03*
X132271631Y-46692352D03*
X72469846Y-35017044D03*
X55372000Y-28702000D03*
X133350000Y-44450000D03*
X84725247Y-75307173D03*
X68580000Y-29210000D03*
%TO.N,{slash}C_CS1*%
X142748000Y-47498000D03*
X148336000Y-44958000D03*
%TO.N,{slash}C_SLTSL*%
X139954000Y-38354000D03*
%TO.N,C_A15*%
X114554000Y-39878000D03*
%TO.N,{slash}C_IORQ*%
X134874000Y-57404000D03*
X135890000Y-55372000D03*
%TO.N,+5V*%
X80280512Y-73700765D03*
%TO.N,{slash}C_RESET*%
X136652000Y-33782000D03*
%TO.N,C_A8*%
X116332000Y-51816000D03*
%TO.N,C_CLOCK*%
X141478000Y-32004000D03*
%TO.N,C_A6*%
X112014000Y-39878000D03*
%TO.N,C_D2*%
X90162694Y-43187305D03*
%TO.N,{slash}C_CS2*%
X147574000Y-46228000D03*
%TO.N,{slash}C_WAIT*%
X142240000Y-53594000D03*
%TO.N,{slash}CS1*%
X138430000Y-74676000D03*
%TO.N,{slash}CS12*%
X137160000Y-74567025D03*
%TO.N,{slash}RFSH*%
X135128000Y-61976000D03*
X132080000Y-55880000D03*
%TO.N,{slash}WAIT*%
X150114000Y-64262000D03*
X131725000Y-73100000D03*
X134366000Y-65532000D03*
%TO.N,{slash}INT*%
X134366000Y-64262000D03*
%TO.N,{slash}M1*%
X129275000Y-72950000D03*
X134366000Y-62992000D03*
%TO.N,{slash}BUSDIR*%
X136144000Y-57404000D03*
%TO.N,{slash}IORQ*%
X126850000Y-73175000D03*
X129477000Y-62105630D03*
%TO.N,{slash}WR*%
X124425000Y-73075000D03*
%TO.N,{slash}RD*%
X77470000Y-55880000D03*
X124460000Y-65602379D03*
X87076699Y-55930300D03*
%TO.N,{slash}RESET*%
X120602025Y-73072975D03*
X123444000Y-53340000D03*
%TO.N,A9*%
X119050000Y-73050000D03*
%TO.N,A11*%
X116700000Y-73025000D03*
%TO.N,A7*%
X111875000Y-72400000D03*
%TO.N,A12*%
X110125000Y-72375000D03*
%TO.N,A13*%
X107887124Y-75407773D03*
%TO.N,A1*%
X77993882Y-51625682D03*
%TO.N,A0*%
X105082972Y-75759951D03*
%TO.N,A2*%
X102828819Y-74348947D03*
%TO.N,A4*%
X99732609Y-75093321D03*
%TO.N,D0*%
X97742025Y-75345052D03*
%TO.N,D2*%
X95231491Y-74948509D03*
%TO.N,D4*%
X92710000Y-74930000D03*
%TO.N,D6*%
X89968876Y-75433077D03*
%TO.N,CLOCK*%
X95916629Y-56986447D03*
X131373245Y-55155500D03*
%TO.N,{slash}C_WR*%
X118872000Y-47244000D03*
%TO.N,{slash}C_INT*%
X121158000Y-24130000D03*
X130556000Y-33020000D03*
%TO.N,{slash}C_BUSDIR*%
X128270000Y-39408479D03*
%TO.N,{slash}C_U1_D_OE*%
X74930000Y-24638000D03*
%TD*%
D22*
%TO.N,GNDREF*%
X118141464Y-59130536D02*
X120396000Y-56876000D01*
X118141464Y-59175145D02*
X118141464Y-59130536D01*
X118096855Y-59175145D02*
X118141464Y-59175145D01*
D23*
X76779329Y-65722593D02*
X76779329Y-68997500D01*
X76766359Y-65709623D02*
X76779329Y-65722593D01*
X76779329Y-65696653D02*
X76766359Y-65709623D01*
D22*
%TO.N,{slash}WAIT*%
X133350000Y-65532000D02*
X131725000Y-67157000D01*
%TO.N,+5V*%
X88805606Y-66743640D02*
X88805606Y-66743640D01*
X88805606Y-66767238D02*
X88805606Y-66743640D01*
X88829204Y-66767238D02*
X88805606Y-66767238D01*
X89371966Y-67310000D02*
X88829204Y-66767238D01*
X101600000Y-67310000D02*
X89371966Y-67310000D01*
X151580000Y-46170000D02*
X149860000Y-44450000D01*
X151580000Y-57208000D02*
X151580000Y-46170000D01*
X146558000Y-62230000D02*
X151580000Y-57208000D01*
X146558000Y-65501812D02*
X146558000Y-62230000D01*
%TO.N,GNDREF*%
X134645000Y-39395000D02*
X134620000Y-39370000D01*
X120396000Y-51562000D02*
X118872000Y-53086000D01*
D23*
X82630915Y-74849085D02*
X75232273Y-74849085D01*
X75232273Y-74849085D02*
X72773188Y-72390000D01*
X79608709Y-57897829D02*
X87370171Y-57897829D01*
D22*
X136418000Y-30706379D02*
X136445621Y-30734000D01*
X136445621Y-30734000D02*
X136445621Y-30814775D01*
D23*
X84473747Y-75055673D02*
X84725247Y-75307173D01*
D22*
X72469846Y-35017044D02*
X72389999Y-34889289D01*
X118872000Y-53086000D02*
X118872000Y-55352000D01*
X127560417Y-38683979D02*
X125900000Y-40344396D01*
X71628000Y-30527621D02*
X71628000Y-34127290D01*
X68692667Y-29210000D02*
X68580000Y-29210000D01*
D23*
X87370171Y-57897829D02*
X88900000Y-56368000D01*
D24*
X94239000Y-52827000D02*
X94239000Y-51552000D01*
D22*
X136418000Y-24613000D02*
X136418000Y-30706379D01*
X118100000Y-59172000D02*
X118096855Y-59175145D01*
X68580000Y-29097333D02*
X68468214Y-28985547D01*
D23*
X82837502Y-75055673D02*
X84473747Y-75055673D01*
D22*
X132271631Y-46663962D02*
X132271631Y-46692352D01*
X132300021Y-46692352D02*
X132250339Y-46642670D01*
X70010288Y-30527621D02*
X68692667Y-29210000D01*
X114559000Y-59172000D02*
X118100000Y-59172000D01*
X131964643Y-46663962D02*
X132271631Y-46663962D01*
D23*
X79608709Y-60010431D02*
X76779329Y-62839811D01*
X79608709Y-57897829D02*
X79608709Y-60010431D01*
D22*
X134645000Y-43155000D02*
X134645000Y-39395000D01*
X132271631Y-46692352D02*
X132952988Y-46010995D01*
X88900000Y-46225728D02*
X88900000Y-45720000D01*
X90572400Y-47885400D02*
X94239000Y-51552000D01*
X68580000Y-29210000D02*
X68580000Y-29097333D01*
X128576417Y-38683979D02*
X127560417Y-38683979D01*
D23*
X76779329Y-68997500D02*
X82630915Y-74849085D01*
X72773188Y-72390000D02*
X69850000Y-72390000D01*
D22*
X133126707Y-44450000D02*
X133350000Y-44450000D01*
X118872000Y-55352000D02*
X120396000Y-56876000D01*
X54342000Y-29732000D02*
X54342000Y-30836000D01*
X133350000Y-44450000D02*
X134645000Y-43155000D01*
X129607196Y-44306515D02*
X131964643Y-46663962D01*
X136445621Y-30814775D02*
X128576417Y-38683979D01*
X71628000Y-30527621D02*
X70010288Y-30527621D01*
X132952988Y-46010995D02*
X132952988Y-44847012D01*
X125900000Y-40344396D02*
X125900000Y-41606000D01*
X71628000Y-34127290D02*
X72469846Y-35017044D01*
D23*
X76779329Y-62839811D02*
X76779329Y-65696653D01*
D24*
X90698000Y-56368000D02*
X94239000Y-52827000D01*
D22*
X132271631Y-46692352D02*
X132300021Y-46692352D01*
D23*
X82630915Y-74849085D02*
X82837502Y-75055673D01*
D22*
X87240328Y-47885400D02*
X90572400Y-47885400D01*
D24*
X88900000Y-56368000D02*
X90698000Y-56368000D01*
D22*
X132952988Y-44847012D02*
X133350000Y-44450000D01*
X55372000Y-28702000D02*
X54342000Y-29732000D01*
X120396000Y-46208000D02*
X120396000Y-51562000D01*
X87240328Y-47885400D02*
X88900000Y-46225728D01*
%TO.N,{slash}C_CS1*%
X142748000Y-47498000D02*
X142555000Y-47691000D01*
X147906296Y-32433705D02*
X148299000Y-32826409D01*
X147574000Y-31204500D02*
X147574000Y-27935000D01*
X148299000Y-44921000D02*
X148336000Y-44958000D01*
X147574000Y-31204500D02*
X147574000Y-32101409D01*
X142555000Y-47691000D02*
X142555000Y-50402388D01*
X142555000Y-50402388D02*
X141088514Y-51868874D01*
X147574000Y-27935000D02*
X144526000Y-24887000D01*
X147574000Y-32101409D02*
X147906296Y-32433705D01*
X148299000Y-32826409D02*
X148299000Y-44921000D01*
%TO.N,{slash}C_CS12*%
X130530000Y-38878695D02*
X140811000Y-28597695D01*
X143261000Y-26162000D02*
X144526000Y-27427000D01*
X140811000Y-26940299D02*
X141589299Y-26162000D01*
X140811000Y-28597695D02*
X140811000Y-26940299D01*
X141589299Y-26162000D02*
X143261000Y-26162000D01*
X128574000Y-41606000D02*
X130530000Y-39650000D01*
X128440000Y-41606000D02*
X128574000Y-41606000D01*
X130530000Y-39650000D02*
X130530000Y-38878695D01*
%TO.N,{slash}C_SLTSL*%
X125092000Y-28246000D02*
X123952000Y-29386000D01*
X139954000Y-38354000D02*
X139954000Y-50463388D01*
X123952000Y-29386000D02*
X123952000Y-35829000D01*
X139954000Y-50463388D02*
X138548514Y-51868874D01*
X123952000Y-35829000D02*
X125207000Y-37084000D01*
%TO.N,C_A15*%
X112019000Y-51552000D02*
X112019000Y-42413000D01*
X117472000Y-31620000D02*
X118872000Y-33020000D01*
X117472000Y-28246000D02*
X117472000Y-31620000D01*
X114046000Y-40386000D02*
X114554000Y-39878000D01*
X118872000Y-33020000D02*
X118872000Y-35829000D01*
X112019000Y-42413000D02*
X114046000Y-40386000D01*
X118872000Y-35829000D02*
X120127000Y-37084000D01*
%TO.N,{slash}C_IORQ*%
X123190000Y-45974000D02*
X123190000Y-44253398D01*
X117472000Y-25706000D02*
X118771469Y-27005469D01*
X129569102Y-57387000D02*
X124655230Y-52473128D01*
X121412000Y-42475398D02*
X121412000Y-36778009D01*
X134857000Y-57387000D02*
X129569102Y-57387000D01*
X136008514Y-55253486D02*
X136008514Y-51868874D01*
X118771469Y-32172469D02*
X120127000Y-33528000D01*
X124655230Y-47439230D02*
X123190000Y-45974000D01*
X123190000Y-44253398D02*
X121412000Y-42475398D01*
X124655230Y-52473128D02*
X124655230Y-47439230D01*
X121412000Y-36778009D02*
X120127000Y-35493009D01*
X135890000Y-55372000D02*
X136008514Y-55253486D01*
X120127000Y-35493009D02*
X120127000Y-33528000D01*
X118771469Y-27005469D02*
X118771469Y-32172469D01*
X134874000Y-57404000D02*
X134857000Y-57387000D01*
D23*
%TO.N,+5V*%
X57912000Y-33274000D02*
X58942000Y-32244000D01*
X58942000Y-30836000D02*
X60808000Y-30836000D01*
X53592566Y-61950914D02*
X53592566Y-35053434D01*
X73327488Y-63351456D02*
X75661725Y-61017219D01*
X75661725Y-69081978D02*
X80280512Y-73700765D01*
X58942000Y-32244000D02*
X58942000Y-30836000D01*
X53592566Y-35053434D02*
X55372000Y-33274000D01*
X54993108Y-63351456D02*
X53592566Y-61950914D01*
X60808000Y-30836000D02*
X61722000Y-31750000D01*
X54993108Y-63351456D02*
X73327488Y-63351456D01*
X75661725Y-61017219D02*
X75661725Y-69081978D01*
X55372000Y-33274000D02*
X57912000Y-33274000D01*
D22*
%TO.N,C_A12*%
X108842000Y-35959000D02*
X109967000Y-37084000D01*
X102232000Y-34922000D02*
X103269000Y-35959000D01*
X102232000Y-28246000D02*
X102232000Y-34922000D01*
X102232000Y-47120000D02*
X102232000Y-28246000D01*
X99319000Y-50033000D02*
X102232000Y-47120000D01*
X103269000Y-35959000D02*
X108842000Y-35959000D01*
X99319000Y-51552000D02*
X99319000Y-50033000D01*
%TO.N,{slash}C_MREQ*%
X122552000Y-28246000D02*
X122552000Y-33413000D01*
X122552000Y-33413000D02*
X122667000Y-33528000D01*
%TO.N,C_A11*%
X112507000Y-32804604D02*
X112507000Y-33528000D01*
X110998000Y-42418000D02*
X113792000Y-39624000D01*
X108558198Y-26952198D02*
X108558198Y-28855802D01*
X113792000Y-36576000D02*
X112507000Y-35291000D01*
X110998000Y-50033000D02*
X110998000Y-42418000D01*
X109479000Y-51552000D02*
X110998000Y-50033000D01*
X107312000Y-25706000D02*
X108558198Y-26952198D01*
X108558198Y-28855802D02*
X112507000Y-32804604D01*
X112507000Y-35291000D02*
X112507000Y-33528000D01*
X113792000Y-39624000D02*
X113792000Y-36576000D01*
%TO.N,C_A10*%
X107312000Y-28246000D02*
X109967000Y-30901000D01*
X109967000Y-30901000D02*
X109967000Y-33528000D01*
%TO.N,{slash}C_RD*%
X128388514Y-50765505D02*
X127025000Y-49401991D01*
X122667000Y-37069000D02*
X122667000Y-37084000D01*
X127025000Y-47777000D02*
X124485000Y-45237000D01*
X121372284Y-29606284D02*
X121372284Y-35774284D01*
X127025000Y-49401991D02*
X127025000Y-47777000D01*
X121372284Y-35774284D02*
X122667000Y-37069000D01*
X128388514Y-51868874D02*
X128388514Y-50765505D01*
X124485000Y-44912002D02*
X122235000Y-42662002D01*
X120012000Y-28246000D02*
X121372284Y-29606284D01*
X124485000Y-45237000D02*
X124485000Y-44912002D01*
X122235000Y-42662002D02*
X122235000Y-37516000D01*
X122235000Y-37516000D02*
X122667000Y-37084000D01*
%TO.N,C_A9*%
X115047000Y-33528000D02*
X115047000Y-32804604D01*
X111079115Y-26933115D02*
X109852000Y-25706000D01*
X111079115Y-28836719D02*
X111079115Y-26933115D01*
X115047000Y-35291000D02*
X116332000Y-36576000D01*
X115047000Y-32804604D02*
X111079115Y-28836719D01*
X116332000Y-49779000D02*
X114559000Y-51552000D01*
X115047000Y-33528000D02*
X115047000Y-35291000D01*
X116332000Y-36576000D02*
X116332000Y-49779000D01*
%TO.N,{slash}C_RESET*%
X136652000Y-33782000D02*
X136398000Y-33782000D01*
X130980000Y-39200000D02*
X130980000Y-41606000D01*
X136398000Y-33782000D02*
X130980000Y-39200000D01*
%TO.N,C_A8*%
X116332000Y-32186000D02*
X116332000Y-35829000D01*
X116332000Y-35829000D02*
X117587000Y-37084000D01*
X112392000Y-28246000D02*
X116332000Y-32186000D01*
X117587000Y-50561000D02*
X117587000Y-37084000D01*
X116332000Y-51816000D02*
X117587000Y-50561000D01*
%TO.N,C_CLOCK*%
X136060000Y-37422000D02*
X141478000Y-32004000D01*
X136060000Y-41606000D02*
X136060000Y-37422000D01*
%TO.N,C_D7*%
X79372000Y-28246000D02*
X78522000Y-29096000D01*
X73216719Y-40640000D02*
X67096319Y-46760400D01*
X63096138Y-49010400D02*
X61828709Y-50277829D01*
X66269600Y-46760400D02*
X65505328Y-47524672D01*
X73216719Y-39813281D02*
X73216719Y-40640000D01*
X65505328Y-47524672D02*
X65505328Y-49010400D01*
X78522000Y-35850000D02*
X79756000Y-37084000D01*
X65505328Y-49010400D02*
X63096138Y-49010400D01*
X67096319Y-46760400D02*
X66269600Y-46760400D01*
X79756000Y-37084000D02*
X78381923Y-38458077D01*
X78522000Y-29096000D02*
X78522000Y-35850000D01*
X78381923Y-38458077D02*
X74571923Y-38458077D01*
X74571923Y-38458077D02*
X73216719Y-39813281D01*
%TO.N,C_A6*%
X109852000Y-28246000D02*
X113792000Y-32186000D01*
X113792000Y-32186000D02*
X113792000Y-35829000D01*
X110236000Y-41402000D02*
X110236000Y-45715000D01*
X112014000Y-39878000D02*
X111760000Y-39878000D01*
X111760000Y-39878000D02*
X110236000Y-41402000D01*
X110236000Y-45715000D02*
X104399000Y-51552000D01*
X113792000Y-35829000D02*
X115047000Y-37084000D01*
%TO.N,C_D6*%
X65292171Y-50277829D02*
X66559600Y-49010400D01*
X75955328Y-40884673D02*
X75955328Y-39614672D01*
X66559600Y-49010400D02*
X67829601Y-49010400D01*
X81062000Y-35850000D02*
X82296000Y-37084000D01*
X74364337Y-41390400D02*
X75449601Y-41390400D01*
X68335328Y-48504673D02*
X68335328Y-47419409D01*
X64368709Y-50277829D02*
X65292171Y-50277829D01*
X75449601Y-41390400D02*
X75955328Y-40884673D01*
X67829601Y-49010400D02*
X68335328Y-48504673D01*
X81912000Y-28246000D02*
X81062000Y-29096000D01*
X68335328Y-47419409D02*
X74364337Y-41390400D01*
X76429600Y-39140400D02*
X80239600Y-39140400D01*
X80239600Y-39140400D02*
X82296000Y-37084000D01*
X81062000Y-29096000D02*
X81062000Y-35850000D01*
X75955328Y-39614672D02*
X76429600Y-39140400D01*
%TO.N,C_D5*%
X80745328Y-40013672D02*
X82550000Y-38209000D01*
X67857718Y-50277829D02*
X68982718Y-49152829D01*
X84452000Y-28246000D02*
X83602000Y-29096000D01*
X80745328Y-40731391D02*
X80745328Y-40013672D01*
X83602000Y-35850000D02*
X84836000Y-37084000D01*
X83602000Y-29096000D02*
X83602000Y-35850000D01*
X79566719Y-41910000D02*
X80745328Y-40731391D01*
X66908709Y-50277829D02*
X67857718Y-50277829D01*
X70875328Y-48504671D02*
X70875328Y-47234672D01*
X68982718Y-49152829D02*
X70227170Y-49152829D01*
X76200000Y-41910000D02*
X79566719Y-41910000D01*
X70875328Y-47234672D02*
X76200000Y-41910000D01*
X82550000Y-38209000D02*
X83711000Y-38209000D01*
X70227170Y-49152829D02*
X70875328Y-48504671D01*
X83711000Y-38209000D02*
X84836000Y-37084000D01*
%TO.N,C_D4*%
X72833282Y-49086719D02*
X73415328Y-48504673D01*
X86142000Y-29096000D02*
X86142000Y-35850000D01*
X71563281Y-49086719D02*
X72833282Y-49086719D01*
X80836719Y-43180000D02*
X83285328Y-40731391D01*
X69448709Y-50277829D02*
X70372171Y-50277829D01*
X83285328Y-40731391D02*
X83285328Y-40013672D01*
X86142000Y-35850000D02*
X87376000Y-37084000D01*
X86992000Y-28246000D02*
X86142000Y-29096000D01*
X83285328Y-40013672D02*
X85090000Y-38209000D01*
X85090000Y-38209000D02*
X86251000Y-38209000D01*
X77654737Y-43180000D02*
X80836719Y-43180000D01*
X73415328Y-47419409D02*
X77654737Y-43180000D01*
X70372171Y-50277829D02*
X71563281Y-49086719D01*
X73415328Y-48504673D02*
X73415328Y-47419409D01*
X86251000Y-38209000D02*
X87376000Y-37084000D01*
%TO.N,C_D3*%
X71988709Y-50277829D02*
X72912171Y-50277829D01*
X88682000Y-29096000D02*
X88682000Y-35850000D01*
X87630000Y-38209000D02*
X88791000Y-38209000D01*
X89532000Y-28246000D02*
X88682000Y-29096000D01*
X85825328Y-40731391D02*
X85825328Y-40013672D01*
X74103281Y-49086719D02*
X75373282Y-49086719D01*
X88791000Y-38209000D02*
X89916000Y-37084000D01*
X77470000Y-45720000D02*
X80836719Y-45720000D01*
X88682000Y-35850000D02*
X89916000Y-37084000D01*
X72912171Y-50277829D02*
X74103281Y-49086719D01*
X75955328Y-48504673D02*
X75955328Y-47234672D01*
X75955328Y-47234672D02*
X77470000Y-45720000D01*
X85825328Y-40013672D02*
X87630000Y-38209000D01*
X80836719Y-45720000D02*
X85825328Y-40731391D01*
X75373282Y-49086719D02*
X75955328Y-48504673D01*
%TO.N,C_D2*%
X94612000Y-28246000D02*
X91346000Y-31512000D01*
X91346000Y-35974000D02*
X92456000Y-37084000D01*
X85825328Y-47524672D02*
X90170000Y-43180000D01*
X91346000Y-31512000D02*
X91346000Y-35974000D01*
X85825328Y-48351391D02*
X85825328Y-47524672D01*
X74528709Y-50277829D02*
X76601562Y-52350682D01*
X76601562Y-52350682D02*
X81826037Y-52350682D01*
X81826037Y-52350682D02*
X85825328Y-48351391D01*
%TO.N,C_D1*%
X78740000Y-46170000D02*
X81023115Y-46170000D01*
X81023115Y-46170000D02*
X85802715Y-41390400D01*
X97152000Y-28246000D02*
X93726000Y-31672000D01*
X90689600Y-41390400D02*
X94996000Y-37084000D01*
X85802715Y-41390400D02*
X90689600Y-41390400D01*
X78205328Y-46704672D02*
X78740000Y-46170000D01*
X93726000Y-31672000D02*
X93726000Y-35814000D01*
X93726000Y-35814000D02*
X94996000Y-37084000D01*
X77068709Y-50277829D02*
X78205328Y-49141210D01*
X78205328Y-49141210D02*
X78205328Y-46704672D01*
%TO.N,C_D0*%
X83285328Y-47524672D02*
X88969600Y-41840400D01*
X88969600Y-41840400D02*
X92779600Y-41840400D01*
X97536000Y-36830000D02*
X97536000Y-37084000D01*
X81358890Y-50277829D02*
X83285328Y-48351391D01*
X79608709Y-50277829D02*
X81358890Y-50277829D01*
X92779600Y-41840400D02*
X97536000Y-37084000D01*
X99692000Y-28246000D02*
X96266000Y-31672000D01*
X83285328Y-48351391D02*
X83285328Y-47524672D01*
X96266000Y-35560000D02*
X97536000Y-36830000D01*
X96266000Y-31672000D02*
X96266000Y-35560000D01*
%TO.N,{slash}C_M1*%
X127632000Y-28246000D02*
X127632000Y-32052009D01*
X127632000Y-32052009D02*
X126622000Y-33062009D01*
X126622000Y-35959000D02*
X127747000Y-37084000D01*
X126622000Y-33062009D02*
X126622000Y-35959000D01*
%TO.N,{slash}C_RFSH*%
X141986000Y-29967000D02*
X141986000Y-29972000D01*
X133520000Y-38438000D02*
X133520000Y-41606000D01*
X141986000Y-29972000D02*
X133520000Y-38438000D01*
%TO.N,{slash}C_CS2*%
X147574000Y-46228000D02*
X147574000Y-32737805D01*
X147574000Y-32737805D02*
X145796000Y-30959805D01*
X145796000Y-30959805D02*
X145796000Y-29575299D01*
X143261000Y-28702000D02*
X141986000Y-27427000D01*
X145796000Y-29575299D02*
X144922701Y-28702000D01*
X144922701Y-28702000D02*
X143261000Y-28702000D01*
%TO.N,{slash}C_WAIT*%
X143680000Y-50226397D02*
X143680000Y-49226000D01*
X142240000Y-51666397D02*
X143680000Y-50226397D01*
X142240000Y-53594000D02*
X142240000Y-51666397D01*
%TO.N,{slash}CS1*%
X140391601Y-61331961D02*
X140391601Y-72714399D01*
X138548514Y-59488874D02*
X140391601Y-61331961D01*
X140391601Y-72714399D02*
X138430000Y-74676000D01*
%TO.N,{slash}CS2*%
X138609749Y-75759983D02*
X141071631Y-73298101D01*
X141071631Y-61621162D02*
X141088514Y-61604279D01*
X141088514Y-61604279D02*
X141088514Y-59488874D01*
X138609749Y-80509983D02*
X138609749Y-75759983D01*
X141071631Y-73298101D02*
X141071631Y-61621162D01*
%TO.N,{slash}CS12*%
X125900000Y-49226000D02*
X126973514Y-50299514D01*
X139700000Y-72136000D02*
X137268975Y-74567025D01*
X137133514Y-57123514D02*
X137133514Y-65812486D01*
X136652000Y-56642000D02*
X137133514Y-57123514D01*
X139700000Y-68378972D02*
X139700000Y-72136000D01*
X137133514Y-65812486D02*
X139700000Y-68378972D01*
X137268975Y-74567025D02*
X137160000Y-74567025D01*
X126973514Y-53821514D02*
X129794000Y-56642000D01*
X129794000Y-56642000D02*
X136652000Y-56642000D01*
X126973514Y-50299514D02*
X126973514Y-53821514D01*
%TO.N,{slash}SLTSL*%
X136008514Y-65921486D02*
X136008514Y-59488874D01*
X135842025Y-80314405D02*
X135842025Y-75932975D01*
X133038000Y-68892000D02*
X136008514Y-65921486D01*
X133038000Y-73128950D02*
X133038000Y-68892000D01*
X135842025Y-75932975D02*
X133038000Y-73128950D01*
%TO.N,{slash}RFSH*%
X131064000Y-55880000D02*
X129794000Y-54610000D01*
X135119657Y-61984343D02*
X135119657Y-66126874D01*
X132080000Y-55880000D02*
X131064000Y-55880000D01*
X132588000Y-79600380D02*
X133302025Y-80314405D01*
X129794000Y-50412000D02*
X130980000Y-49226000D01*
X132588000Y-68658531D02*
X132588000Y-79600380D01*
X135128000Y-61976000D02*
X135119657Y-61984343D01*
X135119657Y-66126874D02*
X132588000Y-68658531D01*
X129794000Y-54610000D02*
X129794000Y-50412000D01*
%TO.N,{slash}WAIT*%
X131725000Y-67157000D02*
X131725000Y-73100000D01*
X152146000Y-43688000D02*
X152146000Y-62230000D01*
X134366000Y-65532000D02*
X133350000Y-65532000D01*
X152146000Y-62230000D02*
X150114000Y-64262000D01*
X150114000Y-41656000D02*
X152146000Y-43688000D01*
%TO.N,{slash}INT*%
X133350000Y-64262000D02*
X130762025Y-66849975D01*
X130989749Y-80509983D02*
X130989749Y-75759983D01*
X134366000Y-64262000D02*
X133350000Y-64262000D01*
X130762025Y-66849975D02*
X130762025Y-80314405D01*
%TO.N,{slash}M1*%
X133604000Y-62992000D02*
X129275000Y-67321000D01*
X134366000Y-62992000D02*
X133604000Y-62992000D01*
X129275000Y-67321000D02*
X129275000Y-72950000D01*
%TO.N,{slash}BUSDIR*%
X134874000Y-58674000D02*
X134874000Y-60049621D01*
X149098000Y-52070000D02*
X150114000Y-52070000D01*
X146685991Y-48101000D02*
X147828000Y-49243009D01*
X146653000Y-48101000D02*
X146685991Y-48101000D01*
X147828000Y-50800000D02*
X149098000Y-52070000D01*
X128270000Y-66653621D02*
X128270000Y-68834000D01*
X141140000Y-41606000D02*
X141140000Y-42588000D01*
X134874000Y-60049621D02*
X128270000Y-66653621D01*
X128270000Y-80266430D02*
X128270000Y-68614554D01*
X141140000Y-42588000D02*
X146653000Y-48101000D01*
X128222025Y-80314405D02*
X128270000Y-80266430D01*
X147828000Y-49243009D02*
X147828000Y-50800000D01*
X136144000Y-57404000D02*
X134874000Y-58674000D01*
%TO.N,{slash}IORQ*%
X126850000Y-64732630D02*
X129477000Y-62105630D01*
X126850000Y-73175000D02*
X126850000Y-64732630D01*
%TO.N,{slash}MREQ*%
X125682025Y-64735363D02*
X125682025Y-80314405D01*
X130928514Y-59488874D02*
X125682025Y-64735363D01*
%TO.N,{slash}WR*%
X125222000Y-66628000D02*
X124425000Y-67425000D01*
X128388514Y-60620244D02*
X125222000Y-63786758D01*
X124425000Y-73075000D02*
X124425000Y-67425000D01*
X125222000Y-63786758D02*
X125222000Y-66628000D01*
X128388514Y-59488874D02*
X128388514Y-60620244D01*
%TO.N,{slash}RD*%
X87076699Y-55930300D02*
X86410300Y-55930300D01*
X86410300Y-55930300D02*
X86360000Y-55880000D01*
X56748709Y-57897829D02*
X55623709Y-56772829D01*
X125848514Y-62365486D02*
X125848514Y-59488874D01*
X124557000Y-63657000D02*
X125848514Y-62365486D01*
X123142025Y-66920354D02*
X123142025Y-80314405D01*
X124460000Y-65602379D02*
X123142025Y-66920354D01*
X55623709Y-49556719D02*
X57335866Y-47844562D01*
X77470000Y-55880000D02*
X86360000Y-55880000D01*
X124557000Y-65505379D02*
X124557000Y-63657000D01*
X55623709Y-56772829D02*
X55623709Y-49556719D01*
%TO.N,{slash}RESET*%
X123444000Y-53340000D02*
X121920000Y-54864000D01*
X124714000Y-40894000D02*
X124714000Y-42010991D01*
X128390021Y-38233979D02*
X127374021Y-38233979D01*
X133878000Y-32746000D02*
X128390021Y-38233979D01*
X124714000Y-42010991D02*
X128440000Y-45736991D01*
X121920000Y-57658000D02*
X120602025Y-58975975D01*
X120602025Y-58975975D02*
X120602025Y-73072975D01*
X133878000Y-24867000D02*
X133878000Y-32746000D01*
X121920000Y-54864000D02*
X121920000Y-57658000D01*
X128440000Y-45736991D02*
X128440000Y-49226000D01*
X127374021Y-38233979D02*
X124714000Y-40894000D01*
%TO.N,A9*%
X112019000Y-62594000D02*
X119050000Y-69625000D01*
X112019000Y-59172000D02*
X112019000Y-62594000D01*
X119050000Y-69625000D02*
X119050000Y-73050000D01*
%TO.N,A15*%
X118062025Y-80314405D02*
X118062025Y-71273678D01*
X109479000Y-62690653D02*
X109479000Y-59172000D01*
X118062025Y-71273678D02*
X109479000Y-62690653D01*
%TO.N,A11*%
X106939000Y-59172000D02*
X106939000Y-62614000D01*
X106939000Y-62614000D02*
X116700000Y-72375000D01*
X116700000Y-72375000D02*
X116700000Y-73025000D01*
%TO.N,A10*%
X115522025Y-72010629D02*
X104399000Y-60887604D01*
X104399000Y-60887604D02*
X104399000Y-59172000D01*
X115522025Y-80314405D02*
X115522025Y-72010629D01*
%TO.N,A7*%
X111875000Y-72375000D02*
X111875000Y-72400000D01*
X99319000Y-59172000D02*
X99319000Y-59819000D01*
X99319000Y-59819000D02*
X111875000Y-72375000D01*
%TO.N,A6*%
X102047000Y-59172000D02*
X112982025Y-70107025D01*
X112982025Y-70107025D02*
X112982025Y-81007202D01*
X101859000Y-59172000D02*
X102047000Y-59172000D01*
%TO.N,A12*%
X96922000Y-59172000D02*
X110125000Y-72375000D01*
X96779000Y-59172000D02*
X96922000Y-59172000D01*
%TO.N,A8*%
X110442025Y-74450074D02*
X95163951Y-59172000D01*
X110442025Y-80314405D02*
X110442025Y-74450074D01*
X95163951Y-59172000D02*
X94239000Y-59172000D01*
%TO.N,A13*%
X107887124Y-75407773D02*
X107902025Y-80314405D01*
X107902025Y-75564405D02*
X107887124Y-75407773D01*
%TO.N,A1*%
X77080328Y-47885400D02*
X77080328Y-48649672D01*
X75943709Y-50743820D02*
X76829840Y-51629951D01*
X77924642Y-51629951D02*
X77993882Y-51625682D01*
X75943709Y-49786291D02*
X75943709Y-50743820D01*
X77933180Y-51629951D02*
X77928911Y-51629951D01*
X77080328Y-48649672D02*
X75943709Y-49786291D01*
X76829840Y-51629951D02*
X77924642Y-51629951D01*
X77993882Y-51625682D02*
X77933180Y-51629951D01*
%TO.N,A0*%
X105082972Y-75759951D02*
X105362025Y-76039004D01*
X105362025Y-76039004D02*
X105362025Y-81007202D01*
X105082972Y-75734801D02*
X105158422Y-75810251D01*
X105082972Y-75759951D02*
X105082972Y-75734801D01*
X105108122Y-75759951D02*
X105082972Y-75759951D01*
%TO.N,A2*%
X102828819Y-74405534D02*
X102828819Y-74348947D01*
X102822025Y-74355741D02*
X102822025Y-81007202D01*
X102772232Y-74348947D02*
X102809957Y-74386672D01*
X102828819Y-74348947D02*
X102772232Y-74348947D01*
X102828819Y-74348947D02*
X102822025Y-74355741D01*
X102822025Y-74398740D02*
X102828819Y-74405534D01*
%TO.N,A4*%
X99751471Y-75093321D02*
X99732609Y-75093321D01*
X99808059Y-75149909D02*
X99751471Y-75093321D01*
X99732609Y-75093321D02*
X99732609Y-75074459D01*
X99732609Y-75093321D02*
X100282025Y-75642737D01*
X100282025Y-75642737D02*
X100282025Y-81007202D01*
%TO.N,D0*%
X97742025Y-75345052D02*
X97742025Y-81007202D01*
%TO.N,D2*%
X95231491Y-74948509D02*
X95202025Y-74977975D01*
X95202025Y-74977975D02*
X95202025Y-81007202D01*
%TO.N,D4*%
X92662025Y-74977975D02*
X92662025Y-81007202D01*
X92710000Y-74930000D02*
X92662025Y-74977975D01*
%TO.N,D6*%
X90122025Y-75586226D02*
X90122025Y-81007202D01*
X89968876Y-75433077D02*
X90122025Y-75586226D01*
X90127683Y-80308747D02*
X90122025Y-80314405D01*
%TO.N,CLOCK*%
X95916629Y-56986447D02*
X95954354Y-56873272D01*
X87582025Y-65538975D02*
X93114000Y-60007000D01*
X93114000Y-60007000D02*
X93114000Y-58657325D01*
X93114000Y-58657325D02*
X94898053Y-56873272D01*
X132334000Y-54194745D02*
X132334000Y-50412000D01*
X87582025Y-81007202D02*
X87582025Y-65538975D01*
X131373245Y-55155500D02*
X132334000Y-54194745D01*
X94898053Y-56873272D02*
X95916629Y-56986447D01*
X132334000Y-50412000D02*
X133520000Y-49226000D01*
%TO.N,C_CLK_OR_RST*%
X129268443Y-27342443D02*
X129268443Y-32006557D01*
X127632000Y-25706000D02*
X129268443Y-27342443D01*
X129268443Y-32006557D02*
X127747000Y-33528000D01*
%TO.N,C_A7*%
X101859000Y-51552000D02*
X103373000Y-50038000D01*
X109474000Y-45466000D02*
X109474000Y-41148000D01*
X104902000Y-50038000D02*
X109474000Y-45466000D01*
X112507000Y-38115000D02*
X112507000Y-37084000D01*
X103373000Y-50038000D02*
X104902000Y-50038000D01*
X108712000Y-34036000D02*
X111760000Y-37084000D01*
X104772000Y-28246000D02*
X108712000Y-32186000D01*
X108712000Y-32186000D02*
X108712000Y-34036000D01*
X109474000Y-41148000D02*
X112507000Y-38115000D01*
X111760000Y-37084000D02*
X112507000Y-37084000D01*
%TO.N,C_A5*%
X80570999Y-32728001D02*
X80570999Y-26904999D01*
X80570999Y-26904999D02*
X79372000Y-25706000D01*
X79771000Y-33528000D02*
X80570999Y-32728001D01*
%TO.N,C_A4*%
X83087000Y-26881000D02*
X81912000Y-25706000D01*
X82311000Y-33528000D02*
X83087000Y-32752000D01*
X83087000Y-32752000D02*
X83087000Y-26881000D01*
%TO.N,C_A3*%
X85692000Y-32687000D02*
X85692000Y-27018000D01*
X84851000Y-33528000D02*
X85692000Y-32687000D01*
X84452000Y-25778000D02*
X84452000Y-25706000D01*
X85692000Y-27018000D02*
X84452000Y-25778000D01*
%TO.N,C_A2*%
X87391000Y-33528000D02*
X88167000Y-32752000D01*
X88167000Y-32752000D02*
X88167000Y-26881000D01*
X88167000Y-26881000D02*
X86992000Y-25706000D01*
%TO.N,C_A1*%
X89931000Y-33528000D02*
X90707000Y-32752000D01*
X90707000Y-26881000D02*
X89532000Y-25706000D01*
X90707000Y-32752000D02*
X90707000Y-26881000D01*
%TO.N,C_A0*%
X92471000Y-32048701D02*
X95787000Y-28732701D01*
X95787000Y-28732701D02*
X95787000Y-26881000D01*
X92471000Y-33528000D02*
X92471000Y-32048701D01*
X95787000Y-26881000D02*
X94612000Y-25706000D01*
%TO.N,C_A14*%
X95011000Y-33528000D02*
X95011000Y-32048701D01*
X98298000Y-27178000D02*
X98298000Y-26852000D01*
X95011000Y-32048701D02*
X98327000Y-28732701D01*
X98327000Y-28732701D02*
X98327000Y-27207000D01*
X98298000Y-26852000D02*
X97152000Y-25706000D01*
X98327000Y-27207000D02*
X98298000Y-27178000D01*
%TO.N,C_A13*%
X97551000Y-33528000D02*
X100869722Y-30209278D01*
X100869722Y-26883722D02*
X99692000Y-25706000D01*
X100869722Y-30209278D02*
X100869722Y-26883722D01*
%TO.N,{slash}C_WR*%
X112392000Y-25706000D02*
X113567000Y-26881000D01*
X117587000Y-32693000D02*
X117587000Y-33528000D01*
X118872000Y-36778009D02*
X117587000Y-35493009D01*
X117587000Y-35493009D02*
X117587000Y-33528000D01*
X113567000Y-28673000D02*
X117587000Y-32693000D01*
X113567000Y-26881000D02*
X113567000Y-28673000D01*
X118872000Y-47244000D02*
X118872000Y-36778009D01*
%TO.N,Net-(D1-A)*%
X151130000Y-53848000D02*
X150114000Y-54864000D01*
X148590000Y-49368613D02*
X148590000Y-50038000D01*
X149098000Y-50546000D02*
X150368000Y-50546000D01*
X143680000Y-44491604D02*
X146495198Y-47306802D01*
X150368000Y-50546000D02*
X151130000Y-51308000D01*
X148590000Y-50038000D02*
X149098000Y-50546000D01*
X143680000Y-41606000D02*
X143680000Y-44491604D01*
X146528189Y-47306802D02*
X148590000Y-49368613D01*
X146495198Y-47306802D02*
X146528189Y-47306802D01*
X151130000Y-51308000D02*
X151130000Y-53848000D01*
%TO.N,SW1*%
X84237378Y-76451901D02*
X82728375Y-76451901D01*
X82502025Y-76678251D02*
X82502025Y-81007202D01*
X82728375Y-76451901D02*
X82502025Y-76678251D01*
X85036533Y-80499850D02*
X85036533Y-77251056D01*
X85036533Y-77251056D02*
X84237378Y-76451901D01*
%TO.N,Vdd*%
X65786000Y-27940000D02*
X67733440Y-29887440D01*
X61562447Y-40235930D02*
X64350858Y-40235930D01*
D24*
X132208677Y-58548677D02*
X132208677Y-61123953D01*
D22*
X64380328Y-37433369D02*
X64480620Y-37333077D01*
X100076000Y-37084000D02*
X100076000Y-33543000D01*
X100076000Y-37084000D02*
X100076000Y-44450000D01*
X64350858Y-40235930D02*
X64380328Y-40265400D01*
X59197726Y-47828812D02*
X61505859Y-47828812D01*
D24*
X129351640Y-57912000D02*
X131572000Y-57912000D01*
D22*
X64380328Y-40265400D02*
X64380328Y-37433369D01*
X56748709Y-50277829D02*
X59197726Y-47828812D01*
X65873621Y-28027621D02*
X65786000Y-27940000D01*
X57347234Y-40235930D02*
X57335866Y-40224562D01*
X122903126Y-51868874D02*
X123308514Y-51868874D01*
X107427000Y-37084000D02*
X107427000Y-45451000D01*
X122221258Y-50781618D02*
X123308514Y-51868874D01*
X120396000Y-54376000D02*
X122903126Y-51868874D01*
X120396000Y-43708000D02*
X120396000Y-43952000D01*
X67733440Y-29887440D02*
X67733440Y-36533078D01*
X57335866Y-43658819D02*
X61505859Y-47828812D01*
D24*
X132208677Y-61123953D02*
X131052000Y-62280630D01*
D22*
X120396000Y-43952000D02*
X122221258Y-45777258D01*
D24*
X131572000Y-57912000D02*
X132208677Y-58548677D01*
D22*
X71628000Y-28027621D02*
X65873621Y-28027621D01*
X122221258Y-45777258D02*
X122221258Y-50781618D01*
X100076000Y-44450000D02*
X99060000Y-45466000D01*
X67733440Y-36533078D02*
X66933441Y-37333077D01*
X107427000Y-45451000D02*
X107442000Y-45466000D01*
X100076000Y-33543000D02*
X100091000Y-33528000D01*
X61562447Y-40235930D02*
X57347234Y-40235930D01*
X57335866Y-40224562D02*
X57335866Y-43658819D01*
D24*
X123308514Y-51868874D02*
X129351640Y-57912000D01*
D22*
X64480620Y-37333077D02*
X66933441Y-37333077D01*
%TO.N,{slash}C_INT*%
X130556000Y-33020000D02*
X130556000Y-26098556D01*
X130556000Y-26098556D02*
X128587444Y-24130000D01*
X128587444Y-24130000D02*
X121158000Y-24130000D01*
%TO.N,{slash}C_BUSDIR*%
X128270000Y-39408479D02*
X128270000Y-39370000D01*
X135636000Y-50546000D02*
X137280000Y-50546000D01*
X127254000Y-40386000D02*
X127254000Y-43582186D01*
X134874000Y-48989009D02*
X134874000Y-49784000D01*
X137280000Y-50546000D02*
X138600000Y-49226000D01*
X127254000Y-43582186D02*
X131677814Y-48006000D01*
X133890991Y-48006000D02*
X134874000Y-48989009D01*
X131677814Y-48006000D02*
X133890991Y-48006000D01*
X134874000Y-49784000D02*
X135636000Y-50546000D01*
X128270000Y-39370000D02*
X127254000Y-40386000D01*
%TO.N,{slash}C_U1_D_OE*%
X65795328Y-39614672D02*
X66269600Y-39140400D01*
X72746118Y-39140400D02*
X74553441Y-37333077D01*
X74930000Y-24638000D02*
X75487000Y-24081000D01*
X62957876Y-46823653D02*
X65795328Y-43986201D01*
X59288709Y-50277829D02*
X60612726Y-48953812D01*
X60612726Y-48953812D02*
X62269652Y-48953812D01*
X118387000Y-24081000D02*
X120012000Y-25706000D01*
X66269600Y-39140400D02*
X72746118Y-39140400D01*
X75487000Y-24081000D02*
X118387000Y-24081000D01*
X62957876Y-48265588D02*
X62957876Y-46823653D01*
X65795328Y-43986201D02*
X65795328Y-39614672D01*
X62269652Y-48953812D02*
X62957876Y-48265588D01*
%TO.N,{slash}C_CS_SLT*%
X126357621Y-26971621D02*
X126357621Y-32377379D01*
X126357621Y-32377379D02*
X125207000Y-33528000D01*
X125092000Y-25706000D02*
X126357621Y-26971621D01*
%TO.N,Net-(U4-DIR)*%
X123308514Y-62157144D02*
X123432000Y-62280630D01*
X123308514Y-59488874D02*
X123308514Y-62157144D01*
%TO.N,Net-(U3-DIR)*%
X95504000Y-49530000D02*
X95504000Y-55367000D01*
X95504000Y-55367000D02*
X91699000Y-59172000D01*
X91440000Y-45466000D02*
X95504000Y-49530000D01*
D23*
%TO.N,MSX_3.3V*%
X56642000Y-27432000D02*
X56642000Y-24536000D01*
X56642000Y-24536000D02*
X59354000Y-24536000D01*
X56642000Y-30836000D02*
X56642000Y-27432000D01*
X59354000Y-24536000D02*
X61722000Y-26904000D01*
X65298000Y-30480000D02*
X65786000Y-30480000D01*
X61722000Y-26904000D02*
X65298000Y-30480000D01*
D22*
%TO.N,DE_3.3V*%
X90897000Y-24531000D02*
X78847000Y-24531000D01*
X77978000Y-25400000D02*
X65786000Y-25400000D01*
X92072000Y-25706000D02*
X90897000Y-24531000D01*
X78847000Y-24531000D02*
X77978000Y-25400000D01*
%TO.N,C_SOUNDIN*%
X136060000Y-49226000D02*
X137305000Y-47981000D01*
X144526000Y-30734000D02*
X144526000Y-29967000D01*
X137305000Y-37955000D02*
X144526000Y-30734000D01*
X137305000Y-47981000D02*
X137305000Y-37955000D01*
%TD*%
M02*
